<svg xmlns="http://www.w3.org/2000/svg" xmlns:xlink="http://www.w3.org/1999/xlink" width="90" height="75" viewBox="0 0 90 75">
    <defs>
        <path id="a" d="M.081.2h18.925v23.885H.08z"/>
    </defs>
    <g fill="none" fill-rule="evenodd">
        <path fill="#1E1D23" d="M31.052 74.975L10.65 63.029l20.418-11.623L51.47 63.352z" opacity=".1"/>
        <path fill="#DFE0E1" d="M51.628 58.447L31.082 70.143l.16-26.122 20.545-11.696z"/>
        <path fill="#F0F0F1" d="M31.241 44.02L10.84 32.076l20.418-11.622L51.66 32.398z"/>
        <path fill="#DFE0E1" d="M31.241 44.02L10.84 32.076l20.418-11.622z"/>
        <path fill="#F0F0F1" d="M31.081 70.143L10.68 58.197l.16-26.122L31.24 44.02z"/>
        <path fill="#CCCDCE" d="M22.223 49.154L1.82 37.208l9.018-5.133 20.402 11.946zM0 25.728l10.84 6.347 20.417-11.623-10.84-6.346zM42.08 50.368L31.241 44.02l20.418-11.623 10.84 6.347z"/>
        <path fill="#CCCDCE" d="M51.659 32.398L31.257 20.452l9.019-5.133 20.401 11.946z"/>
        <path fill="#1E1D23" d="M13.485 29.3c3.03.605 6.283-.623 9.25-1.486 2.37-.688 4.75-1.49 6.777-2.897 1.192-.827 2.237-1.845 3.276-2.859.487-.476.977-.955 1.368-1.513.277-.396.507-.836.869-1.157.264-.234.596-.403.786-.7.421-.656-.049-1.501-.507-2.131-1.502.154-2.878.914-4.098 1.803-1.221.889-2.337 1.922-3.603 2.745-2.614 1.699-5.73 2.414-8.783 3.044-2.493.513-5.114.949-7.541-.061-.865-.36-2.062-.955-2.062-.955s-.464 1.158-.524 1.665c-.095.802-.097 2.175.513 2.643 1.179.9 2.777 1.558 4.28 1.858M44.232 20.473c-.883.442-1.529 1.23-2.21 1.945a18.035 18.035 0 0 1-3.054 2.55l3.384 1.98c.68-.45 1.388-.86 2.118-1.224.999-.498 2.079-.942 2.792-1.802 1.818-2.193-.713-4.606-3.03-3.449" opacity=".1"/>
        <path fill="#0975CE" d="M35.915 16.613l-.61-2.473s-.175-4.077-.144-3.996c.032.08 2.091.133 2.091.133l2.667-.718 2.564-1.948 2.256-1.128 1.641.923-.308 3.384-1.026 4.718-3.384 1.23-4 .923-1.747-1.048zM25.249 10.562l-.61-2.473s-.7-3.482-.668-3.401c.032.08 2.615-.461 2.615-.461l2.667-.718 2.564-1.95L34.073.433l1.641.923-.308 3.384-1.026 4.718-3.384 1.23-4 .924-1.747-1.05z"/>
        <path fill="#1E1D23" d="M13.485 26.883c3.03.605 6.283-.623 9.25-1.485 2.37-.688 4.75-1.49 6.777-2.897 1.192-.827 2.237-1.846 3.276-2.859.487-.476.977-.955 1.368-1.514.277-.396.507-.836.869-1.157.264-.234.596-.403.786-.7.421-.656-.049-1.5-.507-2.13-1.502.154-2.878.914-4.098 1.803-1.221.889-2.337 1.922-3.603 2.745-2.614 1.698-5.73 2.414-8.783 3.043-2.493.514-5.114.95-7.541-.061-.865-.36-2.062-.955-2.062-.955s-.464 1.158-.524 1.665c-.095.803-.097 2.176.513 2.643 1.179.901 2.777 1.559 4.28 1.859"/>
        <g transform="translate(18.41 -.196)">
            <mask id="b" fill="#fff">
                <use xlink:href="#a"/>
            </mask>
            <path fill="#3E9FFF" d="M5.562 4.884s3.368-.946 4.57-1.577c1.203-.631 3.304-2.927 5.54-3.095.476-.036.978 0 1.388.247.667.402.913 1.234 1.081 1.993.645 2.924.932 5.927.851 8.92-.014.546-.045 1.108-.284 1.598-.222.457-.606.81-.981 1.154-2.223 2.03-4.459 4.072-6.994 5.696-1.414.906-2.91 1.675-4.437 2.374a49.078 49.078 0 0 1-3.89 1.592c-.168.06-1.1.344-1.271.293-.212-.062.02-.336-.086-.53-.92-1.678-1.232-3.797-.727-5.642.417-1.524 1.58-2.714 2.73-3.798a83.205 83.205 0 0 1 3.769-3.343c.363-.303.736-.608 1.177-.78.786-.306 1.664-.153 2.507-.167a6.22 6.22 0 0 0 4.718-2.353 6.22 6.22 0 0 0 1.145-5.146c-.069-.299-.166-.603-.372-.83-.425-.466-1.189-.456-1.753-.174-.65.324-1.707 1.66-3.149 2.442-1.442.781-4.57 1.607-4.57 1.607l-.962-.481z" mask="url(#b)"/>
        </g>
        <path fill="#FFF" d="M27.353 5.46c-.546-.358-1.226-.419-1.861-.565a6.628 6.628 0 0 1-1.572-.579c-.264-.137-.526-.295-.82-.336-.574-.081-1.128.313-1.427.81-.298.498-.397 1.085-.515 1.653-.174.84-.4 1.67-.675 2.483-.213.628-.46 1.253-.843 1.794-.247.347-.547.653-.845.958-1.096 1.118-2.225 2.26-3.644 2.926-.701.329-1.457.532-2.154.873a7.72 7.72 0 0 0-1.574 1.054c-.918.777-1.723 1.746-2.057 2.902-.334 1.156-.119 2.518.749 3.351.662.636 1.594.892 2.495 1.067 2.066.403 4.191.5 6.286.29.238-.024.503-.067.648-.258.188-.25.072-.602-.043-.893-.506-1.27-.869-2.62-.832-3.988.036-1.367.506-2.757 1.476-3.722.486-.483 1.078-.845 1.603-1.286.462-.39.87-.839 1.298-1.266 1.333-1.328 2.962-2.089 4.386-3.252 1.16-.947 1.23-3.155-.08-4.016"/>
        <path fill="#1E1D23" d="M47.262 21.506c-.713.86-1.793 1.304-2.792 1.802a20.144 20.144 0 0 0-5.333 3.866c-.866.878-1.655 1.838-2.6 2.63-1.555 1.303-3.488 2.106-5.476 2.513-2.37.485-4.828.429-7.222.075-1.485-.22-3.034-.595-4.118-1.633a3.511 3.511 0 0 1-1.018-1.993c-.108-.742.551-3.497.551-3.497s2.852.523 4.388.703c6.633.776 13.77-1.138 18.38-5.97.681-.715 1.327-1.504 2.21-1.945 2.317-1.157 4.849 1.255 3.03 3.449"/>
        <path fill="#3E9FFF" d="M35.193 10.224c2.071-.276 4.215-.716 5.859-2.007.682-.535 1.255-1.2 1.954-1.714.699-.513 1.588-.87 2.43-.658.812.206 1.422.916 1.73 1.696.307.78.36 1.634.41 2.471l.308 5.165c.082 1.37.111 2.901-.804 3.925-.42.47-.994.771-1.54 1.092-4.853 2.85-8.392 7.972-13.794 9.554-.421.124-1.65.641-2.032.425-.36-.203.223-1.047.092-1.44-.445-1.342-1.135-2.794-1.271-4.2-.075-.77.298-1.51.584-2.227.361-.907 1.158-1.554 1.923-2.16l2.045-1.617c1.454-1.152 2.966-2.332 4.76-2.802 2.161-.566 4.762-.142 6.361-1.7 1.237-1.205 1.342-3.132 1.275-4.857-.023-.584-.087-1.235-.528-1.62-.479-.42-1.237-.346-1.79-.03-.555.315-.97.82-1.429 1.262a7.916 7.916 0 0 1-5.264 2.19l-1.279-.748z"/>
        <path fill="#FFF" d="M21.125 28.422c-1.033-.718-2.03-1.81-1.868-3.058.1-.775.633-1.422 1.208-1.95a9.755 9.755 0 0 1 3.142-1.938c.794-.3 1.631-.497 2.383-.893 1.144-.601 2.011-1.62 2.76-2.674a23.487 23.487 0 0 0 2.732-5.067c.265-.68.505-1.384.943-1.967.44-.583 1.128-1.036 1.856-.977.304.024.595.136.88.246l2.629 1.014c.284.11.573.222.814.407.908.697.792 2.179.096 3.088-.696.908-1.782 1.408-2.785 1.96a21.146 21.146 0 0 0-5.777 4.663c-.55.634-1.077 1.334-1.244 2.157-.187.924.105 1.871.399 2.768.308.942 1.027 2.52.764 3.527-.26.994-1.59.795-2.529.77-2.274-.06-4.533-.777-6.403-2.076"/>
        <path fill="#231F20" d="M34.286 19.326a.36.36 0 0 1-.303-.166c-.854-1.33-2.49-2.148-4.065-2.035a.36.36 0 1 1-.052-.719c1.83-.132 3.731.819 4.724 2.365a.36.36 0 0 1-.304.555M32.779 20.933a.36.36 0 0 1-.309-.174c-.726-1.194-2.15-1.94-3.549-1.855a.36.36 0 1 1-.044-.72c1.657-.102 3.347.784 4.21 2.2a.36.36 0 0 1-.308.549M31.226 22.454a.36.36 0 0 1-.334-.224c-.243-.59-.814-1.105-1.567-1.413-.717-.294-1.521-.394-2.299-.491a.36.36 0 0 1 .09-.716c.824.103 1.676.21 2.482.539.944.386 1.64 1.028 1.961 1.807a.36.36 0 0 1-.333.498M23.467 13.285a.361.361 0 0 1-.303-.165c-.854-1.33-2.486-2.149-4.065-2.036a.36.36 0 0 1-.052-.719c1.832-.132 3.731.819 4.724 2.365a.36.36 0 0 1-.304.555M21.96 14.892a.36.36 0 0 1-.309-.173c-.727-1.195-2.153-1.941-3.549-1.856a.36.36 0 1 1-.044-.72c1.658-.101 3.347.784 4.21 2.201a.36.36 0 0 1-.308.548M20.407 16.413a.36.36 0 0 1-.334-.223c-.332-.809-1.125-1.233-1.567-1.414-.718-.293-1.522-.393-2.299-.49a.36.36 0 0 1 .09-.717c.823.103 1.675.21 2.482.54.944.386 1.64 1.027 1.961 1.806a.36.36 0 0 1-.333.498"/>
        <path fill="#1A82FF" d="M65.563 16.8a2.382 2.382 0 0 1-3.368-.02 2.382 2.382 0 0 1 3.388-3.348 2.38 2.38 0 0 1-.02 3.368zm5.035-7.604L57.975 9.12l-.077 12.627 18.955 19.187L89.556 28.39 70.598 9.196z"/>
        <path fill="#FFF" d="M69.193 23.32c.19.148.351.233.484.255.235.037.475-.067.721-.31.187-.185.273-.394.256-.629-.012-.138-.072-.33-.184-.578l-1.277 1.262zm3.101-3.69c-.192-.185-.381-.276-.569-.271-.187.004-.364.089-.532.254a.733.733 0 0 0-.231.635c.016.135.078.306.185.515l1.147-1.133zm-4.487 5.058l-.313-.317.65-.642c-.375-.476-.598-.889-.667-1.238-.118-.62.128-1.224.738-1.814l.871.882c-.244.301-.386.526-.426.673-.061.23.008.49.21.78l1.395-1.378-.183-.342c-.289-.536-.41-.998-.36-1.384.049-.386.227-.73.534-1.034.202-.2.42-.349.65-.446.231-.097.466-.145.704-.144.308.002.584.07.83.2.152.08.346.221.583.426l.434-.429.313.317-.44.435c.32.382.507.745.56 1.092.129.596-.061 1.159-.572 1.689l-.848-.86c.176-.209.286-.38.329-.516.073-.235.012-.467-.185-.697l-1.245 1.23c.33.692.516 1.194.554 1.508.06.518-.117.984-.533 1.395-.549.542-1.146.734-1.793.577-.396-.096-.773-.3-1.133-.612l-.657.65zM72.869 27.041c.19.149.351.234.485.255.234.037.474-.066.72-.309.187-.186.273-.395.256-.63-.011-.138-.072-.33-.184-.578l-1.277 1.262zm3.101-3.69c-.191-.185-.381-.275-.568-.27-.187.003-.365.088-.533.254a.732.732 0 0 0-.23.635c.016.134.078.306.184.514l1.147-1.133zm-4.486 5.059l-.313-.317.65-.643c-.376-.476-.6-.888-.668-1.238-.118-.62.129-1.224.738-1.814l.872.882c-.245.302-.386.526-.426.673-.063.23.007.49.21.78l1.394-1.377-.183-.342c-.289-.537-.409-.999-.36-1.384.049-.387.227-.731.534-1.035.203-.2.42-.348.65-.446.232-.097.466-.145.705-.143.307.002.584.068.83.2.151.079.345.22.582.426l.434-.43.313.317-.44.436c.32.381.507.745.56 1.09.13.597-.061 1.16-.571 1.69l-.85-.86c.178-.208.288-.38.33-.516.074-.234.012-.467-.185-.697l-1.245 1.23c.331.692.516 1.195.555 1.508.06.519-.117.984-.534 1.395-.548.542-1.146.735-1.793.577-.395-.096-.773-.3-1.133-.611l-.656.649zM76.545 30.763c.19.148.352.233.485.255.234.037.474-.067.72-.31.188-.185.273-.394.257-.629-.012-.138-.073-.33-.184-.578l-1.278 1.262zm3.102-3.69c-.192-.185-.382-.276-.569-.271-.187.004-.365.089-.532.254a.733.733 0 0 0-.231.635c.016.135.078.306.185.515l1.147-1.133zM75.16 32.13l-.313-.317.65-.642c-.376-.476-.599-.889-.668-1.238-.117-.62.129-1.225.739-1.815l.87.883c-.244.301-.385.526-.425.673-.062.23.008.49.21.78l1.395-1.378-.183-.342c-.29-.536-.41-.998-.36-1.384.048-.386.227-.73.533-1.034.203-.2.42-.349.651-.446.231-.097.466-.145.704-.144.307.002.584.069.83.2.151.08.345.221.582.426l.435-.429.312.317-.44.435c.32.382.507.745.56 1.091.13.597-.06 1.16-.571 1.69l-.849-.86c.177-.209.287-.38.33-.516.073-.235.012-.467-.186-.697l-1.245 1.229c.331.693.517 1.195.555 1.509.06.518-.117.984-.533 1.394-.55.543-1.147.735-1.793.577-.396-.095-.774-.299-1.133-.61l-.657.648z"/>
        <path fill="#231F20" d="M62.163 9.568c-2.62-1.903-4.89-2.939-7.143-3.26-2.818-.403-5.553.48-7.138 2.305l-.32-.278c1.679-1.932 4.559-2.868 7.518-2.446 2.323.331 4.653 1.391 7.332 3.337l-.249.342zM57.64 18.696c-2.403 0-4.494-.443-6.233-1.321-2.53-1.279-4.315-3.595-4.66-6.046l.42-.059c.325 2.316 2.023 4.51 4.43 5.727 2.004 1.012 4.504 1.427 7.43 1.227.719-.048 1.887-.506 2.558-.902.284-.168 1.703-1.171 1.723-4.411l.423.003c-.016 2.686-1.008 4.227-1.93 4.772-.729.43-1.954.907-2.746.961-.483.032-.955.049-1.416.049"/>
    </g>
</svg>
