<svg xmlns="http://www.w3.org/2000/svg" xmlns:xlink="http://www.w3.org/1999/xlink" width="491" height="312" viewBox="0 0 491 312">
    <defs>
        <linearGradient id="a" x1="100%" x2="45.902%" y1="26.172%" y2="80.569%">
            <stop offset="0%" stop-color="#F7F9FA" stop-opacity="0"/>
            <stop offset="100%" stop-color="#DADFE3"/>
        </linearGradient>
        <path id="b" d="M0 .228h106.492v61.335H0z"/>
        <linearGradient id="d" x1="83.945%" x2="50%" y1="50%" y2="86.312%">
            <stop offset="0%" stop-color="#F1F4F6"/>
            <stop offset="100%" stop-color="#DFE6EA"/>
        </linearGradient>
        <path id="e" d="M0 .15h70.663v40.56H0z"/>
        <path id="g" d="M0 .118h55.734v31.656H0z"/>
    </defs>
    <g fill="none" fill-rule="evenodd">
        <path fill="url(#a)" d="M133.012 27.88c3.426 1.973 3.426 5.202 0 7.175L59.652 76.88c-3.425 1.973-9.03 1.973-12.456 0L2.569 51.178c-3.425-1.973-3.425-5.201 0-7.174L75.93 2.177c3.425-1.973 9.03-1.973 12.456 0l44.627 25.703z" transform="translate(0 233)"/>
        <path fill="#C2CBD3" d="M53 240.735c-2.24 0-4.479-.494-6.178-1.482l-44.28-25.757C.883 212.533.041 211.269 0 210v63.265c.042 1.27.884 2.532 2.541 3.496l44.28 25.757c1.7.988 3.94 1.482 6.179 1.482v-63.265z"/>
        <path fill="#98A7B4" d="M53 240.735c2.255 0 4.511-.494 6.222-1.482l44.219-25.552c1.757-1.015 2.606-2.362 2.557-3.701v63.265c.049 1.339-.8 2.685-2.557 3.701l-44.219 25.552C57.512 303.507 55.255 304 53 304v-63.265z"/>
        <g transform="translate(0 179)">
            <mask id="c" fill="#fff">
                <use xlink:href="#b"/>
            </mask>
            <path fill="#F4F7F9" d="M103.923 27.411c3.426 1.973 3.426 5.202 0 7.175l-44.27 25.497c-3.426 1.973-9.031 1.973-12.457 0L2.569 34.38c-3.425-1.973-3.425-5.201 0-7.174L46.84 1.708c3.426-1.973 9.032-1.973 12.457 0l44.627 25.703z" mask="url(#c)"/>
        </g>
        <g>
            <path fill="url(#d)" d="M85.074 18.666c2.273 1.304 2.273 3.44 0 4.744L40.045 49.242c-2.272 1.304-5.992 1.304-8.265 0L2.168 32.244c-2.273-1.305-2.273-3.44 0-4.744L47.197 1.668c2.273-1.304 5.992-1.304 8.265 0l29.612 16.998z" transform="translate(288 63)"/>
            <path fill="#C2CBD3" d="M316 41.272c-1.479 0-2.958-.326-4.08-.978l-29.242-16.988c-1.094-.636-1.65-1.469-1.678-2.306v41.728c.028.838.584 1.67 1.678 2.306l29.242 16.988c1.122.652 2.601.978 4.08.978V41.272z"/>
            <path fill="#98A7B4" d="M316 41.272c1.49 0 2.979-.325 4.11-.978l29.2-16.853c1.16-.67 1.72-1.558 1.689-2.441v41.728c.032.883-.529 1.771-1.69 2.441l-29.2 16.853c-1.13.653-2.62.978-4.109.978V41.272z"/>
            <g transform="translate(281)">
                <mask id="f" fill="#fff">
                    <use xlink:href="#e"/>
                </mask>
                <path fill="#F4F7F9" d="M68.958 18.127c2.273 1.304 2.273 3.44 0 4.744L39.582 39.732c-2.273 1.305-5.992 1.305-8.265 0L1.705 22.735c-2.273-1.305-2.273-3.44 0-4.744L31.08 1.129c2.272-1.304 5.992-1.304 8.265 0l29.612 16.998z" mask="url(#f)"/>
            </g>
        </g>
        <g>
            <path fill="#DFE6EA" d="M488.39 99.882c1.792 1.018 1.792 2.685 0 3.703l-23.17 13.16c-1.793 1.018-4.726 1.018-6.52 0l-23.355-13.266c-1.793-1.019-1.793-2.685 0-3.703l23.17-13.16c1.792-1.019 4.726-1.019 6.518 0l23.356 13.266z"/>
            <path fill="#C2CBD3" d="M462 79.022c-1.225 0-2.45-.258-3.38-.773l-24.23-13.427c-.906-.502-1.367-1.16-1.39-1.822v32.979c.023.662.484 1.32 1.39 1.822l24.23 13.426c.93.516 2.155.773 3.38.773V79.022z"/>
            <path fill="#98A7B4" d="M462 79.022c1.234 0 2.468-.258 3.405-.773l24.195-13.32c.961-.529 1.426-1.231 1.399-1.929v32.979c.027.698-.438 1.4-1.4 1.929l-24.194 13.32c-.937.515-2.171.772-3.405.772V79.022z"/>
            <g transform="translate(433 47)">
                <mask id="h" fill="#fff">
                    <use xlink:href="#g"/>
                </mask>
                <path fill="#F4F7F9" d="M54.39 14.148c1.792 1.018 1.792 2.684 0 3.703L31.22 31.01c-1.793 1.018-4.726 1.018-6.52 0L1.346 17.744c-1.793-1.018-1.793-2.684 0-3.702L24.515.882c1.792-1.019 4.726-1.019 6.518 0L54.39 14.147z" mask="url(#h)"/>
            </g>
        </g>
    </g>
</svg>
