<svg xmlns="http://www.w3.org/2000/svg" xmlns:xlink="http://www.w3.org/1999/xlink" width="193" height="141" viewBox="0 0 193 141">
    <defs>
        <path id="a" d="M0 .105h169.833v98.064H0z"/>
        <path id="c" d="M.014.175h169.805v119.78H.014z"/>
        <path id="e" d="M0 .175h169.833v98.064H0z"/>
    </defs>
    <g fill="none" fill-rule="evenodd">
        <g transform="translate(0 42.685)">
            <mask id="b" fill="#fff">
                <use xlink:href="#a"/>
            </mask>
            <path fill="#111D28" d="M5.2 55.255c-6.933 4.002-6.933 10.552 0 14.555l43.9 25.357c6.932 4.003 18.277 4.003 25.21 0l90.323-52.148c6.933-4.003 6.933-10.553 0-14.555l-43.9-25.357c-6.932-4.003-18.277-4.003-25.21 0L5.2 55.255z" mask="url(#b)"/>
        </g>
        <g transform="translate(0 .065)">
            <mask id="d" fill="#fff">
                <use xlink:href="#c"/>
            </mask>
            <path fill="#3E9FFF" d="M1.197 66.31c.017.025.03.053.048.079-.018-.026-.03-.054-.048-.08m-.528-.92l.009.02-.01-.02m1.203 1.804c.04.047.071.095.113.14-.042-.045-.073-.093-.113-.14M166.87 41.51c-.147.127-.318.249-.475.373.158-.124.328-.246.475-.373M167.498 40.9c.08-.082.172-.16.249-.244-.076.083-.169.162-.249.244m.968-1.127c-.03.042-.069.082-.1.125.031-.043.07-.083.1-.125m.565-.91c-.006.012-.015.023-.021.035.006-.012.015-.023.021-.035M3.964 69.087c-.09-.063-.163-.13-.249-.195.086.065.16.132.249.195m-1.074-.851c-.068-.06-.124-.124-.19-.186.067.06.122.126.19.186M.018 62.82v21.28c-.098 2.71 1.62 5.438 5.182 7.494l43.9 25.358c3.467 2 8.038 3.002 12.608 3.002 4.568-.001 9.137-1.002 12.602-3.002l90.323-52.149c3.379-1.95 5.098-4.507 5.183-7.077V36.015c.092-2.706-1.627-5.429-5.183-7.481l-43.9-25.357c-6.932-4.003-18.277-4.003-25.21 0L5.2 55.325C1.637 57.381-.08 60.11.018 62.821" mask="url(#d)"/>
        </g>
        <path fill="#1A82FF" d="M61.708 98.304c4.569 0 9.137-1 12.602-3.002l90.323-52.148c3.379-1.95 5.098-4.507 5.183-7.078v21.715c-.085 2.571-1.804 5.128-5.183 7.078L74.31 117.017c-3.465 2.001-8.033 3.002-12.602 3.002V98.304z"/>
        <g transform="translate(0 .065)">
            <mask id="f" fill="#fff">
                <use xlink:href="#e"/>
            </mask>
            <path fill="#40A0FF" d="M5.2 55.325c-6.933 4.002-6.933 10.552 0 14.555l43.9 25.357c6.932 4.003 18.277 4.003 25.21 0l90.323-52.148c6.933-4.003 6.933-10.553 0-14.555l-43.9-25.357c-6.932-4.003-18.277-4.003-25.21 0L5.2 55.325z" mask="url(#f)"/>
        </g>
        <path fill="#FFF" d="M38.797 50.955l12.788 7.384-3.134 1.81-7.997-4.618 5.21 6.226-2.713 1.566-10.82-3.008 8.016 4.627-3.135 1.81-12.788-7.383 3.831-2.212 12.41 3.122-5.48-7.122zM56.252 50.196l-6.349-1.803 3.105 3.676 3.244-1.873zm3.175.901l-4.858 2.805 1.544 1.822-3.3 1.905-8.04-10.124 3.611-2.085 17.536 4.642-3.336 1.927-3.157-.892zM57.385 40.118l12.88 7.436-3.135 1.81-12.88-7.436zM83.939 39.659l-3.135 1.81-13.148-1.538 7.906 4.565-3.135 1.81-12.879-7.436 3.134-1.81 13.222 1.58-7.979-4.607 3.135-1.81zM97.614 31.764l-3.135 1.81-13.149-1.538 7.906 4.565-3.134 1.81-12.88-7.436 3.135-1.81 13.222 1.58-7.98-4.607 3.136-1.81zM92.51 22.7l2.695 1.557 4.381-2.53 2.35 1.357-4.38 2.53 2.86 1.65 4.93-2.846 2.496 1.44-8.065 4.657-12.88-7.435 8.066-4.657 2.477 1.43zM106.053 12.02l2.477 1.43-3.52 2.032 10.403 6.006-3.153 1.82-10.402-6.005-3.483 2.01-2.477-1.43zM71.715 71.126c-.914-.528-1.932-.766-3.054-.716-1.123.051-2.24.398-3.354 1.04l-4.393 2.537L66.65 77.3l4.43-2.557c2.298-1.327 2.51-2.533.634-3.616zm-15.13.362l4.066-2.348c2.154-1.244 2.317-2.394.489-3.449-1.828-1.055-3.844-.947-6.046.324L51.1 68.321l5.484 3.167zm17.055-5.015c2.039.129 3.804.624 5.295 1.484 2.189 1.264 3.164 2.673 2.927 4.227-.238 1.554-1.725 3.12-4.46 4.699l-11.945 6.896L39.95 69.052l11.654-6.729c2.614-1.51 5.2-2.35 7.76-2.522 2.558-.171 4.883.347 6.976 1.555 1.54.889 2.409 1.866 2.608 2.931.2 1.066-.21 2.073-1.229 3.022a14.62 14.62 0 0 1 5.922-.836zM74.773 54.612l5.34 3.083 8.677-5.01 4.654 2.687-8.677 5.01 5.665 3.27 9.766-5.638 4.943 2.854-15.975 9.223-25.509-14.727 15.975-9.224 4.907 2.833zM101.597 33.459l4.907 2.833-6.97 4.025 20.601 11.894-6.244 3.605-20.602-11.894-6.899 3.983-4.907-2.833zM131.05 35.12l-12.577-3.572 6.15 7.282 6.426-3.71zm6.287 1.785l-9.621 5.555 3.057 3.61-6.535 3.773-15.925-20.053 7.152-4.13 34.732 9.195-6.608 3.815-6.252-1.765z"/>
        <g>
            <path fill="#FFF" d="M151.5 48L110 123h83z"/>
            <path fill="#F4C110" d="M152.102 110.704c-1.993 0-3.61-1.596-3.61-3.556 0-1.963 1.617-3.555 3.61-3.555 1.993 0 3.61 1.592 3.61 3.555 0 1.96-1.617 3.556-3.61 3.556zm-3.61-13.037h6.016V77.519h-6.016v20.148zM151.5 55L116 119h71l-35.5-64z"/>
        </g>
    </g>
</svg>
