<?xml version="1.0" encoding="iso-8859-1"?>
<!-- Generator: Adobe Illustrator 18.1.1, SVG Export Plug-In . SVG Version: 6.00 Build 0)  -->
<svg xmlns="http://www.w3.org/2000/svg" xmlns:xlink="http://www.w3.org/1999/xlink" version="1.1" id="Capa_1" x="0px" y="0px" viewBox="0 0 76 76" style="enable-background:new 0 0 76 76;" xml:space="preserve" width="512px" height="512px">
<g id="_x37_7_Essential_Icons_65_">
	<path id="Tick" d="M38,0C17,0,0,17,0,38s17,38,38,38s38-17,38-38S59,0,38,0z M38,72C19.2,72,4,56.8,4,38S19.2,4,38,4s34,15.2,34,34   S56.8,72,38,72z M60.9,25.1c-0.8-0.8-2-0.8-2.8,0L32.6,50.7L21.9,40c-0.8-0.8-2.1-0.8-2.8,0c-0.8,0.8-0.8,2.1,0,2.8l12.1,12.1   c0.4,0.4,0.9,0.6,1.4,0.6s1-0.2,1.4-0.6l26.9-27C61.7,27.1,61.7,25.9,60.9,25.1z" fill="#26d198"/>
</g>
<g>
</g>
<g>
</g>
<g>
</g>
<g>
</g>
<g>
</g>
<g>
</g>
<g>
</g>
<g>
</g>
<g>
</g>
<g>
</g>
<g>
</g>
<g>
</g>
<g>
</g>
<g>
</g>
<g>
</g>
</svg>
