<svg xmlns="http://www.w3.org/2000/svg" xmlns:xlink="http://www.w3.org/1999/xlink" width="280" height="217" viewBox="0 0 280 217">
    <defs>
        <path id="a" d="M0 .35h129.677v74.869H0z"/>
        <path id="c" d="M0 .07h129.677v74.87H0z"/>
    </defs>
    <g fill="none" fill-rule="evenodd">
        <g transform="translate(0 96.93)">
            <mask id="b" fill="#fff">
                <use xlink:href="#a"/>
            </mask>
            <path fill="#111D28" fill-opacity=".1" d="M126.548 33.53c4.172 2.408 4.172 6.35 0 8.758L72.64 73.412c-4.17 2.408-10.996 2.408-15.168 0L3.128 42.037c-4.17-2.407-4.17-6.349 0-8.756l53.91-31.124c4.17-2.41 10.996-2.41 15.167 0l54.343 31.374z" mask="url(#b)"/>
        </g>
        <path fill="#455D75" d="M65.053 74.869c-2.748 0-5.497-.603-7.582-1.806L3.128 41.688C1.096 40.515.062 38.976.01 37.43v77.065c.052 1.546 1.086 3.084 3.118 4.258l54.343 31.375c2.085 1.204 4.834 1.805 7.582 1.806V74.869z"/>
        <path fill="#2E3F53" d="M65.053 74.869c2.75 0 5.5-.602 7.586-1.806l53.91-31.125c2.142-1.237 3.176-2.878 3.117-4.508v77.065c.06 1.63-.975 3.27-3.118 4.509L72.64 150.128c-2.086 1.204-4.836 1.806-7.586 1.806V74.869z"/>
        <g transform="translate(0 -.07)">
            <mask id="d" fill="#fff">
                <use xlink:href="#c"/>
            </mask>
            <path fill="#6F8294" d="M126.548 33.251c4.172 2.408 4.172 6.35 0 8.757L72.64 73.133c-4.17 2.408-10.996 2.408-15.168 0L3.128 41.758c-4.17-2.408-4.17-6.35 0-8.758l53.91-31.124c4.17-2.408 10.996-2.408 15.167 0l54.343 31.375z" mask="url(#d)"/>
        </g>
        <path fill="#FFF" d="M85.415 94.197a1.486 1.486 0 0 0-.504.478 1.171 1.171 0 0 0-.196.653c0 .234.06.389.182.462.122.072.28.092.475.055.195-.035.412-.087.652-.156.241-.068.48-.122.715-.16.237-.037.452-.038.648-.004.195.034.353.15.474.348.122.197.183.483.183.857 0 .654-.233 1.347-.695 2.08a5.22 5.22 0 0 1-1.833 1.757c-.758.439-1.369.582-1.832.43-.464-.15-.696-.611-.696-1.381l1.746-1.008c.044.59.32.74.825.448.237-.136.422-.315.556-.536.135-.22.202-.44.202-.661 0-.22-.06-.364-.182-.433-.122-.07-.28-.088-.475-.057a5.923 5.923 0 0 0-.652.15c-.24.07-.479.12-.715.156a2.203 2.203 0 0 1-.648.004c-.195-.03-.353-.144-.475-.342-.12-.198-.182-.48-.182-.847 0-.72.234-1.43.7-2.133a5.31 5.31 0 0 1 1.79-1.682c.725-.42 1.312-.57 1.76-.45.448.12.681.58.7 1.385l-1.785 1.03c-.025-.263-.103-.433-.234-.508-.13-.075-.299-.053-.504.065M90.98 92.9l1.017-.587a1.57 1.57 0 0 0 .589-.594 1.57 1.57 0 0 0 .216-.791c0-.275-.073-.458-.22-.549-.148-.091-.342-.067-.585.074l-1.017.587v1.86zm3.49-2.94c0 .521-.162 1.117-.488 1.79-.173.349-.43.702-.772 1.056a5.471 5.471 0 0 1-1.213.938l-1.017.587v3.006l-1.641.947v-7.729l2.658-1.533c.78-.451 1.387-.57 1.822-.359.435.211.652.643.652 1.297zM97.359 90.923l1.593-.92-.797-2.292-.796 3.212zm2.379 1.356l-.374-1.083-2.418 1.396-.374 1.515-1.745 1.008 2.34-9.1 1.996-1.154 2.33 6.405-1.755 1.013zM102.909 89.398c-.668-.359-1.003-1.111-1.003-2.256 0-1.144.335-2.282 1.003-3.414.668-1.13 1.485-1.975 2.45-2.532.749-.432 1.414-.588 1.996-.469.582.119.989.516 1.219 1.19l-1.957 1.129c-.257-.417-.666-.463-1.23-.138a3.483 3.483 0 0 0-1.327 1.373 3.888 3.888 0 0 0-.484 1.897c0 .675.16 1.121.484 1.339.323.217.766.163 1.328-.162.563-.325.972-.844 1.229-1.557l1.957-1.129a7.25 7.25 0 0 1-1.22 2.596c-.581.792-1.246 1.404-1.994 1.835-.966.558-1.783.657-2.451.298M113.705 76.466v1.431l-2.437 1.407v1.662l2.15-1.24v1.43l-2.15 1.241v1.794l2.437-1.407v1.431l-4.077 2.355v-7.75zM79.084 111.062a1.468 1.468 0 0 0-.504.478 1.171 1.171 0 0 0-.196.653c0 .235.06.39.181.462.123.072.281.091.475.055.195-.035.413-.087.652-.156.241-.068.48-.122.715-.159.238-.038.453-.039.648-.006.195.034.353.151.475.35.121.196.182.482.182.856 0 .654-.232 1.347-.695 2.08a5.218 5.218 0 0 1-1.832 1.757c-.758.438-1.37.581-1.832.431-.464-.15-.696-.612-.696-1.382l1.745-1.008c.045.591.321.74.826.448.236-.136.421-.315.556-.536.134-.22.201-.44.201-.66 0-.22-.06-.365-.18-.434-.123-.07-.282-.088-.477-.057a5.976 5.976 0 0 0-.652.151c-.239.07-.478.12-.715.154a2.171 2.171 0 0 1-.648.005c-.195-.03-.353-.144-.474-.342-.122-.198-.182-.48-.182-.847 0-.72.233-1.43.7-2.133a5.312 5.312 0 0 1 1.79-1.682c.725-.419 1.312-.569 1.76-.45.447.12.681.581.7 1.385l-1.785 1.03c-.025-.264-.104-.433-.234-.508-.132-.075-.3-.053-.504.065M87.247 104.972l1.641-.946v7.727l-1.64.948v-3.205l-2.6 1.501v3.204l-1.64.948v-7.729l1.64-.947v3.094l2.6-1.5zM92.226 107.096l1.593-.92-.796-2.292-.797 3.212zm2.38 1.356l-.374-1.083-2.418 1.396-.374 1.515-1.746 1.007 2.34-9.1 1.996-1.153 2.33 6.405-1.754 1.013zM98.807 99.73v1.86l1.018-.587c.249-.144.445-.341.589-.593.144-.252.216-.516.216-.791 0-.276-.073-.458-.22-.55-.148-.091-.343-.067-.585.074l-1.018.587zm0 3.291v3.006l-1.64.946v-7.727l2.658-1.535c.78-.45 1.387-.569 1.822-.358.434.211.652.644.652 1.297 0 .447-.118.952-.354 1.515-.238.561-.624 1.086-1.161 1.572l1.65 2.196-1.919 1.108-1.516-2.13-.192.11zM103.576 103.274v-7.728l1.64-.947v7.728zM111.038 91.215l1.641-.947v7.75l-1.64.946-2.744-3.292v4.876l-1.64.947v-7.749l1.64-.947 2.743 3.292zM114.727 95.784c-.668-.358-1.003-1.11-1.003-2.256 0-1.144.335-2.282 1.003-3.413.668-1.131 1.485-1.975 2.45-2.532.749-.433 1.414-.59 1.996-.47.582.119.989.516 1.219 1.19l-1.957 1.13c-.256-.418-.665-.463-1.23-.138a3.48 3.48 0 0 0-1.327 1.372 3.889 3.889 0 0 0-.484 1.898c0 .675.16 1.12.484 1.338.324.218.756.169 1.3-.145.39-.225.708-.521.954-.887a3.19 3.19 0 0 0 .494-1.182l-1.9 1.097v-1.432l3.666-2.115v1.43c-.122.775-.457 1.627-1.008 2.552a7.013 7.013 0 0 1-.973 1.279 5.525 5.525 0 0 1-1.233.986c-.966.558-1.783.657-2.451.298M24.593 89.319l14.98 8.648-.442-1.778-14.096-8.138-.442 1.268zm11.472 14.235l-7.962-4.595v3.045l7.962 4.596v-3.046zm11.942 2.327l-2.654 16.74-26.538-15.322-2.655-19.803 31.847 18.385zM27.69 80.448l-.442 1.267 9.671 5.584-.443-1.778-8.786-5.073zm-1.656-2.48l12.098 6.986 3.538 14.224 2.796 1.615-4.42-17.78-15.924-9.193L19.7 86.494l2.796 1.613 3.54-10.138zm-.556 8.817l13.21 7.626-.443-1.778-12.325-7.116-.442 1.268zm1.327-3.802l10.556 6.094.442 1.778-11.439-6.605.441-1.267z"/>
        <path fill="#2E3F53" d="M64.204 67.189c-1.77 0-3.123-.419-3.743-.777L10.054 37.309 60.024 8.458c.622-.36 1.976-.778 3.745-.778 1.77 0 3.122.418 3.744.778l50.407 29.101-49.973 28.853c-.62.358-1.973.777-3.743.777"/>
        <path fill="#252C33" d="M64.204 67.189c-1.77 0-3.123-.419-3.743-.777L10.054 37.309 60.024 8.458c.622-.36 1.976-.778 3.745-.778l.434 59.509z"/>
        <path fill="#111D28" fill-opacity=".1" d="M276.48 130.46c4.173 2.409 4.173 6.35 0 8.758l-53.907 31.125c-4.172 2.407-10.997 2.407-15.17 0l-54.342-31.375c-4.171-2.408-4.171-6.35 0-8.757l53.909-31.125c4.17-2.409 10.997-2.409 15.168 0l54.343 31.374z"/>
        <path fill="#455D75" d="M214.986 74.869c-2.748 0-5.496-.603-7.582-1.806L153.06 41.688c-2.032-1.173-3.066-2.712-3.118-4.258v77.065c.052 1.546 1.086 3.084 3.118 4.258l54.343 31.375c2.086 1.204 4.834 1.805 7.582 1.806V74.869z"/>
        <path fill="#2E3F53" d="M214.986 74.869c2.75 0 5.5-.602 7.586-1.806l53.909-31.125c2.143-1.237 3.177-2.878 3.118-4.508v77.065c.059 1.63-.975 3.27-3.118 4.509l-53.91 31.124c-2.085 1.204-4.835 1.806-7.585 1.806V74.869z"/>
        <path fill="#6F8294" d="M276.48 33.181c4.173 2.408 4.173 6.35 0 8.757l-53.907 31.125c-4.172 2.408-10.997 2.408-15.17 0l-54.342-31.375c-4.171-2.408-4.171-6.35 0-8.758L206.97 1.806c4.17-2.408 10.997-2.408 15.168 0l54.343 31.375z"/>
        <path fill="#FFF" d="M181.133 81.017c.341.197.618.675.618 1.067 0 .392-.277.55-.618.353-.342-.197-.619-.676-.619-1.067 0-.392.277-.55.62-.353zm7.427 5.708c.342.197.62.676.62 1.067 0 .393-.278.55-.62.353-.342-.196-.619-.675-.619-1.067 0-.392.277-.55.62-.353zm-3.714-2.144c.342.198.62.675.62 1.068 0 .391-.278.55-.62.352-.342-.197-.619-.675-.619-1.067 0-.393.277-.55.62-.353zm-7.427-4.288c.342.198.62.675.62 1.068 0 .391-.278.55-.62.352-.342-.197-.619-.675-.619-1.067 0-.392.277-.55.62-.353zm-3.714-.723c.342.197.62.675.62 1.067 0 .392-.278.55-.62.353-.34-.198-.618-.675-.618-1.068 0-.39.277-.55.618-.352zm2.476 2.85c.342.197.62.675.62 1.067 0 .391-.278.55-.62.352-.34-.197-.618-.675-.618-1.067 0-.392.277-.55.618-.353zm14.854 8.576c.342.197.62.674.62 1.067 0 .391-.278.55-.62.352-.34-.197-.619-.675-.619-1.067 0-.393.278-.55.62-.352zm-4.95-2.86c.341.197.617.676.617 1.068s-.276.55-.618.353c-.342-.197-.619-.676-.619-1.067 0-.393.277-.55.62-.354zm-4.952-2.858c.341.197.618.676.618 1.067 0 .393-.277.551-.618.354-.342-.198-.619-.676-.619-1.069 0-.39.277-.55.62-.352zm14.234 13.9l-27.232-15.723c0-5.666 5.418-8.235 13.616-3.5 8.198 4.732 13.616 13.557 13.616 19.223zm-3.137-.39l2.562 1.478c1.005.607 1.814 2.02 1.814 3.178 0 1.16-.809 1.636-1.814 1.084-.009-.006-26.17-15.113-26.205-15.139-.945-.643-1.689-1.985-1.689-3.098 0-1.11.744-1.595 1.69-1.146.034.015 13.76 7.935 13.76 7.935 2.932 1.72 3.53 4.888 4.973 5.714 1.445.826 2.206-1.534 4.91-.007zm2.562 11.42c-.009-.004-26.17-15.11-26.205-15.137-.945-.643-1.689-1.986-1.689-3.098 0-1.11.744-1.596 1.69-1.146.034.014 2.618 1.503 2.618 1.503 2.934 1.718 3.531 4.888 4.975 5.713 1.445.827 2.205-1.533 4.908-.006l13.703 7.911c1.005.607 1.814 2.018 1.814 3.177 0 1.16-.809 1.637-1.814 1.083zm.575 1.753c.458 3.078-.672 5.28-3.713 3.538-5.708-3.268-14.097-8.139-19.805-11.434-3.085-1.78-4.145-5.199-3.714-7.826l27.232 15.722zM235.088 108.061v-7.728l4.385-2.53v1.431l-2.744 1.584v1.662l2.053-1.186v1.431l-2.053 1.186v3.203zM244.955 100.097c.322-.59.484-1.223.484-1.897 0-.676-.162-1.123-.484-1.339-.323-.217-.755-.17-1.295.142a3.4 3.4 0 0 0-1.295 1.353 3.89 3.89 0 0 0-.485 1.898c0 .675.162 1.121.485 1.338.322.218.754.17 1.295-.14.54-.314.972-.765 1.295-1.355m-3.74 3.382c-.67-.362-1.004-1.116-1.004-2.262 0-1.144.334-2.282 1.003-3.413.668-1.13 1.487-1.976 2.456-2.535.97-.56 1.784-.657 2.446-.295.661.363.992 1.116.992 2.262 0 1.144-.333 2.283-.998 3.416-.665 1.132-1.48 1.977-2.445 2.535-.966.557-1.783.654-2.45.292M252.515 95.733c.322-.59.484-1.223.484-1.898 0-.675-.162-1.122-.484-1.338-.323-.217-.755-.17-1.295.142a3.41 3.41 0 0 0-1.296 1.353 3.9 3.9 0 0 0-.484 1.898c0 .675.162 1.121.484 1.338.323.218.755.17 1.296-.141.54-.313.972-.764 1.295-1.354m-3.741 3.382c-.669-.362-1.003-1.116-1.003-2.262 0-1.144.334-2.282 1.003-3.413.668-1.131 1.487-1.976 2.455-2.535.97-.56 1.785-.657 2.446-.295.662.362.993 1.116.993 2.262 0 1.144-.333 2.283-.998 3.416-.665 1.132-1.48 1.977-2.445 2.534-.967.558-1.783.655-2.451.293M257.364 93.77l.729-.42a3.877 3.877 0 0 0 1.478-1.515 4.234 4.234 0 0 0 .537-2.083c0-.74-.18-1.228-.537-1.462-.358-.233-.851-.168-1.478.193l-.73.421v4.865zm.729-6.718c1.075-.62 1.958-.772 2.648-.455.69.317 1.036 1.045 1.036 2.187 0 1.14-.345 2.27-1.036 3.388-.69 1.118-1.573 1.988-2.648 2.608l-2.37 1.368V88.42l2.37-1.368z"/>
        <path fill="#2E3F53" d="M214.083 67.189c-1.77 0-3.124-.419-3.745-.777l-50.406-29.103 49.972-28.851c.621-.36 1.975-.778 3.744-.778 1.771 0 3.123.418 3.745.778L267.8 37.559l-49.974 28.853c-.62.358-1.973.777-3.743.777"/>
        <path fill="#252C33" d="M214.083 67.189c-1.77 0-3.124-.419-3.745-.777l-50.406-29.103 49.972-28.851c.621-.36 1.975-.778 3.744-.778l.435 59.509z"/>
        <path fill="#111D28" fill-opacity=".1" d="M201.515 175.242c4.171 2.408 4.171 6.35 0 8.758l-53.909 31.124c-4.171 2.408-10.997 2.408-15.168 0l-54.343-31.375c-4.172-2.408-4.172-6.35 0-8.757l53.909-31.125c4.171-2.408 10.996-2.408 15.168 0l54.343 31.375z"/>
        <path fill="#C2CBD3" d="M140.02 119.65c-2.75 0-5.497-.603-7.582-1.806L78.095 86.469c-2.033-1.173-3.067-2.712-3.118-4.258v77.065c.05 1.546 1.085 3.084 3.118 4.258l54.343 31.375c2.085 1.204 4.833 1.805 7.582 1.806V119.65z"/>
        <path fill="#98A7B4" d="M140.02 119.65c2.75.001 5.5-.602 7.586-1.806l53.909-31.125c2.143-1.237 3.176-2.878 3.117-4.508v77.065c.059 1.63-.974 3.271-3.117 4.508l-53.91 31.125c-2.085 1.204-4.835 1.806-7.585 1.806V119.65z"/>
        <path fill="#EBF0F3" d="M201.515 77.963c4.171 2.408 4.171 6.349 0 8.757l-53.909 31.124c-4.171 2.409-10.997 2.409-15.168 0L78.095 86.47c-4.172-2.409-4.172-6.35 0-8.758l53.909-31.125c4.171-2.408 10.996-2.408 15.168 0l54.343 31.376z"/>
        <path fill="#2E3F53" d="M164.08 136.54v1.86l1.018-.586c.25-.143.445-.341.59-.593.143-.252.215-.516.215-.791s-.074-.458-.22-.55c-.148-.091-.343-.067-.585.074l-1.018.587zm0 3.293v3.005l-1.64.947v-7.727l2.658-1.535c.78-.451 1.387-.57 1.822-.36.434.213.652.645.652 1.298 0 .447-.118.953-.354 1.515-.238.562-.624 1.086-1.16 1.573l1.65 2.195-1.92 1.109-1.516-2.131-.192.11zM168.848 140.084v-7.727l1.641-.946v7.726zM173.569 135.928l.729-.42a3.882 3.882 0 0 0 1.477-1.514 4.234 4.234 0 0 0 .537-2.083c0-.74-.18-1.228-.537-1.462-.358-.233-.851-.168-1.477.193l-.73.421v4.865zm.729-6.717c1.074-.62 1.957-.772 2.647-.455.69.317 1.036 1.045 1.036 2.187 0 1.14-.345 2.27-1.036 3.388-.69 1.118-1.573 1.988-2.647 2.608l-2.37 1.368v-7.728l2.37-1.368zM183.094 124.11v1.432l-2.437 1.406v1.663l2.15-1.241v1.43l-2.15 1.242v1.794l2.437-1.407v1.43l-4.077 2.356v-7.75zM153.433 155.843a1.468 1.468 0 0 0-.504.478 1.171 1.171 0 0 0-.196.653c0 .234.06.39.181.462.123.072.281.091.475.055.195-.035.413-.087.652-.156.241-.068.479-.122.715-.159.238-.038.453-.04.648-.006s.353.151.475.35c.121.196.182.482.182.856 0 .654-.232 1.347-.695 2.08a5.218 5.218 0 0 1-1.832 1.757c-.758.438-1.37.581-1.832.431-.464-.15-.697-.612-.697-1.382l1.746-1.008c.045.591.32.74.826.448.236-.136.421-.315.556-.536.134-.22.201-.44.201-.66 0-.22-.06-.365-.182-.434-.121-.07-.28-.088-.475-.057a5.976 5.976 0 0 0-.652.151c-.239.07-.479.12-.715.154a2.137 2.137 0 0 1-.648.004c-.195-.03-.353-.143-.474-.34-.122-.199-.183-.482-.183-.848 0-.72.234-1.43.7-2.133a5.305 5.305 0 0 1 1.79-1.682c.726-.419 1.312-.569 1.76-.45.448.12.682.581.7 1.385l-1.784 1.03c-.025-.264-.104-.433-.234-.508-.132-.075-.3-.053-.504.065M161.596 149.754l1.641-.946v7.727l-1.641.947v-3.204l-2.6 1.5v3.204l-1.64.947v-7.727l1.64-.947v3.094l2.6-1.501zM166.575 151.877l1.593-.92-.796-2.291-.797 3.212zm2.38 1.356l-.375-1.083-2.417 1.397-.374 1.514-1.746 1.007 2.34-9.1 1.996-1.153 2.33 6.405-1.754 1.013zM173.156 144.511v1.86l1.018-.588a1.56 1.56 0 0 0 .589-.593c.144-.25.216-.515.216-.79 0-.276-.073-.458-.22-.55-.148-.09-.343-.067-.585.074l-1.018.587zm0 3.291v3.006l-1.641.946v-7.727l2.659-1.535c.779-.45 1.386-.569 1.822-.358.434.211.652.644.652 1.296 0 .448-.118.953-.354 1.516-.238.561-.624 1.086-1.161 1.572l1.65 2.196-1.92 1.108-1.515-2.13-.192.11zM177.923 148.055v-7.728l1.641-.947v7.728zM185.387 135.997l1.641-.947v7.749l-1.64.947-2.745-3.292v4.876l-1.64.947v-7.75l1.64-.946 2.744 3.292zM189.076 140.565c-.668-.358-1.004-1.11-1.004-2.256 0-1.144.335-2.282 1.004-3.413.668-1.131 1.484-1.975 2.45-2.532.748-.433 1.413-.589 1.995-.47.583.119.99.516 1.22 1.19l-1.958 1.13c-.255-.418-.664-.463-1.228-.139a3.483 3.483 0 0 0-1.329 1.373 3.888 3.888 0 0 0-.483 1.897c0 .676.16 1.122.483 1.339.323.218.756.169 1.3-.145.39-.225.708-.521.954-.887.246-.365.412-.76.495-1.183l-1.9 1.098v-1.432l3.666-2.115v1.431c-.123.774-.458 1.625-1.009 2.551a7.013 7.013 0 0 1-.972 1.279 5.525 5.525 0 0 1-1.233.986c-.966.558-1.783.657-2.451.298M94.152 125.537l-2.998-1.731c-.376-.217-.681-.043-.681.388v.798c0 1.239 1.26 2.273 2.2 2.816l1.479-2.271zm24.91 24.536c0-1.294-.915-2.872-2.042-3.522-1.127-.652-2.042-.13-2.042 1.164 0 1.293.915 2.87 2.042 3.522 1.127.65 2.042.129 2.042-1.164zm-2.803-8.69s-1.007-3.435-2.22-6.191c-.276-.624-.701-1.19-1.184-1.567-2.057-1.612-3.86-2.79-6.046-4.052-2.185-1.262-3.988-2.167-6.045-2.93-.482-.18-.908-.106-1.183.202-1.213 1.354-2.221 3.627-2.221 3.627 2.233 1.777 5.866 4.163 9.449 6.23 3.584 2.07 7.217 3.88 9.45 4.68zm-4.003 6.322c0-.432-.306-.957-.681-1.174l-9.53-5.502c-.375-.217-.681-.043-.681.388 0 .432.306.957.68 1.174l9.53 5.502c.376.216.682.043.682-.388zm-13.615-9.422c0-1.294-.915-2.872-2.042-3.522-1.127-.651-2.042-.13-2.042 1.164s.915 2.872 2.042 3.522c1.127.65 2.042.129 2.042-1.164zm21.863 7.944c.87 2.356 1.288 4.262 1.288 6.47 0 2.142-.541 3.647-1.37 5.43v2.886c0 .862-.61 1.21-1.36.776l-2.042-1.18c-.752-.433-1.361-1.485-1.361-2.347v-1.563L97.96 146.48v1.563c0 .862-.61 1.21-1.362.776l-2.042-1.18c-.751-.433-1.361-1.485-1.361-2.347v-2.885c-.828-2.74-1.368-4.87-1.368-7.01 0-2.208.418-3.632 1.288-4.983 1.128-1.75 2.519-3.94 3.988-5.901 1.128-1.508 1.719-1.675 3.102-1.161 2.086.775 3.972 1.724 6.603 3.243 2.632 1.519 4.519 2.75 6.605 4.383 1.383 1.083 1.973 1.932 3.1 4.742 1.47 3.658 2.86 7.455 3.99 10.506zm1.96-4.343c.377.216.682.743.682 1.174v.798c0 1.239-1.261.817-2.2.275l-1.48-3.978 2.999 1.73zM139.41 111.714c-1.77 0-3.123-.419-3.743-.777L85.26 81.834l49.972-28.852c.621-.359 1.976-.778 3.744-.778 1.77 0 3.124.42 3.745.778l50.406 29.102-49.972 28.853c-.621.358-1.975.777-3.744.777"/>
        <path fill="#252C33" d="M139.41 111.714c-1.77 0-3.123-.419-3.743-.777L85.26 81.834l49.972-28.852c.621-.359 1.976-.778 3.744-.778l.435 59.51z"/>
    </g>
</svg>
