<svg xmlns="http://www.w3.org/2000/svg" width="22" height="22" viewBox="0 0 22 22">
    <g fill="none" fill-rule="evenodd">
        <circle cx="11" cy="11" r="11" fill="#1A82FF"/>
        <path fill="#FFF" d="M16.6 7.561l-2.218 2.218c.088.44.134.923.134 1.444 0 2.806-1.318 4.482-3.526 4.482-.92 0-1.697-.295-2.284-.856l7.686-7.686a6.065 6.065 0 0 0-1.052-1.39h.001l-.048-.046-.106-.104-.001.002c-1.116-1.041-2.551-1.59-4.196-1.59-1.9 0-3.521.73-4.687 2.111-1.097 1.299-1.701 3.102-1.701 5.077 0 1.312.268 2.548.769 3.61l2.23-2.23a7.654 7.654 0 0 1-.117-1.38c0-1.291.263-2.336.781-3.104.608-.901 1.55-1.377 2.725-1.377.915 0 1.676.288 2.254.824l-7.67 7.67c.21.383.454.74.729 1.064.054.065.111.127.168.189l.002.002c.066.071.133.14.201.209l.026.025.065.066.002-.003c1.117 1.063 2.562 1.623 4.223 1.623 1.902 0 3.526-.73 4.697-2.11 1.104-1.301 1.711-3.104 1.711-5.078 0-1.333-.278-2.587-.798-3.662"/>
    </g>
</svg>
