<?xml version="1.0" encoding="UTF-8"?>
<svg width="79px" height="57px" viewBox="0 0 79 57" version="1.1" xmlns="http://www.w3.org/2000/svg" xmlns:xlink="http://www.w3.org/1999/xlink">
    <!-- Generator: sketchtool 50.2 (55047) - http://www.bohemiancoding.com/sketch -->
    <title>F550EE2A-38CD-4BBA-8F81-6831BE74574F</title>
    <desc>Created with sketchtool.</desc>
    <defs>
        <polygon id="path-1" points="0.00638659199 0.104314852 78.8216447 0.104314852 78.8216447 45.5065579 0.00638659199 45.5065579"></polygon>
    </defs>
    <g id="Origin-Tokens-Promote-6" stroke="none" stroke-width="1" fill="none" fill-rule="evenodd">
        <g id="Origin-Tokens-3---Demo-App---Create-Listing---Boost-Your-Listing---Intro" transform="translate(-339.000000, -271.000000)">
            <g id="ogn-icon" transform="translate(339.000000, 271.000000)">
                <g id="Group-80">
                    <g id="Group-73" transform="translate(0.060041, 11.108003)">
                        <mask id="mask-2" fill="white">
                            <use xlink:href="#path-1"></use>
                        </mask>
                        <g id="Clip-72"></g>
                        <path d="M11.4614974,38.9076923 C3.82888859,34.5108965 0.0129725988,28.7438955 0.00639551761,22.9631805 C-0.000404804852,17.1246455 3.87860687,11.2722195 11.6359625,6.80358009 C27.0736411,-2.08943799 52.0251382,-2.13447298 67.3664883,6.70313613 C74.9990993,11.0999098 78.8150169,16.866933 78.8217119,22.6476259 C78.8283847,28.4861609 74.9492636,34.3384983 67.1920188,38.8072484 C51.7542338,47.7002443 26.8028697,47.7453014 11.4614974,38.9076923" id="Fill-71" fill-opacity="0.2" fill="#111D28" mask="url(#mask-2)"></path>
                    </g>
                    <path d="M78.8817174,22.8296211 L78.8817084,29.7152861 C78.8885143,35.5537105 75.0093931,41.4061364 67.2521483,45.8747759 C51.8143633,54.7679046 26.862977,54.8128289 11.521505,45.9753304 C3.88900706,41.5785568 0.0730915137,35.811423 0.0664029227,30.0307301 L0.0664029227,22.8296211 L78.8817174,22.8296211 Z" id="Fill-74" fill="#1A82FF"></path>
                    <path d="M11.5215382,39.0896876 C3.88892947,34.6929139 0.0730134791,28.9258907 0.0664363978,23.1450872 C0.0596360754,17.3066628 3.93864775,11.4542148 11.6960034,6.98557531 C27.133682,-1.90742065 52.0851791,-1.95247776 67.4265292,6.88502075 C75.0591402,11.2819272 78.8750578,17.0489282 78.8817528,22.8296432 C78.8884256,28.6680676 75.0093044,34.5204935 67.2520597,38.989133 C51.8142746,47.8822617 26.8629105,47.9271861 11.5215382,39.0896876" id="Fill-76" fill="#40A0FF"></path>
                    <path d="M39.2266616,40.9951589 C29.5598952,40.9951589 20.5563281,38.8748866 13.8736274,35.0251465 C8.0085105,31.6465486 4.7755186,27.4254025 4.76994533,23.1391814 C4.76537409,18.8558578 8.14719053,14.4492853 14.0482033,11.0501164 C20.8439435,7.13538967 29.9613303,4.97954939 39.7218492,4.97954939 C49.3877289,4.97954939 58.3920875,7.09979963 65.0748924,10.9496724 C70.9399959,14.3286021 74.1730033,18.549527 74.1775701,22.8347528 C74.1831345,27.1186293 70.8013292,31.5249806 64.900312,34.9245919 C58.1045785,38.8392965 48.9862938,40.9951589 39.2266616,40.9951589" id="Fill-77" fill="#1A82FF"></path>
                    <path d="M14.048159,11.98895 C20.8438991,8.07378095 29.9613968,5.91827246 39.7218049,5.91827246 C49.3876846,5.91827246 58.392154,8.0385227 65.0749589,11.8880637 C70.7259326,15.1440762 73.9244673,19.1815874 74.155113,23.3047447 C74.1638032,23.1480291 74.1776366,22.9913135 74.1776366,22.8349297 C74.1730698,18.5494827 70.9400624,14.3287791 65.0749589,10.949407 C58.392154,7.09986599 49.3876846,4.97961575 39.7218049,4.97961575 C29.9613968,4.97961575 20.8438991,7.13512424 14.048159,11.0502933 C8.14714619,14.449241 4.76532975,18.8556809 4.76990099,23.1392477 C4.76990099,23.2955209 4.78383417,23.4513517 4.79253104,23.6072932 C5.02540911,19.4735628 8.36308054,15.2636534 14.048159,11.98895" id="Fill-78" fill="#0F7CE8"></path>
                    <path d="M35.1947521,31.9891552 L35.2194039,27.4565687 C34.2844289,27.0989652 33.3504514,26.6546096 32.428423,26.1234798 C27.4670585,23.2654386 26.8501412,20.2083012 30.7779676,17.9455581 C32.4162744,17.0017918 34.319212,16.5056991 36.3539216,16.4764573 L36.2686377,32.1813723 C37.2792976,32.3417597 38.2999999,32.4483086 39.3208131,32.4948035 C39.7497821,32.5142685 40.1740734,32.5193781 40.5962366,32.5181616 L40.5963474,32.5198426 C40.6519693,32.519732 40.7069261,32.5176086 40.7625701,32.5172768 C40.8866275,32.5160602 41.0118377,32.5177192 41.13523,32.5150427 L41.13523,32.5112603 C44.9608576,32.4276271 48.4841229,31.5159781 51.4097802,29.8306385 C54.7909204,27.882897 56.3840692,25.4781256 56.0171954,22.8764699 C55.6719363,20.4297601 53.5586377,17.9743796 50.0665641,15.9628018 C47.7464736,14.6262622 45.085713,13.6428802 42.3157926,13.0733954 L42.2910521,17.6306892 C43.1758588,17.9813915 44.0598675,18.4098433 44.9393315,18.9163764 C47.2227546,20.2317698 48.6015296,21.5648588 49.0371715,22.8787039 C49.5485203,24.4196705 48.7141035,25.870545 46.6246587,27.0741473 C44.9978575,28.0112556 43.134159,28.4975495 41.1567561,28.5444868 L41.24204,12.8717333 C40.1904563,12.698207 39.1272783,12.5847568 38.0653417,12.5350325 C37.8527415,12.5251452 37.6418262,12.5202568 37.4309109,12.5153463 L37.4310218,12.5151251 C37.4290044,12.5151251 37.42712,12.5151251 37.4249918,12.5151251 C37.1814217,12.5094626 36.93896,12.5077815 36.6974959,12.508799 C36.6671688,12.5090202 36.63662,12.5086884 36.6064037,12.5089096 C36.5296105,12.5094626 36.4519084,12.5077815 36.3755364,12.5090202 L36.3754255,12.513798 C32.5102486,12.5763072 28.9480546,13.4871599 25.9933117,15.1893102 C22.6100432,17.1382682 21.0108822,19.5462691 21.3682722,22.153145 C21.7050627,24.6080831 23.8121096,27.067047 27.3011683,29.0769438 C29.657505,30.4343861 32.3697862,31.4269035 35.1947521,31.9891552" id="Fill-79" fill="#FFFFFF"></path>
                </g>
            </g>
        </g>
    </g>
</svg>