<svg xmlns="http://www.w3.org/2000/svg" xmlns:xlink="http://www.w3.org/1999/xlink" width="42" height="73" viewBox="0 0 42 73">
    <defs>
        <path id="a" d="M0 .247h41.534v23.826H0z"/>
        <path id="c" d="M.01.188h10.378v12.788H.01z"/>
    </defs>
    <g fill="none" fill-rule="evenodd">
        <g transform="translate(0 48.47)">
            <mask id="b" fill="#fff">
                <use xlink:href="#a"/>
            </mask>
            <path fill="#000" fill-opacity=".1" d="M41.534 2.524L35.754.247 0 21.643l4.209 2.43z" mask="url(#b)"/>
        </g>
        <path fill="#DFE0E1" d="M4.21 27.427V65.86l37.324-21.55V5.877z"/>
        <path fill="#F0F0F1" d="M7.795 56.23v4.025l3.908-2.257v-4.025zM12.33 53.634v4.025l3.909-2.257v-4.025zM16.82 51.146v4.025l3.908-2.257v-4.025zM21.355 48.55v4.025l3.909-2.257v-4.025zM25.844 46.062v4.025l3.909-2.257v-4.025zM30.38 43.466v4.025l3.908-2.257v-4.025zM34.869 40.978v4.025l3.908-2.257v-4.025zM7.795 51.108v4.025l3.908-2.257V48.85zM12.33 48.512v4.025l3.909-2.257v-4.025zM16.82 46.024v4.025l3.908-2.257v-4.025zM21.355 43.428v4.025l3.909-2.257v-4.025zM25.844 40.94v4.025l3.909-2.257v-4.025zM30.38 38.344v4.025l3.908-2.257v-4.025zM34.869 35.856v4.025l3.908-2.257V33.6zM7.795 45.986v4.025l3.908-2.257v-4.025zM12.33 43.39v4.025l3.909-2.257v-4.025zM16.82 40.902v4.025l3.908-2.257v-4.025zM21.355 38.306v4.025l3.909-2.257v-4.025zM25.844 35.818v4.025l3.909-2.257v-4.025zM30.38 33.222v4.025l3.908-2.257v-4.025zM34.869 30.734v4.025l3.908-2.257v-4.025zM7.795 40.864v4.025l3.908-2.257v-4.025zM12.33 38.268v4.025l3.909-2.257v-4.025zM16.82 35.78v4.025l3.908-2.257v-4.025zM21.355 33.184v4.025l3.909-2.257v-4.025zM25.844 30.696v4.025l3.909-2.257V28.44zM30.38 28.1v4.025l3.908-2.257v-4.025zM34.869 25.612v4.025l3.908-2.257v-4.025zM0 63.43l4.21 2.431V27.426L0 24.996z"/>
        <path fill="#FFF" d="M0 24.996l4.21 2.43L41.533 5.878l-4.209-2.43z"/>
        <path fill="#0975CE" d="M4.21 27.427V40.25l37.324-21.55V5.877z"/>
        <path fill="#1A82FF" d="M0 37.821l4.21 2.43V27.427L0 24.997z"/>
        <path fill="#3E9FFF" d="M0 24.996l4.21 2.43L41.533 5.878l-4.209-2.43z"/>
        <path fill="#0E2032" d="M11.28 13.667c-1.445-.834-2.85-.94-3.96-.3-1.101.636-1.708 1.895-1.708 3.543 0 1.368.424 2.845 1.13 4.194l1.667-.963c-.545-1.062-.88-2.207-.88-3.231 0-.921.273-1.607.75-1.883.483-.28 1.228-.17 2.042.3 2.034 1.174 3.752 4.136 3.752 6.467 0 .921-.273 1.607-.75 1.883a1.14 1.14 0 0 1-.406.136s-.513.27-.513.943c0 .672.513.986.513.986.487-.03.947-.165 1.364-.406 1.102-.636 1.709-1.894 1.709-3.542 0-3.032-2.069-6.602-4.71-8.127"/>
        <g transform="translate(27.146 .324)">
            <mask id="d" fill="#fff">
                <use xlink:href="#c"/>
            </mask>
            <path fill="#0E2032" d="M5.677.901c-1.444-.834-2.85-.94-3.959-.3C.616 1.237.01 2.496.01 4.143c0 1.369.424 2.846 1.13 4.195l1.667-.963c-.545-1.063-.88-2.207-.88-3.232 0-.92.273-1.606.75-1.882.483-.28 1.228-.17 2.042.3 2.034 1.174 3.752 4.136 3.752 6.467 0 .921-.274 1.607-.75 1.882a1.14 1.14 0 0 1-.407.137s-.512.27-.512.943c0 .672.512.986.512.986.488-.03.948-.165 1.364-.406 1.103-.636 1.71-1.894 1.71-3.542 0-3.032-2.07-6.602-4.71-8.127" mask="url(#d)"/>
        </g>
        <path fill="#FFF" d="M19.669 24.355c0-.402-.152-.515-.458-.338a.882.882 0 0 0-.377.424c-.08.184-.124.422-.133.716l-1.077.622c.026-.647.193-1.22.503-1.718.31-.496.7-.883 1.174-1.156.495-.286.869-.359 1.12-.22.252.14.377.438.377.893 0 .506-.17 1.099-.51 1.777-.339.68-.746 1.324-1.219 1.93l1.8-1.04v1.016l-3.252 1.878v-.942c1.368-1.903 2.052-3.183 2.052-3.842M23.85 22.942c0-.466-.048-.795-.144-.986-.098-.192-.288-.206-.572-.042a1.233 1.233 0 0 0-.58.71c-.1.308-.149.692-.149 1.153 0 .466.05.797.149.992.098.196.292.21.58.044.284-.164.474-.4.572-.709.096-.308.144-.696.144-1.162m-2.529 1.461c0-.81.144-1.534.433-2.175a3.248 3.248 0 0 1 1.38-1.506c.628-.363 1.088-.392 1.378-.086.29.307.436.864.436 1.673 0 .815-.146 1.544-.436 2.186a3.258 3.258 0 0 1-1.378 1.51c-.632.365-1.092.393-1.38.083-.289-.309-.433-.871-.433-1.685M25.277 20.75v-1.177l1.845-1.065v5.201l-1.161.671v-4.024zM29.89 17.987c-.112-.074-.275-.05-.49.075-.194.11-.346.26-.455.446-.11.185-.165.396-.165.632 0 .235.056.383.168.443.112.06.265.036.458-.076.185-.107.34-.256.465-.448.125-.193.187-.4.187-.62 0-.226-.056-.377-.168-.452m-.413 3.407c.25-.144.425-.375.526-.694.1-.319.147-.75.139-1.294a2 2 0 0 1-.378.692 2.258 2.258 0 0 1-.622.533c-.43.248-.77.295-1.02.143s-.374-.506-.374-1.06c0-.35.062-.694.187-1.035a3.231 3.231 0 0 1 1.426-1.677c.46-.266.82-.363 1.078-.292.257.072.436.27.535.593.1.323.149.752.149 1.286 0 .942-.126 1.727-.378 2.355a2.87 2.87 0 0 1-1.268 1.457c-.327.19-.608.277-.842.262a.682.682 0 0 1-.542-.286c-.127-.177-.199-.41-.216-.7l1.032-.595c.06.392.25.496.568.312"/>
    </g>
</svg>
