<svg xmlns="http://www.w3.org/2000/svg" xmlns:xlink="http://www.w3.org/1999/xlink" width="100" height="155" viewBox="0 0 100 155">
    <defs>
        <path id="a" d="M0 .188h47.738V27.75H0z"/>
        <path id="c" d="M0 154.546h99.976V0H0z"/>
    </defs>
    <g fill="none" fill-rule="evenodd">
        <path fill="#C2CBD3" d="M41.365 148.579l3.88-2.24c.929-.525 1.503-1.658 1.503-3.267l.032.018V54.582c0-3.22-2.296-7.18-5.134-8.818L10.43 27.742c-1.445-.835-2.75-.905-3.682-.347l-3.88 2.24 38.497 118.944z"/>
        <g transform="translate(0 126.796)">
            <mask id="b" fill="#fff">
                <use xlink:href="#a"/>
            </mask>
            <path fill="#000" d="M47.16 25.088l-4.032 2.328c-.857.495-2.355.433-3.345-.139L.82 4.781C-.171 4.21-.28 3.345.579 2.85L4.61.522C5.468.027 6.965.09 7.955.661L46.92 23.157c.99.572 1.098 1.436.24 1.931" mask="url(#b)" opacity=".5"/>
        </g>
        <path fill="#FFF" d="M42.868 145.312c0 1.61-.574 2.742-1.503 3.267-.928.524-2.212.442-3.63-.377L6.55 130.198c-2.838-1.639-5.133-5.599-5.133-8.818V32.872c0-1.58.553-2.7 1.451-3.237.933-.558 2.237-.488 3.682.347l31.216 18.022c2.838 1.639 5.134 5.599 5.134 8.818v88.508l-.032-.018z"/>
        <path fill="#1A82FF" d="M4.286 41.81l35.68 20.6v72.848l-35.68-20.6z"/>
        <path fill="#FFF" d="M6.62 46.668l31.012 17.904v12.5L6.62 59.168z"/>
        <path fill="#192A32" d="M8.227 50.647L35.895 66.62v.818L8.227 51.443zM8.227 53.433l27.668 15.973v.819L8.227 54.229zM8.227 56.218l10.821 6.248v.818l-10.82-6.27zM25.968 50.56c0 .219-.127.328-.318.218l-6.41-3.7c-.159-.092-.318-.367-.318-.587v-.951c0-.22.127-.329.318-.218l6.41 3.7c.159.092.318.367.318.586v.952zM22.461 42.424c.528.305.957 1.044.957 1.65 0 .607-.429.85-.957.546-.528-.305-.956-1.044-.956-1.65 0-.606.428-.85.956-.546M22.142 128.223c1.761 1.017 3.189 3.48 3.189 5.5s-1.428 2.835-3.189 1.818c-1.76-1.017-3.188-3.479-3.188-5.5 0-2.02 1.427-2.834 3.188-1.818M45.95 77.446c0 .579-.409 1.283-.913 1.574-.504.291-.913.058-.913-.52v-6.732c0-.578.41-1.283.913-1.574.504-.29.913-.058.913.52v6.732z"/>
        <path fill="#FFF" d="M75.103 0C61.367 0 50.23 9.046 50.23 20.207c0 6.49 3.766 12.265 9.618 15.96 1.799 4.492-2.245 8.308-6.513 9.334 4.707.404 13.081-.251 19.43-5.178 14.706 1.115 27.21-8.285 27.21-20.116C99.977 9.046 88.84 0 75.104 0"/>
        <mask id="d" fill="#fff">
            <use xlink:href="#c"/>
        </mask>
        <path fill="#000" d="M65.567 24.547h3.408v-3.284h-3.408v3.284zm0-6.057h3.408v-3.284h-3.408v3.284zM70.989 20.979h7.219v-2.835h-7.22z" mask="url(#d)"/>
        <path fill="#000" d="M83.963 25.141c-.79 1.58-1.825 2.866-3.106 3.858h-3.33v-.31c1.456-1.219 2.54-2.556 3.253-4.013.712-1.456 1.069-3.067 1.069-4.833 0-1.767-.357-3.375-1.07-4.826-.712-1.451-1.796-2.787-3.253-4.005v-.325h3.331c1.28.991 2.316 2.277 3.106 3.857s1.186 3.341 1.186 5.283c0 1.962-.395 3.734-1.186 5.314" mask="url(#d)"/>
    </g>
</svg>
