<svg xmlns="http://www.w3.org/2000/svg" width="37" height="31" viewBox="0 0 37 31">
    <path fill="#FFF" fill-rule="evenodd" d="M16.498 2.683c.319-.318.46-.711.46-1.096C16.959.779 16.332 0 15.387 0c-.402 0-.805.154-1.11.46L7.029 7.709h4.444l5.025-5.026zm3.544 13.505c0-1.989.587-3.838 1.585-5.396H0v3.083h.991c.825 0 1.575.469 1.937 1.209l6.322 15.75h18.5l1.867-4.649c-5.326-.234-9.575-4.614-9.575-9.997zm.46-13.505a1.529 1.529 0 0 1-.46-1.096c0-.808.627-1.587 1.57-1.587.406 0 .807.154 1.114.46l5.832 5.832a9.973 9.973 0 0 0-3.327 1.119l-4.728-4.728zm8.79 17.359v-3.083h-3.083v-1.542h3.083v-3.083l4.625 3.854-4.625 3.854zm.77-10.792a6.937 6.937 0 0 0-6.937 6.938 6.937 6.937 0 1 0 13.875 0 6.938 6.938 0 0 0-6.937-6.938z"/>
</svg>
