<svg xmlns="http://www.w3.org/2000/svg" width="720" height="341" viewBox="0 0 720 341">
    <path fill="#855FFA" fill-rule="evenodd" d="M67.657-607L33.51-587.531l12.158 7.02v200.238L89.65-354.88v-200.239l12.157 7.02L67.659-607h-.002zm160.873 89.469l12.157 7.02v200.238l43.982 25.393v-200.238l12.158 7.019-34.149-58.902-34.148 19.47zM-64-471.521l12.158 7.02v200.236L-7.86-238.87v-200.239l12.158 7.02-34.149-58.902L-64-471.521zm487.549 23.99l12.158 7.019v200.239l43.981 25.392v-200.238l12.159 7.02L457.698-467l-34.149 19.469zm-292.529 46.01l12.158 7.019v200.238l43.982 25.393v-200.238l12.157 7.02-34.149-58.902-34.148 19.47zm487.548 23.99l12.158 7.02v200.238l43.982 25.392v-200.238l12.158 7.02L652.717-397l-34.149 19.469zm-292.528 46.01l12.157 7.019v200.238l43.982 25.393v-200.238l12.158 7.02-34.149-58.901-34.148 19.469zm-292.53 23.08l12.158 7.02v200.237L89.65-75.79v-200.239l12.157 7.02-34.148-58.902-34.149 19.47zm487.549 46.92l12.158 7.02v200.237l43.981 25.393v-200.238l12.158 7.019-34.149-58.901-34.148 19.47zm-292.529 23.08l12.157 7.019v200.238l43.982 25.393v-200.238l12.158 7.02-34.149-58.902-34.148 19.47zM-64-192.431l12.158 7.019V14.825L-7.86 40.218v-200.237l12.158 7.02-34.149-58.902L-64-192.431zm780.078.91l12.158 7.02V15.736l43.981 25.394v-200.239l12.158 7.019v-.001l-34.148-58.9-34.149 19.47zm-292.529 23.08l12.158 7.019V38.816l43.981 25.393v-200.238l12.159 7.02-34.149-58.901-34.149 19.469zm-292.529 46.01l12.158 7.019V84.826l43.982 25.392V-90.019l12.157 7.02-34.149-58.902-34.148 19.47zm487.548 23.99l12.158 7.02v200.237l43.982 25.393V-66.029l12.158 7.02-34.149-58.901-34.149 19.469zM326.04-52.431l12.157 7.019v200.238l43.982 25.392V-20.019L394.337-13l-34.149-58.9-34.148 19.469zM33.51-29.351l12.158 7.02v200.236l43.982 25.393V3.061l12.157 7.02-34.148-58.902-34.149 19.47zm487.549 46.92l12.158 7.02v200.237l43.981 25.393V49.981L589.356 57 555.207-1.901l-34.148 19.47zM228.53 40.649l12.157 7.019v200.238l43.982 25.392V73.061l12.158 7.02-34.149-58.902-34.148 19.47zM-64 86.659l12.158 7.018v200.238l43.982 25.393V119.071l12.158 7.02-34.149-58.902L-64 86.659zm780.078.91l12.158 7.02v200.236l43.981 25.393V119.981L784.375 127v-.001l-34.148-58.9-34.149 19.47zm-292.529 23.08l12.158 7.019v200.238l43.981 25.392V143.061l12.159 7.02-34.149-58.901-34.149 19.469zm-292.529 46.01l12.158 7.018v200.239l43.982 25.392V189.071l12.157 7.02-34.149-58.902-34.148 19.47zm487.548 23.99l12.158 7.02v200.237l43.982 25.393V213.061l12.158 7.019-34.149-58.901-34.149 19.47zM326.04 226.658l12.157 7.019v200.239l43.982 25.392V259.071l12.158 7.019-34.149-58.901-34.148 19.469zM33.51 249.739l12.158 7.018v200.238l43.982 25.393V282.151l12.157 7.02-34.148-58.902-34.149 19.47zm487.549 46.92l12.158 7.019v200.237l43.981 25.393V329.071l12.158 7.019-34.149-58.901-34.148 19.47zm-292.529 23.08l12.157 7.018v200.239l43.982 25.392V352.151l12.158 7.02-34.149-58.902-34.148 19.47zM-64 365.748l12.158 7.019v200.238l43.982 25.393V398.161l12.158 7.018-34.149-58.901L-64 365.748zm780.078.911l12.158 7.018v200.238l43.981 25.393V399.07l12.158 7.02v-.001l-34.148-58.9-34.149 19.47zm-292.529 23.079l12.158 7.019v200.239l43.981 25.392V422.151l12.159 7.019-34.149-58.901-34.149 19.469zM131.02 435.747l12.158 7.02v200.238l43.982 25.393V468.161l12.157 7.018-34.149-58.901-34.148 19.469zm487.548 23.992l12.158 7.019v200.238l43.982 25.393V492.151l12.158 7.019-34.149-58.901-34.149 19.47zM326.04 505.747l12.157 7.02v200.239l43.982 25.391V538.161l12.158 7.018-34.149-58.901-34.148 19.469zm195.019 70.001l12.158 7.019v200.238l43.981 25.393V608.16l12.158 7.019-34.149-58.901-34.148 19.47zm195.019 70l12.158 7.019v200.238l43.981 25.393V678.16l12.158 7.019v-.001l-34.148-58.9-34.149 19.47z"/>
</svg>
