<svg xmlns="http://www.w3.org/2000/svg" width="37" height="31" viewBox="0 0 37 31">
    <path fill="#1A82FF" fill-rule="evenodd" d="M32.725 7.922c.477 10.52-7.37 22.25-21.264 22.25-4.224 0-8.151-1.24-11.461-3.362 3.969.469 7.93-.635 11.073-3.096-3.27-.06-6.034-2.224-6.992-5.196a7.513 7.513 0 0 0 3.383-.127c-3.6-.724-6.084-3.964-6-7.43a7.46 7.46 0 0 0 3.385.935C1.521 9.669.58 5.27 2.537 1.908c3.687 4.526 9.198 7.503 15.417 7.816C16.863 5.046 20.41.538 25.243.538c2.146 0 4.091.91 5.459 2.363a14.944 14.944 0 0 0 4.75-1.816 7.504 7.504 0 0 1-3.292 4.139 14.939 14.939 0 0 0 4.297-1.18 15.057 15.057 0 0 1-3.732 3.878"/>
</svg>
