<svg xmlns="http://www.w3.org/2000/svg" width="20" height="20" viewBox="0 0 20 20">
    <g fill="none" fill-rule="evenodd">
        <path fill="#1A82FF" stroke="#1A82FF" d="M10 .9a9.1 9.1 0 1 0 0 18.2A9.1 9.1 0 0 0 10 .9z"/>
        <path fill="#FFF" d="M6.31 9.467a3.735 3.735 0 0 1 3.69-3.2c1.193 0 2.254.564 2.939 1.439l.663-.87A4.785 4.785 0 0 0 10 5.2a4.8 4.8 0 0 0-4.769 4.267H3.6l2.133 2.8 2.134-2.8H6.309zm8.46 1.055A4.8 4.8 0 0 1 10 14.8a4.786 4.786 0 0 1-3.607-1.64l.664-.87A3.726 3.726 0 0 0 10 13.732c1.88 0 3.437-1.4 3.692-3.21h-1.559l2.134-2.8 2.133 2.8h-1.63z"/>
    </g>
</svg>
