<svg xmlns="http://www.w3.org/2000/svg" width="25" height="23" viewBox="0 0 25 23">
    <path fill="#455D75" fill-rule="evenodd" d="M5.73 18.75c2.167 0 4.415-.503 5.728-1.458v.677c0 1.295-2.666 2.343-5.729 2.343C2.668 20.313 0 19.264 0 17.97v-.677c1.313.955 3.563 1.458 5.73 1.458m0-2.604c2.167 0 4.415-.503 5.728-1.46v.679c0 1.294-2.666 2.343-5.729 2.343C2.668 17.708 0 16.66 0 15.365v-.679c1.313.957 3.563 1.46 5.73 1.46m0 5.208c2.167 0 4.415-.503 5.728-1.46v.679c0 1.295-2.666 2.344-5.729 2.344-3.061 0-5.729-1.05-5.729-2.344v-.678c1.313.956 3.563 1.46 5.73 1.46m0-10.938C2.667 10.417 0 11.466 0 12.76c0 1.295 2.668 2.344 5.73 2.344 3.062 0 5.728-1.049 5.728-2.344 0-1.294-2.666-2.343-5.729-2.343m13.542-2.084c2.168 0 4.415-.504 5.729-1.459v.678c0 1.295-2.667 2.344-5.73 2.344-3.06 0-5.728-1.05-5.728-2.344v-.678c1.312.955 3.562 1.46 5.729 1.46m0-2.605c2.168 0 4.415-.504 5.729-1.46v.679c0 1.295-2.667 2.344-5.73 2.344-3.06 0-5.728-1.05-5.728-2.344v-.68c1.312.957 3.562 1.461 5.729 1.461m0 5.208c2.168 0 4.415-.504 5.729-1.46v.68c0 1.294-2.667 2.343-5.73 2.343-3.06 0-5.728-1.049-5.728-2.344v-.679c1.312.956 3.562 1.46 5.729 1.46M19.27 0c-3.062 0-5.73 1.049-5.73 2.344s2.668 2.344 5.73 2.344c3.062 0 5.729-1.05 5.729-2.344C25 1.049 22.333 0 19.27 0m0 13.542c2.169 0 4.416-.503 5.73-1.46v.678c0 1.295-2.667 2.344-5.73 2.344-3.06 0-5.728-1.049-5.728-2.344v-.678c1.312.957 3.562 1.46 5.729 1.46m0 5.208c2.168 0 4.415-.503 5.729-1.458v.677c0 1.295-2.667 2.343-5.73 2.343-3.06 0-5.728-1.048-5.728-2.343v-.677c1.312.955 3.562 1.458 5.729 1.458m0-2.604c2.168 0 4.415-.503 5.729-1.46v.679c0 1.293-2.667 2.343-5.73 2.343-3.06 0-5.728-1.049-5.728-2.343v-.679c1.312.957 3.562 1.46 5.729 1.46m0 5.208c2.168 0 4.415-.503 5.729-1.46v.679c0 1.295-2.667 2.344-5.73 2.344-3.06 0-5.728-1.05-5.728-2.344v-.678c1.312.956 3.562 1.46 5.729 1.46"/>
</svg>
