<?xml version="1.0" encoding="UTF-8"?>
<svg width="231px" height="27px" viewBox="0 0 231 27" version="1.1" xmlns="http://www.w3.org/2000/svg" xmlns:xlink="http://www.w3.org/1999/xlink">
    <!-- Generator: Sketch 43.2 (39069) - http://www.bohemiancoding.com/sketch -->
    <title>Group</title>
    <desc>Created with Sketch.</desc>
    <defs>
        <polygon id="path-1" points="0 26.9939997 230.784 26.9939997 230.784 0.332666333 0 0.332666333"></polygon>
        <polygon id="path-3" points="0 26.9939997 230.784 26.9939997 230.784 0.332666333 0 0.332666333"></polygon>
        <polygon id="path-5" points="0 26.9939997 230.784 26.9939997 230.784 0.332666333 0 0.332666333"></polygon>
        <polygon id="path-7" points="0 26.9939997 230.784 26.9939997 230.784 0.332666333 0 0.332666333"></polygon>
        <polygon id="path-9" points="0 26.9939997 230.784 26.9939997 230.784 0.332666333 0 0.332666333"></polygon>
        <polygon id="path-11" points="0 26.9939997 230.784 26.9939997 230.784 0.332666333 0 0.332666333"></polygon>
    </defs>
    <g id="Page-1" stroke="none" stroke-width="1" fill="none" fill-rule="evenodd">
        <g id="Group">
            <path d="M0,0.3336 L13.5373333,20.2482667 L28.2626667,0.3336 L0,0.3336 Z M8.32,4.73893333 L19.5226667,4.73893333 L13.6826667,12.6309333 L8.32,4.73893333 Z" id="Fill-1" fill="#00B3E6" fill-rule="nonzero"></path>
            <polygon id="Fill-2" fill="#00B3E6" fill-rule="nonzero" points="4.34 26.994 24.0813333 26.994 24.0813333 22.5886667 4.34 22.5886667"></polygon>
            <polygon id="Fill-3" fill="#FFFFFF" fill-rule="nonzero" points="45.35 22.5804 45.35 15.4350667 38.494 15.4350667 38.494 22.5804 34.3633333 22.5804 34.3633333 4.7684 38.494 4.7684 38.494 11.7110667 45.35 11.7110667 45.35 4.7684 49.4806667 4.7684 49.4806667 22.5804"></polygon>
            <polygon id="Fill-4" fill="#FFFFFF" fill-rule="nonzero" points="54.5753333 22.5804 54.5753333 4.7684 65.8513333 4.7684 65.8513333 8.55773333 58.706 8.55773333 58.706 11.7110667 65.2273333 11.7110667 65.2273333 15.3337333 58.706 15.3337333 58.706 18.8124 65.8513333 18.8124 65.8513333 22.5804"></polygon>
            <polygon id="Fill-5" fill="#FFFFFF" fill-rule="nonzero" points="70.7061333 22.5804 70.7061333 4.7684 74.8368 4.7684 74.8368 18.8124 81.9821333 18.8124 81.9821333 22.5804"></polygon>
            <polygon id="Fill-6" fill="#FFFFFF" fill-rule="nonzero" points="85.5765333 22.5804 85.5765333 4.7684 89.7072 4.7684 89.7072 18.8124 96.8525333 18.8124 96.8525333 22.5804"></polygon>
            <path d="M108.2732,22.8779997 C102.758533,22.8779997 99.2292,18.9139997 99.2292,13.6886663 C99.2292,8.463333 102.9252,4.463333 108.446533,4.463333 C113.9692,4.463333 117.491867,8.42866633 117.491867,13.6739997 C117.683867,18.5659997 113.874533,22.6859997 108.983867,22.8779997 C108.746533,22.887333 108.510533,22.887333 108.2732,22.8779997 Z M108.346533,8.17399967 C105.526533,8.17399967 103.627867,10.4859997 103.627867,13.6886663 C103.627867,16.891333 105.526533,19.203333 108.346533,19.203333 C111.1652,19.203333 113.063867,16.8699997 113.063867,13.6886663 C113.063867,10.507333 111.1652,8.167333 108.346533,8.167333 L108.346533,8.17399967 Z" id="Fill-7" fill="#FFFFFF" fill-rule="nonzero"></path>
            <path d="M126.3976,22.8779997 C124.270933,22.811333 122.200267,22.1819997 120.3976,21.051333 L121.5416,17.3126663 C122.990933,18.379333 124.7296,18.9806663 126.528267,19.0366663 C127.9776,19.0366663 128.5496,18.355333 128.5496,17.479333 C128.5496,16.6019997 128.0856,15.9206663 125.3616,14.8259997 C122.222933,13.5659997 121.1296,11.739333 121.1296,9.60066633 C121.1296,6.999333 123.2456,4.471333 127.3976,4.471333 C129.1536,4.475333 130.876267,4.95399967 132.382933,5.855333 L131.332267,9.53666633 C130.170933,8.711333 128.8096,8.211333 127.390933,8.087333 C125.882933,8.087333 125.2736,8.811333 125.2736,9.53666633 C125.2736,10.703333 126.1736,11.0939997 128.412267,12.0366663 C131.7376,13.4499997 132.760267,15.051333 132.760267,17.3339997 C132.7376,20.175333 130.6736,22.8779997 126.3976,22.8779997" id="Fill-9" fill="#FFFFFF" fill-rule="nonzero"></path>
            <mask id="mask-2" fill="white">
                <use xlink:href="#path-1"></use>
            </mask>
            <g id="path-1"></g>
            <polygon id="Fill-11" fill="#FFFFFF" fill-rule="nonzero" mask="url(#mask-2)" points="136.962667 22.5806663 141.093333 22.5806663 141.093333 4.76866633 136.962667 4.76866633"></polygon>
            <mask id="mask-4" fill="white">
                <use xlink:href="#path-3"></use>
            </mask>
            <g id="path-1"></g>
            <path d="M161.340933,12.5726663 L161.340933,21.0806663 C159.2996,22.2926663 156.960933,22.915333 154.5876,22.8779997 C149.362267,22.8779997 145.2316,19.1379997 145.2316,13.6886663 C145.2316,8.239333 149.404933,4.463333 154.796933,4.463333 C156.886267,4.463333 158.942267,4.98999967 160.7756,5.99266633 L159.0516,9.319333 C157.820933,8.67266633 156.454267,8.32866633 155.064933,8.319333 C151.514267,8.319333 149.622267,10.5299997 149.622267,13.667333 C149.622267,17.0726663 151.904933,19.1819997 154.826267,19.1819997 C155.7276,19.251333 156.6316,19.0846663 157.448933,18.6966663 L157.448933,16.059333 L153.876933,16.059333 L153.876933,12.5726663 L161.340933,12.5726663 Z" id="Fill-13" fill="#FFFFFF" fill-rule="nonzero" mask="url(#mask-4)"></path>
            <mask id="mask-6" fill="white">
                <use xlink:href="#path-5"></use>
            </mask>
            <g id="path-1"></g>
            <polygon id="Fill-14" fill="#FFFFFF" fill-rule="nonzero" mask="url(#mask-6)" points="180.754933 22.9215997 170.008267 13.2762663 170.008267 22.5802663 165.906933 22.5802663 165.906933 4.52159967 166.464267 4.42026633 177.066933 14.0002663 177.066933 4.76826633 181.1976 4.76826633 181.1976 22.8855997"></polygon>
            <mask id="mask-8" fill="white">
                <use xlink:href="#path-7"></use>
            </mask>
            <g id="path-1"></g>
            <path d="M199.830533,10.2138663 L197.302533,16.1658663 L202.3572,16.1658663 L199.830533,10.2138663 Z M205.078533,22.652533 L203.3532,18.572533 L196.307867,18.572533 L194.582533,22.652533 L191.447867,22.652533 L199.6612,4.60319967 L200.0972,4.60319967 L208.283867,22.652533 L205.078533,22.652533 Z" id="Fill-15" fill="#D1D1D1" fill-rule="nonzero" mask="url(#mask-8)"></path>
            <mask id="mask-10" fill="white">
                <use xlink:href="#path-9"></use>
            </mask>
            <g id="path-1"></g>
            <path d="M216.644267,7.51786633 C215.962933,7.51786633 215.282933,7.56586633 214.650933,7.66319967 L214.650933,14.1751997 C215.2576,14.2231997 215.8176,14.2711997 216.352267,14.2711997 C219.0976,14.2711997 220.360267,12.8378663 220.360267,10.8218663 C220.360267,9.072533 219.1216,7.51786633 216.644267,7.51786633 M216.4256,16.9191997 C215.8416,16.9191997 215.2336,16.8711997 214.650933,16.8471997 L214.650933,22.652533 L211.614933,22.652533 L211.614933,5.016533 C213.1936,4.82186633 214.676267,4.72319967 216.1336,4.72319967 C221.016267,4.72319967 223.518933,7.396533 223.518933,10.724533 C223.518933,14.344533 220.968267,16.9191997 216.4256,16.9191997" id="Fill-16" fill="#D1D1D1" fill-rule="nonzero" mask="url(#mask-10)"></path>
            <mask id="mask-12" fill="white">
                <use xlink:href="#path-11"></use>
            </mask>
            <g id="path-1"></g>
            <polygon id="Fill-17" fill="#D1D1D1" fill-rule="nonzero" mask="url(#mask-12)" points="227.748 22.6526663 230.784 22.6526663 230.784 4.84599967 227.748 4.84599967"></polygon>
        </g>
    </g>
</svg>