<svg xmlns="http://www.w3.org/2000/svg" xmlns:xlink="http://www.w3.org/1999/xlink" width="69" height="63" viewBox="0 0 69 63">
    <defs>
        <path id="a" d="M.292.061h44.721v37.966H.292z"/>
        <path id="c" d="M.575 2.622l6.141 3.545v17.957c0 .393-.136.671-.357.804l3.974-2.295c.23-.13.371-.41.371-.81V3.864L4.563.32.575 2.622z"/>
        <linearGradient id="d" x1="-.002%" x2="99.997%" y1="50.001%" y2="50.001%">
            <stop offset="0%" stop-color="#E8EBEF"/>
            <stop offset="100%" stop-color="#C1CDDB"/>
        </linearGradient>
        <path id="f" d="M8.888.713l-6.434.351C.954 1.927.028 3.774.028 6.406c0 5.279 3.728 11.71 8.329 14.365 2.298 1.328 4.378 1.46 5.886.604l3.538-5.316c1.142-.648 1.849-2.047 1.849-4.044 0-3.987-2.816-8.844-6.29-10.85C12.325.579 11.366.3 10.517.3c-.606 0-1.155.141-1.629.412"/>
        <linearGradient id="g" x1="100.002%" x2=".001%" y1="50.001%" y2="50.001%">
            <stop offset="0%" stop-color="#E8EBEF"/>
            <stop offset="100%" stop-color="#C1CDDB"/>
        </linearGradient>
        <path id="i" d="M11.915.68L3.402 5.595C1.629 6.616.532 8.802.532 11.915c0 6.244 4.412 13.854 9.855 16.995 2.732 1.579 5.206 1.73 6.99.698l8.537-4.928c1.766-1.024 2.857-3.207 2.857-6.312 0-6.245-4.412-13.855-9.854-16.997C17.327.453 15.825.018 14.495.018c-.961 0-1.831.227-2.58.662"/>
        <linearGradient id="j" x1=".001%" x2="99.999%" y1="50.001%" y2="50.001%">
            <stop offset="0%" stop-color="#E8EBEF"/>
            <stop offset="100%" stop-color="#C1CDDB"/>
        </linearGradient>
        <path id="l" d="M.255 11.949c0 10.556 7.458 23.42 16.657 28.73 9.2 5.312 16.657 1.06 16.657-9.496 0-10.557-7.457-23.42-16.657-28.73C14.224.9 11.684.163 9.435.163 3.99.164.255 4.477.255 11.95"/>
        <linearGradient id="m" x1="100.001%" x2=".001%" y1="50%" y2="50%">
            <stop offset="0%" stop-color="#E8EBEF"/>
            <stop offset="100%" stop-color="#C1CDDB"/>
        </linearGradient>
        <path id="o" d="M.198 9.929c0 8.753 6.184 19.42 13.812 23.823 7.628 4.404 13.812.878 13.812-7.874 0-8.754-6.184-19.42-13.812-23.824C11.78.768 9.674.157 7.81.157 3.295.157.198 3.734.198 9.93"/>
        <linearGradient id="p" x1="27.364%" x2="61.124%" y1="65.967%" y2="42.154%">
            <stop offset="0%" stop-color="#E8EBEF"/>
            <stop offset="100%" stop-color="#C1CDDB"/>
        </linearGradient>
    </defs>
    <g fill="none" fill-rule="evenodd">
        <g transform="translate(23.367 24.738)">
            <mask id="b" fill="#fff">
                <use xlink:href="#a"/>
            </mask>
            <path fill="#000" d="M43.22 5.593c-4.84-7.398-17.97-7.372-29.328.057C2.533 13.08-2.753 25.099 2.086 32.496c4.838 7.398 17.968 7.372 29.327-.057 11.359-7.43 16.645-19.448 11.806-26.846" mask="url(#b)" opacity=".1"/>
        </g>
        <g transform="translate(41.113 20.301)">
            <mask id="e" fill="#fff">
                <use xlink:href="#c"/>
            </mask>
            <path fill="url(#d)" d="M.575 2.622l6.141 3.545v17.957c0 .393-.136.671-.357.804l3.974-2.295c.23-.13.371-.41.371-.81V3.864L4.563.32.575 2.622z" mask="url(#e)"/>
        </g>
        <path fill="#F7F7F7" d="M41.688 40.88c0 .8.565 1.774 1.262 2.177l3.617 2.088c.698.402 1.262.08 1.262-.72V26.47l-6.141-3.546v17.956z"/>
        <g transform="translate(44.916 .02)">
            <mask id="h" fill="#fff">
                <use xlink:href="#f"/>
            </mask>
            <path fill="url(#g)" d="M8.888.713l-6.434.351C.954 1.927.028 3.774.028 6.406c0 5.279 3.728 11.71 8.329 14.365 2.298 1.328 4.378 1.46 5.886.604l3.538-5.316c1.142-.648 1.849-2.047 1.849-4.044 0-3.987-2.816-8.844-6.29-10.85C12.325.579 11.366.3 10.517.3c-.606 0-1.155.141-1.629.412" mask="url(#h)"/>
        </g>
        <path fill="#0975CE" d="M41.683 4.316c-1.5.862-2.426 2.71-2.426 5.341 0 5.279 3.728 11.71 8.329 14.366 2.298 1.327 4.378 1.46 5.886.603l5.672-3.223c1.512-.858 2.448-2.71 2.448-5.355 0-5.278-3.728-11.71-8.328-14.366-2.302-1.329-4.386-1.46-5.894-.598l-5.687 3.232z"/>
        <path fill="#DFE6ED" d="M47.152 24.333c0-5.278-3.728-11.71-8.328-14.365-4.6-2.656-8.329-.53-8.329 4.748 0 5.278 3.73 11.71 8.329 14.366 4.6 2.655 8.328.53 8.328-4.749"/>
        <g transform="translate(28.437 1.921)">
            <mask id="k" fill="#fff">
                <use xlink:href="#i"/>
            </mask>
            <path fill="url(#j)" d="M11.915.68L3.402 5.595C1.629 6.616.532 8.802.532 11.915c0 6.244 4.412 13.854 9.855 16.995 2.732 1.579 5.206 1.73 6.99.698l8.537-4.928c1.766-1.024 2.857-3.207 2.857-6.312 0-6.245-4.412-13.855-9.854-16.997C17.327.453 15.825.018 14.495.018c-.961 0-1.831.227-2.58.662" mask="url(#k)"/>
        </g>
        <path fill="#DFE6ED" d="M47.152 24.333c0-5.278-3.728-11.71-8.328-14.365-4.6-2.656-8.329-.53-8.329 4.748 0 5.278 3.73 11.71 8.329 14.366 4.6 2.655 8.328.53 8.328-4.749"/>
        <path fill="#F7F7F7" d="M48.678 25.214c0-6.245-4.412-13.854-9.854-16.996-5.442-3.142-9.854-.627-9.854 5.618s4.412 13.854 9.854 16.996c5.442 3.142 9.854.626 9.854-5.618"/>
        <path fill="#0975CE" d="M46.054 28.447c.699-.996 1.099-2.385 1.099-4.114 0-5.278-3.73-11.71-8.329-14.365-1.525-.88-2.953-1.236-4.183-1.125l-22.396-.379c-4.946.459-8.27 4.696-8.27 11.744 0 10.556 7.457 23.42 16.657 28.73 6.18 3.569 11.573 2.821 14.449-1.254l10.973-19.237z"/>
        <g transform="translate(3.72 8.26)">
            <mask id="n" fill="#fff">
                <use xlink:href="#l"/>
            </mask>
            <path fill="url(#m)" d="M.255 11.949c0 10.556 7.458 23.42 16.657 28.73 9.2 5.312 16.657 1.06 16.657-9.496 0-10.557-7.457-23.42-16.657-28.73C14.224.9 11.684.163 9.435.163 3.99.164.255 4.477.255 11.95" mask="url(#n)"/>
        </g>
        <path fill="#F7F7F7" d="M33.753 41.484c0-10.557-7.458-23.42-16.658-28.732C7.895 7.442.438 11.692.438 22.25S7.896 45.67 17.095 50.98c9.2 5.312 16.658 1.06 16.658-9.496"/>
        <g transform="translate(3.086 13.963)">
            <mask id="q" fill="#fff">
                <use xlink:href="#o"/>
            </mask>
            <path fill="url(#p)" d="M.198 9.929c0 8.753 6.184 19.42 13.812 23.823 7.628 4.404 13.812.878 13.812-7.874 0-8.754-6.184-19.42-13.812-23.824C11.78.768 9.674.157 7.81.157 3.295.157.198 3.734.198 9.93" mask="url(#q)"/>
        </g>
        <g>
            <path fill="#0975CE" d="M14.405 27.714l8.556-6.811c2.888 3.224 5.23 7.245 6.604 11.341l-10.192 4.012c-.613.245-1.409.147-2.278-.354-1.942-1.122-3.516-3.837-3.516-6.066 0-.99.31-1.718.826-2.122"/>
            <path fill="#1A82FF" d="M20.612 33.897c0-2.229-1.574-4.944-3.517-6.066-1.078-.623-2.044-.623-2.69-.117-.515.404-.826 1.132-.826 2.122 0 2.23 1.574 4.944 3.516 6.066.87.501 1.665.599 2.278.354.758-.302 1.24-1.127 1.24-2.36"/>
        </g>
    </g>
</svg>
