<svg xmlns="http://www.w3.org/2000/svg" width="22" height="23" viewBox="0 0 22 23">
    <g fill="none" fill-rule="evenodd">
        <path fill="#26D198" d="M9.605.448a2.328 2.328 0 0 1 2.747 0c1.96 1.434 1.537 1.297 3.966 1.29a2.326 2.326 0 0 1 2.221 1.614c.743 2.31.483 1.953 2.45 3.373a2.327 2.327 0 0 1 .85 2.613c-.755 2.301-.759 1.86 0 4.17a2.323 2.323 0 0 1-.85 2.612c-1.967 1.42-1.706 1.063-2.45 3.374a2.324 2.324 0 0 1-2.221 1.615c-2.43-.008-2.007-.145-3.966 1.289a2.328 2.328 0 0 1-2.747 0c-1.96-1.433-1.539-1.298-3.966-1.29a2.326 2.326 0 0 1-2.222-1.614c-.742-2.313-.486-1.956-2.451-3.374a2.326 2.326 0 0 1-.85-2.612c.758-2.301.76-1.86 0-4.17a2.327 2.327 0 0 1 .849-2.614c1.963-1.417 1.709-1.057 2.451-3.373a2.324 2.324 0 0 1 2.222-1.615c2.423.008 1.995.154 3.967-1.288"/>
        <path fill="#111D28" d="M9.5 10a1.5 1.5 0 1 1 3 0 1.5 1.5 0 0 1-3 0zM7 9.801C7 11.9 8.735 14.406 11 18c2.265-3.594 4-6.1 4-8.199C15 7.701 13.1 6 11 6 8.901 6 7 7.702 7 9.801z"/>
    </g>
</svg>
