<?xml version="1.0" encoding="utf-8"?>
<!-- Generator: Adobe Illustrator 16.0.0, SVG Export Plug-In . SVG Version: 6.00 Build 0)  -->
<!DOCTYPE svg PUBLIC "-//W3C//DTD SVG 1.1//EN" "http://www.w3.org/Graphics/SVG/1.1/DTD/svg11.dtd">
<svg version="1.1" id="Layer_1" xmlns="http://www.w3.org/2000/svg" xmlns:xlink="http://www.w3.org/1999/xlink" x="0px" y="0px"
	 width="28px" height="23px" viewBox="0 0 28 23" enable-background="new 0 0 28 23" xml:space="preserve">
<path fill-rule="evenodd" clip-rule="evenodd" fill="#2E3F53" d="M24.381,16.343c-0.115-0.277-0.23-0.577-0.346-0.829
	c-0.185-0.415-0.368-0.806-0.529-1.174l-0.023-0.023c-1.588-3.452-3.291-6.951-5.087-10.404l-0.068-0.138
	c-0.185-0.346-0.369-0.714-0.553-1.083c-0.23-0.414-0.46-0.852-0.829-1.266C16.209,0.505,15.15,0,14.022,0
	c-1.151,0-2.187,0.506-2.946,1.381c-0.345,0.415-0.599,0.852-0.829,1.266c-0.185,0.368-0.369,0.736-0.552,1.082L9.626,3.866
	C7.854,7.319,6.127,10.817,4.539,14.27l-0.023,0.047c-0.161,0.368-0.345,0.759-0.529,1.174c-0.115,0.253-0.23,0.529-0.345,0.828
	c-0.299,0.853-0.391,1.657-0.276,2.486c0.253,1.726,1.404,3.177,2.993,3.821c0.598,0.253,1.22,0.368,1.864,0.368
	c0.184,0,0.415-0.022,0.599-0.047c0.76-0.092,1.542-0.344,2.302-0.782c0.943-0.528,1.842-1.289,2.854-2.394
	c1.013,1.104,1.934,1.865,2.854,2.394c0.76,0.438,1.543,0.69,2.303,0.782c0.184,0.024,0.414,0.047,0.598,0.047
	c0.646,0,1.289-0.115,1.865-0.368c1.611-0.645,2.738-2.118,2.992-3.821C24.772,17.999,24.68,17.194,24.381,16.343z M13.999,17.539
	c-1.243-1.566-2.048-3.038-2.325-4.282c-0.115-0.529-0.138-0.988-0.069-1.404c0.046-0.368,0.184-0.69,0.368-0.966
	c0.438-0.622,1.174-1.013,2.025-1.013c0.852,0,1.612,0.368,2.026,1.013c0.184,0.275,0.322,0.598,0.367,0.966
	c0.07,0.416,0.047,0.897-0.068,1.404C16.047,14.478,15.242,15.95,13.999,17.539z M23.184,18.62
	c-0.162,1.197-0.967,2.233-2.095,2.693c-0.552,0.23-1.151,0.3-1.749,0.23c-0.576-0.069-1.151-0.253-1.75-0.599
	c-0.828-0.46-1.656-1.174-2.623-2.232c1.519-1.864,2.439-3.567,2.784-5.087c0.161-0.715,0.185-1.357,0.115-1.957
	c-0.092-0.575-0.3-1.104-0.622-1.565c-0.713-1.036-1.91-1.635-3.245-1.635c-1.334,0-2.532,0.622-3.245,1.635
	c-0.322,0.461-0.53,0.99-0.622,1.565c-0.092,0.6-0.069,1.267,0.115,1.957c0.345,1.52,1.289,3.245,2.785,5.11
	c-0.944,1.059-1.795,1.771-2.624,2.232c-0.599,0.345-1.174,0.529-1.75,0.598c-0.622,0.07-1.22-0.022-1.75-0.229
	c-1.128-0.461-1.933-1.497-2.094-2.693c-0.069-0.575-0.023-1.151,0.207-1.795c0.069-0.23,0.184-0.461,0.299-0.737
	c0.161-0.368,0.345-0.759,0.529-1.151l0.023-0.046c1.588-3.429,3.292-6.927,5.064-10.334l0.069-0.138
	c0.184-0.345,0.368-0.714,0.552-1.059c0.184-0.368,0.391-0.713,0.644-1.012c0.484-0.553,1.128-0.853,1.842-0.853
	c0.714,0,1.358,0.3,1.841,0.853c0.254,0.299,0.461,0.644,0.645,1.012c0.184,0.345,0.368,0.714,0.553,1.059l0.068,0.138
	c1.75,3.43,3.453,6.928,5.041,10.358v0.022c0.185,0.369,0.346,0.783,0.53,1.151c0.114,0.276,0.229,0.507,0.298,0.737
	C23.207,17.446,23.275,18.021,23.184,18.62z"/>
</svg>
