<svg xmlns="http://www.w3.org/2000/svg" width="25" height="36" viewBox="0 0 25 36">
    <g fill="none" fill-rule="evenodd">
        <path fill="#111D28" d="M3.796 38.312c-1.81.043-3.701-.438-3.701-1.443 0 0-.43-6.24.536-11.298.966-5.057 8.262-7.37 8.262-7.37l.265-.028a3.366 3.366 0 0 0 3.329 2.897 3.367 3.367 0 0 0 3.362-3.372l-.023-.602 2.99-.725s6.92-.86 5.902 8.662c0 .855-1.37 1.33-2.895 1.427l-.074 17.421c0 4.39-8.956 6.298-16.745 5.726a1.605 1.605 0 0 1-1.234-1.563v-9.44l.026-.292z"/>
        <path fill="#111D28" d="M9.28 9.374v8.598c0 1.874 1.547 3.393 3.454 3.393 1.907 0 3.453-1.52 3.453-3.393V11.35"/>
        <path fill="#111D28" d="M15.494 17.223c2.41 0 4.362-2.023 4.362-4.518V6.706C19.856 3.003 16.957 0 13.381 0 9.805 0 6.906 3.003 6.906 6.706l.008.278c0 2.286.61 4.424 1.67 6.25.286.366.723.6 1.212.6 0 0 3.496 3.389 5.698 3.389"/>
        <path fill="#FFF" d="M14.099 4.838c.814 0 1.463.205 1.948.614.484.41.726 1.016.726 1.82 0 .443-.1.832-.297 1.166a2.093 2.093 0 0 1-.837.789c-.36.191-.77.29-1.232.298v.8h-2.289V7.937h.924c.44 0 .774-.051 1.002-.153.227-.1.34-.268.34-.5a.43.43 0 0 0-.104-.305.351.351 0 0 0-.27-.113c-.139 0-.243.047-.313.141a.599.599 0 0 0-.104.366h-2.3c-.022-.458.067-.88.27-1.267.201-.387.516-.695.946-.924.429-.23.959-.344 1.59-.344zm.385 6.32v2.39h-2.421v-2.39h2.42z"/>
    </g>
</svg>
