<svg xmlns="http://www.w3.org/2000/svg" width="115" height="165" viewBox="0 0 115 165">
    <g fill="none" fill-rule="evenodd">
        <path fill="#C2CBD3" d="M111 117.931v92.995c0 8.325-6.586 15.074-14.71 15.074H90V117l21 .931z"/>
        <path fill="#1A82FF" d="M17.588 175.736C9.2 175.93.44 173.726.44 169.117c0 0-1.988-28.627 2.486-51.824 4.474-23.198 38.277-33.81 38.277-33.81l1.23-.122C43.502 90.869 50 96.645 57.857 96.645c8.602 0 15.576-6.924 15.576-15.465l-.104-2.76 13.857-3.327s32.063-3.949 27.34 39.732c0 3.923-6.35 6.105-13.413 6.547l-.34 79.91c0 20.132-41.496 28.887-77.588 26.265-3.277-.763-5.717-3.683-5.717-7.17v-43.299l.121-1.342z"/>
        <path fill="#FFF" d="M84.13 132.014l-5.201 8.992c.207 1.067.315 2.306.315 3.712 0 7.568-3.09 13.874-8.267 16.87-2.159 1.25-3.98 1.51-5.354.791l18.02-31.156a7.902 7.902 0 0 0-1.654-1.786 6.655 6.655 0 0 0-.813-.533l.002-.003c-.037-.021-.076-.038-.113-.059-.083-.045-.163-.096-.248-.137l-.004.007c-2.616-1.293-5.98-.826-9.836 1.405-4.456 2.58-8.256 6.747-10.99 12.054-2.571 4.991-3.987 10.673-3.987 16 0 3.539.629 6.506 1.802 8.693l5.229-9.04c-.182-1.035-.275-2.223-.275-3.564 0-3.483.617-6.656 1.833-9.431 1.425-3.256 3.634-5.819 6.388-7.413 2.144-1.24 3.928-1.496 5.285-.834l-17.983 31.092a7.93 7.93 0 0 0 1.708 1.88c.129.101.262.192.395.282a6.745 6.745 0 0 0 .476.292l.06.035c.052.028.1.06.152.087l.006-.01c2.618 1.351 6.007.9 9.901-1.353 4.458-2.58 8.267-6.753 11.012-12.066C84.576 151.817 86 146.13 86 140.808c0-3.595-.652-6.6-1.87-8.794"/>
        <path fill="#C2CBD3" d="M43 43v39.435C43 91.03 50.163 98 59 98s16-6.969 16-15.565v-30.37"/>
        <path fill="#B2B2B2" d="M43 65.446V45l32 8.718v29.25c-.228.007-.451.032-.682.032-10.487 0-27.127-16.295-27.127-16.295A7.676 7.676 0 0 1 43 65.446"/>
        <path fill="#C2CBD3" d="M71.791 79C82.952 79 92 69.722 92 58.278V30.762C92 13.772 78.568 0 62 0 45.431 0 32 13.773 32 30.762l.036 1.274c0 10.484 2.826 20.291 7.74 28.665 1.32 1.681 3.345 2.757 5.614 2.757 0 0 16.195 15.542 26.401 15.542"/>
        <path fill="#0F7CE8" d="M98 113v9h.271c1.291-.12 2.552-.347 3.729-.683L98 113zM31.966 143v26.486c0 4.186-7.2 6.378-14.738 6.575L17 179.165v41.26c0 3.464 2.4 6.366 5.622 7.125 6.047.444 12.25.56 18.378.347V205.7L31.966 143z"/>
    </g>
</svg>
