<svg xmlns="http://www.w3.org/2000/svg" xmlns:xlink="http://www.w3.org/1999/xlink" width="181" height="142" viewBox="0 0 181 142">
    <defs>
        <path id="a" d="M0 .037h166.932V96H0z"/>
        <path id="c" d="M0 .111h166.932v95.71H0z"/>
    </defs>
    <g fill="none" fill-rule="evenodd">
        <g transform="translate(0 46)">
            <mask id="b" fill="#fff">
                <use xlink:href="#a"/>
            </mask>
            <path fill="#111D28" d="M5.554 58.69c-7.405 4.256-7.405 11.222 0 15.479l32.422 18.638c7.405 4.257 19.523 4.257 26.928 0l96.474-55.46c7.405-4.256 7.405-11.222 0-15.48L128.956 3.23c-7.405-4.258-19.523-4.258-26.928 0L5.554 58.69z" mask="url(#b)"/>
        </g>
        <path fill="#3E9FFF" d="M1.265 70.891c.018.028.031.057.05.085-.018-.028-.032-.057-.05-.085M.7 69.904l.01.023-.01-.023m1.285 1.935c.043.05.076.101.12.15-.044-.049-.077-.1-.12-.15m161.863-35.927c-.157.137-.34.267-.508.401.169-.134.35-.264.508-.4M164.519 35.26c.086-.088.184-.172.266-.261-.081.089-.18.173-.266.261m1.034-1.208c-.032.045-.073.088-.107.134.034-.046.075-.09.107-.134m.605-.976l-.023.038.023-.038M4.22 73.869c-.094-.068-.173-.14-.265-.21.092.07.17.142.265.21m-1.147-.913c-.073-.064-.132-.133-.203-.2.071.066.13.136.203.2m-3.07-5.804v22.811c-.104 2.905 1.732 5.829 5.538 8.033l32.441 18.786C41.69 118.927 46.574 120 51.46 120c4.882 0 9.764-1.073 13.468-3.218l96.53-55.899c3.61-2.09 5.448-4.83 5.54-7.586V30.023c.097-2.9-1.74-5.819-5.54-8.019l-32.44-18.786c-7.41-4.29-19.535-4.29-26.944 0L5.543 59.117C1.734 61.32-.1 64.247.003 67.152"/>
        <path fill="#1A82FF" d="M52 95.977c4.86 0 9.719-1.062 13.405-3.183l96.081-55.29c3.595-2.068 5.423-4.778 5.514-7.504v23.023c-.09 2.726-1.92 5.436-5.514 7.504l-96.08 55.29C61.718 117.938 56.858 119 52 119V95.977z"/>
        <g>
            <mask id="d" fill="#fff">
                <use xlink:href="#c"/>
            </mask>
            <path fill="#40A0FF" d="M5.554 58.608c-7.405 4.246-7.405 11.193 0 15.44l32.422 18.588c7.405 4.246 19.523 4.246 26.928 0l96.474-55.313c7.405-4.245 7.405-11.193 0-15.439L128.956 3.295c-7.405-4.245-19.523-4.245-26.928 0L5.554 58.608z" mask="url(#d)"/>
        </g>
        <path fill="#FFF" d="M60.835 66.298c-1.002-.572-2.119-.83-3.35-.775-1.23.055-2.456.43-3.677 1.127l-4.817 2.746 6.29 3.587 4.858-2.77c2.521-1.437 2.753-2.742.696-3.915zm-16.592.391l4.459-2.542c2.362-1.347 2.541-2.592.536-3.735-2.004-1.142-4.215-1.025-6.63.352l-4.38 2.497 6.015 3.428zm18.703-5.43c2.236.14 4.17.675 5.806 1.608 2.4 1.368 3.47 2.894 3.21 4.576-.261 1.683-1.891 3.38-4.89 5.089L53.972 80 26 64.052l12.78-7.287c2.867-1.634 5.703-2.544 8.509-2.73 2.806-.186 5.356.375 7.65 1.683 1.689.963 2.642 2.02 2.86 3.174.22 1.154-.23 2.245-1.347 3.272a16.218 16.218 0 0 1 6.494-.905zM64.058 49.197l5.792 3.347 9.413-5.44 5.049 2.918-9.413 5.438 6.145 3.55 10.594-6.12L97 55.988 79.67 66 52 50.012 69.33 40l5.322 3.075zM92.856 27l5.332 3.041-7.574 4.32L113 47.13 106.214 51 83.828 38.232l-7.496 4.275L71 39.466zM124.97 28.17l-13.81-3.84 6.753 7.829 7.058-3.99zm6.907 1.92l-10.567 5.972 3.357 3.881L117.49 44 100 22.44l7.855-4.44L146 27.885l-7.257 4.102-6.866-1.897z"/>
        <g>
            <path fill="#FFF" d="M139.5 52L98 127h83z"/>
            <path fill="#F4C110" d="M140.102 114.704c-1.993 0-3.61-1.596-3.61-3.556 0-1.963 1.617-3.555 3.61-3.555 1.993 0 3.61 1.592 3.61 3.555 0 1.96-1.617 3.556-3.61 3.556zm-3.61-13.037h6.016V81.519h-6.016v20.148zM139.5 59L104 123h71l-35.5-64z"/>
        </g>
    </g>
</svg>
