<svg xmlns="http://www.w3.org/2000/svg" width="45" height="22" viewBox="0 0 45 22">
    <g fill="none" fill-rule="evenodd">
        <path fill="#1A82FF" d="M2 0h41a2 2 0 0 1 2 2v17.6a2 2 0 0 1-2 2H2a2 2 0 0 1-2-2V2a2 2 0 0 1 2-2z"/>
        <path fill="#FFF" d="M5.53 16.2V5.71h3.859c.725 0 1.341.067 1.85.201.509.135.924.324 1.246.569.321.245.555.542.702.893.146.35.22.741.22 1.173a2.3 2.3 0 0 1-.101.68 2.003 2.003 0 0 1-.317.616 2.366 2.366 0 0 1-.555.522 3.574 3.574 0 0 1-.813.407c.691.168 1.202.44 1.533.817.332.377.497.86.497 1.451a3 3 0 0 1-.259 1.246 2.852 2.852 0 0 1-.76 1.004 3.602 3.602 0 0 1-1.234.67c-.49.16-1.05.241-1.678.241H5.53zm2.433-4.45v2.614h1.714c.321 0 .584-.04.788-.122.204-.082.364-.188.479-.317.115-.13.194-.276.238-.44.043-.163.064-.328.064-.496 0-.192-.025-.365-.075-.519a.857.857 0 0 0-.26-.388 1.267 1.267 0 0 0-.485-.245 2.832 2.832 0 0 0-.764-.087H7.963zm0-1.627H9.23c.27 0 .512-.019.728-.057.216-.039.4-.106.55-.202a.925.925 0 0 0 .346-.396c.08-.168.119-.38.119-.634 0-.25-.031-.457-.094-.622a.892.892 0 0 0-.288-.4 1.21 1.21 0 0 0-.493-.216 3.386 3.386 0 0 0-.71-.065H7.964v2.592zM21.73 5.71v1.872h-4.306v2.448h3.298v1.8h-3.298v2.498h4.306V16.2h-6.754V5.71h6.754zm9 0v1.93h-2.952v8.56h-2.434V7.64h-2.952V5.71h8.338zm9.619 10.49h-1.887a.872.872 0 0 1-.522-.148.762.762 0 0 1-.284-.378l-.62-1.828h-3.988l-.62 1.828a.81.81 0 0 1-.28.364.809.809 0 0 1-.511.162h-1.901l4.06-10.49h2.492l4.06 10.49zm-6.74-4.01h2.866l-.965-2.873-.22-.645a16.384 16.384 0 0 1-.248-.802 14.31 14.31 0 0 1-.237.813c-.082.25-.159.466-.23.648l-.965 2.859z"/>
    </g>
</svg>
