<svg xmlns="http://www.w3.org/2000/svg" xmlns:xlink="http://www.w3.org/1999/xlink" width="479" height="262" viewBox="0 0 479 262">
    <defs>
        <path id="a" d="M0 .02h82.606v47.485H0z"/>
        <path id="c" d="M0 .017h70.663v40.56H0z"/>
        <path id="e" d="M0 .15h70.663v40.56H0z"/>
        <linearGradient id="g" x1="102.623%" x2="40.753%" y1="14.361%" y2="85.042%">
            <stop offset="0%" stop-color="#F7F9FA" stop-opacity="0"/>
            <stop offset="100%" stop-color="#DADFE3"/>
        </linearGradient>
        <path id="h" d="M0 .177h82.606v47.485H0z"/>
        <path id="j" d="M0 .026h106.492V61.36H0z"/>
        <path id="l" d="M0 .228h106.492v61.335H0z"/>
    </defs>
    <g fill="none" fill-rule="evenodd">
        <g transform="translate(0 222)">
            <mask id="b" fill="#fff">
                <use xlink:href="#a"/>
            </mask>
            <path fill="#DFE6EA" d="M80.613 13.323c2.657 1.527 2.657 4.027 0 5.555l-34.34 19.74c-2.658 1.527-7.006 1.527-9.663 0l-34.617-19.9c-2.657-1.527-2.657-4.026 0-5.554l34.34-19.74c2.658-1.528 7.006-1.528 9.663 0l34.617 19.899z" mask="url(#b)"/>
        </g>
        <path fill="#C2CBD3" d="M42 206.869c-1.774 0-3.55-.384-4.896-1.152l-35.09-20.002C.7 184.967.034 183.985 0 183v49.132c.033.986.7 1.966 2.014 2.714l35.09 20.003C38.451 255.616 40.226 256 42 256v-49.131z"/>
        <path fill="#98A7B4" d="M42 206.869c1.787 0 3.575-.384 4.93-1.152l35.042-19.842c1.393-.79 2.065-1.835 2.026-2.875v49.132c.039 1.04-.633 2.085-2.026 2.874L46.93 254.849C45.575 255.617 43.787 256 42 256v-49.131z"/>
        <path fill="#F4F7F9" d="M81.973 180.577c2.703 1.553 2.703 4.095 0 5.648l-34.92 20.073c-2.702 1.553-7.123 1.553-9.825 0L2.027 186.063c-2.702-1.554-2.702-4.095 0-5.648l34.92-20.073c2.702-1.554 7.123-1.554 9.825 0l35.201 20.235z"/>
        <g>
            <g transform="translate(339 54)">
                <mask id="d" fill="#fff">
                    <use xlink:href="#c"/>
                </mask>
                <path fill="#DFE6EA" d="M68.958 11.38c2.273 1.305 2.273 3.44 0 4.745l-29.376 16.86c-2.273 1.306-5.992 1.306-8.265 0L1.705 15.989c-2.273-1.304-2.273-3.439 0-4.744L31.08-5.617c2.272-1.305 5.992-1.305 8.265 0L68.958 11.38z" mask="url(#d)"/>
            </g>
            <path fill="#C2CBD3" d="M374 41.272c-1.479 0-2.958-.326-4.08-.978l-29.242-16.988c-1.094-.636-1.65-1.469-1.678-2.306v41.728c.028.838.584 1.67 1.678 2.306l29.242 16.988c1.122.652 2.601.978 4.08.978V41.272z"/>
            <path fill="#98A7B4" d="M374 41.272c1.49 0 2.979-.325 4.11-.978l29.2-16.853c1.16-.67 1.72-1.558 1.689-2.441v41.728c.032.883-.529 1.771-1.69 2.441l-29.2 16.853c-1.13.653-2.62.978-4.109.978V41.272z"/>
            <g transform="translate(339)">
                <mask id="f" fill="#fff">
                    <use xlink:href="#e"/>
                </mask>
                <path fill="#F4F7F9" d="M68.958 18.127c2.273 1.304 2.273 3.44 0 4.744L39.582 39.732c-2.273 1.305-5.992 1.305-8.265 0L1.705 22.735c-2.273-1.305-2.273-3.44 0-4.744L31.08 1.129c2.272-1.304 5.992-1.304 8.265 0l29.612 16.998z" mask="url(#f)"/>
            </g>
            <g>
                <path fill="url(#g)" d="M115.52 21.96c2.658 1.528 2.658 4.027 0 5.555L46.272 68.617c-2.657 1.528-7.005 1.528-9.662 0L1.993 48.718c-2.657-1.527-2.657-4.026 0-5.554L71.241 2.061c2.657-1.528 7.005-1.528 9.662 0L115.52 21.96z" transform="translate(266 88)"/>
                <path fill="#C2CBD3" d="M308 102.869c-1.774 0-3.55-.384-4.896-1.152l-35.09-20.002c-1.313-.748-1.98-1.73-2.014-2.715v49.132c.033.986.7 1.966 2.014 2.714l35.09 20.003c1.347.767 3.122 1.151 4.896 1.151v-49.131z"/>
                <path fill="#98A7B4" d="M308 102.869c1.787 0 3.575-.384 4.93-1.152l35.042-19.842c1.393-.79 2.065-1.835 2.026-2.875v49.132c.039 1.04-.633 2.085-2.026 2.874l-35.041 19.843c-1.356.768-3.144 1.151-4.931 1.151v-49.131z"/>
                <g transform="translate(266 55)">
                    <mask id="i" fill="#fff">
                        <use xlink:href="#h"/>
                    </mask>
                    <path fill="#F4F7F9" d="M80.613 21.221c2.657 1.528 2.657 4.027 0 5.555l-34.34 19.74c-2.658 1.527-7.006 1.527-9.663 0l-34.617-19.9c-2.657-1.527-2.657-4.026 0-5.553l34.34-19.74c2.658-1.528 7.006-1.528 9.663 0L80.613 21.22z" mask="url(#i)"/>
                </g>
            </g>
            <g>
                <path fill="url(#g)" d="M138.83 27.846c3.426 1.973 3.426 5.201 0 7.175L59.652 81.88c-3.425 1.973-9.03 1.973-12.456 0L2.569 56.178c-3.425-1.973-3.425-5.201 0-7.174L81.747 2.143c3.425-1.973 9.031-1.973 12.456 0l44.627 25.703z" transform="translate(337 99)"/>
                <path fill="#C2CBD3" d="M390 111.735c-2.24 0-4.479-.494-6.178-1.482l-44.28-25.757c-1.658-.963-2.5-2.227-2.542-3.496v63.265c.042 1.27.884 2.532 2.541 3.496l44.28 25.757c1.7.988 3.94 1.482 6.179 1.482v-63.265z"/>
                <path fill="#98A7B4" d="M390 111.735c2.255 0 4.511-.494 6.222-1.482L440.441 84.7c1.757-1.015 2.606-2.362 2.557-3.701v63.265c.049 1.339-.8 2.685-2.557 3.701l-44.219 25.552c-1.71.989-3.967 1.483-6.222 1.482v-63.265z"/>
                <path fill="#F4F7F9" d="M440.923 77.411c3.426 1.973 3.426 5.202 0 7.175l-44.27 25.497c-3.426 1.973-9.031 1.973-12.457 0L339.569 84.38c-3.425-1.973-3.425-5.201 0-7.174l44.27-25.498c3.426-1.973 9.032-1.973 12.457 0l44.627 25.703z"/>
            </g>
        </g>
        <g>
            <g transform="translate(112 186)">
                <mask id="k" fill="#fff">
                    <use xlink:href="#j"/>
                </mask>
                <path fill="#DFE6EA" d="M103.923 17.209c3.426 1.973 3.426 5.201 0 7.174l-44.27 25.498c-3.426 1.973-9.031 1.973-12.457 0L2.569 24.178c-3.425-1.973-3.425-5.201 0-7.174L46.84-8.494c3.426-1.974 9.032-1.974 12.457 0l44.627 25.703z" mask="url(#k)"/>
            </g>
            <path fill="#C2CBD3" d="M165 166.735c-2.24 0-4.479-.494-6.178-1.482l-44.28-25.757c-1.658-.963-2.5-2.227-2.542-3.496v63.265c.042 1.27.884 2.532 2.541 3.496l44.28 25.757c1.7.988 3.94 1.482 6.179 1.482v-63.265z"/>
            <path fill="#98A7B4" d="M165 166.735c2.255 0 4.511-.494 6.222-1.482l44.219-25.552c1.757-1.015 2.606-2.362 2.557-3.701v63.265c.049 1.339-.8 2.685-2.557 3.701l-44.219 25.552c-1.71.989-3.967 1.483-6.222 1.482v-63.265z"/>
            <g transform="translate(112 105)">
                <mask id="m" fill="#fff">
                    <use xlink:href="#l"/>
                </mask>
                <path fill="#F4F7F9" d="M103.923 27.411c3.426 1.973 3.426 5.202 0 7.175l-44.27 25.497c-3.426 1.973-9.031 1.973-12.457 0L2.569 34.38c-3.425-1.973-3.425-5.201 0-7.174L46.84 1.708c3.426-1.973 9.032-1.973 12.457 0l44.627 25.703z" mask="url(#m)"/>
            </g>
        </g>
    </g>
</svg>
