<svg xmlns="http://www.w3.org/2000/svg" width="40" height="40" viewBox="0 0 40 40">
    <g fill="none" fill-rule="evenodd">
        <circle cx="20" cy="20" r="20" fill="#FFF"/>
        <path fill="#111D28" d="M19.618 19.97c-.555.45-1.282.448-1.625-.005-.342-.453-.17-1.185.384-1.635.555-.449 1.282-.446 1.624.006.343.452.17 1.184-.383 1.634zM20 16.79c-1.968 0-3.509 1.547-3.509 3.524 0 2.003 1.574 3.633 3.509 3.633 1.935 0 3.509-1.63 3.509-3.633 0-1.977-1.541-3.525-3.509-3.525zm8.772 2.684h-3.578c.51 3.359-2.028 6.263-5.194 6.263-3.168 0-5.703-2.906-5.194-6.263h-3.578V15h4.447l1.755-2.684h5.14L24.323 15h4.448v4.474zm-3.509-6.263l-1.754-2.685H16.49l-1.754 2.685H9.474v15.21h21.052v-15.21h-5.263z"/>
    </g>
</svg>
