<svg xmlns="http://www.w3.org/2000/svg" width="26" height="27" viewBox="0 0 26 27">
    <path fill="#3AB03E" fill-rule="evenodd" d="M13.159 23.224c-5.442 0-9.87-4.465-9.87-9.953 0-5.489 4.428-9.952 9.87-9.952 4.44 0 8.205 2.972 9.44 7.048h3.4C24.689 4.435 19.437 0 13.16 0 5.89 0 0 5.941 0 13.27c0 7.33 5.891 13.272 13.159 13.272 6.277 0 11.529-4.435 12.841-10.368h-3.401c-1.236 4.077-5 7.05-9.44 7.05m1.353-8.92a3.113 3.113 0 0 0 1.73-2.796c0-1.717-1.381-3.109-3.084-3.109-1.702 0-3.084 1.392-3.084 3.11a3.111 3.111 0 0 0 1.732 2.795v3.84h2.706v-3.84"/>
</svg>
