<svg xmlns="http://www.w3.org/2000/svg" width="73" height="61" viewBox="0 0 73 61">
    <path fill="#EBF0F3" fill-rule="evenodd" d="M35.102 31.838c-1.879 1.555-4.343 1.55-5.506-.018-1.16-1.568-.576-4.102 1.303-5.66 1.878-1.555 4.343-1.546 5.503.022 1.162 1.564.58 4.098-1.3 5.656zM36 21c-6.729 0-12 5.19-12 11.817C24 39.534 29.382 45 36 45s12-5.466 12-12.183C48 26.19 42.729 21 36 21zm31 9.533H54.56C56.33 42.046 47.506 52 36.5 52c-11.017 0-19.828-9.96-18.06-21.467H6V15.2h15.464l6.1-9.2h17.87l6.1 9.2H67v15.333zM54.75 9.15L48.667 0H24.333L18.25 9.15H0V61h73V9.15H54.75z"/>
</svg>
