<?xml version="1.0" encoding="UTF-8"?>
<svg width="19px" height="20px" viewBox="0 0 19 20" version="1.1" xmlns="http://www.w3.org/2000/svg" xmlns:xlink="http://www.w3.org/1999/xlink">
    <!-- Generator: Sketch 49.3 (51167) - http://www.bohemiancoding.com/sketch -->
    <title>Untitled</title>
    <desc>Created with Sketch.</desc>
    <defs></defs>
    <g id="Page-1" stroke="none" stroke-width="1" fill="none" fill-rule="evenodd">
        <path d="M8.275,0.39 C8.97866457,-0.130081566 9.93933543,-0.130081566 10.643,0.39 C12.331,1.636 11.967,1.516 14.06,1.51 C14.9358775,1.5096613 15.7107128,2.07763097 15.974,2.913 C16.614,4.921 16.39,4.611 18.085,5.845 C18.7945529,6.36396554 19.0899285,7.28035618 18.817,8.116 C18.167,10.116 18.163,9.732 18.817,11.74 C19.0907667,12.5753434 18.7951912,13.4919505 18.085,14.01 C16.39,15.244 16.615,14.934 15.974,16.943 C15.7112616,17.7787622 14.9360873,18.3469804 14.06,18.346 C11.966,18.339 12.33,18.22 10.643,19.466 C9.938,19.986 8.981,19.986 8.275,19.466 C6.587,18.221 6.95,18.339 4.859,18.346 C3.98275349,18.3467756 3.20739789,17.7787213 2.944,16.943 C2.304,14.933 2.525,15.243 0.832,14.01 C0.12298083,13.4911025 -0.171986756,12.5751293 0.101,11.74 C0.753,9.74 0.755,10.124 0.101,8.116 C-0.1728366,7.28049083 0.121749944,6.36364066 0.831,5.844 C2.523,4.612 2.304,4.925 2.943,2.912 C3.20620439,2.07628087 3.98181474,1.50844498 4.858,1.51 C6.945,1.517 6.577,1.643 8.275,0.39" id="Shape" fill="#26D198" fill-rule="nonzero"></path>
        <path d="M5,13.75 L14,13.75 L14,7 L5,7 L5,13.75 Z M5.93083333,7.75 L13.0688333,7.75 L9.5,10.6423333 L5.93083333,7.75 Z M13.25,8.56866667 L13.25,13 L5.75,13 L5.75,8.56866667 L9.5,11.6076667 L13.25,8.56866667 Z" id="Shape" fill="#111D28"></path>
    </g>
</svg>