<?xml version="1.0" encoding="UTF-8"?>
<svg width="19px" height="20px" viewBox="0 0 19 20" version="1.1" xmlns="http://www.w3.org/2000/svg" xmlns:xlink="http://www.w3.org/1999/xlink">
    <!-- Generator: Sketch 49.3 (51167) - http://www.bohemiancoding.com/sketch -->
    <title>Untitled</title>
    <desc>Created with Sketch.</desc>
    <defs></defs>
    <g id="Page-1" stroke="none" stroke-width="1" fill="none" fill-rule="evenodd">
        <path d="M8.275,0.39 C8.97866457,-0.130081566 9.93933543,-0.130081566 10.643,0.39 C12.331,1.636 11.967,1.516 14.06,1.51 C14.9358775,1.5096613 15.7107128,2.07763097 15.974,2.913 C16.614,4.921 16.39,4.611 18.085,5.845 C18.7945529,6.36396554 19.0899285,7.28035618 18.817,8.116 C18.167,10.116 18.163,9.732 18.817,11.74 C19.0907667,12.5753434 18.7951912,13.4919505 18.085,14.01 C16.39,15.244 16.615,14.934 15.974,16.943 C15.7112616,17.7787622 14.9360873,18.3469804 14.06,18.346 C11.966,18.339 12.33,18.22 10.643,19.466 C9.938,19.986 8.981,19.986 8.275,19.466 C6.587,18.221 6.95,18.339 4.859,18.346 C3.98275349,18.3467756 3.20739789,17.7787213 2.944,16.943 C2.304,14.933 2.525,15.243 0.832,14.01 C0.12298083,13.4911025 -0.171986756,12.5751293 0.101,11.74 C0.753,9.74 0.755,10.124 0.101,8.116 C-0.1728366,7.28049083 0.121749944,6.36364066 0.831,5.844 C2.523,4.612 2.304,4.925 2.943,2.912 C3.20620439,2.07628087 3.98181474,1.50844498 4.858,1.51 C6.945,1.517 6.577,1.643 8.275,0.39" id="Shape" fill="#26D198" fill-rule="nonzero"></path>
        <path d="M10.5075201,15.4056431 L10.5075201,10.6592023 L12.1008212,10.6592023 L12.3390907,8.80908624 L10.5075201,8.80908624 L10.5075201,7.62862429 C10.5075201,7.09322352 10.6562874,6.72795762 11.4243133,6.72795762 L12.404,6.72795762 L12.404,5.07256938 C12.2346714,5.0503954 11.6525037,5 10.9768021,5 C9.56411817,5 8.59692957,5.861963 8.59692957,7.44518502 L8.59692957,8.80948941 L7,8.80948941 L7,10.6592023 L8.59733274,10.6592023 L8.59733274,15.4056431 L10.5075201,15.4056431 Z" id="Shape" fill="#111D28"></path>
    </g>
</svg>