<svg xmlns="http://www.w3.org/2000/svg" width="26" height="26" viewBox="0 0 26 26">
    <path fill="#000" fill-rule="evenodd" d="M12.965 0C5.805 0 0 5.805 0 12.965c0 5.73 3.714 10.588 8.867 12.302.648.119.884-.282.884-.624 0-.309-.011-1.33-.018-2.413-3.605.783-4.367-1.529-4.367-1.529-.59-1.497-1.44-1.896-1.44-1.896-1.178-.804.09-.788.09-.788 1.302.09 1.987 1.336 1.987 1.336 1.157 1.981 3.036 1.408 3.773 1.076.118-.836.453-1.409.823-1.732-2.878-.327-5.906-1.44-5.906-6.408 0-1.416.506-2.571 1.334-3.48-.132-.329-.579-1.648.128-3.432 0 0 1.087-.348 3.565 1.33a12.336 12.336 0 0 1 3.245-.437 12.38 12.38 0 0 1 3.246.438c2.473-1.68 3.562-1.33 3.562-1.33.71 1.787.263 3.104.13 3.432.831.908 1.333 2.063 1.333 3.48 0 4.98-3.033 6.077-5.92 6.398.466.402.88 1.19.88 2.4 0 1.732-.018 3.13-.018 3.557 0 .345.235.749.893.622 5.148-1.717 8.859-6.576 8.859-12.302C25.93 5.805 20.125 0 12.965 0" opacity=".3"/>
</svg>
