<svg xmlns="http://www.w3.org/2000/svg" xmlns:xlink="http://www.w3.org/1999/xlink" width="80" height="84" viewBox="0 0 80 84">
    <defs>
        <path id="a" d="M34.81 1.64a8.38 8.38 0 0 1 9.958 0C51.87 6.88 50.34 6.38 59.14 6.35c3.674-.01 6.931 2.377 8.052 5.903 2.692 8.446 1.75 7.14 8.881 12.333 2.981 2.168 4.226 6.031 3.081 9.553-2.74 8.412-2.753 6.797 0 15.243 1.149 3.518-.097 7.385-3.08 9.55-7.132 5.192-6.187 3.887-8.882 12.337-1.12 3.528-4.381 5.916-8.052 5.902-8.805-.028-7.273-.53-14.373 4.712a8.38 8.38 0 0 1-9.957 0c-7.104-5.238-5.576-4.743-14.374-4.712-3.674.01-6.931-2.377-8.052-5.902-2.691-8.457-1.763-7.152-8.884-12.337-2.978-2.165-4.223-6.028-3.078-9.55 2.743-8.411 2.753-6.797 0-15.243-1.149-3.525.097-7.388 3.074-9.556 7.114-5.182 6.193-3.867 8.884-12.334 1.122-3.529 4.382-5.916 8.053-5.902 8.78.028 7.231.56 14.377-4.709"/>
    </defs>
    <g fill="none" fill-rule="evenodd">
        <mask id="b" fill="#fff">
            <use xlink:href="#a"/>
        </mask>
        <use fill="#26D198" xlink:href="#a"/>
        <path fill="#111D28" d="M69.498 144.697v-55.93l-.356-.015c1.077-.621 1.74-1.425 1.74-2.412 2.814-26.306-16.298-23.928-16.298-23.928l-8.198 1.989v-1.503c6.472-.21 11.655-5.535 11.655-12.078V34.77c0-9.91-8.009-17.944-17.888-17.944-9.88 0-17.889 8.034-17.889 17.944l.022.743a32.405 32.405 0 0 0 4.615 16.72c.261.326.572.608.916.846V66.078c0 .466.094 1.333.092 1.314l-.734.073S7.026 73.855 4.36 87.826c-2.667 13.97-1.481 31.21-1.481 31.21 0 1.332 1.206 2.33 3.012 2.996v27.44l63.608-4.775z" mask="url(#b)"/>
        <path fill="#FFF" d="M41.528 30.18c2.247 0 4.04.564 5.376 1.694 1.336 1.13 2.004 2.804 2.004 5.022 0 1.223-.273 2.296-.82 3.218-.547.923-1.316 1.648-2.308 2.177-.992.529-2.126.803-3.402.824v2.208h-6.317V38.73h2.55c1.216 0 2.137-.14 2.765-.42.627-.28.941-.741.941-1.384 0-.352-.096-.632-.288-.84a.97.97 0 0 0-.744-.31c-.385 0-.674.13-.866.388-.192.26-.288.596-.288 1.01h-6.348c-.061-1.264.187-2.43.744-3.497.557-1.068 1.427-1.918 2.612-2.55 1.184-.632 2.647-.949 4.389-.949zm1.063 17.444v6.592h-6.682v-6.592h6.682z" mask="url(#b)"/>
    </g>
</svg>
