<svg xmlns="http://www.w3.org/2000/svg" width="21" height="21" viewBox="0 0 21 21">
    <path fill="#2E3F53" fill-rule="evenodd" d="M12.87 6.86c-.465.397-1.155.388-1.54-.019-.386-.406-.322-1.057.143-1.453.465-.396 1.155-.387 1.54.02.385.407.322 1.057-.143 1.453m-4.149 7.148c.494-1.566 1.428-3.44 1.594-3.915.238-.689-.185-.994-1.523.183l-.297-.56c1.526-1.66 4.668-2.036 3.598.536-.667 1.606-1.145 2.69-1.418 3.526-.398 1.22.607.725 1.592-.184.134.218.177.29.311.541-2.186 2.081-4.612 2.265-3.857-.127M10.5-.001C4.701 0 0 4.702 0 10.5 0 16.3 4.701 21 10.5 21S21 16.3 21 10.5C21 4.702 16.299 0 10.5 0"/>
</svg>
