<svg xmlns="http://www.w3.org/2000/svg" xmlns:xlink="http://www.w3.org/1999/xlink" width="103" height="133" viewBox="0 0 103 133">
    <defs>
        <path id="a" d="M.058.001h46.328v125.815H.058z"/>
        <path id="c" d="M0 .003h49.918V28.67H0z"/>
    </defs>
    <g fill="none" fill-rule="evenodd">
        <g transform="translate(2.632)">
            <mask id="b" fill="#fff">
                <use xlink:href="#a"/>
            </mask>
            <path fill="#F0F5F7" d="M40.674 125.816l4.093-2.319c.98-.543 1.585-1.715 1.585-3.382l.034.02V28.516c0-3.333-2.422-7.432-5.416-9.128L8.036.733c-1.524-.864-2.9-.936-3.884-.36L.058 2.694l40.616 123.123z" mask="url(#b)"/>
        </g>
        <g transform="translate(0 103.387)">
            <mask id="d" fill="#fff">
                <use xlink:href="#c"/>
            </mask>
            <path fill="#111D28" d="M49.313 25.902l-4.216 2.42c-.896.516-2.462.451-3.497-.144L.856 4.78C-.179 4.186-.29 3.287.606 2.772L4.82.35c.896-.515 2.462-.45 3.497.144l40.744 23.398c1.035.595 1.147 1.494.25 2.009" mask="url(#d)" opacity=".1"/>
        </g>
        <path fill="#FFF" d="M45.58 121.397c0 1.66-.607 2.827-1.589 3.369-.981.54-2.338.456-3.838-.389l-32.97-18.566c-3.001-1.69-5.429-5.773-5.429-9.093V5.448c0-1.63.585-2.785 1.535-3.339.986-.575 2.365-.503 3.893.358l33.004 18.585c3 1.69 5.428 5.773 5.428 9.093v91.27l-.034-.018z"/>
        <path fill="#1A82FF" d="M4.386 15.638l36.842 21.45v75.855L4.386 91.493z"/>
        <path fill="#FFF" d="M32.844 62.643l-3.802 2.161c.151.95.23 1.941.23 2.964 0 5.502-2.26 7.487-6.043 5.309-1.578-.909-2.91-2.253-3.914-3.931l13.172-7.489a26.273 26.273 0 0 0-1.208-2.69c-.19-.366-.39-.72-.595-1.072h.002c-.027-.047-.056-.091-.083-.137-.06-.103-.12-.208-.181-.31l-.003.002c-1.913-3.142-4.372-5.634-7.19-7.256-3.257-1.875-6.035-2.043-8.034-.485-1.88 1.464-2.914 4.404-2.914 8.277 0 2.574.46 5.26 1.317 7.839l3.822-2.173c-.133-.905-.2-1.847-.2-2.822 0-2.533.45-4.321 1.34-5.316 1.041-1.167 2.656-1.172 4.669-.013 1.567.902 2.871 2.218 3.863 3.84l-13.145 7.474c.361.958.778 1.897 1.248 2.804.094.182.192.36.29.538h-.001a24.723 24.723 0 0 0 .348.613l.044.076c.037.063.073.129.111.192l.004-.003c1.914 3.186 4.392 5.71 7.238 7.349 3.259 1.876 6.043 2.047 8.05.495 1.89-1.462 2.932-4.398 2.932-8.268 0-2.613-.477-5.347-1.367-7.968"/>
        <path fill="#192A32" d="M26.316 24.908c0 .24-.127.36-.318.24l-6.382-4.06c-.159-.101-.318-.403-.318-.644v-1.043c0-.241.127-.36.318-.24l6.382 4.06c.159.1.318.402.318.643v1.044zM22.368 104.72c1.696 1.078 3.07 3.689 3.07 5.831 0 2.143-1.374 3.006-3.07 1.928-1.695-1.078-3.07-3.689-3.07-5.832 0-2.142 1.375-3.005 3.07-1.927M48.246 52.076c0 .609-.393 1.35-.878 1.657-.484.307-.877.061-.877-.547v-7.088c0-.61.393-1.351.877-1.658.485-.306.878-.06.878.548v7.088z"/>
        <g>
            <path fill="#E4761B" d="M98.621 109.656l-4.009 13.555-7.87-2.153z"/>
            <path stroke="#E4761B" d="M98.621 109.656l-4.009 13.555-7.87-2.153z"/>
            <path fill="#E4761B" d="M86.742 121.058l7.59-10.4 4.289-1.002z"/>
            <path stroke="#E4761B" d="M86.742 121.058l7.59-10.4 4.289-1.002z"/>
            <path fill="#F6851B" d="M92.723 99.437l3.795-2.629 2.103 12.848-5.898-10.22zm0 0l5.898 10.22-4.288 1.001-1.61-11.221z"/>
            <path stroke="#F6851B" d="M92.723 99.437l3.795-2.629 2.103 12.848-5.898-10.22zm0 0l5.898 10.22-4.288 1.001-1.61-11.221z"/>
            <path fill="#763D16" d="M97.915 92.635l-10.023-.92 10.368-2.02-.345 2.94zm-10.023-.92l10.91-4.469-.542 2.448-10.368 2.02z"/>
            <path stroke="#763D16" d="M97.915 92.635l-10.023-.92 10.368-2.02-.345 2.94zm-10.023-.92l10.91-4.469-.542 2.448-10.368 2.02z"/>
            <path fill="#763D16" d="M97.915 92.635l.345-2.94 1.462 1.215-1.807 1.725zm2.185-4.354l-1.84 1.413.542-2.448 1.298 1.035zm-2.185 4.354l-1.397 4.173-8.626-5.093 10.023.92z"/>
            <path stroke="#763D16" d="M97.915 92.635l.345-2.94 1.462 1.215-1.807 1.725zm2.185-4.354l-1.84 1.413.542-2.448 1.298 1.035zm-2.185 4.354l-1.397 4.173-8.626-5.093 10.023.92z"/>
            <path fill="#E2761B" d="M78.281 117.756l2.727.87 5.734 2.432z"/>
            <path stroke="#E2761B" d="M78.281 117.756l2.727.87 5.734 2.432z"/>
            <path fill="#763D16" d="M96.518 96.808l-11.32-3.73 2.694-1.363 8.626 5.093zm0 0l1.397-4.173 1.199.92-2.596 3.253z"/>
            <path stroke="#763D16" d="M96.518 96.808l-11.32-3.73 2.694-1.363 8.626 5.093zm0 0l1.397-4.173 1.199.92-2.596 3.253z"/>
            <path fill="#763D16" d="M90.587 78.916l-2.695 12.799-2.694 1.364z"/>
            <path stroke="#763D16" d="M90.587 78.916l-2.695 12.799-2.694 1.364z"/>
            <path fill="#763D16" d="M98.802 87.246l-10.91 4.469 2.695-12.799z"/>
            <path stroke="#763D16" d="M98.802 87.246l-10.91 4.469 2.695-12.799z"/>
            <path fill="#763D16" d="M90.587 78.916l8.215 8.33 3.17-9.644z"/>
            <path stroke="#763D16" d="M90.587 78.916l11.386-1.314-3.171 9.644z"/>
            <path fill="#F6851B" d="M96.518 96.808l-3.795 2.629-7.525-6.358z"/>
            <path stroke="#F6851B" d="M96.518 96.808l-3.795 2.629-7.525-6.358z"/>
            <path fill="#763D16" d="M90.587 78.916l11.386-1.314-.493-9.217z"/>
            <path stroke="#763D16" d="M101.48 68.385l.493 9.217-11.386 1.314z"/>
            <path fill="#E2761B" d="M101.48 68.385L78.725 84.929l-.296-11.221z"/>
            <path stroke="#E2761B" d="M101.48 68.385L78.725 84.929l-.296-11.221z"/>
            <path fill="#F6851B" d="M61.506 72.36l16.923 1.348.296 11.221z"/>
            <path stroke="#F6851B" d="M61.506 72.36l16.923 1.348.296 11.221z"/>
            <path fill="#763D16" d="M85.198 93.079l-6.473-8.15 11.862-6.013z"/>
            <path stroke="#763D16" d="M85.198 93.079l-6.473-8.15 11.862-6.013z"/>
            <path fill="#E4761B" d="M85.198 93.079l7.525 6.358-10.565 1.166z"/>
            <path stroke="#E4761B" d="M85.198 93.079l7.525 6.358-10.565 1.166z"/>
            <path fill="#E4761B" d="M82.158 100.603L78.725 84.93l6.473 8.15z"/>
            <path stroke="#E4761B" d="M82.158 100.603L78.725 84.93l6.473 8.15z"/>
            <path fill="#763D16" d="M90.587 78.916L78.725 84.93l22.755-16.544z"/>
            <path stroke="#763D16" d="M90.587 78.916L78.725 84.93l22.755-16.544z"/>
            <path fill="#C0AD9E" d="M61.654 120.796l5.373 5.602-7.312-6.654z"/>
            <path stroke="#C0AD9E" d="M61.654 120.796l5.373 5.602-7.312-6.654z"/>
            <path fill="#CD6116" d="M86.742 121.058l2.547-9.677 5.044-.723z"/>
            <path stroke="#CD6116" d="M86.742 121.058l2.547-9.677 5.044-.723z"/>
            <path fill="#E2761B" d="M39.868 93.834l9.3-9.775-8.1 8.609z"/>
            <path stroke="#E2761B" d="M39.868 93.834l9.3-9.775-8.1 8.609z"/>
            <path fill="#F6851B" d="M78.725 84.93l-9.053-.296-8.166-12.273 17.219 12.568zm15.608 25.728l-5.044.723 3.434-11.944 1.61 11.221z"/>
            <path stroke="#F6851B" d="M78.725 84.93l-9.053-.296-8.166-12.273 17.219 12.568zm15.608 25.728l-5.044.723 3.434-11.944 1.61 11.221z"/>
            <path fill="#E4751F" d="M92.723 99.437l-3.434 11.944-.28-5.832z"/>
            <path stroke="#E4751F" d="M92.723 99.437l-3.434 11.944-.28-5.832z"/>
            <path fill="#CD6116" d="M82.158 100.603l10.565-1.166-3.713 6.112z"/>
            <path stroke="#CD6116" d="M82.158 100.603l10.565-1.166-3.713 6.112z"/>
            <path fill="#F6851B" d="M69.672 84.634l9.053.295 3.433 15.674z"/>
            <path stroke="#F6851B" d="M69.672 84.634l9.053.295 3.433 15.674z"/>
            <path fill="#E4761B" d="M69.672 84.634L61.506 72.36 45.241 62.026l24.43 22.608zM40.262 130.8l21.228-6.572-25.466-9.611 4.239 16.183z"/>
            <path stroke="#E4761B" d="M61.49 124.23L40.263 130.8l-4.24-16.183 25.467 9.611zm8.182-39.596L45.24 62.026l16.265 10.335 8.166 12.273z"/>
            <path fill="#763D16" d="M43.023 97.876l8.018-6.293 6.72 1.561z"/>
            <path stroke="#763D16" d="M43.023 97.876l8.018-6.293 6.72 1.561z"/>
            <path fill="#763D16" d="M57.76 93.144l-6.72-1.56L54.64 76.73z"/>
            <path stroke="#763D16" d="M57.76 93.144l-6.72-1.56L54.64 76.73z"/>
            <path fill="#763D16" d="M41.068 92.668l9.973-1.085-8.018 6.293z"/>
            <path stroke="#763D16" d="M41.068 92.668l9.973-1.085-8.018 6.293z"/>
            <path fill="#CD6116" d="M89.01 105.549l-4.14-2.087-2.712-2.859z"/>
            <path stroke="#CD6116" d="M89.01 105.549l-4.14-2.087-2.712-2.859z"/>
            <path fill="#763D16" d="M41.068 92.668l-.707-3.73 10.68 2.645z"/>
            <path stroke="#763D16" d="M41.068 92.668l-.707-3.73 10.68 2.645z"/>
            <path fill="#233447" d="M84.015 108.161l.854-4.699 4.14 2.087z"/>
            <path stroke="#233447" d="M84.015 108.161l.854-4.699 4.14 2.087z"/>
            <path fill="#F6851B" d="M89.289 111.381l-5.274-3.22 4.995-2.612z"/>
            <path stroke="#F6851B" d="M89.289 111.381l-5.274-3.22 4.995-2.612z"/>
            <path fill="#763D16" d="M54.639 76.731l15.033 7.903-11.912 8.51-3.121-16.413zm0 0L51.04 91.583 39.49 85.8l15.148-9.069zM51.04 91.583l-10.68-2.645-.87-3.138 11.55 5.783z"/>
            <path stroke="#763D16" d="M54.639 76.731l15.033 7.903-11.912 8.51-3.121-16.413zm0 0L51.04 91.583 39.49 85.8l15.148-9.069zM51.04 91.583l-10.68-2.645-.87-3.138 11.55 5.783z"/>
            <path fill="#E4761B" d="M74.979 100.85l-16.463-.345-.756-7.36 17.219 7.705zM57.76 93.144l11.912-8.51 5.307 16.216-17.219-7.706z"/>
            <path stroke="#E4761B" d="M74.979 100.85l-16.463-.345-.756-7.36 17.219 7.705zM57.76 93.144l11.912-8.51 5.307 16.216-17.219-7.706z"/>
            <path fill="#F6851B" d="M82.158 100.603l-7.18.247-5.306-16.216 12.486 15.97zm-39.135-2.727l14.737-4.732.756 7.36-15.493-2.628z"/>
            <path stroke="#F6851B" d="M82.158 100.603l-7.18.247-5.306-16.216 12.486 15.97zm-39.135-2.727l14.737-4.732.756 7.36-15.493-2.628z"/>
            <path fill="#CD6116" d="M84.87 103.462l-.855 4.699-1.857-7.558z"/>
            <path stroke="#CD6116" d="M84.87 103.462l-.855 4.699-1.857-7.558z"/>
            <path fill="#763D16" d="M45.24 62.026l24.432 22.608-15.033-7.903z"/>
            <path stroke="#763D16" d="M45.24 62.026l24.432 22.608-15.033-7.903z"/>
            <path fill="#E4761B" d="M36.024 114.618l20.603-.854 4.863 10.465z"/>
            <path stroke="#E4761B" d="M36.024 114.618l20.603-.854 4.863 10.465z"/>
            <path fill="#CD6116" d="M61.49 124.23l-4.863-10.466 10.12-.493z"/>
            <path stroke="#CD6116" d="M61.49 124.23l-4.863-10.466 10.12-.493z"/>
            <path fill="#F6851B" d="M77 105.877l-2.021-5.027 7.18-.247-5.16 5.274zm5.158-5.274l1.348 4.896-6.507.378 5.16-5.274zm-25.531 13.16l-20.603.855 22.492-14.113-1.89 13.259zm1.89-13.258l-22.493 14.113 6.999-16.742 15.493 2.629zm25.498 7.656l5.274 3.22 2.908 6.851-8.182-10.071z"/>
            <path stroke="#F6851B" d="M77 105.877l-2.021-5.027 7.18-.247-5.16 5.274zm5.158-5.274l1.348 4.896-6.507.378 5.16-5.274zm-25.531 13.16l-20.603.855 22.492-14.113-1.89 13.259zm1.89-13.258l-22.493 14.113 6.999-16.742 15.493 2.629zm25.498 7.656l5.274 3.22 2.908 6.851-8.182-10.071z"/>
            <path fill="#C0AD9E" d="M67.027 126.398l-5.537-2.169 19.255 3.237z"/>
            <path stroke="#C0AD9E" d="M67.027 126.398l-5.537-2.169 19.255 3.237z"/>
            <path fill="#763D16" d="M43.023 97.876l-3.155-4.042 1.2-1.166z"/>
            <path stroke="#763D16" d="M43.023 97.876l-3.155-4.042 1.2-1.166z"/>
            <path fill="#D7C1B3" d="M82.93 125.067l-2.185 2.399-19.255-3.237z"/>
            <path stroke="#D7C1B3" d="M82.93 125.067l-2.185 2.399-19.255-3.237z"/>
            <path fill="#E4761B" d="M83.966 119.185L61.49 124.23l5.257-10.958z"/>
            <path stroke="#E4761B" d="M83.966 119.185L61.49 124.23l5.257-10.958z"/>
            <path fill="#D7C1B3" d="M61.49 124.23l22.476-5.045-1.035 5.882z"/>
            <path stroke="#D7C1B3" d="M61.49 124.23l22.476-5.045-1.035 5.882z"/>
            <path fill="#763D16" d="M41.068 92.668l-2.185-2.218 1.478-1.512.707 3.73zM39.49 85.8l-.739-12.634L54.64 76.73l-15.149 9.07z"/>
            <path stroke="#763D16" d="M41.068 92.668l-2.185-2.218 1.478-1.512.707 3.73zM39.49 85.8l-.739-12.634L54.64 76.73l-15.149 9.07z"/>
            <path fill="#CD6116" d="M71.298 104.103l3.68-3.253-.525 7.952z"/>
            <path stroke="#CD6116" d="M71.298 104.103l3.68-3.253-.525 7.952z"/>
            <path fill="#CD6116" d="M74.979 100.85l-3.68 3.253-5.357 2.777z"/>
            <path stroke="#CD6116" d="M74.979 100.85l-3.68 3.253-5.357 2.777z"/>
            <path fill="#F6851B" d="M92.197 118.232l-1.002-.739-7.18-9.332z"/>
            <path stroke="#F6851B" d="M92.197 118.232l-1.002-.739-7.18-9.332z"/>
            <path fill="#CD6116" d="M65.942 106.88l-7.426-6.375 16.463.345z"/>
            <path stroke="#CD6116" d="M65.942 106.88l-7.426-6.375 16.463.345z"/>
            <path fill="#E4751F" d="M74.453 108.802l.526-7.952 2.02 5.027z"/>
            <path stroke="#E4751F" d="M74.453 108.802l.526-7.952 2.02 5.027z"/>
            <path fill="#763D16" d="M38.16 87.049l1.33-1.249.871 3.138z"/>
            <path stroke="#763D16" d="M38.16 87.049l1.33-1.249.871 3.138z"/>
            <path fill="#233447" d="M74.453 108.802l-8.51-1.922 5.355-2.777z"/>
            <path stroke="#233447" d="M74.453 108.802l-8.51-1.922 5.355-2.777z"/>
            <path fill="#763D16" d="M54.639 76.731L38.75 73.166l6.49-11.14z"/>
            <path stroke="#763D16" d="M54.639 76.731L38.75 73.166l6.49-11.14z"/>
            <path fill="#C0AD9E" d="M80.745 127.466l.904 2.464-14.622-3.532z"/>
            <path stroke="#C0AD9E" d="M80.745 127.466l.904 2.464-14.622-3.532z"/>
            <path fill="#F6851B" d="M66.747 113.27l-.805-6.39 8.51 1.922z"/>
            <path stroke="#F6851B" d="M66.747 113.27l-.805-6.39 8.51 1.922z"/>
            <path fill="#E4751F" d="M58.516 100.505l7.426 6.375.805 6.39z"/>
            <path stroke="#E4751F" d="M58.516 100.505l7.426 6.375.805 6.39z"/>
            <path fill="#F6851B" d="M58.516 100.505l8.231 12.766-10.12.493 1.89-13.26zM77 105.877l6.507-.378 7.689 11.994-14.196-11.616z"/>
            <path stroke="#F6851B" d="M58.516 100.505l8.231 12.766-10.12.493 1.89-13.26zM77 105.877l6.507-.378 7.689 11.994-14.196-11.616z"/>
            <path fill="#E4751F" d="M77 105.877l8.083 12.306-10.63-9.381z"/>
            <path stroke="#E4751F" d="M77 105.877l8.083 12.306-10.63-9.381z"/>
            <path fill="#F6851B" d="M74.453 108.802l10.63 9.381-1.117 1.002z"/>
            <path stroke="#F6851B" d="M74.453 108.802l10.63 9.381-1.117 1.002z"/>
            <path fill="#F6851B" d="M91.195 117.493l-6.112.69-8.084-12.306 14.196 11.616zm-7.23 1.692l-17.218-5.914 7.706-4.47 9.513 10.384z"/>
            <path stroke="#F6851B" d="M91.195 117.493l-6.112.69-8.084-12.306 14.196 11.616zm-7.23 1.692l-17.218-5.914 7.706-4.47 9.513 10.384z"/>
            <path fill="#C0AD9E" d="M81.65 129.93l-.905-2.464 2.186-2.399-1.282 4.863zm11.155-6.654l-2.629 5.274-8.527 1.38 11.156-6.654z"/>
            <path stroke="#C0AD9E" d="M81.65 129.93l-.905-2.464 2.186-2.399-1.282 4.863zm11.155-6.654l-2.629 5.274-8.527 1.38 11.156-6.654z"/>
            <path fill="#C0AD9E" d="M81.65 129.93l2.89-5.504 8.265-1.15-11.156 6.654zm1.28-4.863l1.61-.64-2.89 5.503 1.28-4.863z"/>
            <path stroke="#C0AD9E" d="M81.65 129.93l2.89-5.504 8.265-1.15-11.156 6.654zm1.28-4.863l1.61-.64-2.89 5.503 1.28-4.863z"/>
            <path fill="#161616" d="M91.195 117.493l2.02 1.232-6.144.74z"/>
            <path stroke="#161616" d="M91.195 117.493l2.02 1.232-6.144.74z"/>
            <path fill="#161616" d="M86.364 120.434l7.476-.904-1.035 3.746-6.44-2.842zm.707-.97l-1.988-1.28 6.112-.69-4.124 1.97z"/>
            <path stroke="#161616" d="M86.364 120.434l7.476-.904-1.035 3.746-6.44-2.842zm.707-.97l-1.988-1.28 6.112-.69-4.124 1.97z"/>
            <path fill="#161616" d="M93.216 118.725l.624.805-7.476.904 6.852-1.709zm-9.25.46l1.117-1.002 1.988 1.282-3.105-.28zm.575 5.241l-1.61.641 1.035-5.882.575 5.241zm8.264-1.15l-8.264 1.15 1.823-3.992 6.44 2.842z"/>
            <path stroke="#161616" d="M93.216 118.725l.624.805-7.476.904 6.852-1.709zm-9.25.46l1.117-1.002 1.988 1.282-3.105-.28zm.575 5.241l-1.61.641 1.035-5.882.575 5.241zm8.264-1.15l-8.264 1.15 1.823-3.992 6.44 2.842z"/>
            <path fill="#161616" d="M83.966 119.185l2.398 1.25-1.823 3.991-.575-5.24zm2.398 1.25l.707-.97 6.145-.74-6.852 1.71z"/>
            <path stroke="#161616" d="M83.966 119.185l2.398 1.25-1.823 3.991-.575-5.24zm2.398 1.25l.707-.97 6.145-.74-6.852 1.71z"/>
            <path fill="#161616" d="M87.07 119.465l-.706.97-2.398-1.25z"/>
            <path stroke="#161616" d="M87.07 119.465l-.706.97-2.398-1.25z"/>
        </g>
    </g>
</svg>
