<svg xmlns="http://www.w3.org/2000/svg" xmlns:xlink="http://www.w3.org/1999/xlink" width="124" height="125" viewBox="0 0 124 125">
    <defs>
        <path id="a" d="M.247.315H34.73v40.923H.247z"/>
        <path id="c" d="M.325.309h41.472v49.216H.325z"/>
    </defs>
    <g fill="none" fill-rule="evenodd">
        <path fill="#F4C110" d="M53.56 24.089L41.605 12.133a3.264 3.264 0 0 0-4.617 0L25.032 24.089a3.265 3.265 0 0 0 4.617 4.616l6.383-6.383v21.715a3.264 3.264 0 1 0 6.529 0V22.322l6.383 6.383a3.254 3.254 0 0 0 2.308.956 3.264 3.264 0 0 0 2.308-5.573"/>
        <path fill="#FFF" d="M90.359 22.9l-8.66-8.66a2.365 2.365 0 0 0-3.345 0l-8.66 8.66a2.365 2.365 0 0 0 3.344 3.344l4.624-4.623v15.728a2.364 2.364 0 1 0 4.73 0V21.621l4.623 4.623a2.357 2.357 0 0 0 1.671.693 2.365 2.365 0 0 0 1.672-4.037"/>
        <path stroke="#FFF" d="M90.359 22.9l-8.66-8.66a2.365 2.365 0 0 0-3.345 0l-8.66 8.66a2.365 2.365 0 0 0 3.344 3.344l4.624-4.623v15.728a2.364 2.364 0 1 0 4.73 0V21.621l4.623 4.623a2.357 2.357 0 0 0 1.671.693 2.365 2.365 0 0 0 1.672-4.037z"/>
        <path fill="#111D28" d="M31.645 96.994C21.436 91.1 16.333 83.37 16.324 75.62c-.01-7.826 5.179-15.671 15.554-21.661 20.647-11.921 54.019-11.982 74.537-.135 10.209 5.894 15.312 13.624 15.321 21.373.01 7.826-5.179 15.671-15.554 21.661-20.648 11.921-54.02 11.981-74.537.135"/>
        <path fill="#1A82FF" d="M121.736 60.552v9.23c.01 7.826-5.179 15.671-15.554 21.661-20.647 11.921-54.019 11.981-74.537.135-10.209-5.894-15.312-13.624-15.321-21.373v-9.653h105.412z"/>
        <path fill="#40A0FF" d="M31.645 82.348c-10.209-5.894-15.312-13.624-15.321-21.373-.01-7.826 5.179-15.671 15.554-21.661 20.647-11.921 54.019-11.981 74.537-.135 10.209 5.894 15.312 13.624 15.321 21.373.01 7.826-5.179 15.671-15.554 21.661-20.648 11.921-54.02 11.982-74.537.135"/>
        <path fill="#1A82FF" d="M68.7 84.902c-12.93 0-24.972-2.842-33.91-8.002-7.844-4.53-12.168-10.188-12.175-15.933-.007-5.741 4.517-11.648 12.409-16.205 9.089-5.248 21.283-8.137 34.337-8.137 12.928 0 24.971 2.842 33.91 8.003 7.844 4.529 12.168 10.187 12.174 15.93.007 5.743-4.516 11.65-12.408 16.207-9.09 5.247-21.285 8.137-34.338 8.137"/>
        <path fill="#0F7CE8" d="M35.024 46.02c9.09-5.247 21.283-8.137 34.337-8.137 12.928 0 24.972 2.842 33.91 8.002 7.557 4.365 11.835 9.777 12.144 15.304.011-.21.03-.42.03-.63-.006-5.744-4.33-11.402-12.175-15.932-8.937-5.16-20.98-8.002-33.909-8.002-13.054 0-25.248 2.89-34.337 8.138-7.893 4.556-12.415 10.462-12.41 16.204 0 .21.02.418.03.627.312-5.54 4.777-11.184 12.38-15.573"/>
        <path fill="#FFF" d="M63.307 72.83l.033-6.076a26.274 26.274 0 0 1-3.733-1.787c-6.636-3.83-7.46-7.929-2.208-10.962 2.192-1.265 4.737-1.93 7.458-1.97l-.114 21.053c1.352.215 2.717.358 4.082.42a35.38 35.38 0 0 0 1.706.031v.002c.074 0 .148-.003.223-.003.165-.002.333 0 .498-.003v-.005c5.117-.112 9.829-1.334 13.742-3.593 4.522-2.611 6.653-5.835 6.162-9.322-.462-3.28-3.288-6.571-7.959-9.268-3.103-1.791-6.662-3.11-10.366-3.873l-.033 6.109a27.133 27.133 0 0 1 3.541 1.723c3.055 1.764 4.898 3.55 5.481 5.312.684 2.066-.432 4.01-3.226 5.624-2.176 1.256-4.669 1.908-7.313 1.97l.114-21.008a36.652 36.652 0 0 0-4.249-.451c-.285-.014-.566-.02-.848-.027h-.009c-.325-.008-.65-.01-.973-.008h-.121c-.103 0-.207-.002-.31 0v.006c-5.169.084-9.933 1.305-13.885 3.587-4.525 2.612-6.664 5.84-6.186 9.334.45 3.291 3.269 6.587 7.935 9.282 3.152 1.819 6.78 3.15 10.558 3.903"/>
        <g transform="translate(89.09 31.09)">
            <mask id="b" fill="#fff">
                <use xlink:href="#a"/>
            </mask>
            <path fill="#F4C110" d="M33.648 14.942L20.103 1.397a3.698 3.698 0 0 0-5.23 0L1.33 14.942a3.698 3.698 0 0 0 5.23 5.23l7.23-7.232v24.6a3.698 3.698 0 0 0 7.397 0v-24.6l7.23 7.232a3.688 3.688 0 0 0 2.616 1.083 3.698 3.698 0 0 0 2.615-6.313" mask="url(#b)"/>
        </g>
        <g transform="translate(29.822 74.526)">
            <mask id="d" fill="#fff">
                <use xlink:href="#c"/>
            </mask>
            <path fill="#F4C110" d="M40.494 17.9L24.206 1.611a4.448 4.448 0 0 0-6.29 0L1.627 17.9a4.448 4.448 0 0 0 6.29 6.29l8.696-8.697v29.584a4.447 4.447 0 1 0 8.895 0V15.493l8.697 8.697a4.434 4.434 0 0 0 3.145 1.302 4.448 4.448 0 0 0 3.145-7.592" mask="url(#d)"/>
        </g>
        <path fill="#FFF" d="M98.877 93.25l-8.66-8.66a2.365 2.365 0 0 0-3.344 0l-8.66 8.66a2.365 2.365 0 0 0 3.343 3.345l4.624-4.624V107.7a2.365 2.365 0 1 0 4.73 0V91.97l4.622 4.624a2.359 2.359 0 0 0 1.673.693 2.365 2.365 0 0 0 1.672-4.037"/>
        <path stroke="#FFF" d="M98.877 93.25l-8.66-8.66a2.365 2.365 0 0 0-3.344 0l-8.66 8.66a2.365 2.365 0 0 0 3.343 3.345l4.624-4.624V107.7a2.365 2.365 0 1 0 4.73 0V91.97l4.622 4.624a2.359 2.359 0 0 0 1.673.693 2.365 2.365 0 0 0 1.672-4.037z"/>
        <path fill="#FFF" d="M22.56 45.675l-8.66-8.66a2.365 2.365 0 0 0-3.344 0l-8.66 8.66a2.365 2.365 0 0 0 3.343 3.344l4.624-4.624v15.729a2.364 2.364 0 1 0 4.73 0V44.395l4.623 4.624a2.359 2.359 0 0 0 1.672.692 2.365 2.365 0 0 0 1.672-4.037"/>
        <path stroke="#FFF" d="M22.56 45.675l-8.66-8.66a2.365 2.365 0 0 0-3.344 0l-8.66 8.66a2.365 2.365 0 0 0 3.343 3.344l4.624-4.624v15.729a2.364 2.364 0 1 0 4.73 0V44.395l4.623 4.624a2.359 2.359 0 0 0 1.672.692 2.365 2.365 0 0 0 1.672-4.037z"/>
        <path fill="#FFF" d="M119.987 8.499l-6.756-6.756a1.844 1.844 0 0 0-2.609 0L103.867 8.5a1.844 1.844 0 1 0 2.608 2.608l3.607-3.606v12.27a1.844 1.844 0 1 0 3.689 0V7.5l3.607 3.606c.36.36.832.54 1.304.54a1.845 1.845 0 0 0 1.304-3.149"/>
        <path stroke="#FFF" d="M119.987 8.499l-6.756-6.756a1.844 1.844 0 0 0-2.609 0L103.867 8.5a1.844 1.844 0 1 0 2.608 2.608l3.607-3.606v12.27a1.844 1.844 0 1 0 3.689 0V7.5l3.607 3.606c.36.36.832.54 1.304.54a1.845 1.845 0 0 0 1.304-3.149z"/>
    </g>
</svg>
