<?xml version="1.0" encoding="UTF-8"?>
<svg width="19px" height="20px" viewBox="0 0 19 20" version="1.1" xmlns="http://www.w3.org/2000/svg" xmlns:xlink="http://www.w3.org/1999/xlink">
    <!-- Generator: Sketch 49.3 (51167) - http://www.bohemiancoding.com/sketch -->
    <title>Untitled</title>
    <desc>Created with Sketch.</desc>
    <defs></defs>
    <g id="Page-1" stroke="none" stroke-width="1" fill="none" fill-rule="evenodd">
        <path d="M8.275,0.39 C8.97866457,-0.130081566 9.93933543,-0.130081566 10.643,0.39 C12.331,1.636 11.967,1.516 14.06,1.51 C14.9358775,1.5096613 15.7107128,2.07763097 15.974,2.913 C16.614,4.921 16.39,4.611 18.085,5.845 C18.7945529,6.36396554 19.0899285,7.28035618 18.817,8.116 C18.167,10.116 18.163,9.732 18.817,11.74 C19.0907667,12.5753434 18.7951912,13.4919505 18.085,14.01 C16.39,15.244 16.615,14.934 15.974,16.943 C15.7112616,17.7787622 14.9360873,18.3469804 14.06,18.346 C11.966,18.339 12.33,18.22 10.643,19.466 C9.938,19.986 8.981,19.986 8.275,19.466 C6.587,18.221 6.95,18.339 4.859,18.346 C3.98275349,18.3467756 3.20739789,17.7787213 2.944,16.943 C2.304,14.933 2.525,15.243 0.832,14.01 C0.12298083,13.4911025 -0.171986756,12.5751293 0.101,11.74 C0.753,9.74 0.755,10.124 0.101,8.116 C-0.1728366,7.28049083 0.121749944,6.36364066 0.831,5.844 C2.523,4.612 2.304,4.925 2.943,2.912 C3.20620439,2.07628087 3.98181474,1.50844498 4.858,1.51 C6.945,1.517 6.577,1.643 8.275,0.39" id="Shape" fill="#26D198" fill-rule="nonzero"></path>
        <g id="phone-icon-dark" transform="translate(7.000000, 6.000000)" fill="#111D28">
            <path d="M0.714307692,6.78569231 L4.28569231,6.78569231 L4.28569231,1.77707692 L0.714307692,1.77707692 L0.714307692,6.78569231 Z M2.5,7.85707692 C2.30283434,7.85711941 2.14296556,7.6973195 2.14292308,7.50015385 C2.14288059,7.30298819 2.3026805,7.14311941 2.49984615,7.14307692 C2.62738997,7.14304944 2.74525998,7.21106786 2.80905568,7.32151031 C2.87285139,7.43195275 2.87288072,7.56804038 2.80913261,7.67851031 C2.7453845,7.78898023 2.62754382,7.85704944 2.5,7.85707692 Z M1.96430769,0.714307692 L3.03569231,0.714307692 C3.13225619,0.7171426 3.20906619,0.796240663 3.20906619,0.892846154 C3.20906619,0.989451645 3.13225619,1.06854971 3.03569231,1.07138462 L1.96430769,1.07138462 C1.86774381,1.06854971 1.79093381,0.989451645 1.79093381,0.892846154 C1.79093381,0.796240663 1.86774381,0.7171426 1.96430769,0.714307692 Z M5,0.714307692 C4.99983021,0.319876799 4.6801232,0.000169793779 4.28569231,0 L0.714307692,0 C0.319876799,0.000169793779 0.000169793779,0.319876799 0,0.714307692 L0,7.85692308 C0.000169793779,8.25135397 0.319876799,8.57106098 0.714307692,8.57123077 L4.28569231,8.57123077 C4.6801232,8.57106098 4.99983021,8.25135397 5,7.85692308 L5,0.714307692 Z" id="Shape"></path>
        </g>
    </g>
</svg>