<svg xmlns="http://www.w3.org/2000/svg" width="65" height="63" viewBox="0 0 65 63">
    <g fill="none" fill-rule="evenodd" transform="translate(.49)">
        <path fill="#1A82FF" d="M24.683 1.15a5.995 5.995 0 0 1 7.06 0c5.037 3.675 3.951 3.324 10.192 3.304a5.976 5.976 0 0 1 5.71 4.14c1.908 5.924 1.24 5.009 6.296 8.65a5.958 5.958 0 0 1 2.185 6.7c-1.942 5.9-1.952 4.767 0 10.691a5.948 5.948 0 0 1-2.185 6.698c-5.056 3.641-4.386 2.726-6.297 8.652a5.972 5.972 0 0 1-5.71 4.14c-6.242-.02-5.156-.371-10.19 3.305a5.995 5.995 0 0 1-7.061 0c-5.037-3.674-3.953-3.327-10.192-3.305a5.976 5.976 0 0 1-5.71-4.14c-1.908-5.931-1.25-5.016-6.299-8.652A5.956 5.956 0 0 1 .3 34.635c1.945-5.9 1.952-4.767 0-10.69a5.958 5.958 0 0 1 2.18-6.703c5.044-3.635 4.39-2.712 6.3-8.65a5.972 5.972 0 0 1 5.709-4.14c6.226.02 5.127.393 10.194-3.302"/>
        <path fill="#FFF" d="M22.108 38.149h12.685V20.43H22.108V38.15zm6.343 3.797a1.267 1.267 0 0 1 0-2.531 1.267 1.267 0 1 1 0 2.53zm-1.903-25.312h3.805a.634.634 0 1 1 0 1.265h-3.805a.634.634 0 1 1 0-1.265zm10.782 0a2.535 2.535 0 0 0-2.537-2.532H22.108a2.535 2.535 0 0 0-2.537 2.532v25.312a2.535 2.535 0 0 0 2.537 2.53h12.685c1.4 0 2.537-1.133 2.537-2.53V16.634z"/>
        <ellipse cx="48.822" cy="47.605" fill="#FFF" stroke="#2E3F53" rx="14.591" ry="14.561"/>
        <path fill="#000" d="M57.333 47.9s-3.016 5.274-8.5 5.274c-.979 0-1.889-.206-2.732-.522l1.145-1.12a6.07 6.07 0 0 0 1.586.226c3.399 0 5.749-2.497 6.742-3.797a10.853 10.853 0 0 0-2.545-2.09l1.056-1.033c2.116 1.345 3.248 3.063 3.248 3.063zm-9.43 2.99l3.61-3.536c.722 2.202-1.42 4.295-3.61 3.535zm2.045-5.261c-2.332-1.029-4.739 1.35-3.734 3.685l-1.225 1.208c-1.286-.821-2.287-1.876-2.88-2.59 1.06-1.167 3.417-3.253 6.723-3.253a7.89 7.89 0 0 1 1.852.223l-.736.727zm4.267-4.091l-2.373 2.22a9.39 9.39 0 0 0-3.01-.494c-5.368 0-8.522 4.637-8.522 4.637s1.368 2.089 3.65 3.637l-2.064 2.059 1.002 1 12.32-12.057-1.003-1.002z"/>
    </g>
</svg>
