<?xml version="1.0" encoding="utf-8"?>
<!-- Generator: Adobe Illustrator 16.0.0, SVG Export Plug-In . SVG Version: 6.00 Build 0)  -->
<!DOCTYPE svg PUBLIC "-//W3C//DTD SVG 1.1//EN" "http://www.w3.org/Graphics/SVG/1.1/DTD/svg11.dtd">
<svg version="1.1" id="Layer_1" xmlns="http://www.w3.org/2000/svg" xmlns:xlink="http://www.w3.org/1999/xlink" x="0px" y="0px"
	 width="69px" height="63px" viewBox="0 0 69 63" enable-background="new 0 0 69 63" xml:space="preserve">
<g>
	<path fill="#1A82FF" d="M24.683,1.15c2.104-1.533,4.956-1.533,7.06,0c5.036,3.675,3.95,3.324,10.192,3.304
		c2.602-0.01,4.91,1.664,5.709,4.14c1.908,5.924,1.24,5.009,6.297,8.65c2.112,1.517,2.996,4.229,2.185,6.7
		c-1.942,5.9-1.952,4.767,0,10.691c0.814,2.471-0.07,5.184-2.185,6.698c-5.057,3.642-4.387,2.726-6.297,8.651
		c-0.799,2.477-3.108,4.152-5.711,4.141c-6.242-0.02-5.156-0.371-10.189,3.305c-2.104,1.533-4.957,1.533-7.061,0
		c-5.037-3.674-3.953-3.326-10.192-3.305c-2.602,0.01-4.911-1.664-5.71-4.141c-1.908-5.93-1.25-5.016-6.299-8.651
		c-2.111-1.517-2.995-4.229-2.182-6.698c1.945-5.9,1.952-4.767,0-10.69c-0.814-2.47,0.068-5.184,2.18-6.703
		c5.044-3.635,4.39-2.712,6.3-8.65c0.798-2.476,3.107-4.15,5.709-4.14C20.715,4.472,19.616,4.845,24.683,1.15"/>
	<ellipse fill="#FFFFFF" stroke="#2E3F53" cx="53.241" cy="47.605" rx="14.591" ry="14.561"/>
	<path d="M53.241,44.875c-1.565-0.001-2.835,1.266-2.837,2.831c0.001,1.565,1.271,2.833,2.836,2.832c0,0,0,0,0.001,0
		c1.565,0.001,2.835-1.267,2.837-2.831c0,0,0,0,0-0.001C56.076,46.141,54.807,44.874,53.241,44.875 M53.251,42.751
		c-5.368,0-8.521,4.638-8.521,4.638s3.429,5.272,8.521,5.272c5.484,0,8.5-5.272,8.5-5.272S58.709,42.751,53.251,42.751
		 M53.252,44.167c3.37,0,5.719,2.132,6.74,3.282c-0.993,1.3-3.342,3.797-6.74,3.797c-3.135,0-5.625-2.503-6.723-3.828
		C47.588,46.252,49.945,44.168,53.252,44.167"/>
</g>
<path fill="#FFFFFF" d="M40.537,33.938c-0.131-0.314-0.263-0.657-0.394-0.944c-0.212-0.472-0.42-0.918-0.604-1.338l-0.026-0.027
	c-1.81-3.932-3.75-7.919-5.795-11.854l-0.078-0.157c-0.211-0.394-0.42-0.814-0.629-1.235c-0.263-0.472-0.525-0.97-0.946-1.442
	c-0.839-1.049-2.045-1.625-3.332-1.625c-1.311,0-2.491,0.577-3.356,1.574c-0.394,0.473-0.683,0.97-0.945,1.442
	c-0.21,0.421-0.42,0.839-0.628,1.233l-0.079,0.157c-2.02,3.934-3.987,7.92-5.796,11.854l-0.027,0.053
	c-0.183,0.42-0.393,0.866-0.603,1.338c-0.13,0.289-0.262,0.603-0.392,0.943c-0.342,0.973-0.446,1.889-0.315,2.833
	c0.288,1.967,1.599,3.62,3.411,4.354c0.681,0.289,1.39,0.42,2.123,0.42c0.21,0,0.474-0.024,0.683-0.054
	c0.866-0.104,1.756-0.392,2.623-0.891c1.074-0.603,2.099-1.469,3.252-2.728c1.154,1.257,2.203,2.124,3.251,2.728
	c0.866,0.499,1.758,0.786,2.624,0.891c0.209,0.027,0.472,0.054,0.681,0.054c0.737,0,1.469-0.131,2.126-0.42
	c1.836-0.735,3.12-2.413,3.409-4.354C40.982,35.825,40.878,34.907,40.537,33.938z M28.708,35.301
	c-1.417-1.785-2.333-3.462-2.649-4.879c-0.131-0.602-0.157-1.125-0.078-1.599c0.051-0.421,0.209-0.787,0.418-1.102
	c0.5-0.708,1.337-1.154,2.308-1.154c0.97,0,1.836,0.42,2.308,1.154c0.21,0.313,0.367,0.681,0.418,1.102
	c0.08,0.474,0.053,1.021-0.078,1.599C31.041,31.813,30.124,33.49,28.708,35.301z M39.173,36.532
	c-0.185,1.363-1.102,2.545-2.387,3.068c-0.629,0.263-1.312,0.343-1.993,0.263c-0.656-0.078-1.311-0.288-1.994-0.684
	c-0.944-0.522-1.888-1.338-2.989-2.543c1.731-2.124,2.78-4.064,3.173-5.796c0.184-0.814,0.21-1.547,0.131-2.23
	c-0.106-0.655-0.342-1.257-0.709-1.783c-0.812-1.182-2.177-1.864-3.698-1.864c-1.52,0-2.885,0.708-3.698,1.864
	c-0.367,0.525-0.603,1.127-0.709,1.783c-0.104,0.683-0.079,1.444,0.131,2.23c0.393,1.731,1.469,3.697,3.174,5.822
	c-1.076,1.207-2.046,2.019-2.99,2.543c-0.683,0.395-1.337,0.604-1.994,0.682c-0.708,0.08-1.391-0.024-1.994-0.261
	c-1.286-0.525-2.203-1.706-2.386-3.068c-0.079-0.654-0.026-1.312,0.236-2.046c0.078-0.262,0.209-0.525,0.34-0.839
	c0.183-0.42,0.393-0.865,0.603-1.312l0.026-0.053c1.809-3.908,3.751-7.894,5.77-11.775l0.079-0.158
	c0.21-0.392,0.419-0.812,0.628-1.207c0.21-0.418,0.446-0.812,0.734-1.153c0.552-0.629,1.286-0.972,2.099-0.972
	c0.813,0,1.547,0.343,2.098,0.972c0.291,0.341,0.526,0.735,0.736,1.153c0.209,0.394,0.418,0.815,0.63,1.207l0.078,0.158
	c1.994,3.908,3.935,7.894,5.744,11.802v0.026c0.211,0.42,0.395,0.892,0.604,1.312c0.13,0.313,0.262,0.577,0.341,0.839
	C39.2,35.194,39.277,35.851,39.173,36.532z"/>
</svg>
