<svg xmlns="http://www.w3.org/2000/svg" width="68" height="63" viewBox="0 0 68 63">
    <g fill="none" fill-rule="evenodd" transform="translate(.377)">
        <path fill="#1A82FF" d="M24.872 1.15a5.995 5.995 0 0 1 7.06 0c5.037 3.675 3.95 3.324 10.191 3.304a5.976 5.976 0 0 1 5.71 4.14c1.908 5.924 1.24 5.009 6.297 8.65a5.958 5.958 0 0 1 2.185 6.7c-1.943 5.9-1.953 4.767 0 10.691a5.948 5.948 0 0 1-2.185 6.698c-5.057 3.641-4.386 2.726-6.297 8.652a5.972 5.972 0 0 1-5.71 4.14c-6.243-.02-5.157-.371-10.191 3.305a5.995 5.995 0 0 1-7.06 0c-5.037-3.674-3.954-3.327-10.192-3.305a5.976 5.976 0 0 1-5.71-4.14c-1.908-5.931-1.25-5.016-6.3-8.652A5.956 5.956 0 0 1 .49 34.635c1.945-5.9 1.952-4.767 0-10.69a5.958 5.958 0 0 1 2.18-6.703c5.044-3.635 4.39-2.712 6.299-8.65a5.972 5.972 0 0 1 5.71-4.14c6.226.02 5.127.393 10.194-3.302"/>
        <path fill="#FFF" d="M36.168 19.414h-2.974c-1.185 0-1.432.485-1.432 1.71v2.685h4.406l-.46 4.396h-3.946v15.384h-6.608V28.205h-4.406v-4.396h4.406v-5.072c0-3.888 2.05-5.917 6.672-5.917h4.342v6.594z"/>
        <ellipse cx="51.916" cy="47.605" fill="#FFF" stroke="#2E3F53" rx="14.591" ry="14.561"/>
        <path fill="#000" d="M60.428 47.9s-3.016 5.274-8.501 5.274c-.978 0-1.888-.206-2.732-.522l1.145-1.12a6.07 6.07 0 0 0 1.587.226c3.398 0 5.748-2.497 6.74-3.797a10.853 10.853 0 0 0-2.543-2.09l1.056-1.033c2.115 1.345 3.248 3.063 3.248 3.063zm-9.43 2.99l3.61-3.536c.721 2.202-1.42 4.295-3.61 3.535zm2.044-5.261c-2.332-1.029-4.738 1.35-3.734 3.685l-1.224 1.208c-1.287-.821-2.288-1.876-2.88-2.59 1.059-1.167 3.417-3.253 6.723-3.253a7.89 7.89 0 0 1 1.851.223l-.736.727zm4.268-4.091l-2.374 2.22a9.39 9.39 0 0 0-3.01-.494c-5.368 0-8.521 4.637-8.521 4.637s1.367 2.089 3.65 3.637l-2.065 2.059 1.003 1 12.32-12.057-1.003-1.002z"/>
    </g>
</svg>
