<svg xmlns="http://www.w3.org/2000/svg" xmlns:xlink="http://www.w3.org/1999/xlink" width="175" height="137" viewBox="0 0 175 137">
    <defs>
        <path id="a" d="M0 .195h79.1v46.92H0z"/>
        <path id="c" d="M.239.195h78.857v46.92H.239z"/>
    </defs>
    <g fill="none" fill-rule="evenodd">
        <path fill="#111D28" d="M77.221 83.298c2.546 1.518 2.546 4 0 5.518l-32.896 19.611c-2.545 1.518-6.71 1.518-9.255 0L1.909 88.658c-2.545-1.517-2.545-4 0-5.518l32.896-19.61c2.545-1.518 6.71-1.518 9.256 0l33.16 19.768z"/>
        <path fill="#EBF0F3" d="M39.565 46.212c-1.672 0-3.344-.377-4.612-1.129L1.897 25.486C.661 24.753.031 23.792 0 22.826v48.137c.031.965.66 1.926 1.897 2.66L34.953 93.22c1.268.752 2.94 1.128 4.612 1.128V46.212z"/>
        <path fill="#C2CBD3" d="M39.565 46.212c1.684 0 3.368-.376 4.645-1.129l33.01-19.44c1.312-.773 1.945-1.799 1.909-2.817v48.137c.036 1.018-.597 2.043-1.91 2.816L44.21 93.219c-1.277.753-2.961 1.13-4.645 1.129V46.212z"/>
        <g>
            <mask id="b" fill="#fff">
                <use xlink:href="#a"/>
            </mask>
            <path fill="#FFF" d="M77.192 20.99c2.545 1.509 2.545 3.978 0 5.488L44.31 45.983c-2.545 1.51-6.708 1.51-9.253 0L1.908 26.321c-2.544-1.51-2.544-3.98 0-5.489L34.792 1.327c2.544-1.51 6.708-1.51 9.252 0l33.148 19.662z" mask="url(#b)"/>
        </g>
        <path fill="#111D28" d="M173.091 83.298c2.545 1.518 2.545 4 0 5.518l-32.896 19.611c-2.545 1.518-6.71 1.518-9.256 0L97.78 88.658c-2.546-1.517-2.546-4 0-5.518l32.896-19.61c2.545-1.518 6.71-1.518 9.255 0l33.161 19.768z"/>
        <path fill="#EBF0F3" d="M135.435 46.212c-1.672 0-3.344-.377-4.612-1.129L97.767 25.486c-1.237-.733-1.866-1.694-1.897-2.66v48.137c.03.965.66 1.926 1.897 2.66l33.056 19.597c1.268.752 2.94 1.128 4.612 1.128V46.212z"/>
        <path fill="#C2CBD3" d="M135.435 46.212c1.684 0 3.367-.376 4.645-1.129l33.01-19.44c1.312-.773 1.944-1.799 1.909-2.817v48.137c.035 1.018-.597 2.043-1.91 2.816l-33.009 19.44c-1.278.753-2.961 1.13-4.645 1.129V46.212z"/>
        <g transform="translate(95.87)">
            <mask id="d" fill="#fff">
                <use xlink:href="#c"/>
            </mask>
            <path fill="#FFF" d="M77.193 20.99c2.537 1.509 2.537 3.978 0 5.488L44.411 45.983c-2.537 1.51-6.687 1.51-9.224 0L2.141 26.321c-2.537-1.51-2.537-3.98 0-5.489L34.923 1.327c2.537-1.51 6.688-1.51 9.224 0l33.046 19.662z" mask="url(#d)"/>
        </g>
        <path fill="#111D28" d="M125.917 110.69c2.545 1.517 2.545 4 0 5.517l-32.896 19.611c-2.545 1.518-6.71 1.518-9.256 0l-33.16-19.768c-2.546-1.518-2.546-4 0-5.518L83.5 90.92c2.545-1.518 6.71-1.518 9.255 0l33.161 19.769z"/>
        <path fill="#EBF0F3" d="M88.26 75.125c-1.67 0-3.343-.377-4.611-1.129L50.593 54.4c-1.237-.733-1.866-1.694-1.897-2.66v48.136c.03.966.66 1.927 1.897 2.66l33.056 19.598c1.268.752 2.94 1.128 4.612 1.128V75.125z"/>
        <path fill="#C2CBD3" d="M88.26 75.125c1.685 0 3.368-.376 4.646-1.129l33.01-19.44c1.312-.773 1.944-1.798 1.909-2.817v48.136c.035 1.019-.597 2.044-1.91 2.817l-33.01 19.44c-1.277.753-2.96 1.13-4.644 1.129V75.125z"/>
        <path fill="#FFF" d="M125.917 49.82c2.545 1.517 2.545 4 0 5.518l-32.896 19.61c-2.545 1.518-6.71 1.518-9.256 0L50.605 55.18c-2.546-1.517-2.546-4 0-5.518L83.5 30.052c2.545-1.518 6.71-1.518 9.255 0l33.161 19.768z"/>
        <path fill="#1A82FF" d="M77.897 86.818l-3.43 1.893c.138.831.208 1.7.208 2.595 0 4.819-2.038 6.557-5.451 4.65-1.424-.796-2.625-1.973-3.53-3.443l11.882-6.558a22.65 22.65 0 0 0-1.09-2.356c-.172-.32-.352-.632-.537-.939h.001c-.024-.041-.05-.08-.074-.12-.054-.09-.108-.183-.163-.271l-.003.001c-1.725-2.752-3.944-4.934-6.486-6.355-2.938-1.642-5.444-1.789-7.247-.425-1.695 1.283-2.63 3.858-2.63 7.25 0 2.253.415 4.606 1.19 6.864l3.447-1.903a16.503 16.503 0 0 1-.18-2.471c0-2.218.406-3.785 1.207-4.656.94-1.022 2.397-1.026 4.213-.011 1.414.79 2.59 1.943 3.485 3.363L60.85 90.471c.326.84.702 1.662 1.126 2.456.085.16.173.315.26.471l.003.004c.102.18.206.357.311.533l.04.066c.034.056.066.113.1.168l.004-.002c1.727 2.79 3.961 5.001 6.529 6.436 2.94 1.643 5.451 1.793 7.262.434 1.705-1.28 2.644-3.852 2.644-7.24 0-2.29-.43-4.684-1.233-6.979M90.147 57.75c-2.303-2.171-4.484-4.17-.608-4.868 11.799-2.124 12.9-6.337 8.57-8.896-4.417-2.61-11.63-1.82-15.057 5.063-1.155 2.323-4.643.972-8.238-.359-3.284-1.216-4.702-.496-6.997.87l-.86.513L87.805 62.39l.84-.492c2.332-1.365 3.566-2.202 1.502-4.15"/>
    </g>
</svg>
