<svg xmlns="http://www.w3.org/2000/svg" xmlns:xlink="http://www.w3.org/1999/xlink" width="29" height="24" viewBox="0 0 29 24">
    <defs>
        <path id="a" d="M0 .013h6.528V6.54H0z"/>
        <path id="c" d="M.002.013H6.53V6.54H.002z"/>
    </defs>
    <g fill="none" fill-rule="evenodd" opacity=".3">
        <path fill="#FFF" d="M3.5 9a2.5 2.5 0 1 1 0 5 2.5 2.5 0 0 1 0-5"/>
        <g transform="translate(0 8)">
            <mask id="b" fill="#fff">
                <use xlink:href="#a"/>
            </mask>
            <path fill="#000" d="M3.264 1.351a1.928 1.928 0 0 0-1.926 1.926c0 1.061.864 1.925 1.926 1.925a1.928 1.928 0 0 0 1.925-1.925A1.928 1.928 0 0 0 3.264 1.35m0 5.19c-.872 0-1.692-.34-2.308-.956A3.242 3.242 0 0 1 0 3.277C0 2.405.34 1.585.956.969A3.242 3.242 0 0 1 3.264.013c.872 0 1.691.34 2.308.956.616.616.956 1.436.956 2.308 0 .871-.34 1.691-.956 2.308a3.242 3.242 0 0 1-2.308.955" mask="url(#b)"/>
        </g>
        <path fill="#FFF" d="M24.5 9a2.5 2.5 0 1 1 0 5 2.5 2.5 0 0 1 0-5"/>
        <g transform="translate(22 8)">
            <mask id="d" fill="#fff">
                <use xlink:href="#c"/>
            </mask>
            <path fill="#000" d="M3.266 1.351A1.928 1.928 0 0 0 1.34 3.277c0 1.061.864 1.925 1.926 1.925A1.928 1.928 0 0 0 5.19 3.277 1.928 1.928 0 0 0 3.266 1.35m0 5.19c-.872 0-1.692-.34-2.308-.956a3.242 3.242 0 0 1-.956-2.308c0-.872.34-1.692.956-2.308A3.243 3.243 0 0 1 3.266.013c.872 0 1.691.34 2.308.956.616.616.956 1.436.956 2.308 0 .871-.34 1.691-.956 2.308a3.242 3.242 0 0 1-2.308.955" mask="url(#d)"/>
        </g>
        <path fill="#000" d="M13.714 8a.702.702 0 0 1-.215-.034.73.73 0 0 1-.466-.912L15.068.508a.712.712 0 0 1 .845-.489l5.536 1.327a.727.727 0 0 1 .532.874.714.714 0 0 1-.859.54L16.23 1.59l-1.835 5.903a.716.716 0 0 1-.68.508"/>
        <path fill="#FFF" d="M23 1a2 2 0 1 1 0 4 2 2 0 0 1 0-4"/>
        <path fill="#000" d="M24 1.48c-.839 0-1.52.681-1.52 1.52S23.16 4.52 24 4.52 25.52 3.84 25.52 3 24.84 1.48 24 1.48M24 6c-1.654 0-3-1.346-3-3s1.346-3 3-3 3 1.346 3 3-1.346 3-3 3"/>
        <path fill="#FFF" d="M14 8c6.627 0 12 3.582 12 8s-5.373 8-12 8-12-3.582-12-8 5.373-8 12-8"/>
        <path fill="#000" d="M13.5 8.364c-1.536 0-3.025.199-4.424.59-1.341.375-2.543.91-3.57 1.59-1.007.665-1.794 1.433-2.338 2.284-.545.851-.821 1.75-.821 2.672 0 .922.276 1.82.821 2.672.544.85 1.33 1.62 2.337 2.285 1.028.68 2.23 1.214 3.57 1.589 1.4.391 2.889.59 4.425.59s3.025-.199 4.424-.59c1.341-.375 2.543-.91 3.57-1.59 1.007-.665 1.794-1.433 2.338-2.284.545-.851.821-1.75.821-2.672 0-.922-.276-1.82-.821-2.672-.544-.85-1.33-1.62-2.337-2.285-1.028-.68-2.23-1.214-3.57-1.589-1.4-.391-2.889-.59-4.425-.59M13.5 24c-1.657 0-3.266-.215-4.783-.639-1.475-.412-2.803-1.005-3.948-1.762-1.165-.77-2.084-1.674-2.731-2.685C1.349 17.838 1 16.69 1 15.5c0-1.19.35-2.338 1.038-3.414.647-1.011 1.566-1.915 2.731-2.685 1.145-.757 2.473-1.35 3.948-1.762A17.763 17.763 0 0 1 13.5 7c1.657 0 3.266.215 4.783.639 1.475.412 2.803 1.005 3.948 1.762 1.165.77 2.084 1.674 2.731 2.685C25.651 13.162 26 14.311 26 15.5c0 1.19-.35 2.338-1.038 3.414-.647 1.011-1.566 1.915-2.731 2.685-1.145.757-2.473 1.35-3.948 1.762A17.762 17.762 0 0 1 13.5 24"/>
        <path fill="#FF4500" d="M18.124 12c-1.048.011-1.895.907-1.907 2.015 0 1.097.871 1.985 1.907 1.985S20 15.111 20 14.015C20 12.918 19.16 12 18.124 12zm-8.22 0c-1.046.012-1.893.907-1.904 2.015C8 15.111 8.869 16 9.905 16c1.035 0 1.876-.89 1.876-1.985 0-1.096-.84-2.015-1.876-2.015z"/>
        <path fill="#000" d="M14.015 21a.672.672 0 0 1-.031 0c-2.207 0-3.769-.543-4.777-1.66a.846.846 0 0 1 0-1.11.66.66 0 0 1 1 0c.73.808 1.965 1.2 3.777 1.2a.676.676 0 0 1 .031 0c1.812 0 3.048-.392 3.777-1.2a.66.66 0 0 1 1.001 0 .846.846 0 0 1 0 1.11C17.784 20.457 16.22 21 14.015 21"/>
    </g>
</svg>
