<svg xmlns="http://www.w3.org/2000/svg" width="19" height="20" viewBox="0 0 19 20">
    <g fill="none" fill-rule="evenodd">
        <path fill="#26D198" d="M8.275.39a1.992 1.992 0 0 1 2.368 0c1.688 1.246 1.324 1.126 3.417 1.12a2.006 2.006 0 0 1 1.914 1.403c.64 2.008.416 1.698 2.111 2.932a2.032 2.032 0 0 1 .732 2.271c-.65 2-.654 1.616 0 3.624a2.028 2.028 0 0 1-.732 2.27c-1.695 1.234-1.47.924-2.111 2.933a2.004 2.004 0 0 1-1.914 1.403c-2.094-.007-1.73-.126-3.417 1.12-.705.52-1.662.52-2.368 0-1.688-1.245-1.325-1.127-3.416-1.12a2.006 2.006 0 0 1-1.915-1.403c-.64-2.01-.419-1.7-2.112-2.933a2.031 2.031 0 0 1-.731-2.27c.652-2 .654-1.616 0-3.624a2.032 2.032 0 0 1 .73-2.272c1.692-1.232 1.473-.919 2.112-2.932A2.004 2.004 0 0 1 4.858 1.51c2.087.007 1.719.133 3.417-1.12"/>
        <path fill="#111D28" d="M11.313 5.822V5.82h.481l.176.034a1.904 1.904 0 0 1 .598.217c.09.048.17.098.243.148a1.5 1.5 0 0 1 .195.159c.056.056.145.071.265.044a3.6 3.6 0 0 0 .39-.114c.138-.049.276-.104.411-.164.136-.061.219-.1.249-.116A3.82 3.82 0 0 0 14.367 6l.002-.002.01-.005.008-.005.01-.004.009-.005.002-.002.003-.002.002-.002.002-.003.01-.002.009-.002-.002.013-.003.014-.005.014-.004.013-.005.01-.004.009-.005.013a.306.306 0 0 0-.01.037 1.522 1.522 0 0 1-.087.182 2.275 2.275 0 0 1-.433.572c-.067.057-.11.096-.132.119a.398.398 0 0 1-.079.063l-.046.03-.01.005-.009.005-.002.002-.002.002-.003.002-.002.003-.01.004-.009.005-.001.003-.003.001-.003.002-.002.003-.002.003-.002.001-.003.002-.002.003h.046l.26-.055c.172-.036.337-.08.495-.132l.25-.082.028-.01.014-.004.009-.004.01-.005.008-.004.01-.005.018-.003.019-.001v.018l-.005.002-.005.002-.001.003-.003.002-.003.002-.002.002-.002.003-.002.002-.003.002-.002.003-.002.002-.003.002-.004.01-.005.008-.003.002a36.4 36.4 0 0 1-.117.155 1.288 1.288 0 0 1-.151.183 2.62 2.62 0 0 1-.197.203 4.64 4.64 0 0 1-.353.316.43.43 0 0 0-.176.343 7.873 7.873 0 0 1-.022.458c-.012.17-.035.354-.07.552a6.487 6.487 0 0 1-.416 1.4c-.102.237-.208.45-.32.638a6.175 6.175 0 0 1-.588.848 5.476 5.476 0 0 1-.362.39l-.241.237a6.192 6.192 0 0 1-.182.15c-.106.087-.22.174-.342.26a3.983 3.983 0 0 1-.336.217c-.101.058-.224.123-.368.198a4.411 4.411 0 0 1-.465.208 7.098 7.098 0 0 1-.528.177 4.87 4.87 0 0 1-.537.128c-.173.03-.369.056-.588.078l-.329.032v.004h-.602v-.004l-.079-.005a4.28 4.28 0 0 1-.13-.01c-.033-.002-.161-.019-.384-.05a5.625 5.625 0 0 1-.523-.09 7.023 7.023 0 0 1-.565-.174 5.543 5.543 0 0 1-.641-.258 26.048 26.048 0 0 1-.334-.164 2.378 2.378 0 0 1-.15-.084l-.083-.05-.002-.003-.003-.002-.003-.001-.001-.003-.01-.005-.009-.004-.002-.003-.003-.002-.002-.002-.002-.002-.002-.003-.003-.002H4.45v-.018l.01.002.009.002.042.005a5.711 5.711 0 0 0 .62.014 4.201 4.201 0 0 0 .94-.15c.198-.053.38-.114.545-.185.165-.072.282-.125.352-.16.069-.035.174-.1.316-.194l.213-.141.002-.003.003-.002.003-.002.002-.002.001-.003.003-.002.003-.002.002-.002.009-.003.01-.002.001-.01.003-.008.003-.002.002-.003-.074-.004a1.414 1.414 0 0 1-.361-.05 2.48 2.48 0 0 1-.887-.45 4 4 0 0 1-.186-.186 1.845 1.845 0 0 1-.356-.544l-.077-.166-.004-.013-.005-.014-.003-.01-.001-.008.013.002.014.002.102.014a2.3 2.3 0 0 0 .32.01c.145-.004.245-.01.3-.02.056-.008.09-.014.103-.017l.018-.005.023-.004.023-.005.002-.003.003-.002.003-.001.002-.003-.019-.005-.018-.004-.019-.005-.018-.004-.019-.005a1.867 1.867 0 0 1-.065-.018 3.607 3.607 0 0 1-.25-.1 1.922 1.922 0 0 1-.324-.17 2.224 2.224 0 0 1-.23-.179 2.589 2.589 0 0 1-.238-.253 2.169 2.169 0 0 1-.384-.752 2.083 2.083 0 0 1-.067-.38l-.016-.19.009.001.01.003.008.005.01.004.009.005.01.004.143.064c.096.043.214.08.356.11s.227.047.255.05l.042.004h.083l-.002-.003-.003-.001-.002-.002-.002-.003-.002-.003-.003-.001-.003-.002-.001-.003-.01-.005-.009-.004-.002-.003-.003-.002-.002-.002-.002-.002-.01-.005-.009-.004-.002-.003-.08-.059a1.205 1.205 0 0 1-.159-.148 5.37 5.37 0 0 1-.166-.192 1.475 1.475 0 0 1-.148-.214 2.582 2.582 0 0 1-.138-.29 2.033 2.033 0 0 1-.085-1.278 2.14 2.14 0 0 1 .12-.329l.08-.173.004-.014.005-.013.002-.002.002-.003.002-.003.003-.001.003.001.002.003.001.003.003.002.003.002.002.002.002.003.002.002.005.009.005.009.003.002.001.003.125.136c.084.092.182.193.297.306.114.112.177.17.19.175a.135.135 0 0 1 .046.042c.018.022.08.076.185.161s.242.184.412.297c.17.112.358.223.565.333.207.109.43.208.667.296.238.088.404.146.5.173.096.028.26.062.49.105.232.043.407.07.524.082.117.012.198.02.24.021l.066.002-.002-.014-.003-.013-.019-.114a2.106 2.106 0 0 1-.018-.32 2.063 2.063 0 0 1 .256-1.015c.042-.07.097-.152.165-.243a1.98 1.98 0 0 1 .635-.543c.139-.076.267-.133.384-.173.117-.04.216-.065.296-.077l.12-.021"/>
    </g>
</svg>
