<svg xmlns="http://www.w3.org/2000/svg" width="28" height="23" viewBox="0 0 28 23">
    <path fill="#5DA8DC" fill-rule="evenodd" d="M18.709.005V0h1.313l.48.095c.32.062.61.143.87.244.261.1.514.217.758.351.244.134.465.27.664.41.197.137.374.282.53.436.155.156.396.196.725.12.328-.075.681-.18 1.06-.313.379-.134.753-.285 1.124-.452.37-.167.596-.274.676-.319l.127-.075.005-.008.025-.012.025-.013.025-.012.026-.013.005-.007.007-.005.008-.005.005-.008.025-.007.025-.005-.005.037-.007.038-.013.038-.013.037-.012.025-.013.025-.012.038a.848.848 0 0 0-.026.1c-.008.042-.088.21-.24.502a6.27 6.27 0 0 1-.568.891c-.227.302-.43.53-.61.683a5.748 5.748 0 0 0-.362.327c-.059.063-.13.122-.214.175l-.126.083-.026.013-.025.012-.005.008-.008.005-.007.005-.005.007-.025.013-.026.012-.005.008-.007.005-.008.005-.005.007-.005.008-.008.005-.007.005-.005.008h.126l.707-.151c.471-.1.922-.222 1.35-.364l.682-.226.076-.025.038-.013.025-.012.026-.013.025-.012.025-.013.05-.007.051-.005v.05l-.013.005-.012.007-.005.008-.008.005-.007.005-.006.008-.005.007-.007.005-.008.005-.005.008-.005.007-.007.005-.013.025-.013.025-.007.005-.32.427c-.211.281-.325.423-.342.427-.016.005-.04.03-.07.075-.029.047-.207.234-.536.56-.328.326-.65.616-.964.87-.317.257-.476.571-.48.945-.005.371-.024.791-.058 1.26-.033.468-.097.974-.19 1.518a18 18 0 0 1-.428 1.845c-.194.686-.43 1.355-.707 2.008a15.625 15.625 0 0 1-.871 1.757c-.303.519-.581.958-.834 1.318-.252.36-.509.699-.77 1.017-.26.318-.59.676-.99 1.074-.4.396-.619.614-.656.652a16.92 16.92 0 0 1-.495.412c-.29.24-.6.479-.934.718-.331.238-.636.436-.914.595-.277.159-.612.34-1.005.544-.39.206-.813.397-1.267.573-.455.175-.934.339-1.44.49-.504.15-.992.267-1.464.35-.47.084-1.005.155-1.603.214l-.896.088v.012H8.004v-.012l-.215-.013c-.143-.008-.26-.016-.353-.025a42.325 42.325 0 0 1-1.048-.138 15.204 15.204 0 0 1-1.427-.25 19.012 19.012 0 0 1-1.54-.478 15.029 15.029 0 0 1-1.75-.71 70.736 70.736 0 0 1-.908-.452 6.465 6.465 0 0 1-.41-.23l-.227-.139-.005-.007-.007-.005-.008-.005-.005-.008-.025-.013-.025-.012-.005-.008-.008-.005L.03 20.1l-.005-.007-.005-.008-.007-.005H0v-.05l.025.005.026.008.113.012c.076.008.282.021.619.038a11.433 11.433 0 0 0 3.635-.414 10.377 10.377 0 0 0 1.485-.507c.45-.198.77-.345.96-.442.188-.096.476-.273.863-.532l.58-.39.006-.007.007-.005.008-.005.005-.007.005-.008.007-.005.008-.005.005-.008.025-.007.026-.005.005-.025.007-.025.008-.005.005-.008-.202-.012a93.821 93.821 0 0 1-.391-.025 3.823 3.823 0 0 1-.594-.113 5.721 5.721 0 0 1-.87-.302 6.74 6.74 0 0 1-.91-.476 4.463 4.463 0 0 1-.639-.46c-.13-.12-.298-.291-.505-.512a5.072 5.072 0 0 1-.535-.685 6.156 6.156 0 0 1-.434-.81l-.21-.458-.012-.037-.013-.038-.007-.025-.006-.025.038.005.038.007.278.038c.185.025.476.033.871.025.396-.008.67-.025.82-.05.152-.025.245-.042.278-.05l.05-.013.064-.013.063-.012.005-.008.008-.005.007-.005.005-.007-.05-.013-.05-.012-.051-.013-.05-.012-.051-.013a5.053 5.053 0 0 1-.177-.05 9.779 9.779 0 0 1-.682-.276 5.223 5.223 0 0 1-.883-.465 6.072 6.072 0 0 1-.626-.494 7.099 7.099 0 0 1-.65-.698 5.016 5.016 0 0 1-.63-.991 6.004 6.004 0 0 1-.417-1.08 5.783 5.783 0 0 1-.182-1.041l-.045-.527.025.005.025.007.025.013.026.012.025.013.025.012.391.176c.261.117.585.218.973.301.387.084.618.13.694.138l.114.013h.227l-.005-.008-.008-.005-.007-.005-.006-.007-.004-.008-.008-.005-.008-.005-.005-.007-.025-.013-.025-.012-.005-.008-.008-.005-.007-.005-.005-.008-.026-.012-.025-.012-.005-.008a28.983 28.983 0 0 1-.217-.16 3.298 3.298 0 0 1-.434-.41 14.74 14.74 0 0 1-.455-.527 4.06 4.06 0 0 1-.404-.59 7.137 7.137 0 0 1-.374-.798 5.635 5.635 0 0 1-.409-1.938c-.008-.318 0-.59.026-.816.025-.225.075-.48.151-.765.076-.285.185-.586.328-.904l.215-.477.013-.037.012-.038.008-.005.005-.007.005-.008.007-.005.008.005.005.008.005.007.008.005.007.005.005.008.005.007.008.005.013.025.012.025.008.005.005.008.34.376c.228.251.497.532.809.841.311.31.484.47.517.482a.368.368 0 0 1 .126.116c.05.062.22.21.505.444.287.234.661.506 1.124.816.463.31.976.615 1.54.916.564.301 1.17.573 1.818.816.648.242 1.102.401 1.363.477.261.075.707.171 1.338.288.632.117 1.107.193 1.427.226.32.034.539.053.656.058l.177.005-.005-.038-.007-.037-.05-.314a5.85 5.85 0 0 1-.051-.879c0-.376.029-.723.088-1.041.059-.318.147-.64.265-.967.118-.326.233-.588.346-.785a7.72 7.72 0 0 1 .45-.67c.185-.252.424-.51.719-.779a5.31 5.31 0 0 1 1.01-.715 6.58 6.58 0 0 1 1.048-.477c.32-.109.589-.18.808-.213.218-.034.328-.053.328-.058"/>
</svg>
