<svg xmlns="http://www.w3.org/2000/svg" width="32" height="30" viewBox="0 0 32 30">
    <path fill="#FFF" fill-rule="evenodd" d="M22.149 4.716h2.567V2.15H22.15v2.567zm-15.406 0h2.568V2.15H6.743v2.567zM1.608 8.568h28.243V6H1.608v2.568zm19.257 15.405H19.54V15.93c-.666.592-1.738 1.216-2.527 1.488v-1.193c1.689-.74 2.613-1.8 2.998-2.522h.853v10.27zM9.992 20.977c.259 1.194.89 1.974 2.111 1.974 1.229 0 2.222-.88 2.222-2.098 0-1.27-1.09-2.296-3.046-1.816l.147-1.082c1.169.115 2.414-.447 2.414-1.667 0-.865-.678-1.571-1.766-1.571-1.016 0-1.752.59-1.95 1.81l-1.324-.22c.331-1.693 1.575-2.604 3.244-2.604 1.811 0 3.157 1.146 3.157 2.612 0 .83-.466 1.599-1.487 2.036 1.275.274 2.016 1.174 2.016 2.475 0 1.875-1.661 3.147-3.635 3.147-1.965 0-3.257-1.213-3.427-2.832l1.324-.164zm-8.384 6.847h28.243V9.851H1.608v17.973zm29.527 1.284H.325V4.716h5.134V.865h5.136v3.851h10.27V.865H26v3.851h5.135v24.392z"/>
</svg>
