<svg xmlns="http://www.w3.org/2000/svg" width="35" height="24" viewBox="0 0 35 24">
    <path fill="#FFF" fill-rule="evenodd" d="M2.14 22.556h6.787c.095-4.416 1.31-5.622 2.39-6.695.893-.888 1.666-1.654 1.666-4.694 0-2.174-1.297-3.524-3.387-3.524-1.282 0-2.299.518-2.865 1.458-.918 1.526-.586 3.947.934 6.817.391.74.456 1.41.192 1.988-.533 1.167-2.22 1.556-4.005 1.967-1.633.377-1.712.94-1.712 2.521v.162zm8.14 1.355H.789l-.004-1.514c0-1.82.196-3.254 2.678-3.826 1.341-.309 2.906-.67 3.16-1.228.08-.176.029-.44-.157-.789-1.751-3.308-2.07-6.203-.896-8.152.808-1.344 2.276-2.114 4.026-2.114 2.837 0 4.743 1.96 4.743 4.879 0 3.604-1.051 4.647-2.068 5.656-.99.982-2.012 2-1.994 6.408l.003.68zm2.706-1.355h20.333l.002-.444c0-2.274-.182-3.053-2.347-3.553l-.192-.045c-2.296-.528-4.465-1.029-5.12-2.486-.32-.706-.23-1.53.268-2.446 2.085-3.848 2.535-7.141 1.266-9.272-.803-1.348-2.237-2.09-4.043-2.09-1.79 0-3.215.73-4.011 2.053-1.27 2.105-.829 5.413 1.237 9.315.487.92.571 1.745.25 2.45-.663 1.452-2.856 1.957-5.179 2.493l-.119.028c-2.34.538-2.359 1.486-2.345 3.997zM34.67 23.91H11.633l-.002-1.269c-.015-2.578-.027-4.616 3.395-5.405l.12-.027c1.812-.417 3.863-.892 4.25-1.736.05-.113.207-.455-.215-1.25-2.298-4.34-2.723-8.122-1.201-10.65 1.036-1.72 2.921-2.71 5.173-2.71 2.268 0 4.168 1.004 5.207 2.752 1.524 2.559 1.085 6.328-1.239 10.612-.284.524-.359.943-.225 1.243.381.843 2.405 1.31 4.19 1.723l.193.043c3.153.728 3.397 2.481 3.397 4.878l-.006 1.796z"/>
</svg>
