<svg xmlns="http://www.w3.org/2000/svg" width="26" height="26" viewBox="0 0 26 26">
    <path fill="#FEC100" fill-rule="evenodd" d="M16.303 20.897c.023 2.426-.955 4.028-1.822 4.97l-.05.047c5.693-.64 9.817-4.663 6.788-8.547-1.487 2.218-2.745 2.646-4.916 3.53M5.436 11.654a2.167 2.167 0 1 1 .033 4.333 2.161 2.161 0 0 1-2.179-2.15 2.165 2.165 0 0 1 2.146-2.183m2.17-6.498a2.159 2.159 0 0 1 2.18 2.148 2.165 2.165 0 1 1-4.329.03 2.16 2.16 0 0 1 2.15-2.178m6.496-2.168a2.172 2.172 0 0 1 2.184 2.149 2.172 2.172 0 0 1-2.151 2.184 2.163 2.163 0 0 1-2.182-2.15 2.16 2.16 0 0 1 2.15-2.183M6.571 20.143c.721-1.229 1.893-3.225 4.817-3.534.47-2.26.658-3.575 2.76-5.538 1.487-1.389 5.35-4.776 7.606-6.748C20.67 1.931 17.27-.035 12.895.001 5.72.06-.057 5.92 0 13.1a12.947 12.947 0 0 0 3.055 8.27c1.753.465 2.574.377 3.517-1.228m13-4.199c1.545-2.426 6.333-10.561 6.333-10.561.381-.675-.465-1.38-1.057-.881 0 0-7.12 6.19-9.22 8.152-1.66 1.551-1.668 2.26-2.205 4.817l1.82 1.517c2.412-.991 3.108-1.125 4.329-3.044m-7.451 2.792l1.992 1.662c.496 6-6.843 7.337-9.78 3.254 4.97.412 3.19-4.868 7.788-4.916z"/>
</svg>
