<svg xmlns="http://www.w3.org/2000/svg" width="30" height="20" viewBox="0 0 30 20">
    <path fill="#F00" fill-rule="evenodd" d="M23.89 7.46c.02-1.947-1.53-3.818-3.81-3.81-1.904.009-3.574 1.108-5.08 2.938-1.506-1.83-3.176-2.93-5.08-2.937-2.279-.009-3.83 1.862-3.81 3.81.017 1.516 1.142 3.765 3.81 3.81.544.008 1.719-.002 2.54 0-.895 1.483-1.798 3.356-2.54 5.079h3.697c.238-1.259.89-3.368 1.383-4.297.494.93 1.077 2.725 1.383 4.297h3.697c-.647-1.56-1.602-3.558-2.54-5.08.821-.001 1.996.01 2.54 0 2.668-.044 3.793-2.293 3.81-3.81M30 3.039v13.925a3.037 3.037 0 0 1-3.036 3.038H3.036A3.037 3.037 0 0 1 0 16.963V3.038A3.037 3.037 0 0 1 3.036 0h23.928A3.037 3.037 0 0 1 30 3.038M10.375 6.193c-1.436 0-1.914 2.436.152 2.538.301.015 2.839 0 2.839 0-1.317-1.83-1.93-2.538-2.991-2.538m9.081 2.538c-.3.015-2.822 0-2.822 0 1.317-1.83 1.914-2.538 2.974-2.538 1.437 0 1.914 2.436-.152 2.538"/>
</svg>
