<svg xmlns="http://www.w3.org/2000/svg" width="30" height="20" viewBox="0 0 30 20">
    <path fill="#7A26F3" fill-rule="evenodd" d="M.002 20h7.502c-.035-8.177 3.744-4.621 3.744-11.126C11.248 6.363 9.608 5 7.5 5c-3.115 0-5.283 2.979-2.332 8.549.968 1.83-1.032 2.265-3.182 2.761C.124 16.74 0 17.65 0 19.226L.002 20zm12.645-4.92c2.867-.661 5.536-1.241 4.243-3.681C12.957 3.97 15.848 0 20 0c4.235 0 7.055 4.124 3.11 11.399-1.331 2.455 1.436 3.033 4.243 3.681 2.482.574 2.647 1.787 2.647 3.889L29.996 20H10.004c0-2.745-.22-4.259 2.643-4.92z"/>
</svg>
