<svg xmlns="http://www.w3.org/2000/svg" width="30" height="35" viewBox="0 0 30 35">
    <path fill="#FFF" fill-rule="evenodd" d="M22.929 13.986c.207 1.07.314 2.245.314 3.515 0 6.831-3.09 10.91-8.266 10.91-2.159 0-3.98-.717-5.354-2.083L27.642 7.616c-.483-.888-1.033-1.718-1.653-2.476-.26-.319-.534-.617-.813-.907-.035-.04-.074-.075-.11-.113-.084-.084-.165-.172-.25-.254C22.197 1.336 18.833 0 14.978 0c-4.456 0-8.256 1.777-10.99 5.14C1.416 8.302 0 12.692 0 17.5c0 3.195.628 6.203 1.802 8.79l5.229-5.43c-.182-1.028-.274-2.149-.274-3.36 0-3.144.615-5.686 1.831-7.557 1.426-2.194 3.635-3.353 6.39-3.353 2.143 0 3.927.702 5.284 2.007L2.279 27.27c.494.931 1.065 1.799 1.708 2.59.128.158.261.309.395.46l.004.004c.154.175.312.344.472.508l.06.063c.051.052.1.108.152.16l.006-.006C7.694 33.636 11.083 35 14.977 35c4.458 0 8.266-1.777 11.012-5.139C28.576 26.695 30 22.305 30 17.501c0-3.245-.652-6.3-1.87-8.916l-5.201 5.4z"/>
</svg>
