<svg xmlns="http://www.w3.org/2000/svg" width="102" height="176" viewBox="0 0 102 176">
    <defs>
        <linearGradient id="a" x1=".004%" x2="100.024%" y1="50.003%" y2="50.003%">
            <stop offset="0%" stop-color="#0F7CE8"/>
            <stop offset="99.98%" stop-color="#3892FF"/>
        </linearGradient>
        <linearGradient id="b" x1=".094%" x2="100.036%" y1="50.044%" y2="50.044%">
            <stop offset="0%" stop-color="#2693FF"/>
            <stop offset="100%" stop-color="#54AAFF"/>
        </linearGradient>
        <linearGradient id="c" x1=".01%" x2="99.98%" y1="50.011%" y2="50.011%">
            <stop offset="0%" stop-color="#2693FF"/>
            <stop offset="100%" stop-color="#54AAFF"/>
        </linearGradient>
    </defs>
    <g fill="none" fill-rule="nonzero">
        <path fill="#0E2032" d="M101.663 123.285l-14.12-5.564L.211 169.944l10.284 5.943z" opacity=".1"/>
        <path fill="#DFE0E1" d="M10.495 65.71v93.865l91.126-52.601V13.108z"/>
        <path fill="#F0F0F1" d="M19.262 136.056v9.82l9.526-5.52v-9.821zM30.347 129.734v9.82l9.526-5.52v-9.822zM41.306 123.622v9.821l9.525-5.522v-9.82zM52.349 117.3v9.82l9.525-5.52v-9.821zM63.35 111.23v9.821l9.525-5.521v-9.82zM74.393 104.908v9.82l9.525-5.52v-9.821zM85.351 98.797v9.82l9.526-5.521v-9.82zM19.262 123.538v9.82l9.526-5.52v-9.821zM30.347 117.216v9.82l9.526-5.521v-9.82zM41.306 111.146v9.82l9.525-5.52v-9.821zM52.349 104.782v9.863l9.525-5.522v-9.82zM63.35 98.712v9.821l9.525-5.521V93.19zM74.393 92.39v9.82l9.525-5.52v-9.821zM85.351 86.32v9.821l9.526-5.521V80.8zM19.262 111.062v9.82l9.526-5.52v-9.822zM30.347 104.698v9.82l9.526-5.521v-9.821zM41.306 98.628v9.82l9.525-5.52v-9.821zM52.349 92.306v9.82l9.525-5.521v-9.82zM63.35 86.194v9.82l9.525-5.52v-9.821zM74.393 79.872v9.82l9.525-5.52V74.35zM85.351 73.802v9.821l9.526-5.521V68.28zM19.262 98.544v9.82l9.526-5.521v-9.82zM30.347 92.18V102l9.526-5.521v-9.821zM41.306 86.11v9.82l9.525-5.52v-9.822zM52.349 79.788v9.82l9.525-5.521v-9.82zM63.35 73.718v9.82l9.525-5.52v-9.821zM74.393 67.354v9.82l9.525-5.521v-9.82zM85.351 61.284v9.821l9.526-5.522v-9.82zM.21 153.632V59.767l10.285 5.943v93.865z"/>
        <path fill="#FFF" d="M101.663 13.108L91.379 7.165.21 59.767l10.284 5.943z"/>
        <path fill="url(#a)" d="M10.495 65.71v31.316l91.126-52.601V13.108z"/>
        <path fill="url(#b)" d="M.21 91.083V59.767l10.285 5.943v31.316z"/>
        <path fill="url(#c)" d="M101.663 13.108L91.379 7.165.21 59.767l10.284 5.943z"/>
        <path fill="#0E2032" d="M27.776 32.117c-3.54-2.023-6.955-2.276-9.652-.716-2.698 1.56-4.173 4.636-4.173 8.64 0 3.33 1.054 6.955 2.782 10.242l4.088-2.36c-1.348-2.613-2.15-5.395-2.15-7.882 0-2.234.675-3.92 1.813-4.594 1.18-.674 2.993-.421 4.974.717 4.973 2.866 9.146 10.115 9.146 15.805 0 2.234-.674 3.92-1.812 4.595a2.61 2.61 0 0 1-1.012.337s-1.264.674-1.264 2.318a2.887 2.887 0 0 0 1.264 2.402 7.674 7.674 0 0 0 3.33-1.011c2.697-1.56 4.173-4.636 4.173-8.64 0-7.419-5.058-16.144-11.507-19.853zM80.378 1.728c-3.54-2.023-6.955-2.276-9.652-.716-2.698 1.56-4.173 4.636-4.173 8.64 0 3.33 1.054 6.955 2.782 10.242l4.088-2.36c-1.349-2.613-2.15-5.395-2.15-7.882 0-2.234.675-3.92 1.813-4.594 1.18-.675 2.993-.422 4.974.716 4.973 2.866 9.146 10.116 9.146 15.806 0 2.234-.675 3.92-1.813 4.594a2.61 2.61 0 0 1-1.011.338s-1.265.674-1.265 2.318a2.887 2.887 0 0 0 1.265 2.402 7.674 7.674 0 0 0 3.33-1.011c2.697-1.56 4.172-4.637 4.172-8.64 0-7.419-5.058-16.102-11.506-19.853z"/>
    </g>
</svg>
