<svg xmlns="http://www.w3.org/2000/svg" width="34" height="34" viewBox="0 0 34 34">
    <path fill="#345D7A" fill-rule="evenodd" d="M8.5 4.25c0 .782-.633 1.417-1.417 1.417-.783 0-1.416-.635-1.416-1.417V1.417C5.667.635 6.3 0 7.083 0 7.867 0 8.5.635 8.5 1.417V4.25zm19.833-2.833C28.333.635 27.7 0 26.917 0 26.133 0 25.5.635 25.5 1.417V4.25c0 .782.633 1.417 1.417 1.417.783 0 1.416-.635 1.416-1.417V1.417zm-25.5 29.75h28.334V11.333H2.833v19.834zM34 2.833V34H0V2.833h4.25V4.25c0 1.563 1.27 2.833 2.833 2.833 1.563 0 2.834-1.27 2.834-2.833V2.833h14.166V4.25c0 1.563 1.271 2.833 2.834 2.833 1.562 0 2.833-1.27 2.833-2.833V2.833H34zm-28.333 17h5.666v-5.666H5.667v5.666zm8.5 8.5h5.666v-5.666h-5.666v5.666zm-8.5 0h5.666v-5.666H5.667v5.666zm17-8.5h5.666v-5.666h-5.666v5.666zm-8.5 0h5.666v-5.666h-5.666v5.666zm8.5 8.5h5.666v-5.666h-5.666v5.666z"/>
</svg>
