<svg xmlns="http://www.w3.org/2000/svg" width="33" height="33" viewBox="0 0 33 33">
    <path fill="#345D7A" fill-rule="evenodd" d="M24.541 17.131c.278.052.278.458.001.512-2.62.496-8.31 1.527-9.002 1.527-.988 0-1.789-.8-1.789-1.789 0-.704 1.06-7.49 1.547-10.237.048-.264.43-.248.473.02l1.353 8.577 7.417 1.39zM16.5 0C7.388 0 0 7.388 0 16.5S7.388 33 16.5 33 33 25.612 33 16.5 25.612 0 16.5 0zm0 2.75c7.582 0 13.75 6.168 13.75 13.75S24.082 30.25 16.5 30.25 2.75 24.082 2.75 16.5 8.918 2.75 16.5 2.75z"/>
</svg>
