<svg xmlns="http://www.w3.org/2000/svg" xmlns:xlink="http://www.w3.org/1999/xlink" width="237" height="107" viewBox="0 0 237 107">
    <defs>
        <linearGradient id="q8e7oe509b" x1="50.898%" x2="41.036%" y1="79.568%" y2="-11.87%">
            <stop offset=".058%" stop-color="#FFF"/>
            <stop offset="100%" stop-color="#1E313F"/>
        </linearGradient>
        <linearGradient id="3dachbhj2c" x1="48.094%" x2="58.005%" y1="17.958%" y2="112.287%">
            <stop offset=".058%" stop-color="#FFF"/>
            <stop offset="99.67%" stop-color="#4E5A64"/>
        </linearGradient>
        <radialGradient id="cic1smzs1a" cx="50%" cy="50%" r="49.649%" fx="50%" fy="50%">
            <stop offset="0%" stop-color="#6BB3FF"/>
            <stop offset="100%" stop-color="#007CFF"/>
        </radialGradient>
        <path id="uzpga5vdgd" d="M0 0L10.805 0 10.805 10.805 0 10.805z"/>
    </defs>
    <g fill="none" fill-rule="evenodd">
        <g>
            <g>
                <g>
                    <g fill="url(#cic1smzs1a)" opacity=".8" transform="translate(-100 -99) translate(100 99) translate(-95 -113)">
                        <circle cx="166" cy="166" r="166"/>
                    </g>
                    <g>
                        <g>
                            <g fill-rule="nonzero">
                                <g transform="translate(-100 -99) translate(100 99) translate(-95 -113) translate(116.395 136.844) translate(.21 .304)">
                                    <circle cx="28.896" cy="28.896" r="28.139" fill="#1E313F" transform="rotate(-.192 28.896 28.896)"/>
                                    <path fill="#FFF" d="M46.494 46.377c9.652-9.723 9.605-25.404-.117-35.057-9.723-9.652-25.404-9.605-35.057.117l35.174 34.94z" opacity=".2"/>
                                </g>
                                <g>
                                    <path fill="#FAFBFC" d="M15.565 15.168c-.28-.047-.537-.117-.795-.164-3.458-.701-5.96-1.192-5.96-3.599 0-1.496 1.473-2.688 4.114-2.688 2.36 0 4.23.959 5.446 2.758l.187.047 3.762-3.856-.023-.14c-1.496-1.777-3.389-3.015-5.562-3.67-.304-.093-.585-.163-.888-.234h-.024c-.117-.023-.21-.046-.327-.07V.14h-5.142v3.412c-.163.024-.327.07-.49.094h-.024c-2.43.584-4.557 1.846-6.217 3.786-.7 1.169-1.051 2.57-1.051 4.183 0 5.516 4.16 7.269 8.226 8.25.748.187 1.496.328 2.22.444 2.548.468 4.745.865 4.745 3.155 0 1.426-1.566 3.202-4.838 3.202-1.94 0-3.529-.654-4.697-1.846-.07-.07-.164-.14-.234-.21l-4.44 3.085v.163c.63.748 1.332 1.402 2.08 1.963.256.187.514.35.77.515h.024c.257.163.538.303.795.444 0 0 .023 0 .023.023.28.14.538.257.818.374.023 0 .023 0 .047.023.28.117.56.21.841.304.023 0 .047 0 .047.023.14.047.257.07.397.117h.047c.14.047.28.07.444.117.023 0 .047 0 .07.024.117.023.257.046.374.07v3.412h5.142v-3.412c.093-.024.187-.024.28-.047h.047c.35-.07.7-.164 1.051-.28.164-.047.351-.117.515-.164 1.893-.701 3.552-1.87 4.908-3.46.514-.607.958-1.238 1.355-1.939.21-.748.304-1.59.304-2.477.023-5.936-4.464-7.549-8.367-8.32z" transform="translate(-100 -99) translate(100 99) translate(-95 -113) translate(116.395 136.844) translate(16.182 11.508)"/>
                                    <path fill="url(#q8e7oe509b)" d="M3.576 27.835c-.257-.304-.491-.608-.701-.935-.094-.14-.187-.28-.28-.397-.024-.024-.048-.07-.07-.094-.071-.117-.165-.257-.235-.397l-.07-.14c-.07-.117-.14-.257-.21-.374l-.07-.14c-.07-.117-.14-.258-.187-.398-.024-.047-.047-.117-.07-.163-.07-.14-.117-.257-.187-.398-.024-.046-.047-.093-.07-.163-.047-.14-.117-.28-.164-.421 0-.023-.023-.07-.023-.093-.117-.328-.234-.655-.328-.982 0-.023-.023-.047-.023-.094-.023-.116-.07-.233-.093-.35l-.07-.28c-.024-.117-.047-.21-.07-.328-.024-.093-.047-.21-.07-.304-.024-.116-.047-.21-.07-.327l-.071-.35c-.023-.094-.023-.21-.047-.304-.023-.117-.046-.234-.046-.374-.024-.094-.024-.187-.047-.304-.024-.14-.024-.257-.047-.397 0-.094-.023-.187-.023-.28 0-.164-.024-.304-.024-.468 0-.07 0-.14-.023-.234 0-.234-.023-.467-.023-.7 0-.235 0-.445.023-.679v-.21c0-.164.023-.304.023-.467 0-.07.024-.164.024-.234.023-.14.023-.304.046-.444 0-.07.024-.14.024-.21.023-.188.047-.351.07-.515 0-.046 0-.093.023-.117.024-.21.07-.42.117-.63.024-.07.024-.14.047-.188.023-.14.07-.28.093-.42.024-.07.047-.164.047-.234.023-.14.07-.257.094-.397.023-.07.046-.164.07-.234.046-.14.093-.28.117-.42.023-.07.046-.117.07-.188l.21-.56c.023-.07.047-.117.07-.187.047-.14.094-.258.164-.398.023-.07.07-.14.093-.233.047-.117.094-.21.164-.328.047-.07.07-.163.117-.233.046-.117.117-.21.163-.328.047-.07.07-.14.117-.21l.28-.49c-.21.77-.303 1.612-.303 2.5 0 3.038 1.285 5.352 3.833 6.918.14 2.734.934 4.884 2.29 6.263l-4.674 3.062z" transform="translate(-100 -99) translate(100 99) translate(-95 -113) translate(116.395 136.844) translate(16.182 11.508)"/>
                                    <path fill="url(#3dachbhj2c)" d="M18.393 11.475c.795 1.192 1.309 2.688 1.496 4.487.654.304 1.215.655 1.73 1.052 1.892 1.472 2.85 3.623 2.85 6.357 0 .327-.023.654-.046.982v-.024c.093-.21.187-.444.257-.678.023-.07.046-.116.07-.187.047-.163.117-.327.163-.49.024-.07.047-.164.07-.234.024-.094.07-.21.094-.304.047-.14.07-.257.117-.397.023-.094.047-.21.07-.304l.07-.35c.023-.07.023-.164.047-.234.023-.164.07-.35.093-.514 0-.07.024-.14.024-.21l.07-.562c0-.046 0-.07.023-.117.024-.187.047-.35.047-.537 0-.047 0-.094.023-.14.024-.21.024-.421.047-.631v-.14c0-.21.023-.445.023-.655 0-.234 0-.467-.023-.724 0-.07 0-.14-.023-.234 0-.164-.024-.327-.024-.468 0-.093-.023-.187-.023-.28-.023-.14-.023-.28-.047-.42 0-.094-.023-.188-.047-.305-.023-.14-.023-.257-.046-.397-.024-.093-.024-.21-.047-.304-.023-.116-.047-.257-.07-.374-.024-.093-.047-.21-.07-.303l-.07-.351c-.024-.093-.047-.21-.07-.304-.024-.117-.07-.233-.094-.35-.023-.094-.047-.21-.093-.304-.024-.117-.07-.21-.094-.327-.023-.094-.07-.21-.093-.304-.047-.117-.07-.21-.117-.304-.047-.093-.07-.21-.117-.304-.047-.093-.07-.21-.117-.304-.047-.093-.093-.21-.117-.303l-.14-.28c-.047-.094-.094-.188-.14-.305l-.14-.28c-.047-.094-.094-.187-.164-.28-.047-.094-.094-.188-.164-.258-.046-.093-.117-.187-.163-.28-.047-.094-.117-.164-.164-.257-.163-.257-.35-.514-.537-.772-.14-.186-.28-.35-.421-.514l-3.903 4.02z" transform="translate(-100 -99) translate(100 99) translate(-95 -113) translate(116.395 136.844) translate(16.182 11.508)"/>
                                </g>
                            </g>
                            <g transform="translate(-100 -99) translate(100 99) translate(-95 -113) translate(116.395 136.844) translate(39.7 1.569)"/>
                        </g>
                        <g>
                            <path fill="#1A82FF" d="M29.214 0c16.134 0 29.214 13.08 29.214 29.214s-13.08 29.214-29.214 29.214S0 45.348 0 29.214 13.08 0 29.214 0z" transform="translate(-100 -99) translate(100 99) translate(-95 -113) translate(116.395 136.844) translate(48.891 .336)"/>
                            <path fill="#FFF" d="M37.45 25.693c.215 1.073.326 2.25.326 3.52 0 6.844-3.21 10.93-8.586 10.93-2.242 0-4.134-.719-5.562-2.087l18.718-18.743c-.502-.889-1.073-1.72-1.717-2.48-.27-.319-.555-.618-.845-.907l.002-.003-.117-.11c-.087-.086-.17-.174-.258-.255l-.004.004c-2.718-2.538-6.212-3.876-10.217-3.876-4.628 0-8.576 1.78-11.415 5.148-2.671 3.167-4.142 7.564-4.142 12.38 0 3.2.653 6.213 1.872 8.804l5.431-5.438c-.189-1.03-.285-2.153-.285-3.366 0-3.15.64-5.696 1.903-7.57 1.481-2.197 3.776-3.359 6.636-3.359 2.227 0 4.08.703 5.49 2.011L16 39c.514.934 1.107 1.802 1.775 2.595.133.158.272.31.41.46l.004.005c.16.175.324.344.49.509l.063.063c.053.052.104.108.158.159l.006-.005c2.72 2.59 6.24 3.956 10.284 3.956 4.63 0 8.586-1.78 11.44-5.147 2.685-3.172 4.165-7.569 4.165-12.381 0-3.25-.677-6.309-1.943-8.93l-5.402 5.41z" transform="translate(-100 -99) translate(100 99) translate(-95 -113) translate(116.395 136.844) translate(48.891 .336)"/>
                        </g>
                    </g>
                </g>
            </g>
        </g>
    </g>
</svg>
