<svg xmlns="http://www.w3.org/2000/svg" xmlns:xlink="http://www.w3.org/1999/xlink" width="626" height="454" viewBox="0 0 626 454">
    <defs>
        <linearGradient id="19k8dtgsab" x1="50.898%" x2="41.036%" y1="79.568%" y2="-11.87%">
            <stop offset=".058%" stop-color="#FFF"/>
            <stop offset="100%" stop-color="#1E313F"/>
        </linearGradient>
        <linearGradient id="hh465zdpfc" x1="48.094%" x2="58.005%" y1="17.958%" y2="112.287%">
            <stop offset=".058%" stop-color="#FFF"/>
            <stop offset="99.67%" stop-color="#4E5A64"/>
        </linearGradient>
        <radialGradient id="oeq2zsl42a" cx="50%" cy="50%" r="50.013%" fx="50%" fy="50%">
            <stop offset="0%" stop-color="#67747D"/>
            <stop offset="100%" stop-color="#223F57"/>
        </radialGradient>
        <path id="k8tucguhdd" d="M0 0L18.803 0 18.803 18.803 0 18.803z"/>
    </defs>
    <g fill="none" fill-rule="evenodd">
        <g>
            <g>
                <g>
                    <g>
                        <g>
                            <g fill="url(#oeq2zsl42a)" opacity=".8" transform="translate(-348 -123) translate(320 123) translate(28 -172)">
                                <circle cx="313" cy="313" r="313"/>
                            </g>
                            <g>
                                <g>
                                    <g fill-rule="nonzero">
                                        <g transform="translate(-348 -123) translate(320 123) translate(28 -172) translate(226.537 263.767) translate(.367 .53)">
                                            <circle cx="49.277" cy="49.277" r="48.97" fill="#1E313F" transform="rotate(-.192 49.277 49.277)"/>
                                            <path fill="#FFF" d="M79.903 79.7c16.797-16.92 16.716-44.212-.204-61.01-16.92-16.797-44.21-16.716-61.008.204l61.212 60.805z" opacity=".2"/>
                                        </g>
                                        <g>
                                            <path fill="#FAFBFC" d="M27.088 26.396c-.488-.081-.936-.203-1.383-.284-6.02-1.22-10.372-2.075-10.372-6.264 0-2.603 2.563-4.677 7.159-4.677 4.108 0 7.362 1.667 9.476 4.8l.326.08 6.548-6.71-.04-.244c-2.604-3.092-5.898-5.247-9.68-6.386-.53-.163-1.017-.285-1.546-.407h-.04c-.204-.04-.367-.081-.57-.122V.244h-8.948v5.938c-.285.04-.57.122-.854.163h-.04c-4.23 1.017-7.932 3.213-10.82 6.589-1.22 2.033-1.83 4.474-1.83 7.28 0 9.599 7.24 12.65 14.317 14.358 1.301.325 2.603.569 3.864.772 4.433.814 8.256 1.505 8.256 5.491 0 2.481-2.725 5.572-8.42 5.572-3.375 0-6.14-1.139-8.174-3.213-.122-.122-.285-.244-.407-.366l-7.728 5.369v.284c1.098 1.302 2.319 2.44 3.62 3.417.447.325.895.61 1.342.895h.04c.448.284.936.528 1.384.772 0 0 .04 0 .04.041.489.244.936.448 1.424.65.04 0 .04 0 .081.042.488.203.976.366 1.465.528.04 0 .08 0 .08.041.245.081.448.122.692.203h.082c.244.082.488.122.772.204.041 0 .082 0 .122.04.204.041.448.082.651.122v5.939h8.948v-5.939c.163-.04.325-.04.488-.08h.082c.61-.123 1.22-.286 1.83-.489.284-.081.61-.203.895-.285 3.294-1.22 6.182-3.253 8.54-6.02.896-1.057 1.668-2.155 2.36-3.375.366-1.302.529-2.766.529-4.311.04-10.331-7.769-13.137-14.561-14.48z" transform="translate(-348 -123) translate(320 123) translate(28 -172) translate(226.537 263.767) translate(27.151 19.017)"/>
                                            <path fill="url(#19k8dtgsab)" d="M6.223 48.44c-.448-.528-.854-1.057-1.22-1.626-.163-.244-.326-.488-.488-.692-.041-.04-.082-.122-.122-.162-.122-.204-.285-.448-.407-.692l-.122-.244c-.122-.203-.244-.447-.366-.65l-.122-.244c-.122-.204-.244-.448-.326-.692-.04-.081-.08-.203-.122-.285-.122-.244-.203-.447-.325-.691-.04-.081-.081-.163-.122-.285-.081-.244-.203-.488-.285-.732 0-.04-.04-.122-.04-.163-.204-.569-.407-1.138-.57-1.708 0-.04-.04-.081-.04-.162-.041-.204-.122-.407-.163-.61l-.122-.489c-.04-.203-.082-.366-.122-.569-.04-.163-.082-.366-.122-.529-.04-.203-.082-.366-.122-.57l-.122-.61c-.04-.162-.04-.365-.082-.528-.04-.203-.08-.407-.08-.65-.042-.163-.042-.326-.082-.53-.04-.244-.04-.447-.082-.691 0-.163-.04-.325-.04-.488 0-.285-.04-.529-.04-.813 0-.122 0-.245-.042-.407 0-.407-.04-.814-.04-1.22 0-.407 0-.773.04-1.18v-.366c0-.285.041-.529.041-.813 0-.122.04-.285.04-.407.041-.244.041-.529.082-.773 0-.122.04-.244.04-.366.041-.325.082-.61.123-.895 0-.081 0-.162.04-.203.041-.366.122-.732.204-1.098.04-.122.04-.244.081-.326.04-.244.122-.488.163-.732.04-.122.081-.284.081-.406.04-.244.122-.448.163-.692.04-.122.081-.285.122-.407.081-.244.163-.488.203-.732.04-.122.082-.203.122-.325l.366-.976c.041-.122.082-.204.122-.326.082-.244.163-.447.285-.691.04-.122.122-.244.163-.407.081-.203.162-.366.284-.57.082-.121.122-.284.204-.406.081-.203.203-.366.284-.57.082-.121.123-.243.204-.365l.488-.854c-.366 1.342-.529 2.806-.529 4.351 0 5.288 2.237 9.314 6.67 12.04.244 4.758 1.627 8.5 3.986 10.9L6.223 48.44z" transform="translate(-348 -123) translate(320 123) translate(28 -172) translate(226.537 263.767) translate(27.151 19.017)"/>
                                            <path fill="url(#hh465zdpfc)" d="M32.01 19.97c1.382 2.074 2.277 4.677 2.602 7.81 1.139.528 2.115 1.138 3.01 1.83 3.294 2.562 4.962 6.304 4.962 11.062 0 .57-.04 1.14-.081 1.709v-.041c.162-.366.325-.773.447-1.18.04-.122.081-.203.122-.325.081-.285.203-.57.285-.854.04-.122.081-.285.122-.407.04-.162.122-.366.162-.529.082-.244.122-.447.204-.691.04-.163.081-.366.122-.529l.122-.61c.04-.122.04-.284.081-.407.04-.284.122-.61.163-.894 0-.122.04-.244.04-.366l.123-.976c0-.082 0-.123.04-.204.04-.325.082-.61.082-.935 0-.082 0-.163.04-.244.04-.366.04-.732.082-1.099v-.244c0-.366.04-.772.04-1.138 0-.407 0-.814-.04-1.261 0-.122 0-.244-.041-.407 0-.285-.04-.57-.04-.813 0-.163-.041-.326-.041-.488-.041-.244-.041-.489-.082-.733 0-.162-.04-.325-.081-.528-.04-.244-.04-.448-.081-.692-.041-.162-.041-.366-.082-.528-.04-.204-.081-.448-.122-.651-.04-.163-.081-.366-.122-.529l-.122-.61c-.04-.163-.081-.366-.122-.529-.04-.203-.122-.407-.163-.61-.04-.163-.08-.366-.162-.529-.04-.203-.122-.366-.163-.569-.04-.163-.122-.366-.163-.529-.081-.203-.122-.366-.203-.529-.081-.162-.122-.366-.203-.528-.082-.163-.122-.366-.204-.529-.081-.163-.162-.366-.203-.529l-.244-.488c-.081-.162-.163-.325-.244-.529l-.244-.488c-.082-.162-.163-.325-.285-.488-.081-.162-.163-.325-.285-.447-.08-.163-.203-.325-.284-.488-.082-.163-.204-.285-.285-.448-.285-.447-.61-.894-.935-1.342-.244-.325-.489-.61-.733-.895L32.01 19.97z" transform="translate(-348 -123) translate(320 123) translate(28 -172) translate(226.537 263.767) translate(27.151 19.017)"/>
                                        </g>
                                    </g>
                                    <g transform="translate(-348 -123) translate(320 123) translate(28 -172) translate(226.537 263.767) translate(68.08 1.72)"/>
                                </g>
                                <g>
                                    <path fill="#1A82FF" d="M46.791 0c25.842 0 46.791 20.95 46.791 46.791 0 25.842-20.949 46.791-46.79 46.791C20.948 93.582 0 72.633 0 46.792 0 20.948 20.95 0 46.791 0z" transform="translate(-348 -123) translate(320 123) translate(28 -172) translate(226.537 263.767) translate(80.463 2.748)"/>
                                    <path fill="#FFF" d="M59.983 41.152c.344 1.718.523 3.603.523 5.64 0 10.96-5.141 17.503-13.753 17.503-3.591 0-6.622-1.15-8.908-3.342l29.979-30.02c-.803-1.423-1.719-2.755-2.75-3.972-.433-.51-.888-.99-1.353-1.453l.003-.004c-.062-.061-.126-.118-.187-.178-.139-.136-.273-.277-.413-.408l-.008.007c-4.352-4.065-9.949-6.209-16.363-6.209-7.413 0-13.735 2.852-18.284 8.246-4.278 5.073-6.633 12.115-6.633 19.83 0 5.126 1.045 9.95 2.998 14.1l8.7-8.71c-.303-1.65-.457-3.448-.457-5.39 0-5.046 1.025-9.125 3.048-12.125 2.371-3.52 6.047-5.38 10.628-5.38 3.566 0 6.535 1.126 8.792 3.22L25.627 62.467c.823 1.495 1.772 2.885 2.842 4.155.214.253.436.496.658.738l.006.007c.256.28.519.551.785.816l.1.1c.086.084.168.173.253.255l.01-.008c4.356 4.148 9.994 6.337 16.472 6.337 7.417 0 13.753-2.851 18.322-8.245 4.301-5.08 6.671-12.122 6.671-19.83 0-5.206-1.084-10.104-3.11-14.302l-8.653 8.663z" transform="translate(-348 -123) translate(320 123) translate(28 -172) translate(226.537 263.767) translate(80.463 2.748)"/>
                                </g>
                            </g>
                        </g>
                    </g>
                </g>
            </g>
        </g>
    </g>
</svg>
