<svg xmlns="http://www.w3.org/2000/svg" width="28" height="22" viewBox="0 0 28 22">
    <path fill="#FFF" fill-rule="evenodd" d="M17.407 19.684a3.346 3.346 0 0 0-1.746-2.92l-1.635-7.609-1.636 7.609a3.35 3.35 0 0 0-1.745 2.92H3.853a11.795 11.795 0 0 1-1.52-5.79C2.333 7.51 7.567 2.317 14 2.317S25.667 7.51 25.667 13.895c0 2.035-.535 4.052-1.52 5.79h-6.74zM28 13.894C28 6.222 21.731 0 14 0S0 6.221 0 13.895c0 2.99.952 5.838 2.572 8.105h22.856C27.048 19.733 28 16.886 28 13.895zM14.782 4.433a9.89 9.89 0 0 0-1.515 0v3.224a6.661 6.661 0 0 1 1.515 0V4.432zm6.756 3.544a10.054 10.054 0 0 0-1.071-1.109l-2.206 2.28c.396.327.756.699 1.072 1.107l2.205-2.278zm-3.035-2.468a9.717 9.717 0 0 0-1.4-.6L15.91 7.885c.488.145.957.347 1.4.601l1.193-2.979zm-11.006 7.18c.141-.505.335-.99.581-1.448l-2.882-1.235a10.48 10.48 0 0 0-.58 1.448l2.881 1.234zM10.716 8.5a6.63 6.63 0 0 1 1.398-.605L10.908 4.92c-.48.164-.948.367-1.4.607L10.716 8.5zm-2 1.753c.316-.41.676-.78 1.071-1.108L7.582 6.867c-.382.34-.743.711-1.072 1.109l2.206 2.278zm14.667 1.047a10.32 10.32 0 0 0-.601-1.438l-2.863 1.28c.253.456.454.938.603 1.439l2.861-1.28z"/>
</svg>
