<?xml version="1.0" encoding="UTF-8" ?>
<!DOCTYPE svg PUBLIC "-//W3C//DTD SVG 1.1//EN" "http://www.w3.org/Graphics/SVG/1.1/DTD/svg11.dtd">
<svg width="237pt" height="237pt" viewBox="0 0 1024 1024" version="1.1" xmlns="http://www.w3.org/2000/svg">
<g id="#a0a0a0ff">
<path fill="#a0a0a0" opacity="1.00" d=" M 457.07 45.92 C 530.74 37.30 606.48 46.14 676.00 72.16 C 738.75 95.63 796.59 132.57 843.72 180.25 C 803.41 220.22 763.47 260.56 723.21 300.58 C 697.26 275.13 667.02 253.93 633.74 239.21 C 589.52 219.39 540.35 210.67 492.02 214.01 C 437.42 217.53 383.91 236.50 339.39 268.31 C 284.15 307.26 242.78 365.53 224.59 430.66 C 210.95 478.44 209.82 529.63 220.83 578.06 C 229.68 617.67 246.92 655.35 270.88 688.09 C 293.12 718.54 321.18 744.73 353.10 764.80 C 389.89 788.04 431.86 803.02 475.06 808.28 C 512.08 812.93 549.96 810.51 586.11 801.28 C 590.08 799.37 592.35 803.89 594.84 806.14 C 635.58 847.09 676.52 887.84 717.27 928.77 C 643.96 964.37 561.28 980.63 479.97 974.89 C 411.92 970.38 344.90 950.81 285.26 917.71 C 260.39 904.11 237.03 887.89 214.93 870.17 C 197.47 855.36 180.22 840.16 165.21 822.82 C 139.80 795.43 118.00 764.71 100.04 731.95 C 96.04 724.23 91.40 716.83 88.14 708.75 C 83.67 699.70 79.77 690.39 75.89 681.08 C 70.93 667.81 65.63 654.64 62.01 640.93 C 61.58 639.12 60.48 637.60 59.49 636.08 C 51.19 607.42 46.54 577.75 44.05 548.04 C 41.43 510.68 42.72 472.99 48.83 436.01 C 61.01 360.53 92.24 288.27 138.69 227.57 C 168.81 188.07 205.22 153.36 246.15 125.22 C 308.59 82.11 381.68 54.53 457.07 45.92 M 506.25 96.40 C 500.55 97.39 495.29 100.16 490.87 103.83 C 480.47 112.76 476.73 128.64 482.70 141.11 C 489.03 156.13 507.86 164.21 523.06 158.11 C 538.49 152.87 547.84 134.60 542.80 119.05 C 538.70 103.62 521.88 93.26 506.25 96.40 M 238.29 208.39 C 232.96 208.67 227.70 210.31 223.13 213.07 C 211.66 220.10 205.25 234.81 208.77 247.93 C 211.86 262.01 225.55 272.99 240.03 272.54 C 255.06 272.95 269.11 261.15 271.57 246.37 C 273.81 236.04 269.96 224.82 262.43 217.52 C 256.19 211.19 247.13 207.90 238.29 208.39 M 122.33 480.39 C 115.71 481.62 109.49 484.97 104.79 489.79 C 95.34 499.51 93.07 515.36 99.77 527.21 C 106.93 541.17 125.25 548.07 139.75 541.83 C 154.77 536.32 163.74 518.41 158.81 503.12 C 154.77 487.71 137.95 477.16 122.33 480.39 M 234.31 752.44 C 222.82 754.39 212.83 763.16 209.47 774.32 C 205.60 785.95 209.34 799.48 218.37 807.68 C 224.52 813.16 232.77 816.38 241.04 816.00 C 252.20 815.75 263.02 809.13 268.16 799.20 C 273.09 790.37 273.31 779.18 268.87 770.10 C 263.05 757.32 248.06 749.77 234.31 752.44 M 506.37 864.47 C 494.61 866.49 484.45 875.54 481.28 887.07 C 477.41 899.64 482.41 914.32 493.19 921.86 C 501.05 927.65 511.61 929.53 520.96 926.72 C 530.57 923.95 538.66 916.48 542.03 907.04 C 547.00 894.30 542.39 878.72 531.45 870.58 C 524.43 865.13 515.10 862.91 506.37 864.47 Z" />
</g>
<g id="#c1c1c1ff">
<path fill="#c1c1c1" opacity="1.00" d=" M 506.25 96.40 C 521.88 93.26 538.70 103.62 542.80 119.05 C 547.84 134.60 538.49 152.87 523.06 158.11 C 507.86 164.21 489.03 156.13 482.70 141.11 C 476.73 128.64 480.47 112.76 490.87 103.83 C 495.29 100.16 500.55 97.39 506.25 96.40 Z" />
<path fill="#c1c1c1" opacity="1.00" d=" M 122.33 480.39 C 137.95 477.16 154.77 487.71 158.81 503.12 C 163.74 518.41 154.77 536.32 139.75 541.83 C 125.25 548.07 106.93 541.17 99.77 527.21 C 93.07 515.36 95.34 499.51 104.79 489.79 C 109.49 484.97 115.71 481.62 122.33 480.39 Z" />
</g>
<g id="#686868ff">
<path fill="#686868" opacity="1.00" d=" M 843.72 180.25 L 843.83 180.14 C 868.47 205.26 890.79 232.74 909.44 262.61 C 945.45 319.77 968.82 384.83 977.31 451.86 C 982.98 496.74 982.58 542.46 975.26 587.13 C 962.56 667.14 928.32 743.54 877.36 806.49 C 835.06 858.97 781.49 902.53 720.95 932.25 L 720.32 931.99 C 719.31 930.89 718.29 929.83 717.27 928.77 C 676.52 887.84 635.58 847.09 594.84 806.14 C 592.35 803.89 590.08 799.37 586.11 801.28 C 549.96 810.51 512.08 812.93 475.06 808.28 C 431.86 803.02 389.89 788.04 353.10 764.80 C 321.18 744.73 293.12 718.54 270.88 688.09 C 246.92 655.35 229.68 617.67 220.83 578.06 C 209.82 529.63 210.95 478.44 224.59 430.66 C 242.78 365.53 284.15 307.26 339.39 268.31 C 383.91 236.50 437.42 217.53 492.02 214.01 C 540.35 210.67 589.52 219.39 633.74 239.21 C 667.02 253.93 697.26 275.13 723.21 300.58 C 763.47 260.56 803.41 220.22 843.72 180.25 M 491.97 364.22 C 470.74 367.07 450.08 374.50 432.09 386.16 C 409.01 400.61 390.33 421.74 378.19 446.07 C 363.61 475.27 359.55 509.28 365.69 541.24 C 369.62 561.09 377.72 580.12 389.25 596.75 C 397.18 608.27 406.90 618.41 416.90 628.13 C 474.23 685.54 531.51 742.99 588.89 800.34 C 637.98 787.27 683.56 761.40 719.94 725.94 C 765.05 682.60 795.60 624.50 806.25 562.88 C 806.49 561.84 806.47 559.97 808.10 560.28 C 837.73 560.32 867.36 560.27 897.00 560.33 C 916.04 560.03 933.87 545.56 937.76 526.87 C 937.98 525.66 937.76 524.55 937.09 523.52 C 938.31 517.81 939.17 511.94 938.47 506.09 L 938.23 506.49 C 936.18 486.15 917.39 469.37 896.98 469.32 C 816.34 469.25 735.70 469.31 655.05 469.25 C 648.61 447.17 636.55 426.92 621.02 410.02 C 595.22 382.52 558.76 365.01 521.00 363.20 C 511.32 363.22 501.56 362.66 491.97 364.22 M 778.34 752.53 C 765.70 754.59 754.97 765.12 752.64 777.71 C 751.16 785.85 752.50 794.73 757.37 801.56 C 763.13 810.76 774.17 816.32 784.98 815.81 C 793.30 815.84 801.26 811.86 807.14 806.15 C 812.01 800.55 815.59 793.48 815.81 785.95 C 816.67 774.58 810.75 762.85 800.94 756.99 C 794.42 752.53 786.05 751.24 778.34 752.53 Z" />
</g>
<g id="#c3c3c3ff">
<path fill="#c3c3c3" opacity="1.00" d=" M 238.29 208.39 C 247.13 207.90 256.19 211.19 262.43 217.52 C 269.96 224.82 273.81 236.04 271.57 246.37 C 269.11 261.15 255.06 272.95 240.03 272.54 C 225.55 272.99 211.86 262.01 208.77 247.93 C 205.25 234.81 211.66 220.10 223.13 213.07 C 227.70 210.31 232.96 208.67 238.29 208.39 Z" />
</g>
<g id="#474747ff">
<path fill="#474747" opacity="1.00" d=" M 491.97 364.22 C 501.56 362.66 511.32 363.22 521.00 363.20 C 558.76 365.01 595.22 382.52 621.02 410.02 C 636.55 426.92 648.61 447.17 655.05 469.25 C 607.38 469.24 559.70 469.24 512.02 469.24 C 499.83 469.13 487.79 474.66 479.81 483.85 C 473.80 490.70 470.07 499.50 469.37 508.59 C 468.18 522.76 474.73 537.29 486.06 545.87 C 493.68 551.78 503.34 554.87 512.98 554.67 C 639.67 554.63 766.37 554.61 893.06 554.70 C 897.82 554.74 902.65 554.55 907.26 553.22 C 921.47 549.40 933.28 537.75 937.09 523.52 C 937.76 524.55 937.98 525.66 937.76 526.87 C 933.87 545.56 916.04 560.03 897.00 560.33 C 867.36 560.27 837.73 560.32 808.10 560.28 C 806.47 559.97 806.49 561.84 806.25 562.88 C 795.60 624.50 765.05 682.60 719.94 725.94 C 683.56 761.40 637.98 787.27 588.89 800.34 C 531.51 742.99 474.23 685.54 416.90 628.13 C 406.90 618.41 397.18 608.27 389.25 596.75 C 377.72 580.12 369.62 561.09 365.69 541.24 C 359.55 509.28 363.61 475.27 378.19 446.07 C 390.33 421.74 409.01 400.61 432.09 386.16 C 450.08 374.50 470.74 367.07 491.97 364.22 Z" />
</g>
<g id="#bfbfbfff">
<path fill="#bfbfbf" opacity="1.00" d=" M 479.81 483.85 C 487.79 474.66 499.83 469.13 512.02 469.24 C 559.70 469.24 607.38 469.24 655.05 469.25 C 735.70 469.31 816.34 469.25 896.98 469.32 C 917.39 469.37 936.18 486.15 938.23 506.49 C 938.04 506.82 937.65 507.46 937.45 507.78 C 933.77 489.27 915.88 474.62 896.98 474.73 C 772.01 474.83 647.04 474.85 522.07 474.90 C 514.34 475.03 506.33 474.10 498.92 476.86 C 489.86 479.70 482.19 485.96 476.65 493.56 C 473.31 498.11 472.26 503.80 469.37 508.59 C 470.07 499.50 473.80 490.70 479.81 483.85 Z" />
<path fill="#bfbfbf" opacity="1.00" d=" M 234.31 752.44 C 248.06 749.77 263.05 757.32 268.87 770.10 C 273.31 779.18 273.09 790.37 268.16 799.20 C 263.02 809.13 252.20 815.75 241.04 816.00 C 232.77 816.38 224.52 813.16 218.37 807.68 C 209.34 799.48 205.60 785.95 209.47 774.32 C 212.83 763.16 222.82 754.39 234.31 752.44 Z" />
</g>
<g id="#b0b0b0ff">
<path fill="#b0b0b0" opacity="1.00" d=" M 498.92 476.86 C 506.33 474.10 514.34 475.03 522.07 474.90 C 647.04 474.85 772.01 474.83 896.98 474.73 C 915.88 474.62 933.77 489.27 937.45 507.78 C 937.65 507.46 938.04 506.82 938.23 506.49 L 938.47 506.09 C 939.17 511.94 938.31 517.81 937.09 523.52 C 933.28 537.75 921.47 549.40 907.26 553.22 C 902.65 554.55 897.82 554.74 893.06 554.70 C 766.37 554.61 639.67 554.63 512.98 554.67 C 503.34 554.87 493.68 551.78 486.06 545.87 C 474.73 537.29 468.18 522.76 469.37 508.59 C 472.26 503.80 473.31 498.11 476.65 493.56 C 482.19 485.96 489.86 479.70 498.92 476.86 Z" />
</g>
<g id="#939393ff">
<path fill="#939393" opacity="1.00" d=" M 59.49 636.08 C 60.48 637.60 61.58 639.12 62.01 640.93 C 65.63 654.64 70.93 667.81 75.89 681.08 C 79.77 690.39 83.67 699.70 88.14 708.75 C 91.40 716.83 96.04 724.23 100.04 731.95 C 118.00 764.71 139.80 795.43 165.21 822.82 C 180.22 840.16 197.47 855.36 214.93 870.17 C 237.03 887.89 260.39 904.11 285.26 917.71 C 344.90 950.81 411.92 970.38 479.97 974.89 C 561.28 980.63 643.96 964.37 717.27 928.77 C 718.29 929.83 719.31 930.89 720.32 931.99 L 720.35 932.60 C 678.03 953.63 632.47 968.13 585.79 975.51 C 528.88 984.41 470.33 983.00 413.97 971.01 C 346.08 956.66 281.55 926.80 226.55 884.50 C 163.03 835.87 112.23 770.77 80.69 697.23 C 72.27 677.36 64.76 657.01 59.49 636.08 Z" />
</g>
<g id="#767676ff">
<path fill="#767676" opacity="1.00" d=" M 778.34 752.53 C 786.05 751.24 794.42 752.53 800.94 756.99 C 810.75 762.85 816.67 774.58 815.81 785.95 C 815.59 793.48 812.01 800.55 807.14 806.15 C 801.26 811.86 793.30 815.84 784.98 815.81 C 774.17 816.32 763.13 810.76 757.37 801.56 C 752.50 794.73 751.16 785.85 752.64 777.71 C 754.97 765.12 765.70 754.59 778.34 752.53 Z" />
</g>
<g id="#bebebeff">
<path fill="#bebebe" opacity="1.00" d=" M 506.37 864.47 C 515.10 862.91 524.43 865.13 531.45 870.58 C 542.39 878.72 547.00 894.30 542.03 907.04 C 538.66 916.48 530.57 923.95 520.96 926.72 C 511.61 929.53 501.05 927.65 493.19 921.86 C 482.41 914.32 477.41 899.64 481.28 887.07 C 484.45 875.54 494.61 866.49 506.37 864.47 Z" />
</g>
</svg>
