<svg xmlns="http://www.w3.org/2000/svg" width="15" height="15" viewBox="0 0 15 15">
    <path fill="#8FA7B7" fill-rule="evenodd" d="M7.5 15C3.364 15 0 11.636 0 7.5S3.364 0 7.5 0c1.184 0 2.269.31 3.356.737C9.014 1.052 5 2.778 5 7.5c0 4.659 3.698 6.38 5.856 6.763C9.92 14.792 8.684 15 7.5 15m4.376-13.75c-.274.898-.977 1.601-1.874 1.876.899.275 1.6.977 1.875 1.876.274-.899.977-1.602 1.873-1.876-.896-.273-1.6-.978-1.874-1.876m.625 5.625c.598.183 1.067.651 1.25 1.25.181-.599.65-1.068 1.249-1.25-.598-.182-1.067-.651-1.25-1.25-.183.599-.651 1.068-1.25 1.25m-5 0c.898.273 1.601.977 1.874 1.875.275-.898.978-1.601 1.876-1.875-.898-.274-1.6-.977-1.876-1.875-.273.898-.976 1.6-1.874 1.874"/>
</svg>
