<svg xmlns="http://www.w3.org/2000/svg" xmlns:xlink="http://www.w3.org/1999/xlink" width="56" height="56" viewBox="0 0 56 56">
    <defs>
        <circle id="prefix__a" cx="28" cy="28" r="28"/>
    </defs>
    <g fill="none" fill-rule="evenodd">
        <mask id="prefix__b" fill="#fff">
            <use xlink:href="#prefix__a"/>
        </mask>
        <use fill="#007CFF" fill-opacity=".2" xlink:href="#prefix__a"/>
        <g mask="url(#prefix__b)">
            <g>
                <path fill="#0F7CE8" d="M.49 17.116C.49 7.88 7.976.391 17.213.391c9.238 0 16.726 7.488 16.726 16.725 0 9.238-7.488 16.726-16.726 16.726C7.977 33.842.49 26.354.49 17.116" transform="translate(11 11)"/>
                <path fill="#40A0FF" d="M0 16.725C0 7.488 7.488 0 16.725 0c9.237 0 16.726 7.488 16.726 16.725 0 9.237-7.489 16.726-16.726 16.726C7.488 33.45 0 25.962 0 16.725" transform="translate(11 11)"/>
                <path fill="#1A82FF" d="M3.119 16.725C3.119 9.211 9.21 3.12 16.725 3.12c7.515 0 13.607 6.092 13.607 13.606 0 7.515-6.092 13.607-13.607 13.607-7.514 0-13.606-6.092-13.606-13.607" transform="translate(11 11)"/>
                <path fill="#0F7CE8" d="M3.51 17.116C3.51 9.602 9.602 3.51 17.117 3.51c3.657 0 6.978 1.444 9.423 3.792-2.476-2.578-5.958-4.183-9.815-4.183C9.211 3.119 3.12 9.21 3.12 16.725c0 3.857 1.605 7.339 4.183 9.815-2.348-2.445-3.792-5.766-3.792-9.424" transform="translate(11 11)"/>
                <path fill="#FFF" d="M22.714 12.917l-2.357 2.357c.094.467.142.98.142 1.534 0 2.981-1.4 4.762-3.746 4.762-.978 0-1.804-.313-2.427-.91l8.167-8.166c-.219-.387-.468-.75-.75-1.08-.117-.14-.241-.27-.368-.396h.001l-.051-.05c-.038-.036-.074-.075-.112-.11l-.002.001C20.025 9.754 18.5 9.17 16.753 9.17c-2.02 0-3.742.776-4.98 2.244-1.166 1.38-1.808 3.295-1.808 5.394 0 1.394.285 2.707.817 3.836l2.37-2.37c-.083-.448-.125-.938-.125-1.466 0-1.372.28-2.482.83-3.298.647-.958 1.648-1.464 2.896-1.464.972 0 1.78.307 2.395.876l-8.15 8.15c.224.407.483.785.774 1.13.059.07.12.135.18.201l.001.002c.07.076.141.15.214.222l.027.027.07.07.002-.003c1.186 1.129 2.722 1.724 4.487 1.724 2.02 0 3.746-.775 4.99-2.243 1.173-1.381 1.818-3.297 1.818-5.394 0-1.416-.295-2.749-.847-3.891" transform="translate(11 11)"/>
            </g>
        </g>
    </g>
</svg>
