<svg xmlns="http://www.w3.org/2000/svg" width="53" height="53" viewBox="0 0 53 53">
    <g fill="none" fill-rule="evenodd">
        <g>
            <g>
                <g>
                    <g>
                        <g>
                            <g>
                                <path fill="#1A82FF" d="M25.862 0c14.284 0 25.862 11.579 25.862 25.862 0 14.284-11.578 25.862-25.862 25.862C11.58 51.724 0 40.146 0 25.862 0 11.58 11.579 0 25.862 0z" transform="translate(-184 -22) translate(15 -125) translate(125.21 145.788) translate(44.473 1.519)"/>
                                <path fill="#FFF" d="M33.153 22.745c.19.95.29 1.992.29 3.117 0 6.058-2.842 9.675-7.602 9.675-1.985 0-3.66-.636-4.923-1.848l16.57-16.592c-.444-.787-.95-1.523-1.52-2.195-.24-.282-.492-.547-.749-.803l.002-.003c-.034-.033-.07-.065-.103-.098-.077-.075-.15-.153-.228-.225l-.005.003c-2.405-2.246-5.499-3.431-9.044-3.431-4.097 0-7.592 1.576-10.106 4.557-2.364 2.804-3.666 6.697-3.666 10.96 0 2.834.578 5.5 1.657 7.794l4.808-4.814c-.167-.912-.252-1.906-.252-2.98 0-2.788.567-5.043 1.685-6.701 1.31-1.945 3.342-2.974 5.874-2.974 1.971 0 3.612.623 4.86 1.78L14.164 34.527c.455.826.98 1.595 1.57 2.296.119.14.241.275.364.409l.003.003c.142.155.287.305.434.451l.056.056c.047.046.092.095.14.14l.005-.004c2.407 2.293 5.524 3.503 9.104 3.503 4.1 0 7.601-1.576 10.127-4.558 2.377-2.807 3.687-6.7 3.687-10.96 0-2.877-.6-5.584-1.72-7.905l-4.782 4.788z" transform="translate(-184 -22) translate(15 -125) translate(125.21 145.788) translate(44.473 1.519)"/>
                            </g>
                        </g>
                    </g>
                </g>
            </g>
        </g>
    </g>
</svg>
