<svg xmlns="http://www.w3.org/2000/svg" width="215" height="130" viewBox="0 0 215 130">
    <defs>
        <linearGradient id="a" x1="30.814%" x2="3.606%" y1="48.217%" y2="46.47%">
            <stop offset="0%" stop-opacity=".1"/>
            <stop offset="100%" stop-opacity=".05"/>
        </linearGradient>
        <linearGradient id="b" x1="36.413%" x2="73.664%" y1="52.838%" y2="45.078%">
            <stop offset="0%" stop-color="#2693FF"/>
            <stop offset="100%" stop-color="#54AAFF"/>
        </linearGradient>
        <linearGradient id="c" x1=".019%" x2="100.001%" y1="50.01%" y2="50.01%">
            <stop offset="0%" stop-color="#0F7CE8"/>
            <stop offset="99.98%" stop-color="#3892FF"/>
        </linearGradient>
        <linearGradient id="d" x1="30.814%" x2="3.606%" y1="48.217%" y2="46.469%">
            <stop offset="0%" stop-opacity=".1"/>
            <stop offset="100%" stop-opacity=".05"/>
        </linearGradient>
        <linearGradient id="e" x1="36.413%" x2="73.664%" y1="52.84%" y2="45.082%">
            <stop offset="0%" stop-color="#2693FF"/>
            <stop offset="100%" stop-color="#54AAFF"/>
        </linearGradient>
        <linearGradient id="f" x1=".019%" x2="100.001%" y1="50.097%" y2="50.097%">
            <stop offset="0%" stop-color="#0F7CE8"/>
            <stop offset="99.98%" stop-color="#3892FF"/>
        </linearGradient>
        <linearGradient id="g" x1="46.118%" x2="5.191%" y1="49.465%" y2="43.774%">
            <stop offset="0%" stop-opacity=".1"/>
            <stop offset="100%" stop-opacity=".05"/>
        </linearGradient>
        <linearGradient id="h" x1="36.618%" x2="58.244%" y1="61.327%" y2="22.696%">
            <stop offset="0%" stop-color="#0F7CE8"/>
            <stop offset="99.98%" stop-color="#3892FF"/>
        </linearGradient>
        <linearGradient id="i" x1="34.059%" x2="66.41%" y1="80.749%" y2="18.401%">
            <stop offset="0%" stop-color="#2693FF"/>
            <stop offset="100%" stop-color="#54AAFF"/>
        </linearGradient>
    </defs>
    <g fill="none" fill-rule="nonzero">
        <path fill="url(#a)" d="M.04 50.18c0-11.243 36.332-20.317 63.474-20.317 27.141 0 41.974 9.113 41.974 20.317 0 11.203-14.833 20.316-41.974 20.316C36.372 70.496.039 61.423.039 50.18z" transform="translate(101.78)"/>
        <path fill="url(#b)" d="M29.35 48.562c-9.389-5.404-14.122-12.505-14.242-19.645-.078-7.338 4.735-14.676 14.44-20.317C48.72-2.485 79.688-2.525 98.742 8.482c9.39 5.404 14.123 12.505 14.242 19.646.078 7.337-4.734 14.675-14.439 20.316-19.173 11.085-50.14 11.125-69.195.118z" transform="translate(101.78)"/>
        <path fill="url(#c)" d="M15.11 42.96c.078 7.14 4.812 14.242 14.24 19.646 19.055 11.007 50.022 10.928 69.195-.118 9.705-5.602 14.517-12.979 14.44-20.316V28.128c.077 7.337-4.735 14.675-14.44 20.316-19.173 11.085-50.14 11.125-69.195.118-9.389-5.404-14.122-12.505-14.24-19.645V42.96z" transform="translate(101.78)"/>
        <path fill="#FFF" d="M188.569 30.613h-10.415c-.828.71-1.854 1.42-3.077 2.13-6.549 3.787-13.57 4.26-18.778 1.263-2.17-1.263-3.314-2.723-3.393-4.261l36.057.079c.355-.79.631-1.539.71-2.328.04-.315.04-.67.04-.986v-.118-.276c-.197-2.92-2.288-5.602-6.154-7.85-4.458-2.565-9.981-3.788-15.977-3.512-5.602.276-11.243 1.894-15.899 4.537-3.077 1.775-5.325 3.787-6.627 5.917h10.454c.79-.67 1.775-1.341 2.959-2.012 3.037-1.735 6.075-2.8 9.113-3.116 3.55-.395 6.864.237 9.625 1.854 2.17 1.223 3.275 2.683 3.393 4.182l-35.978-.08a8.058 8.058 0 0 0-.789 2.447c-.04.157-.04.315-.04.473v.789c.158 2.959 2.25 5.68 6.155 7.93 4.458 2.603 10.02 3.786 15.977 3.55 5.641-.276 11.282-1.854 15.898-4.537 3.195-1.854 5.483-3.905 6.746-6.075z"/>
        <g>
            <path fill="url(#d)" d="M.04 50.18c0-11.243 36.332-20.317 63.474-20.317 27.141 0 41.974 9.113 41.974 20.317 0 11.243-14.833 20.316-41.974 20.316C36.372 70.496.039 61.383.039 50.18z" transform="translate(62.33 59.174)"/>
            <path fill="url(#e)" d="M29.35 48.562c-9.389-5.404-14.122-12.505-14.242-19.645-.078-7.338 4.735-14.676 14.44-20.317C48.72-2.485 79.688-2.525 98.742 8.482c9.39 5.404 14.123 12.505 14.242 19.646.078 7.337-4.734 14.675-14.439 20.316-19.173 11.046-50.14 11.125-69.195.118z" transform="translate(62.33 59.174)"/>
            <path fill="url(#f)" d="M15.11 42.921c.078 7.14 4.812 14.241 14.24 19.646 19.055 11.006 50.022 10.927 69.195-.118 9.705-5.602 14.517-12.98 14.44-20.317V28.088c.077 7.338-4.735 14.675-14.44 20.317-19.173 11.085-50.14 11.124-69.195.118-9.389-5.405-14.122-12.506-14.24-19.646v14.044z" transform="translate(62.33 59.174)"/>
            <path fill="#FFF" d="M149.12 89.787h-10.415c-.829.71-1.855 1.42-3.077 2.13-6.55 3.788-13.571 4.261-18.778 1.263-2.17-1.263-3.314-2.722-3.393-4.26l36.057.078c.355-.789.631-1.538.71-2.327.04-.316.04-.671.04-.987v-.118-.276c-.198-2.92-2.289-5.602-6.155-7.85-4.458-2.565-9.98-3.788-15.977-3.512-5.602.277-11.243 1.894-15.898 4.537-3.077 1.775-5.326 3.787-6.628 5.918h10.455c.789-.671 1.775-1.342 2.958-2.012 3.038-1.736 6.075-2.801 9.113-3.117 3.55-.394 6.864.237 9.626 1.854 2.17 1.263 3.274 2.683 3.392 4.182l-35.978-.079a8.058 8.058 0 0 0-.789 2.446c-.039.158-.039.315-.039.473v.789c.158 2.959 2.249 5.681 6.154 7.93 4.458 2.603 10.02 3.787 15.977 3.55 5.642-.276 11.283-1.854 15.898-4.537 3.196-1.854 5.484-3.905 6.746-6.075z"/>
        </g>
        <g transform="translate(0 28.404)">
            <ellipse cx="37.28" cy="79.451" fill="url(#g)" rx="37.24" ry="20.317"/>
            <path fill="url(#h)" d="M43.828 94.521L30.81 87.026c-6.272-3.59-10.178-11.283-10.178-22.29 0-22.012 15.543-48.798 34.716-59.844C65.013-.671 73.77-1.183 80.043 2.485l13.018 7.496-49.233 84.54z"/>
            <path fill="url(#i)" d="M33.65 72.232c0-22.013 15.544-48.799 34.716-59.845 9.665-5.562 18.423-6.075 24.695-2.406 6.194 3.63 9.981 11.282 9.981 22.21 0 22.013-15.543 48.799-34.715 59.845-9.587 5.523-18.266 6.075-24.538 2.485-6.272-3.59-10.139-11.282-10.139-22.289z"/>
            <path fill="#FFF" d="M81.227 35.268l-4.892 8.482c.197.986.315 2.17.315 3.51 0 7.14-2.919 13.058-7.81 15.899-2.052 1.183-3.748 1.42-5.05.75l17.003-29.351a8.134 8.134 0 0 0-1.578-1.697c-.237-.197-.513-.355-.75-.512-.04-.04-.079-.04-.118-.04l-.237-.118c-2.485-1.223-5.641-.79-9.27 1.341-4.222 2.446-7.812 6.351-10.376 11.362-2.446 4.694-3.747 10.06-3.747 15.07 0 3.313.591 6.114 1.696 8.205l4.931-8.521a20.934 20.934 0 0 1-.276-3.354c0-3.274.592-6.272 1.736-8.876 1.341-3.077 3.432-5.483 6.035-6.982 2.012-1.184 3.709-1.42 4.971-.79L56.847 68.919c.473.71.986 1.302 1.617 1.776.119.078.237.197.355.276.158.079.276.197.434.276l.04.04c.04.039.079.039.157.078 2.486 1.263 5.681.829 9.35-1.262 4.221-2.446 7.811-6.352 10.415-11.362 2.446-4.694 3.787-10.06 3.787-15.07 0-3.51-.592-6.311-1.775-8.402z"/>
        </g>
    </g>
</svg>
