<svg xmlns="http://www.w3.org/2000/svg" xmlns:xlink="http://www.w3.org/1999/xlink" width="81" height="66" viewBox="0 0 81 66">
    <defs>
        <path id="a" d="M0 .003h45.133V26.07H0z"/>
        <path id="c" d="M.022.075h45.134v26.068H.022z"/>
        <path id="e" d="M.022.019h45.134v26.067H.022z"/>
    </defs>
    <g fill="none" fill-rule="evenodd">
        <path fill="#000" fill-opacity=".1" d="M43.299 24.851c2.446 1.412 2.446 3.723 0 5.135L18.08 44.546c-2.446 1.412-6.448 1.412-8.894 0L1.834 40.29c-2.446-1.413-2.446-3.723 0-5.136l25.218-14.559c2.446-1.412 6.449-1.412 8.895 0l7.352 4.255z"/>
        <path fill="#455D75" d="M13.633 26.875c-1.612 0-3.223-.353-4.446-1.06L1.835 21.56C.643 20.872.036 19.97.005 19.064v17.735c.031.907.638 1.81 1.83 2.497l7.352 4.255c1.223.706 2.834 1.06 4.446 1.06V26.875z"/>
        <path fill="#2E3F53" d="M13.633 26.875c1.612 0 3.225-.353 4.448-1.06L43.3 11.257c1.256-.725 1.862-1.688 1.828-2.644v17.736c.034.956-.572 1.919-1.828 2.644L18.08 43.552c-1.223.706-2.836 1.059-4.448 1.059V26.875z"/>
        <g transform="translate(0 .804)">
            <mask id="b" fill="#fff">
                <use xlink:href="#a"/>
            </mask>
            <path fill="#EBF0F3" d="M43.299 5.317c2.446 1.412 2.446 3.723 0 5.135L18.08 25.012c-2.446 1.412-6.448 1.412-8.894 0l-7.353-4.256c-2.446-1.412-2.446-3.723 0-5.135l25.218-14.56c2.446-1.411 6.449-1.411 8.895 0l7.352 4.256z" mask="url(#b)"/>
        </g>
        <g transform="translate(34.988 39.724)">
            <mask id="d" fill="#fff">
                <use xlink:href="#c"/>
            </mask>
            <path fill="#000" fill-opacity=".1" d="M43.321 5.39c2.446 1.411 2.446 3.722 0 5.134l-25.217 14.56c-2.446 1.412-6.449 1.412-8.895 0l-7.352-4.255c-2.446-1.412-2.446-3.723 0-5.135l25.217-14.56c2.446-1.412 6.449-1.412 8.895 0l7.352 4.255z" mask="url(#d)"/>
        </g>
        <path fill="#455D75" d="M48.644 47.137c-1.612 0-3.224-.353-4.446-1.06l-7.353-4.254c-1.192-.689-1.798-1.59-1.828-2.497V57.06c.03.907.636 1.81 1.828 2.497l7.353 4.256c1.222.705 2.834 1.059 4.446 1.059V47.137z"/>
        <path fill="#2E3F53" d="M48.644 47.137c1.612 0 3.225-.353 4.448-1.06L78.31 31.519c1.256-.725 1.862-1.688 1.828-2.644V46.61c.034.956-.572 1.919-1.828 2.644l-25.218 14.56c-1.223.706-2.836 1.059-4.448 1.059V47.137z"/>
        <g transform="translate(34.988 21.05)">
            <mask id="f" fill="#fff">
                <use xlink:href="#e"/>
            </mask>
            <path fill="#EBF0F3" d="M43.321 5.333c2.446 1.412 2.446 3.723 0 5.135l-25.217 14.56c-2.446 1.412-6.449 1.412-8.895 0l-7.352-4.256c-2.446-1.412-2.446-3.723 0-5.135l25.217-14.56c2.446-1.411 6.449-1.411 8.895 0l7.352 4.256z" mask="url(#f)"/>
        </g>
        <path fill="#0072BF" d="M48.644 46.428c-1.612 0-3.224-.353-4.446-1.059L1.835 20.852c-1.192-.688-1.799-1.59-1.83-2.497v.709c.031.907.638 1.808 1.83 2.497l42.363 24.517c1.222.706 2.834 1.059 4.446 1.059v-.709z"/>
        <path fill="#005499" d="M48.644 46.428c1.612 0 3.225-.353 4.448-1.059L78.31 30.81c1.256-.725 1.862-1.687 1.828-2.643v.708c.034.956-.572 1.919-1.828 2.644l-25.218 14.56c-1.223.706-2.836 1.059-4.448 1.059v-.709z"/>
        <path fill="#1A82FF" d="M78.31 25.674c2.446 1.413 2.446 3.723 0 5.136L53.092 45.37c-2.446 1.411-6.448 1.411-8.894 0L1.834 20.851c-2.445-1.412-2.445-3.723 0-5.135l25.218-14.56c2.446-1.412 6.449-1.412 8.894 0L78.31 25.674z"/>
        <path fill="#000" fill-opacity=".1" d="M20.35 48.084l8.7 5.023c.56.323.843.746.848 1.169.005.426-.273.853-.835 1.178l-8.177 4.743c-1.119.646-2.939.643-4.065-.007l-8.7-5.023c-.563-.325-.846-.749-.849-1.173-.003-.426.275-.85.836-1.175l8.176-4.743c1.119-.646 2.94-.643 4.065.008"/>
        <path fill="#455D75" d="M18.027 43.52v14.61c0 .098.064.195.193.27.256.148.67.149.925.001.127-.073.19-.169.19-.265V43.52h-1.308z"/>
        <path fill="#6F8294" d="M19.145 43.79c.127-.072.19-.168.19-.265s-.064-.194-.193-.269c-.256-.148-.67-.148-.925-.001-.127.073-.19.169-.19.265 0 .097.064.195.193.27.256.147.67.148.925 0"/>
        <path fill="#455D75" d="M27.129 39.852v14.61c0 .098.064.195.193.27.256.148.67.148.925.001.127-.073.19-.169.19-.265V39.852H27.13z"/>
        <path fill="#6F8294" d="M28.247 40.123c.127-.074.19-.17.19-.266 0-.097-.064-.194-.193-.269a1.022 1.022 0 0 0-.925-.001c-.127.073-.19.169-.19.265 0 .097.064.195.193.269.256.148.67.149.925.002"/>
        <path fill="#455D75" d="M9.468 39.852v14.61c0 .098.064.195.193.27.256.148.67.148.925.001.127-.073.19-.169.19-.265V39.852H9.468z"/>
        <path fill="#6F8294" d="M10.586 40.123c.127-.074.19-.17.19-.266 0-.097-.064-.194-.193-.269-.256-.148-.67-.149-.925-.001-.127.073-.19.169-.19.265 0 .097.064.195.193.269.256.148.67.149.925.002"/>
        <path fill="#98A7B4" d="M7.272 39.05v1.1c.004.423.286.847.848 1.172l8.7 5.023c1.127.65 2.947.653 4.066.007l8.177-4.743c.562-.325.84-.751.835-1.178v-1.1L7.272 39.05z"/>
        <path fill="#FFF" d="M20.35 33.14l8.7 5.022c.56.324.843.747.848 1.17.005.426-.273.853-.835 1.178l-8.177 4.743c-1.119.646-2.939.643-4.065-.007l-8.7-5.024c-.563-.324-.846-.748-.849-1.172-.003-.426.275-.851.836-1.175l8.176-4.743c1.119-.646 2.94-.643 4.065.007"/>
        <path fill="#A5B3C4" d="M19.649 38.34l1.306-.53c.602-.182.99-.791.99-1.728v-5.204c0-1.6-1.13-3.548-2.523-4.352l-8.61-4.971c-.79-.456-1.496-.447-1.959-.06l-1.163.603L19.649 38.34z"/>
        <path fill="#C2CBD3" d="M7.013 23.58c0-1.599 1.13-2.243 2.523-1.438l8.61 4.97c1.394.805 2.523 2.754 2.523 4.353v5.204c0 1.599-1.13 2.243-2.523 1.438l-8.61-4.97c-1.393-.805-2.523-2.754-2.523-4.353V23.58z"/>
        <path fill="#455D75" d="M13.815 31.157v11.35c0 .097.064.195.193.27.256.147.67.148.925 0 .127-.072.19-.168.19-.265V31.157h-1.308z"/>
        <path fill="#6F8294" d="M14.933 31.428c.127-.073.19-.17.19-.266 0-.097-.064-.194-.193-.269a1.022 1.022 0 0 0-.925-.001c-.126.073-.19.169-.19.265 0 .097.064.195.193.27.256.147.67.148.925 0"/>
        <path fill="#455D75" d="M11.505 29.934v11.35c0 .098.065.195.194.27.256.148.67.148.925.001.126-.073.19-.169.19-.265V29.934h-1.309z"/>
        <path fill="#6F8294" d="M12.624 30.205c.126-.073.19-.17.19-.265 0-.097-.064-.195-.193-.27a1.022 1.022 0 0 0-.925-.001c-.127.073-.19.17-.19.265 0 .098.064.195.193.27.256.147.67.148.925.001"/>
        <path fill="#455D75" d="M11.597 30.491l2.738 1.57c.084.048.201.04.33-.034.256-.148.464-.506.464-.8 0-.146-.052-.25-.135-.297l-2.743-1.572-.654 1.133z"/>
        <path fill="#455D75" d="M12.39 29.658c0-.146-.051-.25-.135-.297-.084-.05-.2-.042-.33.032a1.022 1.022 0 0 0-.463.8c0 .147.051.25.135.298.084.049.2.042.33-.033.255-.148.463-.506.463-.8"/>
        <path fill="#FFF" d="M27.943 12.493c-1.021.047-2.005.343-2.952.89-.933.539-1.44 1.103-1.522 1.693-.082.59.315 1.136 1.19 1.641a5.063 5.063 0 0 0 2.823.676 6.383 6.383 0 0 0 2.932-.88c.947-.546 1.46-1.114 1.542-1.704.081-.589-.309-1.132-1.17-1.63a5.103 5.103 0 0 0-2.843-.686m9.509.974c.48.974.498 1.954.055 2.941-.444.987-1.34 1.87-2.688 2.649-1.35.778-2.879 1.296-4.588 1.552-1.71.256-3.414.245-5.113-.032-1.7-.277-3.195-.789-4.487-1.535-1.305-.753-2.198-1.62-2.678-2.602-.48-.98-.502-1.967-.064-2.957.436-.991 1.33-1.876 2.678-2.654 1.349-.78 2.881-1.295 4.597-1.547a16.434 16.434 0 0 1 5.113.043c1.693.281 3.192.798 4.497 1.552 1.305.753 2.198 1.617 2.678 2.59M54.097 22.302l-3.424 1.977-3.68-2.125-10.35 5.976-4.345-2.51 10.349-5.975-3.641-2.102 3.424-1.977zM64.417 28.878c.498.805.636 1.614.413 2.429-.224.814-.782 1.593-1.675 2.335l-4.581-2.645c.245-.383.301-.758.17-1.126-.133-.369-.447-.696-.943-.982-.73-.422-1.58-.598-2.55-.529-.968.07-1.913.37-2.834.902-.92.532-1.441 1.077-1.562 1.637-.12.559.185 1.05.916 1.472a4.41 4.41 0 0 0 1.7.543 5.92 5.92 0 0 0 1.951-.097l4.581 2.644a14.286 14.286 0 0 1-4.044.968 14.27 14.27 0 0 1-4.207-.24 12.978 12.978 0 0 1-3.891-1.47c-1.397-.807-2.316-1.678-2.756-2.614-.441-.936-.407-1.871.102-2.805.508-.934 1.444-1.795 2.806-2.58a13.785 13.785 0 0 1 4.47-1.62 14.461 14.461 0 0 1 4.858-.06c1.621.255 3.13.785 4.527 1.592 1.2.693 2.05 1.441 2.549 2.246"/>
    </g>
</svg>
