<svg xmlns="http://www.w3.org/2000/svg" xmlns:xlink="http://www.w3.org/1999/xlink" width="55" height="55" viewBox="0 0 55 55">
    <defs>
        <linearGradient id="k0y3xs7g3a" x1="50.898%" x2="41.036%" y1="79.568%" y2="-11.87%">
            <stop offset=".058%" stop-color="#FFF"/>
            <stop offset="100%" stop-color="#1E313F"/>
        </linearGradient>
        <linearGradient id="clkwzflv4b" x1="48.094%" x2="58.005%" y1="17.958%" y2="112.287%">
            <stop offset=".058%" stop-color="#FFF"/>
            <stop offset="99.67%" stop-color="#4E5A64"/>
        </linearGradient>
        <path id="30ewto4jmc" d="M0 0L10.393 0 10.393 10.393 0 10.393z"/>
    </defs>
    <g fill="none" fill-rule="evenodd">
        <g>
            <g>
                <g>
                    <g>
                        <g>
                            <g>
                                <g fill-rule="nonzero">
                                    <g transform="translate(-140 -21) translate(15 -125) translate(125.21 145.788) translate(.203 .293)">
                                        <circle cx="27.236" cy="27.236" r="27.066" fill="#1E313F" transform="rotate(-.192 27.236 27.236)"/>
                                        <path fill="#FFF" d="M44.163 44.051c9.285-9.352 9.24-24.436-.112-33.72-9.352-9.285-24.436-9.24-33.72.112l33.832 33.608z" opacity=".2"/>
                                    </g>
                                    <g>
                                        <path fill="#FAFBFC" d="M14.972 14.59c-.27-.045-.517-.113-.764-.158-3.328-.674-5.733-1.146-5.733-3.462 0-1.438 1.416-2.585 3.957-2.585 2.27 0 4.069.922 5.237 2.653l.18.045 3.62-3.71-.023-.134c-1.439-1.709-3.26-2.9-5.35-3.53-.292-.09-.562-.157-.854-.225h-.023c-.112-.022-.202-.045-.315-.067V.135H9.96v3.282c-.158.022-.315.067-.472.09h-.023c-2.338.562-4.383 1.776-5.98 3.642-.674 1.124-1.011 2.473-1.011 4.024 0 5.305 4.001 6.991 7.913 7.935.72.18 1.439.315 2.135.427 2.45.45 4.564.832 4.564 3.035 0 1.371-1.506 3.08-4.653 3.08-1.866 0-3.395-.63-4.519-1.776-.067-.067-.157-.135-.225-.202l-4.271 2.967v.157c.607.72 1.281 1.35 2 1.889.248.18.495.337.743.494h.022c.247.158.517.293.764.427 0 0 .023 0 .023.023.27.135.517.247.787.36.022 0 .022 0 .045.022.27.113.54.202.809.292.022 0 .045 0 .045.023.135.045.247.067.382.112h.045c.135.045.27.068.427.113.023 0 .045 0 .068.022.112.023.247.045.36.068v3.282h4.945V30.64c.09-.023.18-.023.27-.045h.045c.337-.068.674-.158 1.011-.27.158-.045.337-.113.495-.158 1.82-.674 3.417-1.798 4.72-3.327.495-.584.922-1.191 1.305-1.865.202-.72.292-1.53.292-2.383.022-5.71-4.294-7.261-8.048-8.003z" transform="translate(-140 -21) translate(15 -125) translate(125.21 145.788) translate(15.007 10.511)"/>
                                        <path fill="url(#k0y3xs7g3a)" d="M3.44 26.774c-.248-.292-.473-.585-.675-.9-.09-.134-.18-.269-.27-.381-.022-.023-.045-.068-.067-.09-.068-.113-.157-.248-.225-.382l-.067-.135c-.068-.113-.135-.248-.203-.36l-.067-.135c-.068-.112-.135-.247-.18-.382-.022-.045-.045-.112-.067-.157-.068-.135-.113-.248-.18-.383-.023-.045-.045-.09-.068-.157-.045-.135-.112-.27-.157-.405 0-.022-.023-.067-.023-.09-.112-.314-.224-.629-.314-.944 0-.022-.023-.045-.023-.09-.022-.112-.067-.224-.09-.337l-.067-.27c-.023-.112-.045-.202-.068-.314-.022-.09-.045-.203-.067-.293-.022-.112-.045-.202-.067-.314l-.068-.337c-.022-.09-.022-.203-.045-.293-.022-.112-.045-.225-.045-.36-.022-.09-.022-.18-.045-.292-.022-.135-.022-.247-.045-.382 0-.09-.022-.18-.022-.27 0-.157-.023-.292-.023-.45 0-.067 0-.134-.022-.224 0-.225-.023-.45-.023-.674 0-.225 0-.428.023-.652v-.203c0-.157.022-.292.022-.45 0-.067.023-.157.023-.224.022-.135.022-.292.045-.427 0-.068.022-.135.022-.203.023-.18.045-.337.068-.494 0-.045 0-.09.022-.112.023-.203.068-.405.113-.607.022-.068.022-.135.045-.18.022-.135.067-.27.09-.405.022-.067.044-.157.044-.225.023-.135.068-.247.09-.382.023-.067.045-.157.068-.225.045-.135.09-.27.112-.404.023-.068.045-.113.068-.18l.202-.54c.022-.067.045-.112.067-.18.045-.134.09-.247.158-.382.022-.067.067-.135.09-.225.045-.112.09-.202.157-.314.045-.068.067-.158.112-.225.045-.112.113-.202.158-.315.045-.067.067-.135.112-.202l.27-.472c-.202.742-.292 1.551-.292 2.405 0 2.923 1.236 5.148 3.686 6.654.135 2.63.9 4.699 2.204 6.025l-4.497 2.945z" transform="translate(-140 -21) translate(15 -125) translate(125.21 145.788) translate(15.007 10.511)"/>
                                        <path fill="url(#clkwzflv4b)" d="M17.692 11.038c.764 1.146 1.259 2.585 1.439 4.316.63.292 1.169.63 1.663 1.012 1.821 1.416 2.743 3.484 2.743 6.114 0 .315-.023.63-.045.944v-.022c.09-.202.18-.427.247-.652.023-.067.045-.112.068-.18.045-.157.112-.315.157-.472.022-.067.045-.157.067-.225.023-.09.068-.202.09-.292.045-.135.068-.247.113-.382.022-.09.045-.202.067-.292l.068-.338c.022-.067.022-.157.045-.224.022-.158.067-.338.09-.495 0-.067.022-.135.022-.202l.067-.54c0-.045 0-.067.023-.112.022-.18.045-.337.045-.517 0-.045 0-.09.022-.135.023-.202.023-.405.045-.607v-.135c0-.202.023-.427.023-.63 0-.224 0-.449-.023-.696 0-.068 0-.135-.022-.225 0-.157-.023-.315-.023-.45 0-.09-.022-.18-.022-.27-.023-.134-.023-.27-.045-.404 0-.09-.023-.18-.045-.292-.023-.135-.023-.248-.045-.383-.023-.09-.023-.202-.045-.292-.022-.112-.045-.247-.067-.36-.023-.09-.045-.202-.068-.292l-.067-.337c-.023-.09-.045-.202-.068-.292-.022-.113-.067-.225-.09-.337-.022-.09-.045-.203-.09-.293-.022-.112-.067-.202-.09-.314-.022-.09-.067-.203-.09-.293-.044-.112-.067-.202-.112-.292-.045-.09-.067-.202-.112-.292-.045-.09-.068-.202-.113-.292-.045-.09-.09-.203-.112-.293l-.135-.27c-.045-.09-.09-.18-.135-.292l-.135-.27c-.045-.09-.09-.18-.157-.27-.045-.089-.09-.179-.157-.246-.045-.09-.113-.18-.158-.27-.045-.09-.112-.157-.157-.247-.158-.248-.337-.495-.517-.742-.135-.18-.27-.337-.405-.495l-3.754 3.867z" transform="translate(-140 -21) translate(15 -125) translate(125.21 145.788) translate(15.007 10.511)"/>
                                    </g>
                                </g>
                                <g transform="translate(-140 -21) translate(15 -125) translate(125.21 145.788) translate(37.629 .95)"/>
                            </g>
                        </g>
                    </g>
                </g>
            </g>
        </g>
    </g>
</svg>
