<svg xmlns="http://www.w3.org/2000/svg" width="18" height="18" viewBox="0 0 18 18">
    <path fill="#FFF" fill-rule="evenodd" d="M13.5 9c0 2.485-2.015 4.5-4.5 4.5S4.5 11.485 4.5 9 6.515 4.5 9 4.5s4.5 2.015 4.5 4.5m-4.522 6c-3.308 0-6-2.692-6-6s2.691-6 6-6c3.31 0 6 2.692 6 6s-2.691 6-6 6m7.588-5.155L18 9l-1.434-.845c-.766-.451-1.029-1.432-.591-2.206l.82-1.449-1.665-.015c-.889-.008-1.607-.726-1.615-1.615L13.5 1.206l-1.449.82c-.773.437-1.755.175-2.206-.591L9 0l-.845 1.435c-.452.765-1.433 1.029-2.206.59L4.5 1.207 4.485 2.87c-.008.889-.726 1.607-1.615 1.615L1.205 4.5l.82 1.449c.438.774.175 1.755-.591 2.207L0 9l1.434.845c.766.451 1.029 1.432.591 2.206l-.82 1.449 1.665.015c.889.008 1.607.726 1.615 1.615l.015 1.664 1.449-.82c.773-.437 1.755-.175 2.206.591L9 18l.845-1.435c.452-.766 1.433-1.029 2.206-.59l1.449.819.015-1.664c.008-.889.727-1.607 1.615-1.615l1.665-.015-.82-1.449c-.438-.773-.176-1.755.591-2.207"/>
</svg>
