<svg xmlns="http://www.w3.org/2000/svg" width="845" height="165" viewBox="0 0 845 165">
    <g fill="none" fill-rule="evenodd">
        <path fill="#111D28" fill-opacity=".1" d="M770.508 161.145c-10.721-6.19-16.08-14.308-16.09-22.446-.01-8.219 5.439-16.457 16.334-22.748 21.684-12.52 56.73-12.582 78.279-.142 10.72 6.19 16.08 14.309 16.09 22.446.009 8.22-5.44 16.458-16.335 22.749-21.684 12.518-56.73 12.582-78.278.141"/>
        <path fill="#1A82FF" d="M865.12 122.874v9.693c.01 8.22-5.438 16.458-16.334 22.749-21.684 12.519-56.73 12.582-78.278.141-10.721-6.19-16.08-14.308-16.09-22.445v-10.138H865.12z"/>
        <path fill="#40A0FF" d="M770.508 145.764c-10.721-6.19-16.08-14.308-16.09-22.446-.01-8.219 5.439-16.457 16.334-22.748 21.684-12.519 56.73-12.582 78.279-.141 10.72 6.19 16.08 14.307 16.09 22.445.009 8.22-5.44 16.458-16.335 22.749-21.684 12.518-56.73 12.582-78.278.141"/>
        <path fill="#1A82FF" d="M809.422 148.446c-13.578 0-26.224-2.984-35.61-8.404-8.239-4.756-12.78-10.698-12.788-16.732-.006-6.03 4.744-12.233 13.032-17.018 9.546-5.511 22.352-8.546 36.061-8.546 13.577 0 26.224 2.985 35.61 8.405 8.239 4.756 12.78 10.698 12.786 16.73.008 6.03-4.742 12.234-13.03 17.02-9.546 5.51-22.353 8.545-36.061 8.545"/>
        <path fill="#0F7CE8" d="M774.056 107.613c9.546-5.511 22.352-8.545 36.061-8.545 13.577 0 26.224 2.984 35.61 8.403 7.938 4.584 12.43 10.268 12.755 16.072.012-.22.031-.441.031-.661-.006-6.033-4.547-11.975-12.785-16.732-9.387-5.42-22.034-8.404-35.61-8.404-13.71 0-26.516 3.035-36.062 8.546-8.288 4.785-13.038 10.988-13.032 17.018 0 .22.02.44.032.659.327-5.82 5.015-11.745 13-16.356"/>
        <path fill="#40A0FF" d="M803.758 135.768l.035-6.38c-1.313-.503-2.625-1.13-3.92-1.877-6.969-4.023-7.835-8.327-2.318-11.512 2.3-1.329 4.974-2.027 7.832-2.068l-.12 22.108c1.42.226 2.853.376 4.287.441.602.028 1.198.035 1.791.033v.002c.079 0 .156-.003.234-.003.174-.002.35 0 .523-.003v-.005c5.374-.119 10.323-1.402 14.432-3.774 4.75-2.742 6.987-6.127 6.472-9.79-.486-3.444-3.454-6.9-8.359-9.732-3.259-1.882-6.996-3.266-10.886-4.068l-.035 6.415c1.243.494 2.485 1.097 3.72 1.81 3.207 1.852 5.143 3.729 5.755 5.578.718 2.17-.453 4.212-3.389 5.906-2.284 1.32-4.902 2.004-7.68 2.07l.12-22.063c-1.477-.244-2.97-.404-4.462-.474-.298-.014-.594-.02-.89-.028h-.009c-.342-.008-.683-.01-1.022-.009h-.452v.007c-5.43.088-10.433 1.37-14.583 3.767-4.752 2.743-6.998 6.133-6.496 9.803.473 3.456 3.433 6.917 8.333 9.747 3.31 1.91 7.12 3.308 11.087 4.1"/>
        <path fill="#111D28" fill-opacity=".1" d="M786.33 123.17c-10.72-6.19-16.08-14.308-16.09-22.445-.009-8.22 5.44-16.458 16.335-22.749 21.684-12.519 56.73-12.582 78.279-.141 10.72 6.19-6.408 21.874-6.399 30.011.01 8.106 6.593 4.272 6.602 14.92-.148.088-.298.176-.449.263-21.683 12.519-56.73 12.582-78.278.141"/>
        <path fill="#1A82FF" d="M880.943 84.9v9.693c.01 8.219-5.439 16.457-16.335 22.748-21.683 12.519-56.73 12.582-78.278.141-10.72-6.19-16.08-14.307-16.09-22.445V84.9h110.703z"/>
        <path fill="#40A0FF" d="M786.33 107.79c-10.72-6.19-16.08-14.309-16.09-22.446-.009-8.22 5.44-16.458 16.335-22.749 21.684-12.519 56.73-12.582 78.279-.141 10.72 6.19 16.08 14.308 16.09 22.446.009 8.219-5.44 16.457-16.336 22.748-21.683 12.519-56.73 12.582-78.278.141"/>
        <path fill="#1A82FF" d="M825.244 110.472c-13.577 0-26.223-2.985-35.61-8.404-8.238-4.756-12.78-10.699-12.787-16.733-.006-6.03 4.744-12.233 13.032-17.018 9.545-5.51 22.351-8.546 36.06-8.546 13.578 0 26.225 2.985 35.612 8.405 8.238 4.756 12.778 10.698 12.785 16.73.008 6.031-4.742 12.234-13.03 17.02-9.546 5.51-22.353 8.546-36.062 8.546"/>
        <path fill="#0F7CE8" d="M789.88 69.639c9.544-5.512 22.35-8.546 36.06-8.546 13.576 0 26.224 2.985 35.61 8.404 7.938 4.584 12.43 10.267 12.754 16.071.012-.22.032-.441.032-.66-.007-6.034-4.547-11.976-12.786-16.733-9.386-5.419-22.034-8.403-35.61-8.403-13.71 0-26.516 3.034-36.06 8.545-8.29 4.785-13.04 10.988-13.033 17.019 0 .22.02.439.032.658.327-5.819 5.015-11.745 13-16.355"/>
        <path fill="#FFF" d="M819.581 97.794l.035-6.381c-1.313-.503-2.625-1.129-3.92-1.877-6.969-4.023-7.835-8.326-2.319-11.512 2.302-1.328 4.974-2.027 7.833-2.068l-.12 22.108c1.42.226 2.853.376 4.286.442.603.027 1.2.034 1.792.032v.003c.079 0 .156-.003.234-.004.174-.002.35.001.523-.003v-.005c5.374-.118 10.322-1.401 14.432-3.774 4.749-2.742 6.987-6.127 6.471-9.79-.485-3.444-3.453-6.9-8.358-9.732-3.259-1.882-6.996-3.266-10.887-4.068l-.034 6.416c1.243.493 2.484 1.097 3.72 1.81 3.207 1.851 5.143 3.728 5.755 5.578.718 2.169-.454 4.211-3.389 5.906-2.284 1.319-4.902 2.004-7.68 2.07l.12-22.063c-1.477-.245-2.97-.404-4.462-.475-.298-.013-.594-.02-.89-.027h-.01c-.341-.008-.682-.011-1.02-.01h-.129c-.108.002-.217-.001-.324 0v.008c-5.43.088-10.433 1.37-14.583 3.766-4.752 2.744-6.998 6.133-6.496 9.803.473 3.456 3.433 6.918 8.333 9.747 3.31 1.91 7.12 3.308 11.087 4.1"/>
        <path fill="#111D28" fill-opacity=".1" d="M773.672 101.018c-10.72-6.19-16.08-14.308-16.09-22.445-.01-8.22 5.44-16.458 16.335-22.749 21.684-12.519 56.73-12.582 78.278-.141 10.72 6.19 16.08 14.308 16.09 22.446.01 8.218-5.439 16.457-16.335 22.748-21.683 12.519-56.73 12.582-78.278.141"/>
        <path fill="#1A82FF" d="M868.285 62.748v9.693c.01 8.219-5.439 16.458-16.335 22.748-21.683 12.52-56.73 12.582-78.278.142-10.72-6.19-16.08-14.308-16.09-22.446V62.748h110.703z"/>
        <path fill="#40A0FF" d="M773.672 85.638c-10.72-6.19-16.08-14.308-16.09-22.446-.01-8.22 5.44-16.458 16.335-22.748 21.684-12.52 56.73-12.583 78.278-.142 10.72 6.19 16.08 14.308 16.09 22.446.01 8.219-5.439 16.457-16.335 22.748-21.683 12.519-56.73 12.582-78.278.142"/>
        <path fill="#1A82FF" d="M812.586 88.32c-13.577 0-26.224-2.985-35.61-8.404-8.238-4.756-12.78-10.699-12.787-16.733-.007-6.03 4.744-12.232 13.032-17.018 9.545-5.51 22.351-8.546 36.06-8.546 13.578 0 26.225 2.985 35.611 8.405 8.238 4.756 12.78 10.698 12.786 16.73.007 6.031-4.742 12.234-13.03 17.02-9.546 5.511-22.354 8.546-36.062 8.546"/>
        <path fill="#0F7CE8" d="M777.22 47.487c9.546-5.512 22.352-8.546 36.062-8.546 13.576 0 26.224 2.985 35.61 8.404 7.937 4.584 12.43 10.267 12.754 16.072.012-.221.032-.442.032-.662-.007-6.032-4.548-11.974-12.786-16.731-9.386-5.42-22.034-8.404-35.61-8.404-13.71 0-26.516 3.034-36.061 8.545-8.288 4.785-13.039 10.988-13.032 17.019 0 .22.02.439.031.658.327-5.819 5.016-11.745 13-16.355"/>
        <path fill="#40A0FF" d="M806.923 75.642l.034-6.38c-1.313-.504-2.625-1.13-3.92-1.877-6.968-4.024-7.835-8.327-2.318-11.513 2.301-1.328 4.974-2.027 7.832-2.068l-.12 22.108c1.42.226 2.854.376 4.287.442.603.027 1.199.034 1.792.032v.003c.078 0 .156-.003.234-.004.174-.001.35.001.523-.003v-.005c5.373-.118 10.322-1.401 14.432-3.774 4.749-2.742 6.986-6.127 6.471-9.79-.485-3.444-3.453-6.9-8.358-9.732-3.259-1.882-6.996-3.266-10.887-4.068l-.035 6.416c1.243.493 2.485 1.097 3.72 1.81 3.208 1.852 5.144 3.728 5.756 5.578.718 2.17-.454 4.212-3.389 5.906-2.284 1.32-4.902 2.004-7.68 2.07l.12-22.063c-1.477-.245-2.97-.404-4.462-.475-.299-.013-.595-.02-.89-.027h-.01c-.342-.008-.682-.01-1.021-.01h-.128c-.108.002-.217 0-.325.001v.007c-5.429.088-10.432 1.37-14.582 3.766-4.752 2.744-6.999 6.133-6.496 9.803.473 3.456 3.432 6.918 8.333 9.747 3.31 1.91 7.12 3.308 11.087 4.1"/>
        <path fill="#111D28" fill-opacity=".1" d="M659.748 168.107c-10.72-6.19-16.08-14.308-16.09-22.446-.01-8.218 5.44-16.457 16.335-22.748 21.683-12.52 56.73-12.582 78.278-.142 10.721 6.19 16.08 14.308 16.09 22.446.01 8.22-5.439 16.458-16.335 22.749-21.683 12.518-56.73 12.582-78.278.141"/>
        <path fill="#1A82FF" d="M754.361 129.836v9.693c.01 8.22-5.439 16.458-16.335 22.749-21.683 12.519-56.73 12.582-78.278.141-10.72-6.19-16.08-14.308-16.09-22.445v-10.138h110.703z"/>
        <path fill="#40A0FF" d="M659.748 152.726c-10.72-6.19-16.08-14.308-16.09-22.446-.01-8.219 5.44-16.457 16.335-22.748 21.683-12.519 56.73-12.582 78.278-.141 10.721 6.19 16.08 14.307 16.09 22.445.01 8.22-5.439 16.458-16.335 22.749-21.683 12.519-56.73 12.582-78.278.141"/>
        <path fill="#1A82FF" d="M698.662 155.408c-13.578 0-26.224-2.984-35.61-8.404-8.239-4.756-12.78-10.698-12.787-16.732-.007-6.03 4.743-12.233 13.032-17.018 9.545-5.511 22.351-8.546 36.06-8.546 13.577 0 26.224 2.985 35.611 8.405 8.238 4.756 12.78 10.698 12.786 16.73.008 6.03-4.742 12.234-13.031 17.02-9.545 5.51-22.353 8.545-36.06 8.545"/>
        <path fill="#0F7CE8" d="M663.297 114.575c9.545-5.51 22.351-8.545 36.06-8.545 13.577 0 26.225 2.984 35.611 8.403 7.937 4.584 12.43 10.268 12.754 16.072.013-.22.032-.441.032-.661-.007-6.033-4.548-11.975-12.786-16.732-9.386-5.42-22.034-8.404-35.61-8.404-13.71 0-26.516 3.035-36.061 8.546-8.288 4.785-13.039 10.988-13.032 17.018 0 .22.02.44.031.659.327-5.82 5.016-11.745 13-16.356"/>
        <path fill="#FFF" d="M693 142.73l.034-6.38c-1.313-.503-2.625-1.13-3.92-1.877-6.97-4.023-7.836-8.327-2.319-11.512 2.301-1.329 4.974-2.027 7.832-2.068l-.12 22.108c1.42.226 2.854.376 4.287.441.603.028 1.199.035 1.792.033v.002c.078 0 .155-.003.233-.003.175-.002.35 0 .524-.003v-.005c5.373-.119 10.322-1.401 14.431-3.774 4.75-2.742 6.987-6.127 6.472-9.79-.485-3.444-3.453-6.9-8.358-9.732-3.26-1.882-6.996-3.266-10.887-4.068l-.035 6.415c1.243.494 2.485 1.097 3.72 1.81 3.207 1.852 5.144 3.729 5.756 5.578.718 2.17-.454 4.212-3.389 5.906-2.285 1.32-4.902 2.004-7.68 2.07l.12-22.063c-1.477-.244-2.97-.404-4.462-.474-.299-.014-.595-.02-.891-.028h-.008c-.342-.008-.683-.01-1.022-.009h-.452v.007c-5.43.088-10.433 1.37-14.583 3.767-4.752 2.743-6.998 6.133-6.497 9.803.474 3.456 3.433 6.917 8.334 9.747 3.31 1.91 7.119 3.308 11.087 4.1"/>
        <path fill="#111D28" fill-opacity=".1" d="M647.09 142.79c-1.199-.692-2.33-1.408-3.395-2.145 0 0-.158-10.328-.166-17.556-.01-8.219-7.09-19.202 3.806-25.492 21.683-12.52 56.73-12.583 78.278-.142 10.72 6.19 16.08 14.308 16.09 22.445.01 8.22-5.44 16.458-16.335 22.75-21.684 12.518-56.73 12.581-78.278.14"/>
        <path fill="#1A82FF" d="M741.703 104.52v9.693c.01 8.22-5.44 16.458-16.335 22.748-21.684 12.52-56.73 12.583-78.278.142-10.72-6.19-16.08-14.308-16.09-22.446V104.52h110.703z"/>
        <path fill="#40A0FF" d="M647.09 127.41c-10.72-6.19-16.08-14.308-16.09-22.446-.01-8.22 5.44-16.458 16.335-22.748 21.683-12.52 56.73-12.583 78.278-.142 10.72 6.19 16.08 14.308 16.09 22.446.01 8.219-5.44 16.457-16.335 22.748-21.684 12.52-56.73 12.582-78.278.142"/>
        <path fill="#1A82FF" d="M686.004 130.092c-13.578 0-26.224-2.985-35.61-8.404-8.239-4.756-12.78-10.699-12.788-16.732-.006-6.03 4.744-12.233 13.033-17.018 9.545-5.512 22.351-8.546 36.06-8.546 13.577 0 26.224 2.984 35.611 8.404 8.238 4.756 12.78 10.698 12.785 16.73.008 6.031-4.742 12.235-13.03 17.02-9.545 5.511-22.353 8.546-36.061 8.546"/>
        <path fill="#0F7CE8" d="M650.639 89.259c9.545-5.511 22.35-8.546 36.06-8.546 13.577 0 26.224 2.985 35.61 8.404 7.938 4.584 12.43 10.267 12.755 16.072.012-.221.032-.442.032-.662-.007-6.032-4.548-11.974-12.786-16.731-9.387-5.42-22.034-8.404-35.61-8.404-13.71 0-26.516 3.034-36.061 8.545-8.289 4.786-13.039 10.988-13.032 17.019 0 .22.019.44.031.658.327-5.819 5.016-11.745 13-16.355"/>
        <path fill="#FFF" d="M680.34 117.414l.035-6.38c-1.313-.504-2.625-1.13-3.92-1.877-6.968-4.024-7.835-8.327-2.318-11.513 2.301-1.328 4.974-2.027 7.832-2.068l-.12 22.109c1.42.225 2.854.375 4.287.441.603.027 1.198.034 1.792.033v.002c.078 0 .155-.003.233-.004.174-.001.35.001.524-.003v-.005c5.373-.118 10.322-1.401 14.431-3.774 4.75-2.742 6.987-6.127 6.472-9.79-.485-3.444-3.454-6.9-8.359-9.732-3.258-1.881-6.995-3.266-10.886-4.068l-.035 6.416c1.243.494 2.485 1.097 3.72 1.81 3.207 1.852 5.144 3.728 5.756 5.578.718 2.17-.454 4.212-3.39 5.906-2.284 1.32-4.902 2.004-7.68 2.07l.12-22.063c-1.476-.244-2.97-.404-4.461-.474-.299-.014-.595-.021-.891-.028h-.009c-.342-.008-.682-.01-1.021-.01h-.129c-.107.002-.216 0-.324.001v.007c-5.429.088-10.432 1.37-14.583 3.766-4.751 2.744-6.998 6.133-6.496 9.803.473 3.456 3.433 6.918 8.333 9.747 3.31 1.911 7.12 3.309 11.088 4.1"/>
        <path fill="#111D28" fill-opacity=".1" d="M666.077 120.639c-10.72-6.19-16.08-14.308-16.09-22.446-.01-8.219 5.44-16.458 16.335-22.748 21.684-12.52 56.73-12.583 78.279-.142 10.72 6.19 16.08 14.308 16.09 22.446.009 8.219-5.44 16.457-16.336 22.748-21.683 12.52-56.73 12.582-78.278.142"/>
        <path fill="#1A82FF" d="M760.69 82.368v9.693c.01 8.22-5.439 16.458-16.335 22.748-21.683 12.52-56.73 12.583-78.278.142-10.72-6.19-16.08-14.308-16.09-22.446V82.368H760.69z"/>
        <path fill="#40A0FF" d="M666.077 105.258c-10.72-6.19-16.08-14.308-16.09-22.446-.01-8.22 5.44-16.458 16.335-22.748 21.684-12.52 56.73-12.583 78.279-.142 10.72 6.19 16.08 14.308 16.09 22.446.009 8.219-5.44 16.457-16.336 22.748-21.683 12.52-56.73 12.583-78.278.142"/>
        <path fill="#1A82FF" d="M704.991 107.94c-13.578 0-26.224-2.985-35.61-8.404-8.238-4.756-12.78-10.698-12.787-16.732-.007-6.03 4.743-12.233 13.032-17.018 9.545-5.511 22.351-8.546 36.06-8.546 13.577 0 26.225 2.985 35.611 8.404 8.238 4.757 12.78 10.699 12.786 16.73.008 6.032-4.742 12.235-13.03 17.02-9.546 5.511-22.353 8.546-36.062 8.546"/>
        <path fill="#0F7CE8" d="M669.626 67.107c9.545-5.511 22.351-8.546 36.06-8.546 13.577 0 26.225 2.985 35.611 8.404 7.938 4.584 12.43 10.267 12.754 16.072.013-.221.032-.442.032-.662-.007-6.032-4.548-11.974-12.786-16.731-9.386-5.42-22.034-8.404-35.61-8.404-13.71 0-26.516 3.034-36.061 8.546-8.288 4.785-13.039 10.988-13.032 17.018 0 .22.02.44.031.658.328-5.819 5.016-11.745 13.001-16.355"/>
        <path fill="#FFF" d="M699.328 95.262l.035-6.38c-1.313-.504-2.625-1.13-3.92-1.877-6.969-4.024-7.836-8.327-2.319-11.513 2.301-1.328 4.974-2.026 7.832-2.068l-.12 22.109c1.42.226 2.854.375 4.287.441.603.027 1.199.034 1.792.033v.002c.078 0 .156-.003.233-.004.175-.001.35.001.524-.003v-.005c5.374-.118 10.322-1.401 14.431-3.774 4.75-2.742 6.988-6.127 6.472-9.79-.485-3.443-3.453-6.9-8.358-9.732-3.26-1.881-6.996-3.266-10.887-4.067l-.034 6.415c1.242.494 2.484 1.097 3.72 1.81 3.206 1.852 5.143 3.728 5.755 5.578.718 2.17-.454 4.212-3.389 5.906-2.285 1.32-4.902 2.004-7.68 2.07l.12-22.063c-1.477-.244-2.97-.404-4.462-.474-.299-.014-.595-.02-.891-.028h-.008c-.342-.008-.683-.01-1.022-.009h-.128c-.108 0-.217-.002-.324 0v.007c-5.43.088-10.433 1.37-14.583 3.766-4.752 2.744-6.998 6.134-6.496 9.804.473 3.456 3.432 6.917 8.333 9.746 3.31 1.911 7.12 3.309 11.087 4.1"/>
        <g>
            <path fill="#111D28" fill-opacity=".1" d="M16.09 70.006C10.206 66.609 5.937 62.63 3.28 58.388c3.658-3.68 10.703-3.805 10.699-7.477-.01-8.22-8.54-19.809 2.355-26.1 21.683-12.518 56.73-12.581 78.278-.14 10.72 6.189 16.08 14.307 16.09 22.445.01 8.219-5.44 16.458-16.335 22.748-21.683 12.52-56.73 12.583-78.278.142" transform="translate(637.329 28.48)"/>
            <path fill="#1A82FF" d="M110.703 31.735v9.693c.01 8.22-5.44 16.458-16.335 22.749-21.683 12.519-56.73 12.582-78.278.141C5.37 58.128.01 50.01 0 41.873V31.735h110.703z" transform="translate(637.329 28.48)"/>
            <path fill="#40A0FF" d="M16.09 54.625C5.37 48.435.01 40.317 0 32.179-.01 23.96 5.44 15.722 16.335 9.431c21.683-12.52 56.73-12.583 78.278-.141 10.72 6.189 16.08 14.308 16.09 22.445.01 8.22-5.44 16.458-16.335 22.749-21.683 12.519-56.73 12.582-78.278.141" transform="translate(637.329 28.48)"/>
            <path fill="#1A82FF" d="M55.004 57.307c-13.578 0-26.224-2.984-35.61-8.404-8.239-4.756-12.78-10.698-12.787-16.732-.007-6.03 4.743-12.233 13.032-17.018 9.545-5.511 22.351-8.546 36.06-8.546 13.577 0 26.224 2.985 35.611 8.404 8.238 4.757 12.78 10.699 12.785 16.731.008 6.03-4.742 12.234-13.03 17.02-9.545 5.51-22.353 8.545-36.061 8.545" transform="translate(637.329 28.48)"/>
            <path fill="#0F7CE8" d="M19.639 16.474c9.545-5.511 22.351-8.546 36.06-8.546 13.577 0 26.225 2.985 35.61 8.404 7.938 4.584 12.431 10.268 12.755 16.072.012-.22.032-.441.032-.661-.007-6.033-4.548-11.975-12.786-16.732-9.386-5.42-22.034-8.404-35.61-8.404-13.71 0-26.516 3.034-36.061 8.546C11.35 19.938 6.6 26.14 6.607 32.17c0 .22.02.44.031.659.327-5.82 5.016-11.745 13-16.356" transform="translate(637.329 28.48)"/>
            <path fill="#40A0FF" d="M49.34 44.63l.035-6.381c-1.313-.504-2.625-1.13-3.92-1.877-6.968-4.023-7.835-8.327-2.318-11.512 2.301-1.329 4.974-2.027 7.832-2.068L50.85 44.9c1.42.226 2.854.376 4.287.441.603.028 1.199.035 1.792.033v.002c.078 0 .155-.003.233-.003.175-.002.35 0 .524-.003v-.006c5.373-.117 10.322-1.4 14.431-3.773 4.75-2.742 6.987-6.127 6.472-9.79-.485-3.444-3.453-6.9-8.358-9.732-3.26-1.882-6.996-3.266-10.887-4.068l-.035 6.415c1.243.494 2.485 1.097 3.72 1.81 3.207 1.852 5.144 3.729 5.756 5.578.718 2.17-.454 4.212-3.389 5.906-2.285 1.32-4.903 2.004-7.68 2.07l.12-22.063c-1.477-.244-2.97-.404-4.462-.474-.299-.014-.595-.02-.891-.028h-.009c-.342-.008-.682-.01-1.021-.009h-.453v.007c-5.429.088-10.432 1.37-14.582 3.767-4.752 2.743-6.999 6.133-6.497 9.803.473 3.456 3.433 6.917 8.334 9.747 3.31 1.91 7.119 3.308 11.087 4.1" transform="translate(637.329 28.48)"/>
        </g>
        <g>
            <path fill="#111D28" fill-opacity=".1" d="M16.09 70.006C10.206 66.609 5.937 62.63 3.28 58.388c3.658-3.68 10.703-3.805 10.699-7.477-.01-8.22-8.54-19.809 2.355-26.1 21.683-12.518 56.73-12.581 78.278-.14 10.72 6.189 16.08 14.307 16.09 22.445.01 8.219-5.44 16.458-16.335 22.748-21.683 12.52-56.73 12.583-78.278.142" transform="translate(544.329 128.48)"/>
            <path fill="#1A82FF" d="M110.703 31.735v9.693c.01 8.22-5.44 16.458-16.335 22.749-21.683 12.519-56.73 12.582-78.278.141C5.37 58.128.01 50.01 0 41.873V31.735h110.703z" transform="translate(544.329 128.48)"/>
            <path fill="#40A0FF" d="M16.09 54.625C5.37 48.435.01 40.317 0 32.179-.01 23.96 5.44 15.722 16.335 9.431c21.683-12.52 56.73-12.583 78.278-.141 10.72 6.189 16.08 14.308 16.09 22.445.01 8.22-5.44 16.458-16.335 22.749-21.683 12.519-56.73 12.582-78.278.141" transform="translate(544.329 128.48)"/>
            <path fill="#1A82FF" d="M55.004 57.307c-13.578 0-26.224-2.984-35.61-8.404-8.239-4.756-12.78-10.698-12.787-16.732-.007-6.03 4.743-12.233 13.032-17.018 9.545-5.511 22.351-8.546 36.06-8.546 13.577 0 26.224 2.985 35.611 8.404 8.238 4.757 12.78 10.699 12.785 16.731.008 6.03-4.742 12.234-13.03 17.02-9.545 5.51-22.353 8.545-36.061 8.545" transform="translate(544.329 128.48)"/>
            <path fill="#0F7CE8" d="M19.639 16.474c9.545-5.511 22.351-8.546 36.06-8.546 13.577 0 26.225 2.985 35.61 8.404 7.938 4.584 12.431 10.268 12.755 16.072.012-.22.032-.441.032-.661-.007-6.033-4.548-11.975-12.786-16.732-9.386-5.42-22.034-8.404-35.61-8.404-13.71 0-26.516 3.034-36.061 8.546C11.35 19.938 6.6 26.14 6.607 32.17c0 .22.02.44.031.659.327-5.82 5.016-11.745 13-16.356" transform="translate(544.329 128.48)"/>
            <path fill="#40A0FF" d="M49.34 44.63l.035-6.381c-1.313-.504-2.625-1.13-3.92-1.877-6.968-4.023-7.835-8.327-2.318-11.512 2.301-1.329 4.974-2.027 7.832-2.068L50.85 44.9c1.42.226 2.854.376 4.287.441.603.028 1.199.035 1.792.033v.002c.078 0 .155-.003.233-.003.175-.002.35 0 .524-.003v-.006c5.373-.117 10.322-1.4 14.431-3.773 4.75-2.742 6.987-6.127 6.472-9.79-.485-3.444-3.453-6.9-8.358-9.732-3.26-1.882-6.996-3.266-10.887-4.068l-.035 6.415c1.243.494 2.485 1.097 3.72 1.81 3.207 1.852 5.144 3.729 5.756 5.578.718 2.17-.454 4.212-3.389 5.906-2.285 1.32-4.903 2.004-7.68 2.07l.12-22.063c-1.477-.244-2.97-.404-4.462-.474-.299-.014-.595-.02-.891-.028h-.009c-.342-.008-.682-.01-1.021-.009h-.453v.007c-5.429.088-10.432 1.37-14.582 3.767-4.752 2.743-6.999 6.133-6.497 9.803.473 3.456 3.433 6.917 8.334 9.747 3.31 1.91 7.119 3.308 11.087 4.1" transform="translate(544.329 128.48)"/>
        </g>
        <g>
            <path fill="#111D28" fill-opacity=".1" d="M16.09 70.006C10.206 66.609 5.937 62.63 3.28 58.388c3.658-3.68 10.703-3.805 10.699-7.477-.01-8.22-8.54-19.809 2.355-26.1 21.683-12.518 56.73-12.581 78.278-.14 10.72 6.189 16.08 14.307 16.09 22.445.01 8.219-5.44 16.458-16.335 22.748-21.683 12.52-56.73 12.583-78.278.142" transform="translate(536.329 108.48)"/>
            <path fill="#1A82FF" d="M110.703 31.735v9.693c.01 8.22-5.44 16.458-16.335 22.749-21.683 12.519-56.73 12.582-78.278.141C5.37 58.128.01 50.01 0 41.873V31.735h110.703z" transform="translate(536.329 108.48)"/>
            <path fill="#40A0FF" d="M16.09 54.625C5.37 48.435.01 40.317 0 32.179-.01 23.96 5.44 15.722 16.335 9.431c21.683-12.52 56.73-12.583 78.278-.141 10.72 6.189 16.08 14.308 16.09 22.445.01 8.22-5.44 16.458-16.335 22.749-21.683 12.519-56.73 12.582-78.278.141" transform="translate(536.329 108.48)"/>
            <path fill="#1A82FF" d="M55.004 57.307c-13.578 0-26.224-2.984-35.61-8.404-8.239-4.756-12.78-10.698-12.787-16.732-.007-6.03 4.743-12.233 13.032-17.018 9.545-5.511 22.351-8.546 36.06-8.546 13.577 0 26.224 2.985 35.611 8.404 8.238 4.757 12.78 10.699 12.785 16.731.008 6.03-4.742 12.234-13.03 17.02-9.545 5.51-22.353 8.545-36.061 8.545" transform="translate(536.329 108.48)"/>
            <path fill="#0F7CE8" d="M19.639 16.474c9.545-5.511 22.351-8.546 36.06-8.546 13.577 0 26.225 2.985 35.61 8.404 7.938 4.584 12.431 10.268 12.755 16.072.012-.22.032-.441.032-.661-.007-6.033-4.548-11.975-12.786-16.732-9.386-5.42-22.034-8.404-35.61-8.404-13.71 0-26.516 3.034-36.061 8.546C11.35 19.938 6.6 26.14 6.607 32.17c0 .22.02.44.031.659.327-5.82 5.016-11.745 13-16.356" transform="translate(536.329 108.48)"/>
            <path fill="#40A0FF" d="M49.34 44.63l.035-6.381c-1.313-.504-2.625-1.13-3.92-1.877-6.968-4.023-7.835-8.327-2.318-11.512 2.301-1.329 4.974-2.027 7.832-2.068L50.85 44.9c1.42.226 2.854.376 4.287.441.603.028 1.199.035 1.792.033v.002c.078 0 .155-.003.233-.003.175-.002.35 0 .524-.003v-.006c5.373-.117 10.322-1.4 14.431-3.773 4.75-2.742 6.987-6.127 6.472-9.79-.485-3.444-3.453-6.9-8.358-9.732-3.26-1.882-6.996-3.266-10.887-4.068l-.035 6.415c1.243.494 2.485 1.097 3.72 1.81 3.207 1.852 5.144 3.729 5.756 5.578.718 2.17-.454 4.212-3.389 5.906-2.285 1.32-4.903 2.004-7.68 2.07l.12-22.063c-1.477-.244-2.97-.404-4.462-.474-.299-.014-.595-.02-.891-.028h-.009c-.342-.008-.682-.01-1.021-.009h-.453v.007c-5.429.088-10.432 1.37-14.582 3.767-4.752 2.743-6.999 6.133-6.497 9.803.473 3.456 3.433 6.917 8.334 9.747 3.31 1.91 7.119 3.308 11.087 4.1" transform="translate(536.329 108.48)"/>
        </g>
        <g>
            <path fill="#111D28" fill-opacity=".1" d="M16.09 70.006C10.206 66.609 5.937 62.63 3.28 58.388c3.658-3.68 10.703-3.805 10.699-7.477-.01-8.22-8.54-19.809 2.355-26.1 21.683-12.518 56.73-12.581 78.278-.14 10.72 6.189 16.08 14.307 16.09 22.445.01 8.219-5.44 16.458-16.335 22.748-21.683 12.52-56.73 12.583-78.278.142" transform="translate(524.329 88.48)"/>
            <path fill="#1A82FF" d="M110.703 31.735v9.693c.01 8.22-5.44 16.458-16.335 22.749-21.683 12.519-56.73 12.582-78.278.141C5.37 58.128.01 50.01 0 41.873V31.735h110.703z" transform="translate(524.329 88.48)"/>
            <path fill="#40A0FF" d="M16.09 54.625C5.37 48.435.01 40.317 0 32.179-.01 23.96 5.44 15.722 16.335 9.431c21.683-12.52 56.73-12.583 78.278-.141 10.72 6.189 16.08 14.308 16.09 22.445.01 8.22-5.44 16.458-16.335 22.749-21.683 12.519-56.73 12.582-78.278.141" transform="translate(524.329 88.48)"/>
            <path fill="#1A82FF" d="M55.004 57.307c-13.578 0-26.224-2.984-35.61-8.404-8.239-4.756-12.78-10.698-12.787-16.732-.007-6.03 4.743-12.233 13.032-17.018 9.545-5.511 22.351-8.546 36.06-8.546 13.577 0 26.224 2.985 35.611 8.404 8.238 4.757 12.78 10.699 12.785 16.731.008 6.03-4.742 12.234-13.03 17.02-9.545 5.51-22.353 8.545-36.061 8.545" transform="translate(524.329 88.48)"/>
            <path fill="#0F7CE8" d="M19.639 16.474c9.545-5.511 22.351-8.546 36.06-8.546 13.577 0 26.225 2.985 35.61 8.404 7.938 4.584 12.431 10.268 12.755 16.072.012-.22.032-.441.032-.661-.007-6.033-4.548-11.975-12.786-16.732-9.386-5.42-22.034-8.404-35.61-8.404-13.71 0-26.516 3.034-36.061 8.546C11.35 19.938 6.6 26.14 6.607 32.17c0 .22.02.44.031.659.327-5.82 5.016-11.745 13-16.356" transform="translate(524.329 88.48)"/>
            <path fill="#40A0FF" d="M49.34 44.63l.035-6.381c-1.313-.504-2.625-1.13-3.92-1.877-6.968-4.023-7.835-8.327-2.318-11.512 2.301-1.329 4.974-2.027 7.832-2.068L50.85 44.9c1.42.226 2.854.376 4.287.441.603.028 1.199.035 1.792.033v.002c.078 0 .155-.003.233-.003.175-.002.35 0 .524-.003v-.006c5.373-.117 10.322-1.4 14.431-3.773 4.75-2.742 6.987-6.127 6.472-9.79-.485-3.444-3.453-6.9-8.358-9.732-3.26-1.882-6.996-3.266-10.887-4.068l-.035 6.415c1.243.494 2.485 1.097 3.72 1.81 3.207 1.852 5.144 3.729 5.756 5.578.718 2.17-.454 4.212-3.389 5.906-2.285 1.32-4.903 2.004-7.68 2.07l.12-22.063c-1.477-.244-2.97-.404-4.462-.474-.299-.014-.595-.02-.891-.028h-.009c-.342-.008-.682-.01-1.021-.009h-.453v.007c-5.429.088-10.432 1.37-14.582 3.767-4.752 2.743-6.999 6.133-6.497 9.803.473 3.456 3.433 6.917 8.334 9.747 3.31 1.91 7.119 3.308 11.087 4.1" transform="translate(524.329 88.48)"/>
        </g>
        <g>
            <path fill="#111D28" fill-opacity=".1" d="M16.09 70.006C10.206 66.609 5.937 62.63 3.28 58.388c3.658-3.68 10.703-3.805 10.699-7.477-.01-8.22-8.54-19.809 2.355-26.1 21.683-12.518 56.73-12.581 78.278-.14 10.72 6.189 16.08 14.307 16.09 22.445.01 8.219-5.44 16.458-16.335 22.748-21.683 12.52-56.73 12.583-78.278.142" transform="translate(538.329 68.48)"/>
            <path fill="#1A82FF" d="M110.703 31.735v9.693c.01 8.22-5.44 16.458-16.335 22.749-21.683 12.519-56.73 12.582-78.278.141C5.37 58.128.01 50.01 0 41.873V31.735h110.703z" transform="translate(538.329 68.48)"/>
            <path fill="#40A0FF" d="M16.09 54.625C5.37 48.435.01 40.317 0 32.179-.01 23.96 5.44 15.722 16.335 9.431c21.683-12.52 56.73-12.583 78.278-.141 10.72 6.189 16.08 14.308 16.09 22.445.01 8.22-5.44 16.458-16.335 22.749-21.683 12.519-56.73 12.582-78.278.141" transform="translate(538.329 68.48)"/>
            <path fill="#1A82FF" d="M55.004 57.307c-13.578 0-26.224-2.984-35.61-8.404-8.239-4.756-12.78-10.698-12.787-16.732-.007-6.03 4.743-12.233 13.032-17.018 9.545-5.511 22.351-8.546 36.06-8.546 13.577 0 26.224 2.985 35.611 8.404 8.238 4.757 12.78 10.699 12.785 16.731.008 6.03-4.742 12.234-13.03 17.02-9.545 5.51-22.353 8.545-36.061 8.545" transform="translate(538.329 68.48)"/>
            <path fill="#0F7CE8" d="M19.639 16.474c9.545-5.511 22.351-8.546 36.06-8.546 13.577 0 26.225 2.985 35.61 8.404 7.938 4.584 12.431 10.268 12.755 16.072.012-.22.032-.441.032-.661-.007-6.033-4.548-11.975-12.786-16.732-9.386-5.42-22.034-8.404-35.61-8.404-13.71 0-26.516 3.034-36.061 8.546C11.35 19.938 6.6 26.14 6.607 32.17c0 .22.02.44.031.659.327-5.82 5.016-11.745 13-16.356" transform="translate(538.329 68.48)"/>
            <path fill="#40A0FF" d="M49.34 44.63l.035-6.381c-1.313-.504-2.625-1.13-3.92-1.877-6.968-4.023-7.835-8.327-2.318-11.512 2.301-1.329 4.974-2.027 7.832-2.068L50.85 44.9c1.42.226 2.854.376 4.287.441.603.028 1.199.035 1.792.033v.002c.078 0 .155-.003.233-.003.175-.002.35 0 .524-.003v-.006c5.373-.117 10.322-1.4 14.431-3.773 4.75-2.742 6.987-6.127 6.472-9.79-.485-3.444-3.453-6.9-8.358-9.732-3.26-1.882-6.996-3.266-10.887-4.068l-.035 6.415c1.243.494 2.485 1.097 3.72 1.81 3.207 1.852 5.144 3.729 5.756 5.578.718 2.17-.454 4.212-3.389 5.906-2.285 1.32-4.903 2.004-7.68 2.07l.12-22.063c-1.477-.244-2.97-.404-4.462-.474-.299-.014-.595-.02-.891-.028h-.009c-.342-.008-.682-.01-1.021-.009h-.453v.007c-5.429.088-10.432 1.37-14.582 3.767-4.752 2.743-6.999 6.133-6.497 9.803.473 3.456 3.433 6.917 8.334 9.747 3.31 1.91 7.119 3.308 11.087 4.1" transform="translate(538.329 68.48)"/>
        </g>
        <g>
            <path fill="#111D28" fill-opacity=".1" d="M16.09 70.006C10.206 66.609 5.937 62.63 3.28 58.388c3.658-3.68 10.703-3.805 10.699-7.477-.01-8.22-8.54-19.809 2.355-26.1 21.683-12.518 56.73-12.581 78.278-.14 10.72 6.189 16.08 14.307 16.09 22.445.01 8.219-5.44 16.458-16.335 22.748-21.683 12.52-56.73 12.583-78.278.142" transform="translate(318.329 78.48)"/>
            <path fill="#1A82FF" d="M110.703 31.735v9.693c.01 8.22-5.44 16.458-16.335 22.749-21.683 12.519-56.73 12.582-78.278.141C5.37 58.128.01 50.01 0 41.873V31.735h110.703z" transform="translate(318.329 78.48)"/>
            <path fill="#40A0FF" d="M16.09 54.625C5.37 48.435.01 40.317 0 32.179-.01 23.96 5.44 15.722 16.335 9.431c21.683-12.52 56.73-12.583 78.278-.141 10.72 6.189 16.08 14.308 16.09 22.445.01 8.22-5.44 16.458-16.335 22.749-21.683 12.519-56.73 12.582-78.278.141" transform="translate(318.329 78.48)"/>
            <path fill="#1A82FF" d="M55.004 57.307c-13.578 0-26.224-2.984-35.61-8.404-8.239-4.756-12.78-10.698-12.787-16.732-.007-6.03 4.743-12.233 13.032-17.018 9.545-5.511 22.351-8.546 36.06-8.546 13.577 0 26.224 2.985 35.611 8.404 8.238 4.757 12.78 10.699 12.785 16.731.008 6.03-4.742 12.234-13.03 17.02-9.545 5.51-22.353 8.545-36.061 8.545" transform="translate(318.329 78.48)"/>
            <path fill="#0F7CE8" d="M19.639 16.474c9.545-5.511 22.351-8.546 36.06-8.546 13.577 0 26.225 2.985 35.61 8.404 7.938 4.584 12.431 10.268 12.755 16.072.012-.22.032-.441.032-.661-.007-6.033-4.548-11.975-12.786-16.732-9.386-5.42-22.034-8.404-35.61-8.404-13.71 0-26.516 3.034-36.061 8.546C11.35 19.938 6.6 26.14 6.607 32.17c0 .22.02.44.031.659.327-5.82 5.016-11.745 13-16.356" transform="translate(318.329 78.48)"/>
            <path fill="#40A0FF" d="M49.34 44.63l.035-6.381c-1.313-.504-2.625-1.13-3.92-1.877-6.968-4.023-7.835-8.327-2.318-11.512 2.301-1.329 4.974-2.027 7.832-2.068L50.85 44.9c1.42.226 2.854.376 4.287.441.603.028 1.199.035 1.792.033v.002c.078 0 .155-.003.233-.003.175-.002.35 0 .524-.003v-.006c5.373-.117 10.322-1.4 14.431-3.773 4.75-2.742 6.987-6.127 6.472-9.79-.485-3.444-3.453-6.9-8.358-9.732-3.26-1.882-6.996-3.266-10.887-4.068l-.035 6.415c1.243.494 2.485 1.097 3.72 1.81 3.207 1.852 5.144 3.729 5.756 5.578.718 2.17-.454 4.212-3.389 5.906-2.285 1.32-4.903 2.004-7.68 2.07l.12-22.063c-1.477-.244-2.97-.404-4.462-.474-.299-.014-.595-.02-.891-.028h-.009c-.342-.008-.682-.01-1.021-.009h-.453v.007c-5.429.088-10.432 1.37-14.582 3.767-4.752 2.743-6.999 6.133-6.497 9.803.473 3.456 3.433 6.917 8.334 9.747 3.31 1.91 7.119 3.308 11.087 4.1" transform="translate(318.329 78.48)"/>
        </g>
        <g>
            <path fill="#111D28" fill-opacity=".1" d="M16.09 70.006C10.206 66.609 5.937 62.63 3.28 58.388c3.658-3.68 10.703-3.805 10.699-7.477-.01-8.22-8.54-19.809 2.355-26.1 21.683-12.518 56.73-12.581 78.278-.14 10.72 6.189 16.08 14.307 16.09 22.445.01 8.219-5.44 16.458-16.335 22.748-21.683 12.52-56.73 12.583-78.278.142" transform="translate(128.329 128.48)"/>
            <path fill="#1A82FF" d="M110.703 31.735v9.693c.01 8.22-5.44 16.458-16.335 22.749-21.683 12.519-56.73 12.582-78.278.141C5.37 58.128.01 50.01 0 41.873V31.735h110.703z" transform="translate(128.329 128.48)"/>
            <path fill="#40A0FF" d="M16.09 54.625C5.37 48.435.01 40.317 0 32.179-.01 23.96 5.44 15.722 16.335 9.431c21.683-12.52 56.73-12.583 78.278-.141 10.72 6.189 16.08 14.308 16.09 22.445.01 8.22-5.44 16.458-16.335 22.749-21.683 12.519-56.73 12.582-78.278.141" transform="translate(128.329 128.48)"/>
            <path fill="#1A82FF" d="M55.004 57.307c-13.578 0-26.224-2.984-35.61-8.404-8.239-4.756-12.78-10.698-12.787-16.732-.007-6.03 4.743-12.233 13.032-17.018 9.545-5.511 22.351-8.546 36.06-8.546 13.577 0 26.224 2.985 35.611 8.404 8.238 4.757 12.78 10.699 12.785 16.731.008 6.03-4.742 12.234-13.03 17.02-9.545 5.51-22.353 8.545-36.061 8.545" transform="translate(128.329 128.48)"/>
            <path fill="#0F7CE8" d="M19.639 16.474c9.545-5.511 22.351-8.546 36.06-8.546 13.577 0 26.225 2.985 35.61 8.404 7.938 4.584 12.431 10.268 12.755 16.072.012-.22.032-.441.032-.661-.007-6.033-4.548-11.975-12.786-16.732-9.386-5.42-22.034-8.404-35.61-8.404-13.71 0-26.516 3.034-36.061 8.546C11.35 19.938 6.6 26.14 6.607 32.17c0 .22.02.44.031.659.327-5.82 5.016-11.745 13-16.356" transform="translate(128.329 128.48)"/>
            <path fill="#40A0FF" d="M49.34 44.63l.035-6.381c-1.313-.504-2.625-1.13-3.92-1.877-6.968-4.023-7.835-8.327-2.318-11.512 2.301-1.329 4.974-2.027 7.832-2.068L50.85 44.9c1.42.226 2.854.376 4.287.441.603.028 1.199.035 1.792.033v.002c.078 0 .155-.003.233-.003.175-.002.35 0 .524-.003v-.006c5.373-.117 10.322-1.4 14.431-3.773 4.75-2.742 6.987-6.127 6.472-9.79-.485-3.444-3.453-6.9-8.358-9.732-3.26-1.882-6.996-3.266-10.887-4.068l-.035 6.415c1.243.494 2.485 1.097 3.72 1.81 3.207 1.852 5.144 3.729 5.756 5.578.718 2.17-.454 4.212-3.389 5.906-2.285 1.32-4.903 2.004-7.68 2.07l.12-22.063c-1.477-.244-2.97-.404-4.462-.474-.299-.014-.595-.02-.891-.028h-.009c-.342-.008-.682-.01-1.021-.009h-.453v.007c-5.429.088-10.432 1.37-14.582 3.767-4.752 2.743-6.999 6.133-6.497 9.803.473 3.456 3.433 6.917 8.334 9.747 3.31 1.91 7.119 3.308 11.087 4.1" transform="translate(128.329 128.48)"/>
        </g>
        <g>
            <path fill="#111D28" fill-opacity=".1" d="M16.09 70.006C10.206 66.609 5.937 62.63 3.28 58.388c3.658-3.68 10.703-3.805 10.699-7.477-.01-8.22-8.54-19.809 2.355-26.1 21.683-12.518 56.73-12.581 78.278-.14 10.72 6.189 16.08 14.307 16.09 22.445.01 8.219-5.44 16.458-16.335 22.748-21.683 12.52-56.73 12.583-78.278.142" transform="translate(120.329 108.48)"/>
            <path fill="#1A82FF" d="M110.703 31.735v9.693c.01 8.22-5.44 16.458-16.335 22.749-21.683 12.519-56.73 12.582-78.278.141C5.37 58.128.01 50.01 0 41.873V31.735h110.703z" transform="translate(120.329 108.48)"/>
            <path fill="#40A0FF" d="M16.09 54.625C5.37 48.435.01 40.317 0 32.179-.01 23.96 5.44 15.722 16.335 9.431c21.683-12.52 56.73-12.583 78.278-.141 10.72 6.189 16.08 14.308 16.09 22.445.01 8.22-5.44 16.458-16.335 22.749-21.683 12.519-56.73 12.582-78.278.141" transform="translate(120.329 108.48)"/>
            <path fill="#1A82FF" d="M55.004 57.307c-13.578 0-26.224-2.984-35.61-8.404-8.239-4.756-12.78-10.698-12.787-16.732-.007-6.03 4.743-12.233 13.032-17.018 9.545-5.511 22.351-8.546 36.06-8.546 13.577 0 26.224 2.985 35.611 8.404 8.238 4.757 12.78 10.699 12.785 16.731.008 6.03-4.742 12.234-13.03 17.02-9.545 5.51-22.353 8.545-36.061 8.545" transform="translate(120.329 108.48)"/>
            <path fill="#0F7CE8" d="M19.639 16.474c9.545-5.511 22.351-8.546 36.06-8.546 13.577 0 26.225 2.985 35.61 8.404 7.938 4.584 12.431 10.268 12.755 16.072.012-.22.032-.441.032-.661-.007-6.033-4.548-11.975-12.786-16.732-9.386-5.42-22.034-8.404-35.61-8.404-13.71 0-26.516 3.034-36.061 8.546C11.35 19.938 6.6 26.14 6.607 32.17c0 .22.02.44.031.659.327-5.82 5.016-11.745 13-16.356" transform="translate(120.329 108.48)"/>
            <path fill="#40A0FF" d="M49.34 44.63l.035-6.381c-1.313-.504-2.625-1.13-3.92-1.877-6.968-4.023-7.835-8.327-2.318-11.512 2.301-1.329 4.974-2.027 7.832-2.068L50.85 44.9c1.42.226 2.854.376 4.287.441.603.028 1.199.035 1.792.033v.002c.078 0 .155-.003.233-.003.175-.002.35 0 .524-.003v-.006c5.373-.117 10.322-1.4 14.431-3.773 4.75-2.742 6.987-6.127 6.472-9.79-.485-3.444-3.453-6.9-8.358-9.732-3.26-1.882-6.996-3.266-10.887-4.068l-.035 6.415c1.243.494 2.485 1.097 3.72 1.81 3.207 1.852 5.144 3.729 5.756 5.578.718 2.17-.454 4.212-3.389 5.906-2.285 1.32-4.903 2.004-7.68 2.07l.12-22.063c-1.477-.244-2.97-.404-4.462-.474-.299-.014-.595-.02-.891-.028h-.009c-.342-.008-.682-.01-1.021-.009h-.453v.007c-5.429.088-10.432 1.37-14.582 3.767-4.752 2.743-6.999 6.133-6.497 9.803.473 3.456 3.433 6.917 8.334 9.747 3.31 1.91 7.119 3.308 11.087 4.1" transform="translate(120.329 108.48)"/>
        </g>
        <g>
            <path fill="#111D28" fill-opacity=".1" d="M16.09 70.006C10.206 66.609 5.937 62.63 3.28 58.388c3.658-3.68 10.703-3.805 10.699-7.477-.01-8.22-8.54-19.809 2.355-26.1 21.683-12.518 56.73-12.581 78.278-.14 10.72 6.189 16.08 14.307 16.09 22.445.01 8.219-5.44 16.458-16.335 22.748-21.683 12.52-56.73 12.583-78.278.142" transform="translate(.329 128.48)"/>
            <path fill="#1A82FF" d="M110.703 31.735v9.693c.01 8.22-5.44 16.458-16.335 22.749-21.683 12.519-56.73 12.582-78.278.141C5.37 58.128.01 50.01 0 41.873V31.735h110.703z" transform="translate(.329 128.48)"/>
            <path fill="#40A0FF" d="M16.09 54.625C5.37 48.435.01 40.317 0 32.179-.01 23.96 5.44 15.722 16.335 9.431c21.683-12.52 56.73-12.583 78.278-.141 10.72 6.189 16.08 14.308 16.09 22.445.01 8.22-5.44 16.458-16.335 22.749-21.683 12.519-56.73 12.582-78.278.141" transform="translate(.329 128.48)"/>
            <path fill="#1A82FF" d="M55.004 57.307c-13.578 0-26.224-2.984-35.61-8.404-8.239-4.756-12.78-10.698-12.787-16.732-.007-6.03 4.743-12.233 13.032-17.018 9.545-5.511 22.351-8.546 36.06-8.546 13.577 0 26.224 2.985 35.611 8.404 8.238 4.757 12.78 10.699 12.785 16.731.008 6.03-4.742 12.234-13.03 17.02-9.545 5.51-22.353 8.545-36.061 8.545" transform="translate(.329 128.48)"/>
            <path fill="#0F7CE8" d="M19.639 16.474c9.545-5.511 22.351-8.546 36.06-8.546 13.577 0 26.225 2.985 35.61 8.404 7.938 4.584 12.431 10.268 12.755 16.072.012-.22.032-.441.032-.661-.007-6.033-4.548-11.975-12.786-16.732-9.386-5.42-22.034-8.404-35.61-8.404-13.71 0-26.516 3.034-36.061 8.546C11.35 19.938 6.6 26.14 6.607 32.17c0 .22.02.44.031.659.327-5.82 5.016-11.745 13-16.356" transform="translate(.329 128.48)"/>
            <path fill="#40A0FF" d="M49.34 44.63l.035-6.381c-1.313-.504-2.625-1.13-3.92-1.877-6.968-4.023-7.835-8.327-2.318-11.512 2.301-1.329 4.974-2.027 7.832-2.068L50.85 44.9c1.42.226 2.854.376 4.287.441.603.028 1.199.035 1.792.033v.002c.078 0 .155-.003.233-.003.175-.002.35 0 .524-.003v-.006c5.373-.117 10.322-1.4 14.431-3.773 4.75-2.742 6.987-6.127 6.472-9.79-.485-3.444-3.453-6.9-8.358-9.732-3.26-1.882-6.996-3.266-10.887-4.068l-.035 6.415c1.243.494 2.485 1.097 3.72 1.81 3.207 1.852 5.144 3.729 5.756 5.578.718 2.17-.454 4.212-3.389 5.906-2.285 1.32-4.903 2.004-7.68 2.07l.12-22.063c-1.477-.244-2.97-.404-4.462-.474-.299-.014-.595-.02-.891-.028h-.009c-.342-.008-.682-.01-1.021-.009h-.453v.007c-5.429.088-10.432 1.37-14.582 3.767-4.752 2.743-6.999 6.133-6.497 9.803.473 3.456 3.433 6.917 8.334 9.747 3.31 1.91 7.119 3.308 11.087 4.1" transform="translate(.329 128.48)"/>
        </g>
        <g>
            <path fill="#111D28" fill-opacity=".1" d="M16.09 70.006C10.206 66.609 5.937 62.63 3.28 58.388c3.658-3.68 10.703-3.805 10.699-7.477-.01-8.22-8.54-19.809 2.355-26.1 21.683-12.518 56.73-12.581 78.278-.14 10.72 6.189 16.08 14.307 16.09 22.445.01 8.219-5.44 16.458-16.335 22.748-21.683 12.52-56.73 12.583-78.278.142" transform="translate(433.329 127.48)"/>
            <path fill="#1A82FF" d="M110.703 31.735v9.693c.01 8.22-5.44 16.458-16.335 22.749-21.683 12.519-56.73 12.582-78.278.141C5.37 58.128.01 50.01 0 41.873V31.735h110.703z" transform="translate(433.329 127.48)"/>
            <path fill="#40A0FF" d="M16.09 54.625C5.37 48.435.01 40.317 0 32.179-.01 23.96 5.44 15.722 16.335 9.431c21.683-12.52 56.73-12.583 78.278-.141 10.72 6.189 16.08 14.308 16.09 22.445.01 8.22-5.44 16.458-16.335 22.749-21.683 12.519-56.73 12.582-78.278.141" transform="translate(433.329 127.48)"/>
            <path fill="#1A82FF" d="M55.004 57.307c-13.578 0-26.224-2.984-35.61-8.404-8.239-4.756-12.78-10.698-12.787-16.732-.007-6.03 4.743-12.233 13.032-17.018 9.545-5.511 22.351-8.546 36.06-8.546 13.577 0 26.224 2.985 35.611 8.404 8.238 4.757 12.78 10.699 12.785 16.731.008 6.03-4.742 12.234-13.03 17.02-9.545 5.51-22.353 8.545-36.061 8.545" transform="translate(433.329 127.48)"/>
            <path fill="#0F7CE8" d="M19.639 16.474c9.545-5.511 22.351-8.546 36.06-8.546 13.577 0 26.225 2.985 35.61 8.404 7.938 4.584 12.431 10.268 12.755 16.072.012-.22.032-.441.032-.661-.007-6.033-4.548-11.975-12.786-16.732-9.386-5.42-22.034-8.404-35.61-8.404-13.71 0-26.516 3.034-36.061 8.546C11.35 19.938 6.6 26.14 6.607 32.17c0 .22.02.44.031.659.327-5.82 5.016-11.745 13-16.356" transform="translate(433.329 127.48)"/>
            <path fill="#40A0FF" d="M49.34 44.63l.035-6.381c-1.313-.504-2.625-1.13-3.92-1.877-6.968-4.023-7.835-8.327-2.318-11.512 2.301-1.329 4.974-2.027 7.832-2.068L50.85 44.9c1.42.226 2.854.376 4.287.441.603.028 1.199.035 1.792.033v.002c.078 0 .155-.003.233-.003.175-.002.35 0 .524-.003v-.006c5.373-.117 10.322-1.4 14.431-3.773 4.75-2.742 6.987-6.127 6.472-9.79-.485-3.444-3.453-6.9-8.358-9.732-3.26-1.882-6.996-3.266-10.887-4.068l-.035 6.415c1.243.494 2.485 1.097 3.72 1.81 3.207 1.852 5.144 3.729 5.756 5.578.718 2.17-.454 4.212-3.389 5.906-2.285 1.32-4.903 2.004-7.68 2.07l.12-22.063c-1.477-.244-2.97-.404-4.462-.474-.299-.014-.595-.02-.891-.028h-.009c-.342-.008-.682-.01-1.021-.009h-.453v.007c-5.429.088-10.432 1.37-14.582 3.767-4.752 2.743-6.999 6.133-6.497 9.803.473 3.456 3.433 6.917 8.334 9.747 3.31 1.91 7.119 3.308 11.087 4.1" transform="translate(433.329 127.48)"/>
        </g>
        <path fill="#111D28" fill-opacity=".1" d="M735.697 92.158c-10.72-6.19-16.08-14.308-16.09-22.446-.009-8.219 5.44-16.458 16.335-22.748 21.684-12.52 56.73-12.583 78.278-.142 10.721 6.19 16.081 14.308 16.09 22.446.01 8.219-5.439 16.457-16.334 22.748-21.684 12.52-56.73 12.582-78.279.142"/>
        <path fill="#1A82FF" d="M830.31 53.887v9.693c.01 8.22-5.439 16.458-16.334 22.748-21.684 12.52-56.73 12.583-78.279.142-10.72-6.19-16.08-14.308-16.09-22.446V53.887H830.31z"/>
        <path fill="#40A0FF" d="M735.697 76.777c-10.72-6.19-16.08-14.308-16.09-22.446-.009-8.22 5.44-16.458 16.335-22.748 21.684-12.52 56.73-12.583 78.278-.142 10.721 6.19 16.081 14.308 16.09 22.446.01 8.219-5.439 16.457-16.334 22.748-21.684 12.52-56.73 12.583-78.279.142"/>
        <path fill="#1A82FF" d="M774.611 79.46c-13.577 0-26.223-2.986-35.61-8.405-8.238-4.756-12.78-10.698-12.787-16.732-.006-6.03 4.744-12.233 13.032-17.018 9.545-5.511 22.351-8.546 36.061-8.546 13.577 0 26.224 2.985 35.61 8.404 8.239 4.756 12.78 10.699 12.786 16.73.008 6.032-4.742 12.235-13.03 17.02-9.546 5.511-22.353 8.546-36.062 8.546"/>
        <path fill="#0F7CE8" d="M739.246 38.626c9.545-5.511 22.351-8.546 36.061-8.546 13.577 0 26.224 2.985 35.61 8.404 7.938 4.584 12.43 10.267 12.755 16.072.012-.221.031-.442.031-.662-.006-6.032-4.547-11.974-12.786-16.731-9.386-5.42-22.033-8.404-35.61-8.404-13.71 0-26.516 3.034-36.06 8.546-8.29 4.785-13.04 10.988-13.033 17.018 0 .22.02.44.032.658.327-5.819 5.015-11.745 13-16.355"/>
        <path fill="#FFF" d="M768.948 66.781l.035-6.38c-1.313-.504-2.625-1.13-3.92-1.877-6.969-4.024-7.835-8.327-2.318-11.513 2.3-1.328 4.974-2.026 7.832-2.068l-.12 22.109c1.42.226 2.853.375 4.287.441.602.027 1.198.034 1.791.033v.002c.079 0 .156-.003.234-.004.174-.001.35.001.523-.003v-.005c5.374-.118 10.323-1.401 14.432-3.774 4.749-2.742 6.986-6.127 6.471-9.79-.485-3.443-3.453-6.9-8.358-9.732-3.259-1.881-6.996-3.266-10.886-4.067l-.035 6.415c1.243.494 2.484 1.097 3.72 1.81 3.207 1.852 5.143 3.728 5.755 5.578.718 2.17-.454 4.212-3.388 5.906-2.285 1.32-4.903 2.004-7.68 2.07l.12-22.063c-1.478-.244-2.97-.404-4.463-.474-.298-.014-.595-.02-.89-.028h-.009c-.342-.008-.683-.01-1.022-.01h-.128c-.108.002-.217 0-.324.001v.007c-5.43.088-10.433 1.37-14.583 3.766-4.752 2.744-6.998 6.134-6.496 9.804.473 3.456 3.432 6.917 8.333 9.746 3.31 1.911 7.12 3.309 11.087 4.1"/>
        <path fill="#111D28" fill-opacity=".1" d="M729.368 70.006c-10.72-6.19-16.08-14.308-16.09-22.446-.01-8.219 5.44-16.458 16.335-22.748 21.684-12.52 56.73-12.583 78.278-.142 10.72 6.19 16.081 14.308 16.09 22.446.01 8.219-5.439 16.457-16.335 22.748-21.683 12.52-56.73 12.583-78.278.142"/>
        <path fill="#1A82FF" d="M823.981 31.735v9.693c.01 8.22-5.439 16.458-16.335 22.748-21.683 12.52-56.73 12.583-78.278.142-10.72-6.19-16.08-14.308-16.09-22.446V31.735h110.703z"/>
        <path fill="#40A0FF" d="M729.368 54.625c-10.72-6.19-16.08-14.308-16.09-22.446-.01-8.219 5.44-16.458 16.335-22.748 21.684-12.52 56.73-12.583 78.278-.142 10.72 6.19 16.081 14.308 16.09 22.446.01 8.219-5.439 16.458-16.335 22.748-21.683 12.52-56.73 12.583-78.278.142"/>
        <path fill="#1A82FF" d="M732.672 48.903c-8.238-4.756-12.78-10.698-12.787-16.732-.006-6.03 4.744-12.233 13.032-17.018 9.545-5.511 22.352-8.546 36.061-8.546 13.577 0 26.224 2.985 35.61 8.404 8.238 4.757 12.78 10.699 12.786 16.731.008 6.03-4.742 12.234-13.03 17.02-9.546 5.51-22.353 8.545-36.062 8.545-13.577 0-26.224-2.985-35.61-8.404z"/>
        <path fill="#0F7CE8" d="M732.917 16.474c9.545-5.511 22.351-8.546 36.06-8.546 13.577 0 26.225 2.985 35.611 8.404 7.938 4.584 12.43 10.267 12.754 16.072.012-.221.032-.442.032-.661-.007-6.033-4.547-11.975-12.786-16.732-9.386-5.42-22.034-8.404-35.61-8.404-13.71 0-26.516 3.034-36.06 8.546-8.29 4.785-13.04 10.988-13.033 17.018 0 .22.02.44.031.659.328-5.82 5.016-11.746 13.001-16.356"/>
        <path fill="#40A0FF" d="M762.62 44.63l.034-6.382c-1.313-.503-2.625-1.128-3.92-1.876-6.969-4.024-7.836-8.327-2.318-11.512 2.3-1.329 4.974-2.027 7.831-2.069l-.12 22.109c1.42.226 2.854.375 4.288.441.602.027 1.198.034 1.791.033v.002l.234-.003c.174-.002.35 0 .523-.004v-.005c5.373-.117 10.322-1.401 14.432-3.773 4.749-2.743 6.986-6.128 6.471-9.79-.485-3.444-3.453-6.901-8.358-9.733-3.259-1.881-6.996-3.265-10.887-4.067l-.034 6.415c1.242.494 2.484 1.097 3.719 1.81 3.208 1.852 5.144 3.728 5.756 5.578.718 2.17-.454 4.212-3.389 5.906-2.284 1.32-4.902 2.004-7.68 2.07l.12-22.063c-1.477-.244-2.97-.404-4.462-.474-.298-.014-.595-.02-.89-.028h-.01c-.341-.008-.682-.01-1.02-.009h-.13c-.107.001-.216-.002-.323 0v.007c-5.43.088-10.433 1.37-14.583 3.766-4.752 2.744-6.998 6.134-6.496 9.804.473 3.456 3.432 6.917 8.333 9.746 3.31 1.911 7.12 3.309 11.087 4.1"/>
        <path fill="#111D28" fill-opacity=".1" d="M727.244 179.143c-8.133-4.599-12.527-10.675-13.064-16.794-.544-6.18 2.848-12.404 10.293-17.19 14.817-9.526 40.081-9.755 56.429-.512 8.133 4.598 12.527 10.675 13.064 16.794.543 6.18-2.848 12.403-10.293 17.19-14.817 9.526-40.081 9.755-56.429.512"/>
        <path fill="#0F7CE8" d="M701.234 126.783c0-29.885 24.227-54.11 54.112-54.11 29.884 0 54.11 24.225 54.11 54.11 0 29.885-24.226 54.112-54.11 54.112-29.885 0-54.112-24.227-54.112-54.112"/>
        <path fill="#40A0FF" d="M699.652 125.517c0-29.884 24.226-54.11 54.111-54.11 29.885 0 54.111 24.226 54.111 54.11 0 29.885-24.226 54.112-54.11 54.112-29.886 0-54.112-24.227-54.112-54.112"/>
        <path fill="#1A82FF" d="M709.742 125.517c0-24.312 19.709-44.02 44.021-44.02s44.02 19.708 44.02 44.02c0 24.313-19.708 44.021-44.02 44.021-24.312 0-44.02-19.708-44.02-44.02"/>
        <path fill="#0F7CE8" d="M711.008 126.783c0-24.312 19.709-44.02 44.02-44.02 11.835 0 22.577 4.67 30.488 12.267-8.01-8.34-19.275-13.533-31.753-13.533-24.312 0-44.02 19.708-44.02 44.02 0 12.478 5.192 23.743 13.533 31.753-7.597-7.91-12.268-18.653-12.268-30.487"/>
        <path fill="#40A0FF" d="M773.138 113.196l-7.625 7.626c.303 1.512.46 3.17.46 4.963 0 9.646-4.53 15.405-12.12 15.405-3.166 0-5.836-1.012-7.85-2.94l26.42-26.422c-.708-1.253-1.515-2.425-2.423-3.496-.382-.45-.783-.871-1.193-1.28l.002-.002c-.053-.054-.11-.104-.164-.157-.122-.12-.24-.243-.364-.36l-.006.007c-3.836-3.578-8.77-5.465-14.422-5.465-6.533 0-12.106 2.51-16.114 7.257-3.77 4.465-5.846 10.663-5.846 17.453 0 4.511.921 8.757 2.642 12.411l7.667-7.667c-.267-1.452-.402-3.034-.402-4.744 0-4.44.903-8.03 2.686-10.67 2.09-3.098 5.33-4.736 9.367-4.736 3.143 0 5.759.991 7.748 2.834l-26.367 26.368c.725 1.315 1.562 2.54 2.505 3.656.188.223.384.437.58.65h-.001l.006.006c.226.246.457.485.692.718l.088.088c.075.074.147.152.223.225l.009-.008c3.838 3.652 8.808 5.578 14.517 5.578 6.537 0 12.12-2.51 16.147-7.256 3.792-4.471 5.88-10.67 5.88-17.453 0-4.582-.956-8.893-2.742-12.589"/>
    </g>
</svg>
