<svg xmlns="http://www.w3.org/2000/svg" width="39" height="36" viewBox="0 0 39 36">
    <path fill="#345D7A" fill-rule="evenodd" d="M17.875 26.973v1.058c0 2.02-4.16 3.657-8.938 3.657C4.162 31.688 0 30.05 0 28.03v-1.058c2.047 1.49 5.557 2.277 8.938 2.277 3.381 0 6.888-.786 8.937-2.277zm0-4.064v1.06c0 2.02-4.16 3.656-8.938 3.656C4.162 27.625 0 25.989 0 23.969v-1.06c2.047 1.492 5.557 2.279 8.938 2.279 3.381 0 6.888-.787 8.937-2.279zm0 8.125v1.06c0 2.02-4.16 3.656-8.938 3.656C4.162 35.75 0 34.114 0 32.094v-1.06c2.047 1.492 5.557 2.279 8.938 2.279 3.381 0 6.888-.787 8.937-2.279zM0 19.906c0 2.02 4.162 3.657 8.938 3.657 4.777 0 8.937-1.637 8.937-3.657s-4.16-3.656-8.938-3.656C4.162 16.25 0 17.886 0 19.906zm39-9.183v1.058c0 2.02-4.16 3.656-8.938 3.656-4.775 0-8.937-1.636-8.937-3.656v-1.058C23.172 12.213 26.683 13 30.063 13c3.381 0 6.888-.786 8.937-2.277zm0-4.064v1.06c0 2.02-4.16 3.656-8.938 3.656-4.775 0-8.937-1.636-8.937-3.656v-1.06c2.047 1.492 5.558 2.279 8.938 2.279 3.381 0 6.888-.787 8.937-2.279zm0 8.125v1.06c0 2.02-4.16 3.656-8.938 3.656-4.775 0-8.937-1.636-8.937-3.656v-1.06c2.047 1.492 5.558 2.278 8.938 2.278 3.381 0 6.888-.786 8.937-2.278zM21.125 3.656c0 2.02 4.162 3.656 8.938 3.656C34.84 7.313 39 5.676 39 3.656 39 1.636 34.84 0 30.062 0c-4.775 0-8.937 1.636-8.937 3.656zM39 18.848v1.058c0 2.02-4.16 3.657-8.938 3.657-4.775 0-8.937-1.637-8.937-3.657v-1.058c2.047 1.49 5.558 2.277 8.938 2.277 3.381 0 6.888-.786 8.937-2.277zm0 8.125v1.058c0 2.02-4.16 3.657-8.938 3.657-4.775 0-8.937-1.637-8.937-3.657v-1.058c2.047 1.49 5.558 2.277 8.938 2.277 3.381 0 6.888-.786 8.937-2.277zm0-4.064v1.06c0 2.018-4.16 3.656-8.938 3.656-4.775 0-8.937-1.636-8.937-3.656v-1.06c2.047 1.492 5.558 2.279 8.938 2.279 3.381 0 6.888-.787 8.937-2.279zm0 8.125v1.06c0 2.02-4.16 3.656-8.938 3.656-4.775 0-8.937-1.636-8.937-3.656v-1.06c2.047 1.492 5.558 2.279 8.938 2.279 3.381 0 6.888-.787 8.937-2.279z"/>
</svg>
