<svg xmlns="http://www.w3.org/2000/svg" width="33" height="30" viewBox="0 0 33 30">
    <path fill="#345D7A" fill-rule="evenodd" d="M29.688 18.682c0 .807-.654 1.462-1.462 1.462-.807 0-1.462-.655-1.462-1.462 0-.808.655-1.462 1.462-1.462.808 0 1.462.654 1.462 1.462zM28.567 3.194v2.047H4.337c-.564 0-1.023-.458-1.023-1.023s.459-1.024 1.024-1.024h24.229zm-.34 18.338c-1.575 0-2.851-1.276-2.851-2.85 0-1.575 1.276-2.85 2.85-2.85H33l-.002-.216V9.154c0-1.574-1.277-2.85-2.85-2.85H4.1c-1.152 0-2.086-.934-2.086-2.086 0-1.152.934-2.086 2.086-2.086h24.287c.807 0 1.462.654 1.462 1.462v1.61h1.957l-.039-2.354c0-1.574-1.276-2.85-2.85-2.85H5.1C2.283 0 0 2.283 0 5.1v19.746c0 2.816 2.283 5.1 5.1 5.1h25.047c1.574 0 2.85-1.277 2.85-2.851v-5.563h-4.77z"/>
</svg>
