<svg xmlns="http://www.w3.org/2000/svg" width="69" height="64" viewBox="0 0 69 64">
    <g fill="none" fill-rule="evenodd">
        <path fill="#345D7A" d="M45.165 45.305c-1.658-.041-2.935-1.462-2.767-2.872-.159-1.317 1.273-2.779 2.79-2.743 1.261.03 2.752 1.068 2.787 2.813.028 1.463-1.352 2.839-2.81 2.802M67.632 34.28c-1.04-3.695-2.944-6.84-6.06-9.184-3.594-2.703-7.742-3.616-12.115-3.621-2.586-.003-5.165.3-7.687.97-3.373.898-6.434 2.398-8.763 5.019-1.465 1.649-2.622 3.572-3.904 5.382-1.184 1.67-2.218 3.47-3.558 5.002-1.65 1.886-4.547 2.133-6.716.856-2.046-1.206-2.613-3.818-1.09-5.52 1.6-1.788 2.63-3.809 2.9-6.18.182-1.593.05-3.169-.667-4.65-.239-.495-.598-.797-1.144-.747-2.886.265-6.281 3.084-7.126 5.942-.25.844-.382 1.723-.574 2.61-.433-.514-.83-1.033-1.275-1.507-2.174-2.315-4.887-3.33-8.03-3.239-1.469.043-1.891.531-1.814 2.005.025.486.059.981.174 1.45.545 2.218 1.56 4.16 3.464 5.52 1.31.937 2.83 1.396 4.372 1.789 1.514.385 2.392 1.367 2.802 2.87.3 1.096.661 2.187 1.125 3.222 2.301 5.135 5.96 9.17 10.408 12.514 1.769 1.33 3.675 2.476 5.418 3.638-.821.87-1.712 1.757-2.535 2.704-.454.524-.3 1.07.178 1.562.783.804 1.79.953 2.824 1.003 2.182.106 4.01-.682 5.464-2.298.305-.338.52-.438.988-.306 4.386 1.235 8.845 1.679 13.337.753 2.968-.612 5.814-1.547 8.502-2.85-1.734-1.089-2.911-2.994-2.976-5.195-.015-.508.032-1.004.131-1.48.748 2.773 3.319 4.777 6.316 4.689.02 0 .038-.003.058-.003.376-.244.75-.492 1.117-.753 5.49-4.265 6.672-10.663 7.18-13.229.32-2.974.079-5.888-.724-8.738"/>
        <path fill="#007CFF" d="M46.116 15.735l-.168-5.149c-.004-.123-.033-.258.007-.367.62-1.66-.501-2.71-1.376-3.812-.728-.918-1.665-1.514-2.874-1.739-1.242-.231-2.233-1.384-2.257-2.382C39.414.834 40.863-.31 42.276.076c2.23.607 3.523 2.17 4.25 4.27.253.733.432 1.49.647 2.242.473-.442.925-.918 1.432-1.325.912-.734 1.98-1.095 3.14-.923 2.29.34 2.805 2.771 2.045 4.219-.388.74-1.04 1.52-1.77 1.869-2.732 1.305-3.823 3.638-4.288 6.386-.236 1.394-.284 2.82-.406 4.124-.463-.984-.949-2.108-1.519-3.187-.293-.554-.706-1.055-1.117-1.536-1.109-1.298-2.5-1.548-4.118-1.142-.66.166-1.396.222-2.066.12-1.249-.19-1.841-.845-1.862-1.801-.021-1.04.856-2.195 1.861-2.452 2.11-.537 4.625.358 5.918 2.164.646.903 1.205 1.868 1.693 2.631"/>
    </g>
</svg>
