<svg xmlns="http://www.w3.org/2000/svg" width="40" height="41" viewBox="0 0 40 41">
    <g fill="none" fill-rule="evenodd">
        <path fill="#345D7A" d="M19.726 0L16.12 4.433 10.947 2.003 9.621 7.564 3.907 7.618 5.123 13.203 0 15.732 3.521 20.236 0 24.736 5.123 27.265 3.907 32.85 9.621 32.905 10.947 38.463 16.12 36.035 19.726 40.468 23.331 36.035 28.505 38.463 29.832 32.905 35.546 32.85 34.328 27.265 39.453 24.736 35.932 20.236 39.453 15.732 34.328 13.203 35.546 7.618 29.832 7.564 28.505 2.003 23.331 4.433z"/>
        <path fill="#FFF" fill-rule="nonzero" d="M15.191 19.9c1.057 0 1.921-.319 2.594-.956.673-.636 1.01-1.533 1.01-2.69 0-1.158-.337-2.055-1.01-2.692-.673-.636-1.537-.955-2.594-.955-1.085 0-1.964.319-2.636.955-.673.637-1.01 1.534-1.01 2.691 0 1.158.337 2.055 1.01 2.691.672.637 1.551.955 2.636.955zm2.149 8.311l8.377-15.387h-3.58l-8.378 15.387h3.581zm-2.192-10.525c-.347 0-.622-.127-.825-.38-.202-.253-.303-.604-.303-1.053 0-.448.1-.8.303-1.052.203-.253.478-.38.825-.38.362 0 .651.127.868.38.217.253.326.604.326 1.052 0 .449-.109.8-.326 1.053-.217.253-.506.38-.868.38zm9.158 10.742c1.071 0 1.94-.322 2.605-.965.665-.644.998-1.545.998-2.702 0-1.158-.333-2.055-.998-2.691-.666-.637-1.534-.955-2.605-.955-1.056 0-1.92.318-2.593.955-.673.636-1.01 1.533-1.01 2.69 0 1.158.337 2.059 1.01 2.703.673.643 1.537.965 2.593.965zm0-2.213c-.361 0-.643-.127-.846-.38-.202-.253-.304-.611-.304-1.074 0-.449.102-.8.304-1.053.203-.253.485-.38.846-.38.348 0 .626.127.836.38.21.253.315.604.315 1.053 0 .463-.105.82-.315 1.074-.21.253-.488.38-.836.38z"/>
    </g>
</svg>
