<svg xmlns="http://www.w3.org/2000/svg" xmlns:xlink="http://www.w3.org/1999/xlink" width="135" height="245" viewBox="0 0 135 245">
    <defs>
        <path id="a" d="M0 .305h77.382v44.677H0z"/>
    </defs>
    <g fill="none" fill-rule="evenodd">
        <path fill="#F0F4F5" d="M67.052 235.357l6.289-3.63c1.505-.852 2.436-2.687 2.436-5.296l.051.03V82.991c0-5.22-3.721-11.638-8.32-14.294L16.906 39.484c-2.343-1.352-4.457-1.466-5.969-.562l-6.289 3.63 62.403 192.805z"/>
        <g transform="translate(0 200.048)">
            <mask id="b" fill="#fff">
                <use xlink:href="#a"/>
            </mask>
            <path fill="#000" d="M76.444 40.667L69.91 44.44c-1.39.803-3.817.702-5.421-.225L1.328 7.75c-1.605-.926-1.78-2.328-.39-3.13L7.473.846c1.39-.803 3.817-.702 5.422.225l63.16 36.465c1.605.927 1.779 2.328.39 3.13" mask="url(#b)"/>
        </g>
        <path fill="#FFF" d="M69.487 230.062c0 2.61-.93 4.444-2.435 5.295-1.506.85-3.586.718-5.886-.61l-50.549-29.185c-4.6-2.655-8.32-9.074-8.32-14.293V47.8c0-2.561.895-4.376 2.352-5.247 1.512-.903 3.626-.79 5.968.562l50.6 29.215c4.6 2.655 8.322 9.074 8.322 14.293v143.469l-.052-.03z"/>
        <path fill="#1A82FF" d="M6.948 62.289L64.784 95.68v118.083L6.948 180.373z"/>
        <path fill="#FFF" d="M10.732 70.164L61 99.186v20.262L10.732 90.426z"/>
        <path fill="#192A32" d="M13.337 76.613l44.847 25.893v1.326L13.337 77.904zM13.337 81.129l44.847 25.893v1.326L13.337 82.42zM13.337 85.644l17.54 10.127v1.326l-17.54-10.162zM42.094 76.472c0 .355-.207.532-.517.354L31.19 70.828c-.259-.15-.518-.596-.518-.951v-1.542c0-.356.207-.533.518-.355l10.388 5.999c.258.149.517.595.517.95v1.543zM36.409 63.284c.856.495 1.55 1.692 1.55 2.675 0 .983-.694 1.378-1.55.884-.857-.494-1.55-1.692-1.55-2.674 0-.983.693-1.379 1.55-.885M35.892 202.362c2.854 1.648 5.168 5.64 5.168 8.915 0 3.275-2.314 4.595-5.168 2.947-2.855-1.648-5.169-5.64-5.169-8.915 0-3.276 2.314-4.595 5.169-2.947M74.483 120.054c0 .937-.662 2.08-1.48 2.551-.816.472-1.479.094-1.479-.843V110.85c0-.937.663-2.08 1.48-2.551.817-.472 1.479-.094 1.479.843v10.912z"/>
        <path fill="#FFF" stroke="#293F55" d="M93.643 1C71.377 1 53.325 15.663 53.325 33.755c0 10.52 6.105 19.88 15.59 25.87 2.916 7.282-3.639 13.467-10.557 15.13 7.63.655 21.204-.406 31.495-8.393 23.838 1.808 44.108-13.429 44.108-32.607C133.961 15.663 115.909 1 93.643 1"/>
        <path fill="#000" d="M78.184 40.79h5.525v-5.323h-5.525v5.324zm0-9.818h5.525v-5.324h-5.525v5.324zM86.973 35.006h11.703V30.41H86.973z"/>
        <path fill="#000" d="M108.005 41.753c-1.28 2.561-2.96 4.646-5.035 6.253h-5.4v-.502c2.362-1.976 4.12-4.144 5.274-6.505 1.156-2.36 1.733-4.972 1.733-7.835 0-2.863-.577-5.47-1.733-7.823-1.155-2.352-2.912-4.516-5.273-6.491v-.528h5.4c2.075 1.608 3.754 3.692 5.034 6.253 1.281 2.562 1.921 5.417 1.921 8.564 0 3.181-.64 6.052-1.92 8.614"/>
    </g>
</svg>
