<svg xmlns="http://www.w3.org/2000/svg" xmlns:xlink="http://www.w3.org/1999/xlink" width="149" height="251" viewBox="0 0 149 251">
    <defs>
        <path id="a" d="M.107.019h61.897v56.739H.107z"/>
        <path id="c" d="M.278.275h41.7v55.878H.279z"/>
    </defs>
    <g fill="none" fill-rule="evenodd">
        <g transform="translate(37.328 .292)">
            <mask id="b" fill="#fff">
                <use xlink:href="#a"/>
            </mask>
            <path fill="#FFF" d="M31.056.019C13.964.019.107 11.274.107 25.162c0 8.075 4.686 15.26 11.967 19.858 2.238 5.589-2.793 10.337-8.104 11.614 5.858.502 16.277-.312 24.176-6.443 18.299 1.388 33.858-10.308 33.858-25.03C62.004 11.275 48.147.02 31.056.02" mask="url(#b)"/>
        </g>
        <path fill="#FFF" stroke="#293F55" d="M70.631 52.615c0 14.721 15.56 26.417 33.857 25.03 7.9 6.13 18.32 6.945 24.176 6.442-5.31-1.277-10.342-6.025-8.103-11.614 7.28-4.598 11.967-11.783 11.967-19.858 0-13.888-13.858-25.143-30.949-25.143-17.09 0-30.948 11.255-30.948 25.143"/>
        <path fill="#000" d="M42.27 174.65c-9.316-5.38-24.467-5.352-33.841.06-9.375 5.413-9.422 14.16-.106 19.539 9.315 5.378 24.467 5.35 33.841-.061 9.375-5.413 9.422-14.16.106-19.539"/>
        <path fill="#C2CBD3" d="M33.565 120.51c.601.463 1.47.44 2.166.136.696-.302 1.259-.839 1.806-1.365.17-.163.35-.343.393-.576.042-.232-.061-.464-.168-.674a11.074 11.074 0 0 0-2.657-3.366c.611.519 1.316.927 2.07 1.198.38.137.832.23 1.163 0 .346-.24.404-.75.25-1.142-.152-.392-.465-.695-.762-.993a24.309 24.309 0 0 1-6.422-11.667l-2.487-6.114-4.9 12.647 9.548 11.916M28.475 174.943c-.782 0-1.546-.739-2.29-.977-.259-.083-.527-.174-.716-.369a.402.402 0 0 1-.101-.155.531.531 0 0 1-.01-.196l.101-1.28c.008-.092.023-.197.1-.247.051-.032.115-.031.175-.029l2.676.093c.583.02 1.3-.558 1.727-.073.294.334.428 2.068.282 2.491-.229.663-1.308.742-1.944.742M11.894 182.675c-.219-.12-.44-.819-.458-1.067-.01-.126.037-.249.082-.367.14-.361.278-.723.417-1.084a.247.247 0 0 1 .07-.113c.053-.04.127-.032.193-.02.907.168 1.816.202 2.71.351.655.11 1.171-.501 1.287.17.046.268.048 2.359-.131 2.584-.289.361-.8-.342-1.238-.384-.976-.094-2.051.413-2.932-.07"/>
        <path fill="#B2B2B2" d="M32.472 109.937c-.166-.71-.204-1.442-.24-2.169l-.002-.029c-.23-.448-.449-4.697-.652-5.158-.614-1.389-1.101-1.568-1.439-3.05l-2.487-3.584-4.9 12.647L32.3 120.51c.602.463 1.47.439 2.166.136.038-.016.071-.04.109-.058-.464-2.892-1.05-6.115-1.917-8.517l-.186-2.134z"/>
        <path fill="#455D75" d="M21.874 138.968l-2.894 13.943c-.5 2.411-1.002 4.828-1.23 7.28-.229 2.465-.179 4.947-.129 7.422l.205 10.127c.016.775.015 1.608-.43 2.244-.687.986-2.092 1.065-3.294 1.046-1.217-.018-2.635-.142-3.301-1.16-.316-.483-.39-1.08-.456-1.652-.597-5.311-.97-10.647-1.118-15.989-.064-2.31-.085-4.631.214-6.923.363-2.779 1.196-5.491 1.385-8.287.33-4.85-1.283-9.587-2.322-14.335-1.039-4.748-1.69-9.753.81-13.92.8.844 2.746 1.28 3.36 1.407 6.808 1.404 14.939-2.266 18.72-8.1 1.159 3.215 1.818 7.904 2.352 11.298.61 3.878 1.227 7.828.672 11.714-1.204 8.445-3.234 16.953-3.556 25.477-.089 2.335-.131 4.747.735 6.917.234.586.537 1.165.564 1.795.054 1.228-.992 2.285-2.162 2.663-1.17.378-2.435.233-3.655.084-.5-.061-1.047-.147-1.374-.529-.258-.3-.319-.718-.37-1.11-.77-6.056-1.544-12.162-1.065-18.247.361-4.602 1.249-9.841-1.605-13.387l-.056.222z"/>
        <path fill="#13A36B" d="M32.431 83.664a13.15 13.15 0 0 0 .094-9.652c-.293-.753-.676-1.503-1.309-2.004-.843-.666-2.087-.773-3.031-.261l-3.729 1.983L29.62 86.8l2.811-3.135"/>
        <path fill="#1CBA81" d="M9.894 99.372c.6 1.201 1.194 3.39 1.392 4.718.231 1.551.175 3.13.117 4.697-.097 2.67-.197 5.36-.807 7.96 3.513.568 7.87.392 11.363-.289 3.492-.68 7.658-3.338 9.248-6.521-.166-.71-.203-1.441-.24-2.17-.091-1.802-.183-3.605-.273-5.408-.077-1.503-.149-3.038.263-4.486.832-2.92 3.548-5.187 3.752-8.217.201-2.978-2.066-5.459-3.517-8.068-.622-1.118-1.107-2.306-1.59-3.491l-.957-2.349-1.66-4.336-11.927 4.616c-1.557 1.603-5.21 3.03-6.932 4.454l1.768 18.89z"/>
        <path fill="#13A36B" d="M14.39 116.747c.61-2.6.71-5.29.807-7.96.057-1.567.114-3.145-.117-4.697-.197-1.328-.792-3.517-1.392-4.718l-.548-5.854-3.942-1.577.696 7.431c.6 1.201 1.195 3.39 1.392 4.718.231 1.552.175 3.13.117 4.697-.097 2.67-.197 5.36-.807 7.96 1.995.322 4.262.398 6.489.284a26.486 26.486 0 0 1-2.695-.284"/>
        <path fill="#1CBA81" d="M8.126 80.482c-1.948 1.612-3.281 3.867-4.16 6.237-.88 2.37-1.338 4.872-1.792 7.359-.122.667-.243 1.36-.061 2.014.222.803.87 1.418 1.561 1.884a8.299 8.299 0 0 0 5.124 1.387c.515-.033 1.045-.121 1.476-.405.47-.31.77-.82 1.025-1.323.87-1.722 1.41-3.61 1.584-5.531 0 0 .376-3.132.507-5.938.317-6.74-5.264-5.684-5.264-5.684"/>
        <path fill="#C2CBD3" d="M24.438 74.71c-.423.33-.983 2.807-.923 3.34.152 1.352.423 2.69.807 3.996.128.437.272.882.245 1.336-.026.455-.264.93-.69 1.092-.42.16-.888-.02-1.289-.222-1.768-.898-3.225-2.293-4.654-3.669l-2.82-2.714c-.154-.149-.312-.303-.398-.499-.235-.54.15-1.129.457-1.632.632-1.036 1.36-4.136.886-5.664l1.37-1.107 6.43 2.74.579 3.004z"/>
        <path fill="#B2B2B2" d="M17.43 68.967l-1.37 1.107c.232.75.174 1.88-.02 2.957l2.005 2.071c1.059 1.293 2.497 2.319 4.13 2.674a5.68 5.68 0 0 0 1.337.124c.025-.737.534-2.884.926-3.19l-.58-3.003-6.428-2.74z"/>
        <path fill="#C2CBD3" d="M18.045 71.94c1.059 1.294 2.497 2.319 4.13 2.675 1.634.356 3.458-.021 4.68-1.163 1.218-1.14 1.71-2.866 1.85-4.529.14-1.662-.016-3.342.162-5 .057-.53.15-1.063.38-1.543l.935-1.423.263-1.844-1.212-2.424-5.059.053-10.17 3.53-.157 6.008 1.422 2.792 2.776 2.868z"/>
        <path fill="#000" d="M24.003 64.5l-.902.086s.167.656-.359.592c-.525-.063-.774-.636-.774-.636s-1.329.054-1.656.22c-.327.165 1.014-.923 1.867-.861.854.062 1.824.6 1.824.6M29.56 63.377s-.589.298-.801.447c-.213.149-.277.51-.605.51-.329.002-.855-.39-.855-.39s1.227-.907 2.262-.567M26.41 71.3s-2.164.107-2.754.405c0 0 1.117.258 1.642.157.524-.1 1.113-.562 1.113-.562M26.75 69.372l-.04-.414c.282-.026.464-.12.557-.287.207-.374-.042-1.077-.222-1.433-.242-.479-.39-1.896-.407-2.056l.413-.042c.042.414.189 1.564.365 1.911.136.271.556 1.203.214 1.82-.162.293-.458.462-.88.5M27.257 62.796l-.256-.326c.23-.18 2.267-1.767 2.998-1.923l.087.406c-.54.115-2.225 1.37-2.829 1.843M24.661 63.731c-.025-.013-2.564-1.27-3.937-1.406l.04-.413c1.45.143 3.975 1.394 4.082 1.447l-.185.372z"/>
        <path fill="#0C2033" d="M24.152 176.169c.064.967.444 1.959 1.218 2.543 1.051.793 2.51.659 3.781 1 1.327.356 2.44 1.232 3.557 2.031 1.118.8 2.345 1.567 3.716 1.647 1.372.08 2.89-.77 3.087-2.13.144-.986-.428-1.955-1.169-2.622-.74-.667-1.648-1.116-2.464-1.689a9.732 9.732 0 0 1-2.832-3.094c-.148-.257-.296-.533-.55-.686-.41-.246-.95-.084-1.337.194-.388.278-.695.66-1.098.916-.76.482-1.753.438-2.61.164-.652-.208-1.88-1.168-2.575-.91-.848.316-.772 1.912-.724 2.636M16.004 182.626c.38-.157.757-.376 1.167-.36.85.034 1.302.976 1.758 1.693 1.226 1.93 3.657 3.038 4.362 5.214.192.59.23 1.264-.063 1.813-.188.353-.5.628-.848.823-1.183.663-2.65.401-3.972.1-1.702-.39-3.56-.925-4.507-2.391-.564-.873-.75-2.009-1.537-2.688-.52-.449-1.245-.636-1.703-1.148-.72-.803-.95-3.506.318-3.785.609-.135 1.583.62 2.141.791.948.292 1.955.322 2.884-.062"/>
        <path fill="#192A32" d="M11.18 55.843c-.365-.138-.787.105-.976.445-.189.341-.2.75-.19 1.14.06 2.261.683 4.464 1.233 6.659.55 2.194 1.032 4.453.804 6.704-.228 2.25-1.275 4.524-3.194 5.722-1.115.695-2.438.984-3.746 1.102-1.758.158-3.625.001-5.11-.951a31.5 31.5 0 0 0 4.355-2.875c.87-.683 1.711-1.422 2.354-2.322 1.284-1.797 1.671-4.092 1.672-6.301 0-2.21-.348-4.406-.374-6.615-.018-1.525.189-3.207 1.313-4.238.934-.856 2.289-1.058 3.556-1.07l.179 1.813-1.876.787z"/>
        <path fill="#6E3BEA" d="M11.296 57.867c-.338-.39-.417-.956-.316-1.463.1-.507.36-.967.636-1.404.818-1.291 1.894-2.518 3.341-3.01.822-.28 1.881-.229 2.374.486.1.144.171.33.107.493a.577.577 0 0 1-.174.216c-.426.364-.985.524-1.483.782a4.11 4.11 0 0 0-2.07 2.635c-.244.993-1.287 2.564-2.415 1.265"/>
        <path fill="#192A32" d="M15.067 65.37c-.251-.912-.106-2.033.668-2.579 1.536-.41.986 1.307 1.48 1.96.164.22.366.458.64.47.365.015.611-.39.642-.753.03-.364-.069-.734.001-1.092.181-.924 1.34-1.278 2.278-1.195.937.083 1.899.414 2.795.127 1.27-.406 1.841-1.825 2.476-2.996.634-1.172 2.2-1.658 2.976-1.41.529.168 1.425 1.351 1.05 2.367-.237.645-.646 1.433-.178 1.935.989-.381 1.263-1.662 1.16-2.716-.354-3.637-3.526-6.621-7.098-7.389a9.219 9.219 0 0 0-3.254-.133c-1.591.231-3.073.923-4.528 1.606-.739.347-2.7 2.27-2.943 2.798-1.116 2.42-1.955 5.13-1.358 7.728.348 1.515 2.096 5.6 3.836 5.982.93.205-.364-3.697-.643-4.71"/>
        <path fill="#2E3F53" d="M24.485 126.393c-.813 3.915-1.992 8.143-2.805 12.058 3.154 3.546 2.227 8.95 1.855 13.682-.479 6.085.294 12.191 1.066 18.246.05.393.11.81.368 1.111l2.016.569s-1.159-8.958-.843-13.806c.317-4.848 1.054-16.125-.421-19.076-1.476-2.95-1.236-12.784-1.236-12.784"/>
        <path fill="#192A32" d="M9.315 118.764c.798.844 2.745 1.28 3.358 1.407 6.809 1.404 14.94-2.266 18.72-8.1l-.186-2.134c-1.59 3.183-5.756 5.84-9.249 6.521-3.492.681-7.85.857-11.362.289l-1.281 2.017z"/>
        <path fill="#C2CBD3" d="M2.738 98.061a52.039 52.039 0 0 0-1.682 10.368c1.777 2.167 1.808 7.388 4.045 11.853.316.63.69 1.287.617 1.987-.058.57-.1 1.3-.291 1.84-.436 1.24.549 2.978 1.276 3.533.58.444 1.872.933 3.15.628.588-.14 1.27-1.06 1.297-2.207.027-1.12-.229-1.673-.779-2.65.494.513 1.323 1.477 1.785.934.575-.733-.581-1.611-1.234-2.344-1.607-1.801-2.52-4.134-2.977-6.505-.456-2.37.97-7.866-.712-9.597a9 9 0 0 0 1.873-5.79l-.108-.713s-2.252.027-3.556-.487c-1.305-.514-2.49-1.462-2.49-1.462l-.214.612z"/>
        <path fill="#F0F4F5" d="M111.78 206.834l4.332-2.502c1.037-.586 1.678-1.85 1.678-3.648l.036.02v-98.83c0-3.596-2.564-8.017-5.733-9.847L77.236 71.903c-1.613-.932-3.07-1.01-4.111-.388l-4.333 2.502 42.988 132.817z"/>
        <path fill="#0E2032" d="M118.25 210.524l-4.502 2.6c-.957.552-2.63.483-3.735-.155l-43.509-25.12c-1.105-.639-1.225-1.604-.268-2.157l4.502-2.6c.957-.552 2.63-.482 3.735.156l43.509 25.12c1.105.638 1.225 1.603.268 2.156"/>
        <path fill="#FFF" d="M113.457 203.185c0 1.798-.64 3.062-1.678 3.649-1.037.586-2.47.494-4.054-.421l-34.821-20.104c-3.169-1.83-5.733-6.251-5.733-9.847v-98.83c0-1.765.618-3.015 1.621-3.616 1.042-.622 2.498-.544 4.112.388L107.76 94.53c3.169 1.83 5.732 6.25 5.732 9.846v98.831l-.036-.02z"/>
        <path fill="#1A82FF" d="M70.376 87.612l39.841 23.003v81.344l-39.841-23.003z"/>
        <path fill="#FFF" d="M72.983 96.387l34.628 19.992v13.924l-32.366-18.686-2.262 1.804z"/>
        <path fill="#192A32" d="M74.777 100.83l30.894 17.836v.914l-30.894-17.861zM74.777 103.94l30.894 17.837v.913l-30.894-17.86zM74.777 107.05l12.083 6.977v.913l-12.083-7z"/>
        <path fill="#FFF" d="M72.983 139.936l34.628 19.992v13.924l-32.366-18.686-2.262 1.805zM72.983 162.021l34.628 19.993v5.525l-34.628-19.992z"/>
        <path fill="#192A32" d="M74.777 144.378l30.894 17.837v.914l-30.894-17.861zM74.777 147.489l30.894 17.837v.913l-30.894-17.86zM74.777 150.6l12.083 6.976v.913l-12.083-7z"/>
        <path fill="#FFF" d="M72.983 118.161l34.628 19.993v16.412l-2.905-4.165-31.723-18.316z"/>
        <path fill="#192A32" d="M74.777 122.604l30.894 17.836v.914l-30.894-17.86zM74.777 125.714l30.894 17.837v.914l-30.894-17.861zM74.777 128.825l12.083 6.976v.914l-12.083-7zM94.587 97.382c0 .245-.142.367-.356.244l-7.157-4.132c-.178-.103-.356-.41-.356-.655v-1.062c0-.245.143-.367.356-.244l7.157 4.132c.178.103.356.41.356.655v1.062zM90.67 88.298c.59.34 1.069 1.165 1.069 1.842s-.479.95-1.069.61c-.59-.341-1.068-1.166-1.068-1.843s.479-.95 1.068-.61M90.314 184.104c1.967 1.135 3.56 3.885 3.56 6.141 0 2.257-1.593 3.165-3.56 2.03-1.966-1.135-3.56-3.885-3.56-6.141 0-2.256 1.594-3.165 3.56-2.03M116.899 127.405c0 .645-.457 1.432-1.02 1.757-.562.325-1.019.065-1.019-.58v-7.517c0-.646.457-1.433 1.02-1.758.562-.325 1.019-.065 1.019.58v7.518z"/>
        <path fill="#000" d="M140.832 247.104c9.06-5.23 9.014-13.738-.103-19.002-9.117-5.264-23.853-5.29-32.914-.06-9.06 5.231-9.014 13.739.103 19.003 9.118 5.264 23.854 5.29 32.914.06"/>
        <path fill="#C2CBD3" d="M147.66 146.61v33.918a5.498 5.498 0 0 1-5.497 5.498h-2.351V146.27l7.849.34z"/>
        <g transform="translate(106.695 130.317)">
            <mask id="d" fill="#fff">
                <use xlink:href="#c"/>
            </mask>
            <path fill="#455D75" d="M6.656 37.066c-3.042.07-6.218-.735-6.218-2.418 0 0-.721-10.455.901-18.927C2.961 7.25 15.22 3.374 15.22 3.374l.446-.045a5.65 5.65 0 0 0 11.24-.797l-.037-1.008L31.893.31s11.626-1.442 9.914 14.511c0 1.433-2.303 2.23-4.864 2.391h-.124v29.184c0 7.353-15.047 10.55-28.134 9.593a2.69 2.69 0 0 1-2.073-2.619V37.556l.044-.49z" mask="url(#d)"/>
        </g>
        <path fill="#0F3E5E" d="M117.823 233.687a24.739 24.739 0 0 1-7.034.168 3.244 3.244 0 0 0-2.717 5.511c.1.101.217.235.327.32 4.557 3.953 10.464 5.527 16.095 4.72l4.108-4.288.054-1.462-10.833-4.97z"/>
        <path fill="#0C2033" d="M128.71 239.144s.406 1.137 0 2.518c-.406 1.38-1.679 2.193-4.216 2.744-4.307.935-11.538-.767-16.095-4.721-.11-.084-.227-.218-.327-.318a3.235 3.235 0 0 1-.63-3.673c.156.33.357.644.63.916.1.1.217.233.327.318 4.557 3.954 11.77 5.547 16.095 4.721 4.324-.827 4.216-2.505 4.216-2.505"/>
        <path fill="#0F3E5E" d="M130.332 229.138a24.739 24.739 0 0 1-7.034.169 3.244 3.244 0 0 0-2.717 5.511c.101.1.218.234.327.318 4.557 3.954 10.464 5.528 16.096 4.72l4.107-4.286.055-1.462-10.834-4.97z"/>
        <path fill="#0C2033" d="M141.22 234.595s.406 1.137 0 2.518c-.407 1.38-1.68 2.193-4.216 2.744-4.307.935-11.539-.767-16.096-4.721-.11-.084-.226-.217-.326-.318a3.235 3.235 0 0 1-.63-3.673c.155.33.357.644.63.916.1.1.217.233.326.318 4.557 3.954 11.771 5.548 16.096 4.721 4.324-.826 4.216-2.505 4.216-2.505"/>
        <path fill="#C2CBD3" d="M133.414 118.54v14.31a5.648 5.648 0 1 1-11.296 0v-11.021"/>
        <path fill="#C2CBD3" d="M122.358 130.927a7.33 7.33 0 0 1-7.33-7.33v-9.734c0-6.01 4.872-10.882 10.882-10.882s10.882 4.871 10.882 10.882l-.013.45c0 3.71-1.026 7.178-2.808 10.14a2.609 2.609 0 0 1-2.037.976s-5.874 5.498-9.576 5.498"/>
        <path fill="#2E3F53" d="M143.515 144.747v2.781h.123c.587-.037 1.16-.107 1.696-.21l-1.82-2.571z"/>
        <path fill="#1CBA81" d="M129.828 235.585c4.394 1.448 12.635.62 12.635-2.482v-46.739l.007-6.498c-3.628 5.1-16.055 7.246-27.09 6.439a2.675 2.675 0 0 1-.842-.359l-.014 6.499v45.435c0 4.23 15.321 4.23 15.321 0v-42.902"/>
        <path fill="#13A36B" d="M114.523 185.946v51.934c0 1.402 1.683 2.34 3.934 2.812v-53.807l-3.934-.939zM129.828 195.983v39.602c1.098.362 2.437.582 3.828.66v-42.861l-3.828 2.599z"/>
        <path fill="#2E3F53" d="M118.826 155.232v9.733c0 1.539-2.655 2.345-5.435 2.417l-.084 1.14v15.165a2.69 2.69 0 0 0 2.073 2.618c2.23.163 4.517.205 6.777.127v-8.157l-3.331-23.043z"/>
        <path fill="#C2CBD3" d="M108.24 194.548c0-2.343 1.525-3.115 1.525-10.836V167.1l7-.466v29.907c0 3.369-1.43 6.1-4.8 6.1a2.794 2.794 0 0 1-2.793-2.795s-.932-2.954-.932-5.297M114.91 117.166s-.573 1.506-.931 2.008c-.359.502-.789 1.506.215 1.65l1.004.286"/>
        <path fill="#192A32" d="M114.672 111.717c1.53 1.53 5.163 1.53 6.501 2.677 1.339 1.147-1.338 3.442-1.912 4.398-.574.956.956 1.72 1.721.573.765-1.147 3.25-4.398 4.78-2.868 1.53 1.53-1.338 6.31-1.338 7.266 0 .957-.574 4.016 1.72 3.825 2.296-.191 6.693-.383 7.458-1.721.765-1.339 3.634-7.84 4.207-10.135.574-2.295.191-11.043-5.737-13.003-1.095-.362-2.693-.648-4.304-.845-.447-.054.252-2.396-.186-2.437-.26-.023-1.664 2.25-1.915 2.231a31.984 31.984 0 0 0-2.295-.096c-.792 0-2.804-1.56-2.804-1.56s.75 2 .034 2.236c-.638.209-3.349-.58-3.349-.58s1.588 1.233 1.148 1.625c-1.175 1.044-2.912 3.032-3.304 4.19-.757 2.233-.425 4.224-.425 4.224"/>
        <path fill="#000" d="M114.767 122.473s1.434.573 2.008 1.147c.574.573-2.046.028-2.046.028l.038-1.175zM115.198 115.23s.645-.143 1.434.216l.018.008c.774.358.986.852.986.852s-.837-.359-.933-.407c-.095-.047-.047.36-.358.287-.31-.071-.215-.454-.43-.525-.215-.072-.717-.43-.717-.43"/>
        <path fill="#DCE1E5" d="M114.729 113.518c.612.11 2.333.206 3.958 1.545"/>
        <path fill="#000" d="M118.505 115.284c-1.364-1.123-2.783-1.329-3.544-1.44a8.7 8.7 0 0 1-.283-.043l.102-.565c.072.013.16.026.263.04.76.111 2.339.34 3.827 1.565l-.365.443zM57.3 28.133c.164-.13.247-.344.247-.64 0-.578-.335-.868-1.005-.868H54.82v1.704h1.72c.341 0 .594-.066.759-.196zM54.82 24h1.465c.341 0 .594-.068.758-.204.165-.136.247-.346.247-.63 0-.296-.082-.514-.247-.656-.164-.142-.417-.213-.758-.213h-1.465V24zm5.988 2.224c.403.528.605 1.138.605 1.831 0 1.056-.349 1.871-1.048 2.445-.698.573-1.7.86-3.006.86h-6.32V19.299h6.15c1.226 0 2.19.267 2.895.801.704.534 1.057 1.312 1.057 2.334 0 .704-.185 1.298-.554 1.78-.37.483-.86.804-1.474.963.727.17 1.292.52 1.695 1.048zM66.389 19.3v6.797c0 .557.122.996.366 1.32.244.324.639.486 1.184.486.545 0 .948-.162 1.21-.486.26-.324.391-.763.391-1.32v-6.798h3.765v6.798c0 1.147-.238 2.127-.715 2.939a4.58 4.58 0 0 1-1.96 1.83c-.829.41-1.754.614-2.776.614-1.022 0-1.928-.204-2.717-.613a4.363 4.363 0 0 1-1.849-1.823c-.443-.806-.664-1.789-.664-2.947v-6.798h3.765zM86.525 19.3l-4.327 8.398v3.663h-3.782v-3.663L74.089 19.3h4.327l1.925 4.277 1.925-4.277zM92.326 56.265c-.358.557-.878.997-1.559 1.32-.681.324-1.494.486-2.436.486-1.443 0-2.632-.338-3.57-1.013-.936-.676-1.445-1.667-1.524-2.973h4.02c.057.692.364 1.039.92 1.039.193 0 .35-.051.469-.153.12-.103.179-.25.179-.443 0-.284-.145-.509-.434-.673-.29-.165-.759-.355-1.406-.571-.761-.25-1.394-.505-1.9-.767a3.8 3.8 0 0 1-1.32-1.158c-.375-.511-.562-1.176-.562-1.993 0-.784.202-1.451.605-2.002.403-.551.954-.969 1.652-1.253.699-.283 1.485-.425 2.36-.425 1.442 0 2.59.335 3.441 1.005.852.67 1.317 1.635 1.397 2.896h-4.071c-.058-.636-.319-.954-.784-.954-.16 0-.29.049-.392.145-.102.096-.153.241-.153.434 0 .262.144.475.434.64.29.164.741.354 1.354.57.773.272 1.411.542 1.917.809.505.267.948.659 1.329 1.176.38.516.57 1.178.57 1.984a3.39 3.39 0 0 1-.536 1.874M97.973 48.889v1.499h3.748v2.845h-3.748v1.704h4.26v3.015H94.19V45.89h8.041v2.999zM107.446 55.09h3.645v2.862h-7.427V45.89h3.782zM116.066 55.09h3.645v2.862h-7.427V45.89h3.782z"/>
    </g>
</svg>
