<svg xmlns="http://www.w3.org/2000/svg" xmlns:xlink="http://www.w3.org/1999/xlink" width="201" height="216" viewBox="0 0 201 216">
    <defs>
        <path id="a" d="M.076.054h25.535v32.808H.076z"/>
        <path id="c" d="M.326.33H22.76v28.186H.326z"/>
        <path id="e" d="M0 .053h46.07v50.768H0z"/>
    </defs>
    <g fill="none" fill-rule="evenodd">
        <path fill="#6F8294" d="M92.622 81.257l71.363-41.187.48-.292c5.896-3.405 10.677-.679 10.677 6.088v61.443c0 6.745-4.765 14.964-10.643 18.358l-1.148.654-70.73 40.821V81.257z"/>
        <path fill="#C2CBD3" d="M191.416 50.737c-1.615-.195-3.513.25-5.543 1.422L115.42 92.85c-5.935 3.427-15.645 3.427-21.58 0-5.934-3.426-5.934-9.032 0-12.458l70.453-40.69c3.827-2.21 7.183-1.838 9.068.545l-.128-.073c-.28-.162-.63-.241-1.031-.241-.836 0-1.897.342-3.033.998l-73.573 42.5c-1.689.975-2.697 2.168-2.697 3.19 0 1.023 1.008 2.215 2.696 3.19 2.311 1.334 5.604 2.1 9.035 2.1s6.724-.766 9.035-2.1l66.5-38.424c2.22-1.281 4.471-1.928 6.57-1.928 1.625 0 3.159.388 4.515 1.17l.165.11z"/>
        <path fill="#1AB57D" d="M123.165 84.633c0-8.091-5.716-11.35-12.768-7.28-7.05 4.072-12.767 13.931-12.767 22.022 0 8.092 5.716 11.35 12.767 7.28 7.052-4.071 12.768-13.93 12.768-22.022"/>
        <path fill="#26D198" d="M124.536 85.319c0-8.092-5.716-11.35-12.767-7.28-7.051 4.072-12.767 13.93-12.767 22.022 0 8.091 5.716 11.35 12.767 7.28 7.051-4.072 12.767-13.931 12.767-22.022"/>
        <path fill="#0F7CE8" d="M136.834 72.12c0-8.092-5.716-11.35-12.767-7.28-7.051 4.071-12.767 13.93-12.767 22.022 0 8.091 5.716 11.35 12.767 7.279 7.051-4.07 12.767-13.93 12.767-22.022"/>
        <path fill="#1A82FF" d="M138.206 72.805c0-8.091-5.716-11.35-12.767-7.279-7.051 4.071-12.767 13.93-12.767 22.022 0 8.091 5.716 11.35 12.767 7.279 7.051-4.071 12.767-13.93 12.767-22.022"/>
        <path fill="#5028CE" d="M130.349 55.915c0-8.091-5.716-11.35-12.768-7.28-7.05 4.072-12.767 13.931-12.767 22.022 0 8.092 5.716 11.35 12.767 7.28 7.052-4.072 12.768-13.93 12.768-22.022"/>
        <path fill="#6E3BEA" d="M131.72 56.6c0-8.09-5.715-11.35-12.767-7.278-7.05 4.07-12.767 13.93-12.767 22.021 0 8.091 5.716 11.35 12.767 7.28 7.052-4.072 12.768-13.931 12.768-22.022"/>
        <path fill="#FFF" d="M119.79 54.48l-.112.503v12.712l.112.064 5.142-6.457z"/>
        <path fill="#FFF" d="M119.79 54.48l-5.142 12.76 5.142.519v-6.17zM119.79 68.876l-.063.126v4.528l.063.175 5.145-11.286z"/>
        <path fill="#FFF" d="M119.79 73.705v-4.829l-5.142-.517zM119.79 67.759l5.142-6.457-5.142.287zM114.648 67.24l5.142.52v-6.171z"/>
        <path fill="#5028CE" d="M144.759 24.58c0-8.091-5.716-11.35-12.768-7.28-7.05 4.072-12.767 13.931-12.767 22.022 0 8.092 5.716 11.35 12.767 7.28 7.052-4.071 12.768-13.93 12.768-22.022"/>
        <path fill="#6E3BEA" d="M146.13 25.266c0-8.091-5.716-11.35-12.767-7.28-7.051 4.072-12.767 13.931-12.767 22.022 0 8.092 5.716 11.35 12.767 7.28 7.051-4.072 12.767-13.931 12.767-22.022"/>
        <path fill="#FFF" d="M134.2 23.145l-.113.504V36.36l.113.064 5.142-6.457z"/>
        <path fill="#FFF" d="M134.2 23.145l-5.143 12.76 5.143.519v-6.17zM134.2 37.541l-.064.126v4.528l.064.175 5.145-11.285z"/>
        <path fill="#FFF" d="M134.2 42.37v-4.828l-5.143-.518zM134.2 36.424l5.142-6.457-5.142.287zM129.057 35.905l5.142.52v-6.17z"/>
        <path fill="#5028CE" d="M165.074 59.928c0-8.091-5.716-11.35-12.768-7.28-7.05 4.072-12.767 13.931-12.767 22.022 0 8.092 5.716 11.35 12.767 7.28 7.052-4.071 12.768-13.93 12.768-22.022"/>
        <path fill="#6E3BEA" d="M166.446 60.614c0-8.092-5.716-11.35-12.768-7.28-7.05 4.072-12.767 13.931-12.767 22.022 0 8.092 5.716 11.35 12.767 7.28 7.052-4.072 12.768-13.931 12.768-22.022"/>
        <path fill="#0F7CE8" d="M159.703 36.664c0-8.091-5.716-11.35-12.767-7.279-7.051 4.07-12.768 13.93-12.768 22.022 0 8.09 5.717 11.35 12.768 7.279 7.05-4.071 12.767-13.93 12.767-22.022"/>
        <path fill="#1A82FF" d="M161.075 37.35c0-8.091-5.716-11.35-12.768-7.28-7.05 4.072-12.767 13.931-12.767 22.022 0 8.092 5.716 11.35 12.767 7.28 7.052-4.071 12.768-13.93 12.768-22.022"/>
        <path fill="#FFF" d="M153.933 37.917l-2.052 3.539c.082.42.125.907.125 1.46 0 2.979-1.22 5.46-3.262 6.64-.851.492-1.57.594-2.112.311l7.109-12.262a3.1 3.1 0 0 0-.652-.703 2.6 2.6 0 0 0-.321-.21c-.014-.01-.03-.015-.044-.024-.033-.017-.064-.038-.098-.054l-.001.003c-1.033-.509-2.36-.325-3.88.553-1.759 1.015-3.258 2.656-4.337 4.744-1.014 1.964-1.573 4.2-1.573 6.297 0 1.393.249 2.56.711 3.422l2.063-3.559a8.15 8.15 0 0 1-.108-1.402c0-1.371.243-2.62.723-3.712.562-1.281 1.434-2.29 2.52-2.917.846-.489 1.55-.589 2.085-.329l-7.095 12.237c.195.294.42.542.674.74a2.591 2.591 0 0 0 .158.112c.06.04.123.079.186.114l.024.014c.02.01.04.024.06.034l.002-.003c1.033.53 2.37.353 3.906-.534 1.759-1.015 3.262-2.657 4.345-4.748 1.02-1.97 1.582-4.208 1.582-6.302 0-1.415-.257-2.598-.738-3.461"/>
        <g transform="translate(106.259 .318)">
            <mask id="b" fill="#fff">
                <use xlink:href="#a"/>
            </mask>
            <path fill="#0F7CE8" d="M25.61 9.087c0-8.092-5.716-11.35-12.767-7.28C5.793 5.878.076 15.737.076 23.83c0 8.091 5.716 11.35 12.767 7.28 7.051-4.072 12.768-13.931 12.768-22.022" mask="url(#b)"/>
        </g>
        <path fill="#1A82FF" d="M133.241 10.09c0-8.091-5.716-11.35-12.767-7.279-7.051 4.07-12.768 13.93-12.768 22.022 0 8.09 5.717 11.35 12.768 7.279 7.051-4.071 12.767-13.93 12.767-22.022"/>
        <path fill="#FFF" d="M126.1 10.657l-2.052 3.539c.081.42.124.907.124 1.46 0 2.98-1.22 5.461-3.262 6.64-.851.492-1.57.594-2.112.312l7.11-12.263a3.1 3.1 0 0 0-.653-.702 2.6 2.6 0 0 0-.32-.21V9.43c-.015-.008-.03-.014-.044-.023-.033-.017-.065-.037-.098-.054l-.002.003c-1.032-.509-2.36-.325-3.88.553-1.758 1.015-3.258 2.656-4.336 4.744-1.015 1.964-1.573 4.2-1.573 6.297 0 1.393.248 2.56.71 3.422l2.063-3.558a8.15 8.15 0 0 1-.108-1.403c0-1.371.243-2.62.723-3.712.563-1.281 1.434-2.29 2.52-2.917.846-.488 1.55-.589 2.086-.329L115.9 24.691c.195.294.42.542.674.74.05.04.103.076.156.11l.001.002c.06.04.123.079.186.114l.024.014c.02.01.04.024.06.034l.003-.003c1.032.531 2.37.353 3.905-.533 1.76-1.016 3.262-2.658 4.345-4.75 1.02-1.969 1.583-4.207 1.583-6.301 0-1.415-.258-2.598-.738-3.461"/>
        <path fill="#0F7CE8" d="M116.826 44.012c0-8.091-5.716-11.35-12.768-7.279-7.05 4.07-12.767 13.93-12.767 22.022 0 8.09 5.716 11.35 12.767 7.279 7.052-4.071 12.768-13.93 12.768-22.022"/>
        <path fill="#1A82FF" d="M118.198 44.698c0-8.091-5.717-11.35-12.768-7.28C98.38 41.49 92.663 51.35 92.663 59.44c0 8.092 5.716 11.35 12.767 7.28 7.051-4.071 12.768-13.93 12.768-22.022"/>
        <path fill="#FFF" d="M111.056 45.265l-2.051 3.539c.081.42.123.907.123 1.46 0 2.979-1.219 5.461-3.261 6.64-.852.492-1.57.594-2.112.311l7.109-12.262a3.1 3.1 0 0 0-.652-.703 2.6 2.6 0 0 0-.321-.21c-.014-.01-.03-.016-.044-.024-.032-.018-.064-.038-.098-.054l-.001.003c-1.032-.509-2.36-.325-3.881.553-1.758 1.015-3.257 2.656-4.336 4.744-1.014 1.964-1.573 4.2-1.573 6.297 0 1.393.248 2.56.711 3.422l2.063-3.559a8.15 8.15 0 0 1-.108-1.402c0-1.371.243-2.62.723-3.712.562-1.281 1.434-2.29 2.52-2.917.846-.489 1.55-.589 2.085-.329L100.857 59.3c.195.294.42.542.674.74a2.591 2.591 0 0 0 .158.112c.06.04.123.079.186.114l.024.014c.02.01.04.024.06.034l.002-.003c1.033.53 2.37.353 3.906-.534 1.759-1.015 3.261-2.657 4.345-4.749 1.02-1.969 1.582-4.207 1.582-6.302 0-1.414-.257-2.597-.738-3.46"/>
        <path fill="#1AB57D" d="M154.126 74.483c0-8.091-5.716-11.35-12.767-7.279-7.051 4.07-12.767 13.93-12.767 22.022 0 8.09 5.716 11.35 12.767 7.279 7.051-4.071 12.767-13.93 12.767-22.022"/>
        <path fill="#26D198" d="M155.498 75.169c0-8.091-5.716-11.35-12.767-7.28-7.051 4.072-12.767 13.931-12.767 22.022 0 8.092 5.716 11.35 12.767 7.28 7.051-4.071 12.767-13.93 12.767-22.022"/>
        <path fill="#000" d="M199.746 140.704l-84.325 48.714c-5.935 3.426-15.645 3.426-21.58 0-5.934-3.426-5.934-9.033 0-12.459l84.325-48.713 21.58 12.458z"/>
        <path fill="#98A7B4" d="M196.55 119.69V58.247c0-6.767-4.78-9.492-10.677-6.088l-.48.292L115.42 92.85c-2.967 1.713-6.88 2.57-10.792 2.57v85.885c3.912 0 7.825-.856 10.792-2.57l69.34-40.033 1.148-.655c5.878-3.393 10.643-11.612 10.643-18.357"/>
        <path fill="#2E3F53" d="M196.318 96.948l-17.08 11.693s-1.974-1.088-2.403-1.47c-.377-.337-.608-.941-.608-1.75V94.295c0-1.726 1.05-3.73 2.344-4.478l17.747-10.246c.57-.33 1.094-.36 1.5-.142.516.276 2.108 1.278 2.108 1.278l-1.264 11.763c0 1.727-1.05 3.732-2.344 4.479"/>
        <g transform="translate(177.965 80.198)">
            <mask id="d" fill="#fff">
                <use xlink:href="#c"/>
            </mask>
            <path fill="#929292" d="M20.416 17.989L2.67 28.234c-1.294.748-2.344-.045-2.344-1.772V15.335c0-1.726 1.05-3.731 2.344-4.478L20.416.61c1.295-.748 2.344.045 2.344 1.772V13.51c0 1.726-1.05 3.731-2.344 4.479" mask="url(#d)"/>
        </g>
        <path fill="#98A7B4" d="M104.628 95.42c-3.91 0-7.82-.858-10.787-2.57-2.891-1.67-4.363-3.858-4.436-6.058v85.885c.073 2.2 1.545 4.389 4.437 6.058 2.966 1.713 6.876 2.57 10.786 2.57V95.42z"/>
        <path fill="#2E3F53" d="M181.984 99.202c0-2.378 1.68-5.276 3.753-6.473 2.072-1.196 3.752-.239 3.752 2.14 0 2.378-1.68 5.276-3.752 6.473-2.073 1.196-3.753.238-3.753-2.14"/>
        <path fill="#C2CBD3" d="M191.416 50.737c-1.615-.195-3.513.25-5.543 1.422L115.42 92.85c-5.935 3.427-15.645 3.427-21.58 0-5.934-3.426-5.934-9.032 0-12.458l1.756 3.039c-1.689.975-2.697 2.168-2.697 3.19 0 1.023 1.008 2.215 2.696 3.19 2.311 1.334 5.604 2.1 9.035 2.1s6.724-.766 9.035-2.1l66.5-38.424c2.22-1.281 4.471-1.928 6.57-1.928 1.625 0 3.159.388 4.515 1.17l.165.11z"/>
        <path fill="#000" d="M142 185.776c3.03-1.212 3.636-4.85.605-10.912-3.03-6.061-22.428-16.366-26.065-17.882-3.638-1.515-19.702-13.942-23.642-18.489-3.94-4.546-11.82-12.426-20.913-16.064-6.942-2.776-18.476-7.672-23.545-9.834l.206-.32s-.468-3.086-2.654-4.41l.078-.136-25.763-10.76S7.896 103.007 2.88 113.64C-2.172 124.35.96 138.09.96 138.09l22.076 9.649.016-.027c2.293.942 3.745-1.477 4.026-1.998 6.801 4.598 1.63 20.013 2.475 23.393.909 3.637 14.245 22.732 19.094 25.157 4.85 2.424 27.885 10.305 27.885 10.305 2.425-.303 2.425-2.425 2.425-2.425s21.216 8.79 28.188 11.215c6.97 2.424 12.123 2.727 16.366.909 4.244-1.819 2.122-8.184 2.122-8.184s10.609 6.971 15.761 4.85c5.153-2.122 4.85-6.365 4.85-6.365s1.616 1.819 4.243-3.334c5.503-10.794-8.487-15.458-8.487-15.458"/>
        <g transform="translate(0 85.77)">
            <mask id="f" fill="#fff">
                <use xlink:href="#e"/>
            </mask>
            <path fill="#26D198" d="M46.07 10.813L20.307.053S7.895 6.09 2.88 16.723C-2.172 27.433.96 41.173.96 41.173l22.076 9.648" mask="url(#f)"/>
        </g>
        <path fill="#13A06A" d="M48.646 101.13s-.757-5.001-4.85-5.001c-4.09 0-13.739 4.695-19.094 13.336-6.668 10.76-5.456 24.55-2.425 26.672 3.031 2.122 4.85-1.667 4.85-1.667"/>
        <path fill="#C2CBD3" d="M25.308 133.712c9.396 3.031 3.334 20.61 4.244 24.248.909 3.637 14.245 22.732 19.095 25.157 4.849 2.424 27.884 10.305 27.884 10.305 2.425-.303 2.425-2.425 2.425-2.425s21.216 8.79 28.188 11.214c6.97 2.425 12.123 2.728 16.367.91 4.243-1.819 2.121-8.184 2.121-8.184s10.609 6.971 15.761 4.85c5.153-2.122 4.85-6.365 4.85-6.365s1.616 1.818 4.243-3.334c5.503-10.794-8.487-15.458-8.487-15.458 3.031-1.213 3.637-4.85.607-10.911-3.031-6.062-22.43-16.368-26.066-17.883-3.638-1.516-19.702-13.942-23.642-18.489-3.94-4.546-11.82-12.426-20.913-16.063-9.093-3.638-26.066-10.912-26.066-10.912s-10.002-2.425-17.883 10.912c-7.88 13.335-2.728 22.428-2.728 22.428"/>
        <path stroke="#B2B2B2" stroke-linecap="round" stroke-linejoin="round" stroke-width="2.447" d="M78.956 190.997s4.243-12.73-9.699-19.7c-13.943-6.972-14.245-10.61-15.155-13.64M125.632 194.937s-1.212-6.668-9.396-9.396c-8.183-2.728-26.672-12.123-28.49-13.639M146.243 193.422s2.727-5.456-5.76-10.608c-8.486-5.153-38.795-17.883-38.795-17.883M142 174.63l-34.553-18.186"/>
        <path fill="#B2B2B2" d="M56.224 117.345s18.185 30.007 10.002 40.312l-4.85 5.152s12.124-9.092 15.761-13.336c3.637-4.243 12.427-15.458 12.427-15.458L73.5 149.777s-1.818-19.702-17.276-32.432"/>
        <path fill="#111D28" d="M78.617 176.529c-5.03-2.904-7.545-6.713-7.55-10.53-.004-3.857 2.552-7.722 7.664-10.674 10.174-5.873 26.617-5.903 36.727-.066 5.03 2.904 7.544 6.713 7.549 10.53.004 3.857-2.552 7.722-7.664 10.673-10.174 5.874-26.617 5.904-36.726.067"/>
        <path fill="#1A82FF" d="M123.007 158.573v4.548c.004 3.856-2.552 7.721-7.664 10.673-10.174 5.873-26.617 5.903-36.727.066-5.03-2.904-7.544-6.712-7.548-10.53v-4.757h51.939z"/>
        <path fill="#40A0FF" d="M78.617 169.313c-5.03-2.904-7.545-6.713-7.55-10.531-.004-3.856 2.552-7.722 7.664-10.673 10.174-5.874 26.617-5.904 36.727-.067 5.03 2.904 7.544 6.713 7.549 10.531.004 3.857-2.552 7.722-7.664 10.673-10.174 5.874-26.617 5.903-36.726.067"/>
        <path fill="#1A82FF" d="M96.874 170.571c-6.37 0-12.304-1.4-16.707-3.943-3.866-2.231-5.996-5.02-6-7.85-.003-2.83 2.226-5.74 6.114-7.985 4.479-2.585 10.487-4.01 16.92-4.01 6.37 0 12.303 1.4 16.707 3.944 3.865 2.232 5.996 5.02 5.999 7.85.003 2.83-2.225 5.74-6.114 7.984-4.479 2.586-10.487 4.01-16.919 4.01"/>
        <path fill="#0F7CE8" d="M80.282 151.413c4.478-2.586 10.486-4.01 16.918-4.01 6.37 0 12.304 1.401 16.708 3.944 3.724 2.15 5.832 4.817 5.984 7.54.005-.104.015-.207.015-.31-.004-2.83-2.134-5.619-5.999-7.85-4.404-2.543-10.338-3.943-16.708-3.943-6.432 0-12.44 1.424-16.918 4.01-3.89 2.244-6.118 5.155-6.115 7.984 0 .103.01.206.015.309.153-2.73 2.353-5.51 6.1-7.674"/>
        <path fill="#FFF" d="M94.217 164.623l.016-2.994a12.942 12.942 0 0 1-1.84-.88c-3.269-1.888-3.675-3.907-1.087-5.401 1.08-.624 2.334-.952 3.675-.97l-.056 10.372c.666.106 1.338.176 2.01.207.284.013.563.016.842.015v.001l.11-.001c.081 0 .164 0 .245-.002v-.002c2.52-.056 4.843-.658 6.77-1.77 2.229-1.287 3.279-2.876 3.037-4.594-.227-1.616-1.62-3.237-3.921-4.566-1.53-.883-3.283-1.532-5.108-1.908l-.016 3.01c.582.231 1.165.514 1.745.848 1.504.87 2.413 1.75 2.7 2.618.337 1.018-.213 1.976-1.59 2.77-1.072.62-2.3.94-3.603.972l.056-10.352a18.03 18.03 0 0 0-2.511-.235h-.004c-.16-.004-.32-.005-.48-.004h-.212v.003c-2.547.041-4.895.643-6.842 1.767-2.23 1.287-3.283 2.878-3.047 4.6.221 1.621 1.61 3.245 3.91 4.573 1.552.896 3.34 1.551 5.201 1.923"/>
    </g>
</svg>
