<svg xmlns="http://www.w3.org/2000/svg" xmlns:xlink="http://www.w3.org/1999/xlink" width="160" height="47" viewBox="0 0 160 47">
    <defs>
        <path id="a" d="M0 0h160v47H0z"/>
    </defs>
    <g fill="none" fill-rule="evenodd">
        <mask id="b" fill="#fff">
            <use xlink:href="#a"/>
        </mask>
        <path fill="#000" d="M154.074 47H5.926C2.607 47 0 44.415 0 41.125V5.875C0 2.585 2.607 0 5.926 0h148.148C157.393 0 160 2.585 160 5.875v35.25c0 3.29-2.489 5.875-5.926 5.875" mask="url(#b)"/>
        <path fill="#A6A6A6" d="M154.074 0H5.926C2.607 0 0 2.585 0 5.875v35.25C0 44.415 2.607 47 5.926 47h148.148c3.319 0 5.926-2.585 5.926-5.875V5.875C160 2.82 157.511 0 154.074 0m0 1.058c2.726 0 4.977 2.232 4.977 4.935v35.25c0 2.702-2.25 4.935-4.977 4.935H5.926c-2.726 0-4.978-2.233-4.978-4.935V5.993c0-2.703 2.252-4.935 4.978-4.935h148.148" mask="url(#b)"/>
        <path fill="#FFF" d="M35.233 23.011c-.034-3.787 3.128-5.63 3.272-5.715-1.79-2.588-4.566-2.942-5.541-2.97-2.332-.244-4.593 1.383-5.78 1.383-1.212 0-3.04-1.36-5.012-1.32-2.536.039-4.909 1.495-6.21 3.755-2.686 4.61-.683 11.384 1.89 15.11 1.288 1.825 2.792 3.862 4.76 3.79 1.926-.078 2.645-1.217 4.97-1.217 2.302 0 2.978 1.217 4.986 1.172 2.067-.033 3.368-1.833 4.61-3.675 1.487-2.091 2.085-4.151 2.109-4.257-.05-.016-4.015-1.517-4.054-6.056M31.44 11.875c1.037-1.285 1.745-3.032 1.549-4.805-1.5.066-3.375 1.028-4.454 2.284-.956 1.107-1.809 2.921-1.589 4.627 1.685.125 3.414-.842 4.495-2.106M58.495 30.262L57.16 26.18c-.14-.417-.405-1.4-.795-2.946h-.047a112.88 112.88 0 0 1-.75 2.946l-1.309 4.083h4.235zm4.61 6.52h-2.691l-1.475-4.593h-5.125l-1.404 4.593h-2.62l5.077-15.637h3.136l5.102 15.637zM73.588 31.097c0-1.097-.249-2.002-.749-2.714-.546-.742-1.28-1.114-2.2-1.114-.623 0-1.19.207-1.696.615-.507.411-.839.948-.994 1.613-.078.31-.117.564-.117.764v1.88c0 .82.253 1.512.76 2.077.508.565 1.167.847 1.978.847.951 0 1.692-.364 2.222-1.09.53-.727.796-1.686.796-2.878m2.574-.091c0 1.917-.522 3.433-1.568 4.546-.936.99-2.099 1.485-3.486 1.485-1.498 0-2.575-.533-3.23-1.6h-.047v5.94h-2.527V29.218c0-1.206-.032-2.443-.094-3.712h2.222l.141 1.787h.048c.842-1.347 2.121-2.019 3.837-2.019 1.342 0 2.462.526 3.358 1.577.898 1.053 1.346 2.437 1.346 4.154M86.669 31.097c0-1.097-.25-2.002-.75-2.714-.547-.742-1.278-1.114-2.199-1.114-.624 0-1.19.207-1.697.615a2.845 2.845 0 0 0-.993 1.613c-.077.31-.118.564-.118.764v1.88c0 .82.254 1.512.759 2.077.507.564 1.166.847 1.98.847.951 0 1.692-.364 2.221-1.09.531-.727.797-1.686.797-2.878m2.574-.091c0 1.917-.523 3.433-1.569 4.546-.935.99-2.098 1.485-3.486 1.485-1.498 0-2.574-.533-3.228-1.6h-.048v5.94h-2.526V29.218c0-1.206-.032-2.443-.094-3.712h2.222l.141 1.787h.048c.841-1.347 2.12-2.019 3.837-2.019 1.34 0 2.46.526 3.36 1.577.894 1.053 1.343 2.437 1.343 4.154M103.869 32.397c0 1.33-.466 2.412-1.401 3.248-1.028.913-2.458 1.369-4.297 1.369-1.697 0-3.057-.325-4.087-.975l.585-2.087a6.972 6.972 0 0 0 3.653.998c.952 0 1.692-.214 2.224-.639.53-.425.795-.996.795-1.708 0-.635-.219-1.17-.656-1.603-.435-.434-1.161-.837-2.176-1.21-2.761-1.02-4.14-2.516-4.14-4.483 0-1.285.483-2.34 1.451-3.16.965-.82 2.252-1.23 3.861-1.23 1.436 0 2.628.247 3.58.742l-.632 2.042c-.889-.48-1.894-.72-3.019-.72-.889 0-1.583.218-2.081.65a1.85 1.85 0 0 0-.632 1.416c0 .618.24 1.13.724 1.531.421.372 1.186.774 2.295 1.207 1.357.542 2.354 1.175 2.995 1.901.639.724.958 1.63.958 2.711M112.223 27.387h-2.785v5.474c0 1.393.49 2.088 1.474 2.088.451 0 .826-.039 1.122-.116l.07 1.902c-.498.185-1.153.278-1.965.278-.998 0-1.778-.302-2.34-.905-.561-.604-.843-1.617-.843-3.04v-5.683h-1.66v-1.88h1.66V23.44l2.482-.743v2.808h2.785v1.882zM122.168 31.133c0-1.04-.224-1.932-.678-2.676-.53-.9-1.287-1.349-2.269-1.349-1.015 0-1.787.45-2.317 1.35-.454.744-.678 1.65-.678 2.722 0 1.04.224 1.931.678 2.674.547.9 1.31 1.349 2.295 1.349.965 0 1.722-.458 2.268-1.372.466-.758.7-1.66.7-2.698m2.622-.081c0 1.733-.5 3.156-1.498 4.268-1.046 1.146-2.435 1.717-4.167 1.717-1.669 0-2.997-.549-3.988-1.646-.99-1.098-1.486-2.483-1.486-4.153 0-1.747.51-3.178 1.532-4.29 1.02-1.115 2.398-1.671 4.13-1.671 1.668 0 3.011.548 4.024 1.647.97 1.066 1.453 2.442 1.453 4.128M133.003 27.71a4.425 4.425 0 0 0-.797-.07c-.889 0-1.576.333-2.06 1-.42.587-.631 1.33-.631 2.226v5.916h-2.525l.023-7.724c0-1.3-.032-2.483-.095-3.55h2.2l.094 2.157h.07c.266-.74.686-1.338 1.263-1.786a3.07 3.07 0 0 1 1.826-.603c.233 0 .445.016.632.045v2.39zM141.894 29.961c.016-.742-.148-1.384-.49-1.926-.438-.696-1.11-1.044-2.015-1.044-.826 0-1.498.34-2.01 1.02-.422.543-.672 1.192-.749 1.949h5.264v.001zm2.41.65c0 .449-.03.827-.093 1.136h-7.58c.029 1.114.395 1.966 1.1 2.553.639.526 1.464.789 2.479.789 1.123 0 2.146-.178 3.067-.534l.396 1.74c-1.076.465-2.347.696-3.813.696-1.764 0-3.148-.514-4.155-1.543-1.005-1.028-1.508-2.408-1.508-4.14 0-1.7.467-3.116 1.405-4.246.98-1.205 2.307-1.808 3.976-1.808 1.639 0 2.88.603 3.723 1.808.667.958 1.002 2.143 1.002 3.549zM56.35 11.56c0-.897-.24-1.584-.718-2.064-.48-.478-1.179-.718-2.1-.718-.39 0-.724.026-1 .08v5.745c.153.023.433.034.84.034.95 0 1.684-.262 2.2-.786.517-.524.778-1.288.778-2.291m1.31-.034c0 1.383-.419 2.424-1.255 3.123-.773.645-1.873.968-3.298.968-.706 0-1.31-.03-1.817-.092V7.97c.66-.106 1.371-.16 2.14-.16 1.356 0 2.38.293 3.07.878.772.661 1.16 1.607 1.16 2.839M63.315 12.773c0-.51-.111-.949-.333-1.314-.26-.442-.632-.663-1.114-.663-.5 0-.878.22-1.14.663-.222.365-.332.81-.332 1.337 0 .51.111.95.333 1.315.269.441.644.662 1.127.662.474 0 .846-.224 1.114-.674.23-.373.345-.815.345-1.326m1.288-.04c0 .852-.245 1.55-.736 2.098-.514.563-1.196.843-2.046.843-.82 0-1.474-.269-1.96-.81-.487-.538-.73-1.219-.73-2.039 0-.858.25-1.562.753-2.108.502-.546 1.178-.82 2.029-.82.82 0 1.48.269 1.978.808.474.524.712 1.201.712 2.028M73.914 10.01l-1.748 5.539h-1.138l-.724-2.406c-.184-.6-.333-1.197-.45-1.79h-.022a13.009 13.009 0 0 1-.449 1.79l-.77 2.406h-1.15l-1.644-5.54h1.277l.631 2.634c.153.623.279 1.216.38 1.778h.022c.093-.463.245-1.053.461-1.766l.793-2.644h1.012l.76 2.587c.184.631.333 1.239.448 1.824h.034c.084-.57.211-1.178.38-1.824l.677-2.587h1.22v-.001zM80.353 15.549h-1.242v-3.173c0-.977-.374-1.466-1.126-1.466-.368 0-.666.134-.897.403-.229.269-.345.586-.345.95v3.285h-1.242v-3.955c0-.487-.015-1.014-.045-1.586h1.092l.058.866h.034c.145-.269.36-.49.644-.668a2.113 2.113 0 0 1 1.126-.312c.521 0 .955.167 1.3.502.429.41.643 1.022.643 1.836v3.318zM82.537 15.549h1.241v-8.08h-1.24zM89.801 12.773c0-.51-.111-.949-.333-1.314-.26-.442-.631-.663-1.113-.663-.5 0-.879.22-1.138.663-.223.365-.334.81-.334 1.337 0 .51.112.95.334 1.315.269.441.643.662 1.127.662.474 0 .845-.224 1.113-.674.23-.373.344-.815.344-1.326m1.29-.04c0 .852-.245 1.55-.736 2.098-.514.563-1.197.843-2.047.843-.821 0-1.474-.269-1.96-.81-.486-.538-.73-1.219-.73-2.039 0-.858.251-1.562.753-2.108.503-.546 1.179-.82 2.028-.82.822 0 1.48.269 1.98.808.474.524.712 1.201.712 2.028M95.813 13.645v-.854c-1.37-.024-2.055.349-2.055 1.116 0 .29.078.505.238.65.16.144.364.216.607.216.272 0 .527-.086.76-.256a1.048 1.048 0 0 0 .45-.872m1.29 1.904h-1.116l-.092-.638h-.035c-.381.508-.925.763-1.632.763-.527 0-.954-.168-1.275-.501-.292-.303-.437-.68-.437-1.128 0-.677.284-1.193.856-1.55.572-.357 1.375-.532 2.41-.524v-.104c0-.73-.386-1.094-1.16-1.094-.551 0-1.037.138-1.457.41l-.252-.808c.519-.318 1.16-.478 1.916-.478 1.46 0 2.193.764 2.193 2.291v2.04c0 .553.027.994.08 1.32M102.873 13.213v-.924c0-.16-.012-.289-.034-.387a1.4 1.4 0 0 0-.45-.747c-.23-.2-.51-.302-.83-.302-.464 0-.826.183-1.093.548-.264.365-.398.832-.398 1.402 0 .547.126.991.381 1.333.27.365.632.547 1.086.547a1.2 1.2 0 0 0 .981-.456c.24-.28.357-.62.357-1.014m1.287 2.336h-1.102l-.058-.89h-.035c-.352.677-.951 1.015-1.794 1.015-.673 0-1.234-.262-1.678-.786-.445-.524-.666-1.204-.666-2.04 0-.896.24-1.622.724-2.177.468-.517 1.042-.775 1.724-.775.75 0 1.276.25 1.574.752h.024v-3.18h1.243v6.589c0 .539.014 1.036.044 1.492M113.496 12.773c0-.51-.112-.949-.333-1.314-.262-.442-.632-.663-1.116-.663-.497 0-.877.22-1.139.663-.222.365-.333.81-.333 1.337 0 .51.112.95.333 1.315.27.441.644.662 1.127.662.475 0 .848-.224 1.116-.674.228-.373.345-.815.345-1.326m1.287-.04c0 .852-.246 1.55-.736 2.098-.515.563-1.195.843-2.047.843-.82 0-1.472-.269-1.96-.81-.486-.538-.73-1.219-.73-2.039 0-.858.25-1.562.753-2.108s1.178-.82 2.03-.82c.82 0 1.48.269 1.977.808.474.524.713 1.201.713 2.028M121.461 15.549h-1.24v-3.173c0-.977-.375-1.466-1.128-1.466a1.12 1.12 0 0 0-.896.403c-.23.269-.344.586-.344.95v3.285h-1.244v-3.955c0-.487-.014-1.014-.044-1.586h1.09l.059.866h.034c.146-.269.362-.49.644-.668a2.117 2.117 0 0 1 1.127-.312c.52 0 .954.167 1.299.502.43.41.643 1.022.643 1.836v3.318zM129.82 10.932h-1.367v2.691c0 .684.243 1.026.724 1.026.223 0 .408-.019.554-.058l.031.934c-.245.092-.568.138-.965.138-.49 0-.871-.148-1.148-.444-.277-.296-.414-.795-.414-1.494v-2.793h-.817v-.922h.817V8.995l1.216-.365v1.379h1.368v.923h.001zM136.396 15.549h-1.244v-3.15c0-.992-.374-1.49-1.124-1.49-.577 0-.97.289-1.185.864-.037.122-.059.27-.059.443v3.332h-1.24v-8.08h1.24v3.338h.024c.391-.607.952-.91 1.678-.91.515 0 .94.167 1.278.502.421.417.632 1.037.632 1.857v3.294zM141.993 12.199c.01-.366-.072-.68-.24-.946-.216-.342-.544-.514-.988-.514-.406 0-.736.167-.989.502a1.845 1.845 0 0 0-.368.958h2.585zm1.185.318a2.9 2.9 0 0 1-.046.558h-3.724c.016.548.194.965.538 1.254.316.259.723.388 1.22.388.551 0 1.054-.087 1.506-.262l.195.855c-.53.228-1.153.342-1.875.342-.865 0-1.547-.253-2.04-.758-.495-.505-.74-1.183-.74-2.034 0-.835.228-1.53.69-2.085.48-.593 1.131-.889 1.952-.889.804 0 1.414.296 1.827.889.333.47.497 1.051.497 1.742z" mask="url(#b)"/>
    </g>
</svg>
