<svg xmlns="http://www.w3.org/2000/svg" xmlns:xlink="http://www.w3.org/1999/xlink" width="160" height="47" viewBox="0 0 160 47">
    <defs>
        <path id="a" d="M0 0h160v47H0z"/>
        <path id="c" d="M.474 1.762c0-.704.237-1.292.593-1.645l14.814 14.57v.235L1.186 29.492l-.12-.116c-.355-.354-.592-.941-.592-1.646V1.762z"/>
        <linearGradient id="d" x1="16.163%" x2="3.732%" y1="47.569%" y2="51.189%">
            <stop offset="0%"/>
            <stop offset="100%" stop-color="#00FE00"/>
        </linearGradient>
        <path id="f" d="M.474 5.17L5.334.353l.118.117 5.808 3.29c1.659.94 1.659 2.468 0 3.408L5.333 10.34.474 5.523V5.17z"/>
        <linearGradient id="g" x1="25.1%" x2="7.176%" y1="50.125%" y2="50.125%">
            <stop offset="0%" stop-color="#0F0"/>
            <stop offset="100%" stop-color="#000200"/>
        </linearGradient>
        <path id="i" d="M.474 14.804L15.29.117l4.978 4.936-17.304 9.87c-1.067.47-1.896.47-2.489-.119z"/>
        <linearGradient id="j" x1="18.419%" x2="1.561%" y1="50.504%" y2="55.413%">
            <stop offset="0%" stop-color="#FF0"/>
            <stop offset="100%" stop-color="#0303FC"/>
        </linearGradient>
        <path id="l" d="M.474.823A1.641 1.641 0 0 1 1.665.319c.385 0 .817.122 1.298.386l17.304 9.635-4.978 5.053L.474.822z"/>
        <linearGradient id="m" x1="5.398%" x2="12.925%" y1="45.747%" y2="47.94%">
            <stop offset="0%" stop-color="#F00"/>
            <stop offset="100%" stop-color="#02FEFC"/>
        </linearGradient>
        <path id="o" d="M.474.117h19.674v10.268H.474z"/>
        <path id="q" d="M0 .47h.593v1.762H0z"/>
        <path id="s" d="M0 0h7.111v4.935H.001z"/>
        <path id="u" d="M.112.314h27.147v15.079H.112z"/>
    </defs>
    <g fill="none" fill-rule="evenodd">
        <g>
            <mask id="b" fill="#fff">
                <use xlink:href="#a"/>
            </mask>
            <path fill="#000" d="M154.074 47H5.926C2.607 47 0 44.415 0 41.125V5.875C0 2.585 2.607 0 5.926 0h148.148C157.393 0 160 2.585 160 5.875v35.25c0 3.29-2.489 5.875-5.926 5.875" mask="url(#b)"/>
            <path fill="#A6A6A6" d="M154.074 0H5.926C2.607 0 0 2.585 0 5.875v35.25C0 44.415 2.607 47 5.926 47h148.148c3.319 0 5.926-2.585 5.926-5.875V5.875C160 2.82 157.511 0 154.074 0m0 1.058c2.726 0 4.977 2.232 4.977 4.935v35.25c0 2.702-2.25 4.935-4.977 4.935H5.926c-2.726 0-4.978-2.233-4.978-4.935V5.993c0-2.703 2.252-4.935 4.978-4.935h148.148" mask="url(#b)"/>
            <path fill="#FFF" d="M56.297 12.102c0 .94-.238 1.763-.83 2.35-.712.705-1.54 1.058-2.608 1.058-1.067 0-1.896-.353-2.607-1.058-.711-.705-1.067-1.527-1.067-2.585 0-1.057.356-1.88 1.067-2.585.711-.705 1.54-1.057 2.607-1.057.475 0 .949.117 1.423.352.473.235.83.47 1.066.823l-.593.587c-.473-.587-1.066-.822-1.896-.822-.71 0-1.422.235-1.896.822-.592.47-.83 1.175-.83 1.998 0 .822.238 1.527.83 1.997.593.47 1.185.823 1.896.823.83 0 1.423-.235 2.015-.823a1.94 1.94 0 0 0 .593-1.41h-2.608v-.822h3.438v.352z" mask="url(#b)"/>
            <path stroke="#FFF" stroke-width=".2" d="M56.297 12.102c0 .94-.238 1.763-.83 2.35-.712.705-1.54 1.058-2.608 1.058-1.067 0-1.896-.353-2.607-1.058-.711-.705-1.067-1.527-1.067-2.585 0-1.057.356-1.88 1.067-2.585.711-.705 1.54-1.057 2.607-1.057.475 0 .949.117 1.423.352.473.235.83.47 1.066.823l-.593.587c-.473-.587-1.066-.822-1.896-.822-.71 0-1.422.235-1.896.822-.592.47-.83 1.175-.83 1.998 0 .822.238 1.527.83 1.997.593.47 1.185.823 1.896.823.83 0 1.423-.235 2.015-.823a1.94 1.94 0 0 0 .593-1.41h-2.608v-.822h3.438v.352z" mask="url(#b)"/>
            <path fill="#FFF" d="M61.63 9.165h-3.2v2.232h2.963v.823H58.43v2.232h3.2v.94h-4.148v-7.05h4.148z" mask="url(#b)"/>
            <path stroke="#FFF" stroke-width=".2" d="M61.63 9.165h-3.2v2.232h2.963v.823H58.43v2.232h3.2v.94h-4.148v-7.05h4.148z" mask="url(#b)"/>
            <path fill="#FFF" d="M65.66 15.275h-.95v-6.11h-2.132v-.94h4.978v.94H65.54v6.11z" mask="url(#b)"/>
            <path stroke="#FFF" stroke-width=".2" d="M65.66 15.275h-.95v-6.11h-2.132v-.94h4.978v.94H65.54v6.11z" mask="url(#b)"/>
            <path fill="#FFF" d="M71.111 15.275h.948v-7.05h-.948z" mask="url(#b)"/>
            <path stroke="#FFF" stroke-width=".2" d="M71.111 15.275h.948v-7.05h-.948z" mask="url(#b)"/>
            <path fill="#FFF" d="M75.97 15.275h-.948v-6.11h-2.015v-.94h4.86v.94h-2.015z" mask="url(#b)"/>
            <path stroke="#FFF" stroke-width=".2" d="M75.97 15.275h-.948v-6.11h-2.015v-.94h4.86v.94h-2.015z" mask="url(#b)"/>
            <path fill="#FFF" d="M82.845 13.865c.474.47 1.185.822 1.896.822.71 0 1.422-.235 1.896-.822a2.82 2.82 0 0 0 .83-1.998c0-.822-.238-1.527-.948-2.115-.475-.47-1.186-.822-1.897-.822-.71 0-1.303.235-1.777.822a2.823 2.823 0 0 0-.83 1.998c0 .822.237 1.527.83 2.115m4.384.587c-.71.705-1.54 1.058-2.607 1.058-1.066 0-1.896-.353-2.607-1.058-.712-.705-1.067-1.527-1.067-2.585 0-1.057.355-1.88 1.067-2.585.711-.705 1.54-1.057 2.607-1.057 1.067 0 1.897.352 2.607 1.057.712.705 1.067 1.528 1.067 2.585.118.94-.355 1.88-1.067 2.585" mask="url(#b)"/>
            <path stroke="#FFF" stroke-width=".2" d="M82.845 13.865c.474.47 1.185.822 1.896.822.71 0 1.422-.235 1.896-.822a2.82 2.82 0 0 0 .83-1.998c0-.822-.238-1.527-.948-2.115-.475-.47-1.186-.822-1.897-.822-.71 0-1.303.235-1.777.822a2.823 2.823 0 0 0-.83 1.998c0 .822.237 1.527.83 2.115zm4.384.587c-.71.705-1.54 1.058-2.607 1.058-1.066 0-1.896-.353-2.607-1.058-.712-.705-1.067-1.527-1.067-2.585 0-1.057.355-1.88 1.067-2.585.711-.705 1.54-1.057 2.607-1.057 1.067 0 1.897.352 2.607 1.057.712.705 1.067 1.528 1.067 2.585.118.94-.355 1.88-1.067 2.585z" mask="url(#b)"/>
            <path fill="#FFF" d="M89.6 15.275v-7.05h1.067l3.437 5.523V8.225h.948v7.05h-.948L90.43 9.518V15.275z" mask="url(#b)"/>
            <path stroke="#FFF" stroke-width=".2" d="M89.6 15.275v-7.05h1.067l3.437 5.523V8.225h.948v7.05h-.948L90.43 9.518V15.275z" mask="url(#b)"/>
            <path fill="#FFF" d="M126.815 35.25h2.252V20.68h-2.252v14.57zm19.792-9.4l-2.488 6.345H144l-2.607-6.345h-2.37l3.91 8.93-2.252 4.935h2.252l6.045-13.865h-2.37zm-12.444 7.755c-.711 0-1.778-.352-1.778-1.292 0-1.176 1.304-1.528 2.37-1.528.949 0 1.423.235 2.015.47-.237 1.41-1.422 2.35-2.607 2.35zm.356-7.99c-1.66 0-3.319.705-3.912 2.233l2.015.822c.474-.823 1.185-1.058 2.015-1.058 1.185 0 2.252.706 2.37 1.88v.118c-.355-.235-1.303-.587-2.251-.587-2.134 0-4.267 1.175-4.267 3.29 0 1.997 1.778 3.29 3.674 3.29 1.54 0 2.252-.706 2.844-1.41h.119v1.175h2.133v-5.64c-.355-2.703-2.252-4.113-4.74-4.113zm-13.63 2.115h-3.2v-5.053h3.2c1.66 0 2.607 1.41 2.607 2.468-.237 1.293-1.185 2.585-2.607 2.585zm-.119-7.05h-5.333v14.688h2.252v-5.523h3.081c2.49 0 4.86-1.762 4.86-4.582s-2.37-4.583-4.86-4.583zM91.852 33.605c-1.54 0-2.845-1.292-2.845-3.055 0-1.762 1.304-3.055 2.845-3.055 1.54 0 2.726 1.293 2.726 3.055-.119 1.88-1.304 3.055-2.726 3.055zm2.489-6.815c-.593-.587-1.541-1.175-2.726-1.175-2.49 0-4.86 2.233-4.86 5.053s2.252 4.934 4.86 4.934c1.185 0 2.133-.587 2.607-1.174h.119v.587c0 1.88-1.067 2.938-2.726 2.938-1.304 0-2.252-.94-2.49-1.763l-1.895.823c.592 1.292 2.014 2.937 4.503 2.937 2.608 0 4.741-1.528 4.741-5.17v-8.93h-2.133v.94zm3.555 8.46h2.253V20.68h-2.253v14.57zm5.69-4.7c0-1.88 1.54-2.938 2.607-2.938.83 0 1.659.47 1.896 1.058l-4.504 1.88zm6.755-1.645c-.474-1.175-1.66-3.172-4.267-3.172s-4.74 1.997-4.74 5.052c0 2.82 2.133 5.052 4.977 5.052 2.252 0 3.674-1.41 4.148-2.232L108.8 32.43c-.593.822-1.304 1.41-2.489 1.41-1.185 0-1.896-.47-2.489-1.528l6.756-2.82-.237-.587zm-53.69-1.763v2.116h5.097c-.118 1.175-.592 2.114-1.185 2.702-.711.705-1.896 1.527-3.911 1.527-3.2 0-5.57-2.467-5.57-5.64 0-3.172 2.488-5.64 5.57-5.64 1.66 0 2.963.706 3.911 1.528l1.54-1.527c-1.303-1.175-2.962-2.115-5.333-2.115-4.266 0-7.94 3.524-7.94 7.755 0 4.23 3.674 7.755 7.94 7.755 2.37 0 4.03-.706 5.452-2.233 1.422-1.41 1.897-3.407 1.897-4.935 0-.47 0-.94-.119-1.293h-7.348zm13.156 6.463c-1.54 0-2.844-1.292-2.844-3.055 0-1.762 1.304-3.055 2.844-3.055 1.541 0 2.845 1.175 2.845 3.055-.119 1.88-1.422 3.055-2.845 3.055zm0-7.99c-2.844 0-5.096 2.115-5.096 5.053 0 2.82 2.252 5.052 5.096 5.052 2.845 0 5.097-2.115 5.097-5.052-.119-2.938-2.37-5.053-5.097-5.053zm10.904 7.99c-1.54 0-2.844-1.292-2.844-3.055 0-1.762 1.303-3.055 2.844-3.055 1.54 0 2.845 1.175 2.845 3.055.118 1.88-1.186 3.055-2.845 3.055zm0-7.99c-2.844 0-5.096 2.115-5.096 5.053 0 2.82 2.252 5.052 5.096 5.052 2.845 0 5.096-2.115 5.096-5.052.119-2.938-2.133-5.053-5.096-5.053z" mask="url(#b)"/>
        </g>
        <g transform="translate(11.26 8.813)">
            <mask id="e" fill="#fff">
                <use xlink:href="#c"/>
            </mask>
            <path fill="url(#d)" d="M-11.26 38.188h160v-47h-160z" mask="url(#e)"/>
        </g>
        <g transform="translate(26.667 18.212)">
            <mask id="h" fill="#fff">
                <use xlink:href="#f"/>
            </mask>
            <path fill="url(#g)" d="M-26.667 28.788h160v-47h-160z" mask="url(#h)"/>
        </g>
        <g transform="translate(11.852 23.5)">
            <mask id="k" fill="#fff">
                <use xlink:href="#i"/>
            </mask>
            <path fill="url(#j)" d="M-11.852 23.5h160v-47h-160z" mask="url(#k)"/>
        </g>
        <g transform="translate(11.852 8.225)">
            <mask id="n" fill="#fff">
                <use xlink:href="#l"/>
            </mask>
            <path fill="url(#m)" d="M-11.852 38.775h160v-47h-160z" mask="url(#n)"/>
        </g>
        <g transform="translate(11.852 28.2)">
            <mask id="p" fill="#fff">
                <use xlink:href="#o"/>
            </mask>
            <path fill="#000" fill-opacity=".2" d="M20.148.117L2.963 9.752c-.949.588-1.778.47-2.37 0l-.119.118.119.117c.592.47 1.421.588 2.37 0L20.148.117z" mask="url(#p)"/>
        </g>
        <g transform="translate(11.852 35.837)">
            <mask id="r" fill="#fff">
                <use xlink:href="#q"/>
            </mask>
            <path fill="#000" fill-opacity=".12" d="M.474 2.115C.118 1.762 0 1.175 0 .47v.117c0 .705.237 1.293.593 1.645v-.117H.474z" mask="url(#r)"/>
        </g>
        <g transform="translate(32 23.5)">
            <mask id="t" fill="#fff">
                <use xlink:href="#s"/>
            </mask>
            <path fill="#000" fill-opacity=".12" d="M5.926 1.527L0 4.817l.118.118 5.808-3.408C6.756 1.175 7.111.587 7.111 0c0 .705-.474 1.057-1.185 1.527" mask="url(#t)"/>
        </g>
        <g transform="translate(11.852 8.225)">
            <mask id="v" fill="#fff">
                <use xlink:href="#u"/>
            </mask>
            <path fill="#FFF" fill-opacity=".25" d="M3.081.823l22.993 13.042c.71.47 1.186.94 1.186 1.528 0-.588-.357-1.175-1.186-1.645L3.081.705C1.422-.235.118.588.118 2.468v.117C0 .705 1.422-.235 3.081.823" mask="url(#v)"/>
        </g>
    </g>
</svg>
