<svg xmlns="http://www.w3.org/2000/svg" xmlns:xlink="http://www.w3.org/1999/xlink" width="195" height="69" viewBox="0 0 195 69">
    <defs>
        <path id="a" d="M.244.558h11.789v16.156H.243z"/>
    </defs>
    <g fill="none" fill-rule="evenodd">
        <path fill="#111D28" d="M37.464 11.01l-6.927 6.926c.276 1.373.418 2.88.418 4.508 0 8.762-4.115 13.992-11.008 13.992-2.876 0-5.301-.919-7.131-2.67L36.814 9.766a20.398 20.398 0 0 0-2.2-3.176 18.895 18.895 0 0 0-1.085-1.162l.003-.003c-.05-.05-.1-.094-.15-.143-.11-.107-.218-.22-.33-.325l-.006.005C29.56 1.713 25.08 0 19.947 0 14.013 0 8.952 2.28 5.31 6.591 1.886 10.647 0 16.278 0 22.444c0 4.096.837 7.954 2.4 11.274l6.964-6.965a23.935 23.935 0 0 1-.366-4.309c0-4.032.822-7.294 2.44-9.693 1.9-2.813 4.842-4.3 8.51-4.3 2.854 0 5.23.9 7.036 2.574L3.036 34.975a20.257 20.257 0 0 0 2.274 3.32c.172.204.349.398.526.592a17.444 17.444 0 0 0 .634.656l.08.081c.068.067.134.139.203.203l.008-.007c3.486 3.318 8 5.067 13.186 5.067 5.937 0 11.008-2.28 14.667-6.59 3.444-4.061 5.34-9.69 5.34-15.853 0-4.162-.868-8.077-2.49-11.435zm156.91-9.929v42.773h-8.006l-12.159-16.5c-3.85-5.254-8.554-11.975-8.616-11.975h-.061c-.061 0 .061 6.172.061 14.665v13.81H157.1V1.081h8.004l12.404 16.681c2.933 3.85 8.31 11.487 8.372 11.487h.061c.06 0-.061-6.965-.061-14.176V1.081h8.493zm-52.315 42.773h8.493V1.081h-8.493v42.773zm-13.305-4.461c-2.322 2.627-7.393 5.316-12.954 5.316-12.281 0-22.18-9.349-22.18-22.242S103.518.225 115.8.225c8.493.062 15.581 4.46 19.431 11.305l-8.677 2.26c-2.322-3.176-6.538-5.193-10.754-5.193-8.005 0-13.32 5.743-13.32 13.87 0 8.493 5.866 13.931 13.808 13.931 7.334 0 11.182-4.032 12.527-7.332v-1.833h-11.854v-6.905h19.125v23.526h-7.332c0-3.544.061-4.4.061-4.461h-.061zm-47.829 4.461h8.494V1.081h-8.494v42.773zM52.043 21.672h7.576c4.706 0 6.905-3.054 6.905-6.293 0-3.361-2.26-6.354-6.905-6.354h-7.576v12.647zm15.46 22.182L59.009 29.25h-6.966v14.605H43.55V1.081h14.97c10.51 0 16.805 5.682 16.805 14.298 0 5.866-2.873 10.143-8.066 12.281l9.776 16.194h-9.531z"/>
        <path fill="#1A82FF" d="M8.469 60.292h2.362c.758 0 1.315-.167 1.671-.502.357-.334.535-.828.535-1.482 0-.624-.181-1.114-.546-1.472-.364-.355-.918-.533-1.66-.533H8.469v3.989zm4.279 8.557l-3.41-5.95h-.87v5.95h-3.81V53.093h6.507c1.248 0 2.303.215 3.165.647.861.43 1.507 1.02 1.939 1.771.43.75.646 1.608.646 2.574 0 1.145-.316 2.118-.947 2.92-.632.801-1.549 1.353-2.752 1.649l3.744 6.195h-4.212zM36.46 56.124v3.298h5.325v2.875H36.46v3.499h5.995v3.053h-9.806V53.093h9.806v3.03zM80.295 53.093L76.528 68.85h-4.724l-2.518-10.54-2.541 10.54H62.02l-3.766-15.756H62.4l2.028 11.41 2.764-11.41h4.167l2.764 11.41 2.05-11.41zM103.116 63.077l-1.962-5.794-1.983 5.794h3.945zm.98 2.898H98.19l-.98 2.874h-4.012l5.772-15.644h4.39l5.773 15.644h-4.056l-.98-2.874zM128.677 60.292h2.362c.758 0 1.315-.167 1.672-.502.356-.334.535-.828.535-1.482 0-.624-.182-1.114-.546-1.472-.365-.355-.918-.533-1.66-.533h-2.363v3.989zm4.279 8.557l-3.41-5.95h-.869v5.95h-3.81V53.093h6.507c1.248 0 2.303.215 3.164.647.862.43 1.508 1.02 1.94 1.771.43.75.645 1.608.645 2.574 0 1.145-.316 2.118-.947 2.92-.631.801-1.549 1.353-2.752 1.649l3.744 6.195h-4.212zM162.384 64.258c.824-.787 1.237-1.894 1.237-3.32 0-1.427-.413-2.533-1.237-3.321-.825-.787-1.98-1.181-3.466-1.181h-1.805v9.004h1.805c1.486 0 2.641-.394 3.466-1.182m4.1.791c-.662 1.196-1.612 2.128-2.852 2.797-1.24.669-2.7 1.003-4.38 1.003h-5.95V53.093h5.95c1.694 0 3.157.326 4.39.98 1.234.654 2.18 1.575 2.842 2.764.661 1.189.992 2.556.992 4.102 0 1.544-.33 2.914-.992 4.11"/>
        <g transform="translate(182.743 52.29)">
            <mask id="b" fill="#fff">
                <use xlink:href="#a"/>
            </mask>
            <path fill="#1A82FF" d="M11.398 14.42c-.424.698-1.048 1.255-1.872 1.67-.825.416-1.824.625-2.998.625-1.768 0-3.223-.43-4.368-1.293-1.144-.861-1.768-2.065-1.872-3.61h4.056c.06.594.271 1.062.636 1.404.364.342.827.512 1.392.512.49 0 .877-.133 1.16-.4.281-.268.423-.625.423-1.07 0-.402-.13-.736-.39-1.003a3.062 3.062 0 0 0-.97-.658c-.386-.17-.921-.375-1.604-.613-.997-.342-1.81-.671-2.44-.991-.632-.319-1.174-.795-1.627-1.427-.454-.631-.68-1.451-.68-2.462 0-.936.237-1.746.713-2.43.476-.682 1.132-1.206 1.972-1.57C3.77.74 4.731.558 5.815.558c1.753 0 3.146.416 4.179 1.248 1.033.832 1.616 1.975 1.75 3.432H7.62c-.074-.52-.264-.932-.568-1.237-.304-.304-.716-.457-1.237-.457-.445 0-.805.12-1.08.356-.276.238-.413.588-.413 1.048 0 .37.123.687.368.947.245.26.554.471.925.635.37.163.906.371 1.604.623 1.01.343 1.834.68 2.474 1.015.638.333 1.189.821 1.65 1.46.46.638.69 1.47.69 2.495 0 .833-.212 1.598-.635 2.296" mask="url(#b)"/>
        </g>
    </g>
</svg>
