<svg xmlns="http://www.w3.org/2000/svg" width="108" height="25" viewBox="0 0 108 25">
    <path fill="#FFF" fill-rule="evenodd" d="M20.816 6.132L16.967 9.99c.154.764.233 1.604.233 2.51 0 4.88-2.287 7.794-6.117 7.794-1.598 0-2.946-.513-3.962-1.488L20.455 5.44a11.355 11.355 0 0 0-1.223-1.769c-.193-.227-.395-.44-.602-.647l.001-.001c-.027-.028-.056-.053-.083-.08-.062-.06-.121-.123-.184-.182l-.002.004C16.425.955 13.936 0 11.083 0 7.786 0 4.973 1.27 2.95 3.671 1.048 5.93 0 9.066 0 12.501c0 2.281.465 4.43 1.334 6.278l3.869-3.878A13.333 13.333 0 0 1 5 12.5c0-2.246.456-4.063 1.355-5.399 1.055-1.567 2.69-2.395 4.728-2.395 1.586 0 2.907.501 3.91 1.434L1.688 19.479c.365.665.787 1.285 1.263 1.85.095.113.194.221.293.329l.002.003c.114.125.231.245.35.363l.045.045c.037.037.073.077.112.113l.004-.004C5.693 24.026 8.202 25 11.083 25c3.3 0 6.117-1.27 8.149-3.67 1.914-2.262 2.968-5.398 2.968-8.83 0-2.317-.483-4.499-1.384-6.368zM108 .602v23.822h-4.448l-6.756-9.189c-2.139-2.926-4.753-6.67-4.787-6.67h-.034c-.034 0 .034 3.438.034 8.168v7.691H87.29V.602h4.448l6.892 9.29c1.63 2.144 4.617 6.399 4.65 6.399h.035c.034 0-.034-3.88-.034-7.896V.602H108zM78.933 24.424h4.719V.602h-4.72v23.822zM71.54 21.94c-1.29 1.463-4.108 2.96-7.198 2.96-6.824 0-12.324-5.206-12.324-12.387 0-7.18 5.5-12.387 12.324-12.387C69.062.16 73 2.61 75.14 6.42l-4.821 1.26c-1.29-1.77-3.633-2.893-5.976-2.893-4.447 0-7.401 3.199-7.401 7.725 0 4.73 3.26 7.76 7.673 7.76 4.074 0 6.213-2.246 6.96-4.085v-1.02h-6.587v-3.846h10.627v13.102H71.54c0-1.974.034-2.45.034-2.484h-.034zm-26.576 2.484h4.72V.602h-4.72v23.822zM28.917 12.071h4.21c2.614 0 3.836-1.702 3.836-3.506 0-1.871-1.256-3.539-3.837-3.539h-4.21v7.045zm8.59 12.353l-4.72-8.133h-3.871v8.133h-4.718V.602h8.318c5.84 0 9.336 3.165 9.336 7.963 0 3.268-1.596 5.65-4.481 6.841l5.432 9.018h-5.297z"/>
</svg>
