<svg xmlns="http://www.w3.org/2000/svg" xmlns:xlink="http://www.w3.org/1999/xlink" width="85" height="70" viewBox="0 0 85 70">
    <defs>
        <path id="a" d="M.019.039h44.857v24.947H.02z"/>
        <path id="c" d="M.032.05H44.89v24.887H.032z"/>
        <path id="e" d="M.032.016H44.89v16.94H.032z"/>
        <path id="g" d="M.032.036H44.89v24.948H.032z"/>
    </defs>
    <g fill="none" fill-rule="evenodd">
        <path fill="#111D28" d="M34.54 40.366c-4.357-2.42-6.536-5.596-6.54-8.78-.004-3.214 2.21-6.437 6.64-8.897 8.814-4.897 23.06-4.922 31.82-.055 4.357 2.42 6.536 5.596 6.54 8.78.004 3.214-2.21 6.437-6.64 8.897-8.814 4.897-23.06 4.922-31.82.055" opacity=".2"/>
        <path fill="#1A82FF" d="M73 24v3.935c.004 3.337-2.21 6.682-6.64 9.236-8.814 5.083-23.06 5.108-31.82.058-4.357-2.513-6.536-5.81-6.54-9.113V24h45z"/>
        <path fill="#40A0FF" d="M34.54 33.366c-4.357-2.42-6.536-5.596-6.54-8.78-.004-3.214 2.21-6.437 6.64-8.897 8.814-4.897 23.06-4.922 31.82-.055 4.357 2.42 6.536 5.596 6.54 8.78.004 3.214-2.21 6.436-6.64 8.897-8.814 4.897-23.06 4.922-31.82.055"/>
        <path fill="#1A82FF" d="M50.361 35c-5.432 0-10.49-1.177-14.246-3.315-3.295-1.876-5.112-4.22-5.115-6.6-.003-2.38 1.898-4.826 5.213-6.714C40.032 16.197 45.155 15 50.64 15c5.432 0 10.491 1.177 14.246 3.315 3.296 1.877 5.112 4.22 5.115 6.6.003 2.38-1.897 4.826-5.213 6.714C60.97 33.803 55.845 35 50.361 35"/>
        <path fill="#0F7CE8" d="M36.213 19.14c3.819-2.313 8.942-3.586 14.426-3.586 5.432 0 10.491 1.252 14.246 3.526 3.175 1.922 4.973 4.307 5.102 6.741.005-.092.013-.185.013-.277-.003-2.53-1.82-5.023-5.115-7.019C61.13 16.252 56.071 15 50.64 15c-5.484 0-10.607 1.273-14.426 3.585-3.315 2.007-5.216 4.61-5.213 7.139 0 .092.008.184.013.276.13-2.441 2.006-4.927 5.2-6.86"/>
        <path fill="#FFF" d="M47.986 29.708L48 27.217a11.577 11.577 0 0 1-1.606-.733c-2.856-1.571-3.21-3.251-.95-4.495.943-.52 2.038-.792 3.21-.808l-.05 8.633c.582.088 1.17.147 1.757.172.247.01.49.014.734.013V30l.096-.001c.071-.001.143 0 .214-.002v-.002c2.202-.046 4.23-.547 5.913-1.473 1.947-1.07 2.863-2.393 2.652-3.823-.198-1.345-1.415-2.694-3.425-3.8-1.335-.735-2.866-1.275-4.46-1.588l-.015 2.505c.51.192 1.018.428 1.524.706 1.315.723 2.108 1.456 2.359 2.178.294.847-.186 1.645-1.389 2.307-.936.515-2.008.782-3.147.808l.05-8.615a16.477 16.477 0 0 0-1.829-.185c-.122-.006-.244-.009-.365-.011h-.003C49.13 19 48.99 19 48.85 19h-.184v.003c-2.225.034-4.275.535-5.976 1.47-1.947 1.072-2.867 2.396-2.662 3.829.194 1.349 1.407 2.7 3.415 3.805 1.356.747 2.917 1.292 4.543 1.601"/>
        <path fill="#111D28" d="M31 24.587c-.004-3.215 2.21-6.438 6.64-8.898 8.814-4.897 23.06-4.922 31.82-.055 4.357 2.42 6.536 5.596 6.54 8.78.004 3.214-2.21 6.437-6.64 8.897-8.814 4.897-23.06 4.922-31.82.055-4.357-2.42-6.536-5.596-6.54-8.78z" opacity=".2"/>
        <path fill="#1A82FF" d="M76 19v3.935c.004 3.337-2.21 6.682-6.64 9.236-8.814 5.083-23.06 5.108-31.82.058-4.357-2.513-6.536-5.81-6.54-9.113V19h45z"/>
        <path fill="#40A0FF" d="M37.54 27.366c-4.357-2.42-6.536-5.596-6.54-8.78-.004-3.214 2.21-6.437 6.64-8.897 8.814-4.897 23.06-4.922 31.82-.055 4.357 2.42 6.536 5.596 6.54 8.78.004 3.214-2.21 6.436-6.64 8.897-8.814 4.897-23.06 4.922-31.82.055"/>
        <path fill="#1A82FF" d="M53.361 29c-5.432 0-10.49-1.177-14.246-3.315-3.295-1.876-5.112-4.22-5.115-6.6-.003-2.38 1.898-4.826 5.213-6.714C43.032 10.197 48.155 9 53.64 9c5.432 0 10.491 1.177 14.246 3.315 3.296 1.877 5.112 4.22 5.115 6.6.003 2.38-1.897 4.826-5.213 6.714C63.97 27.803 58.845 29 53.361 29"/>
        <path fill="#0F7CE8" d="M39.213 13.14c3.819-2.313 8.942-3.586 14.426-3.586 5.432 0 10.491 1.252 14.246 3.526 3.175 1.922 4.973 4.307 5.102 6.741.005-.092.013-.185.013-.277-.003-2.53-1.82-5.023-5.115-7.019C64.13 10.252 59.071 9 53.64 9c-5.484 0-10.607 1.273-14.426 3.585-3.315 2.007-5.216 4.61-5.213 7.139 0 .092.008.184.013.276.13-2.441 2.006-4.927 5.2-6.86"/>
        <path fill="#FFF" d="M50.986 23.708L51 21.217a11.577 11.577 0 0 1-1.606-.733c-2.856-1.571-3.21-3.251-.95-4.495.943-.52 2.038-.792 3.21-.808l-.05 8.633c.582.088 1.17.147 1.757.172.247.01.49.014.734.013V24l.096-.001c.071-.001.143 0 .214-.002v-.002c2.202-.046 4.23-.547 5.913-1.473 1.947-1.07 2.863-2.393 2.652-3.823-.198-1.345-1.415-2.694-3.425-3.8-1.335-.735-2.866-1.275-4.46-1.588l-.015 2.505c.51.192 1.018.428 1.524.706 1.315.723 2.108 1.456 2.359 2.178.294.847-.186 1.645-1.389 2.307-.936.515-2.008.782-3.147.808l.05-8.615a16.477 16.477 0 0 0-1.829-.185c-.122-.006-.244-.009-.365-.011h-.003C52.13 13 51.99 13 51.85 13h-.184v.003c-2.225.034-4.275.535-5.976 1.47-1.947 1.072-2.867 2.396-2.662 3.829.194 1.349 1.407 2.7 3.415 3.805 1.356.747 2.917 1.292 4.543 1.601"/>
        <path fill="#111D28" d="M34.54 27.366c-4.357-2.42-6.536-5.596-6.54-8.78-.004-3.214 2.21-6.437 6.64-8.897 8.814-4.897 23.06-4.922 31.82-.055 4.357 2.42 6.536 5.596 6.54 8.78.004 3.214-2.21 6.437-6.64 8.897-8.814 4.897-23.06 4.922-31.82.055" opacity=".2"/>
        <path fill="#1A82FF" d="M73 13v3.935c.004 3.337-2.21 6.682-6.64 9.236-8.814 5.083-23.06 5.108-31.82.058-4.357-2.513-6.536-5.81-6.54-9.113V13h45z"/>
        <g transform="translate(28)">
            <mask id="b" fill="#fff">
                <use xlink:href="#a"/>
            </mask>
            <path fill="#40A0FF" d="M6.539 21.36C2.195 18.944.023 15.776.019 12.6.015 9.39 2.223 6.174 6.638 3.72c8.786-4.887 22.987-4.912 31.719-.056 4.344 2.416 6.516 5.585 6.52 8.762.003 3.208-2.204 6.424-6.62 8.88-8.786 4.886-22.987 4.91-31.718.054" mask="url(#b)"/>
        </g>
        <path fill="#1A82FF" d="M49.361 22c-5.432 0-10.49-1.177-14.246-3.315-3.295-1.876-5.112-4.22-5.115-6.6-.003-2.38 1.898-4.826 5.213-6.714C39.032 3.197 44.155 2 49.64 2c5.432 0 10.491 1.177 14.246 3.315 3.296 1.877 5.112 4.22 5.115 6.6.003 2.38-1.897 4.826-5.213 6.714C59.97 20.803 54.845 22 49.361 22"/>
        <path fill="#0F7CE8" d="M35.213 6.14c3.819-2.313 8.942-3.586 14.426-3.586 5.432 0 10.491 1.252 14.246 3.526 3.175 1.922 4.973 4.307 5.102 6.741.005-.092.013-.185.013-.277-.003-2.53-1.82-5.023-5.115-7.019C60.13 3.252 55.071 2 49.64 2c-5.484 0-10.607 1.273-14.426 3.585-3.315 2.007-5.216 4.61-5.213 7.139 0 .092.008.184.013.276.13-2.441 2.006-4.927 5.2-6.86"/>
        <path fill="#40A0FF" d="M46.986 17.708L47 15.217a11.577 11.577 0 0 1-1.606-.733c-2.856-1.571-3.21-3.251-.95-4.495.943-.52 2.038-.792 3.21-.808l-.05 8.633c.582.088 1.17.147 1.757.172.247.01.49.014.734.013V18l.096-.001c.071-.001.143 0 .214-.002v-.002c2.202-.046 4.23-.547 5.913-1.473 1.947-1.07 2.863-2.393 2.652-3.823-.198-1.345-1.415-2.694-3.425-3.8-1.335-.735-2.866-1.275-4.46-1.588l-.015 2.505c.51.192 1.018.428 1.524.706 1.315.723 2.108 1.456 2.359 2.178.294.847-.186 1.645-1.389 2.307-.936.515-2.008.782-3.147.808l.05-8.615a16.477 16.477 0 0 0-1.829-.185c-.122-.006-.244-.009-.365-.011h-.003C48.13 7 47.99 7 47.85 7h-.184v.003c-2.225.034-4.275.535-5.976 1.47-1.947 1.072-2.867 2.396-2.662 3.829.194 1.349 1.407 2.7 3.415 3.805 1.356.747 2.917 1.292 4.543 1.601"/>
        <path fill="#111D28" d="M7.54 55.366c-4.358-2.42-6.536-5.596-6.54-8.78-.004-3.214 2.21-6.437 6.64-8.897 8.814-4.897 23.06-4.922 31.82-.055 4.357 2.42 6.536 5.596 6.54 8.78.004 3.214-2.211 6.436-6.64 8.897-8.814 4.897-23.06 4.922-31.82.055" opacity=".2"/>
        <path fill="#1A82FF" d="M46 41v3.935c.004 3.337-2.21 6.682-6.64 9.236-8.814 5.083-23.06 5.108-31.82.058-4.357-2.513-6.536-5.81-6.54-9.113V41h45z"/>
        <path fill="#40A0FF" d="M7.54 49.366c-4.358-2.42-6.536-5.596-6.54-8.78-.004-3.214 2.21-6.437 6.64-8.897 8.814-4.897 23.06-4.922 31.82-.055 4.357 2.42 6.536 5.596 6.54 8.78.004 3.214-2.211 6.437-6.64 8.897-8.814 4.897-23.06 4.922-31.82.055"/>
        <path fill="#1A82FF" d="M22.361 51c-5.432 0-10.49-1.177-14.246-3.315-3.295-1.876-5.112-4.22-5.115-6.6-.003-2.38 1.898-4.826 5.213-6.714C12.032 32.197 17.155 31 22.64 31c5.432 0 10.491 1.177 14.246 3.315 3.296 1.877 5.112 4.22 5.115 6.6.003 2.38-1.897 4.826-5.213 6.714C32.97 49.803 27.845 51 22.361 51"/>
        <path fill="#0F7CE8" d="M8.213 35.14c3.819-2.313 8.942-3.586 14.426-3.586 5.432 0 10.491 1.252 14.246 3.526 3.175 1.922 4.973 4.307 5.102 6.741.005-.092.013-.185.013-.277-.003-2.53-1.82-5.023-5.115-7.019C33.13 32.252 28.071 31 22.64 31c-5.484 0-10.607 1.273-14.426 3.585-3.315 2.007-5.216 4.61-5.213 7.139 0 .092.008.184.013.276.13-2.441 2.006-4.927 5.2-6.86"/>
        <path fill="#FFF" d="M19.986 45.708L20 43.217a11.577 11.577 0 0 1-1.606-.733c-2.856-1.571-3.21-3.252-.95-4.495.943-.52 2.038-.792 3.21-.808l-.05 8.633c.582.088 1.17.147 1.757.172.247.01.49.014.734.013V46l.096-.001c.071-.001.143 0 .214-.002v-.002c2.202-.046 4.23-.547 5.914-1.473 1.946-1.07 2.862-2.393 2.651-3.823-.198-1.345-1.415-2.694-3.425-3.8-1.335-.735-2.866-1.275-4.46-1.588l-.015 2.505c.51.192 1.018.428 1.524.706 1.315.723 2.108 1.456 2.359 2.178.294.847-.186 1.645-1.389 2.307-.936.515-2.008.782-3.147.808l.05-8.615a16.493 16.493 0 0 0-2.194-.196h-.003C21.13 35 20.99 35 20.85 35h-.184v.003c-2.225.034-4.275.535-5.976 1.47-1.947 1.072-2.867 2.396-2.662 3.829.194 1.349 1.407 2.7 3.415 3.805 1.356.747 2.917 1.292 4.543 1.601"/>
        <path fill="#111D28" d="M9.54 49.366c-4.358-2.42-6.536-5.596-6.54-8.78-.004-3.214 2.21-6.437 6.64-8.897 8.814-4.897 23.06-4.922 31.82-.055 4.357 2.42 6.536 5.596 6.54 8.78.004 3.214-2.211 6.436-6.64 8.897-8.814 4.897-23.06 4.922-31.82.055" opacity=".2"/>
        <path fill="#1A82FF" d="M48 35v3.935c.004 3.337-2.21 6.682-6.64 9.236-8.814 5.083-23.06 5.108-31.82.058-4.357-2.513-6.536-5.81-6.54-9.113V35h45z"/>
        <path fill="#40A0FF" d="M9.54 44.366c-4.358-2.42-6.536-5.596-6.54-8.78-.004-3.214 2.21-6.437 6.64-8.897 8.814-4.897 23.06-4.922 31.82-.055 4.357 2.42 6.536 5.596 6.54 8.78.004 3.214-2.211 6.437-6.64 8.897-8.814 4.897-23.06 4.922-31.82.055"/>
        <path fill="#1A82FF" d="M25.361 45c-5.432 0-10.49-1.177-14.246-3.315-3.295-1.876-5.112-4.22-5.115-6.6-.003-2.38 1.898-4.826 5.213-6.714C15.032 26.197 20.155 25 25.64 25c5.432 0 10.491 1.177 14.246 3.315 3.296 1.877 5.112 4.22 5.115 6.6.003 2.38-1.897 4.826-5.213 6.714C35.97 43.803 30.845 45 25.361 45"/>
        <path fill="#0F7CE8" d="M11.213 29.14c3.819-2.313 8.942-3.586 14.426-3.586 5.432 0 10.491 1.252 14.246 3.526 3.175 1.922 4.973 4.307 5.102 6.741.005-.092.013-.185.013-.277-.003-2.53-1.82-5.023-5.115-7.019C36.13 26.252 31.071 25 25.64 25c-5.484 0-10.607 1.273-14.426 3.585-3.315 2.007-5.216 4.61-5.213 7.139 0 .092.008.184.013.276.13-2.441 2.006-4.927 5.2-6.86"/>
        <path fill="#FFF" d="M23.986 39.708L24 37.217a11.577 11.577 0 0 1-1.606-.733c-2.856-1.571-3.21-3.252-.95-4.495.943-.52 2.038-.792 3.21-.808l-.05 8.633c.582.088 1.17.147 1.757.172.247.01.49.014.734.013V40l.096-.001c.071-.001.143 0 .214-.002v-.002c2.202-.046 4.23-.547 5.914-1.473 1.946-1.07 2.862-2.393 2.651-3.823-.198-1.345-1.415-2.694-3.425-3.8-1.335-.735-2.866-1.275-4.46-1.588l-.015 2.505c.51.192 1.018.428 1.524.706 1.315.723 2.108 1.456 2.359 2.178.294.847-.186 1.645-1.389 2.307-.936.515-2.008.782-3.147.808l.05-8.615a16.493 16.493 0 0 0-1.829-.185c-.122-.006-.244-.009-.365-.011h-.003C25.13 29 24.99 29 24.85 29h-.184v.003c-2.225.034-4.275.535-5.976 1.47-1.947 1.072-2.867 2.396-2.662 3.829.194 1.349 1.407 2.7 3.415 3.805 1.356.747 2.917 1.292 4.543 1.601"/>
        <path fill="#111D28" d="M6.54 44.366C2.182 41.946.004 38.77 0 35.586c-.004-3.214 2.21-6.437 6.64-8.897 8.814-4.897 23.06-4.922 31.82-.055 4.357 2.42 6.536 5.596 6.54 8.78.004 3.214-2.211 6.436-6.64 8.897-8.814 4.897-23.06 4.922-31.82.055" opacity=".2"/>
        <path fill="#1A82FF" d="M45 29v3.935c.004 3.337-2.21 6.682-6.64 9.236-8.814 5.083-23.06 5.108-31.82.058C2.183 39.716.004 36.419 0 33.116V29h45z"/>
        <path fill="#40A0FF" d="M6.54 37.366C2.182 34.946.004 31.77 0 28.586c-.004-3.214 2.21-6.437 6.64-8.897 8.814-4.897 23.06-4.922 31.82-.055 4.357 2.42 6.536 5.596 6.54 8.78.004 3.214-2.211 6.437-6.64 8.897-8.814 4.897-23.06 4.922-31.82.055"/>
        <path fill="#1A82FF" d="M21.361 39c-5.432 0-10.49-1.177-14.246-3.315-3.295-1.876-5.112-4.22-5.115-6.6-.003-2.38 1.898-4.826 5.213-6.714C11.032 20.197 16.155 19 21.64 19c5.432 0 10.491 1.177 14.246 3.315 3.296 1.877 5.112 4.22 5.115 6.6.003 2.38-1.897 4.826-5.213 6.714C31.97 37.803 26.845 39 21.361 39"/>
        <path fill="#0F7CE8" d="M7.213 23.14c3.819-2.313 8.942-3.586 14.426-3.586 5.432 0 10.491 1.252 14.246 3.526 3.175 1.922 4.973 4.307 5.102 6.741.005-.092.013-.185.013-.277-.003-2.53-1.82-5.023-5.115-7.019C32.13 20.252 27.071 19 21.64 19c-5.484 0-10.607 1.273-14.426 3.585-3.315 2.007-5.216 4.61-5.213 7.139 0 .092.008.184.013.276.13-2.441 2.006-4.927 5.2-6.86"/>
        <path fill="#FFF" d="M19.986 33.708L20 31.217a11.577 11.577 0 0 1-1.606-.733c-2.856-1.571-3.21-3.252-.95-4.495.943-.52 2.038-.792 3.21-.808l-.05 8.633c.582.088 1.17.147 1.757.172.247.01.49.014.734.013V34l.096-.001c.071-.001.143 0 .214-.002v-.002c2.202-.046 4.23-.547 5.914-1.473 1.946-1.07 2.862-2.393 2.651-3.823-.198-1.345-1.415-2.694-3.425-3.8-1.335-.735-2.866-1.275-4.46-1.588l-.015 2.505c.51.192 1.018.428 1.524.706 1.315.723 2.108 1.456 2.359 2.178.294.847-.186 1.645-1.389 2.307-.936.515-2.008.782-3.147.808l.05-8.615a16.493 16.493 0 0 0-1.829-.185c-.122-.006-.244-.009-.365-.011h-.003C21.13 23 20.99 23 20.85 23h-.184v.003c-2.225.034-4.275.535-5.976 1.47-1.947 1.072-2.867 2.396-2.662 3.829.194 1.349 1.407 2.7 3.415 3.805 1.356.747 2.917 1.292 4.543 1.601"/>
        <path fill="#111D28" d="M11.54 38.366c-4.358-2.42-6.536-5.596-6.54-8.78-.004-3.214 2.21-6.437 6.64-8.897 8.814-4.897 23.06-4.922 31.82-.055 4.357 2.42 6.536 5.596 6.54 8.78.004 3.214-2.211 6.436-6.64 8.897-8.814 4.897-23.06 4.922-31.82.055" opacity=".2"/>
        <path fill="#1A82FF" d="M50 24v3.935c.004 3.337-2.21 6.682-6.64 9.236-8.814 5.083-23.06 5.108-31.82.058-4.357-2.513-6.536-5.81-6.54-9.113V24h45z"/>
        <path fill="#40A0FF" d="M11.54 32.366c-4.358-2.42-6.536-5.596-6.54-8.78-.004-3.214 2.21-6.437 6.64-8.897 8.814-4.897 23.06-4.922 31.82-.055 4.357 2.42 6.536 5.596 6.54 8.78.004 3.214-2.211 6.437-6.64 8.897-8.814 4.897-23.06 4.922-31.82.055"/>
        <path fill="#1A82FF" d="M26.361 34c-5.432 0-10.49-1.177-14.246-3.315-3.295-1.876-5.112-4.22-5.115-6.6-.003-2.38 1.898-4.826 5.213-6.714C16.032 15.197 21.155 14 26.64 14c5.432 0 10.491 1.177 14.246 3.315 3.296 1.877 5.112 4.22 5.115 6.6.003 2.38-1.897 4.826-5.213 6.714C36.97 32.803 31.845 34 26.361 34"/>
        <path fill="#0F7CE8" d="M12.213 18.14c3.819-2.313 8.942-3.586 14.426-3.586 5.432 0 10.491 1.252 14.246 3.526 3.175 1.922 4.973 4.307 5.102 6.741.005-.092.013-.185.013-.277-.003-2.53-1.82-5.023-5.115-7.019C37.13 15.252 32.071 14 26.64 14c-5.484 0-10.607 1.273-14.426 3.585-3.315 2.007-5.216 4.61-5.213 7.139 0 .092.008.184.013.276.13-2.441 2.006-4.927 5.2-6.86"/>
        <path fill="#FFF" d="M23.986 28.708L24 26.217a11.577 11.577 0 0 1-1.606-.733c-2.856-1.571-3.21-3.252-.95-4.495.943-.52 2.038-.792 3.21-.808l-.05 8.633c.582.088 1.17.147 1.757.172.247.01.49.014.734.013V29l.096-.001c.071-.001.143 0 .214-.002v-.002c2.202-.046 4.23-.547 5.914-1.473 1.946-1.07 2.862-2.393 2.651-3.823-.198-1.345-1.415-2.694-3.425-3.8-1.335-.735-2.866-1.275-4.46-1.588l-.015 2.505c.51.192 1.018.428 1.524.706 1.315.723 2.108 1.456 2.359 2.178.294.847-.186 1.645-1.389 2.307-.936.515-2.008.782-3.147.808l.05-8.615a16.493 16.493 0 0 0-1.829-.185c-.122-.006-.244-.009-.365-.011h-.003C25.13 18 24.99 18 24.85 18h-.184v.003c-2.225.034-4.275.535-5.976 1.47-1.947 1.072-2.867 2.396-2.662 3.829.194 1.349 1.407 2.7 3.415 3.805 1.356.747 2.917 1.292 4.543 1.601"/>
        <path fill="#111D28" d="M7.54 32.366c-4.358-2.42-6.536-5.596-6.54-8.78-.004-3.214 2.21-6.437 6.64-8.897 8.814-4.897 23.06-4.922 31.82-.055 4.357 2.42 6.536 5.596 6.54 8.78.004 3.214-2.211 6.436-6.64 8.897-8.814 4.897-23.06 4.922-31.82.055" opacity=".2"/>
        <path fill="#1A82FF" d="M46 17v3.935c.004 3.337-2.21 6.682-6.64 9.236-8.814 5.083-23.06 5.108-31.82.058-4.357-2.513-6.536-5.81-6.54-9.113V17h45z"/>
        <path fill="#40A0FF" d="M7.54 26.366c-4.358-2.42-6.536-5.596-6.54-8.78-.004-3.214 2.21-6.437 6.64-8.897 8.814-4.897 23.06-4.922 31.82-.055 4.357 2.42 6.536 5.596 6.54 8.78.004 3.214-2.211 6.437-6.64 8.897-8.814 4.897-23.06 4.922-31.82.055"/>
        <path fill="#1A82FF" d="M22.361 28c-5.432 0-10.49-1.177-14.246-3.315-3.295-1.876-5.112-4.22-5.115-6.6-.003-2.38 1.898-4.826 5.213-6.714C12.032 9.197 17.155 8 22.64 8c5.432 0 10.491 1.177 14.246 3.315 3.296 1.877 5.112 4.22 5.115 6.6.003 2.38-1.897 4.826-5.213 6.714C32.97 26.803 27.845 28 22.361 28"/>
        <path fill="#0F7CE8" d="M8.213 12.14c3.819-2.313 8.942-3.586 14.426-3.586 5.432 0 10.491 1.252 14.246 3.526 3.175 1.922 4.973 4.307 5.102 6.741.005-.092.013-.185.013-.277-.003-2.53-1.82-5.023-5.115-7.019C33.13 9.252 28.071 8 22.64 8c-5.484 0-10.607 1.273-14.426 3.585-3.315 2.007-5.216 4.61-5.213 7.139 0 .092.008.184.013.276.13-2.441 2.006-4.927 5.2-6.86"/>
        <path fill="#40A0FF" d="M19.986 22.708L20 20.217a11.577 11.577 0 0 1-1.606-.733c-2.856-1.571-3.21-3.252-.95-4.495.943-.52 2.038-.792 3.21-.808l-.05 8.633c.582.088 1.17.147 1.757.172.247.01.49.014.734.013V23l.096-.001c.071-.001.143 0 .214-.002v-.002c2.202-.046 4.23-.547 5.914-1.473 1.946-1.07 2.862-2.393 2.651-3.823-.198-1.345-1.415-2.694-3.425-3.8-1.335-.735-2.866-1.275-4.46-1.588l-.015 2.505c.51.192 1.018.428 1.524.706 1.315.723 2.108 1.456 2.359 2.178.294.847-.186 1.645-1.389 2.307-.936.515-2.008.782-3.147.808l.05-8.615a16.493 16.493 0 0 0-2.194-.196h-.003C21.13 12 20.99 12 20.85 12h-.184v.003c-2.225.034-4.275.535-5.976 1.47-1.947 1.072-2.867 2.396-2.662 3.829.194 1.349 1.407 2.7 3.415 3.805 1.356.747 2.917 1.292 4.543 1.601"/>
        <g transform="translate(40 45)">
            <mask id="d" fill="#fff">
                <use xlink:href="#c"/>
            </mask>
            <path fill="#111D28" d="M6.552 21.32C2.208 18.91.036 15.748.032 12.58c-.004-3.2 2.204-6.409 6.62-8.858 8.785-4.875 22.986-4.9 31.718-.055 4.344 2.41 6.516 5.571 6.52 8.74.003 3.2-2.204 6.408-6.62 8.857-8.786 4.875-22.987 4.9-31.718.056" mask="url(#d)" opacity=".2"/>
        </g>
        <g transform="translate(40 51)">
            <mask id="f" fill="#fff">
                <use xlink:href="#e"/>
            </mask>
            <path fill="#1A82FF" d="M44.89.016v3.922c.004 3.325-2.204 6.658-6.62 9.203-8.786 5.065-22.987 5.09-31.718.058C2.208 10.694.036 7.409.032 4.118V.016H44.89z" mask="url(#f)"/>
        </g>
        <g transform="translate(40 38)">
            <mask id="h" fill="#fff">
                <use xlink:href="#g"/>
            </mask>
            <path fill="#40A0FF" d="M6.552 21.358C2.208 18.942.036 15.773.032 12.596c-.004-3.208 2.204-6.424 6.62-8.88 8.785-4.886 22.986-4.91 31.718-.054 4.344 2.416 6.516 5.585 6.52 8.76.003 3.21-2.204 6.425-6.62 8.88-8.786 4.887-22.987 4.912-31.718.056" mask="url(#h)"/>
        </g>
        <path fill="#1A82FF" d="M62.361 61c-5.432 0-10.49-1.177-14.246-3.315-3.295-1.876-5.112-4.22-5.115-6.6-.003-2.38 1.898-4.826 5.213-6.714C52.032 42.197 57.155 41 62.64 41c5.432 0 10.491 1.177 14.246 3.315 3.296 1.877 5.112 4.22 5.115 6.6.003 2.38-1.897 4.826-5.213 6.714C72.97 59.803 67.845 61 62.361 61"/>
        <path fill="#0F7CE8" d="M48.213 45.14c3.819-2.313 8.942-3.586 14.426-3.586 5.432 0 10.491 1.252 14.246 3.526 3.176 1.922 4.973 4.307 5.102 6.741.005-.092.013-.185.013-.277-.003-2.53-1.82-5.023-5.115-7.019C73.13 42.252 68.071 41 62.64 41c-5.484 0-10.607 1.273-14.426 3.585-3.315 2.007-5.216 4.61-5.213 7.139 0 .092.008.184.013.276.13-2.441 2.006-4.927 5.2-6.86"/>
        <path fill="#40A0FF" d="M60.986 55.708L61 53.217a11.577 11.577 0 0 1-1.606-.733c-2.856-1.571-3.21-3.251-.95-4.495.943-.52 2.038-.792 3.21-.808l-.05 8.633c.582.088 1.17.147 1.757.172.247.01.49.014.734.013V56l.096-.001c.07-.001.143 0 .214-.002v-.002c2.202-.046 4.23-.547 5.913-1.473 1.946-1.07 2.863-2.393 2.652-3.823-.198-1.345-1.415-2.694-3.425-3.8-1.335-.735-2.866-1.275-4.46-1.588l-.015 2.505c.51.192 1.018.428 1.524.706 1.315.723 2.108 1.456 2.359 2.178.294.847-.186 1.645-1.389 2.307-.936.515-2.008.782-3.147.808l.05-8.615a16.478 16.478 0 0 0-1.829-.185c-.122-.006-.244-.009-.365-.011h-.003C62.13 45 61.99 45 61.85 45h-.184v.003c-2.225.034-4.275.535-5.976 1.47-1.947 1.072-2.867 2.396-2.662 3.829.194 1.349 1.407 2.7 3.415 3.805 1.356.747 2.917 1.292 4.543 1.601"/>
    </g>
</svg>
