<svg xmlns="http://www.w3.org/2000/svg" width="61" height="51" viewBox="0 0 61 51">
    <path fill="#6F8294" fill-rule="evenodd" d="M29.392 26.915c-1.607 1.28-3.714 1.275-4.707-.015-.992-1.29-.493-3.376 1.113-4.659 1.606-1.28 3.713-1.272 4.705.018.993 1.288.495 3.374-1.111 4.656zM30.5 17.85c-5.701 0-10.167 4.412-10.167 10.044 0 5.71 4.56 10.356 10.167 10.356s10.167-4.646 10.167-10.356c0-5.632-4.466-10.044-10.167-10.044zm25.417 7.65H45.549c1.477 9.573-5.876 17.85-15.049 17.85-9.18 0-16.523-8.282-15.05-17.85H5.084V12.75H17.97l5.083-7.65h14.892l5.083 7.65h12.889V25.5zM45.75 7.65L40.667 0H20.333L15.25 7.65H0V51h61V7.65H45.75z"/>
</svg>
