<svg xmlns="http://www.w3.org/2000/svg" width="34" height="34" viewBox="0 0 34 34">
    <g fill="none" fill-rule="evenodd" transform="translate(4.788 4.725)">
        <circle cx="12.482" cy="12.482" r="14.482" fill="#1A82FF" stroke="#FFF" stroke-width="4"/>
        <path fill="#FFF" d="M12.243 12.463c-.346.28-.8.28-1.014-.003-.213-.282-.106-.74.24-1.02s.8-.279 1.014.004c.214.282.106.739-.24 1.02zm.239-1.985c-1.228 0-2.19.966-2.19 2.2 0 1.25.982 2.268 2.19 2.268s2.19-1.018 2.19-2.268c0-1.234-.962-2.2-2.19-2.2zm5.475 1.676h-2.233c.318 2.096-1.266 3.908-3.242 3.908-1.977 0-3.559-1.813-3.241-3.908H7.007V9.362h2.776l1.095-1.676h3.208l1.094 1.676h2.777v2.792zm-2.19-3.91L14.672 6.57h-4.38L9.197 8.245H5.913v9.493h13.139V8.245h-3.285z"/>
    </g>
</svg>
