<svg xmlns="http://www.w3.org/2000/svg" xmlns:xlink="http://www.w3.org/1999/xlink" width="338" height="317" viewBox="0 0 338 317">
    <defs>
        <path id="a" d="M180.752 115.727L.182 183.173 61.476.155z"/>
    </defs>
    <g fill="none" fill-rule="evenodd">
        <g transform="translate(21 105)">
            <mask id="b" fill="#fff">
                <use xlink:href="#a"/>
            </mask>
            <path fill="#C2CBD3" d="M180.752 115.727L.182 183.173 61.476.155z" mask="url(#b)"/>
        </g>
        <path fill="#F1F6F9" d="M132 152.903L21 288l87.338-158z"/>
        <path fill="#111D28" d="M215.536 171.11c10.862 36.365-10.417 58.697-47.526 49.879-37.11-8.818-75.999-45.445-86.86-81.81-10.862-36.365 10.416-58.697 47.526-49.88 37.11 8.818 75.998 45.446 86.86 81.81"/>
        <path fill="#1A82FF" d="M317.708 208.016c-5.91-19.369-18.576-34.46-33.884-40.37-5.295-2.045-11.393-3.273-19.19-3.867-11.17-.85-22.476-.161-33.604 2.045-11.129 2.207-21.844 5.885-31.847 10.932l-5.892-11.71c11.062-5.582 22.904-9.648 35.196-12.085 12.291-2.437 24.787-3.196 37.138-2.257 9.108.693 16.388 2.189 22.91 4.706 10.058 3.884 18.96 10.529 26.458 19.75 6.682 8.218 11.951 18.255 15.237 29.025l-12.522 3.831z"/>
        <path fill="#6E3BEA" d="M164.32 148.027l-7.005-11.077c17.907-11.358 38.436-19.132 59.366-22.483l1.155-.182c3.301-.517 6.42-1.005 8.745-2.265 4.776-2.59 6.992-9.928 4.743-15.706-1.032-2.651-2.873-5.34-4.822-8.187-3.818-5.58-8.147-11.903-7.608-20.096.372-5.655 3.387-10.501 7.867-12.647 1.82-.872 3.612-1.185 4.97-1.361 6.574-.85 12.749.266 18.721 1.346.709.128 1.416.256 2.123.38 6.275 1.101 11.339 1.544 15.657.122 3.344-1.102 6.744-4.169 6.643-7.396-.063-2.055-1.414-4.61-2.843-7.315-2.377-4.497-5.335-10.094-3.81-16.724.945-4.102 3.482-7.677 7.34-10.338 3.646-2.516 7.621-3.657 10.314-4.171 8.715-1.664 17.885-.613 28.032 3.212 8.588 3.237 16.876 8.117 23.97 12.438l-6.803 11.204c-14.582-8.88-28.823-16.631-42.748-13.973-3.876.74-6.896 2.62-7.345 4.572-.43 1.87.985 4.547 2.623 7.646 1.968 3.726 4.2 7.948 4.358 13.042.142 4.587-1.562 9.207-4.8 13.009-2.81 3.298-6.66 5.873-10.841 7.25-7.312 2.408-14.898 1.586-22.007.338-.728-.128-1.458-.26-2.189-.392-5.221-.944-10.155-1.835-14.718-1.245-.54.07-.807.13-.931.166-.176.22-.462.856-.517 1.7-.241 3.661 2.346 7.441 5.342 11.819 2.282 3.333 4.642 6.78 6.221 10.838 2.171 5.576 2.365 11.9.544 17.804-1.933 6.269-5.93 11.31-11.254 14.197-4.307 2.335-8.901 3.054-12.955 3.689-.37.058-.74.115-1.11.175-19.19 3.072-38.01 10.2-54.428 20.611"/>
        <path fill="#FF1A1A" d="M129.572 126.88l-10.22-8.197c8.09-10.117 13.158-21.473 14.655-32.842 1.6-12.146-1.088-24.402-7.372-33.625-6.587-9.665-17.402-16.049-28.224-16.66l.737-13.092c7.472.422 15.004 2.78 21.781 6.82a52.896 52.896 0 0 1 16.52 15.541c8.077 11.852 11.554 27.427 9.54 42.73-1.81 13.741-7.832 27.34-17.417 39.325"/>
        <path fill="#1A82FF" d="M21.228999999999996 145.09l-3.362-12.673a53.159 53.159 0 0 0 21.485-11.535c7.761-6.878 8.972-13.509 7.65-17.096-1.396-3.788-6.119-6.91-12.633-8.35-2.596-.574-5.304-.93-8.172-1.305-4.716-.619-9.594-1.259-14.471-2.954-1.487-.517-6.011-2.09-8.133-6.509-2.061-4.292-1.073-9.466 2.644-13.84 5.19-6.108 12.505-8.575 18.957-10.751 5.19-1.75 10.091-3.404 13.007-6.587.299-.326.497-.602.623-.805-.12-.17-.298-.407-.563-.729a31.867 31.867 0 0 0-17.543-10.791 72.3 72.3 0 0 0-2.53-.502c-2.508-.467-5.351-.997-8.181-2.237C4.3 35.926.525 31.033.154 25.658-.254 19.724 3.4 15.053 6.54 12.178A38.25 38.25 0 0 1 30.166 2.22l.733 13.092c-5.673.319-11.331 2.704-15.524 6.544-1.807 1.655-2.162 2.709-2.158 2.9.06.235.735 1.087 2.037 1.657 1.455.637 3.337.988 5.33 1.36.967.18 1.966.366 2.995.597 9.676 2.17 18.478 7.585 24.785 15.246 1.415 1.72 3.101 4.095 3.576 7.234.589 3.897-.864 7.983-4.09 11.505-5.193 5.67-12.25 8.05-18.476 10.15-5.114 1.724-9.954 3.357-12.841 6.458 3.477 1.133 7.314 1.636 11.365 2.167 3.019.396 6.14.806 9.294 1.503 11.05 2.443 19.103 8.499 22.094 16.615 4.399 11.937-2.93 24.076-11.256 31.455a66.311 66.311 0 0 1-26.801 14.388"/>
        <path fill="#26D198" d="M275.743 316.392c-.44 0-.854-.026-1.239-.07-3.697-.418-6.953-2.609-9.678-6.513-5.078-7.275-6.706-15.55-8.28-23.553-1.314-6.685-2.556-12.998-5.72-17.96-.395-.62-.696-.984-.892-1.19-.454.126-1.1.366-1.458.5-.957.355-2.558.95-2.974 1.396-.763.817-.517 4.331-.37 6.43l.024.337a88.595 88.595 0 0 1-1.433 23.154c-.785 4.015-2.07 8.592-5.648 12.09-2.898 2.833-6.888 4.533-11.858 5.052-7.282.761-14.825-1.237-21.235-5.626s-11.006-10.7-12.942-17.774l12.629-3.466c2.297 8.397 11.541 14.73 20.19 13.824 1.91-.2 3.354-.694 4.069-1.393 1.012-.99 1.571-3.313 1.946-5.228a75.46 75.46 0 0 0 1.22-19.72l-.023-.33c-.335-4.774-.794-11.312 3.864-16.303 2.529-2.71 5.683-3.882 7.986-4.738 1.98-.735 4.972-1.847 8.484-1.209 3.683.67 6.865 3.07 9.458 7.138 4.495 7.051 6.038 14.895 7.53 22.482 1.372 6.976 2.668 13.565 6.165 18.574.16.23.303.418.427.57.14-.12.302-.268.484-.45 4.746-4.748 6.472-12.128 8.3-19.94 1.178-5.042 2.397-10.254 4.505-15.247 2.777-6.578 7.49-10.257 12.95-10.099 5.207.153 9.367 3.584 12.365 10.197 6.655 14.683 10.97 30.212 15.141 45.23l-12.614 3.514c-4.039-14.536-8.214-29.567-14.45-43.323a16.992 16.992 0 0 0-.782-1.538 10.8 10.8 0 0 0-.55 1.126c-1.673 3.963-2.715 8.416-3.817 13.13-2.166 9.26-4.405 18.835-11.793 26.227-3.754 3.755-7.333 4.699-9.98 4.699M309.988 96.95l12.61 12.628-12.61 12.63-12.61-12.63zM187.848 54.194l12.61 12.629-12.61 12.629-12.61-12.629z"/>
        <path fill="#6E3BEA" d="M169.215.626l12.61 12.629-12.61 12.629-12.61-12.63z"/>
        <path fill="#26D198" d="M74.414.082l12.61 12.629-12.61 12.629-12.61-12.63z"/>
        <path fill="#1A82FF" d="M21.858 158.262l12.61 12.629-12.61 12.629-12.61-12.63z"/>
        <path fill="#6E3BEA" d="M265.414 194.152l12.61 12.629-12.61 12.629-12.61-12.63z"/>
        <path fill="#FF1A1A" d="M99.675 289.512l12.61 12.629-12.61 12.629-12.61-12.63z"/>
        <path fill="#6E3BEA" d="M165.695 252.737l18.273 18.3-18.273 18.3-18.273-18.3zM304.552 217.616l18.273 18.3-18.273 18.3-18.273-18.3z"/>
    </g>
</svg>
