<svg xmlns="http://www.w3.org/2000/svg" width="26" height="26" viewBox="0 0 26 26">
    <g fill="none" fill-rule="evenodd">
        <circle cx="13" cy="13" r="13" fill="#FEC100"/>
        <path fill="#FFF" d="M13.165 6.271l-5.693 6.366c1.375 0 2.577.01 3.78-.012.156-.003.34-.142.46-.267.499-.52.978-1.058 1.527-1.657.52.536 1.002 1.047 1.5 1.54.129.128.307.287.464.29 1.214.024 2.428.013 3.764.013L13.165 6.27m0 15.356l-8.43-8.418 8.473-8.475 8.428 8.424c-2.776 2.776-5.62 5.618-8.47 8.47"/>
    </g>
</svg>
