<svg xmlns="http://www.w3.org/2000/svg" xmlns:xlink="http://www.w3.org/1999/xlink" width="232" height="201" viewBox="0 0 232 201">
    <defs>
        <path id="a" d="M0 .065h140.984v81.397H0z"/>
        <path id="c" d="M0 .103h140.984V81.5H0z"/>
    </defs>
    <g fill="none" fill-rule="evenodd">
        <g transform="translate(91 118.898)">
            <mask id="b" fill="#fff">
                <use xlink:href="#a"/>
            </mask>
            <path fill="#111D28" fill-opacity=".1" d="M137.583 36.14c4.535 2.618 4.535 6.902 0 9.52l-58.61 33.838c-4.535 2.619-11.956 2.619-16.49 0L3.4 45.388c-4.535-2.618-4.535-6.903 0-9.521l58.61-33.838c4.535-2.619 11.956-2.619 16.49 0l59.082 34.11z" mask="url(#b)"/>
        </g>
        <path fill="#C2CBD3" d="M161.726 94.599c-2.989 0-5.977-.655-8.243-1.964L94.4 58.525c-2.21-1.277-3.334-2.949-3.39-4.63v83.784c.056 1.681 1.18 3.354 3.39 4.63l59.082 34.11c2.266 1.31 5.254 1.964 8.243 1.964V94.6z"/>
        <path fill="#98A7B4" d="M161.726 94.599c2.99 0 5.98-.655 8.247-1.964l58.61-33.839c2.33-1.345 3.453-3.129 3.39-4.901v83.784c.063 1.773-1.06 3.557-3.39 4.902l-58.61 33.838c-2.268 1.31-5.258 1.964-8.247 1.964V94.6z"/>
        <g transform="translate(91 13.098)">
            <mask id="d" fill="#fff">
                <use xlink:href="#c"/>
            </mask>
            <path fill="#EBF0F3" d="M137.583 36.177c4.535 2.619 4.535 6.903 0 9.521l-58.61 33.838c-4.535 2.619-11.956 2.619-16.49 0L3.4 45.426c-4.535-2.618-4.535-6.903 0-9.52l58.61-33.84c4.535-2.618 11.956-2.618 16.49 0l59.082 34.111z" mask="url(#d)"/>
        </g>
        <path fill="#384B5E" d="M161.064 85.97c-1.925 0-3.396-.455-4.071-.845l-54.802-31.64 54.33-31.367c.675-.39 2.147-.845 4.07-.845 1.925 0 3.396.455 4.072.845l54.802 31.64-54.331 31.367c-.675.39-2.146.845-4.07.845"/>
        <path fill="#262D33" d="M161.064 85.97c-1.925 0-3.396-.455-4.071-.845l-54.802-31.64 54.33-31.367c.675-.39 2.147-.845 4.07-.845l.473 64.697z"/>
        <path fill="#000" d="M138.688 104.554c-3.276-1.891-5.934-.38-5.934 3.383 0 3.764 2.658 8.345 5.934 10.237 3.276 1.89 5.935.38 5.935-3.384 0-3.763-2.659-8.345-5.935-10.236m-27.694-15.99c-3.276-1.89-5.935-.38-5.935 3.384s2.659 8.345 5.935 10.236c3.276 1.892 5.934.38 5.934-3.383 0-3.764-2.658-8.345-5.934-10.236m13.851 35.236c-9.226-5.327-16.4-2.04-20.15 1.064l1.864 3.71c5.088-.781 10.808.302 18.286 4.619 7.478 4.317 13.198 9.84 18.286 16.495l1.864-1.557c-3.751-7.436-10.924-19.005-20.15-24.331"/>
        <path fill="#1A82FF" d="M139.257 129.642c0-1.667 3.02-8.437 3.02-8.437s3.018 6.77 3.018 8.437a3.02 3.02 0 0 1-6.038 0"/>
        <g fill-rule="nonzero">
            <path fill="#C0CBD4" d="M79.993 77.68l1.887.453-1.934.166c-11.177.96-23.896-1.697-33.078-8.772C21.92 71.362.5 55.411.5 35.087.5 15.967 19.54.5 43 .5v.315V.5c23.46 0 42.5 15.468 42.5 34.587 0 10.8-6.12 20.771-16.371 27.28-2.603 6.685 2.797 13.373 10.864 15.312zM43 .814v.315c-23.137 0-41.87 15.217-41.87 33.957 0 19.956 21.149 35.673 45.812 33.803l.12-.01.096.075c8.567 6.648 20.333 9.374 30.958 8.838-7.459-2.522-12.193-9.117-9.535-15.754l.038-.095.086-.055c10.13-6.397 16.165-16.2 16.165-26.802C84.87 16.347 66.137 1.13 43 1.13V.815z"/>
            <path fill="#111D28" d="M27.347 30.407h-.977V23.19h.977v7.218zm3.94 0v-4.336l-.565-.066a.449.449 0 0 1-.174-.078c-.045-.035-.068-.087-.068-.154v-.367h.806v-.494c0-.292.042-.552.124-.778a1.494 1.494 0 0 1 .904-.93c.215-.08.457-.12.725-.12.229 0 .44.033.635.1l-.02.449c-.004.067-.032.107-.086.12a.985.985 0 0 1-.227.02h-.156c-.154 0-.294.02-.42.061a.795.795 0 0 0-.325.197.89.89 0 0 0-.21.357c-.048.148-.072.33-.072.55v.468h1.476v.65h-1.446v4.351h-.902zm5.213-5.183c.305 0 .587.052.846.154a1.9 1.9 0 0 1 1.11 1.158c.106.284.16.607.16.97 0 .141-.016.235-.046.282-.03.047-.087.07-.171.07h-3.395c.006.323.05.603.13.842.081.238.192.437.333.597.141.16.309.278.504.357.195.08.413.119.655.119.225 0 .419-.026.581-.078a2.768 2.768 0 0 0 .716-.338.39.39 0 0 1 .204-.078c.074 0 .13.029.17.086l.253.327c-.111.134-.244.251-.398.35-.155.1-.32.18-.496.245a3.338 3.338 0 0 1-1.106.191c-.353 0-.677-.06-.975-.179a2.14 2.14 0 0 1-.77-.524 2.403 2.403 0 0 1-.506-.854 3.472 3.472 0 0 1-.182-1.168c0-.356.055-.689.164-.997a2.35 2.35 0 0 1 .47-.804c.206-.227.456-.404.751-.534.296-.13.628-.194.998-.194zm.02.66c-.433 0-.774.125-1.023.375-.248.25-.403.597-.463 1.04h2.775c0-.208-.028-.398-.085-.571a1.274 1.274 0 0 0-.252-.448 1.127 1.127 0 0 0-.406-.293 1.368 1.368 0 0 0-.546-.103zm5.259-.66c.305 0 .587.052.846.154a1.9 1.9 0 0 1 1.11 1.158c.106.284.16.607.16.97 0 .141-.016.235-.046.282-.03.047-.088.07-.172.07h-3.394c.006.323.05.603.13.842.081.238.192.437.333.597.141.16.309.278.504.357.194.08.413.119.654.119.225 0 .42-.026.582-.078a2.768 2.768 0 0 0 .715-.338.39.39 0 0 1 .204-.078c.074 0 .131.029.172.086l.252.327c-.111.134-.244.251-.398.35-.155.1-.32.18-.496.245a3.338 3.338 0 0 1-1.106.191c-.353 0-.678-.06-.975-.179a2.14 2.14 0 0 1-.77-.524 2.403 2.403 0 0 1-.507-.854 3.472 3.472 0 0 1-.181-1.168c0-.356.055-.689.164-.997a2.35 2.35 0 0 1 .47-.804c.206-.227.456-.404.751-.534.296-.13.628-.194.998-.194zm.02.66c-.434 0-.774.125-1.023.375-.248.25-.403.597-.463 1.04h2.775c0-.208-.028-.398-.085-.571a1.274 1.274 0 0 0-.252-.448 1.127 1.127 0 0 0-.406-.293 1.368 1.368 0 0 0-.546-.103zm4.236-2.896v7.42h-.897v-7.42h.897zm6.447 3.158a.199.199 0 0 1-.186.11.35.35 0 0 1-.171-.055 3.949 3.949 0 0 0-.235-.123 2.2 2.2 0 0 0-.33-.126 1.574 1.574 0 0 0-.453-.058c-.151 0-.287.02-.408.058a.98.98 0 0 0-.31.159.702.702 0 0 0-.196.234.629.629 0 0 0-.068.29c0 .13.038.24.113.327a.985.985 0 0 0 .3.227c.124.064.265.12.423.168.158.05.32.101.486.157.166.055.328.116.486.183.158.068.299.152.423.252.125.101.224.224.3.37.076.147.113.322.113.527 0 .235-.042.452-.126.652-.084.2-.208.373-.372.519a1.797 1.797 0 0 1-.605.345 2.483 2.483 0 0 1-.826.126c-.356 0-.678-.058-.967-.174a2.45 2.45 0 0 1-.735-.446l.211-.342a.307.307 0 0 1 .096-.1.269.269 0 0 1 .146-.036c.06 0 .124.023.191.07.068.047.149.1.245.157a1.584 1.584 0 0 0 .859.227c.174 0 .327-.023.458-.069a.963.963 0 0 0 .327-.184.728.728 0 0 0 .194-.267.83.83 0 0 0 .063-.322.535.535 0 0 0-.113-.35.956.956 0 0 0-.3-.237 2.442 2.442 0 0 0-.426-.171c-.159-.049-.322-.1-.488-.154a5.506 5.506 0 0 1-.489-.183 1.718 1.718 0 0 1-.425-.26 1.175 1.175 0 0 1-.3-.385 1.246 1.246 0 0 1-.113-.557 1.358 1.358 0 0 1 .473-1.035c.155-.136.344-.244.57-.325.224-.08.481-.12.77-.12.336 0 .637.052.904.158.267.106.498.251.693.436l-.202.327zm3.516-.922c.373 0 .71.062 1.01.187.3.124.556.3.766.529.21.228.37.504.483.828.113.324.169.686.169 1.086 0 .403-.056.765-.169 1.088a2.345 2.345 0 0 1-.483.826c-.21.228-.465.404-.766.526-.3.123-.637.184-1.01.184s-.71-.061-1.01-.184a2.127 2.127 0 0 1-.768-.526 2.355 2.355 0 0 1-.489-.826 3.245 3.245 0 0 1-.17-1.088c0-.4.056-.762.17-1.086.115-.324.277-.6.489-.828.212-.229.468-.405.768-.53a2.62 2.62 0 0 1 1.01-.186zm0 4.554c.504 0 .88-.169 1.128-.506.249-.338.373-.809.373-1.413 0-.608-.124-1.082-.373-1.42-.248-.34-.624-.51-1.128-.51-.255 0-.477.044-.665.131a1.244 1.244 0 0 0-.47.378c-.127.165-.22.367-.283.607-.062.24-.093.511-.093.814 0 .302.031.572.093.81.062.24.156.44.282.603.126.162.283.288.471.375.188.087.41.13.665.13zm-39.939 7.41c.306 0 .588.05.847.153a1.9 1.9 0 0 1 1.11 1.158c.106.284.159.607.159.97 0 .141-.015.235-.045.282-.03.047-.088.07-.172.07h-3.395c.007.323.05.603.131.842.081.238.192.437.333.597.14.16.309.278.504.357.194.08.413.119.654.119.225 0 .42-.026.582-.078a2.768 2.768 0 0 0 .715-.338.39.39 0 0 1 .204-.078c.074 0 .131.029.172.086l.251.327c-.11.134-.243.251-.397.35-.155.1-.32.18-.497.244a3.338 3.338 0 0 1-1.106.191c-.352 0-.677-.059-.974-.178a2.14 2.14 0 0 1-.77-.524 2.403 2.403 0 0 1-.507-.854 3.472 3.472 0 0 1-.181-1.168c0-.356.054-.689.164-.997a2.35 2.35 0 0 1 .47-.804c.205-.227.456-.405.751-.534.296-.13.628-.194.997-.194zm.02.66c-.433 0-.773.124-1.022.374-.248.25-.403.597-.463 1.04h2.775c0-.208-.029-.398-.086-.571a1.274 1.274 0 0 0-.251-.448 1.127 1.127 0 0 0-.406-.293 1.368 1.368 0 0 0-.546-.103zm3.24 4.522v-5.102h.533c.128 0 .208.062.242.186l.066.524c.188-.232.398-.421.632-.57.233-.147.504-.22.813-.22.346 0 .626.095.839.286.213.192.367.45.46.776a1.597 1.597 0 0 1 1.132-1.002c.162-.04.328-.06.496-.06.268 0 .508.042.717.128.21.085.388.21.534.375.146.165.258.367.335.607.078.24.116.515.116.823v3.25h-.896v-3.25c0-.4-.088-.702-.262-.909-.175-.206-.428-.31-.76-.31-.149 0-.289.027-.421.079a1.013 1.013 0 0 0-.59.61c-.059.152-.088.329-.088.53v3.25h-.897v-3.25c0-.41-.082-.715-.246-.916-.165-.202-.405-.302-.72-.302-.222 0-.428.06-.618.178a2.02 2.02 0 0 0-.521.486v3.803h-.897zm8.27 1.728v-6.83h.534c.128 0 .208.062.242.186l.075.605c.219-.266.468-.479.748-.64a1.91 1.91 0 0 1 .97-.242c.292 0 .558.056.796.169.238.112.442.279.61.499.167.22.297.492.387.818.09.326.136.7.136 1.123 0 .376-.05.727-.15 1.05-.102.325-.246.605-.434.842a2.023 2.023 0 0 1-.693.559 2.049 2.049 0 0 1-.924.204c-.316 0-.585-.052-.808-.156a1.822 1.822 0 0 1-.592-.444v2.257h-.897zm2.272-6.195c-.292 0-.548.067-.768.201-.22.134-.423.324-.607.57v2.467c.164.222.345.378.541.469.197.09.416.136.658.136.473 0 .837-.17 1.093-.509.255-.34.382-.823.382-1.45 0-.333-.029-.619-.088-.857a1.674 1.674 0 0 0-.254-.587.99.99 0 0 0-.408-.335 1.357 1.357 0 0 0-.55-.105zm4.835 4.548c-.403 0-.712-.113-.929-.338-.216-.225-.325-.549-.325-.972v-3.123h-.614a.2.2 0 0 1-.136-.047c-.037-.032-.056-.082-.056-.15v-.357l.836-.105.207-1.577a.19.19 0 0 1 .065-.123.208.208 0 0 1 .141-.048h.454v1.758h1.46v.65h-1.46v3.062c0 .215.052.374.156.478a.545.545 0 0 0 .403.157.711.711 0 0 0 .244-.038c.07-.025.129-.053.179-.083.05-.03.093-.058.128-.083a.168.168 0 0 1 .094-.038c.047 0 .089.028.126.085l.262.429a1.67 1.67 0 0 1-.56.34 1.899 1.899 0 0 1-.675.123zm3.708 1.425a.47.47 0 0 1-.114.162c-.045.04-.115.06-.209.06h-.665l.932-2.025-2.105-4.805h.776c.077 0 .137.02.18.058a.362.362 0 0 1 .097.128l1.365 3.214c.03.074.056.148.078.221.021.074.04.15.058.227l.07-.227c.024-.073.05-.149.08-.226l1.325-3.209a.287.287 0 0 1 .104-.133.265.265 0 0 1 .158-.053h.716l-2.846 6.608zm6.603-6.608v5.102h-.896v-5.102h.896zm.202-1.602a.57.57 0 0 1-.053.244.703.703 0 0 1-.141.202.655.655 0 0 1-.204.138.612.612 0 0 1-.491 0 .664.664 0 0 1-.34-.34.63.63 0 0 1 0-.494.647.647 0 0 1 .584-.395c.087 0 .17.017.247.05a.655.655 0 0 1 .345.346.604.604 0 0 1 .053.25zm1.38 6.704v-5.102h.534c.127 0 .208.062.242.186l.07.554c.222-.245.47-.443.743-.594.274-.151.59-.227.95-.227.278 0 .524.046.737.139.214.092.392.223.534.393.143.17.251.373.325.612.074.238.111.502.111.79v3.25h-.896v-3.25c0-.386-.089-.685-.265-.899-.176-.213-.446-.32-.808-.32-.266 0-.513.064-.743.192-.23.128-.443.3-.638.519v3.757h-.896zm8.523-4.261a.199.199 0 0 1-.187.11.35.35 0 0 1-.171-.055 3.949 3.949 0 0 0-.234-.123 2.2 2.2 0 0 0-.33-.126 1.574 1.574 0 0 0-.454-.058c-.15 0-.287.02-.408.058a.98.98 0 0 0-.31.159.702.702 0 0 0-.196.234.629.629 0 0 0-.068.29c0 .13.038.24.114.327a.985.985 0 0 0 .3.227c.124.064.265.12.422.168.158.05.32.101.486.157.167.055.329.116.487.183.157.068.298.152.423.252.124.101.224.224.3.37.075.147.113.322.113.527 0 .235-.042.452-.126.652-.084.2-.208.373-.373.519a1.797 1.797 0 0 1-.604.345 2.483 2.483 0 0 1-.827.126c-.355 0-.678-.058-.967-.174a2.45 2.45 0 0 1-.735-.446l.212-.342a.307.307 0 0 1 .095-.1.269.269 0 0 1 .146-.036c.06 0 .125.023.192.07.067.047.148.1.244.157a1.584 1.584 0 0 0 .859.227c.174 0 .327-.023.458-.069a.963.963 0 0 0 .328-.184.728.728 0 0 0 .194-.267.83.83 0 0 0 .062-.322.535.535 0 0 0-.113-.35.956.956 0 0 0-.3-.237 2.442 2.442 0 0 0-.425-.171c-.16-.049-.323-.1-.489-.154a5.506 5.506 0 0 1-.488-.184 1.718 1.718 0 0 1-.426-.259 1.175 1.175 0 0 1-.3-.385 1.246 1.246 0 0 1-.113-.557 1.358 1.358 0 0 1 .473-1.035c.155-.136.345-.244.57-.325.225-.08.482-.12.77-.12.336 0 .637.052.904.158.267.106.498.25.693.436l-.201.327zm2.448-.841v5.102h-.897v-5.102h.897zm.201-1.602a.57.57 0 0 1-.053.244.703.703 0 0 1-.14.202.655.655 0 0 1-.205.138.612.612 0 0 1-.491 0 .664.664 0 0 1-.34-.34.63.63 0 0 1 0-.494.647.647 0 0 1 .584-.395c.088 0 .17.017.247.05a.655.655 0 0 1 .345.346.604.604 0 0 1 .053.25zm4.972 6.704c-.128 0-.209-.062-.242-.186l-.08-.62a2.686 2.686 0 0 1-.749.638c-.28.16-.602.239-.964.239-.293 0-.558-.056-.796-.169a1.65 1.65 0 0 1-.61-.496 2.363 2.363 0 0 1-.388-.816c-.09-.326-.136-.7-.136-1.123 0-.376.05-.726.152-1.05.1-.325.246-.606.435-.844.19-.239.42-.426.693-.562.272-.136.58-.204.927-.204.312 0 .579.053.8.159.222.106.42.254.595.446V34.95h.897v7.42h-.534zm-1.738-.654c.292 0 .548-.068.768-.202.22-.134.422-.324.607-.57v-2.467a1.419 1.419 0 0 0-.542-.466 1.563 1.563 0 0 0-.652-.134c-.477 0-.843.17-1.098.51-.255.338-.383.822-.383 1.45 0 .332.029.617.086.854.057.236.14.431.252.584a.99.99 0 0 0 .408.335c.16.07.346.106.554.106zm5.797-4.529c.306 0 .588.051.847.154a1.9 1.9 0 0 1 1.11 1.158c.106.284.159.607.159.97 0 .141-.015.235-.045.282-.03.047-.088.07-.172.07h-3.395c.007.323.05.603.131.842.081.238.192.437.333.597.14.16.309.278.504.357.194.08.413.119.654.119.225 0 .42-.026.582-.078a2.768 2.768 0 0 0 .715-.338.39.39 0 0 1 .204-.078c.074 0 .131.029.172.086l.252.327c-.111.134-.244.251-.398.35-.155.1-.32.18-.497.244a3.338 3.338 0 0 1-1.106.191c-.352 0-.677-.059-.974-.178a2.14 2.14 0 0 1-.77-.524 2.403 2.403 0 0 1-.507-.854 3.472 3.472 0 0 1-.181-1.168c0-.356.054-.689.164-.997a2.35 2.35 0 0 1 .47-.804c.205-.227.456-.405.751-.534.296-.13.628-.194.997-.194zm.02.66c-.433 0-.773.125-1.022.375-.248.25-.403.597-.463 1.04h2.775c0-.208-.028-.398-.086-.571a1.274 1.274 0 0 0-.251-.448 1.127 1.127 0 0 0-.406-.293 1.368 1.368 0 0 0-.546-.103zm2.947 3.97a.64.64 0 0 1 .18-.449.616.616 0 0 1 .445-.186.646.646 0 0 1 .448.186.64.64 0 0 1 .181.448.635.635 0 0 1-.18.449.64.64 0 0 1-.448.181.64.64 0 0 1-.248-.048.585.585 0 0 1-.199-.133.64.64 0 0 1-.179-.449zm5.183 0a.64.64 0 0 1 .18-.449.616.616 0 0 1 .445-.186.646.646 0 0 1 .448.186.64.64 0 0 1 .181.448.635.635 0 0 1-.18.449.64.64 0 0 1-.448.181.64.64 0 0 1-.248-.048.585.585 0 0 1-.199-.133.64.64 0 0 1-.179-.449zm-2.594 0a.64.64 0 0 1 .18-.449.616.616 0 0 1 .445-.186.646.646 0 0 1 .448.186.64.64 0 0 1 .181.448.635.635 0 0 1-.18.449.64.64 0 0 1-.448.181.64.64 0 0 1-.248-.048.585.585 0 0 1-.199-.133.64.64 0 0 1-.179-.449z"/>
        </g>
    </g>
</svg>
