<svg xmlns="http://www.w3.org/2000/svg" width="25" height="23" viewBox="0 0 25 23">
    <path fill="#455D75" fill-rule="evenodd" d="M17.708 11.98a1.562 1.562 0 1 1 0-3.126 1.562 1.562 0 0 1 0 3.125m-5.208 0a1.562 1.562 0 1 1-.002-3.123 1.562 1.562 0 0 1 .002 3.123m-5.208 0a1.562 1.562 0 1 1-.002-3.123 1.562 1.562 0 0 1 .002 3.123M12.5 0C5.898 0 0 4.402 0 10.424c0 2.135.77 4.232 2.132 5.86.058 1.906-1.065 4.641-2.076 6.633 2.71-.49 6.564-1.571 8.31-2.642C17.988 22.615 25 16.728 25 10.424 25 4.37 19.061 0 12.5 0"/>
</svg>
