<svg xmlns="http://www.w3.org/2000/svg" width="106" height="110" viewBox="0 0 106 110">
    <g fill="none" fill-rule="evenodd">
        <path fill="#E4761B" d="M99.676 76.095l-6.317 21.358-12.401-3.391z"/>
        <path stroke="#E4761B" d="M99.676 76.095l-6.317 21.358-12.401-3.391z"/>
        <path fill="#E4761B" d="M80.958 94.062l11.96-16.388 6.757-1.58z"/>
        <path stroke="#E4761B" d="M80.958 94.062l11.96-16.388 6.757-1.58z"/>
        <path fill="#F6851B" d="M90.381 59.991l5.98-4.142 3.315 20.246L90.38 59.99zm0 0l9.295 16.104-6.758 1.579-2.537-17.683z"/>
        <path stroke="#F6851B" d="M90.381 59.991l5.98-4.142 3.315 20.246L90.38 59.99zm0 0l9.295 16.104-6.758 1.579-2.537-17.683z"/>
        <path fill="#763D16" d="M98.562 49.273l-15.792-1.45 16.336-3.184-.544 4.634zm-15.792-1.45l17.19-7.041-.854 3.857-16.336 3.185z"/>
        <path stroke="#763D16" d="M98.562 49.273l-15.792-1.45 16.336-3.184-.544 4.634zm-15.792-1.45l17.19-7.041-.854 3.857-16.336 3.185z"/>
        <path fill="#763D16" d="M98.562 49.273l.544-4.634 2.304 1.916-2.848 2.718zm3.444-6.86l-2.9 2.226.854-3.857 2.046 1.63zm-3.444 6.86l-2.2 6.576-13.592-8.025 15.792 1.45z"/>
        <path stroke="#763D16" d="M98.562 49.273l.544-4.634 2.304 1.916-2.848 2.718zm3.444-6.86l-2.9 2.226.854-3.857 2.046 1.63zm-3.444 6.86l-2.2 6.576-13.592-8.025 15.792 1.45z"/>
        <path fill="#E2761B" d="M67.625 88.858l4.297 1.372 9.036 3.832z"/>
        <path stroke="#E2761B" d="M67.625 88.858l4.297 1.372 9.036 3.832z"/>
        <path fill="#763D16" d="M96.362 55.85l-17.838-5.878 4.246-2.148 13.592 8.025zm0 0l2.2-6.577 1.89 1.45-4.09 5.126z"/>
        <path stroke="#763D16" d="M96.362 55.85l-17.838-5.878 4.246-2.148 13.592 8.025zm0 0l2.2-6.577 1.89 1.45-4.09 5.126z"/>
        <path fill="#763D16" d="M87.016 27.656L82.77 47.824l-4.246 2.148z"/>
        <path stroke="#763D16" d="M87.016 27.656L82.77 47.824l-4.246 2.148z"/>
        <path fill="#763D16" d="M99.96 40.782l-17.19 7.042 4.246-20.168z"/>
        <path stroke="#763D16" d="M99.96 40.782l-17.19 7.042 4.246-20.168z"/>
        <path fill="#763D16" d="M87.016 27.656L99.96 40.782l4.997-15.197z"/>
        <path stroke="#763D16" d="M87.016 27.656l17.94-2.071-4.996 15.197z"/>
        <path fill="#F6851B" d="M96.362 55.85l-5.98 4.141-11.858-10.019z"/>
        <path stroke="#F6851B" d="M96.362 55.85l-5.98 4.141-11.858-10.019z"/>
        <path fill="#763D16" d="M87.016 27.656l17.94-2.071-.776-14.524z"/>
        <path stroke="#763D16" d="M104.18 11.06l.777 14.525-17.941 2.07z"/>
        <path fill="#E2761B" d="M104.18 11.06L68.324 37.132l-.466-17.682z"/>
        <path stroke="#E2761B" d="M104.18 11.06L68.324 37.132l-.466-17.682z"/>
        <path fill="#F6851B" d="M41.192 17.326l26.666 2.123.466 17.682z"/>
        <path stroke="#F6851B" d="M41.192 17.326l26.666 2.123.466 17.682z"/>
        <path fill="#763D16" d="M78.524 49.972l-10.2-12.84 18.692-9.476z"/>
        <path stroke="#763D16" d="M78.524 49.972l-10.2-12.84 18.692-9.476z"/>
        <path fill="#E4761B" d="M78.524 49.972l11.857 10.02-16.646 1.838z"/>
        <path stroke="#E4761B" d="M78.524 49.972l11.857 10.02-16.646 1.838z"/>
        <path fill="#E4761B" d="M73.734 61.83l-5.41-24.699 10.2 12.841z"/>
        <path stroke="#E4761B" d="M73.734 61.83l-5.41-24.699 10.2 12.841z"/>
        <path fill="#763D16" d="M87.016 27.656L68.324 37.13l35.856-26.07z"/>
        <path stroke="#763D16" d="M87.016 27.656L68.324 37.13l35.856-26.07z"/>
        <path fill="#C0AD9E" d="M41.425 93.647l8.465 8.829L38.37 91.99z"/>
        <path stroke="#C0AD9E" d="M41.425 93.647l8.465 8.829L38.37 91.99z"/>
        <path fill="#CD6116" d="M80.958 94.062l4.012-15.25 7.948-1.138z"/>
        <path stroke="#CD6116" d="M80.958 94.062l4.012-15.25 7.948-1.138z"/>
        <path fill="#E2761B" d="M7.096 51.163L21.749 35.76 8.985 49.325z"/>
        <path stroke="#E2761B" d="M7.096 51.163L21.749 35.76 8.985 49.325z"/>
        <path fill="#F6851B" d="M68.324 37.131l-14.265-.466-12.867-19.339 27.132 19.805zm24.594 40.543l-7.948 1.139 5.411-18.822 2.537 17.683z"/>
        <path stroke="#F6851B" d="M68.324 37.131l-14.265-.466-12.867-19.339 27.132 19.805zm24.594 40.543l-7.948 1.139 5.411-18.822 2.537 17.683z"/>
        <path fill="#E4751F" d="M90.381 59.991l-5.41 18.822-.44-9.19z"/>
        <path stroke="#E4751F" d="M90.381 59.991l-5.41 18.822-.44-9.19z"/>
        <path fill="#CD6116" d="M73.734 61.83l16.647-1.839-5.85 9.631z"/>
        <path stroke="#CD6116" d="M73.734 61.83l16.647-1.839-5.85 9.631z"/>
        <path fill="#F6851B" d="M54.059 36.665l14.265.466 5.41 24.699z"/>
        <path stroke="#F6851B" d="M54.059 36.665l14.265.466 5.41 24.699z"/>
        <path fill="#E4761B" d="M54.059 36.665L41.192 17.326 15.562 1.042l38.497 35.623zm-46.342 72.75l33.449-10.357L1.037 83.913l6.68 25.501z"/>
        <path stroke="#E4761B" d="M41.166 99.058l-33.45 10.356-6.679-25.5 40.129 15.144zm12.893-62.393L15.56 1.042l25.63 16.284 12.868 19.34z"/>
        <path fill="#763D16" d="M12.066 57.532L24.7 47.616l10.589 2.46z"/>
        <path stroke="#763D16" d="M12.066 57.532L24.7 47.616l10.589 2.46z"/>
        <path fill="#763D16" d="M35.289 50.076L24.7 47.616l5.67-23.403z"/>
        <path stroke="#763D16" d="M35.289 50.076L24.7 47.616l5.67-23.403z"/>
        <path fill="#763D16" d="M8.985 49.325L24.7 47.616l-12.634 9.916z"/>
        <path stroke="#763D16" d="M8.985 49.325L24.7 47.616l-12.634 9.916z"/>
        <path fill="#CD6116" d="M84.53 69.622l-6.524-3.288-4.272-4.504z"/>
        <path stroke="#CD6116" d="M84.53 69.622l-6.524-3.288-4.272-4.504z"/>
        <path fill="#763D16" d="M8.985 49.325l-1.113-5.877L24.7 47.616z"/>
        <path stroke="#763D16" d="M8.985 49.325l-1.113-5.877L24.7 47.616z"/>
        <path fill="#233447" d="M76.66 73.739l1.346-7.405 6.524 3.288z"/>
        <path stroke="#233447" d="M76.66 73.739l1.346-7.405 6.524 3.288z"/>
        <path fill="#F6851B" d="M84.97 78.813l-8.31-5.074 7.87-4.117z"/>
        <path stroke="#F6851B" d="M84.97 78.813l-8.31-5.074 7.87-4.117z"/>
        <path fill="#763D16" d="M30.37 24.213l23.689 12.452-18.77 13.41-4.919-25.862zm0 0L24.7 47.616 6.5 38.503l23.87-14.29zM24.7 47.616L7.872 43.448 6.5 38.503l18.2 9.113z"/>
        <path stroke="#763D16" d="M30.37 24.213l23.689 12.452-18.77 13.41-4.919-25.862zm0 0L24.7 47.616 6.5 38.503l23.87-14.29zM24.7 47.616L7.872 43.448 6.5 38.503l18.2 9.113z"/>
        <path fill="#E4761B" d="M62.42 62.218l-25.94-.544-1.191-11.598 27.132 12.142zM35.29 50.076l18.77-13.41 8.362 25.552-27.132-12.142z"/>
        <path stroke="#E4761B" d="M62.42 62.218l-25.94-.544-1.191-11.598 27.132 12.142zM35.29 50.076l18.77-13.41 8.362 25.552-27.132-12.142z"/>
        <path fill="#F6851B" d="M73.734 61.83l-11.313.388-8.362-25.553L73.734 61.83zm-61.668-4.298l23.223-7.456 1.19 11.598-24.413-4.142z"/>
        <path stroke="#F6851B" d="M73.734 61.83l-11.313.388-8.362-25.553L73.734 61.83zm-61.668-4.298l23.223-7.456 1.19 11.598-24.413-4.142z"/>
        <path fill="#CD6116" d="M78.006 66.334L76.66 73.74l-2.926-11.91z"/>
        <path stroke="#CD6116" d="M78.006 66.334L76.66 73.74l-2.926-11.91z"/>
        <path fill="#763D16" d="M15.561 1.042L54.06 36.665 30.37 24.213z"/>
        <path stroke="#763D16" d="M15.561 1.042L54.06 36.665 30.37 24.213z"/>
        <path fill="#E4761B" d="M1.037 83.913l32.466-1.346 7.663 16.491z"/>
        <path stroke="#E4761B" d="M1.037 83.913l32.466-1.346 7.663 16.491z"/>
        <path fill="#CD6116" d="M41.166 99.058l-7.663-16.491 15.947-.777z"/>
        <path stroke="#CD6116" d="M41.166 99.058l-7.663-16.491 15.947-.777z"/>
        <path fill="#F6851B" d="M65.605 70.14l-3.184-7.922 11.313-.388-8.129 8.31zm8.13-8.31l2.122 7.715-10.252.595 8.13-8.31zM33.502 82.567L1.037 83.913 36.48 61.674l-2.977 20.893zm2.977-20.893L1.037 83.914l11.03-26.382 24.413 4.142zM76.66 73.74l8.31 5.074 4.583 10.796-12.893-15.87z"/>
        <path stroke="#F6851B" d="M65.605 70.14l-3.184-7.922 11.313-.388-8.129 8.31zm8.13-8.31l2.122 7.715-10.252.595 8.13-8.31zM33.502 82.567L1.037 83.913 36.48 61.674l-2.977 20.893zm2.977-20.893L1.037 83.914l11.03-26.382 24.413 4.142zM76.66 73.74l8.31 5.074 4.583 10.796-12.893-15.87z"/>
        <path fill="#C0AD9E" d="M49.89 102.476l-8.724-3.418 30.342 5.1z"/>
        <path stroke="#C0AD9E" d="M49.89 102.476l-8.724-3.418 30.342 5.1z"/>
        <path fill="#763D16" d="M12.066 57.532l-4.97-6.369 1.89-1.838z"/>
        <path stroke="#763D16" d="M12.066 57.532l-4.97-6.369 1.89-1.838z"/>
        <path fill="#D7C1B3" d="M74.951 100.379l-3.443 3.78-30.342-5.1z"/>
        <path stroke="#D7C1B3" d="M74.951 100.379l-3.443 3.78-30.342-5.1z"/>
        <path fill="#E4761B" d="M76.582 91.11l-35.416 7.948L49.45 81.79z"/>
        <path stroke="#E4761B" d="M76.582 91.11l-35.416 7.948L49.45 81.79z"/>
        <path fill="#D7C1B3" d="M41.166 99.058l35.416-7.948-1.63 9.269z"/>
        <path stroke="#D7C1B3" d="M41.166 99.058l35.416-7.948-1.63 9.269z"/>
        <path fill="#763D16" d="M8.985 49.325L5.542 45.83l2.33-2.382 1.113 5.877zM6.5 38.503L5.335 18.595l25.035 5.618L6.5 38.503z"/>
        <path stroke="#763D16" d="M8.985 49.325L5.542 45.83l2.33-2.382 1.113 5.877zM6.5 38.503L5.335 18.595l25.035 5.618L6.5 38.503z"/>
        <path fill="#CD6116" d="M56.622 67.344l5.799-5.126-.829 12.53z"/>
        <path stroke="#CD6116" d="M56.622 67.344l5.799-5.126-.829 12.53z"/>
        <path fill="#CD6116" d="M62.42 62.218l-5.798 5.126-8.44 4.375z"/>
        <path stroke="#CD6116" d="M62.42 62.218l-5.798 5.126-8.44 4.375z"/>
        <path fill="#F6851B" d="M89.553 89.609l-1.58-1.165L76.66 73.739z"/>
        <path stroke="#F6851B" d="M89.553 89.609l-1.58-1.165L76.66 73.739z"/>
        <path fill="#CD6116" d="M48.182 71.72L36.48 61.673l25.94.544z"/>
        <path stroke="#CD6116" d="M48.182 71.72L36.48 61.673l25.94.544z"/>
        <path fill="#E4751F" d="M61.592 74.748l.829-12.53 3.184 7.922z"/>
        <path stroke="#E4751F" d="M61.592 74.748l.829-12.53 3.184 7.922z"/>
        <path fill="#763D16" d="M4.403 40.471L6.5 38.503l1.372 4.945z"/>
        <path stroke="#763D16" d="M4.403 40.471L6.5 38.503l1.372 4.945z"/>
        <path fill="#233447" d="M61.592 74.748l-13.41-3.029 8.44-4.375z"/>
        <path stroke="#233447" d="M61.592 74.748l-13.41-3.029 8.44-4.375z"/>
        <path fill="#763D16" d="M30.37 24.213L5.335 18.595 15.561 1.042z"/>
        <path stroke="#763D16" d="M30.37 24.213L5.335 18.595 15.561 1.042z"/>
        <path fill="#C0AD9E" d="M71.508 104.159l1.424 3.883-23.042-5.566z"/>
        <path stroke="#C0AD9E" d="M71.508 104.159l1.424 3.883-23.042-5.566z"/>
        <path fill="#F6851B" d="M49.45 81.79l-1.268-10.07 13.41 3.028z"/>
        <path stroke="#F6851B" d="M49.45 81.79l-1.268-10.07 13.41 3.028z"/>
        <path fill="#E4751F" d="M36.48 61.674L48.182 71.72 49.45 81.79z"/>
        <path stroke="#E4751F" d="M36.48 61.674L48.182 71.72 49.45 81.79z"/>
        <path fill="#F6851B" d="M36.48 61.674L49.45 81.79l-15.947.777 2.977-20.893zm29.125 8.466l10.252-.595 12.117 18.899L65.605 70.14z"/>
        <path stroke="#F6851B" d="M36.48 61.674L49.45 81.79l-15.947.777 2.977-20.893zm29.125 8.466l10.252-.595 12.117 18.899L65.605 70.14z"/>
        <path fill="#E4751F" d="M65.605 70.14l12.738 19.391-16.75-14.783z"/>
        <path stroke="#E4751F" d="M65.605 70.14l12.738 19.391-16.75-14.783z"/>
        <path fill="#F6851B" d="M61.592 74.748l16.75 14.783-1.76 1.58z"/>
        <path stroke="#F6851B" d="M61.592 74.748l16.75 14.783-1.76 1.58z"/>
        <path fill="#F6851B" d="M87.974 88.444l-9.631 1.087L65.605 70.14l22.369 18.304zM76.582 91.11L49.45 81.79l12.142-7.042 14.99 16.362z"/>
        <path stroke="#F6851B" d="M87.974 88.444l-9.631 1.087L65.605 70.14l22.369 18.304zM76.582 91.11L49.45 81.79l12.142-7.042 14.99 16.362z"/>
        <path fill="#C0AD9E" d="M72.932 108.042l-1.424-3.883 3.443-3.78-2.02 7.663zM90.51 97.557l-4.143 8.31-13.436 2.175L90.51 97.557z"/>
        <path stroke="#C0AD9E" d="M72.932 108.042l-1.424-3.883 3.443-3.78-2.02 7.663zM90.51 97.557l-4.143 8.31-13.436 2.175L90.51 97.557z"/>
        <path fill="#C0AD9E" d="M72.932 108.042l4.556-8.673 13.023-1.812-17.58 10.485zm2.02-7.663l2.536-1.01-4.556 8.673 2.02-7.663z"/>
        <path stroke="#C0AD9E" d="M72.932 108.042l4.556-8.673 13.023-1.812-17.58 10.485zm2.02-7.663l2.536-1.01-4.556 8.673 2.02-7.663z"/>
        <path fill="#161616" d="M87.974 88.444l3.184 1.941-9.683 1.165z"/>
        <path stroke="#161616" d="M87.974 88.444l3.184 1.941-9.683 1.165z"/>
        <path fill="#161616" d="M80.362 93.078l11.78-1.424-1.631 5.903-10.149-4.48zm1.113-1.528l-3.132-2.019 9.63-1.087-6.498 3.106z"/>
        <path stroke="#161616" d="M80.362 93.078l11.78-1.424-1.631 5.903-10.149-4.48zm1.113-1.528l-3.132-2.019 9.63-1.087-6.498 3.106z"/>
        <path fill="#161616" d="M91.158 90.385l.984 1.269-11.78 1.424 10.796-2.693zm-14.576.725l1.76-1.579 3.133 2.02-4.893-.44zm.906 8.259l-2.537 1.01 1.631-9.269.906 8.259zm13.023-1.812l-13.023 1.812 2.874-6.291 10.149 4.479z"/>
        <path stroke="#161616" d="M91.158 90.385l.984 1.269-11.78 1.424 10.796-2.693zm-14.576.725l1.76-1.579 3.133 2.02-4.893-.44zm.906 8.259l-2.537 1.01 1.631-9.269.906 8.259zm13.023-1.812l-13.023 1.812 2.874-6.291 10.149 4.479z"/>
        <path fill="#161616" d="M76.582 91.11l3.78 1.968-2.874 6.291-.906-8.259zm3.78 1.968l1.113-1.528 9.683-1.165-10.796 2.693z"/>
        <path stroke="#161616" d="M76.582 91.11l3.78 1.968-2.874 6.291-.906-8.259zm3.78 1.968l1.113-1.528 9.683-1.165-10.796 2.693z"/>
        <path fill="#161616" d="M81.475 91.55l-1.113 1.528-3.78-1.968z"/>
        <path stroke="#161616" d="M81.475 91.55l-1.113 1.528-3.78-1.968z"/>
    </g>
</svg>
