<svg xmlns="http://www.w3.org/2000/svg" xmlns:xlink="http://www.w3.org/1999/xlink" width="139" height="155" viewBox="0 0 139 155">
    <defs>
        <path id="a" d="M0 .564H135.06V78.54H0z"/>
    </defs>
    <g fill="none" fill-rule="evenodd">
        <g transform="translate(0 75.97)">
            <mask id="b" fill="#fff">
                <use xlink:href="#a"/>
            </mask>
            <path fill="#000" fill-opacity=".1" d="M57.942.974l76.405 44.114c.47.27.707.625.711.98.005.358-.228.716-.7.988l-53.83 31.08c-.939.541-2.466.538-3.41-.007L.71 34.016c-.47-.272-.708-.628-.71-.984-.004-.357.23-.713.7-.985L54.531.969c.938-.543 2.466-.54 3.41.005" mask="url(#b)"/>
        </g>
        <path fill="#A5B3C4" d="M136.876 111.892l1.259-.728c.299-.18.483-.557.483-1.088V47.92c0-1.085-.766-2.405-1.71-2.95L60.502.855c-.47-.272-.896-.3-1.206-.126l-1.26.727 78.84 110.435z"/>
        <path fill="#0C2033" d="M57.532 64.715c0 1.085.766 2.406 1.71 2.951l76.406 44.112c.482.279.917.302 1.228.114.299-.181.482-.557.482-1.089V48.646c0-1.084-.765-2.406-1.71-2.95L59.243 1.582c-.471-.272-.897-.3-1.207-.126-.311.176-.504.557-.504 1.101v62.157z"/>
        <path fill="#1A82FF" d="M132.084 49.526L62.806 9.53v54.306l69.278 39.998z"/>
        <path fill="#6F8294" d="M0 95.835v3.292c.003.356.24.711.712.983l76.405 44.113c.945.545 2.472.548 3.411.006l53.83-31.079c.472-.272.705-.63.7-.988v-3.292L0 95.835z"/>
        <path fill="#C2CBD3" d="M57.942 63.777l9.313 5.377-1.633.942c-.68.392-.676 1.03.008 1.425l55.303 31.93c.684.395 1.789.396 2.469.004l1.632-.942 9.313 5.377c.47.271.707.626.711.98.005.358-.228.716-.7.989l-53.83 31.078c-.939.542-2.466.54-3.41-.006L.71 96.819c-.47-.273-.708-.629-.71-.985-.004-.356.23-.713.7-.985l53.83-31.079c.938-.541 2.466-.539 3.41.007"/>
        <path fill="#98A7B4" d="M26.818 107.49c-.33.192-.329.503.005.696l30.605 17.67c.334.193.873.194 1.204.002l16.177-9.34c.331-.19.33-.502-.004-.694L44.2 98.154c-.333-.193-.873-.195-1.204-.003l-16.177 9.34z"/>
        <path fill="#0C2033" d="M110.497 110.309c-.213.123-.212.325.002.449l2.926 1.688a.86.86 0 0 0 .777.002l2.907-1.678c.213-.123.212-.325-.003-.449l-2.925-1.69a.863.863 0 0 0-.777 0l-2.907 1.678zM105.622 107.494c-.213.123-.212.325.003.449l2.924 1.689a.862.862 0 0 0 .778.001l2.907-1.678c.214-.123.212-.325-.003-.449l-2.924-1.689a.863.863 0 0 0-.778-.001l-2.907 1.678zM100.747 104.68c-.213.123-.212.325.003.449l2.924 1.688a.863.863 0 0 0 .778.001l2.907-1.678c.214-.123.212-.325-.003-.449l-2.924-1.688a.863.863 0 0 0-.778-.001l-2.907 1.678zM95.872 101.865c-.213.123-.212.325.003.449l2.924 1.689a.862.862 0 0 0 .777 0l2.908-1.677c.213-.123.212-.326-.003-.449l-2.925-1.689a.862.862 0 0 0-.777-.001l-2.907 1.678zM90.997 99.05c-.213.123-.212.326.002.45l2.925 1.688a.862.862 0 0 0 .777.001l2.908-1.678c.213-.123.212-.325-.003-.448l-2.925-1.69a.862.862 0 0 0-.777 0l-2.907 1.677zM86.122 96.236c-.213.123-.212.325.002.449l2.925 1.688a.862.862 0 0 0 .778.002l2.906-1.678c.214-.123.213-.325-.002-.45l-2.925-1.688a.863.863 0 0 0-.778-.001l-2.906 1.678zM81.247 93.42c-.214.124-.212.326.002.45l2.925 1.688a.862.862 0 0 0 .778.002l2.906-1.678c.214-.123.213-.325-.002-.449l-2.925-1.689a.863.863 0 0 0-.778-.001l-2.906 1.678zM76.371 90.606c-.213.123-.211.326.003.45l2.925 1.688a.862.862 0 0 0 .778.002l2.906-1.678c.214-.124.213-.326-.002-.45l-2.925-1.689a.862.862 0 0 0-.778 0l-2.907 1.677zM71.496 87.792c-.213.123-.211.325.003.449l2.925 1.688a.862.862 0 0 0 .777.002l2.907-1.679c.214-.123.212-.325-.002-.448l-2.925-1.69a.862.862 0 0 0-.778 0l-2.907 1.678zM66.621 84.977c-.213.123-.211.325.003.45l2.925 1.688a.862.862 0 0 0 .777 0l2.907-1.677c.214-.123.212-.325-.003-.449L70.306 83.3a.863.863 0 0 0-.778 0l-2.907 1.677zM61.746 82.162c-.213.124-.212.326.003.45l2.924 1.688a.863.863 0 0 0 .778.001l2.907-1.678c.214-.123.212-.325-.003-.448l-2.924-1.69a.863.863 0 0 0-.778 0l-2.907 1.677zM56.871 79.348c-.213.123-.212.325.003.449l2.924 1.688a.863.863 0 0 0 .778.002l2.907-1.678c.214-.123.212-.325-.003-.449l-2.924-1.69a.863.863 0 0 0-.778 0l-2.907 1.678zM50.046 75.407c-.213.123-.212.326.003.45l4.874 2.814a.86.86 0 0 0 .777.002l2.908-1.679c.213-.123.212-.325-.002-.45L53.73 73.73a.862.862 0 0 0-.777 0l-2.907 1.677zM115.342 107.512c-.213.123-.212.325.002.449l2.925 1.688a.862.862 0 0 0 .778.002l.97-.56c.212-.123.21-.324-.003-.449l-2.926-1.688a.86.86 0 0 0-.777-.002l-.97.56zM110.312 104.608c-.213.123-.211.325.003.45l2.925 1.688a.862.862 0 0 0 .777 0l.97-.558c.212-.123.212-.326-.003-.45l-2.926-1.688a.86.86 0 0 0-.777-.002l-.969.56zM105.283 101.704c-.213.123-.212.325.002.45l2.925 1.688a.86.86 0 0 0 .778.001l.969-.56c.213-.122.212-.324-.002-.448l-2.926-1.689a.863.863 0 0 0-.777-.001l-.97.56zM100.253 98.8c-.213.124-.211.326.003.45l2.925 1.688a.862.862 0 0 0 .777.002l.97-.56c.213-.123.212-.325-.003-.449L102 98.242a.863.863 0 0 0-.778-.001l-.969.56zM95.224 95.897c-.213.123-.212.325.003.449l2.924 1.688a.862.862 0 0 0 .778.002l.969-.56c.213-.123.212-.324-.002-.449L96.97 95.34a.862.862 0 0 0-.777-.002l-.97.56zM90.194 92.993c-.213.123-.211.325.003.449l2.925 1.689a.863.863 0 0 0 .778 0l.968-.558c.214-.123.213-.326-.002-.45l-2.925-1.688a.862.862 0 0 0-.778-.002l-.969.56zM85.165 90.09c-.213.122-.212.324.003.448l2.924 1.689a.862.862 0 0 0 .778.001l.969-.56c.213-.122.212-.324-.002-.448L86.91 89.53a.863.863 0 0 0-.778-.001l-.968.56zM80.136 87.185c-.214.123-.212.326.002.45l2.925 1.688a.863.863 0 0 0 .778.001l.968-.559c.214-.123.213-.325-.002-.449l-2.925-1.689a.862.862 0 0 0-.778-.001l-.968.56zM75.106 84.282c-.213.123-.212.325.003.449l2.924 1.688a.863.863 0 0 0 .778.001l.97-.559c.212-.123.211-.324-.003-.449l-2.926-1.688a.862.862 0 0 0-.778-.002l-.968.56zM70.077 81.378c-.214.123-.212.325.002.449l2.925 1.688a.862.862 0 0 0 .778.002l.969-.56c.213-.123.212-.324-.003-.448l-2.925-1.69a.862.862 0 0 0-.777 0l-.97.559zM65.047 78.474c-.213.123-.212.325.003.449l2.924 1.689a.863.863 0 0 0 .778.001l.97-.56c.212-.122.211-.324-.003-.448l-2.926-1.689a.862.862 0 0 0-.777-.002l-.969.56zM60.018 75.57c-.214.123-.213.326.002.45l2.925 1.688a.863.863 0 0 0 .777.001l.97-.56c.213-.122.212-.324-.003-.448l-2.925-1.689a.86.86 0 0 0-.778-.001l-.968.56zM54.89 72.61c-.212.123-.211.326.003.45l3.12 1.8a.86.86 0 0 0 .777.002l.97-.56c.213-.123.212-.324-.003-.449l-3.12-1.8a.862.862 0 0 0-.778-.002l-.968.56zM103.702 111.98c-.212.123-.211.325.003.45l4.875 2.814a.862.862 0 0 0 .777 0l2.907-1.677c.214-.123.213-.326-.002-.45l-4.875-2.814a.863.863 0 0 0-.778-.001l-2.907 1.678zM98.827 109.165c-.213.123-.212.326.003.45l2.924 1.688a.862.862 0 0 0 .778.001l2.907-1.678c.214-.123.213-.325-.003-.448l-2.924-1.69a.863.863 0 0 0-.778 0l-2.907 1.677zM93.952 106.35c-.213.124-.212.326.003.45l2.925 1.688a.863.863 0 0 0 .777.002l2.907-1.678c.214-.123.213-.325-.003-.449l-2.924-1.69a.863.863 0 0 0-.778 0l-2.907 1.678zM89.077 103.536c-.213.123-.212.325.003.449l2.925 1.689a.86.86 0 0 0 .777.001l2.907-1.678c.213-.123.212-.325-.002-.449l-2.926-1.689a.862.862 0 0 0-.777-.001l-2.907 1.678zM84.202 100.721c-.213.123-.212.326.002.45l2.926 1.688a.86.86 0 0 0 .777.002l2.907-1.678c.213-.123.212-.326-.003-.45l-2.925-1.689a.862.862 0 0 0-.777 0l-2.907 1.677zM79.327 97.907c-.213.123-.212.325.002.449l2.926 1.688a.862.862 0 0 0 .777.002l2.907-1.678c.213-.123.212-.326-.003-.45l-2.925-1.688a.863.863 0 0 0-.777-.001l-2.907 1.678zM74.452 95.092c-.213.123-.212.326.002.45l2.925 1.688a.863.863 0 0 0 .778.001l2.906-1.678c.214-.123.213-.325-.002-.448l-2.925-1.69a.863.863 0 0 0-.777 0l-2.907 1.677zM69.577 92.278c-.213.123-.212.325.002.449l2.925 1.688a.862.862 0 0 0 .778.001l2.906-1.678c.214-.123.213-.325-.002-.448l-2.925-1.69a.862.862 0 0 0-.777 0l-2.907 1.678zM64.701 89.463c-.212.123-.211.325.003.449L67.63 91.6a.862.862 0 0 0 .777.002l2.907-1.678c.214-.123.213-.325-.002-.449l-2.925-1.689a.862.862 0 0 0-.777-.001L64.7 89.463zM59.827 86.648c-.213.123-.212.326.002.45l2.925 1.688a.86.86 0 0 0 .777.002l2.908-1.678c.213-.124.212-.326-.003-.45l-2.925-1.689a.862.862 0 0 0-.777 0l-2.907 1.677zM54.952 83.834c-.214.123-.213.325.002.448l2.925 1.69a.862.862 0 0 0 .777 0l2.907-1.677c.214-.123.213-.326-.002-.45l-2.925-1.688a.863.863 0 0 0-.778-.002l-2.906 1.679zM50.077 81.02c-.214.122-.213.324.002.448l2.925 1.689a.863.863 0 0 0 .777 0l2.907-1.677c.214-.123.213-.325-.002-.45l-2.925-1.688a.863.863 0 0 0-.778 0l-2.906 1.677zM45.201 78.204c-.213.124-.212.326.003.45l2.925 1.688a.863.863 0 0 0 .777.001l2.907-1.678c.213-.123.212-.325-.002-.448l-2.926-1.69a.862.862 0 0 0-.777 0l-2.907 1.677zM97.883 114.214c-.213.123-.212.325.002.449l5.85 3.378a.865.865 0 0 0 .778.001l2.907-1.678c.213-.123.212-.325-.003-.449l-5.85-3.378a.862.862 0 0 0-.777-.001l-2.907 1.678zM93.007 111.4c-.212.123-.211.325.003.448l2.925 1.689a.86.86 0 0 0 .777.002l2.907-1.678c.214-.123.213-.326-.002-.45l-2.925-1.688a.862.862 0 0 0-.777-.002l-2.908 1.678zM88.132 108.585c-.212.123-.211.325.003.449l2.925 1.689a.862.862 0 0 0 .777 0l2.907-1.677c.214-.123.213-.326-.002-.45l-2.925-1.688a.862.862 0 0 0-.777-.001l-2.908 1.678zM83.257 105.77c-.213.123-.212.326.003.45l2.925 1.688a.863.863 0 0 0 .777.001l2.907-1.678c.214-.123.213-.325-.002-.448l-2.925-1.69a.863.863 0 0 0-.778 0l-2.907 1.677zM78.383 102.956c-.214.123-.213.325.002.449l2.925 1.688a.863.863 0 0 0 .777.001l2.907-1.678c.214-.123.213-.325-.002-.448l-2.925-1.69a.863.863 0 0 0-.778 0l-2.906 1.678zM73.507 100.141c-.213.123-.212.325.003.449l2.925 1.689a.863.863 0 0 0 .777.001l2.907-1.678c.213-.123.213-.325-.002-.449l-2.926-1.689a.862.862 0 0 0-.777-.001l-2.907 1.678zM68.632 97.326c-.213.123-.212.326.003.45l2.925 1.688a.86.86 0 0 0 .777.002l2.907-1.678c.213-.124.212-.326-.002-.45l-2.926-1.689a.862.862 0 0 0-.777 0l-2.907 1.677zM63.757 94.512c-.213.123-.212.325.002.449l2.926 1.688a.86.86 0 0 0 .777.002l2.907-1.678c.213-.123.212-.325-.003-.45l-2.925-1.688a.863.863 0 0 0-.777-.001l-2.907 1.678zM58.882 91.697c-.213.123-.212.325.002.45l2.925 1.688a.863.863 0 0 0 .778 0l2.906-1.677c.214-.123.213-.325-.002-.45l-2.925-1.688a.863.863 0 0 0-.777 0l-2.907 1.677zM54.007 88.883c-.213.123-.212.325.002.448l2.925 1.69a.863.863 0 0 0 .778 0l2.907-1.678c.213-.123.212-.325-.003-.448l-2.925-1.69a.863.863 0 0 0-.777 0l-2.907 1.678zM49.132 86.068c-.213.123-.212.325.002.449l2.925 1.688a.862.862 0 0 0 .777.002l2.908-1.679c.213-.123.212-.325-.003-.448l-2.925-1.69a.862.862 0 0 0-.777 0l-2.907 1.678zM40.356 81.001c-.212.123-.211.326.003.45l6.825 3.94a.863.863 0 0 0 .778.002l2.907-1.68c.213-.122.212-.324-.003-.448l-6.825-3.94a.862.862 0 0 0-.777-.002l-2.908 1.678zM90.503 115.548c-.213.123-.212.325.003.449l8.385 4.84a.862.862 0 0 0 .777.002l2.907-1.678c.213-.123.212-.325-.002-.45l-8.386-4.84a.862.862 0 0 0-.777-.001l-2.907 1.678zM85.628 112.733c-.213.123-.212.325.003.449l2.924 1.689a.862.862 0 0 0 .778 0l2.907-1.677c.213-.123.212-.326-.003-.449l-2.925-1.689a.862.862 0 0 0-.777-.001l-2.907 1.678zM80.753 109.918c-.213.123-.212.326.002.45l2.925 1.688a.862.862 0 0 0 .778.001l2.907-1.678c.213-.123.212-.325-.003-.448l-2.925-1.69a.862.862 0 0 0-.777 0l-2.907 1.677zM75.878 107.104c-.214.123-.212.325.002.449l2.925 1.688a.863.863 0 0 0 .778.002l2.906-1.678c.214-.123.213-.325-.002-.449l-2.925-1.69a.863.863 0 0 0-.778 0l-2.906 1.678zM71.003 104.289c-.214.123-.212.325.002.449l2.925 1.689a.862.862 0 0 0 .778.001l2.906-1.678c.214-.123.213-.325-.002-.449l-2.925-1.689a.863.863 0 0 0-.778-.001l-2.906 1.678zM66.127 101.474c-.212.123-.211.326.003.45l2.925 1.688a.862.862 0 0 0 .778.002l2.906-1.678c.214-.123.213-.326-.002-.45l-2.925-1.689a.862.862 0 0 0-.778 0l-2.907 1.677zM61.252 98.66c-.212.123-.211.325.003.449l2.925 1.688a.862.862 0 0 0 .777.002l2.907-1.678c.214-.123.212-.326-.002-.45l-2.925-1.688a.862.862 0 0 0-.778-.001l-2.907 1.678zM56.377 95.845c-.212.123-.211.326.003.45l2.925 1.688a.862.862 0 0 0 .777.001l2.907-1.678c.214-.123.212-.325-.003-.448l-2.924-1.69a.863.863 0 0 0-.778 0l-2.907 1.677zM51.502 93.03c-.213.124-.212.326.003.45l2.924 1.688a.863.863 0 0 0 .778.001l2.907-1.678c.214-.123.213-.325-.003-.448l-2.924-1.69a.863.863 0 0 0-.778 0l-2.907 1.678zM46.627 90.216c-.213.123-.212.325.003.449l2.924 1.688a.863.863 0 0 0 .778.002l2.907-1.678c.214-.123.213-.325-.003-.449l-2.924-1.689a.863.863 0 0 0-.778-.001l-2.907 1.678zM35.512 83.799c-.213.123-.212.325.003.449l9.165 5.291a.862.862 0 0 0 .777.001l2.907-1.678c.213-.123.212-.325-.002-.449l-9.166-5.291a.862.862 0 0 0-.777-.001l-2.907 1.678zM91.119 121.497c-.214.123-.213.325.002.449l2.925 1.689a.863.863 0 0 0 .777.001l2.907-1.678c.214-.123.213-.325-.002-.449l-2.925-1.689a.863.863 0 0 0-.778-.001l-2.906 1.678zM81.368 115.868c-.213.123-.212.325.003.449l2.925 1.688a.86.86 0 0 0 .777.002l2.907-1.678c.213-.123.212-.325-.002-.449l-2.926-1.69a.862.862 0 0 0-.777 0l-2.907 1.678zM86.244 118.682c-.214.123-.213.326.002.45l2.925 1.688a.862.862 0 0 0 .777.002l2.907-1.678c.214-.123.213-.326-.002-.45l-2.925-1.689a.863.863 0 0 0-.778 0l-2.906 1.677zM75.908 112.715c-.213.123-.211.326.002.45l3.51 2.026a.862.862 0 0 0 .778.001l2.907-1.678c.213-.123.212-.325-.003-.449l-3.51-2.027a.862.862 0 0 0-.777 0l-2.907 1.677zM51.533 98.642c-.213.123-.212.325.002.45l22.426 12.946a.863.863 0 0 0 .777.002l2.907-1.678c.213-.124.212-.326-.002-.45L55.217 96.966a.863.863 0 0 0-.778 0l-2.906 1.677zM46.658 95.827c-.214.124-.212.326.002.45l2.925 1.688a.862.862 0 0 0 .778.002l2.906-1.678c.214-.123.213-.326-.002-.45l-2.925-1.688a.863.863 0 0 0-.778-.002l-2.906 1.678zM41.783 93.013c-.214.123-.212.325.002.449l2.925 1.689a.863.863 0 0 0 .778 0l2.906-1.677c.213-.123.213-.326-.002-.45l-2.926-1.688a.86.86 0 0 0-.777-.001l-2.906 1.678zM30.667 86.596c-.213.123-.211.325.003.449l1.755 1.013a.862.862 0 0 0 .777.001l.582-.336c.213-.123.212-.324-.003-.448l-1.755-1.014a.862.862 0 0 0-.777-.001l-.582.336zM34.177 88.622c-.213.123-.212.325.003.449l1.755 1.013a.863.863 0 0 0 .777.002l.581-.336c.214-.123.213-.325-.002-.449l-1.755-1.013a.863.863 0 0 0-.778-.002l-.58.336zM36.309 87.391c-.213.124-.212.326.002.45l1.755 1.013a.863.863 0 0 0 .778.001l.581-.336c.214-.123.213-.325-.003-.448l-1.754-1.014a.86.86 0 0 0-.778-.001l-.581.335zM37.687 90.649c-.212.123-.211.325.003.449l1.755 1.013a.862.862 0 0 0 .777.001l.582-.335c.213-.123.212-.325-.003-.45l-1.755-1.012a.86.86 0 0 0-.777-.002l-.582.336z"/>
        <path fill="#FFF" d="M123.683 96.734V55.415c0-2.06-1.456-4.572-3.252-5.61L73 22.422c-1.796-1.037-3.253-.207-3.253 1.854v41.319l53.935 31.14z"/>
        <path fill="#2E3F53" d="M98.332 71.78c0 1.711-1.3 2.462-2.772 1.61-1.473-.85-2.827-3.132-2.827-4.843l5.6 3.233zm-2.8-23.032c.516.296.934 1.02.934 1.609 0 .591-.418.83-.933.532-.515-.297-.933-1.018-.933-1.61 0-.59.418-.828.933-.531zm2.927 4.843c-.6-.747-.972-1.707-.97-2.51v-.002c0-1.256-.876-2.78-1.956-3.402-1.08-.624-1.957-.113-1.957 1.142v.003c0 .805-.37 1.335-.972 1.388-4.354.39-1.852 11.475-6.402 10.551v1.873l18.662 10.775v-1.873c-4.55-4.33-2.048-12.527-6.405-17.945z"/>
        <path fill="#A5B3C4" d="M123.683 59.147v-3.731c0-2.062-1.456-4.573-3.252-5.61L73 22.422c-1.796-1.037-3.253-.207-3.253 1.854v3.732l53.935 31.14z"/>
        <path fill="#FFF" d="M120.566 53.305c0-.945-.667-2.096-1.49-2.572-.824-.475-1.491-.094-1.491.85 0 .945.667 2.096 1.49 2.572.824.475 1.491.095 1.491-.85M115.823 50.566c0-.944-.667-2.096-1.49-2.57-.823-.476-1.49-.095-1.49.849 0 .945.667 2.096 1.49 2.571.823.476 1.49.095 1.49-.85M111.08 47.828c0-.944-.667-2.096-1.49-2.571-.824-.475-1.491-.095-1.491.85 0 .944.667 2.095 1.49 2.57.824.476 1.491.096 1.491-.85"/>
    </g>
</svg>
