<svg xmlns="http://www.w3.org/2000/svg" width="15" height="15" viewBox="0 0 15 15">
    <g fill="none" fill-rule="evenodd">
        <circle cx="7.5" cy="7.5" r="7.5" fill="#EBF0F3"/>
        <path fill="#455D75" d="M11.318 5.155L9.806 6.668c.06.3.091.628.091.984 0 1.913-.898 3.056-2.404 3.056-.628 0-1.157-.201-1.557-.584l5.24-5.24a4.135 4.135 0 0 0-.717-.947c-.01-.012-.021-.022-.032-.032-.024-.024-.047-.048-.072-.071l-.001.001c-.761-.71-1.74-1.084-2.86-1.084-1.296 0-2.402.498-3.197 1.44-.747.885-1.16 2.114-1.16 3.461 0 .895.183 1.737.525 2.462l1.52-1.52a5.218 5.218 0 0 1-.08-.942c0-.88.18-1.593.533-2.116.415-.615 1.058-.94 1.858-.94.624 0 1.143.197 1.537.563l-5.23 5.23c.144.26.31.503.497.725l.115.129h.001c.045.05.091.097.138.143l.017.018.044.044.002-.001c.761.724 1.747 1.106 2.88 1.106 1.296 0 2.403-.498 3.202-1.44.752-.886 1.166-2.115 1.166-3.46 0-.91-.19-1.765-.544-2.498"/>
    </g>
</svg>
