<svg xmlns="http://www.w3.org/2000/svg" width="30" height="30" viewBox="0 0 30 30">
    <g fill="none" fill-rule="evenodd">
        <circle cx="15" cy="15" r="15" fill="#007FFF"/>
        <path fill="#FFF" d="M14.09 15.893h1.826v-1.826H14.09v1.826zm-3.559 3.559c-1.838.241-3.347-.204-4.488-1.575-.603-.724-.977-1.56-1.033-2.52-.09-1.518.43-2.786 1.555-3.804 1.139-1.028 2.523-1.208 4.003-1.068-.278-1.454.058-2.722.916-3.82.656-.84 1.564-1.369 2.616-1.572 1.597-.309 3.011.157 4.14 1.284 1.135 1.133 1.502 2.563 1.179 4.157 2.63-.455 4.938 1.007 5.474 3.551.335 1.585-.128 2.961-1.245 4.11-1.12 1.153-2.539 1.453-4.162 1.272.23 1.839-.24 3.384-1.643 4.519-.934.755-2.048 1.089-3.267.986-1.356-.114-2.429-.783-3.243-1.82-.82-1.043-.976-2.298-.802-3.7z"/>
    </g>
</svg>
