<svg xmlns="http://www.w3.org/2000/svg" width="120" height="23" viewBox="0 0 120 23">
    <g fill="none" fill-rule="evenodd">
        <path fill="#2E3F53" d="M18.977 5.577l-3.509 3.509c.14.695.213 1.458.213 2.283 0 4.439-2.085 7.088-5.577 7.088-1.457 0-2.685-.466-3.612-1.353L18.648 4.948a10.327 10.327 0 0 0-1.115-1.61c-.175-.206-.36-.4-.548-.588-.024-.026-.05-.049-.075-.074-.057-.054-.11-.111-.168-.165l-.002.004C14.974.868 12.705 0 10.104 0 7.098 0 4.534 1.155 2.69 3.339.955 5.393 0 8.245 0 11.369c0 2.076.424 4.03 1.216 5.71l3.527-3.527a12.099 12.099 0 0 1-.185-2.183c0-2.042.416-3.694 1.236-4.91.962-1.425 2.452-2.178 4.31-2.178 1.446 0 2.65.456 3.565 1.304L1.538 17.717c.333.605.718 1.168 1.152 1.682.086.103.176.2.267.3h-.001a9.537 9.537 0 0 0 .321.333l.041.04c.035.034.067.07.102.103l.004-.004c1.766 1.68 4.053 2.567 6.68 2.567 3.008 0 5.577-1.155 7.43-3.339 1.744-2.057 2.705-4.909 2.705-8.03 0-2.108-.44-4.092-1.262-5.792zM98.46.547v21.667h-4.055l-6.16-8.357c-1.949-2.662-4.332-6.067-4.363-6.067h-.032c-.03 0 .032 3.126.032 7.429v6.995h-4.303V.548h4.055l6.284 8.45c1.485 1.95 4.209 5.818 4.24 5.818h.03c.032 0-.03-3.528-.03-7.18V.547h4.302zm-26.5 21.667h4.302V.548H71.96v21.666zm-6.74-2.26c-1.176 1.331-3.745 2.693-6.561 2.693-6.221 0-11.236-4.735-11.236-11.266S52.438.114 58.66.114c4.302.031 7.892 2.26 9.843 5.726l-4.396 1.146c-1.176-1.61-3.311-2.631-5.447-2.631-4.055 0-6.748 2.909-6.748 7.026 0 4.302 2.972 7.057 6.995 7.057 3.714 0 5.665-2.043 6.345-3.715v-.928h-6.004v-3.498h9.688v11.917H65.22c0-1.795.03-2.228.03-2.26h-.03zm-24.228 2.26h4.303V.548h-4.303v21.666zM26.362 10.98H30.2c2.384 0 3.498-1.548 3.498-3.189 0-1.702-1.145-3.219-3.498-3.219h-3.838v6.408zm7.831 11.235l-4.302-7.398H26.363v7.398H22.06V.548h7.583c5.324 0 8.512 2.878 8.512 7.242 0 2.972-1.455 5.138-4.085 6.222l4.952 8.202h-4.829z"/>
        <path fill="#98A7B4" fill-rule="nonzero" d="M101.111 6.222V.556h2.085c.391 0 .724.036.999.108.275.073.5.175.673.308.173.132.3.293.379.482.079.19.119.4.119.634 0 .127-.019.25-.055.367a1.082 1.082 0 0 1-.171.333 1.278 1.278 0 0 1-.3.282 1.93 1.93 0 0 1-.439.22c.373.09.65.237.828.44.18.204.269.466.269.784 0 .242-.047.466-.14.673a1.54 1.54 0 0 1-.41.543c-.18.154-.403.275-.667.361a2.9 2.9 0 0 1-.907.13h-2.263zm1.315-2.404V5.23h.925c.174 0 .316-.022.426-.066a.673.673 0 0 0 .259-.171.574.574 0 0 0 .128-.237 1.044 1.044 0 0 0-.006-.549.463.463 0 0 0-.14-.21.684.684 0 0 0-.262-.132 1.53 1.53 0 0 0-.413-.047h-.917zm0-.879h.684c.145 0 .276-.01.393-.03a.817.817 0 0 0 .297-.11.5.5 0 0 0 .187-.213.802.802 0 0 0 .064-.343.963.963 0 0 0-.05-.336.482.482 0 0 0-.156-.216.653.653 0 0 0-.266-.117 1.829 1.829 0 0 0-.383-.035h-.77v1.4zM109.86.556v1.01h-2.325V2.89h1.78v.972h-1.78v1.35h2.325v1.01h-3.648V.557h3.648zm4.861 0v1.042h-1.594v4.624h-1.315V1.598h-1.594V.556h4.503zm5.196 5.666h-1.02a.47.47 0 0 1-.281-.08.412.412 0 0 1-.154-.204l-.334-.988h-2.155l-.334.988a.438.438 0 0 1-.152.196.437.437 0 0 1-.276.088h-1.026l2.193-5.666h1.345l2.194 5.666zm-3.64-2.166h1.548l-.522-1.552-.118-.348a8.85 8.85 0 0 1-.134-.434 7.728 7.728 0 0 1-.253.79l-.521 1.544z"/>
    </g>
</svg>
