<svg xmlns="http://www.w3.org/2000/svg" width="59" height="11" viewBox="0 0 59 11">
    <path fill="#C2CBD3" fill-rule="evenodd" d="M55.607 5.039c.933 0 1.876-.465 1.876-1.677 0-1.203-.943-1.73-1.876-1.73H54.52v3.407h1.087zm.08-4.777C57.564.262 59 1.509 59 3.362c0 1.861-1.445 3.047-3.304 3.047h-2.684V.262h2.675zm-5.189 6.147h1.509V.262h-1.509v6.147zM9.386 2.699L7.65 4.394c.069.337.104.706.104 1.105 0 2.147-1.03 3.43-2.758 3.43-.72 0-1.328-.226-1.786-.656l6.012-5.88A4.686 4.686 0 0 0 8.4 1.33V1.33c-.011-.012-.024-.023-.037-.035l-.082-.08-.002.001C7.406.42 6.284 0 4.997 0 3.511 0 2.243.559 1.33 1.615.472 2.61 0 3.99 0 5.5c0 1.004.21 1.95.601 2.763l1.745-1.707A5.728 5.728 0 0 1 2.255 5.5c0-.988.205-1.787.61-2.375.476-.69 1.214-1.054 2.132-1.054.716 0 1.31.22 1.763.63l-6 5.87a5 5 0 0 0 .702.958l.002.002c.05.055.104.108.157.16l.02.02.05.05.003-.003C2.567 10.572 3.698 11 4.997 11c1.488 0 2.758-.559 3.675-1.615C9.535 8.39 10.01 7.01 10.01 5.5c0-1.02-.218-1.98-.624-2.802zM48.696.264v10.482h-2.005l-3.046-4.043c-.964-1.288-2.143-2.935-2.159-2.935h-.015c-.015 0 .015 1.512.015 3.594v3.384h-2.128V.265h2.006l3.108 4.088c.734.943 2.082 2.815 2.097 2.815h.015c.016 0-.015-1.707-.015-3.474V.264h2.128zM35.59 10.747h2.128V.265H35.59v10.482zm-3.333-1.093c-.582.644-1.852 1.302-3.245 1.302-3.077 0-5.557-2.29-5.557-5.45s2.48-5.45 5.557-5.45c2.127.014 3.903 1.092 4.868 2.77l-2.174.553c-.582-.778-1.638-1.272-2.694-1.272-2.006 0-3.338 1.407-3.338 3.399 0 2.081 1.47 3.414 3.46 3.414 1.837 0 2.802-.989 3.138-1.797v-.45h-2.97V4.983h4.792v5.765h-1.837c0-.869.015-1.078.015-1.093h-.015zm-11.983 1.093h2.128V.265h-2.128v10.482zM13.038 5.31h1.899c1.178 0 1.73-.749 1.73-1.542 0-.824-.567-1.558-1.73-1.558h-1.899v3.1zm3.873 5.436l-2.128-3.58h-1.745v3.58h-2.127V.265h3.75c2.633 0 4.21 1.393 4.21 3.504 0 1.437-.72 2.485-2.02 3.01l2.449 3.968H16.91z"/>
</svg>
