<svg xmlns="http://www.w3.org/2000/svg" width="108" height="21" viewBox="0 0 108 21">
    <g fill="none" fill-rule="evenodd">
        <path fill="#FFF" d="M17.05 5.01l-3.153 3.153c.126.625.191 1.31.191 2.052 0 3.987-1.873 6.368-5.01 6.368-1.309 0-2.413-.419-3.245-1.216L16.754 4.445A9.278 9.278 0 0 0 15.752 3a8.821 8.821 0 0 0-.492-.53c-.022-.023-.045-.043-.068-.065l-.15-.149-.003.003C13.453.78 11.414 0 9.078 0 6.377 0 4.074 1.037 2.416 3 .858 4.845 0 7.408 0 10.215c0 1.864.38 3.62 1.092 5.13l3.17-3.17a10.87 10.87 0 0 1-.167-1.96c0-1.836.374-3.32 1.11-4.412.865-1.28 2.204-1.957 3.873-1.957 1.3 0 2.38.41 3.203 1.172l-10.9 10.9c.3.543.646 1.05 1.035 1.51.078.093.159.181.24.27a8.569 8.569 0 0 0 .289.299l.036.036c.031.03.06.063.092.093l.003-.003c1.587 1.51 3.642 2.305 6.002 2.305 2.702 0 5.01-1.037 6.674-2.999 1.568-1.848 2.431-4.41 2.431-7.214 0-1.894-.395-3.677-1.133-5.204zM88.46.493v19.466h-3.643l-5.534-7.509C77.531 10.058 75.39 7 75.363 7h-.029c-.027 0 .028 2.809.028 6.674v6.285h-3.865V.492h3.643l5.645 7.592c1.335 1.751 3.782 5.228 3.81 5.228h.027c.029 0-.027-3.17-.027-6.452V.492h3.865zM64.652 19.958h3.865V.492h-3.865v19.466zm-6.055-2.03c-1.057 1.196-3.365 2.42-5.896 2.42-5.59 0-10.094-4.255-10.094-10.123C42.607 4.357 47.112.103 52.7.103c3.866.027 7.091 2.03 8.843 5.144l-3.949 1.03C56.54 4.83 54.62 3.911 52.701 3.911c-3.643 0-6.062 2.614-6.062 6.313 0 3.865 2.67 6.34 6.285 6.34 3.336 0 5.089-1.835 5.7-3.337v-.834H53.23V9.251h8.704v10.707h-3.336c0-1.613.027-2.002.027-2.03h-.027zm-21.768 2.03h3.865V.492H36.83v19.466zM23.685 9.864h3.448c2.141 0 3.143-1.391 3.143-2.865 0-1.53-1.03-2.892-3.143-2.892h-3.448v5.757zm7.036 10.094l-3.866-6.646h-3.17v6.646H19.82V.492h6.813c4.783 0 7.647 2.586 7.647 6.507 0 2.67-1.307 4.616-3.67 5.59l4.449 7.37H30.72z"/>
        <path fill="#C2CBD3" fill-rule="nonzero" d="M91 5.6V.5h1.876c.352 0 .652.033.9.098.247.065.449.157.605.277.156.119.27.263.341.433.071.17.107.361.107.571 0 .114-.016.225-.049.33a.974.974 0 0 1-.154.3 1.15 1.15 0 0 1-.27.254c-.11.076-.241.141-.395.198.336.081.584.214.746.397.16.183.241.418.241.705 0 .217-.042.419-.126.606-.084.186-.207.349-.37.488a1.75 1.75 0 0 1-.6.325 2.61 2.61 0 0 1-.815.117H91zm1.183-2.163v1.27h.833c.156 0 .284-.02.383-.06.1-.04.177-.09.233-.154a.517.517 0 0 0 .115-.213.94.94 0 0 0-.005-.494.417.417 0 0 0-.126-.188.616.616 0 0 0-.236-.12 1.377 1.377 0 0 0-.371-.042h-.826zm0-.791h.616c.13 0 .248-.01.353-.028a.735.735 0 0 0 .268-.099.45.45 0 0 0 .168-.192.722.722 0 0 0 .058-.308.866.866 0 0 0-.046-.303.434.434 0 0 0-.14-.194.588.588 0 0 0-.24-.105 1.646 1.646 0 0 0-.344-.032h-.693v1.26zM98.875.5v.91h-2.093V2.6h1.603v.875h-1.603v1.214h2.093v.91h-3.283V.5h3.283zm4.375 0v.938h-1.435V5.6h-1.183V1.438h-1.435V.5h4.053zm4.676 5.1h-.917a.424.424 0 0 1-.254-.072.37.37 0 0 1-.138-.184l-.301-.889h-1.939l-.301.889a.394.394 0 0 1-.136.177.393.393 0 0 1-.249.079h-.924l1.974-5.1h1.211l1.974 5.1zm-3.276-1.95h1.393l-.469-1.397-.107-.313c-.04-.12-.08-.25-.12-.39a6.956 6.956 0 0 1-.228.71l-.469 1.39z"/>
    </g>
</svg>
