<svg xmlns="http://www.w3.org/2000/svg" width="30" height="30" viewBox="0 0 30 30">
    <g fill="none" fill-rule="evenodd">
        <circle cx="15" cy="15" r="15" fill="#00D693"/>
        <path fill="#FFF" fill-rule="nonzero" d="M25 15.747c0-1.26-3.431-2.313-7.992-2.556v-2.01h5.694V7H7.132v4.182h5.694V13.2C8.349 13.461 5 14.501 5 15.747c0 1.246 3.349 2.287 7.826 2.546v7.216h4.182v-7.206c4.56-.242 7.992-1.295 7.992-2.556zM15 16.99c-4.895 0-8.863-.758-8.863-1.693 0-.792 2.846-1.456 6.689-1.641V16.085a40.224 40.224 0 0 0 4.182.01v-2.447c3.927.174 6.855.846 6.855 1.649 0 .935-3.968 1.693-8.863 1.693z"/>
    </g>
</svg>
