<svg xmlns="http://www.w3.org/2000/svg" width="20" height="20" viewBox="0 0 20 20">
    <path fill="#6F8294" fill-rule="evenodd" d="M12.54 16.074c.018 1.866-.734 3.099-1.4 3.823l-.039.036c4.379-.492 7.551-3.586 5.222-6.574-1.145 1.706-2.112 2.035-3.782 2.715m-8.36-7.11a1.667 1.667 0 1 1 .026 3.334 1.662 1.662 0 0 1-1.676-1.654c-.01-.921.733-1.67 1.65-1.68m1.67-4.998A1.66 1.66 0 0 1 7.528 5.62a1.665 1.665 0 1 1-3.33.023c-.008-.92.73-1.67 1.653-1.676M10.848 2.3a1.67 1.67 0 0 1 1.68 1.652 1.67 1.67 0 0 1-1.655 1.68 1.664 1.664 0 0 1-1.678-1.653 1.661 1.661 0 0 1 1.653-1.68M5.055 15.495c.555-.945 1.457-2.48 3.706-2.718.362-1.74.506-2.75 2.122-4.26 1.145-1.068 4.115-3.674 5.851-5.19C15.901 1.485 13.284-.028 9.92 0 4.4.046-.044 4.554 0 10.077c.02 2.426.901 4.642 2.35 6.361 1.349.359 1.98.291 2.705-.944m10-3.23c1.188-1.865 4.872-8.124 4.872-8.124.293-.519-.358-1.06-.814-.677 0 0-5.476 4.761-7.092 6.27-1.277 1.194-1.283 1.739-1.696 3.706l1.4 1.167c1.856-.763 2.39-.866 3.33-2.342m-11.721 5.93c3.822.316 2.453-3.745 5.99-3.782l1.532 1.278c.382 4.615-5.263 5.644-7.522 2.503"/>
</svg>
