<svg xmlns="http://www.w3.org/2000/svg" xmlns:xlink="http://www.w3.org/1999/xlink" width="296" height="277" viewBox="0 0 296 277">
    <defs>
        <path id="a" d="M157.783 101.26L.158 160.278 53.665.136z"/>
    </defs>
    <g fill="none" fill-rule="evenodd">
        <g transform="translate(18 92)">
            <mask id="b" fill="#fff">
                <use xlink:href="#a"/>
            </mask>
            <path fill="#C2CBD3" d="M157.783 101.26L.158 160.278 53.665.136z" mask="url(#b)"/>
        </g>
        <path fill="#F1F6F9" d="M115 134.004L18 252l76.323-138z"/>
        <path fill="#111D28" d="M188.753 149.519c9.513 31.776-9.122 51.29-41.62 43.585-32.499-7.705-66.555-39.71-76.067-71.487-9.512-31.777 9.122-51.29 41.62-43.586 32.5 7.705 66.556 39.711 76.067 71.488"/>
        <path fill="#1A82FF" d="M278.23 181.768c-5.176-16.925-16.269-30.112-29.674-35.276-4.637-1.787-9.978-2.86-16.806-3.379a109.097 109.097 0 0 0-29.428 1.787 109.092 109.092 0 0 0-27.89 9.553l-5.16-10.233a120.56 120.56 0 0 1 30.823-10.56 120.577 120.577 0 0 1 32.523-1.972c7.977.606 14.352 1.912 20.063 4.112 8.809 3.394 16.605 9.2 23.17 17.258 5.853 7.18 10.467 15.951 13.344 25.362l-10.966 3.348z"/>
        <path fill="#6E3BEA" d="M143.902 129.349l-6.135-9.68c15.682-9.924 33.66-16.718 51.989-19.646l1.011-.159c2.892-.452 5.623-.878 7.659-1.98 4.182-2.262 6.123-8.675 4.153-13.723-.903-2.317-2.515-4.667-4.222-7.154-3.344-4.876-7.135-10.401-6.663-17.56.326-4.942 2.966-9.176 6.89-11.051 1.594-.762 3.163-1.036 4.352-1.19 5.757-.742 11.165.233 16.395 1.176.62.112 1.24.224 1.86.333 5.494.962 9.929 1.348 13.71.106 2.929-.963 5.906-3.643 5.818-6.463-.056-1.795-1.238-4.028-2.49-6.392-2.081-3.93-4.671-8.82-3.336-14.613.827-3.585 3.05-6.709 6.427-9.034 3.194-2.199 6.675-3.195 9.033-3.645 7.632-1.454 15.662-.535 24.549 2.807 7.52 2.828 14.779 7.093 20.992 10.868l-5.959 9.79c-12.77-7.76-25.24-14.532-37.436-12.21-3.394.647-6.038 2.29-6.432 3.996-.376 1.634.863 3.973 2.297 6.682 1.724 3.255 3.678 6.944 3.817 11.395.124 4.01-1.369 8.046-4.204 11.368-2.46 2.882-5.832 5.132-9.494 6.335-6.404 2.104-13.047 1.386-19.272.296a384.49 384.49 0 0 1-1.917-.343c-4.573-.825-8.893-1.604-12.89-1.088a5.983 5.983 0 0 0-.815.145c-.154.193-.404.748-.453 1.485-.21 3.2 2.055 6.503 4.68 10.328 1.997 2.913 4.064 5.925 5.447 9.47 1.901 4.874 2.07 10.399.476 15.558-1.693 5.478-5.193 9.884-9.855 12.406-3.772 2.04-7.795 2.668-11.345 3.223-.325.05-.65.101-.973.153-16.805 2.684-33.287 8.912-47.664 18.011"/>
        <path fill="#FF1A1A" d="M113.472 110.87l-8.95-7.162c7.085-8.841 11.523-18.764 12.833-28.698 1.4-10.614-.953-21.324-6.456-29.382-5.768-8.446-15.239-14.025-24.717-14.559l.645-11.44c6.545.37 13.14 2.43 19.076 5.96a46.282 46.282 0 0 1 14.467 13.58c7.073 10.357 10.118 23.966 8.353 37.339-1.583 12.007-6.857 23.889-15.251 34.362"/>
        <path fill="#1A82FF" d="M18.591 126.78200000000001l-2.944-11.074a46.585 46.585 0 0 0 18.815-10.079c6.797-6.01 7.857-11.804 6.7-14.939-1.223-3.31-5.359-6.038-11.064-7.296-2.273-.502-4.645-.812-7.156-1.14-4.13-.541-8.402-1.1-12.673-2.582-1.302-.452-5.264-1.826-7.122-5.687-1.806-3.751-.94-8.272 2.315-12.094 4.546-5.337 10.95-7.493 16.602-9.395 4.544-1.53 8.837-2.974 11.39-5.756a4.74 4.74 0 0 0 .545-.703c-.104-.149-.26-.355-.492-.637a27.916 27.916 0 0 0-15.364-9.43 63.44 63.44 0 0 0-2.215-.438c-2.197-.408-4.686-.872-7.165-1.955C3.766 31.393.46 27.117.135 22.42c-.358-5.185 2.843-9.267 5.591-11.778a33.535 33.535 0 0 1 20.691-8.703l.642 11.44c-4.968.279-9.923 2.363-13.594 5.718-1.583 1.446-1.894 2.367-1.89 2.534.052.206.643.95 1.784 1.448 1.273.557 2.922.864 4.668 1.188.846.158 1.72.32 2.622.522a39.44 39.44 0 0 1 21.705 13.323c1.24 1.502 2.716 3.578 3.132 6.32.516 3.406-.757 6.976-3.582 10.054-4.548 4.954-10.728 7.034-16.18 8.869-4.478 1.507-8.717 2.934-11.245 5.644 3.045.989 6.405 1.429 9.952 1.893 2.644.346 5.378.704 8.14 1.313 9.677 2.135 16.729 7.426 19.348 14.518 3.852 10.432-2.566 21.038-9.857 27.487a58.112 58.112 0 0 1-23.471 12.572"/>
        <path fill="#26D198" d="M241.48 276.468c-.386 0-.749-.022-1.086-.06-3.237-.365-6.089-2.28-8.475-5.691-4.448-6.357-5.873-13.589-7.251-20.582-1.152-5.84-2.239-11.358-5.009-15.693-.346-.542-.61-.86-.782-1.04-.398.11-.963.32-1.277.436-.838.31-2.24.83-2.604 1.22-.669.715-.453 3.785-.323 5.62l.02.294a77.25 77.25 0 0 1-1.255 20.232c-.687 3.509-1.813 7.507-4.946 10.564-2.538 2.476-6.032 3.962-10.385 4.415-6.377.665-12.983-1.08-18.596-4.916-5.614-3.835-9.639-9.35-11.334-15.531l11.06-3.029c2.011 7.337 10.107 12.87 17.68 12.08 1.673-.174 2.939-.607 3.564-1.217.887-.865 1.376-2.896 1.704-4.569a65.796 65.796 0 0 0 1.07-17.232l-.02-.288c-.294-4.171-.696-9.884 3.383-14.246 2.214-2.368 4.976-3.392 6.993-4.14 1.734-.642 4.355-1.614 7.43-1.056 3.225.584 6.012 2.683 8.283 6.237 3.937 6.161 5.288 13.016 6.594 19.645 1.202 6.096 2.337 11.854 5.399 16.23.14.202.265.366.374.499.123-.105.265-.234.424-.394 4.156-4.149 5.668-10.597 7.268-17.424 1.032-4.405 2.1-8.96 3.946-13.323 2.432-5.748 6.56-8.963 11.34-8.824 4.56.134 8.204 3.131 10.829 8.91 5.828 12.83 9.606 26.4 13.26 39.522l-11.047 3.071c-3.537-12.701-7.193-25.836-12.654-37.857a14.836 14.836 0 0 0-.686-1.343c-.153.27-.317.596-.48.983-1.466 3.464-2.378 7.355-3.344 11.474-1.896 8.091-3.857 16.458-10.328 22.917-3.287 3.282-6.421 4.106-8.74 4.106M271.469 84.716l11.043 11.035-11.043 11.036-11.044-11.036zM164.506 47.356l11.043 11.035-11.043 11.035-11.044-11.035z"/>
        <path fill="#6E3BEA" d="M148.188.547l11.044 11.035-11.044 11.036-11.043-11.036z"/>
        <path fill="#26D198" d="M65.167.072L76.21 11.107 65.167 22.142 54.124 11.107z"/>
        <path fill="#1A82FF" d="M19.142 138.292l11.043 11.035-11.043 11.036-11.044-11.036z"/>
        <path fill="#6E3BEA" d="M232.433 169.653l11.044 11.035-11.044 11.036-11.043-11.036z"/>
        <path fill="#FF1A1A" d="M87.29 252.98l11.043 11.036L87.29 275.05l-11.044-11.035z"/>
        <path fill="#6E3BEA" d="M145.106 220.846l16.003 15.99-16.003 15.992-16.003-15.991zM266.708 190.156l16.003 15.991-16.003 15.991-16.002-15.99z"/>
    </g>
</svg>
