<svg xmlns="http://www.w3.org/2000/svg" width="58" height="57" viewBox="0 0 58 57">
    <path fill="#2E3F53" fill-rule="evenodd" d="M29 0C12.987 0 0 12.985 0 29c0 12.813 8.309 23.683 19.834 27.519 1.447.268 1.916-.631 1.916-1.395v-5.399c-8.067 1.755-9.746-3.422-9.746-3.422-1.32-3.352-3.222-4.243-3.222-4.243-2.632-1.8.2-1.762.2-1.762 2.913.203 4.445 2.99 4.445 2.99 2.586 4.431 6.784 3.15 8.439 2.409.259-1.873 1.01-3.154 1.842-3.877-6.44-.737-13.212-3.223-13.212-14.333 0-3.168 1.133-5.754 2.987-7.784-.3-.732-1.293-3.683.282-7.675 0 0 2.436-.778 7.978 2.972 2.313-.643 4.792-.964 7.257-.976 2.465.012 4.947.333 7.264.976 5.537-3.75 7.968-2.972 7.968-2.972 1.578 3.995.585 6.945.285 7.675 1.861 2.03 2.985 4.618 2.985 7.784 0 11.139-6.784 13.592-13.24 14.31 1.038.898 1.988 2.662 1.988 5.37v7.957c0 .771.464 1.677 1.936 1.392C49.7 52.676 58 41.808 58 29 58 12.985 45.015 0 29 0"/>
</svg>
