<svg xmlns="http://www.w3.org/2000/svg" xmlns:xlink="http://www.w3.org/1999/xlink" width="60" height="60" viewBox="0 0 60 60">
    <defs>
        <circle id="a" cx="30" cy="30" r="30"/>
    </defs>
    <g fill="none" fill-rule="evenodd">
        <mask id="b" fill="#fff">
            <use xlink:href="#a"/>
        </mask>
        <use fill="#26D198" xlink:href="#a"/>
        <path fill="#111D28" d="M52.124 104.014v-41.75l-.267-.012c.807-.464 1.304-1.064 1.304-1.8C55.272 40.814 40.938 42.59 40.938 42.59l-6.148 1.484v-1.122c4.854-.156 8.74-4.131 8.74-9.016V21.955c0-7.398-6.006-13.395-13.415-13.395-7.41 0-13.417 5.997-13.417 13.395l.017.555c0 4.565 1.264 8.836 3.46 12.481.197.244.43.454.688.631V45.327c0 .347.07.994.069.98l-.55.055S5.27 51.132 3.268 61.56c-2 10.428-1.11 23.297-1.11 23.297 0 .995.904 1.74 2.258 2.237v20.484l47.707-3.565z" mask="url(#b)"/>
        <path fill="#FFF" d="M31.146 18.528c1.685 0 3.03.422 4.032 1.266 1.002.843 1.503 2.093 1.503 3.748 0 .913-.205 1.714-.615 2.403a4.324 4.324 0 0 1-1.731 1.625c-.744.394-1.595.6-2.551.615v1.648h-4.738v-4.921h1.913c.911 0 1.602-.105 2.073-.314.47-.208.706-.553.706-1.032 0-.264-.072-.472-.216-.627a.729.729 0 0 0-.558-.232c-.289 0-.505.096-.65.29-.144.193-.216.445-.216.754h-4.76a5.004 5.004 0 0 1 .557-2.611c.418-.797 1.07-1.432 1.96-1.904.888-.472 1.985-.708 3.29-.708zm.797 13.023v4.92h-5.011v-4.92h5.011z" mask="url(#b)"/>
    </g>
</svg>
