<svg xmlns="http://www.w3.org/2000/svg" width="16" height="15" viewBox="0 0 16 15">
    <path fill="#F7F8F9" fill-rule="evenodd" d="M6.294 5.602c-.147.424-.299.843-.446 1.274h.914l-.45-1.278-.018.004zm2.971 1.992v-.108-1.968c0-.214.003-.427 0-.64a.463.463 0 0 0-.474-.455.469.469 0 0 0-.467.462c.003 1.041.003 2.083 0 3.125 0 .17.113.36.322.413.057.014.119.016.178.016.454.002.908.001 1.362 0a1.3 1.3 0 0 0 .115-.004.43.43 0 0 0 .38-.351.416.416 0 0 0-.222-.437.51.51 0 0 0-.246-.053h-.948zM4.034 5.33H4.7a.894.894 0 0 0 .13-.011.45.45 0 0 0 .024-.884.933.933 0 0 0-.18-.012H2.478c-.043 0-.087 0-.13.005a.426.426 0 0 0-.376.287.43.43 0 0 0 .084.46.47.47 0 0 0 .374.155H3.112v2.724c0 .199.097.34.278.416a.453.453 0 0 0 .504-.086.432.432 0 0 0 .14-.344v-2.71zm2.971 2.373l.032.076c.063.164.128.326.187.49a.32.32 0 0 0 .24.214c.156.04.308.02.455-.047a.251.251 0 0 0 .144-.17.684.684 0 0 0 .02-.177 1.036 1.036 0 0 0-.077-.35L7.369 6.06 6.92 4.88a.703.703 0 0 0-.354-.392.556.556 0 0 0-.49-.015.7.7 0 0 0-.386.404c-.082.21-.162.423-.242.635l-.839 2.206a1.062 1.062 0 0 0-.084.44c.008.147.076.252.221.302a.708.708 0 0 0 .331.036c.152-.022.264-.09.316-.247.053-.16.12-.317.18-.475l.03-.072h1.402zm4.939-.834l.062.08L13 8.263c.02.027.039.053.06.077a.443.443 0 0 0 .449.137.434.434 0 0 0 .331-.31.465.465 0 0 0-.087-.44c-.354-.465-.706-.933-1.058-1.4-.02-.025-.038-.052-.068-.094.027-.02.055-.034.076-.055.32-.319.637-.638.957-.956a.38.38 0 0 0 .114-.388c-.066-.25-.32-.385-.518-.34a.406.406 0 0 0-.202.117c-.395.397-.792.793-1.188 1.189-.02.02-.041.038-.075.069v-.101-.829c0-.027 0-.054-.002-.082a.463.463 0 0 0-.612-.41.459.459 0 0 0-.308.449v3.157a.46.46 0 1 0 .92-.052c.003-.3.002-.601.002-.902 0-.032-.004-.064.024-.091.043-.042.082-.088.129-.14zm-8.2 4.782c-.027-.015-.05-.028-.075-.04a7.58 7.58 0 0 1-2.06-1.51C.924 9.384.424 8.562.167 7.6a4.955 4.955 0 0 1-.16-1.034c-.06-1.216.293-2.308.982-3.3.521-.748 1.184-1.35 1.948-1.842A8.84 8.84 0 0 1 5.929.214c.439-.093.882-.153 1.33-.186A9.994 9.994 0 0 1 8.65.021a9.57 9.57 0 0 1 2.993.672 7.97 7.97 0 0 1 2.392 1.48c.688.625 1.23 1.354 1.582 2.218a5.109 5.109 0 0 1 .367 2.222 5.125 5.125 0 0 1-.45 1.802 6.045 6.045 0 0 1-1.283 1.819c-.746.736-1.617 1.279-2.584 1.675a9.246 9.246 0 0 1-1.99.563c-.332.055-.665.093-1 .116-.424.03-.847.034-1.27.007-.25-.015-.5-.046-.75-.074a.208.208 0 0 0-.152.04c-.82.563-1.64 1.127-2.463 1.686-.221.15-.452.286-.682.423a.78.78 0 0 1-.211.085c-.126.031-.217-.046-.216-.175 0-.043.01-.087.022-.129.168-.605.337-1.21.507-1.814.087-.308.177-.615.266-.922l.016-.065z"/>
</svg>
