<svg xmlns="http://www.w3.org/2000/svg" width="54" height="50" viewBox="0 0 54 50">
    <path fill="#F7F8F9" fill-rule="evenodd" d="M21.249 18.91c-.5 1.434-1.01 2.846-1.508 4.302h3.086l-1.517-4.313-.061.01zm10.029 6.726v-.364-6.646c0-.72.01-1.44-.004-2.16-.015-.872-.721-1.538-1.599-1.534-.972.005-1.578.825-1.576 1.558.012 3.516.01 7.033 0 10.55a1.449 1.449 0 0 0 1.087 1.394c.194.05.402.055.603.055 1.532.005 3.065.003 4.597.002.129 0 .258-.003.387-.015a1.45 1.45 0 0 0 1.286-1.188c.111-.572-.2-1.182-.753-1.473-.26-.138-.538-.181-.829-.18-.95.003-1.9.001-2.852.001h-.347zm-17.661-7.647h.338c.637 0 1.274.002 1.91-.002.147 0 .295-.013.44-.035a1.518 1.518 0 0 0 1.278-1.457c.016-.729-.492-1.388-1.196-1.527a3.15 3.15 0 0 0-.606-.04c-2.473-.003-4.945-.003-7.418-.002-.147 0-.296.002-.442.018-.616.069-1.053.397-1.268.97-.21.56-.118 1.092.284 1.55.333.38.769.524 1.261.525H10.506v.367c0 2.944-.002 5.887.002 8.83 0 .67.325 1.15.937 1.404.615.255 1.196.155 1.7-.29.344-.306.476-.702.475-1.163-.007-2.925-.003-5.85-.003-8.775v-.373zm10.032 8.01c.037.09.073.174.106.26.212.55.434 1.097.63 1.653.142.397.42.62.81.72.53.137 1.043.071 1.537-.157a.848.848 0 0 0 .485-.572c.05-.194.072-.4.07-.6-.008-.41-.117-.802-.262-1.183l-2.15-5.664-1.514-3.982a2.373 2.373 0 0 0-1.195-1.323c-.542-.272-1.098-.295-1.657-.051a2.362 2.362 0 0 0-1.302 1.362c-.276.714-.545 1.43-.817 2.146l-2.83 7.447c-.18.478-.315.966-.286 1.483.029.5.258.854.748 1.02.365.125.737.176 1.118.122.51-.072.89-.306 1.065-.832.181-.542.403-1.07.607-1.604.033-.084.07-.167.104-.245h4.733zm16.67-2.813c.1.126.157.197.212.27l3.353 4.44c.067.088.132.178.207.26.414.444.932.594 1.512.46.562-.13.946-.492 1.118-1.047.168-.541.047-1.032-.295-1.483-1.194-1.573-2.381-3.15-3.57-4.726-.066-.087-.128-.176-.231-.318.093-.067.185-.116.257-.187 1.078-1.075 2.152-2.155 3.233-3.228.372-.37.516-.8.382-1.31-.221-.845-1.081-1.298-1.746-1.15a1.37 1.37 0 0 0-.682.398c-1.336 1.34-2.674 2.677-4.012 4.014-.067.067-.14.128-.254.232v-.34-2.797c0-.092 0-.185-.005-.277a1.562 1.562 0 0 0-2.067-1.382c-.64.223-1.04.8-1.04 1.511-.002 3.35 0 6.7 0 10.05 0 .203-.004.406 0 .61a1.555 1.555 0 0 0 1.364 1.502c.77.089 1.49-.388 1.685-1.13a2.22 2.22 0 0 0 .06-.548c.006-1.015.003-2.03.003-3.045 0-.11-.011-.216.082-.308.145-.142.276-.297.435-.47zM12.642 39.328l-.254-.135c-2.593-1.324-4.94-2.986-6.957-5.096-2.31-2.417-4-5.195-4.866-8.445a16.729 16.729 0 0 1-.542-3.491c-.203-4.103.991-7.79 3.317-11.136 1.758-2.528 3.996-4.558 6.575-6.22 3.107-2.002 6.492-3.32 10.1-4.082a33.78 33.78 0 0 1 4.488-.628A33.736 33.736 0 0 1 29.204.07c3.485.227 6.861.955 10.102 2.269 2.976 1.207 5.695 2.835 8.078 5 2.32 2.107 4.153 4.567 5.338 7.486a17.246 17.246 0 0 1 1.241 7.498 17.303 17.303 0 0 1-1.52 6.084c-1.05 2.324-2.52 4.352-4.33 6.14-2.518 2.486-5.461 4.319-8.723 5.656a31.211 31.211 0 0 1-6.72 1.899c-1.119.187-2.244.314-3.376.394-1.43.101-2.859.113-4.287.024-.846-.053-1.689-.159-2.532-.252a.7.7 0 0 0-.512.133c-2.767 1.903-5.535 3.806-8.314 5.693-.747.507-1.528.966-2.304 1.429-.218.13-.466.227-.713.287-.423.105-.732-.157-.727-.592.002-.145.035-.293.074-.434a1952.23 1952.23 0 0 1 1.712-6.126c.292-1.038.597-2.073.896-3.109.018-.062.03-.125.054-.221z"/>
</svg>
