<svg xmlns="http://www.w3.org/2000/svg" width="189" height="186" viewBox="0 0 189 186">
    <g fill="none" fill-rule="evenodd">
        <path fill="#F1BF19" d="M79.55 149.667c-1.937-.481-3.553-.32-4.715.348-12.09 6.738-9.539 19.394-18.85 35.264 15.6-9.832 28.398-7.748 34.728-20.017.629-1.18.733-2.793.18-4.702L79.55 149.667z"/>
        <path fill="#FEFEFE" d="M67.968 172.37c1.024-.369 2.011-.714 2.956-1.044 7.548-2.637 11.484-4.179 14.114-8.66l-7.882-7.524c-4.43 2.761-5.846 6.709-8.239 14.268-.3.946-.613 1.935-.949 2.96"/>
        <path fill="#F1BF19" d="M41.737 100.854c-1.936-.48-3.553-.32-4.715.348-12.09 6.738-9.538 19.394-18.85 35.264 15.6-9.831 28.398-7.748 34.729-20.016.628-1.18.732-2.794.18-4.703l-11.344-10.893z"/>
        <path fill="#FEFEFE" d="M30.156 124.246c1.024-.37 2.01-.714 2.956-1.044 7.548-2.638 11.484-4.18 14.113-8.66l-7.881-7.525c-4.431 2.762-5.847 6.709-8.24 14.268-.299.946-.612 1.935-.948 2.96"/>
        <path fill="#F1BF19" d="M23.862 145.542c-1.936-.481-3.553-.32-4.715.348-12.09 6.738-9.538 19.394-18.85 35.264 15.6-9.832 28.398-7.748 34.729-20.017.628-1.18.733-2.793.18-4.702l-11.344-10.893z"/>
        <path fill="#FEFEFE" d="M12.28 168.246a305.02 305.02 0 0 1 2.957-1.045c7.548-2.637 11.484-4.179 14.113-8.66l-7.882-7.524c-4.43 2.761-5.846 6.709-8.238 14.268-.3.946-.613 1.935-.95 2.96"/>
        <path fill="#EC2F29" d="M70.032 112.299s-3.872-4.2-8.908-3.102l4.594-23.762c10.154-4.284 19.802.223 19.802.223l-15.488 26.64zM77.98 121.473s7.071 6.508 3.082 20.96l25.48-6.245s5.622-17.643-2.81-30.248L77.98 121.473z"/>
        <path fill="#9E1F21" d="M69.926 113.71c10.763-30.223 64.082-92.825 105.14-102.806a.967.967 0 0 1 .469.014c.641.16 1.317.82 1.5 1.45a.94.94 0 0 1 .03.454c-8.547 41.202-69.481 96.491-99.437 108.283-.514.141-1.14.137-1.852-.04-2.476-.615-5.053-3.08-5.755-5.506-.204-.707-.227-1.333-.095-1.85M103.147 133.126c-8.21-1.396-20.657 2.998-26.925 15.195-.622 1.173-.727 2.776-.183 4.672 1.371 4.777 6.35 9.605 11.2 10.812 1.913.476 3.51.314 4.66-.35 11.954-6.707 15.9-19.318 14.21-27.478-.36-1.257-1.687-2.533-2.962-2.85"/>
        <path fill="#EC2F29" d="M50.97 133.644c8.922-8.67 20.366-15.166 20.366-15.166l12.81-16.682s-22.918 16.57-35.618 27.8l2.442 4.048zM177.105 12.748c-.093.095-.251.128-.45.079-.398-.098-.813-.489-.927-.872-.056-.19-.028-.343.064-.437L188.202.205l-11.097 12.543zM127.06 72.723c-3.915-2.2-7.523-5.595-9.922-9.33a668.932 668.932 0 0 1 12.564-12.544c2.302 3.664 5.846 6.998 9.684 9.108a654.924 654.924 0 0 1-12.326 12.766"/>
        <path fill="#EAEDF1" d="M114.666 85.034c-3.646-2.14-6.998-5.39-9.26-8.98a709.568 709.568 0 0 1 11.89-12.896c2.33 3.767 5.847 7.183 9.672 9.387a709.597 709.597 0 0 1-12.302 12.489"/>
        <path fill="#EC2F29" d="M102.978 95.33a25.587 25.587 0 0 1-8.531-8.105 654.253 654.253 0 0 1 10.563-11.781c2.32 3.59 5.75 6.845 9.475 8.995a655.783 655.783 0 0 1-11.507 10.892"/>
        <path fill="#EAEDF1" d="M103.39 95.51a503.24 503.24 0 0 1-10.037 8.731c-2.763-1.622-5.304-3.961-7.104-6.536a494.252 494.252 0 0 1 8.734-9.93c2.123 3.142 5.04 5.825 8.408 7.734M117.662 63.135c-1.04-1.667-1.845-3.402-2.338-5.132-1.038-3.65-.43-6.521 1.293-8.322a245.41 245.41 0 0 1 12.604-11.734c-1.626 1.7-2.21 4.387-1.23 7.83.445 1.565 1.162 3.136 2.084 4.65a675.683 675.683 0 0 0-12.413 12.708"/>
        <path fill="#EC2F29" d="M104.13 62.902a274.714 274.714 0 0 1 12.33-12.653c-1.758 1.773-2.365 4.615-1.273 8.24.517 1.717 1.356 3.443 2.434 5.102a698.688 698.688 0 0 0-12.152 12.644c-1.119-1.689-1.986-3.452-2.515-5.206-1.076-3.572-.557-6.379 1.176-8.127"/>
        <path fill="#EAEDF1" d="M94.895 86.673c-1.003-1.574-1.88-3.31-2.345-4.95-.937-3.302-.415-5.936 1.142-7.567a277.76 277.76 0 0 1 10.283-12.41c-1.67 1.75-2.2 4.6-1.195 8.143.493 1.74 1.311 3.486 2.37 5.158a647.53 647.53 0 0 0-10.255 11.626"/>
        <path fill="#EC2F29" d="M86.277 97.774c-.926-1.468-1.636-3.015-2.047-4.559-.778-2.92-.299-5.246 1.038-6.7 2.59-3.879 5.42-7.857 8.446-11.864-1.52 1.654-2.044 4.31-1.16 7.63.44 1.65 1.276 3.39 2.238 4.969a531.12 531.12 0 0 0-8.515 10.524M93.442 104.746c1.528.896 3.123 1.577 4.699 1.964 3.046.748 5.407.21 6.815-1.191a241.58 241.58 0 0 0 11.544-8.807c-1.6 1.592-4.303 2.18-7.767 1.33-1.682-.414-3.47-1.21-5.109-2.138-3.52 3.135-6.933 6.1-10.182 8.842"/>
        <path fill="#EAEDF1" d="M114.862 85.126c1.71.972 3.484 1.712 5.239 2.144 3.667.904 6.555.294 8.255-1.423a270.219 270.219 0 0 1-12.04 10.496c-1.586 1.6-4.255 2.196-7.673 1.353-1.66-.409-3.422-1.202-5.038-2.128 3.659-3.31 7.434-6.81 11.257-10.442"/>
        <path fill="#EC2F29" d="M127.958 85.163a272.568 272.568 0 0 0 12.26-12.303c-1.737 1.78-4.596 2.495-8.327 1.571-1.729-.428-3.474-1.154-5.162-2.107a694.521 694.521 0 0 1-12.297 12.16c1.715.986 3.493 1.735 5.253 2.171 3.679.912 6.561.262 8.273-1.492"/>
        <path fill="#EAEDF1" d="M127.471 72.303c1.677.935 3.41 1.65 5.126 2.074 3.705.913 6.54.222 8.257-1.51a233.174 233.174 0 0 0 11.061-12.501c-1.62 1.634-4.287 2.327-7.783 1.466-1.553-.383-3.121-1.018-4.643-1.847a632.432 632.432 0 0 1-12.018 12.318"/>
        <path fill="#EC2F29" d="M93.616 154.428a62.481 62.481 0 0 0 4.67-5.383c.56.249 1.124.447 1.686.588 2.088.522 3.739.143 4.718-.893.212-.225.389-.481.535-.764a28.34 28.34 0 0 1-2.537 5.5c-.177.342-.43.628-.686.899-1.18 1.25-3.173 1.708-5.693 1.078a12.992 12.992 0 0 1-2.693-1.025"/>
        <path fill="#EAEDF1" d="M87.497 159.39a62.853 62.853 0 0 0 5.587-4.79c.923.447 1.862.795 2.793 1.024 2.612.64 4.667.218 5.874-.984.261-.26.52-.536.698-.866a27.315 27.315 0 0 1-5.505 6.317c-1.279 1.042-3.314 1.35-5.822.734-1.212-.298-2.437-.791-3.625-1.435M79.925 143.223a27.928 27.928 0 0 1 5.983-5.356c-.237.155-.469.307-.663.505-1.183 1.204-1.55 3.175-.821 5.631.275.929.763 1.79 1.285 2.7a62.77 62.77 0 0 0-4.81 5.639c-.72-1.137-1.28-2.317-1.63-3.493-.714-2.406-.414-4.363.656-5.626"/>
        <path fill="#EC2F29" d="M81.159 152.968a61.913 61.913 0 0 1 4.669-5.625c1.683 3.028 4.492 5.865 7.581 7.413a61.744 61.744 0 0 1-5.362 4.846c-2.709-1.525-5.245-3.988-6.888-6.634M85.408 146.772a62.244 62.244 0 0 1 5.183-4.934 10.67 10.67 0 0 1-.672-1.73c-.6-2.094-.288-3.777.705-4.81.272-.282.594-.52.964-.7a28.077 28.077 0 0 0-5.45 2.755c-.446.217-.836.5-1.164.84-1.198 1.246-1.576 3.277-.851 5.804.274.955.762 1.841 1.285 2.775"/>
        <path fill="#EAEDF1" d="M93.673 154.246a61.551 61.551 0 0 0 4.604-5.304c-2.967-1.319-5.782-4.068-7.191-7.02a60.738 60.738 0 0 0-4.989 4.831c1.679 3.064 4.485 5.93 7.576 7.493"/>
        <path fill="#9E1F21" d="M65.334 84.314c-8.21-1.397-20.657 2.997-26.925 15.194-.622 1.173-.727 2.777-.182 4.673 1.37 4.777 6.35 9.605 11.199 10.812 1.913.476 3.51.314 4.66-.35 11.954-6.707 15.9-19.318 14.21-27.48-.36-1.256-1.686-2.532-2.962-2.85"/>
        <path fill="#EC2F29" d="M55.804 105.615a62.481 62.481 0 0 0 4.67-5.383c.56.25 1.124.448 1.685.588 2.088.523 3.74.143 4.718-.893.212-.224.39-.48.536-.764a28.34 28.34 0 0 1-2.538 5.5c-.177.342-.43.629-.685.9-1.181 1.25-3.174 1.707-5.693 1.077a13.012 13.012 0 0 1-2.693-1.025"/>
        <path fill="#EAEDF1" d="M50.372 110.578a62.806 62.806 0 0 0 5.588-4.79c.922.446 1.861.794 2.792 1.023 2.612.641 4.667.218 5.874-.983.261-.26.52-.536.698-.866a27.308 27.308 0 0 1-5.505 6.317c-1.279 1.042-3.314 1.35-5.822.734-1.212-.298-2.437-.792-3.625-1.435M42.112 94.411a27.929 27.929 0 0 1 5.983-5.357c-.236.155-.468.308-.662.505-1.184 1.205-1.55 3.176-.822 5.632.276.928.763 1.79 1.286 2.7a62.738 62.738 0 0 0-4.81 5.639c-.72-1.138-1.281-2.318-1.63-3.493-.714-2.406-.414-4.363.655-5.626"/>
        <path fill="#EC2F29" d="M43.346 103.468a61.908 61.908 0 0 1 4.67-5.625c1.682 3.028 4.491 5.865 7.58 7.413a61.695 61.695 0 0 1-5.361 4.846c-2.709-1.525-5.245-3.987-6.889-6.634M47.596 97.96a62.19 62.19 0 0 1 5.183-4.934 10.685 10.685 0 0 1-.673-1.73c-.6-2.095-.287-3.778.705-4.81a3.38 3.38 0 0 1 .964-.7 28.071 28.071 0 0 0-5.45 2.754c-.445.217-.836.5-1.164.841-1.198 1.246-1.576 3.277-.85 5.803.273.955.762 1.841 1.285 2.776"/>
        <path fill="#EAEDF1" d="M55.173 105.433a61.551 61.551 0 0 0 4.604-5.303c-2.967-1.32-5.782-4.069-7.191-7.02a60.684 60.684 0 0 0-4.989 4.83c1.679 3.064 4.485 5.931 7.576 7.493"/>
        <path fill="#9E1F21" d="M47.46 129.689c-8.211-1.397-20.658 2.997-26.926 15.194-.622 1.173-.727 2.777-.182 4.673 1.37 4.777 6.35 9.605 11.199 10.812 1.913.476 3.51.313 4.66-.35 11.954-6.707 15.9-19.318 14.21-27.479-.36-1.257-1.686-2.532-2.962-2.85"/>
        <path fill="#EC2F29" d="M37.929 150.99a62.481 62.481 0 0 0 4.67-5.383c.56.25 1.124.448 1.685.588 2.088.523 3.74.143 4.718-.893.212-.224.39-.48.536-.764a28.34 28.34 0 0 1-2.538 5.5c-.177.342-.43.629-.685.9-1.181 1.25-3.174 1.707-5.693 1.077a13.009 13.009 0 0 1-2.693-1.025"/>
        <path fill="#EAEDF1" d="M32.497 155.265a62.803 62.803 0 0 0 5.587-4.79 14.27 14.27 0 0 0 2.793 1.024c2.612.64 4.667.218 5.874-.984.261-.26.52-.536.698-.866a27.316 27.316 0 0 1-5.505 6.318c-1.279 1.041-3.314 1.349-5.822.733-1.212-.297-2.437-.79-3.625-1.435M24.237 139.098a27.928 27.928 0 0 1 5.983-5.356c-.236.154-.468.307-.662.504-1.184 1.205-1.55 3.176-.822 5.632.276.928.763 1.79 1.286 2.7a62.77 62.77 0 0 0-4.81 5.639c-.721-1.137-1.281-2.317-1.63-3.493-.714-2.406-.414-4.363.655-5.626"/>
        <path fill="#EC2F29" d="M25.471 148.843a61.908 61.908 0 0 1 4.67-5.625c1.682 3.028 4.491 5.865 7.58 7.413a61.744 61.744 0 0 1-5.361 4.846c-2.709-1.525-5.246-3.988-6.889-6.634M29.72 142.647a62.244 62.244 0 0 1 5.184-4.934 10.685 10.685 0 0 1-.673-1.73c-.6-2.094-.287-3.777.705-4.81a3.39 3.39 0 0 1 .964-.7 28.063 28.063 0 0 0-5.45 2.755c-.445.217-.836.5-1.164.84-1.198 1.246-1.576 3.277-.85 5.804.274.955.762 1.841 1.284 2.775"/>
        <path fill="#EAEDF1" d="M37.298 150.808a61.552 61.552 0 0 0 4.604-5.303c-2.967-1.32-5.782-4.069-7.191-7.02a60.738 60.738 0 0 0-4.989 4.83c1.679 3.064 4.485 5.931 7.576 7.493"/>
    </g>
</svg>
