<svg xmlns="http://www.w3.org/2000/svg" width="51" height="73" viewBox="0 0 51 73">
    <g fill="none" fill-rule="evenodd">
        <path fill="#C2CBD3" d="M49.077 52.424v40.653c0 3.64-2.88 6.59-6.43 6.59h-2.75v-47.65l9.18.407z"/>
        <path fill="#1A82FF" d="M8.24 77.693C4.575 77.78.745 76.814.745 74.8c0 0-.869-12.515 1.087-22.656 1.956-10.14 16.733-14.78 16.733-14.78l.538-.053c.467 3.282 3.307 5.807 6.742 5.807 3.76 0 6.81-3.027 6.81-6.76l-.046-1.208 6.057-1.454s14.017-1.726 11.953 17.37c0 1.715-2.776 2.668-5.864 2.862l-.149 34.933c0 8.8-18.14 12.628-33.918 11.482a3.225 3.225 0 0 1-2.5-3.134V78.28l.054-.587z"/>
        <path fill="#FFF" d="M37.33 58.58l-2.274 3.931c.091.466.138 1.008.138 1.623 0 3.308-1.351 6.065-3.614 7.375-.944.546-1.74.66-2.34.345l7.877-13.62a3.454 3.454 0 0 0-.723-.78 2.91 2.91 0 0 0-.355-.234v-.001c-.016-.01-.033-.017-.049-.026-.036-.02-.071-.042-.108-.06l-.002.003c-1.144-.565-2.615-.36-4.3.615-1.948 1.127-3.61 2.95-4.804 5.27-1.124 2.181-1.743 4.665-1.743 6.994 0 1.547.275 2.844.788 3.8l2.285-3.952a9.066 9.066 0 0 1-.12-1.558c0-1.523.27-2.91.801-4.123.624-1.423 1.59-2.544 2.793-3.24.937-.543 1.717-.654 2.31-.365l-7.86 13.592c.215.326.465.602.746.822.056.044.114.084.172.123l.002.001c.067.046.137.087.207.127l.026.015c.022.012.044.027.066.038l.003-.004c1.144.59 2.626.393 4.328-.592 1.95-1.128 3.614-2.952 4.814-5.275 1.13-2.187 1.754-4.673 1.754-7 0-1.571-.285-2.885-.818-3.844"/>
        <path fill="#C2CBD3" d="M19.35 19.667v17.239c0 3.758 3.131 6.804 6.994 6.804s6.995-3.046 6.995-6.804V23.629"/>
        <path fill="#B2B2B2" d="M19.35 29.48V20.54l13.989 3.811V37.14c-.1.003-.197.014-.298.014-4.585 0-11.86-7.124-11.86-7.124-.683 0-1.308-.211-1.831-.55"/>
        <path fill="#C2CBD3" d="M31.936 35.404c4.88 0 8.834-4.055 8.834-9.058v-12.03C40.77 6.89 34.9.87 27.656.87S14.54 6.889 14.54 14.317l.016.557c0 4.583 1.235 8.87 3.383 12.53a3.115 3.115 0 0 0 2.455 1.206s7.08 6.794 11.541 6.794"/>
        <path fill="#0F7CE8" d="M43.393 50.268v3.934h.119a9.01 9.01 0 0 0 1.63-.298l-1.749-3.636zM14.526 63.383V74.96c0 1.83-3.147 2.788-6.443 2.874l-.1 1.357V97.23a3.198 3.198 0 0 0 2.458 3.114c2.644.194 5.355.245 8.034.152v-9.704l-3.949-27.41z"/>
    </g>
</svg>
