<svg xmlns="http://www.w3.org/2000/svg" width="17" height="24" viewBox="0 0 17 24">
    <g fill="none" fill-rule="evenodd">
        <path fill="#C2CBD3" d="M16.175 17.313v13.212c0 1.183-.936 2.142-2.09 2.142h-.894V17.18l2.984.133z"/>
        <path fill="#1A82FF" d="M2.903 25.525c-1.192.028-2.436-.285-2.436-.94 0 0-.283-4.067.353-7.363.636-3.296 5.438-4.804 5.438-4.804l.175-.017a2.208 2.208 0 0 0 2.191 1.887 2.205 2.205 0 0 0 2.213-2.197l-.014-.392 1.968-.473s4.556-.56 3.885 5.645c0 .558-.902.868-1.906.93l-.048 11.354c0 2.86-5.896 4.104-11.024 3.731a1.048 1.048 0 0 1-.812-1.018v-6.152l.017-.19z"/>
        <path fill="#FFF" d="M12.357 19.313l-.739 1.278c.03.152.045.328.045.527 0 1.076-.44 1.972-1.174 2.397-.307.178-.566.215-.761.113l2.56-4.427a1.123 1.123 0 0 0-.235-.254.946.946 0 0 0-.115-.075l-.016-.01-.035-.019-.001.001c-.372-.183-.85-.117-1.397.2-.633.366-1.173.959-1.562 1.713a5.066 5.066 0 0 0-.566 2.273c0 .503.089.924.256 1.235l.743-1.285a2.946 2.946 0 0 1-.04-.506c0-.495.088-.946.26-1.34.203-.462.517-.827.909-1.053.304-.176.558-.213.75-.119L8.684 24.38a1.127 1.127 0 0 0 .3.307.958.958 0 0 0 .067.042l.008.004.022.013v-.001c.373.191.854.127 1.408-.193.633-.366 1.174-.96 1.564-1.714.368-.711.57-1.519.57-2.275 0-.51-.093-.938-.266-1.25"/>
        <path fill="#C2CBD3" d="M6.514 6.667v5.602c0 1.222 1.017 2.212 2.273 2.212 1.255 0 2.273-.99 2.273-2.212V7.954"/>
        <path fill="#B2B2B2" d="M6.514 9.856V6.95L11.06 8.19v4.155c-.032.001-.064.005-.097.005-1.49 0-3.854-2.315-3.854-2.315a1.09 1.09 0 0 1-.595-.18"/>
        <path fill="#C2CBD3" d="M10.604 11.781c1.586 0 2.871-1.318 2.871-2.944v-3.91c0-2.413-1.908-4.37-4.262-4.37-2.354 0-4.262 1.957-4.262 4.37l.005.182c0 1.49.401 2.883 1.1 4.073.187.238.475.391.797.391 0 0 2.301 2.208 3.751 2.208"/>
        <path fill="#0F7CE8" d="M14.328 16.612v1.279h.038c.184-.017.363-.05.53-.097l-.568-1.182zM4.946 20.874v3.763c0 .595-1.023.906-2.094.934l-.032.442v5.862c0 .492.34.904.798 1.012.86.063 1.74.08 2.612.05v-3.155l-1.284-8.908z"/>
    </g>
</svg>
