<svg xmlns="http://www.w3.org/2000/svg" width="58" height="66" viewBox="0 0 58 66">
    <path fill="#455D75" fill-rule="evenodd" d="M36.25 33.833l21.146 16.228-8.961 1.506L54.06 63.03l-5.16 2.521-5.655-11.573-6.996 6.053V33.833zm-9.667-14.5h-6.295c1.18-5.432 3.36-10.145 6.295-13.673v13.673zm0 14.5h-7.08c-.353-3.434-.353-6.227 0-9.666h7.08v9.666zm0 18.507c-2.936-3.528-5.116-8.24-6.295-13.673h6.295V52.34zM6.866 38.667h8.458c.926 4.736 2.542 9.065 4.708 12.755A24.282 24.282 0 0 1 6.866 38.667zM4.833 29c0-1.655.17-3.272.489-4.833h9.31a51.652 51.652 0 0 0 0 9.666h-9.31A24.126 24.126 0 0 1 4.833 29zM20.032 6.578c-2.166 3.69-3.782 8.019-4.708 12.755H6.866A24.282 24.282 0 0 1 20.032 6.578zm11.385-.918c2.936 3.528 5.116 8.24 6.295 13.673h-6.295V5.66zm19.717 13.673h-8.458c-.926-4.736-2.542-9.065-4.708-12.755a24.282 24.282 0 0 1 13.166 12.755zM31.417 52.34V24.031l.174.136h6.907c.203 1.957.273 3.71.246 5.488l4.652 3.57a51.585 51.585 0 0 0-.029-9.058h9.312a24.126 24.126 0 0 1 0 9.666h-8.49l6.3 4.834h.645c-.053.123-.123.239-.179.357l3.923 3.014C56.857 38.113 58 33.693 58 29 58 12.985 45.015 0 29 0S0 12.985 0 29s12.985 29 29 29c.814 0 1.617-.056 2.417-.123V52.34z"/>
</svg>
