<svg xmlns="http://www.w3.org/2000/svg" width="16" height="13" viewBox="0 0 16 13">
    <path fill="#F7F8F9" fill-rule="evenodd" d="M7.71 4.048a.77.77 0 1 1 0-1.541.77.77 0 0 1 0 1.541m-3.855 0a.77.77 0 1 1 0-1.541.77.77 0 0 1 0 1.541m8.932 3.76a.643.643 0 1 1 .001-1.287.643.643 0 0 1 0 1.286m-3.214 0a.642.642 0 1 1 .001-1.283.642.642 0 0 1-.001 1.283M5.784 0C2.588 0 0 2.157 0 4.82 0 6.27.779 7.578 1.998 8.461c.098.07.162.183.162.314l-.02.122-.26.972-.032.141c0 .106.087.193.193.193l.112-.035 1.266-.732a.605.605 0 0 1 .306-.088l.17.025c.591.17 1.228.265 1.888.265l.318-.008a3.724 3.724 0 0 1-.194-1.181c0-2.427 2.361-4.395 5.274-4.395l.314.008C11.059 1.76 8.668 0 5.783 0m8.552 11.485C15.35 10.75 16 9.66 16 8.45c0-2.217-2.158-4.015-4.819-4.015-2.662 0-4.82 1.798-4.82 4.015 0 2.218 2.158 4.016 4.82 4.016.55 0 1.08-.078 1.573-.22l.141-.021c.094 0 .177.029.256.074l1.056.61.092.03a.161.161 0 0 0 .162-.161l-.027-.118-.217-.81-.017-.102a.32.32 0 0 1 .135-.262"/>
</svg>
