<svg xmlns="http://www.w3.org/2000/svg" width="58" height="47" viewBox="0 0 58 47">
    <path fill="#2E3F53" fill-rule="evenodd" d="M27.951 14.674a2.793 2.793 0 0 1-2.794-2.794 2.794 2.794 0 1 1 5.59 0 2.796 2.796 0 0 1-2.796 2.794m-13.975 0a2.793 2.793 0 0 1-2.794-2.794 2.794 2.794 0 1 1 5.59 0 2.796 2.796 0 0 1-2.796 2.794m32.378 13.628a2.33 2.33 0 0 1 0-4.66 2.327 2.327 0 0 1 2.327 2.33 2.329 2.329 0 0 1-2.327 2.33m-11.648 0a2.327 2.327 0 0 1-2.325-2.33 2.328 2.328 0 0 1 4.654 0 2.33 2.33 0 0 1-2.33 2.33M20.966 0C9.386 0 0 7.82 0 17.47c0 5.264 2.823 10.003 7.243 13.205.355.251.587.664.587 1.138l-.072.442-.945 3.524-.114.512a.7.7 0 0 0 .698.699l.406-.129 4.59-2.65c.343-.199.708-.322 1.111-.322l.617.092a24.79 24.79 0 0 0 6.844.96l1.15-.03a13.5 13.5 0 0 1-.703-4.28c0-8.799 8.56-15.933 19.12-15.933l1.136.03C40.09 6.381 31.422 0 20.965 0m30.998 41.634C55.646 38.964 58 35.017 58 30.63c0-8.038-7.823-14.556-17.468-14.556-9.65 0-17.472 6.518-17.472 14.556 0 8.04 7.823 14.558 17.472 14.558 1.992 0 3.915-.283 5.701-.798l.513-.077c.338 0 .64.104.928.268l3.825 2.21.336.108a.585.585 0 0 0 .585-.583l-.097-.425-.788-2.936-.06-.372c0-.392.193-.737.488-.948"/>
</svg>
