<svg xmlns="http://www.w3.org/2000/svg" xmlns:xlink="http://www.w3.org/1999/xlink" width="58" height="61" viewBox="0 0 58 61">
    <defs>
        <path id="a" d="M50.128 49.152c2.891-1.667 5.257-5.759 5.257-9.093V20.25c0-3.335-2.366-7.426-5.257-9.093L32.948 1.25c-2.89-1.667-7.621-1.667-10.512 0l-17.18 9.906C2.367 12.823 0 16.914 0 20.248V40.06c0 3.334 2.366 7.426 5.257 9.093l17.179 9.905c2.89 1.667 7.622 1.667 10.513 0l17.18-9.905z"/>
    </defs>
    <g fill="none" fill-rule="evenodd" transform="translate(1)">
        <g transform="translate(0 2.605)">
            <circle cx="27.674" cy="27.674" r="27.674" fill="#FF5A5F"/>
            <path fill="#FFF" d="M40.663 35.512c-.216 1.591-1.297 2.968-2.81 3.58a4.712 4.712 0 0 1-2.345.305 6.112 6.112 0 0 1-2.346-.795c-1.111-.612-2.222-1.56-3.519-2.968 2.037-2.477 3.272-4.741 3.735-6.76a7.601 7.601 0 0 0 .154-2.6 4.939 4.939 0 0 0-.833-2.08c-.957-1.377-2.562-2.173-4.352-2.173-1.79 0-3.396.826-4.353 2.172a4.939 4.939 0 0 0-.833 2.08 6.297 6.297 0 0 0 .154 2.6c.463 2.02 1.729 4.314 3.735 6.792-1.265 1.407-2.407 2.356-3.519 2.968a6.107 6.107 0 0 1-2.345.795 4.978 4.978 0 0 1-2.346-.306c-1.513-.612-2.593-1.988-2.81-3.58a5.022 5.022 0 0 1 .278-2.385c.093-.306.247-.612.402-.98.216-.489.463-1.009.71-1.529l.03-.061a333.36 333.36 0 0 1 6.791-13.736l.093-.183c.247-.46.494-.949.74-1.408.248-.489.526-.948.865-1.346.648-.734 1.513-1.131 2.47-1.131.956 0 1.82.397 2.469 1.131.34.398.617.857.864 1.346.247.46.494.949.741 1.408l.093.183a404.27 404.27 0 0 1 6.76 13.767v.03c.246.49.463 1.04.71 1.53.154.367.308.673.4.979.248.795.34 1.56.217 2.355m-12.316-1.438c-1.667-2.08-2.747-4.038-3.118-5.69-.154-.704-.185-1.315-.092-1.866.061-.49.246-.917.493-1.285.587-.826 1.575-1.346 2.717-1.346 1.142 0 2.16.49 2.716 1.346.247.368.432.796.494 1.285.093.55.062 1.193-.093 1.866-.37 1.622-1.45 3.58-3.117 5.69m13.92-1.59c-.153-.368-.308-.765-.462-1.102-.247-.55-.494-1.07-.71-1.56l-.03-.03a318.113 318.113 0 0 0-6.823-13.828l-.092-.183a62.23 62.23 0 0 1-.741-1.438c-.309-.55-.617-1.132-1.111-1.683-.988-1.223-2.408-1.897-3.92-1.897-1.544 0-2.933.674-3.951 1.836-.463.55-.803 1.132-1.112 1.683-.247.489-.494.978-.74 1.437l-.093.184c-2.377 4.589-4.692 9.239-6.822 13.827l-.03.062c-.217.489-.464 1.01-.71 1.56-.155.336-.31.703-.464 1.101-.4 1.132-.524 2.203-.37 3.304a6.511 6.511 0 0 0 4.013 5.078c.802.337 1.636.49 2.5.49a8.206 8.206 0 0 0 3.89-1.102c1.265-.703 2.469-1.713 3.827-3.181 1.358 1.468 2.593 2.478 3.827 3.181a8.206 8.206 0 0 0 3.89 1.102c.864 0 1.728-.153 2.5-.49a6.498 6.498 0 0 0 4.013-5.078c.247-1.07.123-2.141-.278-3.273"/>
        </g>
        <mask id="b" fill="#fff">
            <use xlink:href="#a"/>
        </mask>
        <g stroke="#FFF" stroke-linecap="square" mask="url(#b)" opacity=".2">
            <path d="M69.674-24.093l-106.14 61.21M69.674-22.14l-106.14 61.21M69.674-20.186l-106.14 61.21M69.674-18.233l-106.14 61.21M69.674-16.28l-106.14 61.21M69.674-14.326l-106.14 61.21M69.674-12.372l-106.14 61.21M69.674-10.419l-106.14 61.21M69.674-8.465l-106.14 61.21M69.674-6.512l-106.14 61.21M69.674-4.558l-106.14 61.21M69.674-2.605l-106.14 61.21M69.674-.651l-106.14 61.21M69.674 1.302l-106.14 61.21M69.674 3.256l-106.14 61.21M69.674 5.21l-106.14 61.209M69.674 7.163l-106.14 61.21M69.674 9.116l-106.14 61.21M69.674 11.07l-106.14 61.21M69.674 13.023l-106.14 61.21M69.674 14.977l-106.14 61.209M69.674 16.93l-106.14 61.21M69.674 18.884l-106.14 61.209M69.674 20.837l-106.14 61.21M69.674 22.79L-36.466 84M69.674 24.744l-106.14 61.21M69.674 26.698l-106.14 61.209M69.674 28.651l-106.14 61.21M69.674 30.605l-106.14 61.209M69.674 32.558l-106.14 61.21M69.674 34.512L-36.466 95.72M69.674 36.465l-106.14 61.21"/>
        </g>
        <circle cx="27.674" cy="30.279" r="27.674" stroke="#EE4F54" stroke-width="2"/>
    </g>
</svg>
