<svg xmlns="http://www.w3.org/2000/svg" width="16" height="17" viewBox="0 0 16 17">
    <g fill="none" fill-rule="evenodd">
        <path fill="#1A82FF" d="M9.001.327c1.428 1.044 1.12.945 2.89.939a1.695 1.695 0 0 1 1.619 1.176c.541 1.684.352 1.424 1.785 2.459.6.432.85 1.202.62 1.904-.55 1.677-.554 1.355 0 3.038a1.692 1.692 0 0 1-.62 1.904c-1.433 1.035-1.243.775-1.785 2.459a1.694 1.694 0 0 1-1.62 1.176c-1.77-.005-1.461-.105-2.889.94a1.697 1.697 0 0 1-2.002 0c-1.428-1.044-1.121-.946-2.89-.94a1.695 1.695 0 0 1-1.619-1.176c-.541-1.686-.354-1.426-1.786-2.46a1.695 1.695 0 0 1-.619-1.903c.552-1.676.554-1.354 0-3.038A1.696 1.696 0 0 1 .703 4.9c1.43-1.033 1.245-.77 1.786-2.458a1.694 1.694 0 0 1 1.62-1.177c1.765.006 1.453.112 2.89-.938a1.697 1.697 0 0 1 2.002 0z"/>
        <path fill="#EBF0F3" d="M10.762 5L7 8.856l-1.762-1.67L4 8.423l3 2.91 5-5.096z"/>
    </g>
</svg>
