<svg xmlns="http://www.w3.org/2000/svg" xmlns:xlink="http://www.w3.org/1999/xlink" width="138" height="76" viewBox="0 0 138 76">
    <defs>
        <path id="a" d="M10 0h140c5.523 0 10 4.477 10 10v100c0 5.523-4.477 10-10 10H10c-5.523 0-10-4.477-10-10V10C0 4.477 4.477 0 10 0z"/>
        <path id="c" d="M0 .682h140v63.2H0z"/>
        <path id="e" d="M0 .04h223.674v14.315H0z"/>
        <path id="g" d="M0 .003h147.22v176.775H0z"/>
        <path id="i" d="M0 .068h40.656v23.295H0z"/>
        <path id="k" d="M0 .005h40.656V23.3H0z"/>
        <path id="m" d="M.324.003v19.274a1.22 1.22 0 0 0-.247.18c.048.046.126.11.247.18l17.037 9.761c.42.241 1.036.38 1.69.38.653 0 1.27-.139 1.69-.38l16.9-9.684c.121-.07.2-.133.247-.18a1.202 1.202 0 0 0-.246-.179V.081"/>
        <path id="o" d="M.324.003v19.274a1.22 1.22 0 0 0-.247.18c.048.046.126.11.247.18l17.037 9.761c.42.241 1.036.38 1.69.38.653 0 1.27-.139 1.69-.38l16.9-9.684c.121-.07.2-.133.247-.18a1.202 1.202 0 0 0-.246-.179V.081"/>
        <path id="q" d="M.324.003v19.274a1.22 1.22 0 0 0-.247.18c.048.046.126.11.247.18l17.037 9.761c.42.241 1.036.38 1.69.38.653 0 1.27-.139 1.69-.38l16.9-9.684c.121-.07.2-.133.247-.18a1.202 1.202 0 0 0-.246-.179V.081L.324.003z"/>
        <path id="s" d="M.324.003v19.274a1.22 1.22 0 0 0-.247.18c.048.046.126.11.247.18l17.037 9.761c.42.241 1.036.38 1.69.38.653 0 1.27-.139 1.69-.38l16.9-9.684c.121-.07.2-.133.247-.18a1.202 1.202 0 0 0-.246-.179V.081L.324.003z"/>
        <path id="u" d="M.324.003v19.274a1.22 1.22 0 0 0-.247.18c.048.046.126.11.247.18l17.037 9.761c.42.241 1.036.38 1.69.38.653 0 1.27-.139 1.69-.38l16.9-9.684c.121-.07.2-.133.247-.18a1.202 1.202 0 0 0-.246-.179V.081"/>
        <path id="w" d="M.324.003v19.274a1.22 1.22 0 0 0-.247.18c.048.046.126.11.247.18l17.037 9.761c.42.241 1.036.38 1.69.38.653 0 1.27-.139 1.69-.38l16.9-9.684c.121-.07.2-.133.247-.18a1.202 1.202 0 0 0-.246-.179V.081L.324.003z"/>
        <path id="y" d="M.324.003v19.274a1.22 1.22 0 0 0-.247.18c.048.046.126.11.247.18l17.037 9.761c.42.241 1.036.38 1.69.38.653 0 1.27-.139 1.69-.38l16.9-9.684c.121-.07.2-.133.247-.18a1.202 1.202 0 0 0-.246-.179V.081"/>
        <path id="A" d="M.324.003v19.274a1.22 1.22 0 0 0-.247.18c.048.046.126.11.247.18l17.037 9.761c.42.241 1.036.38 1.69.38.653 0 1.27-.139 1.69-.38l16.9-9.684c.121-.07.2-.133.247-.18a1.202 1.202 0 0 0-.246-.179V.081"/>
        <path id="C" d="M.324.003v19.274a1.22 1.22 0 0 0-.247.18c.048.046.126.11.247.18l17.037 9.761c.42.241 1.036.38 1.69.38.653 0 1.27-.139 1.69-.38l16.9-9.684c.121-.07.2-.133.247-.18a1.202 1.202 0 0 0-.246-.179V.081L.324.003z"/>
        <path id="E" d="M.324.003v19.274a1.22 1.22 0 0 0-.247.18c.048.046.126.11.247.18l17.037 9.761c.42.241 1.036.38 1.69.38.653 0 1.27-.139 1.69-.38l16.9-9.684c.121-.07.2-.133.247-.18a1.202 1.202 0 0 0-.246-.179V.081"/>
        <path id="G" d="M.324.003v19.274a1.22 1.22 0 0 0-.247.18c.048.046.126.11.247.18l17.037 9.761c.42.241 1.036.38 1.69.38.653 0 1.27-.139 1.69-.38l16.9-9.684c.121-.07.2-.133.247-.18a1.202 1.202 0 0 0-.246-.179V.081"/>
        <path id="I" d="M.324.003v19.274a1.22 1.22 0 0 0-.247.18c.048.046.126.11.247.18l17.037 9.761c.42.241 1.036.38 1.69.38.653 0 1.27-.139 1.69-.38l16.9-9.684c.121-.07.2-.133.247-.18a1.202 1.202 0 0 0-.246-.179V.081"/>
        <path id="K" d="M.324.003v19.274a1.22 1.22 0 0 0-.247.18c.048.046.126.11.247.18l17.037 9.761c.42.241 1.036.38 1.69.38.653 0 1.27-.139 1.69-.38l16.9-9.684c.121-.07.2-.133.247-.18a1.202 1.202 0 0 0-.246-.179V.081"/>
        <path id="M" d="M.324.003v19.274a1.22 1.22 0 0 0-.247.18c.048.046.126.11.247.18l17.037 9.761c.42.241 1.036.38 1.69.38.653 0 1.27-.139 1.69-.38l16.9-9.684c.121-.07.2-.133.247-.18a1.202 1.202 0 0 0-.246-.179V.081"/>
        <path id="O" d="M.324.003v19.274a1.22 1.22 0 0 0-.247.18c.048.046.126.11.247.18l17.037 9.761c.42.241 1.036.38 1.69.38.653 0 1.27-.139 1.69-.38l16.9-9.684c.121-.07.2-.133.247-.18a1.202 1.202 0 0 0-.246-.179V.081"/>
        <path id="Q" d="M.324.003v19.274a1.22 1.22 0 0 0-.247.18c.048.046.126.11.247.18l17.037 9.761c.42.241 1.036.38 1.69.38.653 0 1.27-.139 1.69-.38l16.9-9.684c.121-.07.2-.133.247-.18a1.202 1.202 0 0 0-.246-.179V.081"/>
        <path id="S" d="M0 .068h40.656v23.295H0z"/>
        <path id="U" d="M.324.099v26.02c-.12.07-.2.133-.247.18.048.047.126.11.247.18L17.36 36.24c.42.241 1.036.38 1.69.38.653 0 1.27-.139 1.69-.38l16.9-9.684c.121-.069.2-.133.248-.18a1.21 1.21 0 0 0-.247-.179V.177"/>
        <path id="W" d="M.324.099v26.02c-.12.07-.2.133-.247.18.048.047.126.11.247.18L17.36 36.24c.42.241 1.036.38 1.69.38.653 0 1.27-.139 1.69-.38l16.9-9.684c.121-.069.2-.133.248-.18a1.21 1.21 0 0 0-.247-.179V.177L.324.099z"/>
        <path id="Y" d="M.324.099v26.02c-.12.07-.2.133-.247.18.048.047.126.11.247.18L17.36 36.24c.42.241 1.036.38 1.69.38.653 0 1.27-.139 1.69-.38l16.9-9.684c.121-.069.2-.133.248-.18a1.21 1.21 0 0 0-.247-.179V.177L.324.099z"/>
        <path id="aa" d="M.324.099v26.02c-.12.07-.2.133-.247.18.048.047.126.11.247.18L17.36 36.24c.42.241 1.036.38 1.69.38.653 0 1.27-.139 1.69-.38l16.9-9.684c.121-.069.2-.133.248-.18a1.21 1.21 0 0 0-.247-.179V.177"/>
        <path id="ac" d="M.324.099v26.02c-.12.07-.2.133-.247.18.048.047.126.11.247.18L17.36 36.24c.42.241 1.036.38 1.69.38.653 0 1.27-.139 1.69-.38l16.9-9.684c.121-.069.2-.133.248-.18a1.21 1.21 0 0 0-.247-.179V.177"/>
        <path id="ae" d="M.324.099v26.02c-.12.07-.2.133-.247.18.048.047.126.11.247.18L17.36 36.24c.42.241 1.036.38 1.69.38.653 0 1.27-.139 1.69-.38l16.9-9.684c.121-.069.2-.133.248-.18a1.21 1.21 0 0 0-.247-.179V.177"/>
        <path id="ag" d="M.324.099v26.02c-.12.07-.2.133-.247.18.048.047.126.11.247.18L17.36 36.24c.42.241 1.036.38 1.69.38.653 0 1.27-.139 1.69-.38l16.9-9.684c.121-.069.2-.133.248-.18a1.21 1.21 0 0 0-.247-.179V.177L.324.099z"/>
        <path id="ai" d="M.324.099v26.02c-.12.07-.2.133-.247.18.048.047.126.11.247.18L17.36 36.24c.42.241 1.036.38 1.69.38.653 0 1.27-.139 1.69-.38l16.9-9.684c.121-.069.2-.133.248-.18a1.21 1.21 0 0 0-.247-.179V.177"/>
        <path id="ak" d="M.324.099v26.02c-.12.07-.2.133-.247.18.048.047.126.11.247.18L17.36 36.24c.42.241 1.036.38 1.69.38.653 0 1.27-.139 1.69-.38l16.9-9.684c.121-.069.2-.133.248-.18a1.21 1.21 0 0 0-.247-.179V.177"/>
        <path id="am" d="M.324.099v26.02c-.12.07-.2.133-.247.18.048.047.126.11.247.18L17.36 36.24c.42.241 1.036.38 1.69.38.653 0 1.27-.139 1.69-.38l16.9-9.684c.121-.069.2-.133.248-.18a1.21 1.21 0 0 0-.247-.179V.177"/>
        <path id="ao" d="M.324.099v26.02c-.12.07-.2.133-.247.18.048.047.126.11.247.18L17.36 36.24c.42.241 1.036.38 1.69.38.653 0 1.27-.139 1.69-.38l16.9-9.684c.121-.069.2-.133.248-.18a1.21 1.21 0 0 0-.247-.179V.177"/>
        <path id="aq" d="M.324.099v26.02c-.12.07-.2.133-.247.18.048.047.126.11.247.18L17.36 36.24c.42.241 1.036.38 1.69.38.653 0 1.27-.139 1.69-.38l16.9-9.684c.121-.069.2-.133.248-.18a1.21 1.21 0 0 0-.247-.179V.177"/>
        <path id="as" d="M.324.099v26.02c-.12.07-.2.133-.247.18.048.047.126.11.247.18L17.36 36.24c.42.241 1.036.38 1.69.38.653 0 1.27-.139 1.69-.38l16.9-9.684c.121-.069.2-.133.248-.18a1.21 1.21 0 0 0-.247-.179V.177"/>
        <path id="au" d="M.324.099v26.02c-.12.07-.2.133-.247.18.048.047.126.11.247.18L17.36 36.24c.42.241 1.036.38 1.69.38.653 0 1.27-.139 1.69-.38l16.9-9.684c.121-.069.2-.133.248-.18a1.21 1.21 0 0 0-.247-.179V.177L.324.099z"/>
        <path id="aw" d="M.324.099v26.02c-.12.07-.2.133-.247.18.048.047.126.11.247.18L17.36 36.24c.42.241 1.036.38 1.69.38.653 0 1.27-.139 1.69-.38l16.9-9.684c.121-.069.2-.133.248-.18a1.21 1.21 0 0 0-.247-.179V.177L.324.099z"/>
        <path id="ay" d="M.324.099v26.02c-.12.07-.2.133-.247.18.048.047.126.11.247.18L17.36 36.24c.42.241 1.036.38 1.69.38.653 0 1.27-.139 1.69-.38l16.9-9.684c.121-.069.2-.133.248-.18a1.21 1.21 0 0 0-.247-.179V.177"/>
        <path id="aA" d="M.324.099v26.02c-.12.07-.2.133-.247.18.048.047.126.11.247.18L17.36 36.24c.42.241 1.036.38 1.69.38.653 0 1.27-.139 1.69-.38l16.9-9.684c.121-.069.2-.133.248-.18a1.21 1.21 0 0 0-.247-.179V.177"/>
        <path id="aC" d="M.324.099v26.02c-.12.07-.2.133-.247.18.048.047.126.11.247.18L17.36 36.24c.42.241 1.036.38 1.69.38.653 0 1.27-.139 1.69-.38l16.9-9.684c.121-.069.2-.133.248-.18a1.21 1.21 0 0 0-.247-.179V.177"/>
        <path id="aE" d="M.324.099v26.02c-.12.07-.2.133-.247.18.048.047.126.11.247.18L17.36 36.24c.42.241 1.036.38 1.69.38.653 0 1.27-.139 1.69-.38l16.9-9.684c.121-.069.2-.133.248-.18a1.21 1.21 0 0 0-.247-.179V.177"/>
        <path id="aG" d="M.324.099v26.02c-.12.07-.2.133-.247.18.048.047.126.11.247.18L17.36 36.24c.42.241 1.036.38 1.69.38.653 0 1.27-.139 1.69-.38l16.9-9.684c.121-.069.2-.133.248-.18a1.21 1.21 0 0 0-.247-.179V.177"/>
        <path id="aI" d="M.324.099v26.02c-.12.07-.2.133-.247.18.048.047.126.11.247.18L17.36 36.24c.42.241 1.036.38 1.69.38.653 0 1.27-.139 1.69-.38l16.9-9.684c.121-.069.2-.133.248-.18a1.21 1.21 0 0 0-.247-.179V.177"/>
        <path id="aK" d="M.324.099v26.02c-.12.07-.2.133-.247.18.048.047.126.11.247.18L17.36 36.24c.42.241 1.036.38 1.69.38.653 0 1.27-.139 1.69-.38l16.9-9.684c.121-.069.2-.133.248-.18a1.21 1.21 0 0 0-.247-.179V.177"/>
        <path id="aM" d="M.324.099v26.02c-.12.07-.2.133-.247.18.048.047.126.11.247.18L17.36 36.24c.42.241 1.036.38 1.69.38.653 0 1.27-.139 1.69-.38l16.9-9.684c.121-.069.2-.133.248-.18a1.21 1.21 0 0 0-.247-.179V.177"/>
        <path id="aO" d="M.324.099v26.02c-.12.07-.2.133-.247.18.048.047.126.11.247.18L17.36 36.24c.42.241 1.036.38 1.69.38.653 0 1.27-.139 1.69-.38l16.9-9.684c.121-.069.2-.133.248-.18a1.21 1.21 0 0 0-.247-.179V.177L.324.099z"/>
        <path id="aQ" d="M.324.099v26.02c-.12.07-.2.133-.247.18.048.047.126.11.247.18L17.36 36.24c.42.241 1.036.38 1.69.38.653 0 1.27-.139 1.69-.38l16.9-9.684c.121-.069.2-.133.248-.18a1.21 1.21 0 0 0-.247-.179V.177"/>
        <path id="aS" d="M.324.099v26.02c-.12.07-.2.133-.247.18.048.047.126.11.247.18L17.36 36.24c.42.241 1.036.38 1.69.38.653 0 1.27-.139 1.69-.38l16.9-9.684c.121-.069.2-.133.248-.18a1.21 1.21 0 0 0-.247-.179V.177"/>
        <path id="aU" d="M.324.099v26.02c-.12.07-.2.133-.247.18.048.047.126.11.247.18L17.36 36.24c.42.241 1.036.38 1.69.38.653 0 1.27-.139 1.69-.38l16.9-9.684c.121-.069.2-.133.248-.18a1.21 1.21 0 0 0-.247-.179V.177"/>
        <path id="aW" d="M0 .068h40.656v23.295H0z"/>
        <path id="aY" d="M0 .005h40.656V23.3H0z"/>
        <path id="ba" d="M.324.024v24.093c-.12.069-.2.132-.247.179.048.047.126.11.247.18l17.037 9.762c.42.24 1.036.379 1.69.379.653 0 1.27-.138 1.69-.38l16.9-9.683c.121-.07.2-.133.248-.18a1.208 1.208 0 0 0-.247-.18V.102"/>
        <path id="bc" d="M.324.024v24.093c-.12.069-.2.132-.247.179.048.047.126.11.247.18l17.037 9.762c.42.24 1.036.379 1.69.379.653 0 1.27-.138 1.69-.38l16.9-9.683c.121-.07.2-.133.248-.18a1.208 1.208 0 0 0-.247-.18V.102"/>
        <path id="be" d="M.324.024v24.093c-.12.069-.2.132-.247.179.048.047.126.11.247.18l17.037 9.762c.42.24 1.036.379 1.69.379.653 0 1.27-.138 1.69-.38l16.9-9.683c.121-.07.2-.133.248-.18a1.208 1.208 0 0 0-.247-.18V.102"/>
        <path id="bg" d="M.324.024v24.093c-.12.069-.2.132-.247.179.048.047.126.11.247.18l17.037 9.762c.42.24 1.036.379 1.69.379.653 0 1.27-.138 1.69-.38l16.9-9.683c.121-.07.2-.133.248-.18a1.208 1.208 0 0 0-.247-.18V.102"/>
        <path id="bi" d="M.324.024v24.093c-.12.069-.2.132-.247.179.048.047.126.11.247.18l17.037 9.762c.42.24 1.036.379 1.69.379.653 0 1.27-.138 1.69-.38l16.9-9.683c.121-.07.2-.133.248-.18a1.208 1.208 0 0 0-.247-.18V.102"/>
        <path id="bk" d="M.324.024v24.093c-.12.069-.2.132-.247.179.048.047.126.11.247.18l17.037 9.762c.42.24 1.036.379 1.69.379.653 0 1.27-.138 1.69-.38l16.9-9.683c.121-.07.2-.133.248-.18a1.208 1.208 0 0 0-.247-.18V.102"/>
        <path id="bm" d="M.324.024v24.093c-.12.069-.2.132-.247.179.048.047.126.11.247.18l17.037 9.762c.42.24 1.036.379 1.69.379.653 0 1.27-.138 1.69-.38l16.9-9.683c.121-.07.2-.133.248-.18a1.208 1.208 0 0 0-.247-.18V.102"/>
    </defs>
    <g fill="none" fill-rule="evenodd" transform="translate(-12)">
        <mask id="b" fill="#fff">
            <use xlink:href="#a"/>
        </mask>
        <g mask="url(#b)">
            <g transform="translate(10 -11)">
                <mask id="d" fill="#fff">
                    <use xlink:href="#c"/>
                </mask>
                <g mask="url(#d)">
                    <g transform="rotate(-62 148.421 26.014)">
                        <mask id="f" fill="#fff">
                            <use xlink:href="#e"/>
                        </mask>
                        <path fill="#5028CE" d="M0 9.458L223.674.04v14.316z" mask="url(#f)"/>
                    </g>
                    <path fill="#6E3BEA" d="M64.072 148.484l66.507-213.69 13.47 4.706z"/>
                    <path fill="#1A82FF" d="M64.147 149.387L99.127-71.47l14.213 2.794z"/>
                    <path fill="#1AB57D" d="M64.998 149.175l1.898-223.391 14.507.653z"/>
                    <path fill="#F4C110" d="M64.386 149.204L34.603-72.54l14.497-1.44z"/>
                    <path fill="#FF1A1A" d="M64.57 149.23L1.583-64.596l14.132-3.514z"/>
                    <g transform="rotate(-62 9.592 109.147)">
                        <mask id="h" fill="#fff">
                            <use xlink:href="#g"/>
                        </mask>
                        <path fill="#A00505" d="M0 176.778L135.986.003l11.234 9.312z" mask="url(#h)"/>
                    </g>
                </g>
            </g>
            <g transform="translate(59.563 37.213)">
                <mask id="j" fill="#fff">
                    <use xlink:href="#i"/>
                </mask>
                <path fill="#000" d="M39.675 10.392c1.308.75 1.308 1.976 0 2.725L22.774 22.8c-1.308.75-3.448.75-4.756 0L.981 13.039c-1.308-.75-1.308-1.976 0-2.725L17.882.63c1.308-.75 3.448-.75 4.756 0l17.037 9.762z" mask="url(#j)"/>
            </g>
            <path fill="#1CBA81" d="M79.959 30.307c-.862 0-1.724-.187-2.377-.562l-17.038-9.762c-.637-.365-.962-.843-.978-1.325v23.979c.016.481.34.96.978 1.325l17.038 9.762c.653.374 1.515.562 2.377.562V30.307z"/>
            <path fill="#13A36B" d="M79.959 30.307c.862 0 1.724-.187 2.378-.562l16.901-9.684c.672-.385.996-.895.978-1.403v23.979c.018.507-.306 1.017-.978 1.402l-16.901 9.685c-.654.374-1.516.562-2.378.562V30.307z"/>
            <g transform="translate(59.563 7.008)">
                <mask id="l" fill="#fff">
                    <use xlink:href="#k"/>
                </mask>
                <path fill="#26D198" d="M39.675 10.329c1.308.75 1.308 1.975 0 2.725l-16.901 9.684c-1.308.75-3.448.75-4.756 0L.981 12.976c-1.308-.75-1.308-1.976 0-2.725L17.882.567c1.308-.75 3.448-.75 4.756 0l17.037 9.762z" mask="url(#l)"/>
            </g>
            <path fill="#1CBA81" d="M79.96 28.942c-.654 0-1.27-.139-1.69-.38L61.232 18.8c-.12-.069-.199-.132-.247-.18.048-.046.127-.11.247-.179l16.902-9.684c.42-.24 1.036-.379 1.69-.379.653 0 1.268.138 1.689.38l17.037 9.761c.12.07.2.133.247.18-.048.047-.126.11-.247.18L81.65 28.562c-.42.24-1.036.379-1.69.379"/>
            <path fill="#13A36B" d="M79.96 28.942c-.654 0-1.27-.139-1.69-.38L61.232 18.8c-.12-.069-.199-.132-.247-.18.048-.046.127-.11.247-.179l16.902-9.684c.42-.24 1.036-.379 1.69-.379l.135 20.564z"/>
            <g>
                <g transform="translate(60.908 -.836)">
                    <mask id="n" fill="#fff">
                        <use xlink:href="#m"/>
                    </mask>
                    <path fill="#1E1D23" d="M7.886 29.277c1.969.39 4.082-.4 6.01-.957 1.54-.444 3.085-.96 4.403-1.868.774-.533 1.453-1.19 2.128-1.843.316-.307.635-.616.889-.976.18-.255.329-.54.564-.746.172-.151.387-.26.511-.452.274-.422-.032-.967-.33-1.374-.975.1-1.869.59-2.662 1.163-.793.574-1.518 1.24-2.34 1.77-1.7 1.095-3.723 1.557-5.707 1.963-1.62.33-3.322.612-4.899-.04a27.602 27.602 0 0 1-1.34-.615s-.301.746-.34 1.073c-.061.517-.063 1.403.334 1.704.765.581 1.803 1.005 2.78 1.198" mask="url(#n)"/>
                </g>
                <g transform="translate(60.908 -.836)">
                    <mask id="p" fill="#fff">
                        <use xlink:href="#o"/>
                    </mask>
                    <path fill="#1E1D23" d="M29.83 25.81c-.463.555-1.164.841-1.813 1.163a13.085 13.085 0 0 0-3.465 2.492c-.563.566-1.075 1.185-1.69 1.696-1.01.84-2.266 1.358-3.557 1.62-1.54.313-3.137.277-4.692.049-.964-.142-1.97-.384-2.675-1.053a2.26 2.26 0 0 1-.662-1.285c-.07-.478.359-2.255.359-2.255s1.853.337 2.85.453c4.31.5 8.946-.733 11.94-3.85.444-.46.864-.969 1.437-1.253 1.505-.746 3.15.81 1.968 2.224" mask="url(#p)"/>
                </g>
                <g transform="translate(60.908 -.836)">
                    <mask id="r" fill="#fff">
                        <use xlink:href="#q"/>
                    </mask>
                    <path fill="#B70808" d="M22.459 20.08l-.397-1.595s-.114-2.628-.093-2.576c.02.052 1.358.086 1.358.086l1.733-.463 1.665-1.256 1.466-.728 1.066.595-.2 2.183-.666 3.041-2.199.794-2.598.595-1.135-.676z" mask="url(#r)"/>
                </g>
                <g transform="translate(60.908 -.836)">
                    <mask id="t" fill="#fff">
                        <use xlink:href="#s"/>
                    </mask>
                    <path fill="#B70808" d="M15.53 16.178l-.398-1.594s-.454-2.245-.433-2.193c.02.052 1.699-.298 1.699-.298l1.732-.462 1.666-1.257 1.466-.727 1.066.595-.2 2.182-.666 3.042-2.199.793-2.599.595-1.135-.676z" mask="url(#t)"/>
                </g>
                <g transform="translate(60.908 -.836)">
                    <mask id="v" fill="#fff">
                        <use xlink:href="#u"/>
                    </mask>
                    <path fill="#1E1D23" d="M7.886 26.701c1.969.39 4.082-.4 6.01-.957 1.54-.444 3.085-.961 4.403-1.868.774-.533 1.453-1.19 2.128-1.843.316-.307.635-.616.889-.976.18-.256.329-.54.564-.746.172-.151.387-.26.511-.452.274-.422-.032-.967-.33-1.374-.975.1-1.869.59-2.662 1.163-.793.574-1.518 1.24-2.34 1.77-1.7 1.095-3.723 1.557-5.707 1.963-1.62.33-3.322.612-4.899-.04-.562-.232-1.34-.615-1.34-.615s-.301.746-.34 1.073c-.061.517-.063 1.403.334 1.704.765.581 1.803 1.005 2.78 1.198" mask="url(#v)"/>
                </g>
                <g transform="translate(60.908 -.836)">
                    <mask id="x" fill="#fff">
                        <use xlink:href="#w"/>
                    </mask>
                    <path fill="#DD0A0A" d="M14.699 12.391s2.188-.61 2.97-1.017c.78-.407 2.146-1.886 3.597-1.995.31-.024.637 0 .903.16.433.258.593.794.702 1.284.42 1.885.606 3.822.554 5.752-.01.351-.03.714-.185 1.03-.145.294-.394.523-.638.743-1.444 1.31-2.896 2.627-4.543 3.673-.919.584-1.892 1.08-2.883 1.531-.828.376-1.67.722-2.527 1.027-.11.039-.714.221-.826.188-.138-.04.013-.216-.056-.341-.598-1.082-.8-2.448-.472-3.638.27-.983 1.026-1.75 1.773-2.449a54.018 54.018 0 0 1 2.449-2.156c.236-.195.478-.391.764-.502.51-.198 1.081-.099 1.63-.108a4.052 4.052 0 0 0 3.065-1.517 3.987 3.987 0 0 0 .743-3.318c-.045-.193-.108-.389-.241-.535-.276-.3-.772-.294-1.139-.113-.423.21-1.109 1.071-2.046 1.575-.937.504-2.97 1.036-2.97 1.036l-.624-.31z" mask="url(#x)"/>
                </g>
                <g transform="translate(60.908 -.836)">
                    <mask id="z" fill="#fff">
                        <use xlink:href="#y"/>
                    </mask>
                    <path fill="#FFF" d="M16.896 12.89c-.354-.232-.796-.271-1.21-.365a4.331 4.331 0 0 1-1.02-.374c-.171-.088-.342-.19-.533-.216-.373-.053-.733.201-.927.522-.194.321-.258.7-.335 1.066a13.46 13.46 0 0 1-.438 1.6c-.139.406-.299.809-.548 1.157-.16.224-.355.421-.549.618-.712.721-1.445 1.458-2.367 1.887-.456.212-.947.343-1.4.563-.369.179-.708.416-1.022.68-.597.5-1.12 1.125-1.336 1.87-.217.745-.078 1.623.486 2.16.43.41 1.036.576 1.62.689 1.343.26 2.724.322 4.085.187.154-.016.327-.043.42-.167.123-.16.047-.388-.028-.575-.328-.82-.564-1.69-.54-2.572.024-.881.33-1.778.96-2.4.315-.311.7-.544 1.04-.829.3-.25.566-.54.844-.816.866-.856 1.924-1.347 2.85-2.097.753-.61.798-2.034-.052-2.589" mask="url(#z)"/>
                </g>
                <g transform="translate(60.908 -.836)">
                    <mask id="B" fill="#fff">
                        <use xlink:href="#A"/>
                    </mask>
                    <path fill="#1E1D23" d="M29.83 23.235c-.463.554-1.164.84-1.813 1.161a13.086 13.086 0 0 0-3.465 2.493c-.563.566-1.075 1.185-1.69 1.696-1.01.84-2.266 1.358-3.557 1.62-1.54.313-3.137.277-4.692.049-.964-.142-1.97-.384-2.675-1.054a2.259 2.259 0 0 1-.662-1.284c-.07-.478.359-2.255.359-2.255s1.853.337 2.85.453c4.31.5 8.946-.734 11.94-3.85.444-.46.864-.969 1.437-1.253 1.505-.746 3.15.81 1.968 2.224" mask="url(#B)"/>
                </g>
                <g transform="translate(60.908 -.836)">
                    <mask id="D" fill="#fff">
                        <use xlink:href="#C"/>
                    </mask>
                    <path fill="#DD0A0A" d="M21.99 15.96c1.345-.178 2.738-.461 3.806-1.293.443-.345.815-.775 1.27-1.106.454-.33 1.032-.561 1.578-.424.528.133.924.59 1.124 1.093.2.504.234 1.054.267 1.594l.2 3.33c.053.884.072 1.87-.523 2.53-.273.304-.646.498-1 .704-3.153 1.839-5.452 5.14-8.962 6.161-.273.08-1.072.413-1.32.274-.234-.131.145-.676.06-.929-.29-.864-.738-1.8-.826-2.708-.048-.495.194-.973.38-1.435.234-.585.752-1.002 1.249-1.393l1.328-1.043c.945-.743 1.927-1.503 3.093-1.807 1.404-.365 3.093-.09 4.133-1.096.803-.776.871-2.019.827-3.131-.014-.377-.056-.796-.342-1.045-.311-.27-.804-.223-1.164-.02-.36.204-.63.53-.927.815a5.165 5.165 0 0 1-3.42 1.412l-.831-.482z" mask="url(#D)"/>
                </g>
                <g transform="translate(60.908 -.836)">
                    <mask id="F" fill="#fff">
                        <use xlink:href="#E"/>
                    </mask>
                    <path fill="#FFF" d="M12.85 27.694c-.672-.463-1.319-1.168-1.214-1.972.065-.5.412-.917.785-1.257a6.333 6.333 0 0 1 2.041-1.25c.516-.193 1.06-.32 1.549-.575.743-.388 1.306-1.044 1.793-1.724a15.11 15.11 0 0 0 1.775-3.267c.172-.439.328-.893.612-1.269.285-.376.733-.668 1.206-.63.198.016.387.088.572.159l1.708.654c.184.07.372.143.529.262.59.45.514 1.405.062 1.991-.452.586-1.158.908-1.81 1.264a13.727 13.727 0 0 0-3.752 3.007c-.358.408-.7.86-.809 1.39-.122.596.069 1.207.26 1.785.2.607.666 1.625.496 2.274-.169.64-1.033.512-1.643.496a7.73 7.73 0 0 1-4.16-1.338" mask="url(#F)"/>
                </g>
                <g transform="translate(60.908 -.836)">
                    <mask id="H" fill="#fff">
                        <use xlink:href="#G"/>
                    </mask>
                    <path fill="#231F20" d="M21.4 21.83a.235.235 0 0 1-.197-.108c-.555-.858-1.617-1.385-2.64-1.312a.232.232 0 1 1-.034-.464c1.189-.085 2.424.528 3.068 1.525a.231.231 0 0 1-.196.358" mask="url(#H)"/>
                </g>
                <g transform="translate(60.908 -.836)">
                    <mask id="J" fill="#fff">
                        <use xlink:href="#I"/>
                    </mask>
                    <path fill="#231F20" d="M20.421 22.865a.234.234 0 0 1-.2-.112 2.585 2.585 0 0 0-2.306-1.196.233.233 0 1 1-.028-.465c1.076-.065 2.174.506 2.734 1.42a.231.231 0 0 1-.2.353" mask="url(#J)"/>
                </g>
                <g transform="translate(60.908 -.836)">
                    <mask id="L" fill="#fff">
                        <use xlink:href="#K"/>
                    </mask>
                    <path fill="#231F20" d="M19.412 23.846a.235.235 0 0 1-.217-.144c-.158-.381-.529-.713-1.018-.912-.466-.189-.988-.254-1.493-.316a.233.233 0 0 1-.204-.26.234.234 0 0 1 .262-.202c.535.067 1.089.135 1.612.348.614.249 1.066.662 1.275 1.165a.232.232 0 0 1-.217.32" mask="url(#L)"/>
                </g>
                <g transform="translate(60.908 -.836)">
                    <mask id="N" fill="#fff">
                        <use xlink:href="#M"/>
                    </mask>
                    <path fill="#231F20" d="M14.372 17.934a.235.235 0 0 1-.198-.107c-.555-.857-1.615-1.384-2.64-1.312a.232.232 0 1 1-.034-.463c1.19-.086 2.424.527 3.069 1.524a.232.232 0 0 1-.197.358" mask="url(#N)"/>
                </g>
                <g transform="translate(60.908 -.836)">
                    <mask id="P" fill="#fff">
                        <use xlink:href="#O"/>
                    </mask>
                    <path fill="#231F20" d="M13.392 18.97a.235.235 0 0 1-.2-.111 2.586 2.586 0 0 0-2.306-1.197.232.232 0 1 1-.028-.464c1.077-.065 2.174.505 2.734 1.419a.231.231 0 0 1-.2.353" mask="url(#P)"/>
                </g>
                <g transform="translate(60.908 -.836)">
                    <mask id="R" fill="#fff">
                        <use xlink:href="#Q"/>
                    </mask>
                    <path fill="#231F20" d="M12.383 19.951a.234.234 0 0 1-.216-.144c-.217-.521-.731-.795-1.019-.911-.466-.19-.988-.254-1.493-.317a.233.233 0 0 1-.204-.26.234.234 0 0 1 .262-.201c.535.066 1.089.134 1.612.347.614.249 1.067.663 1.275 1.165a.232.232 0 0 1-.217.321" mask="url(#R)"/>
                </g>
            </g>
            <g>
                <g transform="translate(33 51.811)">
                    <mask id="T" fill="#fff">
                        <use xlink:href="#S"/>
                    </mask>
                    <path fill="#000" d="M39.675 10.392c1.308.75 1.308 1.976 0 2.725L22.774 22.8c-1.308.75-3.448.75-4.756 0L.981 13.039c-1.308-.75-1.308-1.976 0-2.725L17.882.63c1.308-.75 3.448-.75 4.756 0l17.037 9.762z" mask="url(#T)"/>
                </g>
                <path fill="#3E9FFF" d="M53.395 44.906c-.861 0-1.723-.187-2.377-.562l-17.037-9.762c-.638-.365-.962-.844-.978-1.325v23.978c.016.481.34.96.978 1.325l17.037 9.762c.654.375 1.516.562 2.377.562V44.906z"/>
                <path fill="#1F91DD" d="M53.395 44.906c.862 0 1.725-.187 2.379-.562l16.901-9.684c.672-.385.996-.896.978-1.403v23.978c.018.507-.306 1.018-.978 1.403l-16.901 9.684c-.654.375-1.517.562-2.379.562V44.906z"/>
                <path fill="#64B9FF" d="M72.675 31.935c1.308.75 1.308 1.975 0 2.725l-16.901 9.684c-1.308.75-3.448.75-4.756 0l-17.037-9.762c-1.308-.75-1.308-1.976 0-2.725l16.901-9.684c1.308-.75 3.448-.75 4.756 0l17.037 9.762z"/>
                <path fill="#3E9FFF" d="M53.396 43.54c-.653 0-1.27-.138-1.69-.379L34.67 33.4c-.12-.07-.2-.133-.247-.18.048-.046.126-.11.247-.18l16.902-9.683c.42-.241 1.036-.38 1.689-.38s1.27.139 1.69.38l17.037 9.762c.12.069.2.133.247.18a1.2 1.2 0 0 1-.247.179L55.086 43.16c-.42.24-1.037.38-1.69.38"/>
                <path fill="#1F91DD" d="M53.396 43.54c-.653 0-1.27-.138-1.69-.379L34.67 33.4c-.12-.07-.2-.133-.247-.18.048-.046.126-.11.247-.18l16.902-9.683c.42-.241 1.036-.38 1.689-.38l.136 20.564z"/>
                <g>
                    <g transform="translate(34.345 6.92)">
                        <mask id="V" fill="#fff">
                            <use xlink:href="#U"/>
                        </mask>
                        <path fill="#111D28" fill-opacity=".2" d="M7.496 38.219c.156.857.535 1.795 1.099 2.365.563.57 1.297.938 2.025 1.278.901.42 1.84.82 2.834.877 1.485.085 2.892-.6 4.219-1.268 1.36-.683 2.75-1.782 4.11-2.466 1.499-.754 3.222-1.805 3.792-3.374.22-.607.258-1.261.293-1.905.08-1.475.032-2.376.113-3.85.105-1.93.21-3.864.132-5.796-.11-2.663-1.188-11.971-1.188-11.971l-1.444-.69-17.498 9.87 1.468.78s-.082 15.452.045 16.15" mask="url(#V)"/>
                    </g>
                    <g transform="translate(34.345 6.92)">
                        <mask id="X" fill="#fff">
                            <use xlink:href="#W"/>
                        </mask>
                        <path fill="#000" d="M12.454 41.947l-2.096-1.95-.976-21.427 2.326-7.235 5.549 2.217-3.388 28.586z" mask="url(#X)"/>
                    </g>
                    <g transform="translate(34.345 6.92)">
                        <mask id="Z" fill="#fff">
                            <use xlink:href="#Y"/>
                        </mask>
                        <path fill="#48636F" d="M8.308 13.734l.882-.486c.386-.218.914-.18 1.493.165 1.155.687 2.072 2.333 2.05 3.677-.012.672-.256 1.141-.642 1.356l-.881.486-2.902-5.198z" mask="url(#Z)"/>
                    </g>
                    <g transform="translate(34.345 6.92)">
                        <mask id="ab" fill="#fff">
                            <use xlink:href="#aa"/>
                        </mask>
                        <path fill="#7E9AA6" d="M9.801 13.899c1.155.687 2.072 2.333 2.05 3.677-.012.672-.256 1.141-.641 1.356-.386.216-.913.177-1.49-.166-1.154-.687-2.072-2.334-2.05-3.678.012-.67.254-1.138.638-1.354.386-.218.914-.18 1.493.165" mask="url(#ab)"/>
                    </g>
                    <g transform="translate(34.345 6.92)">
                        <mask id="ad" fill="#fff">
                            <use xlink:href="#ac"/>
                        </mask>
                        <path fill="#D4E3EB" d="M9.792 14.456c.89.53 1.597 1.8 1.58 2.835-.009.518-.197.88-.494 1.046-.298.166-.704.136-1.149-.129-.89-.53-1.597-1.799-1.58-2.835.009-.516.196-.877.492-1.044.297-.168.705-.138 1.151.127" mask="url(#ad)"/>
                    </g>
                    <g transform="translate(34.345 6.92)">
                        <mask id="af" fill="#fff">
                            <use xlink:href="#ae"/>
                        </mask>
                        <path fill="#FFF" d="M9.77 15.716c.293.174.526.59.52.931-.003.17-.065.29-.162.344-.098.055-.232.045-.378-.042-.292-.174-.525-.591-.519-.932.003-.17.064-.288.161-.343.098-.055.232-.046.379.042" mask="url(#af)"/>
                    </g>
                    <g transform="translate(34.345 6.92)">
                        <mask id="ah" fill="#fff">
                            <use xlink:href="#ag"/>
                        </mask>
                        <path fill="#48636F" d="M8.239 34.55l.881-.487c.386-.217.915-.18 1.494.165 1.154.687 2.072 2.333 2.05 3.677-.012.672-.256 1.141-.642 1.356l-.882.487-2.901-5.199z" mask="url(#ah)"/>
                    </g>
                    <g transform="translate(34.345 6.92)">
                        <mask id="aj" fill="#fff">
                            <use xlink:href="#ai"/>
                        </mask>
                        <path fill="#7E9AA6" d="M9.732 34.714c1.154.687 2.072 2.333 2.05 3.677-.012.672-.256 1.142-.642 1.357-.385.215-.912.176-1.49-.167-1.154-.687-2.071-2.334-2.049-3.677.012-.67.254-1.138.638-1.355.385-.217.914-.18 1.493.165" mask="url(#aj)"/>
                    </g>
                    <g transform="translate(34.345 6.92)">
                        <mask id="al" fill="#fff">
                            <use xlink:href="#ak"/>
                        </mask>
                        <path fill="#D4E3EB" d="M9.723 35.272c.89.53 1.597 1.798 1.58 2.834-.01.518-.197.88-.495 1.046-.297.166-.703.136-1.148-.129-.89-.53-1.597-1.798-1.58-2.834.009-.517.196-.878.491-1.044.298-.168.705-.14 1.152.127" mask="url(#al)"/>
                    </g>
                    <g transform="translate(34.345 6.92)">
                        <mask id="an" fill="#fff">
                            <use xlink:href="#am"/>
                        </mask>
                        <path fill="#FFF" d="M9.702 36.53c.292.175.525.592.519.933-.003.17-.065.289-.163.343-.097.055-.23.045-.377-.042-.292-.174-.525-.591-.52-.932.004-.17.065-.288.162-.343.098-.055.232-.045.379.042" mask="url(#an)"/>
                    </g>
                    <g transform="translate(34.345 6.92)">
                        <mask id="ap" fill="#fff">
                            <use xlink:href="#ao"/>
                        </mask>
                        <path fill="#FEC100" d="M10.358 39.996c-.155.784.217 1.598.78 2.168.563.57 1.297.938 2.025 1.277.902.422 1.84.822 2.835.878 1.485.085 2.892-.6 4.219-1.268 1.359-.683 2.75-1.782 4.11-2.466 1.498-.754 3.221-1.805 3.792-3.374.22-.606.257-1.261.293-1.905.08-1.475.032-2.376.113-3.85.105-1.93.21-3.864.131-5.796-.11-2.663-.73-5.394-1.187-8.02-.578-3.311-.995-6.527-1.699-9.814-.252-1.18-.589-2.464-1.573-3.173-.923-.664-2.994-1.116-4.088-.8-1.122.324-4.27 1.65-5.44 2.535-1.466 1.108-5.401 4.816-4.568 6.966 0 0 2.761 1.402 2.292 5.163-.249 1.995-3.011.053-3.011.053l.188 15.25s2.63 1.62 2.707 4.568c.077 2.949-1.92 1.608-1.92 1.608" mask="url(#ap)"/>
                    </g>
                    <g transform="translate(34.345 6.92)">
                        <mask id="ar" fill="#fff">
                            <use xlink:href="#aq"/>
                        </mask>
                        <path fill="#FFF" d="M24.175 6.705l-.882.148a.588.588 0 0 1-.258.004.588.588 0 0 1-.155-.08L21.56 5.91c-.13-.086-.279-.235-.202-.37.035-.063.108-.094.178-.117.861-.288 1.802-.115 2.693.061.123.024.248.05.354.116a.918.918 0 0 1 .242.25c.172.236.392.536.428.816-.36.03-.711-.023-1.08.038" mask="url(#ar)"/>
                    </g>
                    <g transform="translate(34.345 6.92)">
                        <mask id="at" fill="#fff">
                            <use xlink:href="#as"/>
                        </mask>
                        <path fill="#FFF" d="M15.9 10.83c.127-.084.269-.174.311-.32a.596.596 0 0 0 .005-.23l-.153-1.425c-.018-.166-.116-.388-.276-.337a.283.283 0 0 0-.115.09 20.21 20.21 0 0 0-2.312 3.087c-.09.15-.18.303-.213.473-.143.745.509 1.145.987.577.574-.682 1.002-1.405 1.767-1.914" mask="url(#at)"/>
                    </g>
                    <g transform="translate(34.345 6.92)">
                        <mask id="av" fill="#fff">
                            <use xlink:href="#au"/>
                        </mask>
                        <path fill="#48636F" d="M16.368 9.542s.844-1.125 2.725-2.067c1.882-.942 2.847-1.182 2.847-1.182l-.581-.752s-1.743.346-2.917 1.112c-1.174.766-2.34 1.7-2.34 1.7l.266 1.19z" mask="url(#av)"/>
                    </g>
                    <g transform="translate(34.345 6.92)">
                        <mask id="ax" fill="#fff">
                            <use xlink:href="#aw"/>
                        </mask>
                        <path fill="#DFAA25" d="M11.436 34.991c.052.063.122.152.207.26.646.82 2.363 2.999 3.324 2.941.182-.01.319-.106.436-.286.355-.583.267-1.604.203-2.35l-.028-.348c-.071-1.015-.235-2.023-.393-2.997l-.296-1.817a13.939 13.939 0 0 1-4.55-2.572c-.02 1.513.009 3.044.09 4.554.026.503.06.953.214 1.371.17.463.485.869.793 1.244zm-1.125-7.44a13.737 13.737 0 0 0 4.692 2.685l.053.018.314 1.927c.159.979.323 1.99.395 3.015l.028.344c.066.771.157 1.828-.23 2.462-.15.228-.34.362-.585.376-1.059.063-2.757-2.092-3.483-3.012a17.827 17.827 0 0 0-.204-.257c-.318-.388-.644-.808-.825-1.298-.162-.442-.198-.907-.225-1.425a68.704 68.704 0 0 1-.086-4.767l.003-.202.153.133z" mask="url(#ax)"/>
                    </g>
                    <g transform="translate(34.345 6.92)">
                        <mask id="az" fill="#fff">
                            <use xlink:href="#ay"/>
                        </mask>
                        <path fill="#DFAA25" d="M10.454 20.53c-.11.174-.17.428-.176.752l-.111 6.41.187.004.111-6.41c.004-.233.052-.78.4-.835.13-.02.266.038.418.11l3.373 1.615.081-.168-3.373-1.614c-.14-.066-.33-.158-.528-.126a.54.54 0 0 0-.382.262" mask="url(#az)"/>
                    </g>
                    <g transform="translate(34.345 6.92)">
                        <mask id="aB" fill="#fff">
                            <use xlink:href="#aA"/>
                        </mask>
                        <path fill="#3E5D77" d="M18.066 40.929c.46-.638.641-1.428.783-2.199.41-2.23.573-4.505.484-6.771-.035-.871-.107-1.746-.314-2.593-.408-1.67-1.32-3.17-2.22-4.64-.55-.898-1.113-1.811-1.911-2.502-.113-.097-.264-.195-.4-.135-.162.073-.16.298-.134.472.345 2.3.392 4.633.499 6.956.087 1.9.216 3.798.344 5.695l.115 1.7c.092 1.359.184 2.718.346 4.07.074.615.039 1.557.87 1.218.58-.236 1.18-.772 1.538-1.271" mask="url(#aB)"/>
                    </g>
                    <g transform="translate(34.345 6.92)">
                        <mask id="aD" fill="#fff">
                            <use xlink:href="#aC"/>
                        </mask>
                        <path fill="#FFF" d="M16.233 44.436c-.358-.498-.173-1.198-.369-1.777-.842.223-1.76.5-2.235 1.226" mask="url(#aD)"/>
                    </g>
                    <g transform="translate(34.345 6.92)">
                        <mask id="aF" fill="#fff">
                            <use xlink:href="#aE"/>
                        </mask>
                        <path fill="#40A0FF" d="M18.723 42.868a.986.986 0 0 1 .278-.184c.163-.062.345-.033.52-.036.38-.006.74-.167 1.086-.324l2.235-1.016c-1.167.942-2.57 1.54-3.953 2.128-.447.19-1.034.562-1.515.598.354-.438.911-.797 1.349-1.166" mask="url(#aF)"/>
                    </g>
                    <g transform="translate(34.345 6.92)">
                        <mask id="aH" fill="#fff">
                            <use xlink:href="#aG"/>
                        </mask>
                        <path fill="#DFAA25" d="M27.36 16.985c.32-.053.648-.05.966.007.334.06.655.18.989.24a.43.43 0 0 0 .186.004c.13-.035.205-.181.197-.315-.008-.133-.082-.254-.165-.36-.57-.726-1.717-.925-2.502-.433" mask="url(#aH)"/>
                    </g>
                    <g transform="translate(34.345 6.92)">
                        <mask id="aJ" fill="#fff">
                            <use xlink:href="#aI"/>
                        </mask>
                        <path fill="#DFAA25" d="M15.895 22.833c-.77.381-1.185 1.209-1.574 1.97-.043.084-.091.173-.175.217a.337.337 0 0 1-.262.005c-.335-.114-.487-.524-.425-.87s.281-.64.495-.921c.319-.42.678-.866 1.191-.997" mask="url(#aJ)"/>
                    </g>
                    <g transform="translate(34.345 6.92)">
                        <mask id="aL" fill="#fff">
                            <use xlink:href="#aK"/>
                        </mask>
                        <path fill="#3E5D77" d="M13.487 27.317c.076.588.092 1.184.049 1.776-.116.06-.258-.052-.289-.178-.03-.126-.039-.474-.039-.603 0-.436.03-.624.124-.987.01-.123.104-.107.155-.008" mask="url(#aL)"/>
                    </g>
                    <g transform="translate(34.345 6.92)">
                        <mask id="aN" fill="#fff">
                            <use xlink:href="#aM"/>
                        </mask>
                        <path fill="#B70808" d="M13.805 34.994c.076.588.092 1.184.049 1.776-.116.06-.258-.052-.289-.178-.03-.126-.039-.474-.039-.603 0-.436.03-.624.124-.987.01-.123.104-.107.155-.008" mask="url(#aN)"/>
                    </g>
                    <g transform="translate(34.345 6.92)">
                        <mask id="aP" fill="#fff">
                            <use xlink:href="#aO"/>
                        </mask>
                        <path fill="#FFF" d="M16.056 7.404s1.094-.905 2.075-1.442c.98-.538 1.865-.916 1.865-.916l-.842-.537s-.793.468-1.73.995c-.939.527-2.08 1.33-2.08 1.33l.712.57z" mask="url(#aP)"/>
                    </g>
                    <g transform="translate(34.345 6.92)">
                        <mask id="aR" fill="#fff">
                            <use xlink:href="#aQ"/>
                        </mask>
                        <path fill="#48636F" d="M11.57 10.304s2.873-3.427 5.558-4.794c2.686-1.368 4.851-1.454 4.851-1.454s-1.812-.5-5.017 1.246-5.392 5.002-5.392 5.002" mask="url(#aR)"/>
                    </g>
                    <g transform="translate(34.345 6.92)">
                        <mask id="aT" fill="#fff">
                            <use xlink:href="#aS"/>
                        </mask>
                        <path fill="#DFAA25" d="M15.871 11.797a2.856 2.856 0 0 0-.277.563c-.184.515-.199 1.071-.197 1.552a20.3 20.3 0 0 0 .567 4.722c.072.301.235.82.509.913l.06-.176c-.13-.045-.285-.358-.387-.78a20.133 20.133 0 0 1-.562-4.68c-.001-.464.013-1.001.187-1.489.28-.78.943-1.369 1.555-1.842a16.774 16.774 0 0 1 4.761-2.574c.444-.154.957-.308 1.44-.188.659.163 1.16.795 1.533 1.931.362 1.103.567 2.899.716 4.21l.04.354.187-.021-.04-.354c-.151-1.32-.357-3.126-.725-4.247-.395-1.202-.939-1.874-1.665-2.054-.533-.132-1.078.03-1.547.194-1.74.603-3.36 1.479-4.815 2.602-.48.371-.992.813-1.34 1.364" mask="url(#aT)"/>
                    </g>
                    <g transform="translate(34.345 6.92)">
                        <mask id="aV" fill="#fff">
                            <use xlink:href="#aU"/>
                        </mask>
                        <path fill="#3E5D77" d="M16.93 18.496c-.63.61-1.29 1.322-1.307 2.195-.012.633.322 1.216.65 1.758a103.991 103.991 0 0 0 3.025 4.735c2.676-1.97 5.458-3.845 8.635-4.843-.112-1.538-.555-2.765-.799-4.257-.21-1.282-.219-3.382-.738-4.01-.836-1.014-3.434.072-5.082.99-1.747.973-3.31 2.389-4.384 3.432" mask="url(#aV)"/>
                    </g>
                </g>
            </g>
            <g>
                <g transform="translate(85.561 51.006)">
                    <mask id="aX" fill="#fff">
                        <use xlink:href="#aW"/>
                    </mask>
                    <path fill="#000" d="M39.675 10.392c1.308.75 1.308 1.975 0 2.725L22.774 22.8c-1.308.75-3.448.75-4.756 0L.981 13.039c-1.308-.75-1.308-1.976 0-2.725L17.882.63c1.308-.75 3.448-.75 4.756 0l17.037 9.762z" mask="url(#aX)"/>
                </g>
                <path fill="#F3C017" d="M105.957 44.1c-.862 0-1.724-.187-2.377-.562l-17.038-9.762c-.637-.365-.962-.843-.977-1.325V56.43c.015.48.34.96.977 1.324l17.038 9.763c.653.374 1.515.562 2.377.562V44.1z"/>
                <path fill="#DFAA25" d="M105.957 44.1c.862 0 1.724-.187 2.378-.562l16.901-9.684c.672-.385.996-.895.978-1.403V56.43c.018.507-.306 1.017-.978 1.402l-16.9 9.685c-.655.374-1.517.562-2.38.562V44.1z"/>
                <g transform="translate(85.561 20.8)">
                    <mask id="aZ" fill="#fff">
                        <use xlink:href="#aY"/>
                    </mask>
                    <path fill="#FBCC43" d="M39.675 10.329c1.308.75 1.308 1.975 0 2.725l-16.901 9.684c-1.308.75-3.448.75-4.756 0L.981 12.976c-1.308-.75-1.308-1.976 0-2.725L17.882.567c1.308-.75 3.448-.75 4.756 0l17.037 9.762z" mask="url(#aZ)"/>
                </g>
                <path fill="#F3C017" d="M105.957 42.734c-.653 0-1.269-.138-1.69-.379L87.23 32.593c-.12-.069-.199-.132-.246-.18.047-.046.126-.11.246-.179l16.902-9.684c.42-.24 1.036-.379 1.69-.379.653 0 1.269.138 1.689.38l17.038 9.761c.12.07.198.133.246.18-.048.047-.126.11-.246.18l-16.902 9.683c-.42.241-1.036.38-1.69.38"/>
                <path fill="#DFAA25" d="M105.957 42.734c-.653 0-1.269-.138-1.69-.379L87.23 32.593c-.12-.069-.199-.132-.246-.18.047-.046.126-.11.246-.179l16.902-9.684c.42-.24 1.036-.379 1.69-.379l.135 20.563z"/>
                <g>
                    <g transform="translate(86.907 8.118)">
                        <mask id="bb" fill="#fff">
                            <use xlink:href="#ba"/>
                        </mask>
                        <path fill="#111D28" fill-opacity=".3" d="M12.26 28.645c3.73-2.137 9.797-2.126 13.551.025 1.877 1.075 2.82 2.482 2.828 3.887.008 1.405-.92 2.809-2.785 3.877-3.731 2.138-9.798 2.127-13.552-.024-1.877-1.075-2.82-2.482-2.828-3.887-.008-1.405.92-2.809 2.786-3.878" mask="url(#bb)"/>
                    </g>
                    <g transform="translate(86.907 8.118)">
                        <mask id="bd" fill="#fff">
                            <use xlink:href="#bc"/>
                        </mask>
                        <path fill="#13A36B" d="M19.111 3.393s-.416.28-.416 1.226c0 .947.648 2.707 1.321 2.707.673 0 .93-.182.93-.182l-.93 1.105-3.437 2.343-1.199-1.19-.477-.959s1.541-.036 2.691-.777c1.15-.74 1.089-1.201 1.089-1.201s-.391-.996-.391-1.834c0-1.068.82-1.238.82-1.238" mask="url(#bd)"/>
                    </g>
                    <g transform="translate(86.907 8.118)">
                        <mask id="bf" fill="#fff">
                            <use xlink:href="#be"/>
                        </mask>
                        <path fill="#1CBA81" d="M16.448 9.663c-.422 0-1.613-1.583-1.613-2.729 0-1.146.348-1.528.715-1.528.806 0 1.54 1.62 1.54 3.183 0 .637-.22 1.074-.642 1.074m6.883 6.258s-.538-.558-.342-4.734c.014-.313.807-1.093.807-1.93 0-.838-2.459-6.337-3.963-6.337-1.083 0-1.37.928-1.37.928s.495-.546 1.088-.546c.594 0 1.432 1.481 1.432 2.67 0 1.19-.685 1.518-1.242 1.518-.557 0-1.547-.4-2.086-1.007-.538-.607-1.076-1.536-1.969-1.536s-1.407.85-1.407 1.663c0 .814 1.725 4.941 1.725 6.823 0 3.387-5.872 8.219-5.872 16.85 0 1.517 1.946 4.297 3.902 4.564 0 0 1.053.863 3.78.292 0 0 2.802.74 5.187-1.372 0 0 2.067-.23 3.278-2.5 0 0 1.331-1.485 1.393-2.94l.002-.084c.012-1.48-.086-8.194-4.343-12.322" mask="url(#bf)"/>
                    </g>
                    <g transform="translate(86.907 8.118)">
                        <mask id="bh" fill="#fff">
                            <use xlink:href="#bg"/>
                        </mask>
                        <path fill="#13A36B" d="M13.166 34.572a2.88 2.88 0 0 0 .872.278c.195-4.121 1.367-11.79 1.367-11.79s-1.82 7.662-2.24 11.512" mask="url(#bh)"/>
                    </g>
                    <g transform="translate(86.907 8.118)">
                        <mask id="bj" fill="#fff">
                            <use xlink:href="#bi"/>
                        </mask>
                        <path fill="#13A36B" d="M17.72 35.157c-.003-1.937.02-6.029.205-12.51 0 0-.669 8.64-.841 12.617.2-.026.413-.062.636-.107" mask="url(#bj)"/>
                    </g>
                    <g transform="translate(86.907 8.118)">
                        <mask id="bl" fill="#fff">
                            <use xlink:href="#bk"/>
                        </mask>
                        <path fill="#13A36B" d="M23.032 33.763c-.252-6.296-2.025-12.937-2.025-12.937s1.247 6.451 1.362 13.431c.212-.143.424-.306.632-.49l.031-.004" mask="url(#bl)"/>
                    </g>
                    <g transform="translate(86.907 8.118)">
                        <mask id="bn" fill="#fff">
                            <use xlink:href="#bm"/>
                        </mask>
                        <path fill="#13A36B" d="M26.28 31.266s.1-.113.248-.307c-.644-6.57-3.466-11.468-3.466-11.468s2.427 6.087 2.99 12.162c.079-.122.155-.25.227-.387" mask="url(#bn)"/>
                    </g>
                </g>
            </g>
        </g>
    </g>
</svg>
