<svg xmlns="http://www.w3.org/2000/svg" xmlns:xlink="http://www.w3.org/1999/xlink" width="160" height="160" viewBox="0 0 160 160">
    <defs>
        <path id="a" d="M10 0h140c5.523 0 10 4.477 10 10v140c0 5.523-4.477 10-10 10H10c-5.523 0-10-4.477-10-10V10C0 4.477 4.477 0 10 0z"/>
        <path id="c" d="M0 .853h174v79H0z"/>
        <path id="e" d="M0 .05h277.995v17.894H0z"/>
        <path id="g" d="M0 .003h182.974v220.97H0z"/>
        <path id="i" d="M0 .085h50.171V29.05H0z"/>
        <path id="k" d="M0 .006h50.171v28.966H0z"/>
        <path id="m" d="M.4.003V23.97a1.505 1.505 0 0 0-.305.223c.059.059.156.138.304.224l21.026 12.139c.518.299 1.278.47 2.085.47.806 0 1.566-.171 2.085-.47l20.857-12.042c.148-.086.246-.165.304-.224a1.484 1.484 0 0 0-.304-.223V.1"/>
        <path id="o" d="M.4.003V23.97a1.505 1.505 0 0 0-.305.223c.059.059.156.138.304.224l21.026 12.139c.518.299 1.278.47 2.085.47.806 0 1.566-.171 2.085-.47l20.857-12.042c.148-.086.246-.165.304-.224a1.484 1.484 0 0 0-.304-.223V.1"/>
        <path id="q" d="M.4.003V23.97a1.505 1.505 0 0 0-.305.223c.059.059.156.138.304.224l21.026 12.139c.518.299 1.278.47 2.085.47.806 0 1.566-.171 2.085-.47l20.857-12.042c.148-.086.246-.165.304-.224a1.484 1.484 0 0 0-.304-.223V.1L.399.003z"/>
        <path id="s" d="M.4.003V23.97a1.505 1.505 0 0 0-.305.223c.059.059.156.138.304.224l21.026 12.139c.518.299 1.278.47 2.085.47.806 0 1.566-.171 2.085-.47l20.857-12.042c.148-.086.246-.165.304-.224a1.484 1.484 0 0 0-.304-.223V.1L.399.003z"/>
        <path id="u" d="M.4.003V23.97a1.505 1.505 0 0 0-.305.223c.059.059.156.138.304.224l21.026 12.139c.518.299 1.278.47 2.085.47.806 0 1.566-.171 2.085-.47l20.857-12.042c.148-.086.246-.165.304-.224a1.484 1.484 0 0 0-.304-.223V.1"/>
        <path id="w" d="M.4.003V23.97a1.505 1.505 0 0 0-.305.223c.059.059.156.138.304.224l21.026 12.139c.518.299 1.278.47 2.085.47.806 0 1.566-.171 2.085-.47l20.857-12.042c.148-.086.246-.165.304-.224a1.484 1.484 0 0 0-.304-.223V.1L.399.003z"/>
        <path id="y" d="M.4.003V23.97a1.505 1.505 0 0 0-.305.223c.059.059.156.138.304.224l21.026 12.139c.518.299 1.278.47 2.085.47.806 0 1.566-.171 2.085-.47l20.857-12.042c.148-.086.246-.165.304-.224a1.484 1.484 0 0 0-.304-.223V.1"/>
        <path id="A" d="M.4.003V23.97a1.505 1.505 0 0 0-.305.223c.059.059.156.138.304.224l21.026 12.139c.518.299 1.278.47 2.085.47.806 0 1.566-.171 2.085-.47l20.857-12.042c.148-.086.246-.165.304-.224a1.484 1.484 0 0 0-.304-.223V.1"/>
        <path id="C" d="M.4.003V23.97a1.505 1.505 0 0 0-.305.223c.059.059.156.138.304.224l21.026 12.139c.518.299 1.278.47 2.085.47.806 0 1.566-.171 2.085-.47l20.857-12.042c.148-.086.246-.165.304-.224a1.484 1.484 0 0 0-.304-.223V.1L.399.003z"/>
        <path id="E" d="M.4.003V23.97a1.505 1.505 0 0 0-.305.223c.059.059.156.138.304.224l21.026 12.139c.518.299 1.278.47 2.085.47.806 0 1.566-.171 2.085-.47l20.857-12.042c.148-.086.246-.165.304-.224a1.484 1.484 0 0 0-.304-.223V.1"/>
        <path id="G" d="M.4.003V23.97a1.505 1.505 0 0 0-.305.223c.059.059.156.138.304.224l21.026 12.139c.518.299 1.278.47 2.085.47.806 0 1.566-.171 2.085-.47l20.857-12.042c.148-.086.246-.165.304-.224a1.484 1.484 0 0 0-.304-.223V.1"/>
        <path id="I" d="M.4.003V23.97a1.505 1.505 0 0 0-.305.223c.059.059.156.138.304.224l21.026 12.139c.518.299 1.278.47 2.085.47.806 0 1.566-.171 2.085-.47l20.857-12.042c.148-.086.246-.165.304-.224a1.484 1.484 0 0 0-.304-.223V.1"/>
        <path id="K" d="M.4.003V23.97a1.505 1.505 0 0 0-.305.223c.059.059.156.138.304.224l21.026 12.139c.518.299 1.278.47 2.085.47.806 0 1.566-.171 2.085-.47l20.857-12.042c.148-.086.246-.165.304-.224a1.484 1.484 0 0 0-.304-.223V.1"/>
        <path id="M" d="M.4.003V23.97a1.505 1.505 0 0 0-.305.223c.059.059.156.138.304.224l21.026 12.139c.518.299 1.278.47 2.085.47.806 0 1.566-.171 2.085-.47l20.857-12.042c.148-.086.246-.165.304-.224a1.484 1.484 0 0 0-.304-.223V.1"/>
        <path id="O" d="M.4.003V23.97a1.505 1.505 0 0 0-.305.223c.059.059.156.138.304.224l21.026 12.139c.518.299 1.278.47 2.085.47.806 0 1.566-.171 2.085-.47l20.857-12.042c.148-.086.246-.165.304-.224a1.484 1.484 0 0 0-.304-.223V.1"/>
        <path id="Q" d="M.4.003V23.97a1.505 1.505 0 0 0-.305.223c.059.059.156.138.304.224l21.026 12.139c.518.299 1.278.47 2.085.47.806 0 1.566-.171 2.085-.47l20.857-12.042c.148-.086.246-.165.304-.224a1.484 1.484 0 0 0-.304-.223V.1"/>
        <path id="S" d="M0 .084h50.171v28.967H0z"/>
        <path id="U" d="M.4.123v32.355a1.495 1.495 0 0 0-.305.223c.059.059.156.137.305.223l21.025 12.14c.518.299 1.278.47 2.085.47.806 0 1.566-.171 2.084-.47L46.452 33.02c.148-.086.246-.165.304-.223a1.493 1.493 0 0 0-.304-.223V.22"/>
        <path id="W" d="M.4.123v32.355a1.495 1.495 0 0 0-.305.223c.059.059.156.137.305.223l21.025 12.14c.518.299 1.278.47 2.085.47.806 0 1.566-.171 2.084-.47L46.452 33.02c.148-.086.246-.165.304-.223a1.493 1.493 0 0 0-.304-.223V.22L.4.123z"/>
        <path id="Y" d="M.4.123v32.355a1.495 1.495 0 0 0-.305.223c.059.059.156.137.305.223l21.025 12.14c.518.299 1.278.47 2.085.47.806 0 1.566-.171 2.084-.47L46.452 33.02c.148-.086.246-.165.304-.223a1.493 1.493 0 0 0-.304-.223V.22L.4.123z"/>
        <path id="aa" d="M.4.123v32.355a1.495 1.495 0 0 0-.305.223c.059.059.156.137.305.223l21.025 12.14c.518.299 1.278.47 2.085.47.806 0 1.566-.171 2.084-.47L46.452 33.02c.148-.086.246-.165.304-.223a1.493 1.493 0 0 0-.304-.223V.22"/>
        <path id="ac" d="M.4.123v32.355a1.495 1.495 0 0 0-.305.223c.059.059.156.137.305.223l21.025 12.14c.518.299 1.278.47 2.085.47.806 0 1.566-.171 2.084-.47L46.452 33.02c.148-.086.246-.165.304-.223a1.493 1.493 0 0 0-.304-.223V.22"/>
        <path id="ae" d="M.4.123v32.355a1.495 1.495 0 0 0-.305.223c.059.059.156.137.305.223l21.025 12.14c.518.299 1.278.47 2.085.47.806 0 1.566-.171 2.084-.47L46.452 33.02c.148-.086.246-.165.304-.223a1.493 1.493 0 0 0-.304-.223V.22"/>
        <path id="ag" d="M.4.123v32.355a1.495 1.495 0 0 0-.305.223c.059.059.156.137.305.223l21.025 12.14c.518.299 1.278.47 2.085.47.806 0 1.566-.171 2.084-.47L46.452 33.02c.148-.086.246-.165.304-.223a1.493 1.493 0 0 0-.304-.223V.22L.4.123z"/>
        <path id="ai" d="M.4.123v32.355a1.495 1.495 0 0 0-.305.223c.059.059.156.137.305.223l21.025 12.14c.518.299 1.278.47 2.085.47.806 0 1.566-.171 2.084-.47L46.452 33.02c.148-.086.246-.165.304-.223a1.493 1.493 0 0 0-.304-.223V.22"/>
        <path id="ak" d="M.4.123v32.355a1.495 1.495 0 0 0-.305.223c.059.059.156.137.305.223l21.025 12.14c.518.299 1.278.47 2.085.47.806 0 1.566-.171 2.084-.47L46.452 33.02c.148-.086.246-.165.304-.223a1.493 1.493 0 0 0-.304-.223V.22"/>
        <path id="am" d="M.4.123v32.355a1.495 1.495 0 0 0-.305.223c.059.059.156.137.305.223l21.025 12.14c.518.299 1.278.47 2.085.47.806 0 1.566-.171 2.084-.47L46.452 33.02c.148-.086.246-.165.304-.223a1.493 1.493 0 0 0-.304-.223V.22"/>
        <path id="ao" d="M.4.123v32.355a1.495 1.495 0 0 0-.305.223c.059.059.156.137.305.223l21.025 12.14c.518.299 1.278.47 2.085.47.806 0 1.566-.171 2.084-.47L46.452 33.02c.148-.086.246-.165.304-.223a1.493 1.493 0 0 0-.304-.223V.22"/>
        <path id="aq" d="M.4.123v32.355a1.495 1.495 0 0 0-.305.223c.059.059.156.137.305.223l21.025 12.14c.518.299 1.278.47 2.085.47.806 0 1.566-.171 2.084-.47L46.452 33.02c.148-.086.246-.165.304-.223a1.493 1.493 0 0 0-.304-.223V.22"/>
        <path id="as" d="M.4.123v32.355a1.495 1.495 0 0 0-.305.223c.059.059.156.137.305.223l21.025 12.14c.518.299 1.278.47 2.085.47.806 0 1.566-.171 2.084-.47L46.452 33.02c.148-.086.246-.165.304-.223a1.493 1.493 0 0 0-.304-.223V.22"/>
        <path id="au" d="M.4.123v32.355a1.495 1.495 0 0 0-.305.223c.059.059.156.137.305.223l21.025 12.14c.518.299 1.278.47 2.085.47.806 0 1.566-.171 2.084-.47L46.452 33.02c.148-.086.246-.165.304-.223a1.493 1.493 0 0 0-.304-.223V.22L.4.123z"/>
        <path id="aw" d="M.4.123v32.355a1.495 1.495 0 0 0-.305.223c.059.059.156.137.305.223l21.025 12.14c.518.299 1.278.47 2.085.47.806 0 1.566-.171 2.084-.47L46.452 33.02c.148-.086.246-.165.304-.223a1.493 1.493 0 0 0-.304-.223V.22L.4.123z"/>
        <path id="ay" d="M.4.123v32.355a1.495 1.495 0 0 0-.305.223c.059.059.156.137.305.223l21.025 12.14c.518.299 1.278.47 2.085.47.806 0 1.566-.171 2.084-.47L46.452 33.02c.148-.086.246-.165.304-.223a1.493 1.493 0 0 0-.304-.223V.22"/>
        <path id="aA" d="M.4.123v32.355a1.495 1.495 0 0 0-.305.223c.059.059.156.137.305.223l21.025 12.14c.518.299 1.278.47 2.085.47.806 0 1.566-.171 2.084-.47L46.452 33.02c.148-.086.246-.165.304-.223a1.493 1.493 0 0 0-.304-.223V.22"/>
        <path id="aC" d="M.4.123v32.355a1.495 1.495 0 0 0-.305.223c.059.059.156.137.305.223l21.025 12.14c.518.299 1.278.47 2.085.47.806 0 1.566-.171 2.084-.47L46.452 33.02c.148-.086.246-.165.304-.223a1.493 1.493 0 0 0-.304-.223V.22"/>
        <path id="aE" d="M.4.123v32.355a1.495 1.495 0 0 0-.305.223c.059.059.156.137.305.223l21.025 12.14c.518.299 1.278.47 2.085.47.806 0 1.566-.171 2.084-.47L46.452 33.02c.148-.086.246-.165.304-.223a1.493 1.493 0 0 0-.304-.223V.22"/>
        <path id="aG" d="M.4.123v32.355a1.495 1.495 0 0 0-.305.223c.059.059.156.137.305.223l21.025 12.14c.518.299 1.278.47 2.085.47.806 0 1.566-.171 2.084-.47L46.452 33.02c.148-.086.246-.165.304-.223a1.493 1.493 0 0 0-.304-.223V.22"/>
        <path id="aI" d="M.4.123v32.355a1.495 1.495 0 0 0-.305.223c.059.059.156.137.305.223l21.025 12.14c.518.299 1.278.47 2.085.47.806 0 1.566-.171 2.084-.47L46.452 33.02c.148-.086.246-.165.304-.223a1.493 1.493 0 0 0-.304-.223V.22"/>
        <path id="aK" d="M.4.123v32.355a1.495 1.495 0 0 0-.305.223c.059.059.156.137.305.223l21.025 12.14c.518.299 1.278.47 2.085.47.806 0 1.566-.171 2.084-.47L46.452 33.02c.148-.086.246-.165.304-.223a1.493 1.493 0 0 0-.304-.223V.22"/>
        <path id="aM" d="M.4.123v32.355a1.495 1.495 0 0 0-.305.223c.059.059.156.137.305.223l21.025 12.14c.518.299 1.278.47 2.085.47.806 0 1.566-.171 2.084-.47L46.452 33.02c.148-.086.246-.165.304-.223a1.493 1.493 0 0 0-.304-.223V.22"/>
        <path id="aO" d="M.4.123v32.355a1.495 1.495 0 0 0-.305.223c.059.059.156.137.305.223l21.025 12.14c.518.299 1.278.47 2.085.47.806 0 1.566-.171 2.084-.47L46.452 33.02c.148-.086.246-.165.304-.223a1.493 1.493 0 0 0-.304-.223V.22L.4.123z"/>
        <path id="aQ" d="M.4.123v32.355a1.495 1.495 0 0 0-.305.223c.059.059.156.137.305.223l21.025 12.14c.518.299 1.278.47 2.085.47.806 0 1.566-.171 2.084-.47L46.452 33.02c.148-.086.246-.165.304-.223a1.493 1.493 0 0 0-.304-.223V.22"/>
        <path id="aS" d="M.4.123v32.355a1.495 1.495 0 0 0-.305.223c.059.059.156.137.305.223l21.025 12.14c.518.299 1.278.47 2.085.47.806 0 1.566-.171 2.084-.47L46.452 33.02c.148-.086.246-.165.304-.223a1.493 1.493 0 0 0-.304-.223V.22"/>
        <path id="aU" d="M.4.123v32.355a1.495 1.495 0 0 0-.305.223c.059.059.156.137.305.223l21.025 12.14c.518.299 1.278.47 2.085.47.806 0 1.566-.171 2.084-.47L46.452 33.02c.148-.086.246-.165.304-.223a1.493 1.493 0 0 0-.304-.223V.22"/>
        <path id="aW" d="M0 .084h50.171v28.967H0z"/>
        <path id="aY" d="M0 .006h50.171v28.966H0z"/>
        <path id="ba" d="M.4.03v29.958a1.49 1.49 0 0 0-.305.223c.059.058.156.137.304.223l21.026 12.139c.518.3 1.278.471 2.085.471.806 0 1.566-.171 2.084-.471l20.858-12.042a1.49 1.49 0 0 0 .304-.223 1.491 1.491 0 0 0-.304-.223V.126"/>
        <path id="bc" d="M.4.03v29.958a1.49 1.49 0 0 0-.305.223c.059.058.156.137.304.223l21.026 12.139c.518.3 1.278.471 2.085.471.806 0 1.566-.171 2.084-.471l20.858-12.042a1.49 1.49 0 0 0 .304-.223 1.491 1.491 0 0 0-.304-.223V.126"/>
        <path id="be" d="M.4.03v29.958a1.49 1.49 0 0 0-.305.223c.059.058.156.137.304.223l21.026 12.139c.518.3 1.278.471 2.085.471.806 0 1.566-.171 2.084-.471l20.858-12.042a1.49 1.49 0 0 0 .304-.223 1.491 1.491 0 0 0-.304-.223V.126"/>
        <path id="bg" d="M.4.03v29.958a1.49 1.49 0 0 0-.305.223c.059.058.156.137.304.223l21.026 12.139c.518.3 1.278.471 2.085.471.806 0 1.566-.171 2.084-.471l20.858-12.042a1.49 1.49 0 0 0 .304-.223 1.491 1.491 0 0 0-.304-.223V.126"/>
        <path id="bi" d="M.4.03v29.958a1.49 1.49 0 0 0-.305.223c.059.058.156.137.304.223l21.026 12.139c.518.3 1.278.471 2.085.471.806 0 1.566-.171 2.084-.471l20.858-12.042a1.49 1.49 0 0 0 .304-.223 1.491 1.491 0 0 0-.304-.223V.126"/>
        <path id="bk" d="M.4.03v29.958a1.49 1.49 0 0 0-.305.223c.059.058.156.137.304.223l21.026 12.139c.518.3 1.278.471 2.085.471.806 0 1.566-.171 2.084-.471l20.858-12.042a1.49 1.49 0 0 0 .304-.223 1.491 1.491 0 0 0-.304-.223V.126"/>
        <path id="bm" d="M.4.03v29.958a1.49 1.49 0 0 0-.305.223c.059.058.156.137.304.223l21.026 12.139c.518.3 1.278.471 2.085.471.806 0 1.566-.171 2.084-.471l20.858-12.042a1.49 1.49 0 0 0 .304-.223 1.491 1.491 0 0 0-.304-.223V.126"/>
    </defs>
    <g fill="none" fill-rule="evenodd">
        <mask id="b" fill="#fff">
            <use xlink:href="#a"/>
        </mask>
        <use fill="#FFF" xlink:href="#a"/>
        <g mask="url(#b)">
            <path fill="#293F55" d="M-11 175h182V-7H-11z"/>
            <g transform="translate(-7 -5.853)">
                <mask id="d" fill="#fff">
                    <use xlink:href="#c"/>
                </mask>
                <g mask="url(#d)">
                    <g transform="rotate(-62 184.98 32.098)">
                        <mask id="f" fill="#fff">
                            <use xlink:href="#e"/>
                        </mask>
                        <path fill="#5028CE" d="M0 11.823L277.995.049l-.001 17.895z" mask="url(#f)"/>
                    </g>
                    <path fill="#6E3BEA" d="M80.17 184.906l82.396-265.728 16.828 5.897z"/>
                    <path fill="#1A82FF" d="M80.265 186.029L123.28-88.707l17.752 3.518z"/>
                    <path fill="#1AB57D" d="M81.327 185.768l1.708-277.99 18.113.856z"/>
                    <path fill="#F4C110" d="M80.563 185.802L42.724-90.233l18.095-1.75z"/>
                    <path fill="#FF1A1A" d="M80.793 185.836L1.526-80.445l17.631-4.331z"/>
                    <g transform="rotate(-62 11.445 136.015)">
                        <mask id="h" fill="#fff">
                            <use xlink:href="#g"/>
                        </mask>
                        <path fill="#A00505" d="M0 220.973L169.01.003l13.964 11.64z" mask="url(#h)"/>
                    </g>
                </g>
            </g>
            <g transform="translate(54.78 54.516)">
                <mask id="j" fill="#fff">
                    <use xlink:href="#i"/>
                </mask>
                <path fill="#000" d="M48.96 12.922c1.615.932 1.615 2.456 0 3.388L28.105 28.352c-1.614.932-4.255.932-5.869 0L1.21 16.213c-1.614-.931-1.614-2.456 0-3.388L22.067.783c1.614-.931 4.255-.931 5.869 0l21.025 12.139z" mask="url(#j)"/>
            </g>
            <path fill="#1CBA81" d="M79.949 45.93c-1.063 0-2.127-.234-2.933-.7L55.99 33.093c-.787-.454-1.187-1.05-1.207-1.648V61.26c.02.599.42 1.194 1.207 1.648l21.025 12.139c.806.465 1.87.698 2.933.698V45.93z"/>
            <path fill="#13A36B" d="M79.949 45.93c1.064 0 2.128-.234 2.935-.7l20.857-12.041c.829-.48 1.229-1.114 1.206-1.745V61.26c.023.631-.377 1.266-1.206 1.745L82.884 75.047c-.807.465-1.871.698-2.935.698V45.93z"/>
            <g transform="translate(54.78 16.957)">
                <mask id="l" fill="#fff">
                    <use xlink:href="#k"/>
                </mask>
                <path fill="#26D198" d="M48.96 12.844c1.615.931 1.615 2.456 0 3.388L28.105 28.273c-1.614.932-4.255.932-5.869 0L1.21 16.135c-1.614-.932-1.614-2.457 0-3.388L22.067.705c1.614-.932 4.255-.932 5.869 0l21.025 12.139z" mask="url(#l)"/>
            </g>
            <path fill="#1CBA81" d="M79.95 44.23c-.807 0-1.567-.17-2.085-.47L56.84 31.62a1.498 1.498 0 0 1-.305-.222 1.5 1.5 0 0 1 .305-.224l20.857-12.042c.519-.299 1.279-.47 2.085-.47s1.566.171 2.085.47l21.025 12.14c.149.085.246.164.304.223a1.49 1.49 0 0 1-.304.223L82.035 43.76c-.519.3-1.279.47-2.085.47"/>
            <path fill="#13A36B" d="M79.95 44.23c-.807 0-1.567-.17-2.085-.47L56.84 31.62a1.498 1.498 0 0 1-.305-.222 1.5 1.5 0 0 1 .305-.224l20.857-12.042c.519-.299 1.279-.47 2.085-.47l.168 25.569z"/>
            <g>
                <g transform="translate(56.44 7.204)">
                    <mask id="n" fill="#fff">
                        <use xlink:href="#m"/>
                    </mask>
                    <path fill="#1E1D23" d="M9.732 36.405c2.43.485 5.037-.499 7.416-1.19 1.9-.552 3.808-1.195 5.434-2.323.955-.663 1.793-1.48 2.625-2.292.391-.381.784-.766 1.097-1.213.223-.318.407-.67.697-.928.212-.188.478-.323.63-.562.338-.525-.039-1.203-.406-1.708-1.204.124-2.307.733-3.286 1.446-.979.713-1.873 1.541-2.888 2.201-2.096 1.361-4.594 1.935-7.042 2.44-1.998.412-4.1.76-6.045-.05a33.941 33.941 0 0 1-1.654-.764s-.372.927-.42 1.334c-.076.644-.078 1.745.412 2.119.944.723 2.226 1.25 3.43 1.49" mask="url(#n)"/>
                </g>
                <g transform="translate(56.44 7.204)">
                    <mask id="p" fill="#fff">
                        <use xlink:href="#o"/>
                    </mask>
                    <path fill="#1E1D23" d="M36.812 32.094c-.572.69-1.437 1.045-2.238 1.445a16.152 16.152 0 0 0-4.276 3.1c-.695.703-1.327 1.473-2.084 2.108-1.247 1.045-2.797 1.688-4.39 2.015-1.901.389-3.872.344-5.79.06-1.191-.176-2.433-.477-3.302-1.31a2.817 2.817 0 0 1-.817-1.597c-.086-.594.443-2.804.443-2.804s2.286.42 3.517.564c5.318.622 11.04-.912 14.736-4.787.546-.572 1.064-1.205 1.772-1.559 1.858-.927 3.887 1.007 2.429 2.765" mask="url(#p)"/>
                </g>
                <g transform="translate(56.44 7.204)">
                    <mask id="r" fill="#fff">
                        <use xlink:href="#q"/>
                    </mask>
                    <path fill="#B70808" d="M27.715 24.968l-.49-1.982s-.14-3.269-.114-3.204c.025.064 1.676.107 1.676.107l2.138-.576 2.055-1.562 1.81-.904 1.315.74-.247 2.713-.822 3.782-2.713.987-3.207.74-1.401-.84z" mask="url(#r)"/>
                </g>
                <g transform="translate(56.44 7.204)">
                    <mask id="t" fill="#fff">
                        <use xlink:href="#s"/>
                    </mask>
                    <path fill="#B70808" d="M19.164 20.117l-.49-1.983s-.56-2.79-.535-2.726c.026.064 2.097-.37 2.097-.37l2.138-.576 2.055-1.562 1.81-.905 1.315.74-.247 2.714-.822 3.782-2.714.987-3.206.74-1.401-.841z" mask="url(#t)"/>
                </g>
                <g transform="translate(56.44 7.204)">
                    <mask id="v" fill="#fff">
                        <use xlink:href="#u"/>
                    </mask>
                    <path fill="#1E1D23" d="M9.732 33.202c2.43.485 5.037-.499 7.416-1.19 1.9-.553 3.808-1.195 5.434-2.323.955-.663 1.793-1.48 2.625-2.292.391-.382.784-.766 1.097-1.213.223-.318.407-.671.697-.928.212-.188.478-.324.63-.562.338-.525-.039-1.203-.406-1.708-1.204.124-2.307.733-3.286 1.446-.979.713-1.873 1.541-2.888 2.2-2.096 1.362-4.594 1.936-7.042 2.44-1.998.412-4.1.762-6.045-.048a33.941 33.941 0 0 1-1.654-.766s-.372.928-.42 1.335c-.076.643-.078 1.744.412 2.119.944.723 2.226 1.25 3.43 1.49" mask="url(#v)"/>
                </g>
                <g transform="translate(56.44 7.204)">
                    <mask id="x" fill="#fff">
                        <use xlink:href="#w"/>
                    </mask>
                    <path fill="#DD0A0A" d="M18.139 15.408s2.7-.758 3.664-1.265c.964-.505 2.649-2.346 4.44-2.481.383-.029.786 0 1.114.198.535.322.732.989.867 1.598.517 2.344.747 4.752.683 7.152-.012.437-.037.888-.228 1.28-.179.367-.486.65-.787.925-1.782 1.629-3.575 3.266-5.607 4.568-1.133.726-2.334 1.342-3.557 1.903-1.022.468-2.061.898-3.119 1.277-.135.048-.881.275-1.02.234-.17-.05.017-.27-.068-.425-.738-1.345-.988-3.044-.583-4.524.334-1.221 1.266-2.175 2.188-3.044a66.821 66.821 0 0 1 3.022-2.68c.291-.243.59-.488.944-.626.63-.246 1.334-.122 2.01-.134a4.987 4.987 0 0 0 3.783-1.886 4.987 4.987 0 0 0 .917-4.126c-.055-.24-.133-.483-.298-.665-.34-.374-.952-.366-1.405-.14-.522.26-1.368 1.331-2.525 1.958-1.156.626-3.664 1.288-3.664 1.288l-.771-.385z" mask="url(#x)"/>
                </g>
                <g transform="translate(56.44 7.204)">
                    <mask id="z" fill="#fff">
                        <use xlink:href="#y"/>
                    </mask>
                    <path fill="#FFF" d="M20.85 16.027c-.437-.287-.982-.336-1.492-.453a5.319 5.319 0 0 1-1.26-.464c-.211-.11-.421-.237-.657-.27-.46-.065-.905.251-1.144.65-.24.399-.319.87-.414 1.325-.139.674-.32 1.339-.54 1.99-.171.504-.369 1.005-.677 1.439-.198.278-.438.523-.677.768-.879.897-1.784 1.812-2.92 2.346-.564.264-1.17.427-1.728.7a6.173 6.173 0 0 0-1.262.845c-.736.623-1.381 1.4-1.649 2.326-.267.927-.095 2.019.6 2.687.53.51 1.278.715 2 .856a17.34 17.34 0 0 0 5.04.232c.191-.02.404-.054.52-.207.15-.2.057-.483-.035-.715-.405-1.02-.696-2.102-.667-3.198.03-1.096.406-2.211 1.184-2.984.389-.388.864-.678 1.284-1.032.371-.312.698-.672 1.041-1.014 1.07-1.065 2.375-1.675 3.517-2.607.93-.76.986-2.53-.064-3.22" mask="url(#z)"/>
                </g>
                <g transform="translate(56.44 7.204)">
                    <mask id="B" fill="#fff">
                        <use xlink:href="#A"/>
                    </mask>
                    <path fill="#1E1D23" d="M36.812 28.891c-.572.69-1.437 1.045-2.238 1.445a16.153 16.153 0 0 0-4.276 3.1c-.695.703-1.327 1.473-2.084 2.108-1.247 1.045-2.797 1.688-4.39 2.015-1.901.389-3.872.344-5.79.06-1.191-.176-2.433-.477-3.302-1.31a2.816 2.816 0 0 1-.817-1.597c-.086-.594.443-2.804.443-2.804s2.286.42 3.517.564c5.318.622 11.04-.913 14.736-4.787.546-.572 1.064-1.205 1.772-1.559 1.858-.928 3.887 1.007 2.429 2.765" mask="url(#B)"/>
                </g>
                <g transform="translate(56.44 7.204)">
                    <mask id="D" fill="#fff">
                        <use xlink:href="#C"/>
                    </mask>
                    <path fill="#DD0A0A" d="M27.136 19.847c1.66-.222 3.38-.575 4.697-1.61.547-.429 1.006-.963 1.567-1.374.56-.411 1.274-.698 1.947-.527.652.165 1.141.733 1.388 1.359.246.626.289 1.31.33 1.981l.246 4.14c.066 1.1.089 2.327-.645 3.148-.337.378-.797.618-1.234.875-3.891 2.286-6.728 6.392-11.06 7.66-.337.1-1.323.514-1.628.341-.29-.163.178-.84.074-1.155-.358-1.075-.911-2.24-1.02-3.367-.06-.616.24-1.21.468-1.785.29-.727.929-1.246 1.542-1.732l1.64-1.297c1.166-.923 2.377-1.87 3.816-2.246 1.732-.454 3.817-.114 5.1-1.363.991-.966 1.076-2.511 1.022-3.894-.019-.469-.07-.99-.423-1.3-.384-.336-.992-.276-1.436-.023-.445.253-.777.658-1.145 1.013a6.349 6.349 0 0 1-4.22 1.755l-1.026-.6z" mask="url(#D)"/>
                </g>
                <g transform="translate(56.44 7.204)">
                    <mask id="F" fill="#fff">
                        <use xlink:href="#E"/>
                    </mask>
                    <path fill="#FFF" d="M15.857 34.436c-.828-.576-1.627-1.452-1.498-2.452.08-.621.508-1.14.97-1.563a7.806 7.806 0 0 1 2.518-1.553c.637-.241 1.308-.4 1.91-.717.918-.482 1.613-1.298 2.213-2.143a18.833 18.833 0 0 0 2.191-4.063c.213-.545.405-1.11.756-1.577.352-.467.904-.83 1.488-.783.244.02.477.109.705.197.703.27 1.406.542 2.108.813.228.088.46.178.653.327.728.558.635 1.746.077 2.475-.558.728-1.429 1.13-2.233 1.571a16.963 16.963 0 0 0-4.631 3.74c-.441.508-.864 1.068-.998 1.728-.15.741.084 1.5.32 2.22.247.754.823 2.02.612 2.827-.207.797-1.274.637-2.027.617a9.49 9.49 0 0 1-5.134-1.664" mask="url(#F)"/>
                </g>
                <g transform="translate(56.44 7.204)">
                    <mask id="H" fill="#fff">
                        <use xlink:href="#G"/>
                    </mask>
                    <path fill="#231F20" d="M26.41 27.144a.29.29 0 0 1-.245-.133c-.684-1.067-1.995-1.723-3.258-1.632a.289.289 0 1 1-.041-.577c1.467-.106 2.99.657 3.786 1.896a.29.29 0 0 1-.243.446" mask="url(#H)"/>
                </g>
                <g transform="translate(56.44 7.204)">
                    <mask id="J" fill="#fff">
                        <use xlink:href="#I"/>
                    </mask>
                    <path fill="#231F20" d="M25.2 28.432a.289.289 0 0 1-.247-.14 3.183 3.183 0 0 0-2.845-1.487.29.29 0 1 1-.035-.577c1.328-.082 2.683.628 3.374 1.764a.289.289 0 0 1-.247.44" mask="url(#J)"/>
                </g>
                <g transform="translate(56.44 7.204)">
                    <mask id="L" fill="#fff">
                        <use xlink:href="#K"/>
                    </mask>
                    <path fill="#231F20" d="M23.955 29.651a.29.29 0 0 1-.267-.179c-.195-.473-.653-.886-1.257-1.133-.575-.235-1.22-.316-1.843-.394a.29.29 0 0 1 .072-.574c.66.083 1.344.168 1.99.433.757.309 1.316.823 1.573 1.448a.29.29 0 0 1-.268.4" mask="url(#L)"/>
                </g>
                <g transform="translate(56.44 7.204)">
                    <mask id="N" fill="#fff">
                        <use xlink:href="#M"/>
                    </mask>
                    <path fill="#231F20" d="M17.735 22.3a.29.29 0 0 1-.243-.132c-.685-1.067-1.993-1.722-3.259-1.632a.289.289 0 1 1-.041-.577c1.468-.105 2.99.657 3.786 1.896a.29.29 0 0 1-.243.446" mask="url(#N)"/>
                </g>
                <g transform="translate(56.44 7.204)">
                    <mask id="P" fill="#fff">
                        <use xlink:href="#O"/>
                    </mask>
                    <path fill="#231F20" d="M16.527 23.589a.29.29 0 0 1-.248-.139 3.184 3.184 0 0 0-2.845-1.488.289.289 0 1 1-.035-.577c1.329-.081 2.683.628 3.374 1.764a.289.289 0 0 1-.246.44" mask="url(#P)"/>
                </g>
                <g transform="translate(56.44 7.204)">
                    <mask id="R" fill="#fff">
                        <use xlink:href="#Q"/>
                    </mask>
                    <path fill="#231F20" d="M15.282 24.808a.29.29 0 0 1-.268-.179c-.267-.648-.902-.988-1.257-1.133-.575-.236-1.22-.316-1.842-.394a.29.29 0 0 1 .071-.573c.66.082 1.344.167 1.99.432.757.309 1.316.823 1.573 1.448a.29.29 0 0 1-.267.4" mask="url(#R)"/>
                </g>
            </g>
            <g>
                <g transform="translate(22 72.668)">
                    <mask id="T" fill="#fff">
                        <use xlink:href="#S"/>
                    </mask>
                    <path fill="#000" d="M48.961 12.922c1.614.932 1.614 2.456 0 3.388L28.104 28.352c-1.614.932-4.255.932-5.869 0L1.21 16.213c-1.613-.931-1.613-2.456 0-3.388L22.067.783c1.614-.932 4.255-.932 5.87 0L48.96 12.922z" mask="url(#T)"/>
                </g>
                <path fill="#3E9FFF" d="M47.169 64.082c-1.064 0-2.127-.233-2.934-.699L23.211 51.244c-.787-.454-1.187-1.049-1.207-1.647v29.816c.02.598.42 1.193 1.207 1.647L44.235 93.2c.807.465 1.87.698 2.934.698V64.082z"/>
                <path fill="#1F91DD" d="M47.169 64.082c1.064 0 2.128-.233 2.935-.699L70.96 51.341c.829-.478 1.229-1.113 1.206-1.744v29.816c.023.63-.377 1.266-1.206 1.744L50.104 93.2c-.807.466-1.871.699-2.935.699V64.082z"/>
                <path fill="#64B9FF" d="M70.961 47.953c1.614.932 1.614 2.457 0 3.388L50.104 63.383c-1.614.932-4.255.932-5.869 0L23.21 51.244c-1.613-.931-1.613-2.456 0-3.388l20.857-12.042c1.614-.931 4.255-.931 5.87 0l21.024 12.14z"/>
                <path fill="#3E9FFF" d="M47.17 62.384c-.807 0-1.567-.172-2.085-.472L24.06 49.773a1.477 1.477 0 0 1-.305-.223c.059-.058.156-.137.305-.223l20.857-12.042c.518-.3 1.279-.47 2.085-.47s1.566.17 2.085.47l21.025 12.139c.148.086.246.165.304.223a1.483 1.483 0 0 1-.304.223L49.255 61.912c-.519.3-1.28.472-2.085.472"/>
                <path fill="#1F91DD" d="M47.17 62.384c-.807 0-1.567-.172-2.085-.472L24.06 49.773a1.477 1.477 0 0 1-.305-.223c.059-.058.156-.137.305-.223l20.857-12.042c.518-.3 1.279-.47 2.085-.47l.168 25.569z"/>
                <g>
                    <g transform="translate(23.66 16.85)">
                        <mask id="V" fill="#fff">
                            <use xlink:href="#U"/>
                        </mask>
                        <path fill="#111D28" fill-opacity=".2" d="M9.25 47.523c.193 1.067.661 2.232 1.356 2.941.695.709 1.6 1.166 2.499 1.589 1.112.523 2.27 1.021 3.498 1.091 1.833.105 3.569-.746 5.206-1.576 1.678-.85 3.395-2.217 5.072-3.067 1.85-.937 3.976-2.245 4.68-4.195.272-.755.318-1.569.361-2.37.1-1.834.04-2.953.14-4.787.13-2.4.26-4.805.162-7.206-.135-3.312-1.465-14.886-1.465-14.886l-1.783-.858L7.383 26.471l1.812.97s-.101 19.214.056 20.082" mask="url(#V)"/>
                    </g>
                    <g transform="translate(23.66 16.85)">
                        <mask id="X" fill="#fff">
                            <use xlink:href="#W"/>
                        </mask>
                        <path fill="#000" d="M15.369 52.16l-2.587-2.426-1.204-26.644 2.87-8.996 6.848 2.758-4.18 35.545z" mask="url(#X)"/>
                    </g>
                    <g transform="translate(23.66 16.85)">
                        <mask id="Z" fill="#fff">
                            <use xlink:href="#Y"/>
                        </mask>
                        <path fill="#48636F" d="M10.252 17.078l1.088-.605c.477-.27 1.13-.224 1.844.205 1.424.854 2.556 2.902 2.528 4.573-.013.835-.315 1.418-.79 1.686l-1.089.604-3.58-6.463z" mask="url(#Z)"/>
                    </g>
                    <g transform="translate(23.66 16.85)">
                        <mask id="ab" fill="#fff">
                            <use xlink:href="#aa"/>
                        </mask>
                        <path fill="#7E9AA6" d="M12.095 17.282c1.425.855 2.557 2.902 2.53 4.573-.015.836-.316 1.419-.792 1.686-.476.268-1.126.22-1.838-.207-1.425-.854-2.557-2.901-2.53-4.572.015-.833.314-1.415.787-1.684.476-.27 1.129-.224 1.843.204" mask="url(#ab)"/>
                    </g>
                    <g transform="translate(23.66 16.85)">
                        <mask id="ad" fill="#fff">
                            <use xlink:href="#ac"/>
                        </mask>
                        <path fill="#D4E3EB" d="M12.084 17.976c1.098.658 1.97 2.236 1.95 3.525-.012.644-.244 1.093-.61 1.3-.368.206-.869.17-1.418-.16-1.098-.659-1.97-2.237-1.95-3.525.011-.642.242-1.09.607-1.298.367-.209.87-.173 1.42.158" mask="url(#ad)"/>
                    </g>
                    <g transform="translate(23.66 16.85)">
                        <mask id="af" fill="#fff">
                            <use xlink:href="#ae"/>
                        </mask>
                        <path fill="#FFF" d="M12.058 19.542c.36.216.647.735.64 1.158-.003.212-.08.36-.2.428-.12.067-.285.055-.466-.053-.36-.216-.648-.735-.64-1.159.003-.21.079-.358.199-.426.12-.069.286-.057.467.052" mask="url(#af)"/>
                    </g>
                    <g transform="translate(23.66 16.85)">
                        <mask id="ah" fill="#fff">
                            <use xlink:href="#ag"/>
                        </mask>
                        <path fill="#48636F" d="M10.167 42.96l1.088-.604c.476-.27 1.129-.224 1.843.205 1.424.854 2.557 2.901 2.529 4.572-.014.836-.315 1.42-.791 1.687l-1.088.604-3.581-6.463z" mask="url(#ah)"/>
                    </g>
                    <g transform="translate(23.66 16.85)">
                        <mask id="aj" fill="#fff">
                            <use xlink:href="#ai"/>
                        </mask>
                        <path fill="#7E9AA6" d="M12.01 43.165c1.424.855 2.556 2.902 2.529 4.573-.014.835-.316 1.419-.791 1.686-.476.268-1.127.22-1.839-.207-1.424-.854-2.556-2.901-2.529-4.572.014-.833.314-1.415.787-1.684.476-.271 1.128-.224 1.843.204" mask="url(#aj)"/>
                    </g>
                    <g transform="translate(23.66 16.85)">
                        <mask id="al" fill="#fff">
                            <use xlink:href="#ak"/>
                        </mask>
                        <path fill="#D4E3EB" d="M11.998 43.859c1.098.658 1.971 2.236 1.95 3.525-.01.644-.243 1.093-.61 1.3-.367.206-.868.17-1.417-.16-1.098-.659-1.971-2.237-1.95-3.525.011-.642.242-1.091.606-1.298.367-.209.87-.173 1.421.158" mask="url(#al)"/>
                    </g>
                    <g transform="translate(23.66 16.85)">
                        <mask id="an" fill="#fff">
                            <use xlink:href="#am"/>
                        </mask>
                        <path fill="#FFF" d="M11.972 45.424c.361.217.648.736.641 1.159-.004.212-.08.36-.2.427-.121.068-.286.056-.466-.052-.361-.216-.648-.735-.641-1.159.003-.21.08-.358.2-.426.12-.07.285-.057.466.051" mask="url(#an)"/>
                    </g>
                    <g transform="translate(23.66 16.85)">
                        <mask id="ap" fill="#fff">
                            <use xlink:href="#ao"/>
                        </mask>
                        <path fill="#FEC100" d="M12.782 49.734c-.19.974.268 1.986.963 2.695.695.708 1.6 1.166 2.499 1.589 1.112.523 2.27 1.02 3.498 1.091 1.833.105 3.569-.747 5.206-1.576 1.678-.85 3.395-2.217 5.072-3.067 1.85-.937 3.976-2.245 4.68-4.196.272-.754.318-1.568.361-2.369.1-1.834.04-2.953.14-4.788.13-2.4.26-4.804.162-7.205-.135-3.312-.9-6.708-1.465-9.973-.713-4.118-1.227-8.117-2.096-12.204-.312-1.468-.727-3.063-1.942-3.945-1.138-.826-3.695-1.387-5.045-.994-1.385.402-5.27 2.052-6.713 3.152-1.809 1.377-6.665 5.987-5.637 8.661 0 0 3.408 1.744 2.829 6.42-.307 2.481-3.716.065-3.716.065l.232 18.963s3.245 2.014 3.34 5.68c.095 3.667-2.368 2-2.368 2" mask="url(#ap)"/>
                    </g>
                    <g transform="translate(23.66 16.85)">
                        <mask id="ar" fill="#fff">
                            <use xlink:href="#aq"/>
                        </mask>
                        <path fill="#FFF" d="M29.833 8.338c-.363.06-.726.122-1.088.183a.72.72 0 0 1-.319.006.723.723 0 0 1-.191-.101L26.608 7.35c-.161-.107-.345-.292-.25-.46.043-.079.134-.117.219-.145 1.063-.359 2.224-.143 3.324.076.151.03.306.061.436.143.122.077.214.193.299.31.213.295.484.668.528 1.016-.444.037-.877-.029-1.331.048" mask="url(#ar)"/>
                    </g>
                    <g transform="translate(23.66 16.85)">
                        <mask id="at" fill="#fff">
                            <use xlink:href="#as"/>
                        </mask>
                        <path fill="#FFF" d="M19.622 13.467c.156-.105.331-.217.383-.398a.746.746 0 0 0 .006-.286l-.189-1.772c-.022-.206-.142-.483-.34-.42a.35.35 0 0 0-.142.112 25.115 25.115 0 0 0-2.853 3.84c-.111.185-.222.376-.263.588-.176.926.628 1.424 1.218.717.708-.849 1.237-1.747 2.18-2.38" mask="url(#at)"/>
                    </g>
                    <g transform="translate(23.66 16.85)">
                        <mask id="av" fill="#fff">
                            <use xlink:href="#au"/>
                        </mask>
                        <path fill="#48636F" d="M20.199 11.866s1.041-1.4 3.363-2.571c2.322-1.172 3.513-1.47 3.513-1.47l-.717-.935s-2.151.43-3.6 1.383c-1.448.953-2.887 2.114-2.887 2.114l.328 1.479z" mask="url(#av)"/>
                    </g>
                    <g transform="translate(23.66 16.85)">
                        <mask id="ax" fill="#fff">
                            <use xlink:href="#aw"/>
                        </mask>
                        <path fill="#DFAA25" d="M14.113 43.51c.063.078.15.189.255.323.798 1.02 2.916 3.729 4.102 3.658.225-.014.393-.132.538-.357.438-.724.33-1.994.25-2.922-.012-.153-.025-.298-.034-.432-.088-1.262-.29-2.515-.486-3.727l-.364-2.259a17.167 17.167 0 0 1-5.615-3.199c-.026 1.882.01 3.785.11 5.663.033.625.075 1.186.265 1.705.21.575.599 1.08.979 1.547zm-1.39-9.252a16.92 16.92 0 0 0 5.79 3.339l.067.022.387 2.397c.196 1.217.4 2.475.488 3.748l.034.428c.082.96.194 2.273-.283 3.062-.185.284-.42.45-.722.468-1.307.078-3.403-2.602-4.298-3.746a22.14 22.14 0 0 0-.253-.32c-.392-.482-.794-1.004-1.017-1.613-.2-.55-.245-1.128-.278-1.773a86.08 86.08 0 0 1-.107-5.927l.004-.251.189.166z" mask="url(#ax)"/>
                    </g>
                    <g transform="translate(23.66 16.85)">
                        <mask id="az" fill="#fff">
                            <use xlink:href="#ay"/>
                        </mask>
                        <path fill="#DFAA25" d="M12.9 25.528c-.135.216-.21.532-.217.936l-.137 7.97.232.005.136-7.971c.005-.29.064-.97.494-1.038.16-.025.328.048.515.138l4.163 2.006.1-.208-4.162-2.007c-.172-.083-.407-.196-.652-.157a.667.667 0 0 0-.472.326" mask="url(#az)"/>
                    </g>
                    <g transform="translate(23.66 16.85)">
                        <mask id="aB" fill="#fff">
                            <use xlink:href="#aA"/>
                        </mask>
                        <path fill="#3E5D77" d="M22.295 50.893c.566-.793.79-1.775.965-2.733.507-2.774.708-5.603.597-8.42-.042-1.084-.131-2.171-.387-3.225-.503-2.077-1.63-3.942-2.74-5.769-.678-1.117-1.373-2.252-2.358-3.112-.138-.12-.326-.242-.493-.167-.2.09-.197.37-.165.586.425 2.86.483 5.761.615 8.65.108 2.363.266 4.723.425 7.082l.142 2.114c.113 1.69.226 3.38.427 5.06.09.765.047 1.936 1.074 1.515.714-.293 1.454-.96 1.898-1.58" mask="url(#aB)"/>
                    </g>
                    <g transform="translate(23.66 16.85)">
                        <mask id="aD" fill="#fff">
                            <use xlink:href="#aC"/>
                        </mask>
                        <path fill="#FFF" d="M20.033 55.254c-.442-.619-.214-1.49-.456-2.21-1.04.278-2.173.622-2.758 1.525" mask="url(#aD)"/>
                    </g>
                    <g transform="translate(23.66 16.85)">
                        <mask id="aF" fill="#fff">
                            <use xlink:href="#aE"/>
                        </mask>
                        <path fill="#40A0FF" d="M23.105 53.305c.105-.09.213-.18.343-.23.202-.076.425-.04.641-.044.47-.008.913-.207 1.34-.403l2.759-1.263c-1.44 1.17-3.172 1.915-4.878 2.645-.551.236-1.276.699-1.87.744.437-.544 1.125-.991 1.665-1.45" mask="url(#aF)"/>
                    </g>
                    <g transform="translate(23.66 16.85)">
                        <mask id="aH" fill="#fff">
                            <use xlink:href="#aG"/>
                        </mask>
                        <path fill="#DFAA25" d="M33.764 21.12c.394-.065.8-.063 1.192.009.412.074.808.223 1.22.298a.527.527 0 0 0 .23.005c.16-.043.253-.225.243-.391-.01-.166-.101-.316-.204-.448-.704-.903-2.12-1.15-3.088-.538" mask="url(#aH)"/>
                    </g>
                    <g transform="translate(23.66 16.85)">
                        <mask id="aJ" fill="#fff">
                            <use xlink:href="#aI"/>
                        </mask>
                        <path fill="#DFAA25" d="M19.615 28.392c-.95.474-1.462 1.503-1.942 2.45-.053.104-.113.215-.216.27a.413.413 0 0 1-.324.006c-.413-.142-.6-.653-.524-1.083.076-.43.347-.796.61-1.145.395-.522.837-1.077 1.47-1.24" mask="url(#aJ)"/>
                    </g>
                    <g transform="translate(23.66 16.85)">
                        <mask id="aL" fill="#fff">
                            <use xlink:href="#aK"/>
                        </mask>
                        <path fill="#3E5D77" d="M16.643 33.967c.094.732.114 1.473.06 2.209-.142.074-.317-.065-.355-.221-.039-.157-.048-.59-.048-.75 0-.542.037-.776.152-1.228.012-.152.13-.133.191-.01" mask="url(#aL)"/>
                    </g>
                    <g transform="translate(23.66 16.85)">
                        <mask id="aN" fill="#fff">
                            <use xlink:href="#aM"/>
                        </mask>
                        <path fill="#B70808" d="M17.036 43.513c.093.732.114 1.473.06 2.209-.143.074-.318-.065-.356-.221-.038-.157-.048-.59-.048-.75 0-.542.037-.776.153-1.228.011-.153.128-.133.19-.01" mask="url(#aN)"/>
                    </g>
                    <g transform="translate(23.66 16.85)">
                        <mask id="aP" fill="#fff">
                            <use xlink:href="#aO"/>
                        </mask>
                        <path fill="#FFF" d="M19.814 9.206s1.35-1.125 2.56-1.793c1.21-.668 2.302-1.138 2.302-1.138l-1.039-.668s-.979.582-2.136 1.237C20.343 7.5 18.934 8.5 18.934 8.5l.88.707z" mask="url(#aP)"/>
                    </g>
                    <g transform="translate(23.66 16.85)">
                        <mask id="aR" fill="#fff">
                            <use xlink:href="#aQ"/>
                        </mask>
                        <path fill="#48636F" d="M14.278 12.813s3.545-4.261 6.859-5.962c3.314-1.701 5.987-1.807 5.987-1.807s-2.237-.622-6.192 1.549c-3.956 2.17-6.654 6.22-6.654 6.22" mask="url(#aR)"/>
                    </g>
                    <g transform="translate(23.66 16.85)">
                        <mask id="aT" fill="#fff">
                            <use xlink:href="#aS"/>
                        </mask>
                        <path fill="#DFAA25" d="M19.586 14.67a3.562 3.562 0 0 0-.342.699c-.228.641-.245 1.332-.244 1.93.004 1.976.24 3.952.7 5.872.09.374.29 1.018.628 1.135l.075-.22c-.16-.054-.353-.444-.478-.969a25.216 25.216 0 0 1-.694-5.818c0-.579.016-1.246.231-1.853.345-.97 1.164-1.702 1.919-2.29a20.651 20.651 0 0 1 5.876-3.2c.547-.192 1.18-.383 1.777-.235.812.203 1.43.989 1.89 2.401.448 1.372.7 3.605.884 5.235l.05.44.23-.026-.05-.44c-.185-1.64-.439-3.886-.893-5.28-.487-1.495-1.16-2.33-2.055-2.554-.658-.165-1.33.038-1.91.24a20.889 20.889 0 0 0-5.941 3.236c-.593.462-1.224 1.01-1.653 1.696" mask="url(#aT)"/>
                    </g>
                    <g transform="translate(23.66 16.85)">
                        <mask id="aV" fill="#fff">
                            <use xlink:href="#aU"/>
                        </mask>
                        <path fill="#3E5D77" d="M20.892 22.999c-.776.758-1.591 1.644-1.612 2.73-.015.787.397 1.511.802 2.186a129.442 129.442 0 0 0 3.732 5.887c3.303-2.449 6.737-4.781 10.657-6.022-.138-1.912-.686-3.438-.986-5.293-.259-1.594-.27-4.206-.911-4.988-1.032-1.26-4.237.09-6.271 1.232-2.157 1.21-4.084 2.97-5.41 4.268" mask="url(#aV)"/>
                    </g>
                </g>
            </g>
            <g>
                <g transform="translate(86.863 71.666)">
                    <mask id="aX" fill="#fff">
                        <use xlink:href="#aW"/>
                    </mask>
                    <path fill="#000" d="M48.96 12.922c1.615.932 1.615 2.456 0 3.388L28.105 28.352c-1.614.932-4.255.932-5.869 0L1.21 16.213c-1.614-.931-1.614-2.456 0-3.388L22.067.783c1.614-.931 4.255-.931 5.87 0L48.96 12.922z" mask="url(#aX)"/>
                </g>
                <path fill="#F3C017" d="M112.032 63.08c-1.064 0-2.127-.233-2.934-.698l-21.025-12.14c-.786-.453-1.186-1.048-1.206-1.647v29.816c.02.599.42 1.194 1.206 1.648l21.025 12.138c.807.466 1.87.7 2.934.7V63.08z"/>
                <path fill="#DFAA25" d="M112.032 63.08c1.064 0 2.128-.232 2.935-.698l20.857-12.042c.829-.48 1.229-1.114 1.206-1.745v29.816c.023.631-.377 1.266-1.206 1.744l-20.857 12.042c-.807.466-1.871.7-2.935.7V63.08z"/>
                <g transform="translate(86.863 34.108)">
                    <mask id="aZ" fill="#fff">
                        <use xlink:href="#aY"/>
                    </mask>
                    <path fill="#FBCC43" d="M48.96 12.843c1.615.932 1.615 2.457 0 3.389L28.105 28.274c-1.614.931-4.255.931-5.869 0L1.21 16.134c-1.614-.931-1.614-2.456 0-3.387L22.067.705c1.614-.932 4.255-.932 5.87 0L48.96 12.843z" mask="url(#aZ)"/>
                </g>
                <path fill="#F3C017" d="M112.033 61.382c-.807 0-1.567-.172-2.085-.472L88.923 48.772a1.485 1.485 0 0 1-.305-.223 1.48 1.48 0 0 1 .305-.224l20.857-12.042c.519-.3 1.278-.47 2.085-.47.806 0 1.566.17 2.085.47l21.025 12.14c.148.085.245.164.304.222a1.502 1.502 0 0 1-.304.224L114.118 60.91c-.52.3-1.28.472-2.085.472"/>
                <path fill="#DFAA25" d="M112.033 61.382c-.807 0-1.567-.172-2.085-.472L88.923 48.772a1.485 1.485 0 0 1-.305-.223 1.48 1.48 0 0 1 .305-.224l20.857-12.042c.519-.3 1.278-.47 2.085-.47l.168 25.569z"/>
                <g>
                    <g transform="translate(88.523 18.337)">
                        <mask id="bb" fill="#fff">
                            <use xlink:href="#ba"/>
                        </mask>
                        <path fill="#111D28" fill-opacity=".3" d="M15.129 35.62c4.603-2.659 12.09-2.645 16.723.03 2.316 1.337 3.48 3.086 3.49 4.833.01 1.748-1.136 3.493-3.438 4.822-4.603 2.658-12.09 2.644-16.723-.03-2.316-1.338-3.48-3.087-3.49-4.835-.009-1.747 1.136-3.492 3.438-4.82" mask="url(#bb)"/>
                    </g>
                    <g transform="translate(88.523 18.337)">
                        <mask id="bd" fill="#fff">
                            <use xlink:href="#bc"/>
                        </mask>
                        <path fill="#13A36B" d="M23.584 4.22s-.513.346-.513 1.524c0 1.177.8 3.366 1.63 3.366.83 0 1.147-.226 1.147-.226l-1.147 1.373-4.242 2.914-1.479-1.48-.589-1.192s1.902-.046 3.321-.966c1.419-.921 1.344-1.495 1.344-1.495s-.483-1.238-.483-2.28c0-1.327 1.01-1.539 1.01-1.539" mask="url(#bd)"/>
                    </g>
                    <g transform="translate(88.523 18.337)">
                        <mask id="bf" fill="#fff">
                            <use xlink:href="#be"/>
                        </mask>
                        <path fill="#1CBA81" d="M20.297 12.015c-.52 0-1.99-1.968-1.99-3.393 0-1.425.43-1.9.882-1.9.995 0 1.9 2.013 1.9 3.959 0 .791-.271 1.334-.792 1.334m8.495 7.783s-.665-.695-.423-5.888c.018-.389.996-1.358.996-2.4 0-1.041-3.034-7.88-4.89-7.88a1.743 1.743 0 0 0-1.691 1.155s.611-.68 1.343-.68 1.766 1.843 1.766 3.322c0 1.48-.845 1.887-1.532 1.887s-1.91-.498-2.573-1.253c-.665-.755-1.329-1.91-2.43-1.91-1.103 0-1.737 1.057-1.737 2.069 0 1.01 2.129 6.143 2.129 8.483 0 4.212-7.246 10.22-7.246 20.952 0 1.887 2.4 5.344 4.815 5.676 0 0 1.298 1.072 4.665.363 0 0 3.457.92 6.4-1.706 0 0 2.551-.287 4.046-3.11 0 0 1.642-1.845 1.718-3.654l.003-.105c.015-1.841-.106-10.189-5.36-15.321" mask="url(#bf)"/>
                    </g>
                    <g transform="translate(88.523 18.337)">
                        <mask id="bh" fill="#fff">
                            <use xlink:href="#bg"/>
                        </mask>
                        <path fill="#13A36B" d="M16.247 42.988a3.535 3.535 0 0 0 1.076.346c.241-5.124 1.687-14.66 1.687-14.66s-2.246 9.527-2.763 14.314" mask="url(#bh)"/>
                    </g>
                    <g transform="translate(88.523 18.337)">
                        <mask id="bj" fill="#fff">
                            <use xlink:href="#bi"/>
                        </mask>
                        <path fill="#13A36B" d="M21.867 43.717c-.004-2.41.025-7.498.253-15.557 0 0-.825 10.744-1.038 15.69.248-.033.51-.078.785-.133" mask="url(#bj)"/>
                    </g>
                    <g transform="translate(88.523 18.337)">
                        <mask id="bl" fill="#fff">
                            <use xlink:href="#bk"/>
                        </mask>
                        <path fill="#13A36B" d="M28.423 41.982c-.312-7.828-2.5-16.086-2.5-16.086s1.539 8.022 1.68 16.701c.263-.178.524-.38.781-.61 0 0 .014 0 .039-.005" mask="url(#bl)"/>
                    </g>
                    <g transform="translate(88.523 18.337)">
                        <mask id="bn" fill="#fff">
                            <use xlink:href="#bm"/>
                        </mask>
                        <path fill="#13A36B" d="M32.43 38.878s.125-.14.307-.382c-.795-8.17-4.277-14.26-4.277-14.26s2.994 7.57 3.69 15.123c.096-.152.19-.312.28-.48" mask="url(#bn)"/>
                    </g>
                </g>
            </g>
            <text font-family="Poppins-Bold, Poppins" font-size="16" font-weight="bold" transform="translate(-11 -7)">
                <tspan x="47.544" y="131" fill="#FFF">Buy stuff &amp;</tspan> <tspan x="39" y="148" fill="#FFF">earn tokens!</tspan>
            </text>
        </g>
    </g>
</svg>
