<svg xmlns="http://www.w3.org/2000/svg" width="60" height="60" viewBox="0 0 60 60">
    <g fill="none" fill-rule="evenodd">
        <circle cx="30" cy="30" r="30" fill="#FEC100"/>
        <path fill="#FFF" d="M30.38 14.473l-13.138 14.69c3.175 0 5.95.023 8.722-.028.362-.007.786-.327 1.063-.616 1.152-1.2 2.259-2.442 3.525-3.825 1.2 1.239 2.312 2.417 3.462 3.556.296.294.706.66 1.07.667 2.8.055 5.602.03 8.686.03L30.38 14.473m.003 35.436L10.929 30.48c6.532-6.533 13.089-13.09 19.552-19.556l19.448 19.44-19.546 19.544"/>
    </g>
</svg>
