<svg xmlns="http://www.w3.org/2000/svg" xmlns:xlink="http://www.w3.org/1999/xlink" width="760" height="382" viewBox="0 0 760 382">
    <defs>
        <path id="a" d="M10 0h740c5.523 0 10 4.477 10 10v362c0 5.523-4.477 10-10 10H10c-5.523 0-10-4.477-10-10V10C0 4.477 4.477 0 10 0z"/>
        <radialGradient id="b" fx="50%" fy="50%">
            <stop offset="0%" stop-color="#FFF"/>
            <stop offset="100%" stop-color="#FFF" stop-opacity="0"/>
        </radialGradient>
        <path id="d" d="M.447 26.245a10.029 10.029 0 0 1 11.441 2.039c3.094 3.137 3.757 7.793 2.012 11.594l25.833-26.181a10.03 10.03 0 0 1-11.44-2.04C25.197 8.521 24.534 3.864 26.28.063L.447 26.245z"/>
        <linearGradient id="e" x1="33.333%" x2="66.668%" y1="32.88%" y2="67.121%">
            <stop offset="0%" stop-color="#FFCD3F"/>
            <stop offset="100%" stop-color="#1A82FF"/>
        </linearGradient>
        <linearGradient id="g" x1="32.878%" x2="67.12%" y1="67.12%" y2="32.879%">
            <stop offset="0%" stop-color="#FFCD3F"/>
            <stop offset="100%" stop-color="#1A82FF"/>
        </linearGradient>
        <linearGradient id="h" x1="67.12%" x2="32.878%" y1="66.635%" y2="33.365%">
            <stop offset="0%" stop-color="#FFCD3F"/>
            <stop offset="100%" stop-color="#1A82FF"/>
        </linearGradient>
        <path id="i" d="M.37 10.61a3.98 3.98 0 0 1 4.495.79 3.979 3.979 0 0 1 .79 4.495L15.806 5.744a3.98 3.98 0 0 1-4.495-.79 3.98 3.98 0 0 1-.79-4.496L.37 10.61z"/>
        <linearGradient id="j" x1="34.172%" x2="65.83%" y1="32.88%" y2="67.122%">
            <stop offset="0%" stop-color="#DB4436"/>
            <stop offset="100%" stop-color="#1A82FF"/>
        </linearGradient>
        <path id="k" d="M.142 10.943a3.99 3.99 0 0 1 4.604.833c1.246 1.282 1.513 3.186.81 4.739L15.954 5.813a3.99 3.99 0 0 1-4.605-.834C10.104 3.697 9.837 1.793 10.54.24L.143 10.943z"/>
        <linearGradient id="l" x1="33.186%" x2="66.815%" y1="32.877%" y2="67.12%">
            <stop offset="0%" stop-color="#DB4436"/>
            <stop offset="100%" stop-color="#1A82FF"/>
        </linearGradient>
        <path id="m" d="M0 .344h39.869v40.231H0z"/>
        <path id="n" d="M0 .344h39.869v40.231H0z"/>
        <path id="o" d="M.423 10.942a4.195 4.195 0 0 1 4.74.833 4.195 4.195 0 0 1 .833 4.74L16.698 5.811a4.196 4.196 0 0 1-4.74-.834A4.196 4.196 0 0 1 11.125.24L.423 10.942z"/>
        <path id="p" d="M.175 10.96a3.99 3.99 0 0 1 4.604.834c1.246 1.281 1.513 3.185.81 4.738L15.988 5.83a3.99 3.99 0 0 1-4.604-.833c-1.246-1.282-1.513-3.186-.81-4.74L.175 10.96z"/>
        <linearGradient id="q" x1="66.162%" x2="33.843%" y1="67.123%" y2="32.882%">
            <stop offset="0%" stop-color="#DB4436"/>
            <stop offset="100%" stop-color="#1A82FF"/>
        </linearGradient>
        <path id="s" d="M4.667 4.669a3.984 3.984 0 0 1-4.501.791L10.33 15.624a3.986 3.986 0 0 1 .791-4.5 3.985 3.985 0 0 1 4.502-.792L5.458.167a3.985 3.985 0 0 1-.791 4.502"/>
        <linearGradient id="t" x1="32.878%" x2="67.118%" y1="67.122%" y2="32.88%">
            <stop offset="0%" stop-color="#0E9C57"/>
            <stop offset="100%" stop-color="#1A82FF"/>
        </linearGradient>
        <path id="v" d="M4.667 4.669a3.984 3.984 0 0 1-4.501.791L10.33 15.624a3.986 3.986 0 0 1 .791-4.5 3.985 3.985 0 0 1 4.502-.792L5.458.167a3.985 3.985 0 0 1-.791 4.502"/>
        <path id="x" d="M4.667 4.669a3.984 3.984 0 0 1-4.501.791L10.33 15.624a3.986 3.986 0 0 1 .791-4.5 3.985 3.985 0 0 1 4.502-.792L5.458.167a3.985 3.985 0 0 1-.791 4.502"/>
        <path id="z" d="M.218.144H39.34v39.235H.218z"/>
        <path id="B" d="M4.901 4.891a3.967 3.967 0 0 1-4.48.788l10.117 10.117a3.965 3.965 0 0 1 .787-4.48 3.967 3.967 0 0 1 4.48-.788L5.69.411A3.967 3.967 0 0 1 4.9 4.89"/>
        <linearGradient id="C" x1="32.879%" x2="67.119%" y1="67.121%" y2="32.882%">
            <stop offset="0%" stop-color="#0E9C57"/>
            <stop offset="100%" stop-color="#1A82FF"/>
        </linearGradient>
        <path id="E" d="M4.659 4.867a3.966 3.966 0 0 1-4.48.788l10.116 10.117a3.967 3.967 0 0 1 .788-4.48 3.966 3.966 0 0 1 4.48-.788L5.446.387a3.965 3.965 0 0 1-.787 4.48"/>
        <linearGradient id="F" x1="67.119%" x2="32.88%" y1="32.881%" y2="67.121%">
            <stop offset="0%" stop-color="#0E9C57"/>
            <stop offset="100%" stop-color="#1A82FF"/>
        </linearGradient>
        <path id="H" d="M.366.47h39.016v39.2H.366z"/>
        <path id="J" d="M4.634 4.647a3.965 3.965 0 0 1-4.48.788L10.272 15.55a3.967 3.967 0 0 1 .788-4.479 3.967 3.967 0 0 1 4.48-.789L5.422.167a3.966 3.966 0 0 1-.788 4.48"/>
        <linearGradient id="K" x1="32.877%" x2="67.12%" y1="67.122%" y2="32.879%">
            <stop offset="0%" stop-color="#0E9C57"/>
            <stop offset="100%" stop-color="#1A82FF"/>
        </linearGradient>
    </defs>
    <g fill="none" fill-rule="evenodd">
        <mask id="c" fill="#fff">
            <use xlink:href="#a"/>
        </mask>
        <use fill="#007FFF" xlink:href="#a"/>
        <circle cx="381" cy="101" r="191" fill="url(#b)" mask="url(#c)"/>
        <g fill="#FFF" mask="url(#c)" opacity=".1">
            <path d="M365.495-380l15.66 474L359 567.742l37.816.258-15.66-474 72.021 468.777 37.122-7.203L381.155 94l157.242 447.53 35.159-13.9L381.156 94l242.696 407.71 31.715-20.559-274.412-387.15 319.918 350.623 26.922-26.51L381.155 94 764.15 374.64l21.146-31.295L381.155 94l428.202 205.463 15.014-34.646L381.155 94l460.422 116.988 7.862-36.925L381.155 94l474.586 22.116.259-37.748L381.155 94l22.156-473.741-37.816-.259zM274-368.779L382 94l-71.267-470L274-368.779zM382 94l116-458.176L461.388-372 382 94zM188-341.054L382 94 223.451-355 188-341.054zM382 94l206-427.027L553.263-348 382 94zM108-291.527L382 94 139.668-312 108-291.527zM382 94l279-382.86L629.888-310 382 94zM37-229.538L382 94 63.78-256 37-229.538zM382 94l350-318.22L705.538-251 382 94zM-22-153.888L382 94-.86-185-22-153.888zM382 94l406-242.332L767.527-180 382 94zM-60-77.263L382 94-45.027-112-60-77.263zM382 94L831-64.549 817.053-100 382 94zM-84 14.612L382 94-76.176-22-84 14.612zM382 94l470-71.267L844.779-14 382 94zm-474 15l474-15.322L-91.742 72-92 109zm268 412.028L210.737 536 382 94 176 521.028zm90 31.148L302.613 560 382 94 266 552.176zM-67 252.548L-53.053 288 382 94-67 252.548zm43 83.784L-3.527 368 382 94-24 336.332zm56 75.888L58.462 439 382 94 32 412.22zm71 64.64L134.113 498 382 94 103 476.86zM-88 165.268L-80.779 202 382 94l-470 71.267z"/>
        </g>
        <g mask="url(#c)">
            <path fill="#1A82FF" d="M371.838 156.712c-.2-26.707 21.289-48.52 47.996-48.719 26.707-.2 48.519 21.29 48.719 47.997.199 26.706-21.29 48.518-47.996 48.718-26.708.2-48.52-21.29-48.72-47.996"/>
            <path fill="#FFF" d="M441.378 142.657l-8.314 8.439c.345 1.659.531 3.479.546 5.448.08 10.597-4.85 16.96-13.188 17.023-3.477.026-6.42-1.065-8.649-3.167l28.808-29.24a24.667 24.667 0 0 0-2.69-3.82c-.424-.492-.868-.951-1.322-1.397l.003-.003c-.06-.059-.122-.113-.182-.171-.135-.13-.266-.265-.403-.391l-.007.006c-4.243-3.898-9.678-5.93-15.887-5.884-7.177.054-13.277 2.856-17.642 8.104-4.105 4.936-6.334 11.762-6.279 19.22.038 4.955 1.084 9.612 3.005 13.612l8.359-8.485c-.305-1.593-.467-3.33-.481-5.208-.036-4.878.927-8.829 2.863-11.744 2.271-3.42 5.816-5.245 10.25-5.279 3.454-.025 6.336 1.042 8.536 3.05l-28.748 29.181a24.701 24.701 0 0 0 2.781 3.996c.21.244.426.477.643.71h-.001l.006.006c.25.269.507.53.767.783l.098.096c.083.08.162.167.247.245l.008-.009c4.248 3.98 9.722 6.055 15.994 6.008 7.18-.053 13.293-2.855 17.678-8.103 4.129-4.942 6.371-11.768 6.316-19.22-.038-5.033-1.123-9.762-3.115-13.806"/>
            <path fill="#DB4437" d="M302.825 53.453v37.07h21.603l18.997-32.906h43c-7.989-15.627-24.245-26.325-43-26.325-17.037 0-32.011 8.83-40.6 22.16"/>
            <path fill="#0F9D58" d="M341.153 127.761l.007.001h-.007M362.429 90.523h-38.001l-21.609-37.061a48.037 48.037 0 0 0-7.655 26.092c0 25.887 20.382 47.012 45.974 48.206l21.29-37.237z"/>
            <path fill="#FFCD40" d="M343.425 57.617l19.004 32.906-21.292 37.238c.759.035 1.521.055 2.288.055 26.655 0 48.263-21.607 48.263-48.262 0-7.899-1.898-15.355-5.264-21.937h-42.999z"/>
            <path fill="#F1F1F1" d="M343.425 57.617c12.116 0 21.938 9.822 21.938 21.937 0 12.116-9.822 21.938-21.938 21.938-12.115 0-21.937-9.822-21.937-21.938 0-12.115 9.822-21.937 21.937-21.937"/>
            <path fill="#4285F4" d="M343.425 62.005c9.693 0 17.55 7.857 17.55 17.55 0 9.692-7.857 17.55-17.55 17.55-9.692 0-17.55-7.858-17.55-17.55 0-9.693 7.858-17.55 17.55-17.55"/>
            <g transform="translate(361 98)">
                <mask id="f" fill="#fff">
                    <use xlink:href="#d"/>
                </mask>
                <path fill="url(#e)" d="M.447 26.721a10.211 10.211 0 0 1 11.65 2.076c3.15 3.194 3.825 7.935 2.047 11.806l26.303-26.658A10.212 10.212 0 0 1 28.8 11.868C25.649 8.675 24.973 3.933 26.75.063L.447 26.72z" mask="url(#f)"/>
            </g>
            <path fill="#1A82FF" d="M324.11 197.173c-11.867.089-21.56-9.46-21.648-21.327-.089-11.866 9.46-21.558 21.326-21.647 11.867-.089 21.56 9.46 21.648 21.327.088 11.866-9.46 21.558-21.327 21.647"/>
            <path fill="#FFCD40" d="M280.078 190.691c-6.943 3.55-11.696 10.773-11.696 19.106 0 7.57 3.922 14.224 9.846 18.04h.008l-.004.003a21.345 21.345 0 0 0 11.594 3.401c11.502 0 20.888-9.056 21.42-20.428V210.804v0c.015-.334.024-.67.024-1.007 0-11.843-9.6-21.444-21.444-21.444-3.51 0-6.823.843-9.748 2.338z"/>
            <path fill="url(#g)" d="M34.726 35.033a4.665 4.665 0 0 1-5.268.926l11.897 11.898a4.665 4.665 0 0 1 .927-5.269 4.665 4.665 0 0 1 5.27-.927l-11.9-11.897a4.663 4.663 0 0 1-.926 5.269" transform="translate(268.117 154.199)"/>
            <path fill="#1A82FF" d="M32.11 349.173c-11.867.089-21.56-9.46-21.648-21.327-.089-11.866 9.46-21.558 21.326-21.647 11.867-.089 21.56 9.46 21.648 21.327.088 11.866-9.46 21.558-21.327 21.647"/>
            <path fill="#FFCD40" d="M-11.922 342.691c-6.943 3.55-11.696 10.773-11.696 19.106 0 7.57 3.922 14.224 9.846 18.04h.008l-.004.003a21.345 21.345 0 0 0 11.594 3.401c11.502 0 20.888-9.056 21.42-20.428V362.804v0c.015-.334.024-.67.024-1.007 0-11.843-9.6-21.444-21.444-21.444-3.51 0-6.823.843-9.748 2.338z"/>
            <path fill="url(#g)" d="M34.726 35.033a4.665 4.665 0 0 1-5.268.926l11.897 11.898a4.665 4.665 0 0 1 .927-5.269 4.665 4.665 0 0 1 5.27-.927l-11.9-11.897a4.663 4.663 0 0 1-.926 5.269" transform="translate(-23.883 306.199)"/>
            <path fill="#1A82FF" d="M161.827 39.11c-.089-11.867 9.46-21.56 21.327-21.648 11.866-.089 21.558 9.46 21.647 21.326.089 11.867-9.46 21.56-21.327 21.648-11.866.088-21.558-9.46-21.647-21.327"/>
            <path fill="#FFCD40" d="M168.309-4.922c-3.55-6.943-10.773-11.696-19.106-11.696-7.57 0-14.224 3.922-18.04 9.846v.008l-.003-.004a21.345 21.345 0 0 0-3.401 11.594c0 11.502 9.056 20.888 20.428 21.42h-.001.01-.002.002c.334.015.67.024 1.007.024 11.843 0 21.444-9.6 21.444-21.444 0-3.51-.843-6.823-2.338-9.748z"/>
            <path fill="url(#g)" d="M34.726 35.033a4.665 4.665 0 0 1-5.268.926l11.897 11.898a4.665 4.665 0 0 1 .927-5.269 4.665 4.665 0 0 1 5.27-.927l-11.9-11.897a4.663 4.663 0 0 1-.926 5.269" transform="rotate(90 110.842 93.96)"/>
            <path fill="#1A82FF" d="M518.89 353.827c11.867-.089 21.56 9.46 21.648 21.327.089 11.866-9.46 21.558-21.326 21.647-11.867.089-21.56-9.46-21.648-21.327-.088-11.866 9.46-21.558 21.327-21.647"/>
            <path fill="#FFCD40" d="M562.922 360.309c6.943-3.55 11.696-10.773 11.696-19.106 0-7.57-3.922-14.224-9.846-18.04h-.008l.004-.003a21.345 21.345 0 0 0-11.594-3.401c-11.502 0-20.888 9.056-21.42 20.428v-.001.01c-.015.334-.024.67-.024 1.007 0 11.843 9.6 21.444 21.444 21.444 3.51 0 6.823-.843 9.748-2.338z"/>
            <path fill="url(#g)" d="M34.726 35.033a4.665 4.665 0 0 1-5.268.926l11.897 11.898a4.665 4.665 0 0 1 .927-5.269 4.665 4.665 0 0 1 5.27-.927l-11.9-11.897a4.663 4.663 0 0 1-.926 5.269" transform="rotate(-180 287.441 198.4)"/>
            <path fill="#1A82FF" d="M555.89 135.827c11.867-.089 21.56 9.46 21.648 21.327.089 11.866-9.46 21.558-21.326 21.647-11.867.089-21.56-9.46-21.648-21.327-.088-11.866 9.46-21.558 21.327-21.647"/>
            <path fill="#FFCD40" d="M599.922 142.309c6.943-3.55 11.696-10.773 11.696-19.106 0-7.57-3.922-14.224-9.846-18.04h-.008l.004-.003a21.345 21.345 0 0 0-11.594-3.401c-11.502 0-20.888 9.056-21.42 20.428v-.001.01c-.015.334-.024.67-.024 1.007 0 11.843 9.6 21.444 21.444 21.444 3.51 0 6.823-.843 9.748-2.338z"/>
            <path fill="url(#g)" d="M34.726 35.033a4.665 4.665 0 0 1-5.268.926l11.897 11.898a4.665 4.665 0 0 1 .927-5.269 4.665 4.665 0 0 1 5.27-.927l-11.9-11.897a4.663 4.663 0 0 1-.926 5.269" transform="rotate(180 305.941 89.4)"/>
            <path fill="#1A82FF" d="M117.89 145.827c11.867-.089 21.56 9.46 21.648 21.327.089 11.866-9.46 21.558-21.326 21.647-11.867.089-21.56-9.46-21.648-21.327-.088-11.866 9.46-21.558 21.327-21.647"/>
            <path fill="#FFCD40" d="M161.922 152.309c6.943-3.55 11.696-10.773 11.696-19.106 0-7.57-3.922-14.224-9.846-18.04h-.008l.004-.003a21.345 21.345 0 0 0-11.594-3.401c-11.502 0-20.888 9.056-21.42 20.428v-.001.01c-.015.334-.024.67-.024 1.007 0 11.843 9.6 21.444 21.444 21.444 3.51 0 6.823-.843 9.748-2.338z"/>
            <path fill="url(#g)" d="M34.726 35.033a4.665 4.665 0 0 1-5.268.926l11.897 11.898a4.665 4.665 0 0 1 .927-5.269 4.665 4.665 0 0 1 5.27-.927l-11.9-11.897a4.663 4.663 0 0 1-.926 5.269" transform="rotate(180 86.941 94.4)"/>
            <path fill="#1A82FF" d="M402.334 1.025c.078 10.331-8.355 18.77-18.836 18.846-10.482.078-19.041-8.235-19.12-18.566-.078-10.332 8.355-18.77 18.836-18.847 10.482-.078 19.041 8.235 19.12 18.567"/>
            <path fill="#FFCD40" d="M396.609 39.359c3.135 6.045 9.514 10.184 16.875 10.184a18.994 18.994 0 0 0 15.934-8.573v-.007l.002.004a18.393 18.393 0 0 0 3.004-10.094c0-10.014-7.998-18.186-18.042-18.648h-.008.002l-.003-.001a19.843 19.843 0 0 0-.889-.021c-10.46 0-18.94 8.359-18.94 18.67 0 3.056.744 5.94 2.065 8.486z"/>
            <path fill="url(#h)" d="M26.923 35.314c1.488-.683 3.31-.424 4.538.786a3.918 3.918 0 0 1 .798 4.474l10.25-10.102a4.062 4.062 0 0 1-4.54-.787 3.92 3.92 0 0 1-.797-4.473L26.923 35.314z" transform="translate(364.373 -17.544)"/>
            <g>
                <path fill="#1A82FF" d="M686.334 344.025c.078 10.331-8.355 18.77-18.836 18.846-10.482.078-19.041-8.235-19.12-18.566-.078-10.332 8.355-18.77 18.836-18.847 10.482-.078 19.041 8.235 19.12 18.567"/>
                <path fill="#FFCD40" d="M680.609 382.359c3.135 6.045 9.514 10.184 16.875 10.184a18.994 18.994 0 0 0 15.934-8.573v-.007l.002.004a18.393 18.393 0 0 0 3.004-10.094c0-10.014-7.998-18.186-18.042-18.648h-.008.002l-.003-.001a19.843 19.843 0 0 0-.889-.021c-10.46 0-18.94 8.359-18.94 18.67 0 3.056.744 5.94 2.065 8.486z"/>
                <path fill="url(#h)" d="M26.923 35.314c1.488-.683 3.31-.424 4.538.786a3.918 3.918 0 0 1 .798 4.474l10.25-10.102a4.062 4.062 0 0 1-4.54-.787 3.92 3.92 0 0 1-.797-4.473L26.923 35.314z" transform="translate(648.373 325.456)"/>
            </g>
            <g>
                <path fill="#1A82FF" d="M474.216 118.812c-.083-11.031 8.873-20.04 20.004-20.122 11.132-.083 20.223 8.793 20.306 19.824.083 11.031-8.873 20.04-20.005 20.123-11.131.083-20.223-8.793-20.305-19.825"/>
                <path fill="#DB4437" d="M480.296 79.215a20.136 20.136 0 0 0-17.922-10.873c-7.101 0-13.343 3.647-16.922 9.153v.008l-.003-.004a19.71 19.71 0 0 0-3.191 10.777c0 10.693 8.495 19.418 19.162 19.911h.009-.003l.003.001c.313.014.628.023.945.023 11.109 0 20.115-8.926 20.115-19.935 0-3.263-.79-6.342-2.193-9.06z"/>
                <path fill="url(#j)" d="M28.255 37.58a3.997 3.997 0 0 1 4.646.849c1.257 1.306 1.526 3.248.817 4.832L44.21 32.349a3.996 3.996 0 0 1-4.646-.85c-1.257-1.307-1.526-3.248-.817-4.832L28.255 37.579z" transform="translate(442.143 68.245)"/>
            </g>
            <g>
                <path fill="#1A82FF" d="M20.216 177.812c-.083-11.031 8.873-20.04 20.004-20.122 11.132-.083 20.223 8.793 20.306 19.824.083 11.031-8.873 20.04-20.005 20.123-11.131.083-20.223-8.793-20.305-19.825"/>
                <path fill="#DB4437" d="M26.296 138.215a20.136 20.136 0 0 0-17.922-10.873c-7.101 0-13.343 3.647-16.922 9.153v.008l-.003-.004a19.71 19.71 0 0 0-3.191 10.777c0 10.693 8.495 19.418 19.162 19.911h.009-.003l.003.001c.313.014.628.023.945.023 11.109 0 20.115-8.926 20.115-19.935 0-3.263-.79-6.342-2.193-9.06z"/>
                <path fill="url(#j)" d="M28.255 37.58a3.997 3.997 0 0 1 4.646.849c1.257 1.306 1.526 3.248.817 4.832L44.21 32.349a3.996 3.996 0 0 1-4.646-.85c-1.257-1.307-1.526-3.248-.817-4.832L28.255 37.579z" transform="translate(-11.857 127.245)"/>
            </g>
            <g>
                <path fill="#1A82FF" d="M690.216 188.812c-.083-11.031 8.873-20.04 20.004-20.122 11.132-.083 20.223 8.793 20.306 19.824.083 11.031-8.873 20.04-20.005 20.123-11.131.083-20.223-8.793-20.305-19.825"/>
                <path fill="#DB4437" d="M696.296 149.215a20.136 20.136 0 0 0-17.922-10.873c-7.101 0-13.343 3.647-16.922 9.153v.008l-.003-.004a19.71 19.71 0 0 0-3.191 10.777c0 10.693 8.495 19.418 19.162 19.911h.009-.003l.003.001c.313.014.628.023.945.023 11.109 0 20.115-8.926 20.115-19.935 0-3.263-.79-6.342-2.193-9.06z"/>
                <path fill="url(#j)" d="M28.255 37.58a3.997 3.997 0 0 1 4.646.849c1.257 1.306 1.526 3.248.817 4.832L44.21 32.349a3.996 3.996 0 0 1-4.646-.85c-1.257-1.307-1.526-3.248-.817-4.832L28.255 37.579z" transform="translate(658.143 138.245)"/>
            </g>
            <g>
                <path fill="#1A82FF" d="M586.784 215.188c.083 11.031-8.873 20.04-20.004 20.122-11.132.083-20.223-8.793-20.306-19.824-.083-11.031 8.873-20.04 20.005-20.123 11.131-.083 20.223 8.793 20.305 19.825"/>
                <path fill="#DB4437" d="M580.704 254.785a20.136 20.136 0 0 0 17.922 10.873c7.101 0 13.343-3.647 16.922-9.153v-.008l.003.004a19.71 19.71 0 0 0 3.191-10.777c0-10.693-8.495-19.418-19.162-19.911h-.009.003l-.003-.001a20.517 20.517 0 0 0-.945-.023c-11.109 0-20.115 8.926-20.115 19.935 0 3.263.79 6.342 2.193 9.06z"/>
                <path fill="url(#j)" d="M28.255 37.58a3.997 3.997 0 0 1 4.646.849c1.257 1.306 1.526 3.248.817 4.832L44.21 32.349a3.996 3.996 0 0 1-4.646-.85c-1.257-1.307-1.526-3.248-.817-4.832L28.255 37.579z" transform="rotate(180 309.428 132.878)"/>
            </g>
            <g>
                <path fill="#1A82FF" d="M246.67 133.619c-.082-11.132 8.793-20.223 19.824-20.306 11.031-.083 20.04 8.873 20.123 20.004.083 11.132-8.793 20.224-19.824 20.306-11.032.084-20.04-8.873-20.123-20.004"/>
                <path fill="#DB4437" d="M252.695 92.316c-3.3-6.513-10.014-10.972-17.76-10.972-7.038 0-13.223 3.68-16.77 9.236v.008l-.002-.004A20.154 20.154 0 0 0 215 101.46c0 10.79 8.42 19.594 18.99 20.092h.008-.002.003c.31.015.622.023.935.023 11.01 0 19.935-9.006 19.935-20.115 0-3.293-.784-6.4-2.174-9.144z"/>
                <path fill="url(#l)" d="M27.098 39.266a4.248 4.248 0 0 1 4.832.857A4.345 4.345 0 0 1 32.78 45l10.912-11.01a4.25 4.25 0 0 1-4.832-.859 4.346 4.346 0 0 1-.85-4.875l-10.912 11.01z" transform="translate(215 81.247)"/>
            </g>
            <g>
                <path fill="#1A82FF" d="M174.67 372.619c-.082-11.132 8.793-20.223 19.824-20.306 11.031-.083 20.04 8.873 20.123 20.004.083 11.132-8.793 20.224-19.824 20.306-11.032.084-20.04-8.873-20.123-20.004"/>
                <path fill="#DB4437" d="M180.695 331.316c-3.3-6.513-10.014-10.972-17.76-10.972-7.038 0-13.223 3.68-16.77 9.236v.008l-.002-.004A20.154 20.154 0 0 0 143 340.46c0 10.79 8.42 19.594 18.99 20.092h.008-.002.003c.31.015.622.023.935.023 11.01 0 19.935-9.006 19.935-20.115 0-3.293-.784-6.4-2.174-9.144z"/>
                <path fill="url(#l)" d="M27.098 39.266a4.248 4.248 0 0 1 4.832.857A4.345 4.345 0 0 1 32.78 45l10.912-11.01a4.25 4.25 0 0 1-4.832-.859 4.346 4.346 0 0 1-.85-4.875l-10.912 11.01z" transform="translate(143 320.247)"/>
            </g>
            <g>
                <path fill="#1A82FF" d="M395.208 234.16c.083 11.03-8.793 20.04-19.825 20.122-11.03.083-20.04-8.793-20.122-19.824-.083-11.031 8.793-20.04 19.824-20.123 11.031-.082 20.04 8.793 20.123 19.825"/>
                <path fill="#DB4437" d="M389.183 275.09c3.3 6.454 10.014 10.874 17.76 10.874 7.038 0 13.223-3.647 16.77-9.154v-.007l.003.004a19.84 19.84 0 0 0 3.162-10.778c0-10.693-8.419-19.418-18.99-19.911h-.009.003-.003c-.31-.015-.622-.023-.936-.023-11.009 0-19.934 8.925-19.934 19.934 0 3.263.784 6.343 2.174 9.061z"/>
            </g>
            <g transform="translate(383 242)">
                <mask id="r" fill="#fff">
                    <use xlink:href="#p"/>
                </mask>
                <path fill="url(#q)" d="M.175 10.96a3.99 3.99 0 0 1 4.604.834c1.246 1.281 1.513 3.185.81 4.738L15.988 5.83a3.99 3.99 0 0 1-4.604-.833c-1.246-1.282-1.513-3.186-.81-4.74L.175 10.96z" mask="url(#r)"/>
            </g>
            <g>
                <path fill="#1A82FF" d="M300.322 26.669c-10.825.08-19.666-8.629-19.746-19.454-.08-10.824 8.628-19.665 19.453-19.745 10.825-.082 19.665 8.628 19.746 19.453.081 10.824-8.628 19.665-19.453 19.746"/>
                <path fill="#0F9D58" d="M260.158 20.756c-6.333 3.238-10.67 9.827-10.67 17.428 0 6.906 3.579 12.975 8.982 16.456h.008l-.004.002a19.47 19.47 0 0 0 10.575 3.103c10.493 0 19.055-8.261 19.539-18.633v-.01 0c.014-.304.022-.61.022-.918 0-10.803-8.757-19.56-19.56-19.56-3.202 0-6.224.769-8.892 2.132z"/>
                <g transform="translate(277.132 15.132)">
                    <mask id="u" fill="#fff">
                        <use xlink:href="#s"/>
                    </mask>
                    <path fill="url(#t)" d="M4.667 4.669a3.984 3.984 0 0 1-4.501.791L10.33 15.624a3.986 3.986 0 0 1 .791-4.5 3.985 3.985 0 0 1 4.502-.792L5.458.167a3.985 3.985 0 0 1-.791 4.502" mask="url(#u)"/>
                </g>
            </g>
            <g>
                <path fill="#1A82FF" d="M596.678 24.331c10.825-.08 19.666 8.629 19.746 19.454.08 10.824-8.628 19.665-19.453 19.745-10.825.082-19.665-8.628-19.746-19.453-.081-10.824 8.628-19.665 19.453-19.746"/>
                <path fill="#0F9D58" d="M636.842 30.244c6.333-3.238 10.67-9.827 10.67-17.428 0-6.906-3.579-12.975-8.982-16.456h-.008l.004-.002a19.47 19.47 0 0 0-10.575-3.103c-10.493 0-19.055 8.261-19.539 18.633v.01-.003.003c-.014.304-.022.61-.022.918 0 10.803 8.757 19.56 19.56 19.56 3.202 0 6.224-.769 8.892-2.132z"/>
                <g transform="rotate(180 309.934 17.934)">
                    <mask id="w" fill="#fff">
                        <use xlink:href="#v"/>
                    </mask>
                    <path fill="url(#t)" d="M4.667 4.669a3.984 3.984 0 0 1-4.501.791L10.33 15.624a3.986 3.986 0 0 1 .791-4.5 3.985 3.985 0 0 1 4.502-.792L5.458.167a3.985 3.985 0 0 1-.791 4.502" mask="url(#w)"/>
                </g>
            </g>
            <g>
                <path fill="#1A82FF" d="M154.322 237.669c-10.825.08-19.666-8.629-19.746-19.454-.08-10.824 8.628-19.665 19.453-19.745 10.825-.082 19.665 8.628 19.746 19.453.081 10.824-8.628 19.665-19.453 19.746"/>
                <path fill="#0F9D58" d="M114.158 231.756c-6.333 3.238-10.67 9.827-10.67 17.428 0 6.906 3.579 12.975 8.982 16.456h.008l-.004.002a19.47 19.47 0 0 0 10.575 3.103c10.493 0 19.055-8.261 19.539-18.633v-.01 0c.014-.304.022-.61.022-.918 0-10.803-8.757-19.56-19.56-19.56-3.202 0-6.224.769-8.892 2.132z"/>
                <g transform="translate(131.132 226.132)">
                    <mask id="y" fill="#fff">
                        <use xlink:href="#x"/>
                    </mask>
                    <path fill="url(#t)" d="M4.667 4.669a3.984 3.984 0 0 1-4.501.791L10.33 15.624a3.986 3.986 0 0 1 .791-4.5 3.985 3.985 0 0 1 4.502-.792L5.458.167a3.985 3.985 0 0 1-.791 4.502" mask="url(#y)"/>
                </g>
            </g>
            <g>
                <path fill="#1A82FF" d="M345.051 312.5c-10.825.081-19.665-8.654-19.746-19.51-.08-10.855 8.629-19.722 19.453-19.803 10.825-.081 19.665 8.654 19.746 19.51.08 10.856-8.629 19.722-19.453 19.803"/>
                <g transform="translate(294 304.288)">
                    <mask id="A" fill="#fff">
                        <use xlink:href="#z"/>
                    </mask>
                    <path fill="#0F9D58" d="M10.887 2.283A19.623 19.623 0 0 0 .217 19.762 19.615 19.615 0 0 0 9.2 36.265h.008l-.004.002a19.43 19.43 0 0 0 10.575 3.112c10.493 0 19.055-8.285 19.539-18.687v-.01.003-.003c.014-.305.023-.612.023-.92C39.34 8.927 30.582.144 19.778.144c-3.201 0-6.223.772-8.89 2.14z" mask="url(#A)"/>
                </g>
            </g>
            <g transform="translate(306 281)">
                <mask id="D" fill="#fff">
                    <use xlink:href="#B"/>
                </mask>
                <path fill="url(#C)" d="M4.901 4.891a3.967 3.967 0 0 1-4.48.788l10.117 10.117a3.965 3.965 0 0 1 .787-4.48 3.967 3.967 0 0 1 4.48-.788L5.69.411A3.967 3.967 0 0 1 4.9 4.89" mask="url(#D)"/>
            </g>
            <g>
                <path fill="#1A82FF" d="M464.932 209.506c10.825-.082 19.666 8.694 19.746 19.601.081 10.907-8.628 19.816-19.453 19.897-10.824.081-19.665-8.695-19.746-19.602-.08-10.907 8.63-19.815 19.453-19.896"/>
                <path fill="#0F9D58" d="M505.096 215.463a19.726 19.726 0 0 0 10.67-17.561 19.73 19.73 0 0 0-8.982-16.581h-.007l.003-.002a19.358 19.358 0 0 0-10.575-3.127c-10.492 0-19.054 8.324-19.538 18.776v.008-.002.003a19.56 19.56 0 0 0-.023.925c0 10.886 8.758 19.71 19.561 19.71 3.202 0 6.223-.775 8.891-2.15z"/>
            </g>
            <g transform="translate(473 206)">
                <mask id="G" fill="#fff">
                    <use xlink:href="#E"/>
                </mask>
                <path fill="url(#F)" d="M4.659 4.867a3.966 3.966 0 0 1-4.48.788l10.116 10.117a3.967 3.967 0 0 1 .788-4.48 3.966 3.966 0 0 1 4.48-.788L5.446.387a3.965 3.965 0 0 1-.787 4.48" mask="url(#G)"/>
            </g>
            <g>
                <g transform="translate(488.05 -27)">
                    <mask id="I" fill="#fff">
                        <use xlink:href="#H"/>
                    </mask>
                    <path fill="#1A82FF" d="M20.02 39.67C9.246 39.75.447 31.04.366 20.215.286 9.391 8.954.551 19.728.47 30.502.39 39.301 9.1 39.382 19.924c.08 10.824-8.588 19.665-19.362 19.745" mask="url(#I)"/>
                </g>
                <path fill="#0F9D58" d="M468.095 6.757a19.57 19.57 0 0 0-10.62 17.428 19.566 19.566 0 0 0 8.94 16.455h.008l-.004.003a19.31 19.31 0 0 0 10.526 3.103c10.443 0 18.964-8.261 19.446-18.634v-.008.002-.003c.015-.304.023-.61.023-.918 0-10.803-8.717-19.561-19.47-19.561-3.186 0-6.194.77-8.849 2.133z"/>
            </g>
            <g transform="translate(485)">
                <mask id="L" fill="#fff">
                    <use xlink:href="#J"/>
                </mask>
                <path fill="url(#K)" d="M4.634 4.647a3.965 3.965 0 0 1-4.48.788L10.272 15.55a3.967 3.967 0 0 1 .788-4.479 3.967 3.967 0 0 1 4.48-.789L5.422.167a3.966 3.966 0 0 1-.788 4.48" mask="url(#L)"/>
            </g>
        </g>
        <text fill="#FFF" font-family="Poppins-SemiBold, Poppins" font-size="22" font-weight="500" mask="url(#c)">
            <tspan x="304.395" y="229">Download the</tspan> <tspan x="95.475" y="269" font-family="Poppins-Bold, Poppins" font-size="32" font-weight="bold"> </tspan> <tspan x="99.061" y="265.004" font-family="Poppins-Bold, Poppins" font-size="37" font-weight="bold">ORIGIN BROWSER EXTENSION</tspan>
        </text>
        <text fill="#FFF" font-family="Lato-Regular, Lato" font-size="14" mask="url(#c)">
            <tspan x="353.049" y="311">and earn</tspan>
        </text>
        <text fill="#FFF" font-family="Poppins-Bold, Poppins" font-size="26" font-weight="bold" mask="url(#c)">
            <tspan x="262.155" y="343">25 ORIGIN TOKENS</tspan>
        </text>
        <path fill="#FFF" d="M711 6.7h39a3 3 0 0 1 3 3v5a3 3 0 0 1-3 3h-39a3 3 0 0 1-3-3v-5a3 3 0 0 1 3-3z" mask="url(#c)"/>
        <text fill="#007FFF" font-family="Lato-Black, Lato" font-size="8" font-weight="700" mask="url(#c)">
            <tspan x="710.196" y="7">FEATURED</tspan>
        </text>
    </g>
</svg>
