<svg xmlns="http://www.w3.org/2000/svg" xmlns:xlink="http://www.w3.org/1999/xlink" width="58" height="60" viewBox="0 0 58 60">
    <defs>
        <path id="a" d="M49.65 48.683c2.863-1.651 5.206-5.704 5.206-9.006V20.055c0-3.302-2.343-7.355-5.207-9.006L32.634 1.24c-2.863-1.652-7.549-1.652-10.412 0l-17.016 9.81C2.343 12.7 0 16.753 0 20.055v19.622c0 3.302 2.343 7.355 5.206 9.006l17.016 9.81c2.863 1.652 7.549 1.652 10.412 0l17.015-9.81z"/>
    </defs>
    <g fill="none" fill-rule="evenodd" transform="translate(1)">
        <circle cx="28.055" cy="29.99" r="27.41" fill="#26D198"/>
        <g transform="translate(.645)">
            <mask id="b" fill="#fff">
                <use xlink:href="#a"/>
            </mask>
            <g stroke="#FFF" stroke-linecap="square" mask="url(#b)" opacity=".3">
                <path d="M69.01-23.863L-36.118 36.762M69.01-21.928L-36.118 38.697M69.01-19.993L-36.118 40.632M69.01-18.058L-36.118 42.566M69.01-16.124L-36.118 44.501M69.01-14.189L-36.118 46.436M69.01-12.254L-36.118 48.371M69.01-10.32L-36.118 50.307M69.01-8.384L-36.118 52.24M69.01-6.45L-36.118 54.176M69.01-4.515L-36.118 56.11M69.01-2.58L-36.118 58.045M69.01-.645L-36.118 59.98M69.01 1.29L-36.118 61.915M69.01 3.225L-36.118 63.85M69.01 5.16L-36.118 65.784M69.01 7.094L-36.118 67.72M69.01 9.03L-36.118 69.653M69.01 10.964L-36.118 71.59M69.01 12.899L-36.118 73.524M69.01 14.834L-36.118 75.459M69.01 16.769L-36.118 77.394M69.01 18.703L-36.118 79.328M69.01 20.638L-36.118 81.263M69.01 22.573L-36.118 83.198M69.01 24.508L-36.118 85.133M69.01 26.443L-36.118 87.068M69.01 28.378L-36.118 89.003M69.01 30.312L-36.118 90.937M69.01 32.247L-36.118 92.872M69.01 34.182L-36.118 94.807M69.01 36.117L-36.118 96.742"/>
            </g>
        </g>
        <g transform="translate(.34 2.58)">
            <circle cx="27.715" cy="27.41" r="27.41" stroke="#1EC68E" stroke-width="2"/>
            <path fill="#FFF" d="M14.712 37.395h26.745V17.336H14.712v20.059zm2.765-17.83H38.69L28.084 28.16l-10.607-8.595zm21.75 2.433v13.168H16.94V21.998l11.144 9.03 11.144-9.03z"/>
        </g>
    </g>
</svg>
