<svg xmlns="http://www.w3.org/2000/svg" width="48" height="66" viewBox="0 0 48 66">
    <g fill="none" fill-rule="evenodd">
        <path fill="#000" fill-opacity=".1" d="M46.842 50.966c1.544.869 1.544 2.29 0 3.158L26.888 65.35c-1.545.868-4.071.868-5.615 0L1.158 54.034c-1.544-.869-1.544-2.29 0-3.158L21.113 39.65c1.544-.868 4.07-.868 5.614 0l20.115 11.315z"/>
        <path fill="#3E9FFF" d="M46.732 15.421l.01-.017-.01.017m.123-.213l.002-.005-.002.005m-.285.419c.01-.01.016-.02.025-.03l-.025.03m-45.823.201c-.035-.027-.072-.053-.104-.081.033.028.07.054.104.081m-.295-.267l.054.053-.054-.053m-.135-.165l-.022-.027.022.027m-.14-.218l-.005-.008.005.008m46.016.789c-.019.013-.035.028-.054.042.019-.014.035-.029.054-.042m.221-.184c-.014.014-.026.028-.041.04.015-.012.026-.027.041-.04m-.545-2.771L26.171 1.654c-1.512-.872-3.987-.872-5.499 0L1.132 12.92C.355 13.368-.02 13.96 0 14.55v27.896c.018.56.393 1.117 1.13 1.542L20.83 55.346c.755.436 1.752.654 2.748.654.997 0 1.994-.218 2.75-.654L45.869 44.08c.777-.448 1.151-1.042 1.13-1.632V14.644c.021-.59-.353-1.184-1.13-1.632"/>
        <path fill="#1AB57D" d="M24 27.733c-1.014 0-2.028-.221-2.798-.663L1.151 15.562C.4 15.132.019 14.567 0 14v28.267c.02.568.4 1.132 1.15 1.562l20.052 11.509c.77.441 1.784.662 2.798.662V27.733z"/>
        <path fill="#26D198" d="M24 27.733c1.021 0 2.043-.22 2.818-.663L46.84 15.654C47.637 15.2 48.021 14.598 48 14v28.267c.022.598-.362 1.2-1.158 1.654L26.818 55.338C26.043 55.779 25.02 56 24 56V27.733z"/>
        <path fill="#4CE5AB" d="M46.552 12.578c1.534.9 1.534 2.375 0 3.276l-19.83 11.642c-1.535.9-4.046.9-5.58 0L1.15 15.76c-1.535-.901-1.535-2.375 0-3.276L20.98.842c1.535-.901 4.046-.901 5.58 0l19.991 11.736z"/>
        <path fill="#FFF" d="M25.796 18.715c-1.668-1.536-3.247-2.95-.44-3.445 8.545-1.503 9.342-4.484 6.206-6.295-3.199-1.847-8.423-1.289-10.904 3.583-.837 1.644-3.363.688-5.967-.254-2.379-.86-3.405-.351-5.068.616L9 13.282 24.1 22l.608-.348c1.69-.967 2.583-1.558 1.088-2.937"/>
    </g>
</svg>
