<svg xmlns="http://www.w3.org/2000/svg" xmlns:xlink="http://www.w3.org/1999/xlink" width="60" height="60" viewBox="0 0 60 60">
    <defs>
        <circle id="a" cx="28.333" cy="28.977" r="28.333"/>
    </defs>
    <g fill="none" fill-rule="evenodd" transform="translate(1 1)">
        <circle cx="29" cy="28.977" r="28.333" fill="#000"/>
        <g transform="translate(.667)">
            <mask id="b" fill="#fff">
                <use xlink:href="#a"/>
            </mask>
            <g stroke="#FFF" stroke-linecap="square" mask="url(#b)" opacity=".3">
                <path d="M71.333-26.69L-37.333 35.977M71.333-24.69L-37.333 37.977M71.333-22.69L-37.333 39.977M71.333-20.69L-37.333 41.977M71.333-18.69L-37.333 43.977M71.333-16.69L-37.333 45.977M71.333-14.69L-37.333 47.977M71.333-12.69L-37.333 49.977M71.333-10.69L-37.333 51.977M71.333-8.69L-37.333 53.977M71.333-6.69L-37.333 55.977M71.333-4.69L-37.333 57.977M71.333-2.69L-37.333 59.977M71.333-.69L-37.333 61.977M71.333 1.31L-37.333 63.977M71.333 3.31L-37.333 65.977M71.333 5.31L-37.333 67.977M71.333 7.31L-37.333 69.977M71.333 9.31L-37.333 71.977M71.333 11.31L-37.333 73.977M71.333 13.31L-37.333 75.977M71.333 15.31L-37.333 77.977M71.333 17.31L-37.333 79.977M71.333 19.31L-37.333 81.977M71.333 21.31L-37.333 83.977M71.333 23.31L-37.333 85.977M71.333 25.31L-37.333 87.977M71.333 27.31L-37.333 89.977M71.333 29.31L-37.333 91.977M71.333 31.31L-37.333 93.977M71.333 33.31L-37.333 95.977M71.333 35.31L-37.333 97.977"/>
            </g>
        </g>
        <g transform="translate(.352 .643)">
            <circle cx="28.648" cy="28.333" r="28.333" stroke="#000" stroke-width="2"/>
            <g fill="#FFF">
                <path d="M29.182 11.496c-9.232 0-16.72 7.485-16.72 16.72 0 7.387 4.791 13.654 11.434 15.865.835.154 1.142-.363 1.142-.804 0-.399-.015-1.716-.022-3.114-4.652 1.012-5.633-1.972-5.633-1.972-.76-1.933-1.857-2.446-1.857-2.446-1.516-1.038.115-1.017.115-1.017 1.679.118 2.563 1.723 2.563 1.723 1.491 2.556 3.91 1.817 4.865 1.39.15-1.081.584-1.818 1.062-2.236-3.714-.422-7.618-1.856-7.618-8.263 0-1.825.653-3.317 1.723-4.487-.174-.422-.746-2.122.162-4.425 0 0 1.404-.45 4.599 1.714a16.018 16.018 0 0 1 4.185-.563c1.42.007 2.852.192 4.189.563 3.19-2.163 4.592-1.714 4.592-1.714.91 2.303.338 4.003.165 4.425 1.072 1.17 1.72 2.662 1.72 4.487 0 6.422-3.91 7.836-7.634 8.25.6.519 1.134 1.536 1.134 3.096 0 2.237-.02 4.038-.02 4.589 0 .445.302.965 1.15.802C41.115 41.865 45.9 35.6 45.9 28.216c0-9.235-7.486-16.72-16.72-16.72"/>
                <path d="M18.795 35.501c-.037.083-.168.108-.287.052-.12-.055-.189-.168-.15-.252.036-.086.167-.11.288-.052.121.055.19.17.149.252M19.472 36.257c-.08.073-.236.04-.341-.077-.11-.117-.13-.273-.05-.348.083-.074.234-.04.344.077.11.119.13.273.047.348M20.131 37.22c-.102.07-.27.005-.373-.145-.103-.149-.103-.327.002-.398.104-.07.269-.007.373.14.103.152.103.33-.002.403M21.034 38.15c-.091.1-.286.074-.43-.064-.146-.135-.186-.326-.094-.427.093-.101.289-.073.433.064.145.134.19.328.091.427M22.28 38.69c-.04.131-.228.19-.418.135-.188-.058-.312-.21-.274-.343.039-.132.228-.194.419-.134.19.056.313.209.273.342M23.649 38.79c.004.138-.156.253-.355.255-.2.005-.361-.107-.364-.242 0-.14.157-.253.357-.257.199-.003.362.108.362.245M24.922 38.574c.024.134-.114.272-.312.309-.194.036-.373-.047-.398-.181-.025-.138.116-.276.31-.312.198-.034.375.047.4.184"/>
            </g>
        </g>
    </g>
</svg>
