<svg xmlns="http://www.w3.org/2000/svg" xmlns:xlink="http://www.w3.org/1999/xlink" width="89" height="93" viewBox="0 0 89 93">
    <defs>
        <path id="a" d="M76.982 75.483c4.44-2.56 8.073-8.843 8.073-13.963V31.096c0-5.12-3.633-11.404-8.073-13.964L50.6 1.92c-4.44-2.56-11.705-2.56-16.145 0L8.073 17.132C3.633 19.692 0 25.976 0 31.096V61.52c0 5.12 3.633 11.403 8.073 13.963l26.382 15.212c4.44 2.56 11.705 2.56 16.145 0l26.382-15.212z"/>
    </defs>
    <g fill="none" fill-rule="evenodd" transform="translate(1)">
        <g transform="translate(.527 4)">
            <circle cx="42.973" cy="42.5" r="42.5" fill="#4285F4"/>
            <path fill="#FFF" d="M43.778 39.119v7.647h12.65c-.51 3.279-3.824 9.623-12.65 9.623-7.616 0-13.83-6.306-13.83-14.084 0-7.775 6.214-14.084 13.83-14.084 4.333 0 7.233 1.848 8.89 3.441l6.054-5.83C54.834 22.198 49.8 20 43.778 20c-12.332 0-22.305 9.974-22.305 22.305S31.446 64.61 43.778 64.61c12.873 0 21.416-9.05 21.416-21.795 0-1.466-.163-2.581-.354-3.696H43.778z"/>
        </g>
        <mask id="b" fill="#fff">
            <use xlink:href="#a"/>
        </mask>
        <g stroke="#FFF" stroke-linecap="square" mask="url(#b)" opacity=".2">
            <path d="M107-37L-56 57M107-34L-56 60M107-31L-56 63M107-28L-56 66M107-25L-56 69M107-22L-56 72M107-19L-56 75M107-16L-56 78M107-13L-56 81M107-10L-56 84M107-7L-56 87M107-4L-56 90M107-1L-56 93M107 2L-56 96M107 5L-56 99M107 8l-163 94M107 11l-163 94M107 14l-163 94M107 17l-163 94M107 20l-163 94M107 23l-163 94M107 26l-163 94M107 29l-163 94M107 32l-163 94M107 35l-163 94M107 38l-163 94M107 41l-163 94M107 44l-163 94M107 47l-163 94M107 50l-163 94M107 53l-163 94M107 56l-163 94"/>
        </g>
        <circle cx="43.5" cy="46.5" r="42.5" stroke="#4285F4" stroke-width="4"/>
    </g>
</svg>
