<svg xmlns="http://www.w3.org/2000/svg" xmlns:xlink="http://www.w3.org/1999/xlink" width="37" height="40" viewBox="0 0 37 40">
    <defs>
        <path id="a" d="M30.73 30.133c1.773-1.022 3.223-3.53 3.223-5.575V12.413c0-2.044-1.45-4.552-3.222-5.574L20.199.766c-1.772-1.021-4.672-1.021-6.445 0L3.223 6.84C1.45 7.861 0 10.369 0 12.413v12.145c0 2.044 1.45 4.553 3.223 5.575l10.531 6.072c1.773 1.022 4.673 1.022 6.445 0l10.532-6.072z"/>
    </defs>
    <g fill="none" fill-rule="evenodd">
        <path fill="#F0F6F9" d="M32.13 32.08c1.772-1.022 3.223-3.53 3.223-5.574V14.36c0-2.044-1.45-4.553-3.223-5.575L21.598 2.714c-1.772-1.022-4.672-1.022-6.445 0L4.622 8.786c-1.773 1.022-3.223 3.53-3.223 5.575v12.145c0 2.043 1.45 4.552 3.223 5.574l10.531 6.072c1.773 1.022 4.673 1.022 6.445 0L32.13 32.08z"/>
        <g transform="translate(1.4 1.947)">
            <mask id="b" fill="#fff">
                <use xlink:href="#a"/>
            </mask>
            <g stroke="#FFF" stroke-linecap="square" mask="url(#b)" opacity=".3">
                <path d="M42.714-14.77l-65.069 37.524M42.714-13.573l-65.069 37.525M42.714-12.375l-65.069 37.524M42.714-11.177l-65.069 37.524M42.714-9.98l-65.069 37.524M42.714-8.782l-65.069 37.524M42.714-7.585L-22.355 29.94M42.714-6.387l-65.069 37.524M42.714-5.19l-65.069 37.525M42.714-3.992l-65.069 37.524M42.714-2.794L-22.355 34.73M42.714-1.597l-65.069 37.524M42.714-.4l-65.069 37.525M42.714.798l-65.069 37.525M42.714 1.996L-22.355 39.52M42.714 3.194l-65.069 37.524M42.714 4.391l-65.069 37.524M42.714 5.589l-65.069 37.524M42.714 6.786L-22.355 44.31M42.714 7.984l-65.069 37.524M42.714 9.181l-65.069 37.525M42.714 10.379l-65.069 37.524M42.714 11.577L-22.355 49.1M42.714 12.774l-65.069 37.524M42.714 13.972l-65.069 37.524M42.714 15.17l-65.069 37.524M42.714 16.367L-22.355 53.89M42.714 17.565l-65.069 37.524M42.714 18.762l-65.069 37.524M42.714 19.96l-65.069 37.524M42.714 21.157l-65.069 37.524M42.714 22.355l-65.069 37.524"/>
            </g>
        </g>
        <path stroke="#007FFF" stroke-width="2" d="M32.13 32.08c1.772-1.022 3.223-3.53 3.223-5.574V14.36c0-2.044-1.45-4.553-3.223-5.575L21.598 2.714c-1.772-1.022-4.672-1.022-6.445 0L4.622 8.786c-1.773 1.022-3.223 3.53-3.223 5.575v12.145c0 2.043 1.45 4.552 3.223 5.574l10.531 6.072c1.773 1.022 4.673 1.022 6.445 0L32.13 32.08z"/>
        <path fill="#007FFF" d="M6.686 24.21h4.442c-.02-4.84 2.216-2.735 2.216-6.588 0-1.487-.97-2.293-2.218-2.293-1.844 0-3.127 1.763-1.38 5.061.573 1.085-.611 1.342-1.884 1.636-1.105.254-1.178.794-1.178 1.728l.002.457zm22.506-2.184c-1.273-.294-2.457-.552-1.884-1.636 1.746-3.298.463-5.061-1.381-5.061-1.249 0-2.219.806-2.219 2.293 0 3.852 2.238 1.747 2.217 6.589h4.441l.002-.457c0-.934-.073-1.474-1.176-1.728zm-4.748 2.185H12.607l-.002-.615c0-1.243.099-1.96 1.567-2.3 1.662-.383 3.3-.726 2.512-2.18-2.335-4.305-.665-6.748 1.841-6.748 2.459 0 4.17 2.352 1.842 6.75-.765 1.444.815 1.788 2.511 2.18 1.47.339 1.568 1.057 1.568 2.302l-.002.61z"/>
    </g>
</svg>
