<svg xmlns="http://www.w3.org/2000/svg" width="32" height="32" viewBox="0 0 32 32">
    <path fill="#FFF" fill-rule="evenodd" d="M19.76 32H.007L0 30.345c0-3.36.266-5.3 4.238-6.217 4.486-1.036 8.917-1.964 6.786-5.89C4.714 6.597 9.224 0 16 0c9.002 0 10.008 10.127 4.852 18.239-1.722 2.708-3.518 4.84-3.518 7.761 0 2.33.928 4.441 2.426 6zm9.574-5.333h-2.667v2.666h-1.333v-2.666h-2.667v-1.334h2.667v-2.666h1.333v2.666h2.667v1.334zM26 20c-3.312 0-6 2.687-6 6s2.688 6 6 6c3.311 0 6-2.687 6-6s-2.689-6-6-6z"/>
</svg>
