<svg xmlns="http://www.w3.org/2000/svg" width="37" height="40" viewBox="0 0 37 40">
    <g fill="none" fill-rule="evenodd">
        <path fill="#DFE6EA" d="M32.13 32.08c1.772-1.022 3.223-3.53 3.223-5.574V14.36c0-2.044-1.45-4.553-3.223-5.575L21.598 2.714c-1.772-1.022-4.672-1.022-6.445 0L4.622 8.786c-1.773 1.022-3.223 3.53-3.223 5.575v12.145c0 2.043 1.45 4.552 3.223 5.574l10.531 6.072c1.773 1.022 4.673 1.022 6.445 0L32.13 32.08z"/>
        <path stroke="#DFE6EA" stroke-width="2" d="M32.13 32.08c1.772-1.022 3.223-3.53 3.223-5.574V14.36c0-2.044-1.45-4.553-3.223-5.575L21.598 2.714c-1.772-1.022-4.672-1.022-6.445 0L4.622 8.786c-1.773 1.022-3.223 3.53-3.223 5.575v12.145c0 2.043 1.45 4.552 3.223 5.574l10.531 6.072c1.773 1.022 4.673 1.022 6.445 0L32.13 32.08z"/>
        <path fill="#FFF" d="M6.686 24.21h4.442c-.02-4.84 2.216-2.735 2.216-6.588 0-1.487-.97-2.293-2.218-2.293-1.844 0-3.127 1.763-1.38 5.061.573 1.085-.611 1.342-1.884 1.636-1.105.254-1.178.794-1.178 1.728l.002.457zm22.506-2.184c-1.273-.294-2.457-.552-1.884-1.636 1.746-3.298.463-5.061-1.381-5.061-1.249 0-2.219.806-2.219 2.293 0 3.852 2.238 1.747 2.217 6.589h4.441l.002-.457c0-.934-.073-1.474-1.176-1.728zm-4.748 2.185H12.607l-.002-.615c0-1.243.099-1.96 1.567-2.3 1.662-.383 3.3-.726 2.512-2.18-2.335-4.305-.665-6.748 1.841-6.748 2.459 0 4.17 2.352 1.842 6.75-.765 1.444.815 1.788 2.511 2.18 1.47.339 1.568 1.057 1.568 2.302l-.002.61z"/>
    </g>
</svg>
