<svg xmlns="http://www.w3.org/2000/svg" xmlns:xlink="http://www.w3.org/1999/xlink" width="89" height="93" viewBox="0 0 89 93">
    <defs>
        <path id="a" d="M76.982 75.483c4.44-2.56 8.073-8.843 8.073-13.963V31.096c0-5.12-3.633-11.404-8.073-13.964L50.6 1.92c-4.44-2.56-11.705-2.56-16.145 0L8.073 17.132C3.633 19.692 0 25.976 0 31.096V61.52c0 5.12 3.633 11.403 8.073 13.963l26.382 15.212c4.44 2.56 11.705 2.56 16.145 0l26.382-15.212z"/>
    </defs>
    <g fill="none" fill-rule="evenodd" transform="translate(2)">
        <g transform="translate(0 4)">
            <circle cx="42.5" cy="42.5" r="42.5" fill="#FFE812"/>
            <path fill="#000" d="M37.675 38.534c-.463 1.328-.935 2.636-1.397 3.984h2.858l-1.405-3.993-.056.01zm9.286 6.228v-.337-6.153c0-.667.009-1.333-.003-2-.015-.808-.669-1.424-1.481-1.42-.9.004-1.462.763-1.46 1.442.011 3.256.01 6.512 0 9.768a1.341 1.341 0 0 0 1.007 1.292c.18.045.372.05.559.05 1.418.004 2.837.003 4.255.002.12 0 .24-.003.359-.014a1.343 1.343 0 0 0 1.19-1.1c.104-.53-.185-1.094-.696-1.364a1.591 1.591 0 0 0-.768-.167c-.88.003-1.76.001-2.64.001h-.322zm-16.353-7.08h.314c.59 0 1.179.002 1.768-.002.136 0 .273-.012.408-.032a1.406 1.406 0 0 0 1.182-1.35c.015-.674-.455-1.284-1.107-1.413a2.917 2.917 0 0 0-.56-.038c-2.29-.002-4.58-.002-6.87 0-.136 0-.273 0-.409.016-.57.063-.975.367-1.174.898-.194.518-.109 1.011.263 1.435.308.353.712.485 1.168.486h2.136v.34c0 2.725-.001 5.45.002 8.176.001.62.302 1.064.868 1.3.57.236 1.108.143 1.573-.269.32-.283.442-.65.44-1.077-.005-2.708-.002-5.416-.002-8.124v-.346zm9.289 7.416c.034.084.068.162.098.24.196.51.402 1.017.584 1.532.13.367.388.574.75.667.49.126.965.065 1.423-.145a.785.785 0 0 0 .45-.53c.045-.18.066-.371.063-.557-.007-.379-.108-.742-.242-1.095l-1.991-5.244-1.402-3.687a2.197 2.197 0 0 0-1.106-1.225 1.737 1.737 0 0 0-1.534-.047c-.577.251-.98.675-1.206 1.261-.256.661-.504 1.325-.756 1.987-.874 2.299-1.748 4.597-2.62 6.896-.168.442-.293.894-.265 1.373.026.462.238.79.692.945.338.115.683.162 1.035.112.473-.067.824-.283.987-.77.167-.502.372-.991.562-1.486.03-.078.065-.154.095-.227h4.383zm15.436-2.604c.091.117.145.182.196.25l3.104 4.11c.062.082.122.166.192.241.383.412.863.55 1.4.426.52-.12.876-.455 1.035-.969.155-.5.044-.955-.273-1.373-1.106-1.456-2.205-2.917-3.306-4.376-.06-.08-.119-.163-.214-.294.086-.062.172-.108.238-.174.999-.995 1.993-1.994 2.993-2.988.346-.343.478-.74.355-1.213-.205-.783-1.002-1.202-1.617-1.064a1.269 1.269 0 0 0-.631.367c-1.237 1.24-2.477 2.479-3.716 3.717-.061.062-.128.118-.235.215v-.316-2.589c0-.085.001-.17-.004-.256a1.446 1.446 0 0 0-1.914-1.28c-.592.207-.963.742-.963 1.4-.002 3.101 0 6.203 0 9.305 0 .188-.004.376 0 .564a1.44 1.44 0 0 0 1.263 1.392c.713.081 1.38-.36 1.56-1.048.043-.162.055-.337.056-.506.005-.94.002-1.88.003-2.82 0-.1-.011-.2.075-.285.134-.131.256-.275.403-.436zM29.704 57.44l-.234-.125c-2.402-1.225-4.575-2.765-6.442-4.718-2.138-2.238-3.704-4.81-4.506-7.82a15.49 15.49 0 0 1-.501-3.232c-.188-3.8.917-7.214 3.071-10.311 1.628-2.34 3.7-4.22 6.088-5.76 2.877-1.853 6.01-3.073 9.352-3.78a31.277 31.277 0 0 1 4.155-.58 31.237 31.237 0 0 1 4.354-.024c3.226.211 6.352.885 9.354 2.101 2.755 1.117 5.273 2.625 7.479 4.63 2.148 1.951 3.846 4.228 4.942 6.931a15.968 15.968 0 0 1 1.15 6.942 16.02 16.02 0 0 1-1.408 5.634c-.973 2.152-2.334 4.03-4.01 5.685-2.33 2.303-5.056 3.999-8.076 5.237a28.899 28.899 0 0 1-6.222 1.759 33.15 33.15 0 0 1-3.126.364 29.8 29.8 0 0 1-3.97.022c-.783-.049-1.563-.146-2.344-.233a.649.649 0 0 0-.474.123c-2.562 1.762-5.125 3.525-7.698 5.272-.692.47-1.415.894-2.133 1.323a2.44 2.44 0 0 1-.66.266c-.392.096-.679-.146-.674-.549a1.6 1.6 0 0 1 .069-.401c.526-1.892 1.052-3.783 1.585-5.672.27-.962.553-1.92.83-2.88.016-.056.028-.115.05-.204z"/>
        </g>
        <mask id="b" fill="#fff">
            <use xlink:href="#a"/>
        </mask>
        <g stroke="#FFF" stroke-linecap="square" mask="url(#b)" opacity=".2">
            <path d="M107-37L-56 57M107-34L-56 60M107-31L-56 63M107-28L-56 66M107-25L-56 69M107-22L-56 72M107-19L-56 75M107-16L-56 78M107-13L-56 81M107-10L-56 84M107-7L-56 87M107-4L-56 90M107-1L-56 93M107 2L-56 96M107 5L-56 99M107 8l-163 94M107 11l-163 94M107 14l-163 94M107 17l-163 94M107 20l-163 94M107 23l-163 94M107 26l-163 94M107 29l-163 94M107 32l-163 94M107 35l-163 94M107 38l-163 94M107 41l-163 94M107 44l-163 94M107 47l-163 94M107 50l-163 94M107 53l-163 94M107 56l-163 94"/>
        </g>
        <circle cx="42.5" cy="46.5" r="42.5" stroke="#EBD500" stroke-width="4"/>
    </g>
</svg>
