<svg xmlns="http://www.w3.org/2000/svg" xmlns:xlink="http://www.w3.org/1999/xlink" width="60" height="60" viewBox="0 0 60 60">
    <defs>
        <circle id="a" cx="28.333" cy="28.977" r="28.333"/>
    </defs>
    <g fill="none" fill-rule="evenodd" transform="translate(1 1)">
        <circle cx="29" cy="28.977" r="28.333" fill="#0076B4"/>
        <g transform="translate(.667)">
            <mask id="b" fill="#fff">
                <use xlink:href="#a"/>
            </mask>
            <g stroke="#FFF" stroke-linecap="square" mask="url(#b)" opacity=".3">
                <path d="M71.333-26.69L-37.333 35.977M71.333-24.69L-37.333 37.977M71.333-22.69L-37.333 39.977M71.333-20.69L-37.333 41.977M71.333-18.69L-37.333 43.977M71.333-16.69L-37.333 45.977M71.333-14.69L-37.333 47.977M71.333-12.69L-37.333 49.977M71.333-10.69L-37.333 51.977M71.333-8.69L-37.333 53.977M71.333-6.69L-37.333 55.977M71.333-4.69L-37.333 57.977M71.333-2.69L-37.333 59.977M71.333-.69L-37.333 61.977M71.333 1.31L-37.333 63.977M71.333 3.31L-37.333 65.977M71.333 5.31L-37.333 67.977M71.333 7.31L-37.333 69.977M71.333 9.31L-37.333 71.977M71.333 11.31L-37.333 73.977M71.333 13.31L-37.333 75.977M71.333 15.31L-37.333 77.977M71.333 17.31L-37.333 79.977M71.333 19.31L-37.333 81.977M71.333 21.31L-37.333 83.977M71.333 23.31L-37.333 85.977M71.333 25.31L-37.333 87.977M71.333 27.31L-37.333 89.977M71.333 29.31L-37.333 91.977M71.333 31.31L-37.333 93.977M71.333 33.31L-37.333 95.977M71.333 35.31L-37.333 97.977"/>
            </g>
        </g>
        <g transform="translate(.352 .643)">
            <circle cx="28.648" cy="28.333" r="28.333" stroke="#0076B4" stroke-width="2"/>
            <path fill="#FFF" d="M43.553 39.915h-5.79v-8.29c0-5.451-5.801-4.99-5.801 0v8.29h-5.796V22.53h5.796v3.167c2.527-4.683 11.591-5.03 11.591 4.486v9.733zM20.371 19.947c-1.76 0-3.188-1.438-3.188-3.214 0-1.773 1.426-3.214 3.188-3.214 1.762 0 3.187 1.44 3.187 3.214 0 1.776-1.428 3.214-3.187 3.214zm-2.898 19.968h5.796V22.53h-5.796v17.386z"/>
        </g>
    </g>
</svg>
