<svg xmlns="http://www.w3.org/2000/svg" xmlns:xlink="http://www.w3.org/1999/xlink" width="58" height="60" viewBox="0 0 58 60">
    <defs>
        <path id="a" d="M49.51 48.547c2.856-1.647 5.193-5.688 5.193-8.981V19.999c0-3.293-2.337-7.334-5.192-8.98L32.543 1.234c-2.855-1.647-7.528-1.647-10.384 0L5.192 11.018C2.336 12.665 0 16.706 0 20v19.567c0 3.293 2.336 7.334 5.192 8.98l16.967 9.784c2.856 1.647 7.529 1.647 10.384 0l16.968-9.783z"/>
    </defs>
    <g fill="none" fill-rule="evenodd" transform="translate(1)">
        <circle cx="27.977" cy="29.906" r="27.334" fill="#F4C110"/>
        <g transform="translate(.643)">
            <mask id="b" fill="#fff">
                <use xlink:href="#a"/>
            </mask>
            <g stroke="#FFF" stroke-linecap="square" mask="url(#b)" opacity=".3">
                <path d="M68.817-23.796L-36.016 36.659M68.817-21.867L-36.016 38.59M68.817-19.938L-36.016 40.518M68.817-18.008L-36.016 42.448M68.817-16.079L-36.016 44.377M68.817-14.15L-36.016 46.307M68.817-12.22L-36.016 48.236M68.817-10.29L-36.016 50.165M68.817-8.36L-36.016 52.094M68.817-6.431L-36.016 54.024M68.817-4.502L-36.016 55.954M68.817-2.573L-36.016 57.883M68.817-.643L-36.016 59.812M68.817 1.286L-36.016 61.742M68.817 3.216L-36.016 63.67M68.817 5.145L-36.016 65.601M68.817 7.075L-36.016 67.53M68.817 9.004L-36.016 69.46M68.817 10.933L-36.016 71.39M68.817 12.863L-36.016 73.319M68.817 14.792L-36.016 75.248M68.817 16.722L-36.016 77.177M68.817 18.651L-36.016 79.107M68.817 20.58L-36.016 81.037M68.817 22.51L-36.016 82.966M68.817 24.44L-36.016 84.895M68.817 26.369L-36.016 86.825M68.817 28.298L-36.016 88.754M68.817 30.228L-36.016 90.683M68.817 32.157L-36.016 92.613M68.817 34.087L-36.016 94.542M68.817 36.016L-36.016 96.472"/>
            </g>
        </g>
        <g transform="translate(.34 2.573)">
            <circle cx="27.638" cy="27.334" r="27.334" stroke="#E8B506" stroke-width="2"/>
            <path fill="#FFF" d="M21.145 35.912h12.47V18.455h-12.47v17.457zm6.236 3.741a1.247 1.247 0 1 1-.002-2.494 1.247 1.247 0 0 1 .002 2.494zm-1.871-24.94h3.74a.624.624 0 0 1 0 1.248h-3.74a.624.624 0 0 1 0-1.247zm10.599 0a2.495 2.495 0 0 0-2.494-2.493h-12.47a2.495 2.495 0 0 0-2.494 2.494v24.939a2.495 2.495 0 0 0 2.494 2.494h12.47a2.495 2.495 0 0 0 2.494-2.494v-24.94z"/>
        </g>
    </g>
</svg>
