<?xml version="1.0" encoding="utf-8"?>
<!-- Generator: Adobe Illustrator 21.1.0, SVG Export Plug-In . SVG Version: 6.00 Build 0)  -->
<svg version="1.1" id="artwork" xmlns="http://www.w3.org/2000/svg" xmlns:xlink="http://www.w3.org/1999/xlink" x="0px" y="0px"
	 viewBox="0 0 135.5 40.5" style="enable-background:new 0 0 135.5 40.5;" xml:space="preserve">
<style type="text/css">
	.st0{fill:#A6A6A6;}
	.st1{fill:#FFFFFF;stroke:#FFFFFF;stroke-width:0.2;stroke-miterlimit:10;}
	.st2{fill:#FFFFFF;}
	.st3{fill:url(#SVGID_1_);}
	.st4{fill:url(#SVGID_2_);}
	.st5{fill:url(#SVGID_3_);}
	.st6{fill:url(#SVGID_4_);}
	.st7{opacity:0.2;enable-background:new    ;}
	.st8{opacity:0.12;enable-background:new    ;}
	.st9{opacity:0.25;fill:#FFFFFF;enable-background:new    ;}
</style>
<g>
	<g>
		<path d="M130.2,40.2H5.2c-2.8,0-5-2.2-5-5v-30c0-2.8,2.2-5,5-5h125c2.8,0,5,2.2,5,5v30C135.2,38,133.1,40.2,130.2,40.2z"/>
	</g>
	<g>
		<g>
			<path class="st0" d="M130.2,1.1c2.3,0,4.2,1.9,4.2,4.2v30c0,2.3-1.9,4.2-4.2,4.2H5.2c-2.3,0-4.2-1.9-4.2-4.2v-30
				c0-2.3,1.9-4.2,4.2-4.2H130.2 M130.2,0.2H5.2c-2.8,0-5,2.2-5,5v30c0,2.8,2.2,5,5,5h125c2.8,0,5-2.2,5-5v-30
				C135.2,2.6,133.1,0.2,130.2,0.2L130.2,0.2z"/>
		</g>
	</g>
	<g>
		<path class="st1" d="M47.7,10.5c0,0.8-0.2,1.5-0.7,2c-0.6,0.6-1.3,0.9-2.2,0.9s-1.6-0.3-2.2-0.9c-0.6-0.6-0.9-1.3-0.9-2.2
			c0-0.9,0.3-1.6,0.9-2.2c0.6-0.6,1.3-0.9,2.2-0.9c0.4,0,0.8,0.1,1.2,0.3c0.4,0.2,0.7,0.4,0.9,0.7l-0.5,0.5
			c-0.4-0.5-0.9-0.7-1.6-0.7c-0.6,0-1.2,0.2-1.6,0.7c-0.5,0.4-0.7,1-0.7,1.7s0.2,1.3,0.7,1.7c0.5,0.4,1,0.7,1.6,0.7
			c0.7,0,1.2-0.2,1.7-0.7c0.3-0.3,0.5-0.7,0.5-1.2h-2.2v-0.7h2.9C47.7,10.1,47.7,10.4,47.7,10.5z"/>
		<path class="st1" d="M52.2,8h-2.7v1.9H52v0.7h-2.5v1.9h2.7v0.8h-3.5v-6h3.5V8z"/>
		<path class="st1" d="M55.6,13.2h-0.8V8H53V7.2h4.2V8h-1.7V13.2z"/>
		<path class="st1" d="M60.2,13.2v-6H61v6H60.2z"/>
		<path class="st1" d="M64.3,13.2h-0.8V8h-1.7V7.2h4.1V8h-1.7L64.3,13.2L64.3,13.2z"/>
		<path class="st1" d="M73.8,12.5c-0.6,0.6-1.3,0.9-2.2,0.9c-0.9,0-1.6-0.3-2.2-0.9s-0.9-1.3-0.9-2.2s0.3-1.6,0.9-2.2
			s1.3-0.9,2.2-0.9c0.9,0,1.6,0.3,2.2,0.9s0.9,1.3,0.9,2.2C74.8,11.1,74.4,11.9,73.8,12.5z M70.1,12c0.4,0.4,1,0.7,1.6,0.7
			s1.2-0.2,1.6-0.7c0.4-0.4,0.7-1,0.7-1.7S73.8,9,73.2,8.5c-0.4-0.4-1-0.7-1.6-0.7S70.5,8,70.1,8.5c-0.4,0.4-0.7,1-0.7,1.7
			S69.6,11.5,70.1,12z"/>
		<path class="st1" d="M75.8,13.2v-6h0.9l2.9,4.7l0,0v-1.2V7.2h0.8v6h-0.8l-3.1-4.9l0,0v1.2v3.7H75.8z"/>
	</g>
	<path class="st2" d="M68.3,22c-2.4,0-4.3,1.8-4.3,4.3c0,2.4,1.9,4.3,4.3,4.3s4.3-1.8,4.3-4.3C72.7,23.8,70.8,22,68.3,22z
		 M68.3,28.8c-1.3,0-2.4-1.1-2.4-2.6s1.1-2.6,2.4-2.6s2.4,1,2.4,2.6C70.8,27.8,69.7,28.8,68.3,28.8z M59.1,22
		c-2.4,0-4.3,1.8-4.3,4.3c0,2.4,1.9,4.3,4.3,4.3s4.3-1.8,4.3-4.3C63.3,23.8,61.4,22,59.1,22z M59.1,28.8c-1.3,0-2.4-1.1-2.4-2.6
		s1.1-2.6,2.4-2.6s2.4,1,2.4,2.6C61.4,27.8,60.3,28.8,59.1,28.8z M48,23.3v1.8h4.3c-0.1,1-0.5,1.8-1,2.3c-0.6,0.6-1.6,1.3-3.3,1.3
		c-2.7,0-4.7-2.1-4.7-4.8s2.1-4.8,4.7-4.8c1.4,0,2.5,0.6,3.3,1.3l1.3-1.3c-1.1-1-2.5-1.8-4.5-1.8c-3.6,0-6.7,3-6.7,6.6
		s3.1,6.6,6.7,6.6c2,0,3.4-0.6,4.6-1.9c1.2-1.2,1.6-2.9,1.6-4.2c0-0.4,0-0.8-0.1-1.1C54.1,23.3,48,23.3,48,23.3z M93.3,24.8
		c-0.4-1-1.4-2.7-3.6-2.7s-4,1.7-4,4.3c0,2.4,1.8,4.3,4.2,4.3c1.9,0,3.1-1.2,3.5-1.9l-1.4-1c-0.5,0.7-1.1,1.2-2.1,1.2
		s-1.6-0.4-2.1-1.3l5.7-2.4L93.3,24.8z M87.6,26.2c0-1.6,1.3-2.5,2.2-2.5c0.7,0,1.4,0.4,1.6,0.9L87.6,26.2z M82.8,30.2h1.9V17.8
		h-1.9V30.2z M79.8,23L79.8,23c-0.5-0.5-1.3-1-2.3-1c-2.1,0-4.1,1.9-4.1,4.3c0,2.4,1.9,4.2,4.1,4.2c1,0,1.8-0.5,2.2-1h0.1V30
		c0,1.6-0.9,2.5-2.3,2.5c-1.1,0-1.9-0.8-2.1-1.5l-1.6,0.7c0.5,1.1,1.7,2.5,3.8,2.5c2.2,0,4-1.3,4-4.4v-7.6h-1.8
		C79.8,22.2,79.8,23,79.8,23z M77.7,28.8c-1.3,0-2.4-1.1-2.4-2.6s1.1-2.6,2.4-2.6s2.3,1.1,2.3,2.6C79.9,27.8,78.9,28.8,77.7,28.8z
		 M102.1,17.8h-4.5v12.5h1.9v-4.7h2.6c2.1,0,4.1-1.5,4.1-3.9S104.2,17.8,102.1,17.8z M102.2,23.8h-2.7v-4.3h2.7
		c1.4,0,2.2,1.2,2.2,2.1C104.2,22.7,103.4,23.8,102.2,23.8z M113.7,22c-1.4,0-2.8,0.6-3.3,1.9l1.7,0.7c0.4-0.7,1-0.9,1.7-0.9
		c1,0,1.9,0.6,2,1.6v0.1c-0.3-0.2-1.1-0.5-1.9-0.5c-1.8,0-3.6,1-3.6,2.8c0,1.7,1.5,2.8,3.1,2.8c1.3,0,1.9-0.6,2.4-1.2h0.1v1h1.8
		v-4.8C117.4,23.2,115.8,22,113.7,22z M113.4,28.8c-0.6,0-1.5-0.3-1.5-1.1c0-1,1.1-1.3,2-1.3c0.8,0,1.2,0.2,1.7,0.4
		C115.4,28,114.4,28.8,113.4,28.8z M123.9,22.2l-2.1,5.4h-0.1l-2.2-5.4h-2l3.3,7.6l-1.9,4.2h1.9l5.1-11.8H123.9z M107.2,30.2h1.9
		V17.8h-1.9V30.2z"/>
	<g>
		
			<linearGradient id="SVGID_1_" gradientUnits="userSpaceOnUse" x1="22.02" y1="354.93" x2="5.2376" y2="371.7124" gradientTransform="matrix(1 0 0 1 0 -346)">
			<stop  offset="0" style="stop-color:#00A0FF"/>
			<stop  offset="6.574450e-03" style="stop-color:#00A1FF"/>
			<stop  offset="0.2601" style="stop-color:#00BEFF"/>
			<stop  offset="0.5122" style="stop-color:#00D2FF"/>
			<stop  offset="0.7604" style="stop-color:#00DFFF"/>
			<stop  offset="1" style="stop-color:#00E3FF"/>
		</linearGradient>
		<path class="st3" d="M10.6,7.8c-0.3,0.3-0.5,0.8-0.5,1.4v22.1c0,0.6,0.2,1.1,0.5,1.4l0.1,0.1l12.4-12.4v-0.1v-0.1L10.6,7.8
			L10.6,7.8z"/>
		
			<linearGradient id="SVGID_2_" gradientUnits="userSpaceOnUse" x1="34.0844" y1="366.3" x2="9.8875" y2="366.3" gradientTransform="matrix(1 0 0 1 0 -346)">
			<stop  offset="0" style="stop-color:#FFE000"/>
			<stop  offset="0.4087" style="stop-color:#FFBD00"/>
			<stop  offset="0.7754" style="stop-color:#FFA500"/>
			<stop  offset="1" style="stop-color:#FF9C00"/>
		</linearGradient>
		<path class="st4" d="M27.2,24.5l-4.1-4.1v-0.2v-0.1l4.1-4.1l0.1,0.1l4.9,2.8c1.4,0.8,1.4,2.1,0,2.9L27.2,24.5L27.2,24.5z"/>
		
			<linearGradient id="SVGID_3_" gradientUnits="userSpaceOnUse" x1="25.0655" y1="368.5345" x2="2.3072" y2="391.2928" gradientTransform="matrix(1 0 0 1 0 -346)">
			<stop  offset="0" style="stop-color:#FF3A44"/>
			<stop  offset="1" style="stop-color:#C31162"/>
		</linearGradient>
		<path class="st5" d="M27.3,24.5l-4.2-4.2L10.6,32.8c0.5,0.5,1.2,0.5,2.1,0.1L27.3,24.5"/>
		
			<linearGradient id="SVGID_4_" gradientUnits="userSpaceOnUse" x1="7.5117" y1="346.4618" x2="17.6743" y2="356.6243" gradientTransform="matrix(1 0 0 1 0 -346)">
			<stop  offset="0" style="stop-color:#32A071"/>
			<stop  offset="6.850000e-02" style="stop-color:#2DA771"/>
			<stop  offset="0.4762" style="stop-color:#15CF74"/>
			<stop  offset="0.8009" style="stop-color:#06E775"/>
			<stop  offset="1" style="stop-color:#00F076"/>
		</linearGradient>
		<path class="st6" d="M27.3,16L12.7,7.8c-0.9-0.5-1.6-0.4-2.1,0.1l12.5,12.4L27.3,16z"/>
		<g>
			<path class="st7" d="M27.2,24.3l-14.5,8.2c-0.8,0.5-1.5,0.4-2,0l0,0l-0.1,0.1l0,0l0.1,0.1l0,0c0.5,0.4,1.2,0.5,2,0L27.2,24.3
				L27.2,24.3z"/>
			<path class="st8" d="M10.6,32.5c-0.3-0.3-0.4-0.8-0.4-1.4v0.1c0,0.6,0.2,1.1,0.5,1.4v-0.1H10.6z"/>
		</g>
		<path class="st8" d="M32.2,21.5l-5,2.8l0.1,0.1L32.2,21.5c0.7-0.3,1-0.8,1-1.3l0,0C33.2,20.8,32.8,21.1,32.2,21.5z"/>
		<path class="st9" d="M12.8,7.9L32.2,19c0.6,0.4,1,0.8,1,1.3l0,0c0-0.5-0.3-1-1-1.4L12.8,7.8c-1.4-0.8-2.5-0.1-2.5,1.5v0.1
			C10.2,7.8,11.4,7,12.8,7.9z"/>
	</g>
</g>
</svg>
