<svg xmlns="http://www.w3.org/2000/svg" xmlns:xlink="http://www.w3.org/1999/xlink" width="38" height="38" viewBox="0 0 38 38">
    <defs>
        <rect id="a" width="32.211" height="32.211" x=".518" rx="5"/>
    </defs>
    <g fill="none" fill-rule="evenodd" transform="translate(2 2)">
        <rect width="32.211" height="32.211" x=".895" y=".895" fill="#F0F6F9" rx="5"/>
        <g transform="translate(.377 .895)">
            <mask id="b" fill="#fff">
                <use xlink:href="#a"/>
            </mask>
            <g stroke="#FFF" stroke-linecap="square" mask="url(#b)" opacity=".3">
                <path d="M41.235-14.844l-61.453 35.44M37.657-13.95l-61.454 35.44M34.078-13.055l-61.454 35.44M30.499-12.16l-61.454 35.44M26.92-11.265l-61.454 35.44M29.604-13.95L-31.85 21.49M32.288-16.634l-61.454 35.44M41.235-13.713l-61.453 35.44M41.235-12.582l-61.453 35.44M41.235-11.451l-61.453 35.44M41.235-10.32l-61.453 35.44M41.235-9.19l-61.453 35.44M41.235-8.058l-61.453 35.44M41.235-6.927l-61.453 35.44M41.235-5.796l-61.453 35.44M41.235-4.665l-61.453 35.44M41.235-3.534l-61.453 35.44M41.235-2.403l-61.453 35.44M41.235-1.272l-61.453 35.44M41.235-.14l-61.453 35.439M41.235.99l-61.453 35.44M41.235 2.121l-61.453 35.44M41.235 3.252l-61.453 35.44M41.235 4.383l-61.453 35.44M41.235 5.515l-61.453 35.44M41.235 6.646l-61.453 35.44M41.235 7.777l-61.453 35.44M41.235 8.908l-61.453 35.44M41.235 10.039l-61.453 35.44M41.235 11.17l-61.453 35.44M41.235 12.3l-61.453 35.44M41.235 13.432l-61.453 35.44M41.235 14.563l-61.453 35.44M41.235 15.694l-61.453 35.44M41.235 16.825l-61.453 35.44M41.235 17.956l-61.453 35.44M41.235 19.087l-61.453 35.44M41.235 20.218l-61.453 35.44M44.814 19.323l-61.453 35.44M48.393 18.429l-61.453 35.44M45.71 21.113l-61.454 35.44M61.077 13.421L-.377 48.861"/>
            </g>
        </g>
        <g transform="translate(.199 .613)">
            <rect width="34.211" height="34.211" x="-.304" y="-.719" stroke="#FEC100" stroke-width="2" rx="5"/>
            <path fill="#FEC100" d="M16.13 8.889a.88.88 0 0 0-1.242-1.242l-4.05 4.05h2.483L16.13 8.89zm1.98 7.547c0-1.111.328-2.144.886-3.015H6.909v1.723h.554c.461 0 .88.262 1.082.675l3.534 8.803h10.34l1.042-2.598a5.595 5.595 0 0 1-5.35-5.588zm.258-7.547a.879.879 0 0 1 1.242-1.242l3.26 3.259c-.665.1-1.293.313-1.86.625L18.368 8.89zm4.912 9.701v-1.723h-1.724v-.861h1.724v-1.724l2.584 2.154-2.584 2.154zm.43-6.03a3.877 3.877 0 1 0 0 7.753 3.877 3.877 0 0 0 0-7.754z"/>
        </g>
    </g>
</svg>
