<svg xmlns="http://www.w3.org/2000/svg" width="681" height="341" viewBox="0 0 681 341">
    <path fill="#855FFA" fill-rule="evenodd" d="M36.186-636.301L.188-616.069l12.817 7.295v208.085l46.366 26.388v-208.086l12.816 7.295L36.188-636.3h-.002zm167.001 93.233l12.817 7.295v208.084l46.366 26.388v-208.084l12.817 7.294-36-61.21-36 20.233zm-304 48l12.818 7.295v208.082l46.365 26.39v-208.085l12.818 7.295-36-61.21-36 20.233zm506 24.999l12.818 7.294v208.087l46.364 26.387v-208.086l12.818 7.295-36-61.209-36 20.232zm-304 47.001l12.818 7.294v208.085l46.366 26.388v-208.085l12.816 7.295-36-61.21-36 20.233zm507 24.999l12.818 7.295v208.086l46.365 26.387v-208.086l12.817 7.295-36-61.209-36 20.232zm-304 48l12.817 7.294v208.086l46.366 26.388v-208.086l12.817 7.295-36-61.209-36 20.232zm-304 24l12.818 7.296v208.083L59.37-84.301v-208.085l12.816 7.295-35.999-61.21-36 20.233zm507 49.001l12.818 7.295v208.084l46.365 26.388v-208.085l12.817 7.294-36-61.209-36 20.233zm-304 24l12.817 7.294v208.085l46.366 26.388v-208.085l12.817 7.295-36-61.21-36 20.233zm-304 48l12.818 7.294V10.311l46.365 26.388v-208.085l12.818 7.295-36-61.21-36 20.233zm810 1l12.818 7.295V11.31l46.365 26.389v-208.085l12.817 7.294v-.001l-35.999-61.208-36 20.233zm-304 23.999l12.818 7.294V35.311l46.364 26.388v-208.086l12.818 7.295-36-61.209-36 20.232zm-304 47.001l12.818 7.294V82.312l46.366 26.387V-99.386l12.816 7.295-36-61.21-36 20.233zm507 24.999l12.818 7.295v208.085l46.365 26.388V-74.387l12.817 7.295-36-61.209-36 20.232zm-304 48l12.817 7.294v208.087l46.366 26.387V-26.386l12.817 7.294-36-61.209-36 20.232zm-304 24.001l12.818 7.295v208.084l46.366 26.388V-2.386L72.187 4.91 36.188-56.3l-36 20.233zm507 49l12.818 7.295v208.084l46.365 26.388V46.614l12.817 7.294-36-61.209-36 20.233zm-304 24l12.817 7.294v208.086l46.366 26.387V70.614l12.817 7.295-36-61.21-36 20.233zm-304 48l12.818 7.293v208.086l46.365 26.388V118.614l12.818 7.295-36-61.21-36 20.233zm810 1l12.818 7.295v208.084l46.365 26.388V119.614l12.817 7.294-35.999-61.209-36 20.233zm-304 24l12.818 7.293v208.087l46.364 26.387V143.614l12.818 7.295-36-61.21-36 20.232zm-304 48l12.818 7.293v208.087l46.366 26.387V191.614l12.816 7.295-36-61.21-36 20.233zm507 25l12.818 7.295v208.084l46.365 26.388V216.614l12.817 7.294-36-61.209-36 20.233zm-304 46.999l12.817 7.294v208.087l46.366 26.387V263.614l12.817 7.294-36-61.209-36 20.232zm-304 24.001l12.818 7.293v208.086l46.366 26.388V287.614l12.816 7.295-35.999-61.21-36 20.233zm507 49l12.818 7.294v208.085l46.365 26.388V336.614l12.817 7.294-36-61.209-36 20.233zm-304 24l12.817 7.293v208.087l46.366 26.387V360.614l12.817 7.295-36-61.21-36 20.233zm-304 48l12.818 7.294v208.085l46.365 26.388V408.615l12.818 7.293-36-61.209-36 20.233zm810 1l12.818 7.293v208.086l46.365 26.388V409.613l12.817 7.295-35.999-61.209-36 20.233zm-304 23.999l12.818 7.294v208.087l46.364 26.387V433.614l12.818 7.294-36-61.209-36 20.232zm-304 48l12.818 7.295v208.085l46.366 26.388V481.615l12.816 7.293-36-61.209-36 20.232zm507 25.001l12.818 7.294v208.085l46.365 26.388V506.614l12.817 7.294-36-61.209-36 20.233zm-304 46.999l12.817 7.295v208.087l46.366 26.386V553.615l12.817 7.293-36-61.209-36 20.232zm203 73.001l12.818 7.294v208.085l46.365 26.388V626.614l12.817 7.294-36-61.209-36 20.233zm202 73l12.818 7.294v208.085l46.365 26.388V699.614l12.817 7.294-35.999-61.209-36 20.233z"/>
</svg>
