<svg xmlns="http://www.w3.org/2000/svg" width="42" height="40" viewBox="0 0 42 40">
    <g fill="none" fill-rule="evenodd" transform="translate(1 1)">
        <circle cx="17.908" cy="17.908" r="17.908" fill="#FFF" stroke="#00D693" stroke-width="2"/>
        <path fill="#00D693" d="M6.002 25h6.001c-.028-6.542 2.995-3.697 2.995-8.901C14.998 14.09 13.687 13 12 13c-2.492 0-4.226 2.383-1.866 6.839.775 1.464-.825 1.812-2.545 2.209C6.099 22.392 6 23.12 6 24.381l.002.619zm10.116-3.936c2.293-.529 4.428-.993 3.394-2.945C16.366 12.177 18.678 9 22 9c3.388 0 5.644 3.299 2.488 9.119-1.065 1.964 1.149 2.427 3.394 2.945 1.986.459 2.118 1.43 2.118 3.111l-.003.825H14.003c0-2.196-.176-3.407 2.115-3.936z"/>
        <g transform="translate(24 22)">
            <circle cx="8" cy="8" r="8.5" fill="#111D28" stroke="#FFF"/>
            <path fill="#FFF" d="M6.492 6.584V5.048c0-.848.69-1.537 1.537-1.537s1.536.69 1.536 1.537v1.536H6.492zm1.92 2.967v.874h-.768v-.874a.765.765 0 0 1 .385-1.43.765.765 0 1 1 .384 1.43zm1.921-2.967V5.048a2.305 2.305 0 0 0-4.61 0v1.536H4.572v5.378h6.915V6.584h-1.153z"/>
        </g>
    </g>
</svg>
