<svg xmlns="http://www.w3.org/2000/svg" width="41" height="40" viewBox="0 0 41 40">
    <g fill="none" fill-rule="evenodd" transform="translate(1 1)">
        <circle cx="17.908" cy="17.908" r="17.908" fill="#FFF" stroke="#00D693" stroke-width="2"/>
        <path fill="#00D693" d="M6.002 25h6.001c-.028-6.542 2.995-3.697 2.995-8.901C14.998 14.09 13.687 13 12 13c-2.492 0-4.226 2.383-1.866 6.839.775 1.464-.825 1.812-2.545 2.209C6.099 22.392 6 23.12 6 24.381l.002.619zm10.116-3.936c2.293-.529 4.428-.993 3.394-2.945C16.366 12.177 18.678 9 22 9c3.388 0 5.644 3.299 2.488 9.119-1.065 1.964 1.149 2.427 3.394 2.945 1.986.459 2.118 1.43 2.118 3.111l-.003.825H14.003c0-2.196-.176-3.407 2.115-3.936z"/>
        <g transform="translate(23 22)">
            <circle cx="8" cy="8" r="8.5" fill="#26D198" stroke="#FFF"/>
            <path fill="#FFF" d="M11.452 4L6.75 8.82 4.548 6.732 3 8.28l3.75 3.637L13 5.547z"/>
        </g>
    </g>
</svg>
