<svg xmlns="http://www.w3.org/2000/svg" xmlns:xlink="http://www.w3.org/1999/xlink" width="401" height="303" viewBox="0 0 401 303">
    <defs>
        <path id="a" d="M.126.263h297.056v170.644H.126z"/>
        <path id="c" d="M.213.34h297.056v170.227H.213z"/>
        <path id="e" d="M.213.244h297.056v170.644H.213z"/>
    </defs>
    <g fill="none" fill-rule="evenodd">
        <path fill="#111D28" d="M231.296 269.24c-28.808-16.557-43.21-38.276-43.236-60.046-.025-21.987 14.616-44.028 43.894-60.856 58.268-33.491 152.444-33.66 210.348-.379 28.807 16.559 43.21 38.277 43.235 60.047.026 21.988-14.615 44.027-43.894 60.856-58.268 33.491-152.443 33.66-210.347.379" opacity=".2"/>
        <path fill="#1A82FF" d="M485.537 164.144v26.124c.026 22.151-14.615 44.355-43.894 61.309-58.268 33.74-152.443 33.91-210.347.38-28.808-16.68-43.21-38.56-43.236-60.492v-27.32h297.477z"/>
        <path fill="#40A0FF" d="M231.296 228.205c-28.808-16.558-43.21-38.277-43.236-60.047-.025-21.988 14.616-44.028 43.894-60.856 58.268-33.491 152.444-33.66 210.348-.379 28.807 16.558 43.21 38.277 43.235 60.047.026 21.988-14.615 44.027-43.894 60.856-58.268 33.491-152.443 33.66-210.347.379"/>
        <path fill="#1A82FF" d="M334.164 235.957c-36.193 0-69.902-8.052-94.923-22.674-21.96-12.831-34.063-28.863-34.084-45.142-.017-16.268 12.644-33.005 34.738-45.915 25.443-14.868 59.58-23.055 96.123-23.055 36.19 0 69.902 8.052 94.923 22.674 21.96 12.833 34.064 28.864 34.08 45.139.022 16.27-12.64 33.005-34.734 45.918-25.443 14.868-59.583 23.055-96.123 23.055"/>
        <path fill="#0F7CE8" d="M239.895 126.193c25.443-15.093 59.58-23.404 96.123-23.404 36.19 0 69.902 8.174 94.923 23.015 21.157 12.553 33.133 28.118 33.996 44.013.033-.604.085-1.208.085-1.81-.018-16.522-12.122-32.794-34.081-45.821-25.02-14.842-58.734-23.015-94.923-23.015-36.543 0-70.68 8.31-96.123 23.403-22.094 13.104-34.755 30.091-34.738 46.606 0 .602.051 1.203.084 1.804.872-15.937 13.369-32.166 34.654-44.791"/>
        <path fill="#FFF" d="M318.586 199.766l.092-17.04a73.458 73.458 0 0 1-10.436-5.013c-18.55-10.744-20.858-22.237-6.171-30.744 6.126-3.548 13.24-5.413 20.849-5.523l-.32 59.042a102.16 102.16 0 0 0 11.413 1.179c1.605.073 3.19.092 4.77.087v.007c.208 0 .414-.009.622-.01.464-.004.931.002 1.393-.008v-.014c14.304-.315 27.478-3.742 38.417-10.078 12.643-7.323 18.6-16.364 17.228-26.145-1.291-9.198-9.193-18.429-22.25-25.992-8.675-5.025-18.624-8.721-28.981-10.862l-.093 17.133a75.694 75.694 0 0 1 9.903 4.833c8.538 4.946 13.693 9.957 15.322 14.897 1.912 5.793-1.208 11.248-9.02 15.773-6.083 3.523-13.052 5.351-20.445 5.527l.318-58.921a101.856 101.856 0 0 0-11.878-1.266c-.795-.037-1.583-.056-2.372-.075h-.022a98.626 98.626 0 0 0-2.72-.024h-.341c-.287.003-.577-.004-.863 0v.019c-14.453.235-27.772 3.66-38.82 10.059-12.65 7.326-18.63 16.38-17.294 26.18 1.26 9.23 9.138 18.474 22.184 26.03 8.81 5.104 18.952 8.835 29.515 10.949"/>
        <path fill="#111D28" d="M208.576 168.158c-.025-21.987 14.615-44.028 43.894-60.856 58.268-33.491 152.443-33.66 210.347-.379 28.808 16.559 43.21 38.277 43.236 60.047.025 21.988-14.616 44.027-43.895 60.856-58.267 33.491-152.442 33.66-210.346.379-28.808-16.558-43.21-38.277-43.236-60.047z" opacity=".2"/>
        <path fill="#1A82FF" d="M506.053 126.528v26.124c.025 22.15-14.616 44.354-43.895 61.308-58.267 33.74-152.442 33.91-210.346.382-28.808-16.682-43.21-38.561-43.236-60.493v-27.321h297.477z"/>
        <path fill="#40A0FF" d="M251.812 187.169c-28.808-16.559-43.21-38.277-43.236-60.047-.025-21.988 14.615-44.028 43.894-60.856 58.268-33.491 152.443-33.661 210.347-.379 28.808 16.558 43.21 38.277 43.236 60.047.025 21.987-14.616 44.027-43.895 60.856-58.267 33.491-152.442 33.66-210.346.379"/>
        <path fill="#1A82FF" d="M354.68 198.341c-36.193 0-69.903-8.053-94.923-22.674-21.96-12.832-34.064-28.864-34.085-45.143-.017-16.268 12.645-33.004 34.738-45.914 25.444-14.868 59.58-23.056 96.124-23.056 36.19 0 69.902 8.053 94.923 22.675 21.959 12.833 34.063 28.864 34.08 45.139.021 16.27-12.64 33.005-34.734 45.917-25.444 14.868-59.583 23.056-96.123 23.056"/>
        <path fill="#0F7CE8" d="M260.41 88.576c25.444-15.093 59.58-23.403 96.123-23.403 36.19 0 69.903 8.174 94.924 23.015 21.157 12.552 33.132 28.117 33.996 44.013.033-.604.084-1.208.084-1.811-.017-16.521-12.122-32.793-34.08-45.82-25.021-14.842-58.734-23.016-94.924-23.016-36.543 0-70.68 8.31-96.123 23.404-22.093 13.104-34.755 30.09-34.738 46.605 0 .603.052 1.203.085 1.804.872-15.936 13.368-32.166 34.653-44.79"/>
        <path fill="#FFF" d="M342.52 162.15l.093-17.041a73.458 73.458 0 0 1-10.436-5.012c-18.55-10.745-20.858-22.238-6.171-30.745 6.126-3.548 13.24-5.413 20.849-5.523l-.32 59.043a102.16 102.16 0 0 0 11.413 1.178c1.605.073 3.19.092 4.77.088v.006c.208 0 .414-.008.622-.01.463-.004.931.002 1.393-.008v-.014c14.304-.314 27.478-3.742 38.417-10.078 12.643-7.322 18.6-16.363 17.228-26.144-1.291-9.198-9.193-18.43-22.25-25.992-8.675-5.025-18.624-8.722-28.981-10.863l-.093 17.133a75.694 75.694 0 0 1 9.903 4.834c8.537 4.945 13.693 9.957 15.322 14.896 1.912 5.794-1.208 11.248-9.02 15.773-6.083 3.523-13.052 5.352-20.446 5.528l.319-58.922a101.856 101.856 0 0 0-11.878-1.266c-.795-.037-1.583-.055-2.372-.074h-.022a98.626 98.626 0 0 0-2.72-.024h-.341c-.287.002-.577-.004-.863 0v.019c-14.453.235-27.772 3.659-38.82 10.058-12.65 7.327-18.63 16.38-17.294 26.18 1.26 9.23 9.138 18.475 22.184 26.03 8.81 5.104 18.952 8.835 29.515 10.95"/>
        <path fill="#111D28" d="M227.877 187.169c-28.808-16.558-43.21-38.277-43.236-60.047-.025-21.988 14.616-44.028 43.894-60.856 58.268-33.491 152.443-33.661 210.347-.379 28.808 16.558 43.21 38.277 43.236 60.047.025 21.988-14.615 44.027-43.895 60.856-58.267 33.491-152.442 33.66-210.346.379" opacity=".2"/>
        <path fill="#1A82FF" d="M482.118 85.492v26.124c.025 22.15-14.615 44.354-43.895 61.308-58.267 33.74-152.442 33.91-210.346.381-28.808-16.68-43.21-38.56-43.236-60.492V85.492h297.477z"/>
        <g transform="translate(184.641)">
            <mask id="b" fill="#fff">
                <use xlink:href="#a"/>
            </mask>
            <path fill="#40A0FF" d="M43.3 146.105C14.533 129.58.15 107.905.126 86.178.1 64.234 14.72 42.238 43.958 25.443c58.185-33.425 152.227-33.594 210.05-.378 28.767 16.525 43.149 38.2 43.174 59.927.025 21.944-14.595 43.94-43.832 60.735-58.185 33.425-152.228 33.594-210.05.378" mask="url(#b)"/>
        </g>
        <path fill="#1A82FF" d="M330.745 153.885c-36.193 0-69.903-8.052-94.923-22.674-21.96-12.832-34.064-28.863-34.085-45.143-.017-16.268 12.645-33.004 34.739-45.914 25.443-14.868 59.579-23.056 96.123-23.056 36.19 0 69.902 8.053 94.923 22.675 21.959 12.833 34.063 28.864 34.08 45.139.021 16.27-12.64 33.005-34.734 45.917-25.444 14.868-59.583 23.056-96.123 23.056"/>
        <path fill="#0F7CE8" d="M236.475 44.12c25.444-15.093 59.58-23.403 96.124-23.403 36.189 0 69.902 8.174 94.923 23.015 21.157 12.553 33.133 28.118 33.996 44.013.033-.604.084-1.208.084-1.81-.017-16.522-12.122-32.794-34.08-45.822-25.021-14.84-58.734-23.015-94.923-23.015-36.544 0-70.68 8.31-96.124 23.404-22.093 13.104-34.755 30.091-34.738 46.606 0 .602.052 1.203.085 1.804.872-15.937 13.368-32.166 34.653-44.791"/>
        <path fill="#40A0FF" d="M315.166 121.113l.092-17.04a73.457 73.457 0 0 1-10.435-5.012c-18.551-10.745-20.858-22.238-6.172-30.745 6.127-3.548 13.242-5.413 20.85-5.523l-.32 59.043a102.16 102.16 0 0 0 11.413 1.178c1.604.073 3.19.092 4.769.088v.006c.209 0 .414-.008.622-.01.464-.004.932.002 1.394-.008v-.014c14.304-.314 27.478-3.742 38.417-10.078 12.643-7.322 18.6-16.363 17.228-26.144-1.291-9.198-9.193-18.43-22.25-25.992-8.675-5.025-18.624-8.722-28.981-10.863l-.093 17.133a75.694 75.694 0 0 1 9.902 4.834c8.538 4.945 13.694 9.957 15.323 14.896 1.912 5.794-1.208 11.248-9.021 15.773-6.082 3.523-13.051 5.351-20.445 5.528l.319-58.922a101.856 101.856 0 0 0-11.878-1.266c-.795-.037-1.583-.055-2.372-.074h-.022a98.626 98.626 0 0 0-2.72-.024h-.341c-.287.002-.578-.005-.864 0v.018c-14.452.235-27.771 3.66-38.82 10.06-12.65 7.326-18.63 16.38-17.293 26.18 1.26 9.229 9.137 18.473 22.183 26.03 8.811 5.103 18.952 8.834 29.515 10.948"/>
        <path fill="#111D28" d="M46.655 375.25c-28.808-16.558-43.21-38.276-43.236-60.046-.025-21.988 14.615-44.028 43.894-60.856 58.268-33.491 152.444-33.66 210.347-.379 28.808 16.558 43.211 38.277 43.236 60.047.026 21.988-14.616 44.027-43.894 60.856-58.268 33.491-152.443 33.66-210.347.379" opacity=".2"/>
        <path fill="#1A82FF" d="M300.896 273.574v26.124c.026 22.15-14.615 44.354-43.894 61.308-58.267 33.74-152.443 33.91-210.347.381-28.808-16.68-43.21-38.56-43.236-60.493v-27.32h297.477z"/>
        <path fill="#40A0FF" d="M46.655 334.215c-28.808-16.558-43.21-38.277-43.236-60.047-.025-21.987 14.615-44.028 43.894-60.856 58.268-33.492 152.444-33.66 210.347-.379 28.808 16.559 43.211 38.277 43.236 60.047.026 21.987-14.616 44.027-43.894 60.856-58.268 33.491-152.443 33.66-210.347.379"/>
        <path fill="#1A82FF" d="M149.523 341.967c-36.193 0-69.902-8.052-94.923-22.674-21.959-12.832-34.063-28.863-34.084-45.142-.017-16.269 12.644-33.005 34.738-45.915 25.443-14.868 59.58-23.056 96.123-23.056 36.19 0 69.902 8.053 94.923 22.675 21.96 12.833 34.064 28.864 34.08 45.14.022 16.27-12.64 33.005-34.734 45.916-25.443 14.868-59.583 23.056-96.123 23.056"/>
        <path fill="#0F7CE8" d="M55.254 232.203c25.443-15.094 59.58-23.404 96.123-23.404 36.19 0 69.902 8.174 94.923 23.015 21.157 12.552 33.133 28.118 33.996 44.013.033-.604.085-1.208.085-1.811-.017-16.521-12.122-32.793-34.081-45.821-25.02-14.84-58.734-23.015-94.923-23.015-36.543 0-70.68 8.31-96.123 23.404-22.094 13.104-34.755 30.091-34.738 46.605 0 .603.052 1.203.084 1.805.872-15.937 13.369-32.167 34.654-44.791"/>
        <path fill="#FFF" d="M133.945 305.776l.092-17.04a73.456 73.456 0 0 1-10.436-5.013c-18.55-10.744-20.858-22.238-6.171-30.745 6.126-3.548 13.241-5.413 20.85-5.523l-.32 59.043a102.16 102.16 0 0 0 11.413 1.179c1.604.073 3.19.092 4.769.087v.007c.208 0 .413-.009.621-.01.464-.005.932.002 1.394-.008v-.015c14.304-.314 27.478-3.741 38.417-10.077 12.643-7.323 18.6-16.364 17.228-26.145-1.29-9.198-9.193-18.43-22.25-25.992-8.675-5.025-18.624-8.722-28.98-10.863l-.093 17.134a75.694 75.694 0 0 1 9.902 4.833c8.538 4.945 13.693 9.957 15.322 14.897 1.912 5.793-1.208 11.248-9.02 15.773-6.083 3.523-13.052 5.35-20.446 5.527l.32-58.922a101.955 101.955 0 0 0-11.879-1.266c-.795-.037-1.583-.055-2.372-.074h-.022a98.593 98.593 0 0 0-2.72-.024h-.34c-.288.002-.579-.004-.864 0v.019c-14.453.235-27.772 3.659-38.82 10.058-12.65 7.327-18.63 16.38-17.294 26.18 1.26 9.23 9.138 18.475 22.184 26.031 8.81 5.103 18.952 8.835 29.515 10.949"/>
        <path fill="#111D28" d="M67.17 337.634c-28.808-16.558-43.21-38.276-43.235-60.046-.026-21.988 14.615-44.028 43.894-60.857 58.267-33.49 152.443-33.66 210.347-.378 28.808 16.558 43.21 38.276 43.236 60.046.025 21.988-14.616 44.028-43.895 60.857-58.267 33.49-152.443 33.66-210.346.378" opacity=".2"/>
        <path fill="#1A82FF" d="M321.412 232.538v26.124c.026 22.15-14.616 44.354-43.894 61.308-58.268 33.74-152.443 33.91-210.347.381-28.808-16.68-43.21-38.56-43.236-60.493v-27.32h297.477z"/>
        <path fill="#40A0FF" d="M67.17 296.598c-28.808-16.558-43.21-38.276-43.235-60.047-.026-21.987 14.615-44.027 43.894-60.856 58.267-33.491 152.443-33.66 210.347-.378 28.808 16.558 43.21 38.277 43.236 60.046.025 21.988-14.616 44.028-43.895 60.857-58.267 33.49-152.443 33.66-210.346.378"/>
        <path fill="#1A82FF" d="M170.039 304.35c-36.193 0-69.903-8.052-94.923-22.673-21.96-12.832-34.064-28.864-34.085-45.143-.017-16.268 12.645-33.004 34.739-45.914 25.443-14.868 59.579-23.056 96.123-23.056 36.19 0 69.902 8.053 94.923 22.674 21.959 12.834 34.063 28.865 34.08 45.14.021 16.27-12.64 33.005-34.734 45.917-25.444 14.868-59.583 23.056-96.123 23.056"/>
        <path fill="#0F7CE8" d="M75.77 194.586c25.443-15.093 59.58-23.403 96.123-23.403 36.189 0 69.902 8.174 94.923 23.014 21.157 12.553 33.133 28.118 33.996 44.014.033-.604.084-1.209.084-1.812-.017-16.52-12.121-32.792-34.08-45.82-25.021-14.841-58.734-23.015-94.923-23.015-36.544 0-70.68 8.31-96.124 23.404-22.093 13.103-34.755 30.09-34.738 46.605 0 .602.053 1.203.085 1.804.872-15.936 13.368-32.166 34.653-44.79"/>
        <path fill="#FFF" d="M157.88 268.16l.092-17.041a73.456 73.456 0 0 1-10.436-5.012c-18.55-10.745-20.858-22.238-6.171-30.745 6.126-3.548 13.241-5.413 20.849-5.523l-.319 59.043a102.16 102.16 0 0 0 11.413 1.178c1.603.073 3.19.093 4.768.088v.006c.209 0 .414-.008.622-.01.464-.004.932.002 1.394-.008v-.014c14.304-.314 27.478-3.742 38.417-10.078 12.643-7.322 18.6-16.363 17.228-26.144-1.29-9.199-9.193-18.43-22.25-25.992-8.675-5.025-18.624-8.722-28.98-10.863l-.093 17.133a75.694 75.694 0 0 1 9.902 4.834c8.538 4.945 13.693 9.957 15.322 14.896 1.912 5.794-1.208 11.248-9.02 15.773-6.083 3.523-13.052 5.351-20.446 5.528l.32-58.922a101.955 101.955 0 0 0-11.879-1.266c-.795-.037-1.583-.056-2.372-.074h-.022a98.593 98.593 0 0 0-2.72-.025h-.34c-.288.003-.579-.003-.864.001v.018c-14.453.235-27.772 3.66-38.82 10.059-12.65 7.327-18.63 16.38-17.294 26.18 1.26 9.23 9.138 18.474 22.184 26.03 8.81 5.104 18.952 8.835 29.515 10.95"/>
        <path fill="#111D28" d="M43.236 296.598C14.427 280.04.025 258.322 0 236.552c-.026-21.988 14.615-44.028 43.894-60.857 58.267-33.49 152.443-33.66 210.347-.378 28.808 16.558 43.21 38.276 43.236 60.046.025 21.988-14.616 44.028-43.894 60.857-58.268 33.49-152.444 33.66-210.347.378" opacity=".2"/>
        <path fill="#1A82FF" d="M297.477 194.921v26.124c.026 22.15-14.615 44.355-43.894 61.309-58.268 33.74-152.443 33.91-210.347.381C14.428 266.054.026 244.174 0 222.242v-27.32h297.477z"/>
        <path fill="#40A0FF" d="M43.236 255.562C14.427 239.004.025 217.286 0 195.515c-.026-21.987 14.615-44.027 43.894-60.856 58.267-33.491 152.443-33.66 210.347-.379 28.808 16.56 43.21 38.277 43.236 60.047.025 21.988-14.616 44.028-43.894 60.857-58.268 33.49-152.444 33.66-210.347.378"/>
        <path fill="#1A82FF" d="M146.104 263.315c-36.193 0-69.903-8.053-94.923-22.674-21.96-12.832-34.064-28.864-34.085-45.143-.017-16.268 12.645-33.004 34.739-45.914 25.443-14.868 59.579-23.056 96.123-23.056 36.19 0 69.902 8.053 94.923 22.674 21.959 12.833 34.063 28.865 34.08 45.14.021 16.27-12.64 33.005-34.734 45.917-25.444 14.868-59.583 23.056-96.123 23.056"/>
        <path fill="#0F7CE8" d="M51.835 153.55c25.443-15.093 59.58-23.403 96.123-23.403 36.189 0 69.902 8.174 94.923 23.014 21.157 12.553 33.133 28.118 33.996 44.014.033-.605.084-1.209.084-1.812-.017-16.52-12.121-32.792-34.08-45.82-25.021-14.841-58.734-23.015-94.923-23.015-36.544 0-70.68 8.31-96.123 23.403-22.094 13.104-34.756 30.092-34.739 46.606 0 .602.053 1.203.085 1.804.872-15.936 13.368-32.166 34.654-44.79"/>
        <path fill="#FFF" d="M130.526 227.123l.092-17.04a73.456 73.456 0 0 1-10.436-5.012c-18.551-10.745-20.858-22.238-6.171-30.745 6.125-3.548 13.24-5.413 20.849-5.523l-.32 59.043a102.16 102.16 0 0 0 11.413 1.178c1.604.073 3.19.092 4.77.088v.006c.208 0 .413-.008.621-.01.464-.004.932.002 1.394-.008v-.014c14.304-.315 27.478-3.742 38.417-10.078 12.643-7.322 18.6-16.363 17.228-26.144-1.291-9.199-9.193-18.43-22.25-25.992-8.675-5.025-18.624-8.722-28.981-10.863l-.093 17.133a75.694 75.694 0 0 1 9.903 4.834c8.537 4.945 13.693 9.957 15.322 14.896 1.912 5.793-1.208 11.248-9.02 15.773-6.084 3.523-13.052 5.351-20.446 5.528l.319-58.922a101.956 101.956 0 0 0-11.878-1.266c-.795-.037-1.584-.056-2.372-.074h-.022a98.597 98.597 0 0 0-2.72-.025h-.341c-.287.003-.578-.003-.863.001v.018c-14.453.235-27.773 3.66-38.82 10.059-12.651 7.327-18.63 16.38-17.294 26.18 1.26 9.23 9.138 18.474 22.184 26.03 8.81 5.104 18.952 8.835 29.515 10.949"/>
        <path fill="#111D28" d="M74.01 262.401c-28.809-16.558-43.212-38.276-43.236-60.046-.026-21.988 14.615-44.028 43.894-60.857 58.267-33.49 152.443-33.66 210.347-.378 28.808 16.558 43.21 38.277 43.236 60.047.025 21.987-14.616 44.027-43.895 60.856-58.268 33.49-152.443 33.66-210.347.378" opacity=".2"/>
        <path fill="#1A82FF" d="M328.25 160.725v26.123c.026 22.151-14.615 44.355-43.894 61.309-58.267 33.74-152.443 33.91-210.347.381-28.808-16.68-43.21-38.561-43.236-60.493v-27.32h297.478z"/>
        <path fill="#40A0FF" d="M74.01 221.366c-28.809-16.559-43.212-38.277-43.236-60.047-.026-21.988 14.615-44.028 43.894-60.857 58.267-33.49 152.443-33.66 210.347-.378 28.808 16.558 43.21 38.277 43.236 60.047.025 21.987-14.616 44.027-43.895 60.856-58.268 33.491-152.443 33.66-210.347.379"/>
        <path fill="#1A82FF" d="M176.877 229.118c-36.192 0-69.902-8.053-94.923-22.674-21.959-12.832-34.063-28.864-34.084-45.143-.017-16.268 12.644-33.004 34.738-45.914 25.444-14.868 59.58-23.056 96.123-23.056 36.19 0 69.902 8.053 94.923 22.675 21.96 12.833 34.064 28.864 34.08 45.139.022 16.27-12.64 33.005-34.734 45.917-25.443 14.868-59.582 23.056-96.123 23.056"/>
        <path fill="#0F7CE8" d="M82.608 119.353c25.444-15.093 59.58-23.403 96.123-23.403 36.19 0 69.902 8.174 94.923 23.015 21.158 12.552 33.133 28.117 33.997 44.013.032-.604.084-1.208.084-1.811-.017-16.522-12.122-32.793-34.08-45.821-25.022-14.84-58.735-23.015-94.924-23.015-36.543 0-70.68 8.31-96.123 23.404-22.094 13.103-34.755 30.091-34.738 46.605 0 .602.052 1.203.085 1.804.872-15.936 13.368-32.166 34.653-44.79"/>
        <path fill="#FFF" d="M161.3 192.926l.091-17.04a73.456 73.456 0 0 1-10.436-5.012c-18.55-10.745-20.857-22.238-6.17-30.745 6.125-3.548 13.24-5.413 20.848-5.523l-.319 59.043a102.16 102.16 0 0 0 11.413 1.178c1.604.073 3.19.093 4.769.088v.006c.208 0 .414-.008.622-.01.464-.004.932.002 1.393-.008v-.014c14.304-.314 27.478-3.742 38.418-10.078 12.642-7.322 18.6-16.363 17.227-26.144-1.29-9.198-9.192-18.43-22.25-25.992-8.675-5.025-18.624-8.722-28.98-10.863l-.093 17.133a75.694 75.694 0 0 1 9.902 4.834c8.538 4.945 13.693 9.957 15.322 14.896 1.912 5.794-1.208 11.248-9.02 15.773-6.083 3.523-13.052 5.352-20.445 5.528l.318-58.922a101.955 101.955 0 0 0-11.878-1.266c-.794-.037-1.583-.055-2.372-.074h-.022a98.597 98.597 0 0 0-2.72-.024h-.34c-.288.002-.578-.004-.864 0v.018c-14.453.235-27.772 3.66-38.82 10.059-12.65 7.327-18.63 16.38-17.294 26.18 1.26 9.23 9.138 18.475 22.184 26.03 8.81 5.104 18.952 8.835 29.515 10.95"/>
        <path fill="#111D28" d="M46.655 217.946c-28.808-16.559-43.21-38.277-43.236-60.047-.025-21.988 14.615-44.028 43.894-60.856 58.268-33.491 152.444-33.66 210.347-.379 28.808 16.558 43.211 38.277 43.236 60.047.026 21.988-14.616 44.027-43.894 60.856-58.268 33.491-152.443 33.66-210.347.379" opacity=".2"/>
        <path fill="#1A82FF" d="M300.896 116.269v26.124c.026 22.15-14.615 44.354-43.894 61.308-58.267 33.74-152.443 33.91-210.347.382C17.847 187.4 3.445 165.52 3.419 143.589v-27.32h297.477z"/>
        <path fill="#40A0FF" d="M46.655 176.91c-28.808-16.558-43.21-38.277-43.236-60.047-.025-21.988 14.615-44.028 43.894-60.856 58.268-33.491 152.444-33.66 210.347-.38 28.808 16.56 43.211 38.278 43.236 60.048.026 21.987-14.616 44.027-43.894 60.856-58.268 33.491-152.443 33.66-210.347.379"/>
        <path fill="#1A82FF" d="M149.523 188.082c-36.193 0-69.902-8.053-94.923-22.674-21.959-12.832-34.063-28.864-34.084-45.143-.017-16.268 12.644-33.004 34.738-45.914 25.443-14.868 59.58-23.056 96.123-23.056 36.19 0 69.902 8.053 94.923 22.675 21.96 12.833 34.064 28.864 34.08 45.139.022 16.27-12.64 33.005-34.734 45.917-25.443 14.868-59.583 23.056-96.123 23.056"/>
        <path fill="#0F7CE8" d="M55.254 78.317c25.443-15.093 59.58-23.403 96.123-23.403 36.19 0 69.902 8.174 94.923 23.014 21.157 12.553 33.133 28.118 33.996 44.014.033-.604.085-1.209.085-1.811-.017-16.522-12.122-32.793-34.081-45.821-25.02-14.84-58.734-23.015-94.923-23.015-36.543 0-70.68 8.31-96.123 23.404-22.094 13.103-34.755 30.09-34.738 46.605 0 .602.052 1.203.084 1.804.872-15.936 13.369-32.166 34.654-44.79"/>
        <path fill="#40A0FF" d="M133.945 151.89l.092-17.04a73.456 73.456 0 0 1-10.436-5.012c-18.55-10.745-20.858-22.238-6.171-30.745 6.126-3.548 13.241-5.413 20.85-5.523l-.32 59.043a102.16 102.16 0 0 0 11.413 1.178 98.12 98.12 0 0 0 4.769.088v.006c.208 0 .413-.008.621-.01.464-.004.932.002 1.394-.008v-.014c14.304-.314 27.478-3.742 38.417-10.078 12.643-7.322 18.6-16.363 17.228-26.144-1.29-9.198-9.193-18.43-22.25-25.992-8.675-5.025-18.624-8.722-28.98-10.863l-.093 17.133a75.694 75.694 0 0 1 9.902 4.834c8.538 4.945 13.693 9.957 15.322 14.896 1.912 5.794-1.208 11.248-9.02 15.773-6.083 3.523-13.052 5.352-20.446 5.528l.32-58.922a101.955 101.955 0 0 0-11.879-1.266c-.795-.037-1.583-.055-2.372-.074h-.022a98.597 98.597 0 0 0-2.72-.024h-.34c-.288.002-.579-.004-.864 0v.018c-14.453.235-27.772 3.66-38.82 10.059-12.65 7.327-18.63 16.38-17.294 26.18 1.26 9.23 9.138 18.474 22.184 26.03 8.81 5.104 18.952 8.835 29.515 10.95"/>
        <g transform="translate(270.123 297.512)">
            <mask id="d" fill="#fff">
                <use xlink:href="#c"/>
            </mask>
            <path fill="#111D28" d="M43.387 145.826C14.62 129.34.238 107.718.213 86.045c-.026-21.89 14.595-43.833 43.832-60.588 58.185-33.342 152.227-33.511 210.05-.376 28.767 16.485 43.15 38.107 43.174 59.78.026 21.891-14.595 43.833-43.832 60.588-58.185 33.343-152.228 33.511-210.05.377" mask="url(#d)" opacity=".2"/>
        </g>
        <g transform="translate(270.123 256.475)">
            <mask id="f" fill="#fff">
                <use xlink:href="#e"/>
            </mask>
            <path fill="#40A0FF" d="M43.387 146.086C14.62 129.561.238 107.886.213 86.159c-.026-21.944 14.595-43.94 43.832-60.735 58.185-33.425 152.227-33.594 210.05-.378 28.767 16.525 43.15 38.2 43.174 59.927.026 21.944-14.595 43.94-43.832 60.735-58.185 33.425-152.228 33.594-210.05.378" mask="url(#f)"/>
        </g>
        <path fill="#1A82FF" d="M419.646 410.36c-36.193 0-69.902-8.052-94.923-22.673-21.96-12.832-34.064-28.864-34.084-45.143-.018-16.268 12.644-33.004 34.737-45.914 25.444-14.868 59.58-23.056 96.124-23.056 36.19 0 69.902 8.053 94.923 22.674 21.959 12.833 34.063 28.865 34.08 45.14.021 16.27-12.64 33.005-34.733 45.917-25.444 14.868-59.584 23.056-96.124 23.056"/>
        <path fill="#0F7CE8" d="M325.376 300.596c25.444-15.093 59.58-23.403 96.124-23.403 36.19 0 69.902 8.174 94.923 23.015 21.158 12.552 33.133 28.117 33.996 44.013.033-.605.085-1.209.085-1.811-.017-16.521-12.122-32.793-34.081-45.821-25.02-14.841-58.734-23.015-94.923-23.015-36.544 0-70.68 8.31-96.124 23.403-22.093 13.104-34.755 30.092-34.737 46.606 0 .602.051 1.203.084 1.804.872-15.936 13.368-32.166 34.653-44.79"/>
        <path fill="#FFF" d="M404.068 374.169l.092-17.04a73.457 73.457 0 0 1-10.436-5.012c-18.55-10.745-20.858-22.238-6.171-30.745 6.126-3.548 13.24-5.413 20.849-5.523l-.32 59.043a102.16 102.16 0 0 0 11.413 1.178c1.604.073 3.19.092 4.77.087v.007c.208 0 .414-.008.621-.01.464-.004.932.002 1.394-.008v-.014c14.304-.315 27.478-3.742 38.417-10.078 12.643-7.322 18.6-16.363 17.228-26.145-1.291-9.198-9.193-18.429-22.25-25.991-8.675-5.025-18.624-8.722-28.981-10.863l-.093 17.133a75.694 75.694 0 0 1 9.903 4.834c8.537 4.945 13.693 9.957 15.322 14.896 1.912 5.793-1.208 11.248-9.02 15.773-6.084 3.523-13.052 5.351-20.446 5.528l.319-58.922a101.866 101.866 0 0 0-11.878-1.266c-.795-.037-1.583-.055-2.372-.074h-.022a98.642 98.642 0 0 0-2.72-.025h-.341c-.287.003-.577-.004-.863 0v.02c-14.453.234-27.773 3.659-38.82 10.058-12.65 7.327-18.63 16.38-17.294 26.18 1.259 9.23 9.138 18.474 22.184 26.03 8.81 5.104 18.952 8.835 29.515 10.949"/>
    </g>
</svg>
