<svg xmlns="http://www.w3.org/2000/svg" width="44" height="38" viewBox="0 0 44 38">
    <path fill="#FFF" fill-rule="evenodd" d="M34.373 2.645a11.773 11.773 0 0 1 6.024 6.743 11.792 11.792 0 0 1-.508 9.033l2.646 1.276a14.737 14.737 0 0 0 .634-11.28A14.711 14.711 0 0 0 35.65 0l-1.276 2.645zm-2.178 4.52a6.76 6.76 0 0 1 3.47 3.88 6.788 6.788 0 0 1-.288 5.2l2.58 1.243a9.644 9.644 0 0 0 .416-7.388 9.635 9.635 0 0 0-4.93-5.517l-1.248 2.582zm-19.791 5.687l4.286 11.85c3.95-.764 9.308-.735 16.31.737L24.429 1.738c-4.54 5.802-8.55 9.174-12.025 11.114zm7.498 20.705a4.186 4.186 0 0 1-1.996-1.464l-2.998-4.04-6.052 2.217 4.77 6.147c.536.69 1.449.954 2.268.653l4.063-1.485c.42-.154.7-.563.699-1.014a1.063 1.063 0 0 0-.714-.999l-.04-.015zM8.385 27.742c-3.241 1.186-6.818-.504-8.003-3.777-1.186-3.272.48-6.888 3.717-8.074l5.943-2.176 4.287 11.85-5.944 2.177z"/>
</svg>
