<svg xmlns="http://www.w3.org/2000/svg" width="32" height="37" viewBox="0 0 32 37">
    <g fill="none" fill-rule="evenodd">
        <path fill="#DFE6EA" d="M32 .5v20.417c0 8.698-7.051 15.75-15.75 15.75S.5 29.615.5 20.917V.5H32z"/>
        <path fill="#FFF" d="M25.076 10.335a3.139 3.139 0 0 0-6.277 0c0 .255.039.498.096.734l-4.306 2.297c.31.42.56.884.74 1.384l4.306-2.297a3.118 3.118 0 0 0 2.303 1.02 3.139 3.139 0 0 0 3.138-3.138zm-6.18 11.82c-.058.237-.097.48-.097.734a3.139 3.139 0 1 0 3.139-3.138c-.914 0-1.73.397-2.303 1.02l-4.306-2.296c-.18.499-.43.964-.74 1.384l4.306 2.296zm-8.727-9.466a3.923 3.923 0 1 1-.001 7.847 3.923 3.923 0 0 1 0-7.847z"/>
    </g>
</svg>
