<svg xmlns="http://www.w3.org/2000/svg" width="35" height="37" viewBox="0 0 35 37">
    <g fill="none" fill-rule="evenodd">
        <path fill="#DFE6EA" d="M15.348.771a3.707 3.707 0 0 1 4.374 0c3.12 2.282 2.447 2.064 6.313 2.052a3.703 3.703 0 0 1 3.537 2.57c1.182 3.678.768 3.11 3.9 5.371a3.704 3.704 0 0 1 1.354 4.16c-1.203 3.663-1.21 2.96 0 6.638a3.697 3.697 0 0 1-1.353 4.158c-3.133 2.261-2.717 1.693-3.9 5.373a3.7 3.7 0 0 1-3.538 2.57c-3.868-.012-3.195-.23-6.313 2.052a3.707 3.707 0 0 1-4.374 0c-3.12-2.28-2.45-2.066-6.314-2.052a3.703 3.703 0 0 1-3.537-2.57c-1.182-3.683-.774-3.115-3.902-5.373a3.703 3.703 0 0 1-1.352-4.158c1.205-3.663 1.21-2.96 0-6.638a3.704 3.704 0 0 1 1.35-4.161c3.125-2.257 2.72-1.684 3.903-5.371a3.7 3.7 0 0 1 3.537-2.57c3.857.012 3.176.244 6.315-2.05"/>
        <path fill="#FFF" d="M19.087 13.524H10v9.766h9.087v3.524l8.407-8.407L19.087 10z"/>
    </g>
</svg>
