<svg xmlns="http://www.w3.org/2000/svg" xmlns:xlink="http://www.w3.org/1999/xlink" width="37" height="39" viewBox="0 0 37 39">
    <defs>
        <path id="a" d="M15.743.905a3.707 3.707 0 0 1 4.373 0c3.12 2.282 2.448 2.064 6.314 2.051a3.703 3.703 0 0 1 3.537 2.57c1.182 3.679.768 3.11 3.9 5.372a3.704 3.704 0 0 1 1.354 4.16c-1.203 3.662-1.21 2.96 0 6.637a3.697 3.697 0 0 1-1.353 4.159c-3.133 2.26-2.718 1.693-3.901 5.372a3.7 3.7 0 0 1-3.537 2.57c-3.868-.012-3.195-.23-6.314 2.052a3.707 3.707 0 0 1-4.373 0c-3.12-2.28-2.45-2.065-6.314-2.052a3.703 3.703 0 0 1-3.537-2.57c-1.182-3.683-.774-3.114-3.902-5.372a3.703 3.703 0 0 1-1.352-4.159c1.205-3.663 1.21-2.96 0-6.637a3.704 3.704 0 0 1 1.35-4.162c3.125-2.256 2.72-1.684 3.903-5.37a3.7 3.7 0 0 1 3.537-2.571c3.857.012 3.176.244 6.315-2.05"/>
    </defs>
    <g fill="none" fill-rule="evenodd">
        <path fill="#F0F6F9" d="M16.348 1.771a3.707 3.707 0 0 1 4.374 0c3.12 2.282 2.447 2.064 6.313 2.052a3.703 3.703 0 0 1 3.537 2.57c1.182 3.678.768 3.11 3.9 5.371a3.704 3.704 0 0 1 1.354 4.16c-1.203 3.663-1.21 2.96 0 6.638a3.697 3.697 0 0 1-1.353 4.158c-3.133 2.261-2.717 1.693-3.9 5.373a3.7 3.7 0 0 1-3.538 2.57c-3.868-.012-3.195-.23-6.313 2.052a3.707 3.707 0 0 1-4.374 0c-3.12-2.28-2.45-2.066-6.314-2.052a3.703 3.703 0 0 1-3.537-2.57c-1.182-3.683-.774-3.115-3.902-5.373a3.703 3.703 0 0 1-1.352-4.158c1.205-3.663 1.21-2.96 0-6.638a3.704 3.704 0 0 1 1.35-4.161c3.125-2.257 2.72-1.684 3.903-5.371a3.7 3.7 0 0 1 3.537-2.57c3.857.012 3.176.244 6.315-2.05"/>
        <g transform="translate(.846 .492)">
            <mask id="b" fill="#fff">
                <use xlink:href="#a"/>
            </mask>
            <g stroke="#FFF" stroke-linecap="square" mask="url(#b)" opacity=".3">
                <path d="M41.165-10.887l-58.198 33.563M37.776-10.04l-58.198 33.563M34.387-9.192L-23.811 24.37M30.997-8.344L-27.2 25.218M27.608-7.497L-30.59 26.065M30.15-10.04l-58.198 33.563M32.692-12.581L-25.506 20.98M41.165-9.815l-58.198 33.562M41.165-8.744l-58.198 33.562M41.165-7.673l-58.198 33.562M41.165-6.602L-17.033 26.96M41.165-5.53L-17.033 28.03M41.165-4.46l-58.198 33.562M41.165-3.389l-58.198 33.562M41.165-2.317l-58.198 33.562M41.165-1.246l-58.198 33.562M41.165-.175l-58.198 33.562M41.165.896l-58.198 33.562M41.165 1.967l-58.198 33.562M41.165 3.038L-17.033 36.6M41.165 4.11L-17.033 37.67M41.165 5.18l-58.198 33.563M41.165 6.252l-58.198 33.562M41.165 7.323l-58.198 33.562M41.165 8.394l-58.198 33.562M41.165 9.465l-58.198 33.562M41.165 10.536l-58.198 33.562M41.165 11.607L-17.033 45.17M41.165 12.678L-17.033 46.24M41.165 13.75l-58.198 33.562M41.165 14.82l-58.198 33.563M41.165 15.892l-58.198 33.562M41.165 16.963l-58.198 33.562M41.165 18.034l-58.198 33.562M41.165 19.105l-58.198 33.562M41.165 20.176l-58.198 33.562M41.165 21.247L-17.033 54.81M41.165 22.319L-17.033 55.88M44.555 21.471l-58.198 33.562M47.944 20.624l-58.198 33.562M45.402 23.166l-58.198 33.562M59.955 15.881L1.757 49.444"/>
            </g>
        </g>
        <path stroke="#F00" stroke-width="2" d="M16.348 1.771a3.707 3.707 0 0 1 4.374 0c3.12 2.282 2.447 2.064 6.313 2.052a3.703 3.703 0 0 1 3.537 2.57c1.182 3.678.768 3.11 3.9 5.371a3.704 3.704 0 0 1 1.354 4.16c-1.203 3.663-1.21 2.96 0 6.638a3.697 3.697 0 0 1-1.353 4.158c-3.133 2.261-2.717 1.693-3.9 5.373a3.7 3.7 0 0 1-3.538 2.57c-3.868-.012-3.195-.23-6.313 2.052a3.707 3.707 0 0 1-4.374 0c-3.12-2.28-2.45-2.066-6.314-2.052a3.703 3.703 0 0 1-3.537-2.57c-1.182-3.683-.774-3.115-3.902-5.373a3.703 3.703 0 0 1-1.352-4.158c1.205-3.663 1.21-2.96 0-6.638a3.704 3.704 0 0 1 1.35-4.161c3.125-2.257 2.72-1.684 3.903-5.371a3.7 3.7 0 0 1 3.537-2.57c3.857.012 3.176.244 6.315-2.05"/>
        <path fill="#F00" d="M20.087 14.524H11v9.766h9.087v3.524l8.407-8.407L20.087 11z"/>
    </g>
</svg>
