<svg xmlns="http://www.w3.org/2000/svg" xmlns:xlink="http://www.w3.org/1999/xlink" width="34" height="39" viewBox="0 0 34 39">
    <defs>
        <path id="a" d="M32.154.008v20.417c0 8.698-7.051 15.75-15.75 15.75-8.698 0-15.75-7.052-15.75-15.75V.008h31.5z"/>
    </defs>
    <g fill="none" fill-rule="evenodd">
        <path fill="#F0F6F9" d="M33 1.5v20.417c0 8.698-7.051 15.75-15.75 15.75S1.5 30.615 1.5 21.917V1.5H33z"/>
        <g transform="translate(.846 1.492)">
            <mask id="b" fill="#fff">
                <use xlink:href="#a"/>
            </mask>
            <use fill="#F0F6F9" xlink:href="#a"/>
            <g stroke="#FFF" stroke-linecap="square" mask="url(#b)" opacity=".3">
                <path d="M40.165-11.887l-58.198 33.563M36.776-11.04l-58.198 33.563M33.387-10.192L-24.811 23.37M29.997-9.344L-28.2 24.218M26.608-8.497L-31.59 25.065M29.15-11.04l-58.198 33.563M31.692-13.581L-26.506 19.98M40.165-10.815l-58.198 33.562M40.165-9.744l-58.198 33.562M40.165-8.673l-58.198 33.562M40.165-7.602L-18.033 25.96M40.165-6.53L-18.033 27.03M40.165-5.46l-58.198 33.562M40.165-4.389l-58.198 33.562M40.165-3.317l-58.198 33.562M40.165-2.246l-58.198 33.562M40.165-1.175l-58.198 33.562M40.165-.104l-58.198 33.562M40.165.967l-58.198 33.562M40.165 2.038L-18.033 35.6M40.165 3.11L-18.033 36.67M40.165 4.18l-58.198 33.563M40.165 5.252l-58.198 33.562M40.165 6.323l-58.198 33.562M40.165 7.394l-58.198 33.562M40.165 8.465l-58.198 33.562M40.165 9.536l-58.198 33.562M40.165 10.607L-18.033 44.17M40.165 11.678L-18.033 45.24M40.165 12.75l-58.198 33.562M40.165 13.82l-58.198 33.563M40.165 14.892l-58.198 33.562M40.165 15.963l-58.198 33.562M40.165 17.034l-58.198 33.562M40.165 18.105l-58.198 33.562M40.165 19.176l-58.198 33.562M40.165 20.247L-18.033 53.81M40.165 21.319L-18.033 54.88M43.555 20.471l-58.198 33.562M46.944 19.624l-58.198 33.562M44.402 22.166l-58.198 33.562M58.955 14.881L.757 48.444"/>
            </g>
        </g>
        <path stroke="#7A26F3" stroke-width="2" d="M33 1.5v20.417c0 8.698-7.051 15.75-15.75 15.75S1.5 30.615 1.5 21.917V1.5H33z"/>
        <path fill="#7A26F3" d="M26.076 11.335a3.139 3.139 0 0 0-6.277 0c0 .255.039.498.096.734l-4.306 2.297c.31.42.56.884.74 1.384l4.306-2.297a3.118 3.118 0 0 0 2.303 1.02 3.139 3.139 0 0 0 3.138-3.138zm-6.18 11.82c-.058.237-.097.48-.097.734a3.139 3.139 0 1 0 3.139-3.138c-.914 0-1.73.397-2.303 1.02l-4.306-2.296c-.18.499-.43.964-.74 1.384l4.306 2.296zm-8.727-9.466a3.923 3.923 0 1 1-.001 7.847 3.923 3.923 0 0 1 0-7.847z"/>
    </g>
</svg>
