<svg xmlns="http://www.w3.org/2000/svg" xmlns:xlink="http://www.w3.org/1999/xlink" width="765" height="876" viewBox="0 0 765 876">
    <defs>
        <path id="a" d="M0 0h1440v900H0z"/>
        <path id="c" d="M.429.306h130.188v76.428H.429z"/>
        <path id="e" d="M.198 410.748l93.417 93.195 403.002-402.378c15.697-15.66 7.51-49.218-18.286-74.953C461.411 9.732 441.124.41 424.732.412c-8.6.001-16.13 2.569-21.532 7.958L.198 410.748z"/>
        <linearGradient id="f" x1="89.061%" x2="21.513%" y1="10.907%" y2="77.105%">
            <stop offset="0%" stop-color="#FFF"/>
            <stop offset="100%" stop-color="#FFF" stop-opacity="0"/>
        </linearGradient>
    </defs>
    <g fill="none" fill-rule="evenodd" transform="translate(-644 -24)">
        <mask id="b" fill="#fff">
            <use xlink:href="#a"/>
        </mask>
        <g mask="url(#b)">
            <path fill="#465D75" d="M849.338 174.46l-31.666-9.409.329-.968 31.665 9.409z"/>
            <path fill="#EAEFF2" d="M823.725 201.266l1.94-6.918.654.199z"/>
            <path fill="#6F8294" d="M822.992 192.798a3.252 3.252 0 0 1 6.199 1.969 3.252 3.252 0 0 1-6.199-1.969"/>
            <path fill="#EAEFF2" d="M816.587 186.704c1.873-5.894 8.173-9.153 14.07-7.28 5.897 1.872 9.158 8.167 7.285 14.06-1.874 5.894-23.23-.887-21.355-6.78"/>
            <path fill="#C1C9D2" d="M835.281 164.971c-.343-.109-.662-.293-.875-.526l-5.54-6.07c-.208-.227-.276-.46-.22-.655l-5.597 17.603c-.055.195.013.428.22.655l5.54 6.07c.213.233.532.416.876.526l5.596-17.603z"/>
            <path fill="#97A6B3" d="M835.281 164.971c.343.11.71.143 1.019.076l7.966-1.747c.316-.07.51-.233.568-.439l-5.596 17.602c-.057.206-.252.37-.568.44l-7.966 1.746c-.309.068-.676.034-1.02-.075l5.597-17.603z"/>
            <path fill="#EAEFF2" d="M844.614 162.207c.425.466.268.958-.348 1.093l-7.966 1.746c-.616.136-1.468-.135-1.894-.6l-5.54-6.07c-.425-.466-.27-.958.347-1.093l7.966-1.747c.616-.135 1.469.136 1.894.602l5.54 6.07z"/>
            <path fill="#C1C9D2" d="M837.043 159.393a1.266 1.266 0 0 1-.546-.328l-3.457-3.789c-.13-.14-.173-.286-.138-.408l-1.035 3.255c-.034.121.008.267.138.409l3.458 3.788c.132.145.331.26.546.328l1.034-3.255z"/>
            <path fill="#97A6B3" d="M837.043 159.393c.215.068.444.09.637.047l4.972-1.09c.197-.043.318-.145.354-.273l-1.035 3.254c-.036.129-.157.231-.354.274l-4.972 1.09a1.268 1.268 0 0 1-.636-.047l1.034-3.255z"/>
            <path fill="#EAEFF2" d="M842.868 157.668c.266.291.168.598-.217.682l-4.972 1.09c-.384.085-.916-.084-1.182-.375l-3.458-3.789c-.265-.29-.168-.597.217-.681l4.972-1.09c.385-.085.917.084 1.182.375l3.458 3.788z"/>
            <path fill="#465D75" d="M815.517 169.037l-10.964-3.482a4.16 4.16 0 0 1-2.707-5.226l.431-1.357a4.165 4.165 0 0 1 5.23-2.707l10.964 3.482a4.161 4.161 0 0 1 2.708 5.227l-.432 1.357a4.165 4.165 0 0 1-5.23 2.706M859.982 183.157l-10.964-3.482a4.16 4.16 0 0 1-2.707-5.226l.431-1.358a4.165 4.165 0 0 1 5.23-2.706l10.964 3.482a4.161 4.161 0 0 1 2.708 5.226l-.432 1.357a4.165 4.165 0 0 1-5.23 2.707"/>
            <path fill="#2F3F53" d="M853.45 175.684l-4.39-1.393.738-2.323 4.39 1.393zM858.355 177.242l-4.39-1.394.74-2.323 4.389 1.395zM863.261 178.8l-4.39-1.394.74-2.323 4.389 1.395zM852.563 178.472l-4.39-1.394.739-2.323 4.39 1.394zM857.47 180.03l-4.39-1.394.738-2.323 4.39 1.394zM862.375 181.587l-4.39-1.394.74-2.323 4.389 1.395zM808.965 161.558l-4.39-1.393.739-2.323 4.39 1.394zM813.871 163.116l-4.39-1.394.739-2.322 4.39 1.394zM818.777 164.674l-4.39-1.394.739-2.322 4.39 1.394zM808.079 164.346l-4.39-1.394.739-2.323 4.39 1.394zM812.985 165.903l-4.39-1.393.739-2.323 4.39 1.394zM817.891 167.461l-4.39-1.393.739-2.323 4.39 1.394z"/>
            <path fill="#19B57D" d="M780.898 414.256c-.219 1.649-.799 3.249-1.688 4.404l-23.151 30.096c-.866 1.126-1.872 1.624-2.804 1.532l46.247 6.128c.932.092 1.938-.406 2.803-1.532l23.152-30.096c.889-1.155 1.469-2.756 1.687-4.404l-46.246-6.128z"/>
            <path fill="#4FBD91" d="M780.898 414.256c.219-1.649.076-3.346-.48-4.693l-14.39-34.806c-.572-1.383-1.474-2.134-2.457-2.228l46.247 6.128c.983.094 1.886.844 2.458 2.228l14.388 34.806c.557 1.346.7 3.044.48 4.693l-46.246-6.128z"/>
            <path fill="#4FBD91" d="M738.285 418.964l27.222 66.707 55.669-71.692-27.223-66.708-55.668 71.693zm26.052 79.547a4.31 4.31 0 0 1-3.992-2.68l-30.981-75.916a4.307 4.307 0 0 1 .586-4.267l61.77-79.55a4.294 4.294 0 0 1 3.99-1.627 4.308 4.308 0 0 1 3.405 2.64l30.982 75.918a4.306 4.306 0 0 1-.586 4.266l-61.77 79.55a4.31 4.31 0 0 1-3.404 1.666z"/>
            <path fill="#6FC49E" d="M760.773 374.06c1.777-2.31 4.142-1.996 5.255.697l14.39 34.806c1.113 2.693.57 6.787-1.207 9.097l-23.152 30.097c-1.778 2.31-4.142 1.996-5.256-.697l-14.388-34.806c-1.114-2.693-.57-6.786 1.206-9.097l23.152-30.096z"/>
            <path fill="#ED2B28" d="M1333.507 686.017c-2.755-.745-5.347-2.093-7.111-3.864l-45.968-46.156c-1.72-1.726-2.34-3.547-1.972-5.11l-20.894 77.204c-.368 1.563.252 3.384 1.972 5.11l45.968 46.157c1.764 1.77 4.356 3.119 7.11 3.864l20.895-77.205z"/>
            <path fill="#DA1F26" d="M1333.507 686.017c2.756.746 5.676.888 8.094.246l62.479-16.574c2.483-.659 3.964-2.023 4.347-3.672l-20.894 77.205c-.383 1.648-1.864 3.013-4.347 3.671l-62.48 16.575c-2.417.641-5.337.5-8.093-.246l20.894-77.205z"/>
            <g transform="translate(1277.918 609.937)">
                <mask id="d" fill="#fff">
                    <use xlink:href="#c"/>
                </mask>
                <path fill="#F05757" d="M128.536 50.98c3.529 3.542 2.46 7.49-2.374 8.773L63.683 76.327c-4.834 1.282-11.677-.568-15.205-4.11L2.509 26.06c-3.528-3.543-2.46-7.49 2.375-8.773L67.363.713c4.834-1.283 11.676.567 15.205 4.11l45.968 46.156z" mask="url(#d)"/>
            </g>
            <path fill="#DEAA25" d="M753.835 907.163c3.496-2.006 6.551-4.776 8.324-7.828l45.803-78.858c1.82-3.133 1.936-5.972.672-8l56.246 97.89c1.265 2.029 1.15 4.867-.672 8.001l-45.803 78.857c-1.772 3.052-4.828 5.823-8.324 7.828l-56.246-97.89z"/>
            <path fill="#FBCC43" d="M801.57 809.354c7.06.016 9.936 5.022 6.392 11.124l-45.803 78.856c-3.544 6.102-12.22 11.08-19.28 11.065l-91.97-.216c-7.059-.017-9.935-5.022-6.39-11.124l45.802-78.857c3.544-6.102 12.22-11.08 19.28-11.064l91.97.216z"/>
            <path fill="#6556A4" d="M1333.764 346.192c-1.03.348-2.136.47-3.07.284l-24.35-4.87c-.91-.182-1.493-.627-1.709-1.2l9.77 28.872c.216.573.799 1.018 1.709 1.2l24.349 4.87c.934.186 2.04.064 3.071-.284l-9.77-28.872z"/>
            <path fill="#554B9F" d="M1333.764 346.192c1.032-.348 1.987-.922 2.616-1.638l16.263-18.49c.647-.735.826-1.481.598-2.084l9.769 28.871c.228.604.05 1.35-.597 2.084l-16.264 18.491c-.63.716-1.583 1.29-2.615 1.638l-9.77-28.872z"/>
            <path fill="#6C5FA9" d="M1351.533 322.783c1.87.373 2.369 1.85 1.11 3.28l-16.264 18.491c-1.258 1.43-3.816 2.296-5.686 1.922l-24.35-4.87c-1.868-.373-2.368-1.85-1.11-3.28l16.265-18.491c1.258-1.43 3.816-2.296 5.685-1.922l24.35 4.87z"/>
            <path fill="#4879BC" d="M958.09 41.904c-.632-.313-1.195-.763-1.538-1.277l-8.93-13.39c-.334-.5-.397-.972-.233-1.333l-8.767 17.714c-.164.362-.1.833.233 1.333l8.93 13.39c.343.514.907.965 1.539 1.277l8.766-17.714z"/>
            <path fill="#386BA8" d="M958.09 41.904c.633.313 1.333.487 1.95.448l15.94-1.026c.634-.04 1.058-.3 1.23-.682l-8.766 17.714c-.172.381-.597.641-1.23.682l-15.94 1.025c-.617.04-1.318-.134-1.95-.447l8.766-17.714z"/>
            <path fill="#6495CD" d="M976.976 39.313c.686 1.028.237 1.933-.996 2.013l-15.94 1.025c-1.233.08-2.803-.696-3.488-1.724l-8.93-13.39c-.685-1.028-.238-1.933.996-2.013l15.94-1.025c1.233-.08 2.803.696 3.488 1.724l8.93 13.39z"/>
            <g transform="translate(627.519 282.549)">
                <mask id="g" fill="#fff">
                    <use xlink:href="#e"/>
                </mask>
                <path fill="url(#f)" d="M-19.802 430.748l93.417 93.195 423.002-422.378c15.697-15.66 7.51-49.218-18.286-74.953C461.411 9.732 441.124.41 424.732.412c-8.6.001-16.13 2.569-21.532 7.958L-19.802 430.748z" mask="url(#g)"/>
            </g>
            <g>
                <path fill="#C1C9D2" d="M1082.658 426.052l-17.475 17.478c-17.237 17.24-45.183 17.24-62.42 0-17.236-17.24-17.236-45.19 0-62.43l17.476-17.48 62.419 62.432z"/>
                <path fill="#FEFEFE" d="M1026.52 357.337l48.885-48.894c17.237-17.24 45.183-17.24 62.42 0 17.236 17.24 17.236 45.191 0 62.43l-48.886 48.895-62.418-62.43z"/>
                <path fill="#97A6B3" d="M1016.898 366.962l9.623-9.625 62.418 62.431-9.623 9.625z"/>
                <path fill="#FEFEFE" d="M986.126 416.523c12.013-12.016 31.492-12.016 43.505 0 12.014 12.016 12.014 31.497 0 43.514l-30.073 30.079c-12.014 12.016-31.491 12.016-43.505 0-12.014-12.016-12.014-31.498 0-43.514l30.073-30.079zM884.52 517.413l20.79-.294c7.823-.111 14.255 6.143 14.366 13.967l.598 42.203c.235 16.684-13.095 30.4-29.776 30.636l-4.753.068-1.225-86.58z"/>
                <path fill="#FEFEFE" d="M945.384 466.135c9.249-9.25 24.245-9.25 33.494 0 9.248 9.251 9.248 24.25 0 33.5l-46.916 46.925c-9.249 9.25-24.244 9.25-33.493 0-9.25-9.251-9.25-24.25 0-33.5l46.915-46.925z"/>
                <path fill="#C1C9D2" d="M926.737 484.786l18.647-18.65c9.249-9.251 24.245-9.251 33.493 0 9.25 9.25 9.25 24.248 0 33.499l-18.646 18.65-33.494-33.5zM952.18 526.339l-9.225 9.225-33.493-33.5 9.224-9.225z"/>
                <path fill="#020303" fill-opacity=".1" d="M1121.153 334.168c-6.245-6.246-16.37-6.246-22.615 0l-12.59 12.593-5.438 5.437-6.228 6.23-54.905 54.916a19.095 19.095 0 0 0-9.76 5.239L995.74 432.46c-7.494 7.496-7.494 19.649 0 27.144 7.494 7.495 19.644 7.495 27.138 0l4.457-4.458v5.446a6.308 6.308 0 1 0 12.616 0V441.49a19.12 19.12 0 0 0 2.041-5.527l54.905-54.916 6.229-6.23 5.436-5.436 12.59-12.593c6.245-6.246 6.245-16.374 0-22.62"/>
                <path fill="#FEFEFE" d="M1097.935 325.721c6.244-6.246 16.37-6.246 22.615 0 6.244 6.246 6.244 16.374 0 22.62l-81.974 81.99c-6.245 6.245-16.37 6.245-22.615 0-6.245-6.247-6.245-16.374 0-22.62l81.974-81.99z"/>
                <path fill="#97A6B3" d="M1009.013 410.136c7.494-7.496 19.644-7.496 27.138 0 7.494 7.496 7.494 19.648 0 27.143l-13.876 13.879c-7.494 7.496-19.644 7.496-27.138 0-7.494-7.495-7.494-19.648 0-27.143l13.876-13.879z"/>
                <path fill="#97A6B3" d="M1026.732 428.221a6.308 6.308 0 1 1 12.615 0v23.925a6.308 6.308 0 1 1-12.615 0V428.22z"/>
                <path fill="#2F3F53" d="M1085.344 338.314l12.59-12.593c6.246-6.246 16.37-6.246 22.616 0 6.245 6.246 6.245 16.374 0 22.62l-12.59 12.593-22.616-22.62z"/>
                <path fill="#C1C9D2" d="M1102.522 366.371l-6.228 6.23-22.615-22.62 6.228-6.23z"/>
                <path fill="#97A6B3" d="M1009.104 343.341c-8.673-8.675-8.673-22.74 0-31.416l41.46-41.468c8.675-8.676 22.737-8.676 31.411 0 8.673 8.674 8.673 22.74 0 31.415l-41.461 41.469c-8.673 8.676-22.736 8.676-31.41 0"/>
                <path fill="#C1C9D2" d="M1125.461 357.651l12.564 12.567-26.384 26.389-12.564-12.566z"/>
                <path fill="#FEFEFE" d="M1113.526 278.798c0-29.323 23.765-53.093 53.081-53.093 29.317 0 53.083 23.77 53.083 53.093 0 29.322-23.766 53.092-53.083 53.092-29.316 0-53.081-23.77-53.081-53.092"/>
                <path fill="#4879BC" d="M1166.607 225.705c29.317 0 53.083 23.77 53.083 53.093 0 29.322-23.766 53.092-53.083 53.092-29.316 0-29.316-106.185 0-106.185"/>
                <path fill="#FEFEFE" d="M1166.607 225.705c-10.942 0-21.11 3.313-29.558 8.989a52.989 52.989 0 0 1 17.494-2.955c29.317 0 53.082 23.77 53.082 53.092 0 18.378-9.337 34.574-23.523 44.105 20.72-7.233 35.588-26.947 35.588-50.138 0-29.323-23.766-53.093-53.083-53.093" opacity=".1"/>
                <path fill="#FEFEFE" d="M1026.143 318.943v3.625a8.5 8.5 0 0 1 1.288 1.07c2.292 2.293 2.584 4.738.781 6.542-.753.752-1.627 1.146-2.564 1.166v-12.558a7.548 7.548 0 0 0-1.407-.255 6.729 6.729 0 0 0-.587-.02v-.002l-.077.002-.172.001v.003c-1.762.062-3.382.786-4.725 2.129-1.552 1.553-2.28 3.473-2.104 5.554.165 1.957 1.144 3.924 2.757 5.537 1.073 1.073 2.3 1.863 3.577 2.322v-3.644a8.874 8.874 0 0 1-1.222-1.032c-1.055-1.055-1.693-2.123-1.898-3.175-.239-1.232.141-2.391 1.101-3.351.747-.747 1.604-1.133 2.514-1.168v12.532c.485.141.975.234 1.464.275.098.008.195.012.293.016h.002c.112.005.224.007.335.007h.149v-.004c1.78-.044 3.418-.768 4.774-2.125 1.553-1.553 2.284-3.476 2.113-5.562-.161-1.963-1.138-3.932-2.75-5.545-1.088-1.089-2.34-1.886-3.642-2.34zm38.449-43.652l11.189 11.19-2.094 2.095-7.496-1.135c-2.382-.368-5.371-.895-5.387-.88l-.016.017c-.016.016 1.63 1.599 3.852 3.82l3.612 3.614-2.222 2.222-11.189-11.191 2.095-2.094 7.608 1.119c1.774.24 5.18.83 5.195.815l.016-.016c.016-.016-1.838-1.806-3.725-3.693l-3.66-3.661 2.222-2.222zm-2.496 24.88l-11.19-11.193 2.223-2.222 11.189 11.191-2.222 2.223zm-4.648 2.313c.08 1.295-.543 3.325-1.997 4.78-3.213 3.214-8.248 3.358-11.621-.016-3.373-3.374-3.229-8.41-.016-11.623 2.238-2.207 5.243-2.91 8.04-2.126l-1.678 2.862c-1.439-.224-3.07.351-4.172 1.455-2.094 2.094-1.982 4.987.144 7.114 2.221 2.223 5.179 2.11 7.257.032 1.918-1.918 1.87-3.981 1.359-5.196l-.48-.48-3.101 3.102-1.807-1.807 5.004-5.004 6.154 6.156-1.918 1.918c-.928-.927-1.135-1.167-1.152-1.183l-.016.016zm-11.344 13.681l-11.19-11.191 2.223-2.222 11.189 11.191-2.222 2.222zm-13.358 1.754l1.982-1.983c1.23-1.23 1.007-2.606.16-3.453-.88-.88-2.254-1.07-3.469.144l-1.982 1.982 3.309 3.31zm9.846 1.758l-6.042-1.599-.128.128-1.694 1.695 3.82 3.82-2.222 2.224-11.189-11.192 3.916-3.917c2.75-2.75 5.883-2.91 8.136-.655 1.535 1.535 1.903 3.405 1.103 5.323l6.794 1.68-2.494 2.493zM1115.232 339.781h-3.624a8.469 8.469 0 0 1-1.07 1.29c-2.292 2.292-4.737 2.584-6.54.78-.753-.752-1.146-1.628-1.166-2.565h12.555a6.952 6.952 0 0 0 .276-1.994v-.076c-.001-.058 0-.115-.002-.173h-.003c-.061-1.761-.786-3.382-2.128-4.725-1.553-1.553-3.473-2.281-5.553-2.105-1.957.165-3.924 1.144-5.536 2.758-1.072 1.072-1.863 2.3-2.322 3.578h3.644a8.803 8.803 0 0 1 1.031-1.223c1.055-1.056 2.123-1.694 3.174-1.898 1.233-.24 2.392.14 3.35 1.1.748.747 1.134 1.605 1.169 2.515h-12.53a7.58 7.58 0 0 0-.274 1.465 6.728 6.728 0 0 0-.017.292v.003a6.966 6.966 0 0 0-.006.335v.042c0 .036-.002.071 0 .106h.004c.044 1.78.767 3.42 2.123 4.776 1.553 1.553 3.477 2.284 5.561 2.113 1.963-.161 3.933-1.138 5.544-2.75 1.089-1.089 1.886-2.34 2.34-3.644"/>
                <path fill="#D3DCDA" d="M886.303 603.985l-5 .07-1.225-86.579 5-.071z"/>
            </g>
        </g>
    </g>
</svg>
