<svg xmlns="http://www.w3.org/2000/svg" xmlns:xlink="http://www.w3.org/1999/xlink" width="58" height="60" viewBox="0 0 58 60">
    <defs>
        <path id="a" d="M49.552 48.587c2.858-1.648 5.196-5.693 5.196-8.988V20.016c0-3.296-2.338-7.34-5.196-8.989L32.57 1.236c-2.858-1.648-7.534-1.648-10.392 0L5.196 11.027C2.338 12.675 0 16.72 0 20.016v19.583c0 3.296 2.338 7.34 5.196 8.988l16.982 9.792c2.858 1.647 7.534 1.647 10.392 0l16.982-9.792z"/>
    </defs>
    <g fill="none" fill-rule="evenodd" transform="translate(1)">
        <g transform="translate(.34 2.575)">
            <circle cx="27.66" cy="27.356" r="27.356" fill="#1DA1F2"/>
            <path fill="#FFF" d="M39.686 21.306c.372 8.207-5.748 17.356-16.585 17.356a16.5 16.5 0 0 1-8.94-2.623 11.738 11.738 0 0 0 8.637-2.415 5.852 5.852 0 0 1-5.454-4.053 5.86 5.86 0 0 0 2.639-.1c-2.808-.564-4.745-3.09-4.68-5.794a5.82 5.82 0 0 0 2.64.729 5.845 5.845 0 0 1-1.804-7.79 16.557 16.557 0 0 0 12.026 6.096c-.851-3.649 1.915-7.165 5.685-7.165 1.674 0 3.192.71 4.258 1.843a11.656 11.656 0 0 0 3.705-1.416 5.853 5.853 0 0 1-2.568 3.228 11.652 11.652 0 0 0 3.352-.92 11.744 11.744 0 0 1-2.91 3.024"/>
        </g>
        <mask id="b" fill="#fff">
            <use xlink:href="#a"/>
        </mask>
        <g stroke="#FFF" stroke-linecap="square" mask="url(#b)" opacity=".2">
            <path d="M68.874-23.816L-36.046 36.69M68.874-21.885L-36.046 38.62M68.874-19.954l-104.92 60.506M68.874-18.023l-104.92 60.506M68.874-16.092l-104.92 60.506M68.874-14.16l-104.92 60.505M68.874-12.23l-104.92 60.506M68.874-10.299l-104.92 60.506M68.874-8.368l-104.92 60.506M68.874-6.437L-36.046 54.07M68.874-4.506L-36.046 56M68.874-2.575l-104.92 60.506M68.874-.644l-104.92 60.506M68.874 1.287l-104.92 60.506M68.874 3.218l-104.92 60.506M68.874 5.15l-104.92 60.505M68.874 7.08l-104.92 60.506M68.874 9.011l-104.92 60.506M68.874 10.943l-104.92 60.505M68.874 12.874l-104.92 60.505M68.874 14.805L-36.046 75.31M68.874 16.736L-36.046 77.24M68.874 18.667l-104.92 60.505M68.874 20.598l-104.92 60.505M68.874 22.529l-104.92 60.505M68.874 24.46l-104.92 60.506M68.874 26.39l-104.92 60.507M68.874 28.322l-104.92 60.506M68.874 30.253l-104.92 60.506M68.874 32.184L-36.046 92.69M68.874 34.115L-36.046 94.62M68.874 36.046l-104.92 60.506"/>
        </g>
        <circle cx="28" cy="29.931" r="27.356" stroke="#169AEB" stroke-width="2"/>
    </g>
</svg>
