<svg xmlns="http://www.w3.org/2000/svg" xmlns:xlink="http://www.w3.org/1999/xlink" width="39" height="40" viewBox="0 0 39 40">
    <defs>
        <path id="a" d="M32.438 31.807c1.87-1.08 3.402-3.727 3.402-5.884v-12.82c0-2.158-1.531-4.805-3.402-5.884L21.321.809c-1.87-1.079-4.932-1.079-6.803 0L3.402 7.219C1.53 8.298 0 10.945 0 13.103v12.82c0 2.157 1.53 4.805 3.402 5.884l11.116 6.41c1.871 1.078 4.933 1.078 6.803 0l11.117-6.41z"/>
    </defs>
    <g fill="none" fill-rule="evenodd" transform="translate(1)">
        <circle cx="18.33" cy="19.594" r="17.908" fill="#F0F6F9"/>
        <g transform="translate(.421)">
            <mask id="b" fill="#fff">
                <use xlink:href="#a"/>
            </mask>
            <g stroke="#FFF" stroke-linecap="square" mask="url(#b)" opacity=".3">
                <path d="M45.087-15.59l-68.684 39.608M45.087-14.327l-68.684 39.61M45.087-13.063l-68.684 39.61M45.087-11.798L-23.597 27.81M45.087-10.534l-68.684 39.609M45.087-9.27l-68.684 39.609M45.087-8.006l-68.684 39.609M45.087-6.742l-68.684 39.609M45.087-5.478l-68.684 39.609M45.087-4.214l-68.684 39.61M45.087-2.95l-68.684 39.61M45.087-1.685l-68.684 39.608M45.087-.421l-68.684 39.608M45.087.843l-68.684 39.609M45.087 2.107l-68.684 39.609M45.087 3.371L-23.597 42.98M45.087 4.635l-68.684 39.609M45.087 5.9l-68.684 39.608M45.087 7.163l-68.684 39.61M45.087 8.427l-68.684 39.61M45.087 9.692L-23.597 49.3M45.087 10.956l-68.684 39.609M45.087 12.22l-68.684 39.609M45.087 13.484l-68.684 39.609M45.087 14.748l-68.684 39.609M45.087 16.012l-68.684 39.609M45.087 17.276l-68.684 39.61M45.087 18.54l-68.684 39.61M45.087 19.804l-68.684 39.61M45.087 21.069l-68.684 39.608M45.087 22.333l-68.684 39.609M45.087 23.597l-68.684 39.609"/>
            </g>
        </g>
        <g transform="translate(.222 1.685)">
            <circle cx="18.107" cy="17.908" r="17.908" stroke="#00D693" stroke-width="2"/>
            <path fill="#00D693" d="M14.907 13.691l-7.13 1.222 5.047 5.164-1.036 7.132 6.49-3.185 6.489 3.185-1.036-7.132 5.047-5.164-7.13-1.222-3.37-6.376z"/>
        </g>
    </g>
</svg>
