<svg xmlns="http://www.w3.org/2000/svg" xmlns:xlink="http://www.w3.org/1999/xlink" width="89" height="93" viewBox="0 0 89 93">
    <defs>
        <path id="a" d="M76.982 75.483c4.44-2.56 8.073-8.843 8.073-13.963V31.096c0-5.12-3.633-11.404-8.073-13.964L50.6 1.92c-4.44-2.56-11.705-2.56-16.145 0L8.073 17.132C3.633 19.692 0 25.976 0 31.096V61.52c0 5.12 3.633 11.403 8.073 13.963l26.382 15.212c4.44 2.56 11.705 2.56 16.145 0l26.382-15.212z"/>
    </defs>
    <g fill="none" fill-rule="evenodd" transform="translate(2)">
        <g transform="translate(0 4)">
            <circle cx="42.5" cy="42.5" r="42.5" fill="#6E3BEA"/>
            <path fill="#FFF" d="M48.5 44.667l16.042 12.31-6.798 1.143 4.268 8.697-3.915 1.912-4.29-8.78-5.307 4.593V44.667zm-7.333-11H36.39c.895-4.122 2.548-7.697 4.776-10.373v10.373zm0 11h-5.372c-.268-2.605-.268-4.725 0-7.334h5.372v7.334zm0 14.04c-2.228-2.677-3.882-6.252-4.776-10.374h4.776v10.373zM26.208 48.332h6.417c.702 3.594 1.929 6.877 3.572 9.677a18.42 18.42 0 0 1-9.989-9.677zM24.668 41c0-1.256.128-2.482.37-3.667h7.064a39.184 39.184 0 0 0 0 7.334h-7.064a18.303 18.303 0 0 1-.37-3.667zm11.53-17.01c-1.643 2.8-2.87 6.083-3.572 9.677H26.21a18.42 18.42 0 0 1 9.988-9.677zm8.636-.696c2.228 2.676 3.882 6.251 4.776 10.373h-4.776V23.294zm14.959 10.373h-6.417c-.702-3.594-1.929-6.877-3.572-9.677a18.42 18.42 0 0 1 9.989 9.677zm-14.959 25.04V37.23l.132.102h5.24c.154 1.485.207 2.815.187 4.164l3.53 2.708a39.134 39.134 0 0 0-.023-6.872h7.064a18.303 18.303 0 0 1 0 7.334h-6.44l4.779 3.666h.49c-.04.094-.094.182-.136.272l2.975 2.286A21.898 21.898 0 0 0 65 41c0-12.15-9.85-22-22-22s-22 9.85-22 22 9.85 22 22 22c.618 0 1.227-.042 1.833-.093v-4.2z"/>
        </g>
        <mask id="b" fill="#fff">
            <use xlink:href="#a"/>
        </mask>
        <g stroke="#FFF" stroke-linecap="square" mask="url(#b)" opacity=".2">
            <path d="M107-37L-56 57M107-34L-56 60M107-31L-56 63M107-28L-56 66M107-25L-56 69M107-22L-56 72M107-19L-56 75M107-16L-56 78M107-13L-56 81M107-10L-56 84M107-7L-56 87M107-4L-56 90M107-1L-56 93M107 2L-56 96M107 5L-56 99M107 8l-163 94M107 11l-163 94M107 14l-163 94M107 17l-163 94M107 20l-163 94M107 23l-163 94M107 26l-163 94M107 29l-163 94M107 32l-163 94M107 35l-163 94M107 38l-163 94M107 41l-163 94M107 44l-163 94M107 47l-163 94M107 50l-163 94M107 53l-163 94M107 56l-163 94"/>
        </g>
        <circle cx="42.5" cy="46.5" r="42.5" stroke="#6331DD" stroke-width="4"/>
    </g>
</svg>
