<svg xmlns="http://www.w3.org/2000/svg" xmlns:xlink="http://www.w3.org/1999/xlink" width="89" height="93" viewBox="0 0 89 93">
    <defs>
        <path id="a" d="M76.982 75.483c4.44-2.56 8.073-8.843 8.073-13.963V31.096c0-5.12-3.633-11.404-8.073-13.964L50.6 1.92c-4.44-2.56-11.705-2.56-16.145 0L8.073 17.132C3.633 19.692 0 25.976 0 31.096V61.52c0 5.12 3.633 11.403 8.073 13.963l26.382 15.212c4.44 2.56 11.705 2.56 16.145 0l26.382-15.212z"/>
    </defs>
    <g fill="none" fill-rule="evenodd" transform="translate(2)">
        <g transform="translate(0 4)">
            <circle cx="42.5" cy="42.5" r="42.5" fill="#00C600"/>
            <path fill="#FFF" d="M41.614 35.397a2.36 2.36 0 1 1 0-4.724 2.36 2.36 0 0 1 0 4.724m-11.807 0a2.36 2.36 0 1 1 0-4.724 2.36 2.36 0 0 1 0 4.724M57.16 46.91a1.97 1.97 0 0 1 0-3.936 1.967 1.967 0 1 1 0 3.936m-9.84 0a1.966 1.966 0 0 1-1.965-1.968 1.967 1.967 0 0 1 3.932 0c0 1.086-.88 1.968-1.968 1.968M35.711 23C25.93 23 18 29.607 18 37.76c0 4.446 2.384 8.45 6.119 11.155.3.212.496.562.496.962l-.061.373-.799 2.977-.096.433c0 .325.266.59.59.59l.343-.108 3.877-2.24c.29-.167.599-.272.94-.272l.52.078c1.81.52 3.761.81 5.782.81l.972-.024a11.405 11.405 0 0 1-.594-3.616c0-7.433 7.232-13.46 16.154-13.46l.96.024C51.868 28.392 44.545 23 35.71 23M61.9 58.174c3.111-2.256 5.1-5.59 5.1-9.298 0-6.79-6.61-12.297-14.757-12.297-8.153 0-14.762 5.507-14.762 12.297 0 6.793 6.61 12.3 14.762 12.3 1.682 0 3.307-.24 4.816-.674l.433-.066c.286 0 .54.088.784.227l3.232 1.866.284.092c.271 0 .494-.22.494-.492l-.082-.36-.666-2.48-.05-.315c0-.33.163-.622.412-.8"/>
        </g>
        <mask id="b" fill="#fff">
            <use xlink:href="#a"/>
        </mask>
        <g stroke="#FFF" stroke-linecap="square" mask="url(#b)" opacity=".2">
            <path d="M107-37L-56 57M107-34L-56 60M107-31L-56 63M107-28L-56 66M107-25L-56 69M107-22L-56 72M107-19L-56 75M107-16L-56 78M107-13L-56 81M107-10L-56 84M107-7L-56 87M107-4L-56 90M107-1L-56 93M107 2L-56 96M107 5L-56 99M107 8l-163 94M107 11l-163 94M107 14l-163 94M107 17l-163 94M107 20l-163 94M107 23l-163 94M107 26l-163 94M107 29l-163 94M107 32l-163 94M107 35l-163 94M107 38l-163 94M107 41l-163 94M107 44l-163 94M107 47l-163 94M107 50l-163 94M107 53l-163 94M107 56l-163 94"/>
        </g>
        <circle cx="42.5" cy="46.5" r="42.5" stroke="#00B500" stroke-width="4"/>
    </g>
</svg>
