<svg xmlns="http://www.w3.org/2000/svg" xmlns:xlink="http://www.w3.org/1999/xlink" width="77" height="102" viewBox="0 0 77 102">
    <defs>
        <path id="a" d="M.298.182h18.775v16.13H.298z"/>
    </defs>
    <g fill="none" fill-rule="evenodd">
        <path fill="#000" d="M42.321 97.731c-7.864-4.54-7.824-11.925.09-16.494 7.913-4.569 20.704-4.592 28.568-.051 7.865 4.54 7.824 11.925-.09 16.494-7.913 4.569-20.703 4.592-28.568.051" opacity=".1"/>
        <path fill="#000" d="M33.046 100.8c-1.032-.595-1.027-1.564.011-2.164 1.039-.6 2.717-.602 3.749-.007 1.032.596 1.027 1.565-.012 2.165-1.038.599-2.716.602-3.748.006"/>
        <path fill="#C2CBD3" d="M56.64 62.941l-7.69-2.49c-.812.54-1.461 7.153-1.461 7.153-.054.82 1.408 5.896 1.516 6.438.108.541 2.057 5.74 1.679 6.551-.38.811-3.358 2.654-4.062 3.25-.704.595-1.3 3.14-1.083 3.844.217.704 3.358 1.787 4.278 1.68.92-.11 4.44-3.304 5.09-4.17.65-.867 1.841-1.138 2.004-1.3.162-.163.595-.65.433-1.625-.162-.974-.758-8.88-.867-9.544-.108-.664.163-1.827.434-2.91.27-1.083 1.689-5.252 1.689-5.252l-1.96-1.625z"/>
        <path fill="#C2CBD3" d="M69.445 66.676s.245 1.518-.297 2.6c-.541 1.084-.92 1.68-.974 2.925-.055 1.245-.325 8.176-.38 9.26-.053 1.082.434 5.739 0 6.172-.433.433-1.624.813-1.786 1.516-.163.704-1.191 3.737-3.14 5.036-1.95 1.3-3.412 1.841-4.062 1.787-.65-.054-3.736-.92-4.115-1.462-.38-.541-.325-2.382 0-2.87.324-.487 3.79-4.386 4.873-5.036 0 0-.92-9.476-.92-10.18 0-.704-.38-8.016.378-9.748.759-1.731 4.495-1.352 4.711-1.46.217-.109 5.712 1.46 5.712 1.46"/>
        <path fill="#98A7B4" d="M74.297 32.807s1.972 18.763 2.053 20.225c.081 1.462-3.98 3.98-5.686 4.142-1.705.163-7.31-26.194-7.31-26.194L56.911 26.9l3.874-7.132 10.692 3.779 2.82 9.26z"/>
        <path fill="#EBF0F3" d="M56.91 60.504s1.084 1.95 1.365 2.654c.281.704 0 3.303 0 3.303s1.939 1.029 4.863 1.137c2.924.108 7.3-1.191 7.3-1.191s.551-4.982.606-8.556c.054-3.573-1.214-5.84-1.214-5.84l-9.045-.293H48.717c-.037.285.416 3.156 0 4.564-.416 1.407-1.12 3.573-.578 4.33.541.759 3.608 2.546 5.107 3.087 1.499.542 8.278 2.166 8.278 2.166"/>
        <path fill="#98A7B4" d="M70.983 56.28s-2.752 2.031-9.333 2.113c-6.58.08-12.78-3.057-12.78-3.057l-.153-3.618 21.113.292s1.215 2.128 1.153 4.27"/>
        <path fill="#EBF0F3" d="M46.238 32.78c-.157.163.33 14.783 1.846 18.736 0 0 6.228 2.166 13.105 2.003 6.876-.162 9.15-1.787 9.15-1.787s-1.245-13.429-2.599-15.161M60.958 17.618s10.56 3.452 11.859 3.98c1.3.528 2.03 1.625.975 2.315-1.056.69-3.615 2.559-4.265 3.006-.65.446-1.218.487-2.68 0-1.462-.488-10.356-3.737-10.356-3.737l4.467-5.564z"/>
        <path fill="#C2CBD3" d="M74.21 22.747s.963 7.055 1.044 7.908c.08.853-.127 1.462-.957 2.152-.83.69-3.917 2.478-4.688 2.64-.772.162-1.016-8.178-1.016-8.178s.398.028.934-.35c.537-.379 3.493-2.478 4.265-3.006.771-.528.347-.707.417-1.166M46.21 39.278c-.237.054-3.92 2.77-6.248 3.876-2.328 1.106-7.256 1.485-9.476 1.322-2.22-.162-5.36-1.322-5.36-1.322s1.082-3.822 1.786-4.363c.704-.542 6.336.866 8.23.27 1.896-.595 2.004-1.895 3.087-2.653 1.083-.758 3.195-2.49 3.195-2.49l2.49.65 2.296 4.71z"/>
        <path fill="#EBF0F3" d="M57.181 35.668l-2.166 4.206s2.264 2.42 4.766 3.14c3.573 1.03 6.227.38 6.227.38s1.624-3.737 2.166-5.578c.541-1.841-.975-7.527-2.78-8.593-1.805-1.066-3.521-1.257-3.53-1.376l-13.509-.946s-2.22.249-4.224 2.198c-2.003 1.948-3.032 4.114-3.032 4.114s1.408 5.524 6.01 6.065"/>
        <path fill="#C2CBD3" d="M61.8 26.901l.174 2.535s-2.559 2.437-6.864 2.072c-4.305-.366-4.737-2.484-4.737-2.484L61.8 26.9z"/>
        <path fill="#98A7B4" d="M57.94 69.44s.812-.272 1.732 0c.92.27 4.711 3.194 4.549 4.44-.163 1.245-2.22 2.49-4.44 2.22-2.22-.271-2.437-2.708-2.437-3.791 0-1.083.596-2.87.596-2.87M47.326 64.35c.163-.055 1.137-.596 2.112 0 .975.595 4.549 2.923 4.44 4.277-.108 1.354-2.545 2.545-4.332 2.274-1.787-.27-3.627-2.436-2.924-4.494l.704-2.058z"/>
        <path fill="#2E3F53" d="M75.657 33.982h-2.015c-.23 0-.462.152-.639.458-.352.609-.353 1.593-.004 2.198.174.3.402.451.63.452h2.028v-3.108z"/>
        <path fill="#6F8294" d="M75.014 36.638c.174.3.402.451.63.452.231 0 .462-.153.639-.459.351-.609.353-1.593.004-2.197-.174-.302-.402-.452-.63-.452-.231 0-.462.152-.639.458-.352.609-.353 1.593-.004 2.198M71.778.427C71.86.38 71.9.315 71.9.252c0-.065-.04-.129-.124-.178a.639.639 0 0 0-.593-.001c-.081.048-.122.112-.122.175 0 .065.041.13.124.178.164.098.43.099.593.001"/>
        <path fill="#6F8294" d="M71.9 22.5V.244c0 .062-.04.123-.122.17a.657.657 0 0 1-.593-.001c-.083-.048-.124-.11-.124-.173V22.5h.84zM35.452 19.652c.144-.083.215-.192.216-.3 0-.11-.073-.22-.22-.305-.29-.168-.76-.169-1.048-.002-.144.082-.216.191-.216.3 0 .11.073.221.22.305.29.168.76.169 1.048.002"/>
        <path fill="#6F8294" d="M34.184 99.284c0 .11.073.22.22.304.29.168.759.17 1.048.002.143-.082.215-.191.216-.3V19.352c0 .108-.073.217-.216.3-.289.167-.758.166-1.049-.002-.146-.084-.219-.195-.219-.305v79.939z"/>
        <path fill="#2E3F53" d="M75.202 36.312c.123.212.283.318.444.318.163 0 .326-.107.45-.323.248-.429.249-1.122.003-1.548-.123-.212-.283-.318-.444-.318-.163 0-.325.108-.45.323-.247.429-.249 1.122-.003 1.548"/>
        <g transform="translate(57.831 34.642)">
            <mask id="b" fill="#fff">
                <use xlink:href="#a"/>
            </mask>
            <path fill="#1A82FF" d="M17.764.196c.555-.107.809.433.863.785.054.352.975 5.47 0 7.96-.974 2.49-3.729 7.16-10.667 7.364C1.022 16.51.298 11.46.298 11.46l1.489-.054s1.13 3.6 5.983 3.6c4.854 0 8.041-2.979 9.476-6.376 1.435-3.397.027-7.35.027-7.35s-.21-.948.49-1.083" mask="url(#b)"/>
        </g>
        <path fill="#1A82FF" d="M34.642 20.949s-6.01.487-10.153 3.776c-4.142 3.29-5.32 6.295-13.24 9.95C3.33 38.33 0 35.041 0 35.041s2.64 4.873 2.03 10.275C1.422 50.717.448 58.596.529 60.098c0 0 3.574 2.072 7.31.569 3.736-1.503 13.036-9.828 18.925-11.9 5.889-2.07 7.879-2.07 7.879-2.07s-.988-2.5-1.123-5.616c-.136-3.116 1.58-5.35 1.123-6.487-.458-1.137-2.153-3.696-1.787-6.498.365-2.802 1.787-7.147 1.787-7.147"/>
        <path fill="#EBF0F3" d="M47.8 24.98s-1.38-.417-1.543-2.691c-.163-2.275.771-2.52.771-2.52s.488-7.146 7.839-7.146c7.35 0 9.746 5.604 9.868 7.554 0 0 1.056 1.137.894 2.802-.163 1.665-1.381 3.614-2.518 3.493-1.137-.122-1.706.893-1.706.893s-2.03 3.615-6.254 3.615c-5.442 0-7.35-6-7.35-6"/>
        <path fill="#40A0FF" d="M47.597 20.272s.758-.867 3.79-.325c3.033.541 8.177 2.057 9.098 2.653 0 0 .465 8.688-6.444 7.473-5.848-1.03-6.444-9.801-6.444-9.801"/>
        <path fill="#C2CBD3" d="M64.925 43.596s-1.95 4.779-4.928 7c-2.978 2.22-14.133 5.63-15.54 5.685-1.408.054-3.087-4.115-2.87-4.711.216-.596 10.504-5.902 11.966-6.498 0 0 1.482-3.84 2.23-4.465.749-.625 7.247.675 7.247.675l1.895 2.314z"/>
        <path fill="#EBF0F3" d="M43.698 55.415s-2.653 1.462-3.303 1.786c-.65.325-1.462.704-1.462.704s-.65.704-1.245.813c-.596.108-2.004.541-2.383.325-.379-.217-2.112-1.842-1.733-3.683 0 0 2.383-.758 2.87-1.083.488-.324 1.03-.812.596-1.082-.433-.271-1.37-.271-1.37-.271v-1.3s2.994-.054 3.752.325c.759.379 2.166-.379 2.166-.379l2.112 2.707v1.138z"/>
        <path fill="#98A7B4" d="M64.423 89.162c-.26.607-.384 1.263-.617 1.88a5.768 5.768 0 0 1-3.717 3.445c-.56.164-1.147.242-1.68.477-.352.156-.684.404-.894.72.575.158 1.072.27 1.291.288.65.054 2.112-.487 4.061-1.787 1.95-1.3 2.978-4.332 3.14-5.036.163-.704 1.354-1.083 1.788-1.516.113-.113.163-.517.177-1.07-1.434.363-3.077 1.495-3.549 2.6M57.372 82.781c-.19.146-.39.278-.606.341-.633.187-1.322.248-1.87.613-.75.497-1.058 1.433-1.638 2.12-1.074 1.27-2.94 1.552-4.195 2.644-.218.19-.417.423-.56.678.547.143 1.034.222 1.314.189.92-.108 4.44-3.303 5.09-4.17.65-.866 1.841-1.137 2.004-1.299.13-.131.432-.478.461-1.116"/>
        <path fill="#FFF" d="M23.68 35.576l-1.857 3.204c.074.38.112.821.112 1.322 0 2.697-1.104 4.944-2.953 6.012-.77.445-1.421.538-1.912.282l6.436-11.102a2.818 2.818 0 0 0-.59-.637 2.372 2.372 0 0 0-.29-.19v-.001l-.04-.02c-.03-.017-.058-.035-.089-.05l-.001.003c-.935-.46-2.137-.295-3.514.5-1.591.92-2.949 2.405-3.925 4.296-.919 1.778-1.424 3.803-1.424 5.7 0 1.262.224 2.32.643 3.099l1.868-3.222a7.37 7.37 0 0 1-.098-1.27c0-1.24.22-2.371.654-3.36.51-1.16 1.299-2.074 2.282-2.641.766-.443 1.403-.534 1.888-.298l-6.424 11.08c.177.265.38.49.61.67.047.035.094.067.142.1h.001c.055.037.112.072.169.104l.021.012.055.032.002-.004c.935.48 2.145.32 3.536-.482 1.593-.92 2.953-2.407 3.934-4.3.924-1.783 1.433-3.81 1.433-5.706 0-1.28-.233-2.352-.668-3.133"/>
    </g>
</svg>
