<svg xmlns="http://www.w3.org/2000/svg" xmlns:xlink="http://www.w3.org/1999/xlink" width="150" height="193" viewBox="0 0 150 193">
    <defs>
        <path id="a" d="M0 .643h107.957v61.969H0z"/>
        <path id="c" d="M.024.489H27V33.75H.024z"/>
        <path id="e" d="M.023.049h54.953v31.567H.023z"/>
        <path id="g" d="M.04.063h54.952v31.49H.039z"/>
        <path id="i" d="M.04.02h54.952v20.83H.039z"/>
        <path id="k" d="M.04.045h54.952v31.567H.039z"/>
    </defs>
    <g fill="none" fill-rule="evenodd">
        <g transform="translate(0 125.233)">
            <mask id="b" fill="#fff">
                <use xlink:href="#a"/>
            </mask>
            <path fill="#111D28" d="M107.957-1.331l-15.025-5.92L0 48.396l10.94 6.32z" mask="url(#b)"/>
        </g>
        <path fill="#98A7B4" d="M10.94 70.5v99.963l97.016-56.048V14.452z"/>
        <path fill="#F0F0F1" d="M20.26 145.413v10.468l10.159-5.87v-10.466zM32.05 138.661v10.469l10.158-5.87v-10.467zM43.716 132.19v10.469l10.16-5.87v-10.466zM55.507 125.439v10.468l10.159-5.87v-10.466zM67.174 118.968v10.468l10.159-5.87V113.1zM78.963 112.216v10.468l10.16-5.87v-10.466zM90.631 105.746v10.467l10.16-5.868V99.877zM20.26 132.092v10.468l10.159-5.87v-10.466zM32.05 125.34v10.468l10.158-5.87v-10.466zM43.716 118.87v10.467l10.16-5.87v-10.466zM55.507 112.117v10.468l10.159-5.87V106.25zM67.174 105.646v10.468l10.159-5.87V99.779zM78.963 98.894v10.469l10.16-5.87V93.026zM90.631 92.425v10.467l10.16-5.868V86.555zM20.26 118.77v10.468l10.159-5.87v-10.466zM32.05 112.018v10.468l10.158-5.87V106.15zM43.716 105.547v10.469l10.16-5.87V99.68zM55.507 98.796v10.468l10.159-5.87V92.927zM67.174 92.325v10.468l10.159-5.87V86.457zM78.963 85.573V96.04l10.16-5.87V79.705zM90.631 79.103V89.57l10.16-5.868V73.234zM20.26 105.448v10.469l10.159-5.87V99.58zM32.05 98.697v10.468l10.158-5.87V92.83zM43.716 92.226v10.468l10.16-5.87V86.358zM55.507 85.474v10.468l10.159-5.87V79.607zM67.174 79.003v10.468l10.159-5.87V73.136zM78.963 72.251V82.72l10.16-5.87V66.384zM90.631 65.782v10.466l10.16-5.868V59.912z"/>
        <path fill="#C2CBD3" d="M0 164.143l10.94 6.32V70.5L0 64.18z"/>
        <path fill="#FEFEFE" d="M0 64.18l10.94 6.32 97.017-56.047L97.015 8.13z"/>
        <path fill="#1F91DD" d="M10.94 70.5v33.355l97.016-56.048V14.452z"/>
        <path fill="#3E9FFF" d="M0 97.535l10.94 6.32V70.5L0 64.18z"/>
        <path fill="#64B9FF" d="M0 64.18l10.94 6.32 97.017-56.047L97.015 8.13z"/>
        <path fill="#0D2032" d="M29.318 34.714c-3.753-2.169-7.41-2.446-10.29-.78-2.865 1.654-4.443 4.926-4.443 9.211 0 3.561 1.104 7.402 2.94 10.91l4.332-2.502c-1.418-2.765-2.29-5.742-2.29-8.408 0-2.394.711-4.179 1.952-4.894 1.256-.727 3.192-.442 5.308.78 5.286 3.054 9.751 10.756 9.751 16.82 0 2.396-.71 4.18-1.951 4.895a2.94 2.94 0 0 1-1.055.357s-1.331.703-1.331 2.45a3.102 3.102 0 0 0 1.331 2.567 7.994 7.994 0 0 0 3.546-1.057c2.866-1.654 4.442-4.926 4.442-9.212 0-7.887-5.377-17.171-12.242-21.137"/>
        <g transform="translate(70.559 .01)">
            <mask id="d" fill="#fff">
                <use xlink:href="#c"/>
            </mask>
            <path fill="#0D2032" d="M14.756 2.343C11.003.175 7.348-.1 4.466 1.564 1.603 3.218.025 6.49.025 10.776c0 3.56 1.104 7.4 2.94 10.91l4.332-2.503c-1.418-2.765-2.29-5.742-2.29-8.407 0-2.395.71-4.18 1.952-4.896 1.256-.727 3.192-.442 5.308.78 5.286 3.054 9.751 10.757 9.751 16.82 0 2.396-.71 4.181-1.951 4.896a2.94 2.94 0 0 1-1.055.356s-1.331.703-1.331 2.451a3.106 3.106 0 0 0 1.331 2.567 8.011 8.011 0 0 0 3.545-1.056C25.423 31.039 27 27.768 27 23.48c0-7.887-5.377-17.17-12.243-21.138" mask="url(#d)"/>
        </g>
        <path fill="#FEFEFE" d="M48.988 59.27c.558-.323 1.069-.526 1.534-.604.464-.082.861-.044 1.19.112.33.153.588.42.772.798.185.378.277.861.277 1.454 0 .513-.065 1.023-.197 1.534a11.03 11.03 0 0 1-.529 1.548c-.22.522-.479 1.056-.776 1.596-.295.539-.606 1.096-.93 1.666l-2.735 4.767c.27-.246.533-.465.79-.661.257-.197.503-.363.738-.5l3.112-1.797c.222-.128.4-.158.53-.092.134.068.198.22.198.457v1.415l-8.318 4.806v-.786c0-.158.03-.342.088-.547.058-.207.152-.42.28-.641l3.682-6.338c.307-.533.583-1.033.825-1.499.244-.465.448-.906.613-1.322.165-.413.29-.81.378-1.188.085-.377.129-.75.129-1.114 0-.333-.041-.599-.125-.804-.084-.2-.205-.345-.361-.426a.855.855 0 0 0-.558-.066 2.31 2.31 0 0 0-.725.29c-.498.288-.907.667-1.23 1.141-.32.472-.545.987-.674 1.548-.06.277-.153.505-.277.68-.121.178-.28.32-.469.43-.085.049-.177.093-.277.132l-1.089.409a8.679 8.679 0 0 1 1.387-3.802 8.45 8.45 0 0 1 1.241-1.472c.466-.437.97-.816 1.506-1.125M60.836 59.496c0-1.002-.064-1.795-.193-2.376-.13-.583-.3-1.007-.515-1.27-.216-.267-.464-.398-.743-.392-.28.006-.571.096-.872.27a3.448 3.448 0 0 0-.859.732c-.278.314-.522.73-.734 1.242-.214.51-.383 1.131-.508 1.863-.127.728-.188 1.593-.188 2.595 0 1.002.061 1.797.188 2.38.125.585.294 1.01.508 1.275.212.268.456.399.734.396a1.76 1.76 0 0 0 .859-.263c.3-.174.592-.42.872-.739.28-.317.527-.733.743-1.247.215-.511.386-1.133.515-1.867.129-.73.193-1.598.193-2.6m2.138-1.234c0 1.205-.113 2.318-.338 3.34a12.256 12.256 0 0 1-.94 2.749c-.4.81-.874 1.515-1.418 2.113a7.359 7.359 0 0 1-1.765 1.446c-.633.365-1.217.56-1.756.59a1.899 1.899 0 0 1-1.406-.484c-.397-.352-.706-.909-.93-1.668-.223-.764-.336-1.747-.336-2.95 0-1.213.113-2.327.335-3.342.225-1.018.534-1.93.93-2.74a9.1 9.1 0 0 1 1.407-2.108 7.291 7.291 0 0 1 1.756-1.441c.63-.364 1.22-.562 1.765-.593a1.91 1.91 0 0 1 1.418.477c.398.35.713.902.94 1.659.225.756.338 1.74.338 2.952M65.65 61.863l2.458-1.417v-8.069c0-.312.008-.645.024-1l-1.744 2.672a1.488 1.488 0 0 1-.221.274 1.36 1.36 0 0 1-.224.164.586.586 0 0 1-.306.096c-.092 0-.16-.023-.205-.068l-.654-.645 3.697-5.724 1.701-.983v12.085l2.182-1.259v1.77l-6.708 3.873v-1.769zM80.39 45.453c0-.377-.049-.685-.15-.92-.1-.24-.243-.41-.429-.505-.182-.101-.402-.13-.657-.09-.253.038-.531.144-.834.319-.312.18-.596.402-.848.666a4.365 4.365 0 0 0-1.047 1.85 3.864 3.864 0 0 0-.143 1.034c0 .773.175 1.26.525 1.463.349.202.844.118 1.488-.252.336-.196.632-.428.893-.7.259-.268.478-.561.658-.877a4.103 4.103 0 0 0 .545-1.988m-2.827 5.776c-.42.243-.83.396-1.231.461-.404.07-.762.024-1.077-.126-.317-.152-.57-.421-.76-.806-.19-.385-.287-.909-.287-1.572 0-.62.103-1.259.304-1.916.2-.66.483-1.296.848-1.915a9.305 9.305 0 0 1 1.306-1.723 7.637 7.637 0 0 1 1.687-1.328c.621-.358 1.177-.569 1.673-.631.495-.063.916.006 1.266.205.348.202.618.529.804.982.188.455.283 1.013.283 1.685 0 .427-.034.848-.098 1.27-.064.42-.155.84-.277 1.265-.12.422-.263.85-.43 1.284-.169.43-.356.877-.563 1.333l-2.775 6.12c-.095.208-.237.419-.425.632-.187.213-.4.39-.642.527l-1.902 1.102 3.765-7.544a29.024 29.024 0 0 0 .51-1.071c-.279.364-.585.698-.92.996-.336.3-.69.557-1.059.77"/>
        <g>
            <path fill="#111D28" d="M87.787 156.079c-5.329-3.063-7.993-7.081-7.998-11.108-.005-4.068 2.704-8.145 8.12-11.258 10.779-6.196 28.2-6.227 38.912-.07 5.33 3.063 7.994 7.08 7.998 11.108.005 4.067-2.703 8.144-8.12 11.258-10.779 6.195-28.2 6.226-38.912.07" opacity=".2"/>
            <path fill="#1A82FF" d="M134.82 136.637v4.833c.004 4.097-2.704 8.205-8.12 11.341-10.78 6.241-28.201 6.273-38.913.07-5.329-3.085-7.993-7.133-7.998-11.19v-5.054h55.03z"/>
            <path fill="#40A0FF" d="M87.787 148.487c-5.329-3.063-7.993-7.08-7.998-11.108-.005-4.067 2.704-8.144 8.12-11.257 10.779-6.196 28.2-6.227 38.912-.07 5.33 3.063 7.994 7.08 7.998 11.108.005 4.067-2.703 8.144-8.12 11.257-10.779 6.196-28.2 6.227-38.912.07"/>
            <path fill="#1A82FF" d="M106.817 149.922c-6.695 0-12.931-1.49-17.56-4.195-4.062-2.374-6.301-5.34-6.305-8.35-.003-3.01 2.339-6.106 6.426-8.494 4.707-2.75 11.022-4.266 17.782-4.266 6.694 0 12.93 1.49 17.56 4.195 4.062 2.374 6.3 5.34 6.304 8.35.004 3.01-2.338 6.106-6.425 8.494-4.707 2.75-11.023 4.266-17.782 4.266"/>
            <path fill="#0F7CE8" d="M89.378 129.616c4.707-2.792 11.022-4.33 17.782-4.33 6.694 0 12.931 1.513 17.56 4.258 3.913 2.322 6.129 5.202 6.288 8.142.007-.111.016-.223.016-.335-.003-3.056-2.242-6.066-6.304-8.476-4.629-2.745-10.866-4.258-17.56-4.258-6.76 0-13.075 1.538-17.782 4.33-4.087 2.424-6.43 5.566-6.426 8.621 0 .112.01.223.015.334.162-2.948 2.473-5.95 6.411-8.286"/>
            <path fill="#FFF" d="M103.935 143.226l.017-3.152a13.589 13.589 0 0 1-1.93-.927c-3.432-1.988-3.859-4.114-1.142-5.687 1.133-.657 2.45-1.002 3.857-1.022l-.06 10.922c.7.112 1.406.186 2.112.218.297.014.59.017.882.016v.002l.115-.002c.086-.001.173 0 .258-.002v-.002c2.646-.059 5.083-.693 7.107-1.865 2.339-1.354 3.44-3.027 3.187-4.836-.24-1.702-1.7-3.41-4.116-4.808-1.605-.93-3.445-1.614-5.361-2.01l-.018 3.17c.612.244 1.224.541 1.832.894 1.58.915 2.533 1.842 2.835 2.755.353 1.072-.224 2.081-1.669 2.918-1.125.652-2.414.99-3.782 1.023l.059-10.9c-.728-.12-1.463-.2-2.197-.234-.147-.007-.293-.01-.44-.014h-.003a18.245 18.245 0 0 0-.504-.005h-.223v.004c-2.673.043-5.137.677-7.18 1.86-2.34 1.356-3.447 3.03-3.2 4.844.233 1.707 1.69 3.417 4.104 4.815 1.63.944 3.506 1.634 5.46 2.025"/>
            <path fill="#111D28" d="M83.584 137.38c-.004-4.068 2.704-8.145 8.12-11.258 10.78-6.196 28.2-6.227 38.912-.07 5.33 3.063 7.994 7.08 7.998 11.108.005 4.067-2.703 8.144-8.12 11.257-10.778 6.196-28.2 6.227-38.912.07-5.329-3.063-7.993-7.08-7.998-11.108z" opacity=".2"/>
            <path fill="#1A82FF" d="M138.614 129.678v4.833c.005 4.098-2.703 8.205-8.12 11.341-10.778 6.242-28.2 6.273-38.912.07-5.329-3.085-7.993-7.133-7.998-11.19v-5.054h55.03z"/>
            <path fill="#40A0FF" d="M91.582 140.896c-5.329-3.063-7.993-7.08-7.998-11.108-.004-4.067 2.704-8.145 8.12-11.258 10.78-6.195 28.2-6.226 38.912-.07 5.33 3.063 7.994 7.081 7.998 11.108.005 4.068-2.703 8.145-8.12 11.258-10.778 6.196-28.2 6.227-38.912.07"/>
            <path fill="#1A82FF" d="M110.612 142.963c-6.695 0-12.931-1.49-17.56-4.195-4.062-2.373-6.301-5.339-6.305-8.35-.003-3.01 2.34-6.106 6.426-8.494 4.707-2.75 11.022-4.265 17.782-4.265 6.695 0 12.931 1.49 17.56 4.194 4.062 2.374 6.301 5.34 6.304 8.35.004 3.01-2.338 6.106-6.425 8.495-4.707 2.75-11.022 4.265-17.782 4.265"/>
            <path fill="#0F7CE8" d="M93.173 122.658c4.707-2.792 11.022-4.33 17.782-4.33 6.695 0 12.931 1.512 17.56 4.258 3.914 2.322 6.129 5.201 6.289 8.142.006-.112.015-.224.015-.335-.003-3.057-2.242-6.067-6.304-8.477-4.629-2.745-10.865-4.257-17.56-4.257-6.76 0-13.075 1.537-17.782 4.33-4.087 2.423-6.43 5.566-6.426 8.62 0 .112.01.223.016.334.16-2.948 2.473-5.95 6.41-8.285"/>
            <path fill="#FFF" d="M108.363 136.268l.017-3.152a13.589 13.589 0 0 1-1.93-.928c-3.432-1.987-3.86-4.113-1.142-5.687 1.133-.656 2.45-1.001 3.856-1.022l-.059 10.922c.7.112 1.406.186 2.112.218.296.014.59.018.882.017l.115-.001.258-.001v-.003c2.646-.058 5.083-.692 7.107-1.864 2.338-1.355 3.44-3.027 3.186-4.837-.238-1.701-1.7-3.409-4.115-4.808-1.605-.93-3.446-1.613-5.362-2.01l-.017 3.17c.612.244 1.224.542 1.832.894 1.58.915 2.533 1.842 2.834 2.756.354 1.071-.223 2.08-1.668 2.918-1.125.651-2.415.99-3.782 1.022l.059-10.9c-.728-.12-1.463-.2-2.198-.234-.147-.007-.293-.01-.439-.014h-.004a18.245 18.245 0 0 0-.503-.004h-.223v.003c-2.673.044-5.137.677-7.18 1.861-2.341 1.355-3.447 3.03-3.2 4.843.233 1.708 1.69 3.418 4.104 4.815 1.63.945 3.506 1.635 5.46 2.026"/>
            <path fill="#111D28" d="M87.155 140.896c-5.33-3.063-7.994-7.08-7.998-11.108-.005-4.067 2.703-8.145 8.12-11.258 10.778-6.195 28.2-6.226 38.912-.07 5.329 3.063 7.993 7.081 7.998 11.108.004 4.068-2.704 8.145-8.12 11.258-10.78 6.196-28.2 6.227-38.912.07" opacity=".2"/>
            <path fill="#1A82FF" d="M134.187 122.087v4.833c.004 4.097-2.704 8.205-8.12 11.341-10.78 6.242-28.2 6.273-38.912.07-5.33-3.085-7.994-7.133-7.998-11.19v-5.054h55.03z"/>
            <g transform="translate(79.157 106.272)">
                <mask id="f" fill="#fff">
                    <use xlink:href="#e"/>
                </mask>
                <path fill="#40A0FF" d="M8.01 27.028C2.688 23.97.028 19.96.023 15.942c-.004-4.06 2.7-8.128 8.109-11.235 10.763-6.184 28.16-6.215 38.857-.07 5.321 3.057 7.982 7.066 7.987 11.086.004 4.059-2.7 8.128-8.109 11.235-10.764 6.183-28.16 6.214-38.857.07" mask="url(#f)"/>
            </g>
            <path fill="#1A82FF" d="M106.184 134.74c-6.695 0-12.93-1.49-17.56-4.195-4.062-2.374-6.3-5.34-6.305-8.351-.003-3.01 2.34-6.106 6.426-8.494 4.707-2.75 11.022-4.265 17.782-4.265 6.695 0 12.931 1.49 17.56 4.194 4.062 2.374 6.301 5.34 6.305 8.35.003 3.01-2.339 6.106-6.426 8.495-4.707 2.75-11.022 4.265-17.782 4.265"/>
            <path fill="#0F7CE8" d="M88.745 114.434c4.707-2.792 11.022-4.33 17.782-4.33 6.695 0 12.931 1.512 17.56 4.258 3.914 2.322 6.13 5.201 6.289 8.142.006-.112.016-.224.016-.335-.004-3.056-2.243-6.067-6.305-8.477-4.629-2.745-10.865-4.257-17.56-4.257-6.76 0-13.075 1.537-17.782 4.33-4.087 2.423-6.429 5.566-6.426 8.62 0 .112.01.223.016.335.161-2.948 2.473-5.95 6.41-8.286"/>
            <path fill="#FFF" d="M103.302 128.677l.017-3.153a13.589 13.589 0 0 1-1.93-.927c-3.432-1.987-3.859-4.114-1.142-5.687 1.134-.657 2.45-1.002 3.857-1.022l-.059 10.922c.7.112 1.405.186 2.111.218.297.014.59.017.883.016v.002l.115-.002c.086-.001.172 0 .258-.002v-.002c2.646-.058 5.083-.692 7.106-1.865 2.34-1.354 3.441-3.027 3.187-4.836-.239-1.702-1.7-3.41-4.116-4.808-1.605-.93-3.445-1.614-5.361-2.01l-.017 3.17c.612.244 1.223.542 1.832.894 1.58.915 2.533 1.842 2.834 2.756.354 1.071-.223 2.08-1.669 2.917-1.125.652-2.414.99-3.782 1.023l.06-10.9c-.728-.12-1.463-.2-2.198-.234-.147-.007-.293-.01-.439-.014h-.004a18.245 18.245 0 0 0-.503-.004h-.223v.003c-2.673.044-5.137.677-7.181 1.86-2.34 1.356-3.446 3.031-3.2 4.844.234 1.707 1.691 3.417 4.104 4.815 1.63.944 3.506 1.635 5.46 2.026"/>
            <path fill="#111D28" d="M53.63 175.69c-5.329-3.064-7.993-7.081-7.997-11.109-.005-4.067 2.703-8.144 8.12-11.257 10.778-6.196 28.2-6.227 38.911-.07 5.33 3.063 7.994 7.08 7.999 11.108.004 4.067-2.704 8.144-8.12 11.257-10.78 6.196-28.2 6.227-38.912.07" opacity=".2"/>
            <path fill="#1A82FF" d="M100.663 156.88v4.833c.004 4.097-2.704 8.205-8.12 11.341-10.78 6.242-28.2 6.273-38.912.07-5.33-3.085-7.994-7.133-7.998-11.19v-5.054h55.03z"/>
            <path fill="#40A0FF" d="M53.63 168.098c-5.329-3.063-7.993-7.08-7.997-11.108-.005-4.067 2.703-8.145 8.12-11.258 10.778-6.195 28.2-6.226 38.911-.07 5.33 3.063 7.994 7.081 7.999 11.108.004 4.068-2.704 8.145-8.12 11.258-10.78 6.196-28.2 6.227-38.912.07"/>
            <path fill="#1A82FF" d="M72.66 169.532c-6.695 0-12.931-1.49-17.56-4.194-4.062-2.374-6.301-5.34-6.305-8.351-.003-3.01 2.34-6.106 6.426-8.494 4.707-2.75 11.022-4.265 17.782-4.265 6.695 0 12.931 1.49 17.56 4.195 4.062 2.374 6.301 5.34 6.304 8.35.004 3.01-2.338 6.106-6.425 8.494-4.707 2.75-11.022 4.265-17.782 4.265"/>
            <path fill="#0F7CE8" d="M55.221 149.227c4.707-2.792 11.022-4.33 17.782-4.33 6.695 0 12.931 1.513 17.56 4.258 3.914 2.322 6.13 5.202 6.289 8.142.006-.112.015-.223.015-.335-.003-3.056-2.242-6.066-6.304-8.476-4.629-2.746-10.865-4.258-17.56-4.258-6.76 0-13.075 1.537-17.782 4.33-4.087 2.424-6.429 5.566-6.426 8.621 0 .111.01.223.016.334.161-2.948 2.473-5.95 6.41-8.286"/>
            <path fill="#FFF" d="M69.778 162.837l.017-3.152a13.589 13.589 0 0 1-1.93-.927c-3.432-1.988-3.859-4.114-1.142-5.688 1.134-.656 2.45-1.001 3.857-1.021l-.059 10.922c.7.111 1.405.185 2.111.218.297.013.59.017.883.016v.001l.115-.002.257-.001v-.003c2.647-.058 5.084-.692 7.107-1.864 2.339-1.355 3.44-3.027 3.187-4.836-.239-1.702-1.7-3.41-4.116-4.809-1.605-.93-3.445-1.613-5.361-2.01l-.017 3.17c.612.244 1.223.542 1.832.894 1.58.915 2.533 1.842 2.834 2.756.354 1.072-.223 2.08-1.669 2.918-1.125.652-2.414.99-3.782 1.023l.06-10.9a18.86 18.86 0 0 0-2.198-.235c-.147-.006-.293-.01-.439-.013h-.004a18.24 18.24 0 0 0-.503-.005h-.223v.004c-2.673.043-5.137.677-7.181 1.86-2.34 1.356-3.447 3.03-3.2 4.844.234 1.707 1.691 3.417 4.104 4.815 1.63.944 3.506 1.634 5.46 2.025"/>
            <path fill="#111D28" d="M57.426 168.73c-5.33-3.062-7.994-7.08-7.998-11.107-.005-4.068 2.703-8.145 8.12-11.258 10.778-6.196 28.2-6.227 38.912-.07 5.329 3.063 7.993 7.08 7.998 11.108.004 4.067-2.704 8.144-8.12 11.258-10.78 6.195-28.2 6.227-38.912.07" opacity=".2"/>
            <path fill="#1A82FF" d="M104.458 149.289v4.833c.005 4.097-2.704 8.205-8.12 11.341-10.779 6.242-28.2 6.273-38.912.07-5.33-3.085-7.994-7.133-7.998-11.19v-5.054h55.03z"/>
            <path fill="#40A0FF" d="M57.426 161.14c-5.33-3.064-7.994-7.081-7.998-11.109-.005-4.067 2.703-8.144 8.12-11.257 10.778-6.196 28.2-6.227 38.912-.07 5.329 3.063 7.993 7.08 7.998 11.108.004 4.067-2.704 8.144-8.12 11.257-10.78 6.196-28.2 6.227-38.912.07"/>
            <path fill="#1A82FF" d="M76.455 162.574c-6.695 0-12.93-1.49-17.56-4.195-4.062-2.374-6.3-5.34-6.305-8.35-.003-3.01 2.34-6.106 6.427-8.494 4.706-2.75 11.021-4.266 17.781-4.266 6.695 0 12.931 1.49 17.56 4.195 4.062 2.374 6.301 5.34 6.305 8.35.004 3.01-2.339 6.106-6.426 8.495-4.707 2.75-11.022 4.265-17.782 4.265"/>
            <path fill="#0F7CE8" d="M59.017 142.268c4.706-2.792 11.021-4.33 17.781-4.33 6.695 0 12.932 1.513 17.56 4.258 3.914 2.322 6.13 5.202 6.29 8.142.005-.111.015-.223.015-.335-.004-3.056-2.243-6.066-6.305-8.476-4.628-2.745-10.865-4.258-17.56-4.258-6.76 0-13.075 1.538-17.781 4.33-4.088 2.424-6.43 5.566-6.427 8.621 0 .112.01.223.016.334.161-2.948 2.473-5.95 6.41-8.286"/>
            <path fill="#FFF" d="M74.206 155.879l.017-3.153a13.589 13.589 0 0 1-1.93-.927c-3.432-1.988-3.859-4.114-1.142-5.687 1.133-.657 2.45-1.002 3.857-1.022l-.06 10.922c.7.112 1.406.186 2.112.218.297.014.59.017.882.016v.002l.115-.002c.086-.001.173 0 .258-.002v-.002c2.646-.059 5.083-.693 7.107-1.865 2.339-1.354 3.44-3.027 3.187-4.836-.239-1.702-1.7-3.41-4.116-4.808-1.605-.93-3.445-1.614-5.361-2.01l-.017 3.17c.612.244 1.223.542 1.831.894 1.58.915 2.533 1.842 2.835 2.755.354 1.072-.224 2.081-1.669 2.918-1.125.652-2.414.99-3.782 1.023l.059-10.9a18.86 18.86 0 0 0-2.197-.234c-.147-.007-.293-.01-.44-.014h-.003a18.24 18.24 0 0 0-.503-.004h-.223v.003c-2.674.043-5.138.677-7.182 1.86-2.34 1.356-3.446 3.03-3.199 4.844.233 1.707 1.69 3.417 4.104 4.815 1.63.944 3.506 1.634 5.46 2.026"/>
            <path fill="#111D28" d="M52.998 161.14c-5.33-3.064-7.993-7.081-7.998-11.109-.005-4.067 2.704-8.144 8.12-11.257 10.779-6.196 28.2-6.227 38.912-.07 5.33 3.063 7.993 7.08 7.998 11.108.005 4.067-2.704 8.144-8.12 11.257-10.779 6.196-28.2 6.227-38.912.07" opacity=".2"/>
            <path fill="#1A82FF" d="M100.03 142.33v4.833c.005 4.098-2.704 8.205-8.12 11.341-10.779 6.242-28.2 6.273-38.912.07-5.329-3.085-7.993-7.133-7.998-11.19v-5.054h55.03z"/>
            <path fill="#40A0FF" d="M52.998 153.548c-5.33-3.063-7.993-7.08-7.998-11.108-.005-4.067 2.704-8.144 8.12-11.258 10.779-6.195 28.2-6.226 38.912-.07 5.33 3.064 7.993 7.081 7.998 11.108.005 4.068-2.704 8.145-8.12 11.258-10.779 6.196-28.2 6.227-38.912.07"/>
            <path fill="#1A82FF" d="M72.028 154.982c-6.696 0-12.932-1.49-17.56-4.194-4.062-2.374-6.301-5.34-6.305-8.351-.004-3.01 2.339-6.105 6.426-8.494 4.707-2.75 11.021-4.265 17.782-4.265 6.694 0 12.93 1.49 17.56 4.195 4.062 2.374 6.3 5.34 6.304 8.35.004 3.01-2.338 6.106-6.426 8.494-4.706 2.75-11.022 4.265-17.781 4.265"/>
            <path fill="#0F7CE8" d="M54.589 134.677c4.707-2.792 11.021-4.33 17.782-4.33 6.694 0 12.93 1.513 17.56 4.258 3.913 2.322 6.129 5.202 6.288 8.142.006-.112.016-.223.016-.335-.003-3.056-2.242-6.066-6.305-8.476-4.628-2.746-10.865-4.258-17.56-4.258-6.76 0-13.074 1.537-17.781 4.33-4.087 2.424-6.43 5.566-6.426 8.621 0 .112.01.223.015.334.162-2.948 2.473-5.95 6.41-8.286"/>
            <path fill="#FFF" d="M69.146 148.287l.017-3.152a13.589 13.589 0 0 1-1.93-.927c-3.432-1.988-3.86-4.114-1.142-5.688 1.133-.656 2.45-1.001 3.857-1.021l-.06 10.922c.7.112 1.406.186 2.112.218.297.013.59.017.882.016v.001l.115-.001c.086-.001.172 0 .258-.002v-.003c2.646-.058 5.083-.692 7.107-1.864 2.338-1.354 3.44-3.027 3.187-4.836-.24-1.702-1.701-3.41-4.116-4.809-1.605-.93-3.446-1.613-5.362-2.01l-.017 3.17c.612.244 1.224.542 1.832.895 1.58.914 2.533 1.841 2.835 2.755.353 1.072-.224 2.081-1.67 2.918-1.124.652-2.414.99-3.781 1.023l.059-10.9a18.86 18.86 0 0 0-2.198-.234c-.147-.007-.293-.01-.438-.014h-.005a18.24 18.24 0 0 0-.503-.005h-.223v.004c-2.673.043-5.137.677-7.18 1.86-2.34 1.356-3.447 3.03-3.2 4.844.233 1.707 1.69 3.417 4.104 4.815 1.63.944 3.506 1.634 5.46 2.025"/>
            <path fill="#111D28" d="M58.69 154.813c-5.328-3.063-7.993-7.08-7.997-11.108-.005-4.067 2.703-8.144 8.12-11.257 10.779-6.196 28.2-6.227 38.912-.07 5.329 3.063 7.993 7.08 7.998 11.108.005 4.067-2.704 8.144-8.12 11.257-10.78 6.196-28.2 6.227-38.912.07" opacity=".2"/>
            <path fill="#1A82FF" d="M105.723 136.004v4.833c.005 4.098-2.704 8.205-8.12 11.341-10.779 6.242-28.2 6.273-38.912.07-5.33-3.085-7.994-7.133-7.998-11.19v-5.054h55.03z"/>
            <path fill="#40A0FF" d="M58.69 147.222c-5.328-3.063-7.993-7.08-7.997-11.108-.005-4.067 2.703-8.144 8.12-11.258 10.779-6.195 28.2-6.226 38.912-.07 5.329 3.064 7.993 7.081 7.998 11.108.005 4.068-2.704 8.145-8.12 11.258-10.78 6.196-28.2 6.227-38.912.07"/>
            <path fill="#1A82FF" d="M77.72 148.656c-6.695 0-12.93-1.49-17.56-4.194-4.062-2.374-6.3-5.34-6.305-8.351-.003-3.01 2.34-6.105 6.427-8.494 4.706-2.75 11.021-4.265 17.781-4.265 6.695 0 12.932 1.49 17.56 4.195 4.062 2.374 6.302 5.34 6.305 8.35.004 3.01-2.339 6.106-6.426 8.494-4.707 2.75-11.022 4.265-17.782 4.265"/>
            <path fill="#0F7CE8" d="M60.282 128.351c4.706-2.792 11.021-4.33 17.781-4.33 6.695 0 12.932 1.513 17.56 4.258 3.914 2.322 6.13 5.202 6.29 8.142.005-.112.015-.223.015-.335-.003-3.056-2.243-6.066-6.305-8.476-4.628-2.746-10.865-4.258-17.56-4.258-6.76 0-13.075 1.537-17.781 4.33-4.087 2.424-6.43 5.566-6.427 8.621 0 .112.01.223.016.334.161-2.948 2.473-5.95 6.41-8.286"/>
            <path fill="#FFF" d="M74.839 141.961l.017-3.152a13.589 13.589 0 0 1-1.93-.927c-3.433-1.988-3.86-4.114-1.142-5.688 1.133-.656 2.449-1.001 3.856-1.021l-.059 10.922c.7.111 1.405.186 2.112.218.296.013.59.017.882.016v.001l.115-.001c.086-.001.172 0 .258-.002v-.003c2.646-.058 5.083-.692 7.106-1.864 2.34-1.355 3.441-3.027 3.187-4.836-.238-1.702-1.7-3.41-4.116-4.809-1.604-.93-3.445-1.613-5.36-2.01l-.018 3.17c.612.244 1.224.542 1.832.895 1.58.914 2.533 1.841 2.834 2.755.354 1.072-.223 2.08-1.668 2.918-1.126.652-2.415.99-3.783 1.023l.06-10.9a18.86 18.86 0 0 0-2.637-.248h-.004a18.24 18.24 0 0 0-.503-.005h-.223v.004c-2.673.043-5.137.677-7.181 1.86-2.34 1.356-3.446 3.03-3.2 4.844.234 1.707 1.691 3.417 4.105 4.815 1.63.944 3.506 1.634 5.46 2.025"/>
            <path fill="#111D28" d="M53.63 146.59c-5.329-3.064-7.993-7.081-7.997-11.108-.005-4.068 2.703-8.145 8.12-11.258 10.778-6.196 28.2-6.227 38.911-.07 5.33 3.063 7.994 7.08 7.999 11.108.004 4.067-2.704 8.144-8.12 11.258-10.78 6.195-28.2 6.226-38.912.07" opacity=".2"/>
            <path fill="#1A82FF" d="M100.663 127.78v4.833c.004 4.098-2.704 8.205-8.12 11.341-10.78 6.242-28.2 6.274-38.912.071-5.33-3.086-7.994-7.133-7.998-11.19v-5.055h55.03z"/>
            <path fill="#40A0FF" d="M53.63 138.998c-5.329-3.063-7.993-7.08-7.997-11.108-.005-4.067 2.703-8.144 8.12-11.257 10.778-6.196 28.2-6.227 38.911-.07 5.33 3.063 7.994 7.08 7.999 11.108.004 4.067-2.704 8.144-8.12 11.257-10.78 6.196-28.2 6.227-38.912.07"/>
            <path fill="#1A82FF" d="M72.66 141.065c-6.695 0-12.931-1.49-17.56-4.194-4.062-2.374-6.301-5.34-6.305-8.351-.003-3.01 2.34-6.106 6.426-8.494 4.707-2.75 11.022-4.265 17.782-4.265 6.695 0 12.931 1.49 17.56 4.195 4.062 2.374 6.301 5.34 6.304 8.35.004 3.01-2.338 6.105-6.425 8.494-4.707 2.75-11.022 4.265-17.782 4.265"/>
            <path fill="#0F7CE8" d="M55.221 120.76c4.707-2.792 11.022-4.33 17.782-4.33 6.695 0 12.931 1.513 17.56 4.258 3.914 2.322 6.13 5.201 6.289 8.142.006-.112.015-.224.015-.335-.003-3.056-2.242-6.066-6.304-8.477-4.629-2.745-10.865-4.257-17.56-4.257-6.76 0-13.075 1.537-17.782 4.33-4.087 2.423-6.429 5.566-6.426 8.62 0 .112.01.223.016.335.161-2.948 2.473-5.95 6.41-8.286"/>
            <path fill="#FFF" d="M69.778 134.37l.017-3.152a13.589 13.589 0 0 1-1.93-.927c-3.432-1.988-3.859-4.114-1.142-5.688 1.134-.656 2.45-1.001 3.857-1.022l-.059 10.923c.7.111 1.405.185 2.111.218.297.013.59.017.883.016v.001l.115-.002.257-.001v-.003c2.647-.058 5.084-.692 7.107-1.864 2.339-1.355 3.44-3.027 3.187-4.837-.239-1.701-1.7-3.409-4.116-4.808-1.605-.93-3.445-1.613-5.361-2.01l-.017 3.17c.612.244 1.223.542 1.832.894 1.58.915 2.533 1.842 2.834 2.756.354 1.072-.223 2.08-1.669 2.918-1.125.652-2.414.99-3.782 1.022l.06-10.9a18.86 18.86 0 0 0-2.198-.234c-.147-.007-.293-.01-.439-.013h-.004a18.24 18.24 0 0 0-.503-.005h-.223v.003c-2.673.044-5.137.677-7.181 1.861-2.34 1.356-3.447 3.03-3.2 4.843.234 1.708 1.691 3.418 4.104 4.816 1.63.944 3.506 1.634 5.46 2.025"/>
            <g transform="translate(94.97 161.308)">
                <mask id="h" fill="#fff">
                    <use xlink:href="#g"/>
                </mask>
                <path fill="#111D28" d="M8.026 26.976C2.705 23.926.044 19.926.04 15.917.035 11.867 2.74 7.81 8.148 4.71c10.764-6.168 28.16-6.199 38.857-.07 5.321 3.05 7.982 7.05 7.987 11.06.004 4.049-2.7 8.108-8.109 11.207-10.763 6.169-28.16 6.2-38.857.07" mask="url(#h)" opacity=".2"/>
            </g>
            <g transform="translate(94.97 169.532)">
                <mask id="j" fill="#fff">
                    <use xlink:href="#i"/>
                </mask>
                <path fill="#1A82FF" d="M54.992.02v4.822c.004 4.089-2.7 8.187-8.109 11.317-10.763 6.228-28.16 6.26-38.857.07C2.705 13.15.044 9.112.04 5.063V.02h54.953z" mask="url(#j)"/>
            </g>
            <g transform="translate(94.97 153.717)">
                <mask id="l" fill="#fff">
                    <use xlink:href="#k"/>
                </mask>
                <path fill="#40A0FF" d="M8.026 27.024C2.705 23.967.044 19.958.04 15.938.035 11.88 2.74 7.81 8.148 4.703c10.764-6.183 28.16-6.214 38.857-.07 5.321 3.057 7.982 7.067 7.987 11.086.004 4.06-2.7 8.129-8.109 11.236-10.763 6.183-28.16 6.214-38.857.07" mask="url(#l)"/>
            </g>
            <path fill="#1A82FF" d="M122.63 182.184c-6.695 0-12.931-1.49-17.56-4.194-4.062-2.374-6.301-5.34-6.305-8.351-.003-3.01 2.34-6.105 6.426-8.494 4.707-2.75 11.022-4.265 17.782-4.265 6.695 0 12.931 1.49 17.56 4.195 4.062 2.374 6.301 5.34 6.304 8.35.004 3.01-2.338 6.106-6.425 8.494-4.707 2.75-11.022 4.265-17.782 4.265"/>
            <path fill="#0F7CE8" d="M105.191 161.879c4.707-2.792 11.022-4.33 17.782-4.33 6.695 0 12.931 1.513 17.56 4.258 3.914 2.322 6.129 5.202 6.289 8.142.006-.112.015-.223.015-.335-.003-3.056-2.242-6.066-6.304-8.476-4.629-2.746-10.865-4.258-17.56-4.258-6.76 0-13.075 1.538-17.782 4.33-4.087 2.424-6.43 5.566-6.426 8.621 0 .112.01.223.016.334.161-2.948 2.473-5.95 6.41-8.286"/>
            <path fill="#FFF" d="M119.748 175.49l.017-3.153a13.589 13.589 0 0 1-1.93-.927c-3.432-1.988-3.859-4.114-1.142-5.688 1.133-.656 2.45-1.001 3.857-1.021l-.059 10.922c.7.111 1.405.186 2.111.218.297.013.59.017.882.016v.001l.115-.002.258-.001v-.003c2.646-.058 5.083-.692 7.107-1.864 2.339-1.355 3.44-3.027 3.187-4.836-.239-1.702-1.7-3.41-4.116-4.809-1.605-.93-3.445-1.613-5.361-2.01l-.017 3.17c.612.244 1.223.542 1.831.895 1.58.914 2.534 1.841 2.835 2.755.354 1.072-.224 2.08-1.669 2.918-1.125.652-2.414.99-3.782 1.023l.06-10.9c-.728-.121-1.464-.2-2.198-.234-.147-.007-.293-.01-.439-.014h-.004a18.248 18.248 0 0 0-.503-.005h-.223v.004c-2.674.043-5.138.677-7.181 1.86-2.34 1.356-3.447 3.03-3.2 4.844.233 1.707 1.69 3.417 4.104 4.815 1.63.944 3.506 1.634 5.46 2.025"/>
        </g>
    </g>
</svg>
