<svg xmlns="http://www.w3.org/2000/svg" xmlns:xlink="http://www.w3.org/1999/xlink" width="88" height="149" viewBox="0 0 88 149">
    <defs>
        <path id="a" d="M.064.011h36.632v33.58H.064z"/>
        <path id="c" d="M.157.112h27.548v15.905H.157z"/>
        <path id="e" d="M.165.163h24.68v33.07H.165z"/>
    </defs>
    <g fill="none" fill-rule="evenodd">
        <g transform="translate(22.092 .173)">
            <mask id="b" fill="#fff">
                <use xlink:href="#a"/>
            </mask>
            <path fill="#FFF" d="M18.38.011C8.265.011.064 6.672.064 14.891c0 4.78 2.773 9.032 7.082 11.754 1.325 3.307-1.653 6.117-4.796 6.873 3.466.298 9.633-.185 14.308-3.813 10.83.821 20.038-6.1 20.038-14.813 0-8.22-8.2-14.88-18.316-14.88" mask="url(#b)"/>
        </g>
        <path fill="#FFF" d="M41.802 31.14c0 8.712 9.209 15.634 20.039 14.813 4.675 3.628 10.841 4.11 14.308 3.813-3.143-.756-6.121-3.566-4.796-6.873 4.309-2.722 7.082-6.974 7.082-11.753 0-8.22-8.201-14.88-18.316-14.88-10.116 0-18.317 6.66-18.317 14.88"/>
        <path fill="#000" d="M25.017 103.364c-5.513-3.183-14.48-3.166-20.029.037-5.548 3.203-5.576 8.38-.062 11.563 5.513 3.183 14.48 3.167 20.028-.036 5.549-3.203 5.577-8.38.063-11.564" opacity=".5"/>
        <path fill="#C2CBD3" d="M19.865 71.323c.356.274.87.26 1.282.08.412-.179.745-.496 1.07-.808.1-.097.206-.203.231-.34.026-.138-.036-.275-.1-.4a6.554 6.554 0 0 0-1.571-1.992c.361.307.778.549 1.224.71.225.08.493.136.69 0 .204-.143.238-.445.147-.677-.09-.231-.275-.41-.45-.587a14.387 14.387 0 0 1-3.802-6.905l-1.472-3.619-2.9 7.485 5.651 7.053M16.853 103.538c-.463 0-.915-.437-1.356-.578-.153-.049-.311-.103-.423-.218a.238.238 0 0 1-.06-.092.314.314 0 0 1-.006-.116l.06-.757c.004-.055.013-.118.06-.147.03-.019.067-.018.103-.017l1.583.055c.345.012.77-.33 1.022-.043.174.197.253 1.224.167 1.474-.135.392-.774.44-1.15.44M7.04 108.114c-.13-.07-.261-.484-.272-.631a.513.513 0 0 1 .049-.217l.246-.642a.146.146 0 0 1 .042-.067c.031-.024.075-.019.114-.011.537.099 1.075.119 1.604.207.388.065.693-.296.762.1.027.16.028 1.397-.078 1.53-.17.214-.473-.203-.732-.227-.578-.056-1.214.244-1.736-.042"/>
        <path fill="#B2B2B2" d="M19.218 65.065c-.098-.42-.12-.853-.142-1.284v-.017c-.138-.265-.266-2.78-.387-3.053-.363-.822-.652-.928-.851-1.804l-1.472-2.122-2.9 7.485 5.65 7.052c.356.275.87.26 1.282.081.023-.01.043-.023.065-.034-.275-1.712-.622-3.62-1.135-5.04l-.11-1.264z"/>
        <path fill="#455D75" d="M12.946 82.247l-1.713 8.252c-.296 1.427-.593 2.857-.728 4.309-.135 1.458-.106 2.927-.076 4.392l.121 5.994c.01.458.009.951-.254 1.328-.407.583-1.238.63-1.95.619-.72-.011-1.56-.084-1.954-.687-.186-.286-.23-.639-.269-.978-.354-3.143-.575-6.3-.662-9.462-.038-1.368-.05-2.741.127-4.098.215-1.644.707-3.25.82-4.905.194-2.87-.76-5.673-1.375-8.483-.615-2.81-1-5.772.48-8.239.472.5 1.625.758 1.987.833 4.03.831 8.842-1.341 11.08-4.794.686 1.903 1.076 4.678 1.392 6.687.361 2.295.726 4.633.398 6.933-.713 4.998-1.914 10.033-2.105 15.078-.052 1.382-.077 2.81.436 4.093.138.347.317.69.333 1.063.032.726-.587 1.352-1.28 1.576-.691.223-1.44.138-2.163.05-.295-.037-.62-.087-.813-.313-.153-.178-.189-.425-.218-.658-.457-3.583-.914-7.197-.631-10.799.214-2.723.739-5.824-.95-7.923l-.033.132z"/>
        <path fill="#13A36B" d="M19.194 49.516a7.781 7.781 0 0 0 .055-5.713c-.173-.445-.4-.89-.774-1.186a1.676 1.676 0 0 0-1.794-.154l-2.207 1.173 3.057 7.735 1.663-1.855"/>
        <path fill="#1CBA81" d="M5.856 58.812c.355.711.707 2.007.824 2.793.136.918.103 1.852.069 2.78-.058 1.58-.117 3.171-.478 4.71 2.08.337 4.658.233 6.725-.17 2.067-.403 4.533-1.976 5.474-3.86-.099-.42-.12-.853-.142-1.284l-.162-3.2c-.045-.89-.088-1.8.156-2.656.492-1.728 2.1-3.07 2.22-4.863.12-1.763-1.222-3.231-2.081-4.775-.369-.662-.655-1.365-.941-2.066l-.567-1.39-.982-2.567-7.059 2.732c-.921.95-3.084 1.794-4.103 2.637l1.047 11.18z"/>
        <path fill="#13A36B" d="M8.517 69.096c.36-1.54.42-3.131.477-4.711.034-.928.068-1.862-.069-2.78-.117-.786-.469-2.082-.824-2.793l-.324-3.464-2.333-.934.412 4.398c.355.711.707 2.007.824 2.793.136.918.103 1.852.069 2.78-.058 1.58-.117 3.171-.478 4.71 1.181.191 2.522.236 3.84.169a15.68 15.68 0 0 1-1.594-.168"/>
        <path fill="#1CBA81" d="M4.81 47.633c-1.154.953-1.943 2.288-2.463 3.69-.52 1.403-.792 2.884-1.06 4.356-.073.395-.144.806-.037 1.192.132.475.516.84.924 1.115.885.596 1.969.89 3.033.821.305-.02.618-.072.873-.24.28-.183.457-.484.607-.783a9.09 9.09 0 0 0 .938-3.273s.222-1.854.3-3.514c.187-3.99-3.116-3.364-3.116-3.364"/>
        <path fill="#C2CBD3" d="M14.463 44.217c-.25.195-.581 1.66-.546 1.976.09.8.25 1.592.478 2.365.076.259.16.522.145.79-.016.27-.157.55-.409.647-.248.094-.525-.011-.762-.132-1.047-.53-1.91-1.357-2.755-2.17l-1.669-1.607a.97.97 0 0 1-.235-.295c-.14-.32.088-.668.27-.966.374-.613.805-2.448.525-3.353l.81-.655 3.805 1.622.343 1.778z"/>
        <path fill="#B2B2B2" d="M10.316 40.817l-.811.655c.137.445.103 1.113-.011 1.75l1.186 1.226c.626.766 1.478 1.372 2.444 1.583.259.057.526.08.791.073.015-.436.316-1.707.548-1.887l-.343-1.778-3.804-1.622z"/>
        <path fill="#C2CBD3" d="M10.68 42.577c.626.766 1.478 1.372 2.444 1.583.967.21 2.047-.012 2.77-.688.72-.675 1.011-1.696 1.095-2.68.083-.984-.01-1.978.096-2.96.033-.313.088-.629.224-.913l.554-.842.156-1.092-.718-1.434-2.994.031-6.019 2.09-.093 3.555.842 1.653 1.643 1.697z"/>
        <path fill="#000" d="M14.206 38.174l-.534.05s.099.389-.212.351c-.311-.037-.458-.377-.458-.377s-.787.033-.98.13c-.194.099.6-.546 1.105-.509.505.037 1.079.355 1.079.355M17.495 37.51s-.349.175-.475.263c-.125.088-.163.302-.358.303-.194 0-.505-.23-.505-.23s.726-.538 1.338-.337M15.631 42.198s-1.282.092-1.63.346c0 0 .66.22.971.134.31-.086.659-.48.659-.48M15.831 41.057l-.023-.245c.167-.015.275-.07.33-.17.122-.221-.025-.637-.132-.848-.143-.283-.231-1.122-.24-1.217l.244-.024c.025.244.112.925.216 1.13.08.16.329.712.127 1.078-.096.173-.272.273-.522.296M16.132 37.165l-.152-.193c.136-.107 1.342-1.045 1.774-1.138l.052.24c-.32.069-1.317.811-1.674 1.091M14.596 37.719c-.016-.008-1.518-.752-2.331-.833l.024-.244c.858.085 2.353.825 2.416.857l-.11.22z"/>
        <path fill="#0C2033" d="M14.294 104.264c.038.572.263 1.16.721 1.505.622.47 1.485.39 2.238.592.785.21 1.444.729 2.105 1.202s1.388.927 2.2.975c.81.047 1.71-.457 1.826-1.261.085-.584-.253-1.157-.691-1.552-.439-.395-.976-.66-1.459-1a5.76 5.76 0 0 1-1.676-1.83c-.088-.153-.175-.316-.326-.407-.242-.145-.561-.05-.79.115-.23.165-.412.39-.65.542-.45.286-1.038.26-1.546.097-.385-.123-1.112-.691-1.523-.538-.503.187-.457 1.131-.429 1.56M9.472 108.085c.225-.093.448-.222.69-.212.504.02.77.577 1.04 1.001.727 1.143 2.165 1.798 2.583 3.086.113.35.135.748-.038 1.073a1.25 1.25 0 0 1-.501.487c-.701.393-1.569.238-2.351.059-1.008-.23-2.107-.547-2.668-1.415-.334-.517-.444-1.189-.91-1.59-.308-.266-.736-.377-1.008-.68-.426-.475-.561-2.075.189-2.24.36-.08.937.366 1.267.468.56.173 1.157.19 1.707-.037"/>
        <path fill="#192A32" d="M6.616 33.05c-.215-.081-.465.062-.577.264-.112.201-.118.443-.112.674.035 1.338.404 2.642.73 3.941.325 1.299.61 2.636.475 3.968-.134 1.332-.754 2.678-1.89 3.386-.66.412-1.443.583-2.217.652-1.04.094-2.145.001-3.025-.562a18.632 18.632 0 0 0 2.578-1.702c.515-.404 1.013-.841 1.393-1.374.76-1.064.99-2.422.99-3.73 0-1.307-.206-2.607-.222-3.914-.01-.903.112-1.898.778-2.508.552-.507 1.354-.627 2.104-.634l.106 1.073-1.11.466z"/>
        <path fill="#6E3BEA" d="M6.686 34.248c-.2-.231-.248-.566-.188-.866.06-.3.213-.572.377-.83.484-.765 1.12-1.491 1.977-1.782.487-.166 1.114-.136 1.405.287.06.086.101.196.063.292a.342.342 0 0 1-.102.128c-.253.215-.584.31-.878.463a2.432 2.432 0 0 0-1.226 1.559c-.144.588-.761 1.518-1.428.749"/>
        <path fill="#192A32" d="M8.917 38.689c-.148-.54-.063-1.204.396-1.527.909-.243.583.774.875 1.16.098.13.217.271.38.278.215.01.361-.23.38-.445.017-.216-.041-.435 0-.647.107-.546.793-.756 1.348-.707.555.05 1.124.245 1.655.075.75-.24 1.09-1.08 1.465-1.773.375-.693 1.302-.98 1.76-.835.314.1.844.8.623 1.402-.141.381-.383.848-.106 1.145.585-.226.747-.984.687-1.608-.21-2.152-2.087-3.918-4.202-4.372a5.456 5.456 0 0 0-1.925-.08c-.942.137-1.819.547-2.68.951-.437.206-1.598 1.344-1.742 1.656-.66 1.432-1.157 3.037-.804 4.573.207.897 1.24 3.315 2.27 3.541.55.121-.215-2.188-.38-2.787"/>
        <path fill="#2E3F53" d="M14.491 74.804c-.48 2.317-1.179 4.82-1.66 7.137 1.867 2.098 1.318 5.297 1.098 8.097-.283 3.602.174 7.216.63 10.8.03.232.066.479.219.657l1.193.336s-.686-5.302-.499-8.17c.187-2.87.624-9.544-.25-11.29-.873-1.747-.73-7.567-.73-7.567"/>
        <path fill="#192A32" d="M5.513 70.289c.473.5 1.625.758 1.988.833 4.03.831 8.841-1.341 11.079-4.794l-.11-1.263c-.941 1.884-3.407 3.456-5.474 3.86-2.067.403-4.646.507-6.725.17l-.758 1.194z"/>
        <path fill="#C2CBD3" d="M1.62 58.037a30.799 30.799 0 0 0-.995 6.135c1.052 1.283 1.07 4.373 2.394 7.016.187.372.408.761.365 1.176-.034.337-.06.769-.172 1.089-.258.734.325 1.762.755 2.09.344.263 1.108.553 1.864.372.348-.083.752-.627.768-1.306.016-.663-.135-.99-.46-1.568.291.304.782.874 1.055.553.34-.435-.344-.954-.73-1.388-.951-1.066-1.492-2.447-1.762-3.85-.27-1.402.575-4.655-.421-5.68a5.327 5.327 0 0 0 1.108-3.426l-.063-.422s-1.333.015-2.105-.289-1.474-.865-1.474-.865l-.126.363z"/>
        <path fill="#F0F4F5" d="M66.156 122.412l2.564-1.48c.614-.347.993-1.095.993-2.16l.02.013V60.293c0-2.128-1.516-4.745-3.392-5.828l-20.63-11.91c-.955-.552-1.817-.598-2.433-.23l-2.564 1.481 25.442 78.606z"/>
        <path fill="#0E2032" d="M69.985 124.597l-2.664 1.538c-.567.327-1.557.286-2.21-.092L39.36 111.176c-.655-.378-.726-.949-.159-1.276l2.664-1.538c.567-.327 1.557-.286 2.21.091l25.751 14.867c.654.378.726.95.159 1.277"/>
        <path fill="#FFF" d="M67.149 120.253c0 1.064-.38 1.812-.993 2.16-.614.346-1.462.292-2.4-.25l-20.609-11.898c-1.875-1.083-3.392-3.7-3.392-5.828V45.945c0-1.044.365-1.784.959-2.14.616-.367 1.478-.321 2.433.23l20.63 11.91c1.875 1.084 3.393 3.7 3.393 5.828v58.492l-.021-.012z"/>
        <path fill="#1A82FF" d="M41.651 51.852l23.58 13.614v48.143l-23.58-13.614z"/>
        <path fill="#FFF" d="M43.194 57.045l20.494 11.833v8.24L44.533 66.06l-1.339 1.068z"/>
        <path fill="#192A32" d="M44.256 59.675L62.54 70.23v.54l-18.284-10.57zM44.256 61.516L62.54 72.072v.54l-18.284-10.57zM44.256 63.357l7.151 4.129v.54l-7.151-4.143z"/>
        <path fill="#FFF" d="M43.194 82.82l20.494 11.832v8.24L44.533 91.834l-1.339 1.068zM43.194 95.89l20.494 11.833v3.27L43.194 99.161z"/>
        <path fill="#192A32" d="M44.256 85.449L62.54 96.005v.541l-18.284-10.57zM44.256 87.29L62.54 97.846v.541l-18.284-10.57zM44.256 89.13l7.151 4.13v.54l-7.151-4.143z"/>
        <path fill="#FFF" d="M43.194 69.932l20.494 11.833v9.713l-1.719-2.465-18.775-10.84z"/>
        <path fill="#192A32" d="M44.256 72.562L62.54 83.118v.541l-18.284-10.57zM44.256 74.403L62.54 84.959v.541L44.256 74.93zM44.256 76.244l7.151 4.129v.54l-7.151-4.143zM55.98 57.635c0 .145-.084.217-.21.144l-4.236-2.446a.512.512 0 0 1-.21-.387v-.629c0-.145.084-.217.21-.144l4.236 2.445c.105.061.21.243.21.388v.629zM53.662 52.258c.35.202.633.69.633 1.09 0 .401-.284.562-.633.361-.349-.202-.632-.69-.632-1.09 0-.4.283-.562.632-.36M53.452 108.96c1.163.672 2.107 2.3 2.107 3.635s-.944 1.873-2.107 1.201c-1.164-.672-2.108-2.299-2.108-3.635 0-1.335.944-1.873 2.108-1.2M69.185 75.403c0 .382-.27.848-.603 1.04-.333.193-.603.039-.603-.343v-4.45c0-.381.27-.847.603-1.04.333-.192.603-.038.603.344v4.45z"/>
        <g transform="translate(59.649 132.541)">
            <mask id="d" fill="#fff">
                <use xlink:href="#c"/>
            </mask>
            <path fill="#000" d="M23.701 13.705c5.363-3.096 5.335-8.131-.06-11.246C18.245-.657 9.523-.673 4.16 2.423s-5.335 8.132.06 11.247c5.397 3.115 14.118 3.131 19.48.035" mask="url(#d)" opacity=".5"/>
        </g>
        <path fill="#C2CBD3" d="M87.392 86.77v20.074a3.254 3.254 0 0 1-3.254 3.253h-1.392V86.568l4.646.201z"/>
        <g transform="translate(63.146 77.127)">
            <mask id="f" fill="#fff">
                <use xlink:href="#e"/>
            </mask>
            <path fill="#455D75" d="M3.94 21.937c-1.8.042-3.68-.435-3.68-1.43 0 0-.428-6.188.533-11.203.96-5.014 8.214-7.307 8.214-7.307l.264-.027a3.343 3.343 0 0 0 6.653-.471l-.022-.597 2.973-.719s6.881-.853 5.868 8.588c0 .848-1.363 1.32-2.879 1.415h-.073v17.272c0 4.352-8.905 6.245-16.65 5.678a1.592 1.592 0 0 1-1.228-1.55v-9.359l.026-.29z" mask="url(#f)"/>
        </g>
        <path fill="#0F3E5E" d="M69.732 138.305c-1.376.232-2.779.265-4.163.1a1.92 1.92 0 0 0-1.608 3.262c.06.06.129.138.194.188a11.934 11.934 0 0 0 9.526 2.794l2.43-2.537.033-.866-6.412-2.94z"/>
        <path fill="#0C2033" d="M76.176 141.535s.24.673 0 1.49-.994 1.298-2.495 1.624c-2.55.554-6.83-.454-9.526-2.794-.065-.05-.134-.129-.194-.188a1.915 1.915 0 0 1-.372-2.174c.092.195.211.38.372.542.06.06.129.138.194.188 2.697 2.34 6.966 3.284 9.526 2.794 2.559-.489 2.495-1.482 2.495-1.482"/>
        <path fill="#0F3E5E" d="M77.136 135.613c-1.376.232-2.78.265-4.163.1a1.92 1.92 0 0 0-1.608 3.262c.06.06.128.138.193.188a11.933 11.933 0 0 0 9.526 2.794l2.431-2.538.032-.865-6.411-2.941z"/>
        <path fill="#0C2033" d="M83.58 138.842s.24.674 0 1.49c-.241.818-.994 1.299-2.496 1.625-2.549.553-6.829-.454-9.526-2.794-.065-.05-.134-.129-.193-.188a1.915 1.915 0 0 1-.373-2.174c.092.195.212.38.373.542.06.06.128.138.193.188 2.697 2.34 6.967 3.283 9.526 2.794 2.56-.489 2.495-1.483 2.495-1.483"/>
        <path fill="#C2CBD3" d="M78.96 70.157v8.469a3.343 3.343 0 1 1-6.686 0v-6.523"/>
        <path fill="#C2CBD3" d="M72.416 77.488a4.339 4.339 0 0 1-4.338-4.339v-5.76a6.44 6.44 0 0 1 12.88 0l-.007.266c0 2.195-.607 4.248-1.661 6.002a1.544 1.544 0 0 1-1.206.577s-3.477 3.254-5.668 3.254"/>
        <path fill="#2E3F53" d="M84.938 85.667v1.646h.073a7.956 7.956 0 0 0 1.003-.125l-1.076-1.521z"/>
        <path fill="#1CBA81" d="M76.837 139.428c2.6.857 7.478.368 7.478-1.468v-27.662l.004-3.846c-2.146 3.018-9.502 4.288-16.032 3.81a1.583 1.583 0 0 1-.499-.212l-.008 3.846v26.89c0 2.505 9.068 2.505 9.068 0v-25.39"/>
        <path fill="#13A36B" d="M67.78 110.05v30.737c0 .83.996 1.384 2.328 1.664v-31.845l-2.328-.556zM76.837 115.99v23.438c.65.215 1.443.345 2.266.39v-25.366l-2.266 1.538z"/>
        <path fill="#2E3F53" d="M70.326 91.872v5.761c0 .91-1.572 1.387-3.217 1.43l-.05.675v8.975c0 .754.524 1.385 1.228 1.55 1.32.096 2.673.121 4.01.075v-4.828l-1.971-13.638z"/>
        <path fill="#C2CBD3" d="M64.06 115.141c0-1.387.903-1.843.903-6.413v-9.832l4.143-.276v17.7c0 1.994-.847 3.61-2.84 3.61-.913 0-1.654-.74-1.654-1.654 0 0-.551-1.748-.551-3.135M68.009 69.344s-.34.89-.552 1.188c-.212.297-.467.891.127.976l.594.17"/>
        <path fill="#192A32" d="M67.867 66.118c.906.906 3.056.906 3.848 1.585.792.679-.792 2.037-1.132 2.603-.34.565.566 1.018 1.019.34.453-.68 1.924-2.604 2.83-1.698.904.905-.793 3.734-.793 4.3 0 .566-.34 2.377 1.018 2.264 1.359-.114 3.961-.227 4.414-1.02.453-.791 2.15-4.639 2.49-5.997.34-1.358.113-6.536-3.395-7.696-.649-.214-1.594-.384-2.548-.5-.264-.032.15-1.418-.11-1.442-.154-.014-.985 1.331-1.133 1.32a18.822 18.822 0 0 0-1.358-.057c-.47 0-1.66-.923-1.66-.923s.444 1.184.02 1.323c-.377.124-1.982-.343-1.982-.343s.94.73.68.962c-.696.618-1.724 1.794-1.956 2.48-.448 1.32-.252 2.5-.252 2.5"/>
        <path fill="#000" d="M67.924 72.484s.849.34 1.188.68c.34.339-1.211.016-1.211.016l.023-.696zM68.178 68.198s.383-.085.85.127l.01.005c.458.212.583.504.583.504s-.495-.212-.551-.24c-.057-.028-.029.212-.213.17-.183-.043-.127-.269-.254-.312-.127-.042-.425-.254-.425-.254"/>
        <path fill="#DCE1E5" d="M67.901 67.185c.362.065 1.381.122 2.343.914"/>
        <path fill="#000" d="M70.136 68.23c-.807-.665-1.647-.787-2.098-.852a5.15 5.15 0 0 1-.167-.026l.06-.334a4.6 4.6 0 0 0 .156.024c.45.065 1.384.2 2.265.926l-.216.262zM33.912 16.095c.098-.077.147-.203.147-.378 0-.342-.199-.514-.595-.514h-1.019v1.008h1.019c.201 0 .35-.038.448-.116zm-1.467-2.445h.867c.202 0 .352-.04.449-.12.097-.081.146-.206.146-.374 0-.174-.049-.304-.146-.388-.097-.084-.247-.126-.449-.126h-.867v1.008zm3.544 1.316c.239.313.358.674.358 1.084 0 .625-.206 1.108-.62 1.447-.413.34-1.006.509-1.78.509h-3.74v-7.138h3.64c.726 0 1.297.157 1.714.473.417.317.625.777.625 1.382 0 .417-.11.768-.328 1.053-.218.286-.509.476-.872.57.43.1.765.308 1.003.62zM39.291 10.868v4.022c0 .33.073.59.217.782.145.191.378.287.701.287.323 0 .561-.096.716-.287.154-.192.232-.452.232-.782v-4.022h2.228v4.022c0 .68-.141 1.26-.424 1.74a2.71 2.71 0 0 1-1.159 1.084 3.664 3.664 0 0 1-1.643.363c-.605 0-1.142-.121-1.609-.363a2.582 2.582 0 0 1-1.094-1.08c-.262-.476-.393-1.058-.393-1.744v-4.022h2.228zM51.21 10.868l-2.562 4.97v2.168H46.41v-2.168l-2.561-4.97h2.56l1.14 2.53 1.14-2.53zM54.642 33.3c-.212.33-.52.59-.922.782-.404.191-.884.287-1.442.287-.854 0-1.558-.2-2.113-.6-.554-.4-.855-.986-.902-1.76h2.38c.033.41.215.616.544.616.114 0 .207-.03.277-.091.07-.06.106-.148.106-.262 0-.168-.086-.301-.257-.399-.172-.097-.449-.21-.832-.337a7.714 7.714 0 0 1-1.124-.454c-.3-.155-.56-.383-.782-.686-.221-.302-.332-.696-.332-1.18 0-.463.12-.858.358-1.184a2.21 2.21 0 0 1 .978-.741 3.683 3.683 0 0 1 1.396-.252c.854 0 1.533.198 2.037.595.504.396.78.967.827 1.714h-2.41c-.034-.377-.188-.565-.464-.565a.325.325 0 0 0-.232.086c-.06.057-.09.143-.09.257 0 .155.085.28.257.378.171.097.438.21.801.338.457.161.835.32 1.134.479.3.157.562.39.787.695.225.306.338.698.338 1.175 0 .41-.106.78-.318 1.109M57.984 28.934v.888h2.219v1.683h-2.219v1.009h2.521v1.784h-4.759V27.16h4.76v1.774zM63.59 32.604h2.158v1.694h-4.396V27.16h2.239zM68.692 32.604h2.158v1.694h-4.396V27.16h2.238z"/>
    </g>
</svg>
