<svg xmlns="http://www.w3.org/2000/svg" xmlns:xlink="http://www.w3.org/1999/xlink" width="193" height="160" viewBox="0 0 193 160">
    <defs>
        <path id="a" d="M.042.09h100.543v57.944H.042z"/>
        <path id="c" d="M.072.115h100.543v57.803H.072z"/>
        <path id="e" d="M.072.037h100.543v38.236H.072z"/>
        <path id="g" d="M.072.083h100.543v57.944H.072z"/>
    </defs>
    <g fill="none" fill-rule="evenodd">
        <path fill="#111D28" d="M78.785 91.957c-9.75-5.622-14.625-12.997-14.633-20.39-.009-7.466 4.946-14.95 14.856-20.664 19.722-11.372 51.597-11.43 71.195-.128 9.75 5.622 14.625 12.997 14.634 20.39.008 7.465-4.947 14.95-14.857 20.664-19.721 11.372-51.596 11.43-71.195.128" opacity=".2"/>
        <path fill="#1A82FF" d="M164.837 56.27v8.871c.008 7.522-4.947 15.061-14.857 20.818-19.721 11.457-51.596 11.515-71.195.13-9.75-5.665-14.625-13.094-14.633-20.541V56.27h100.685z"/>
        <path fill="#40A0FF" d="M78.785 78.023c-9.75-5.623-14.625-12.997-14.633-20.39-.009-7.466 4.946-14.95 14.856-20.664 19.722-11.373 51.597-11.43 71.195-.129 9.75 5.623 14.625 12.997 14.634 20.39.008 7.466-4.947 14.95-14.857 20.664-19.721 11.373-51.596 11.43-71.195.129"/>
        <path fill="#1A82FF" d="M113.602 80.655c-12.25 0-23.659-2.734-32.127-7.699-7.433-4.357-11.53-9.8-11.537-15.329-.006-5.524 4.28-11.207 11.758-15.59 8.611-5.05 20.165-7.83 32.534-7.83 12.249 0 23.66 2.735 32.128 7.7 7.432 4.358 11.53 9.801 11.535 15.328.007 5.524-4.278 11.207-11.756 15.591-8.612 5.05-20.167 7.83-32.535 7.83"/>
        <path fill="#0F7CE8" d="M81.696 43.383c8.611-5.125 20.165-7.947 32.534-7.947 12.249 0 23.66 2.776 32.128 7.815 7.161 4.263 11.214 9.548 11.507 14.946.01-.205.028-.41.028-.615-.006-5.61-4.103-11.136-11.535-15.56-8.469-5.039-19.88-7.814-32.128-7.814-12.369 0-23.923 2.822-32.534 7.947-7.478 4.45-11.764 10.218-11.758 15.825 0 .205.018.409.029.613.295-5.412 4.524-10.923 11.729-15.21"/>
        <path fill="#FFF" d="M108.33 68.366l.03-5.786a24.828 24.828 0 0 1-3.531-1.702c-6.279-3.649-7.06-7.551-2.089-10.44 2.074-1.205 4.482-1.838 7.057-1.875l-.108 20.048c1.279.205 2.57.341 3.862.4.543.025 1.08.032 1.615.03v.002l.21-.003c.157-.001.316 0 .472-.003v-.004c4.841-.107 9.3-1.271 13.003-3.423 4.279-2.486 6.295-5.556 5.83-8.877-.436-3.124-3.11-6.258-7.53-8.826-2.936-1.706-6.304-2.962-9.81-3.689l-.03 5.818c1.12.448 2.238.995 3.351 1.641 2.89 1.68 4.635 3.381 5.186 5.059.647 1.967-.409 3.82-3.053 5.356-2.059 1.196-4.417 1.817-6.92 1.877l.108-20.008a34.367 34.367 0 0 0-4.02-.43c-.27-.013-.536-.019-.803-.025h-.008c-.308-.008-.615-.01-.92-.008h-.116c-.097 0-.195-.002-.292 0v.006c-4.892.08-9.4 1.243-13.14 3.416-4.28 2.487-6.305 5.562-5.852 8.89.426 3.133 3.092 6.273 7.508 8.838 2.982 1.733 6.415 3 9.99 3.718"/>
        <path fill="#111D28" d="M71.095 57.633c-.008-7.466 4.947-14.95 14.857-20.664 19.722-11.373 51.597-11.43 71.195-.129 9.75 5.623 14.625 12.998 14.634 20.39.008 7.466-4.947 14.95-14.857 20.664-19.721 11.373-51.596 11.43-71.195.129-9.75-5.623-14.625-12.997-14.634-20.39z" opacity=".2"/>
        <path fill="#1A82FF" d="M171.78 43.497v8.87c.01 7.523-4.946 15.062-14.856 20.82-19.721 11.456-51.596 11.514-71.195.128-9.75-5.664-14.625-13.093-14.634-20.54v-9.278h100.686z"/>
        <path fill="#40A0FF" d="M85.73 64.089c-9.751-5.623-14.626-12.998-14.635-20.39-.008-7.466 4.947-14.95 14.857-20.665 19.722-11.372 51.597-11.43 71.195-.128 9.75 5.622 14.625 12.997 14.634 20.39.008 7.466-4.947 14.95-14.857 20.664-19.721 11.372-51.596 11.43-71.195.129"/>
        <path fill="#1A82FF" d="M120.546 67.882c-12.25 0-23.66-2.734-32.128-7.699-7.432-4.357-11.529-9.801-11.536-15.329-.006-5.524 4.28-11.207 11.758-15.59 8.611-5.05 20.165-7.83 32.534-7.83 12.249 0 23.66 2.735 32.128 7.7 7.432 4.358 11.53 9.801 11.535 15.327.007 5.525-4.279 11.208-11.756 15.592-8.612 5.049-20.167 7.83-32.535 7.83"/>
        <path fill="#0F7CE8" d="M88.64 30.61c8.611-5.125 20.165-7.947 32.534-7.947 12.249 0 23.66 2.776 32.128 7.815 7.16 4.263 11.214 9.548 11.506 14.946.011-.206.029-.41.029-.615-.006-5.61-4.103-11.136-11.535-15.56-8.469-5.039-19.88-7.814-32.128-7.814-12.369 0-23.923 2.821-32.534 7.946-7.478 4.45-11.764 10.218-11.758 15.826 0 .205.017.409.029.613.295-5.412 4.524-10.923 11.729-15.21"/>
        <path fill="#FFF" d="M116.43 55.593l.032-5.786a24.828 24.828 0 0 1-3.532-1.702c-6.279-3.649-7.06-7.551-2.089-10.44 2.074-1.205 4.482-1.838 7.057-1.875l-.108 20.048c1.279.205 2.57.341 3.863.4.543.025 1.08.032 1.614.03v.002l.21-.003c.157-.001.316 0 .472-.003v-.005c4.841-.106 9.3-1.27 13.003-3.422 4.279-2.486 6.295-5.556 5.83-8.877-.436-3.124-3.11-6.258-7.53-8.826-2.936-1.707-6.303-2.962-9.81-3.689l-.03 5.818c1.12.448 2.238.995 3.351 1.641 2.89 1.68 4.635 3.381 5.186 5.059.647 1.967-.409 3.819-3.053 5.355-2.059 1.197-4.417 1.818-6.92 1.877l.108-20.007a34.367 34.367 0 0 0-4.02-.43c-.27-.013-.536-.019-.803-.025h-.008c-.308-.008-.615-.01-.92-.009h-.408v.007c-4.892.08-9.4 1.242-13.14 3.415-4.28 2.488-6.305 5.562-5.852 8.89.426 3.134 3.093 6.273 7.508 8.84 2.982 1.732 6.415 3 9.99 3.717"/>
        <path fill="#111D28" d="M77.628 64.089c-9.75-5.623-14.625-12.998-14.634-20.39-.008-7.466 4.947-14.95 14.857-20.665 19.721-11.372 51.596-11.43 71.195-.128 9.75 5.622 14.625 12.997 14.634 20.39.008 7.466-4.947 14.95-14.857 20.664-19.722 11.372-51.596 11.43-71.195.129" opacity=".2"/>
        <path fill="#1A82FF" d="M163.68 29.563v8.87c.008 7.522-4.947 15.062-14.857 20.819-19.722 11.456-51.597 11.514-71.195.13-9.75-5.665-14.625-13.095-14.634-20.542v-9.277H163.68z"/>
        <g transform="translate(62.994 .533)">
            <mask id="b" fill="#fff">
                <use xlink:href="#a"/>
            </mask>
            <path fill="#40A0FF" d="M14.656 49.612C4.919 44 .05 36.64.043 29.262c-.009-7.45 4.94-14.92 14.835-20.623C34.572-2.71 66.402-2.768 85.972 8.511c9.737 5.611 14.605 12.972 14.613 20.35.009 7.45-4.94 14.92-14.835 20.623-19.694 11.35-51.524 11.407-71.094.128" mask="url(#b)"/>
        </g>
        <path fill="#1A82FF" d="M112.445 52.787c-12.25 0-23.66-2.735-32.128-7.7-7.432-4.357-11.53-9.8-11.536-15.328-.006-5.524 4.28-11.207 11.757-15.591 8.612-5.049 20.166-7.829 32.535-7.829 12.249 0 23.659 2.734 32.128 7.7 7.432 4.357 11.529 9.8 11.535 15.327.007 5.525-4.279 11.207-11.757 15.592-8.611 5.048-20.166 7.829-32.534 7.829"/>
        <path fill="#0F7CE8" d="M80.538 15.515c8.612-5.125 20.166-7.947 32.535-7.947 12.248 0 23.66 2.775 32.128 7.815 7.16 4.262 11.214 9.547 11.506 14.945.011-.205.029-.41.029-.615-.006-5.61-4.103-11.135-11.535-15.559-8.469-5.04-19.88-7.815-32.128-7.815-12.369 0-23.923 2.822-32.535 7.947-7.477 4.45-11.763 10.218-11.757 15.825 0 .205.017.41.029.613.294-5.411 4.524-10.922 11.728-15.21"/>
        <path fill="#FFF" d="M107.172 41.659l.032-5.787a24.828 24.828 0 0 1-3.533-1.702c-6.278-3.648-7.06-7.55-2.088-10.44 2.073-1.204 4.481-1.837 7.056-1.875l-.108 20.049c1.28.205 2.571.34 3.863.4.543.025 1.08.031 1.614.03v.002c.071 0 .14-.003.21-.003.158-.002.316 0 .473-.003v-.005c4.84-.107 9.3-1.27 13.002-3.422 4.28-2.486 6.296-5.556 5.831-8.878-.437-3.123-3.111-6.258-7.53-8.826-2.937-1.706-6.304-2.961-9.81-3.688l-.03 5.818c1.119.447 2.238.994 3.35 1.641 2.89 1.68 4.635 3.381 5.187 5.058.647 1.967-.41 3.82-3.053 5.356-2.06 1.196-4.418 1.817-6.92 1.877l.108-20.008a34.367 34.367 0 0 0-4.02-.43c-.27-.012-.537-.018-.804-.025h-.007c-.308-.007-.615-.01-.92-.008h-.408v.007c-4.892.08-9.4 1.242-13.14 3.415-4.281 2.488-6.305 5.562-5.853 8.89.427 3.134 3.093 6.273 7.509 8.839 2.982 1.733 6.414 3 9.99 3.718"/>
        <path fill="#111D28" d="M16.291 127.954c-9.75-5.622-14.625-12.997-14.634-20.39-.008-7.466 4.947-14.95 14.857-20.664 19.721-11.372 51.596-11.43 71.195-.128 9.75 5.622 14.625 12.997 14.634 20.39.008 7.465-4.947 14.95-14.857 20.664-19.722 11.372-51.597 11.43-71.195.128" opacity=".2"/>
        <path fill="#1A82FF" d="M102.343 93.429v8.87c.008 7.522-4.947 15.061-14.857 20.818-19.722 11.457-51.597 11.515-71.195.13-9.75-5.664-14.625-13.094-14.634-20.541v-9.277h100.686z"/>
        <path fill="#40A0FF" d="M16.291 114.02c-9.75-5.623-14.625-12.997-14.634-20.39-.008-7.466 4.947-14.95 14.857-20.664 19.721-11.373 51.596-11.43 71.195-.129 9.75 5.623 14.625 12.998 14.634 20.39.008 7.466-4.947 14.95-14.857 20.664-19.722 11.373-51.597 11.43-71.195.129"/>
        <path fill="#1A82FF" d="M51.108 116.652c-12.25 0-23.66-2.734-32.128-7.699-7.432-4.357-11.53-9.8-11.536-15.329-.006-5.524 4.28-11.207 11.757-15.59 8.612-5.049 20.166-7.83 32.535-7.83 12.248 0 23.659 2.735 32.128 7.7 7.432 4.358 11.529 9.801 11.535 15.328.007 5.525-4.279 11.207-11.757 15.592-8.611 5.048-20.166 7.828-32.534 7.828"/>
        <path fill="#0F7CE8" d="M19.201 79.38c8.612-5.125 20.166-7.947 32.535-7.947 12.248 0 23.66 2.776 32.128 7.815 7.16 4.263 11.214 9.548 11.506 14.946.011-.205.029-.41.029-.615-.006-5.61-4.103-11.136-11.535-15.56-8.469-5.039-19.88-7.814-32.128-7.814-12.369 0-23.923 2.821-32.535 7.947-7.477 4.45-11.763 10.218-11.757 15.825 0 .205.017.409.028.613.296-5.412 4.525-10.923 11.73-15.21"/>
        <path fill="#FFF" d="M45.836 104.363l.03-5.786a24.827 24.827 0 0 1-3.531-1.702c-6.28-3.649-7.06-7.551-2.09-10.44 2.074-1.205 4.482-1.838 7.057-1.875l-.107 20.048c1.279.205 2.57.341 3.862.4.543.025 1.08.032 1.614.03v.003c.07 0 .14-.003.21-.004.158-.001.316 0 .472-.003v-.004c4.842-.107 9.3-1.271 13.003-3.422 4.28-2.487 6.296-5.557 5.831-8.878-.437-3.124-3.111-6.258-7.53-8.826-2.937-1.706-6.304-2.962-9.81-3.689l-.03 5.818c1.119.448 2.238.995 3.35 1.641 2.89 1.68 4.635 3.381 5.187 5.059.647 1.967-.41 3.82-3.053 5.356-2.06 1.196-4.418 1.817-6.92 1.877l.108-20.008a34.4 34.4 0 0 0-4.02-.43 34.032 34.032 0 0 0-.804-.025h-.007c-.308-.008-.615-.01-.92-.008h-.116c-.097 0-.196-.002-.292 0v.006c-4.892.08-9.4 1.243-13.14 3.416-4.281 2.488-6.305 5.562-5.853 8.89.427 3.133 3.093 6.273 7.509 8.838 2.982 1.733 6.414 3 9.99 3.718"/>
        <path fill="#111D28" d="M23.235 115.181C13.485 109.56 8.61 102.184 8.6 94.791c-.009-7.466 4.947-14.95 14.857-20.664 19.721-11.372 51.596-11.43 71.195-.129 9.75 5.623 14.625 12.998 14.633 20.39.009 7.466-4.947 14.95-14.856 20.665-19.722 11.372-51.597 11.43-71.195.128" opacity=".2"/>
        <path fill="#1A82FF" d="M109.286 79.494v8.87c.01 7.522-4.946 15.062-14.856 20.819-19.722 11.457-51.597 11.515-71.195.13C13.485 103.647 8.61 96.217 8.6 88.77v-9.277h100.685z"/>
        <path fill="#40A0FF" d="M23.235 101.247C13.485 95.624 8.61 88.25 8.6 80.857c-.009-7.466 4.947-14.95 14.857-20.664 19.721-11.373 51.596-11.43 71.195-.129 9.75 5.623 14.625 12.997 14.633 20.39.009 7.466-4.947 14.95-14.856 20.664-19.722 11.373-51.597 11.43-71.195.129"/>
        <path fill="#1A82FF" d="M58.052 103.88c-12.25 0-23.66-2.735-32.128-7.7-7.432-4.357-11.53-9.801-11.536-15.329-.006-5.524 4.28-11.207 11.757-15.59 8.612-5.05 20.166-7.83 32.534-7.83 12.25 0 23.66 2.735 32.128 7.7 7.433 4.358 11.53 9.801 11.536 15.328.007 5.524-4.279 11.207-11.757 15.591-8.611 5.049-20.166 7.83-32.534 7.83"/>
        <path fill="#0F7CE8" d="M26.145 66.607c8.612-5.125 20.166-7.947 32.534-7.947 12.25 0 23.66 2.776 32.128 7.815 7.161 4.263 11.215 9.548 11.507 14.946.011-.206.029-.41.029-.615-.006-5.61-4.103-11.136-11.536-15.56-8.468-5.039-19.879-7.814-32.128-7.814-12.368 0-23.922 2.821-32.534 7.947-7.478 4.449-11.763 10.217-11.757 15.825 0 .204.017.408.028.613.295-5.412 4.525-10.923 11.73-15.21"/>
        <path fill="#FFF" d="M53.937 91.59l.03-5.786a24.827 24.827 0 0 1-3.531-1.702c-6.28-3.649-7.06-7.551-2.09-10.44 2.074-1.205 4.483-1.838 7.058-1.875l-.108 20.048c1.279.205 2.57.341 3.862.4.543.025 1.08.032 1.614.03v.002c.071 0 .14-.002.211-.003.157-.001.315 0 .472-.003v-.005c4.841-.106 9.3-1.27 13.003-3.422 4.279-2.486 6.295-5.556 5.83-8.877-.436-3.124-3.11-6.258-7.53-8.826-2.937-1.706-6.304-2.962-9.81-3.689l-.03 5.818c1.12.448 2.238.995 3.35 1.641 2.89 1.68 4.636 3.381 5.187 5.059.647 1.967-.409 3.819-3.053 5.355-2.06 1.197-4.418 1.818-6.92 1.877l.108-20.007a34.4 34.4 0 0 0-4.02-.43c-.27-.013-.536-.019-.803-.025h-.008c-.308-.008-.615-.01-.92-.009h-.408v.007c-4.892.08-9.4 1.242-13.14 3.415-4.281 2.488-6.305 5.562-5.853 8.89.427 3.134 3.093 6.273 7.509 8.84 2.982 1.732 6.414 3 9.99 3.717"/>
        <path fill="#111D28" d="M15.134 101.247C5.384 95.624.508 88.249.5 80.857c-.009-7.466 4.947-14.95 14.857-20.664 19.721-11.373 51.596-11.43 71.194-.129 9.751 5.623 14.626 12.997 14.634 20.39.009 7.466-4.947 14.95-14.856 20.664-19.722 11.373-51.597 11.43-71.195.129" opacity=".2"/>
        <path fill="#1A82FF" d="M101.185 66.721v8.87c.009 7.522-4.947 15.062-14.856 20.819-19.722 11.457-51.597 11.515-71.195.13C5.384 90.874.509 83.444.5 75.997v-9.277h100.685z"/>
        <path fill="#40A0FF" d="M15.134 87.312C5.384 81.69.508 74.315.5 66.922c-.009-7.465 4.947-14.95 14.857-20.664 19.721-11.372 51.596-11.43 71.194-.128 9.751 5.622 14.626 12.997 14.634 20.39.009 7.465-4.947 14.95-14.856 20.664-19.722 11.372-51.597 11.43-71.195.128"/>
        <path fill="#1A82FF" d="M49.95 89.945c-12.25 0-23.659-2.734-32.127-7.7-7.432-4.357-11.53-9.8-11.536-15.328-.006-5.524 4.28-11.207 11.757-15.59 8.612-5.05 20.166-7.83 32.534-7.83 12.25 0 23.66 2.735 32.128 7.7 7.433 4.357 11.53 9.8 11.535 15.327.008 5.525-4.278 11.208-11.756 15.592-8.612 5.049-20.167 7.829-32.534 7.829"/>
        <path fill="#0F7CE8" d="M18.044 52.673c8.612-5.125 20.166-7.947 32.534-7.947 12.25 0 23.66 2.776 32.128 7.815 7.161 4.262 11.215 9.548 11.507 14.945.01-.205.028-.41.028-.615-.005-5.61-4.102-11.135-11.535-15.559-8.468-5.04-19.879-7.815-32.128-7.815-12.368 0-23.922 2.822-32.534 7.947-7.478 4.45-11.763 10.218-11.757 15.826 0 .204.017.408.028.612.295-5.411 4.525-10.922 11.73-15.209"/>
        <path fill="#FFF" d="M44.678 77.656l.031-5.787a24.827 24.827 0 0 1-3.532-1.701c-6.279-3.649-7.06-7.552-2.088-10.44 2.073-1.205 4.481-1.838 7.056-1.876l-.108 20.049c1.28.205 2.571.34 3.863.4.543.025 1.08.031 1.614.03v.002l.21-.003c.158-.002.316 0 .472-.003v-.005c4.842-.107 9.3-1.27 13.003-3.422 4.28-2.486 6.295-5.556 5.831-8.878-.437-3.123-3.111-6.258-7.53-8.826-2.937-1.706-6.304-2.961-9.81-3.688l-.031 5.818c1.12.447 2.238.994 3.351 1.641 2.89 1.68 4.635 3.381 5.186 5.058.648 1.967-.408 3.82-3.053 5.356-2.058 1.196-4.417 1.817-6.92 1.877l.108-20.008a34.4 34.4 0 0 0-4.02-.43 34.032 34.032 0 0 0-.803-.025h-.007c-.309-.007-.615-.01-.921-.008h-.407v.006c-4.892.08-9.4 1.243-13.14 3.416-4.281 2.488-6.305 5.562-5.853 8.89.426 3.134 3.093 6.273 7.508 8.839 2.983 1.733 6.415 3 9.99 3.718"/>
        <path fill="#111D28" d="M25.55 89.635c-9.751-5.623-14.626-12.997-14.634-20.39-.009-7.466 4.946-14.95 14.856-20.664 19.722-11.373 51.597-11.43 71.195-.129 9.75 5.623 14.625 12.997 14.634 20.39.009 7.466-4.947 14.95-14.857 20.664-19.721 11.373-51.596 11.43-71.195.129" opacity=".2"/>
        <path fill="#1A82FF" d="M111.601 55.11v8.87c.009 7.521-4.947 15.061-14.857 20.818-19.721 11.457-51.596 11.515-71.195.13-9.75-5.665-14.625-13.095-14.633-20.542V55.11H111.6z"/>
        <path fill="#40A0FF" d="M25.55 75.7c-9.751-5.622-14.626-12.997-14.634-20.39-.009-7.465 4.946-14.95 14.856-20.664 19.722-11.372 51.597-11.43 71.195-.128 9.75 5.622 14.625 12.997 14.634 20.39.009 7.466-4.947 14.95-14.857 20.664-19.721 11.372-51.596 11.43-71.195.129"/>
        <path fill="#1A82FF" d="M60.367 78.333c-12.25 0-23.66-2.734-32.128-7.7-7.433-4.356-11.53-9.8-11.537-15.328-.006-5.524 4.28-11.207 11.758-15.59 8.612-5.05 20.165-7.83 32.534-7.83 12.249 0 23.66 2.735 32.128 7.7 7.432 4.357 11.53 9.8 11.535 15.327.007 5.525-4.278 11.208-11.756 15.592-8.612 5.049-20.167 7.829-32.534 7.829"/>
        <path fill="#0F7CE8" d="M28.46 41.061c8.612-5.125 20.165-7.947 32.534-7.947 12.249 0 23.66 2.776 32.128 7.815 7.161 4.262 11.214 9.548 11.507 14.945.01-.205.028-.41.028-.615-.006-5.61-4.103-11.135-11.535-15.559-8.469-5.04-19.88-7.815-32.128-7.815-12.369 0-23.922 2.822-32.534 7.947-7.478 4.45-11.764 10.218-11.758 15.826 0 .204.018.408.029.612.295-5.411 4.525-10.922 11.729-15.209"/>
        <path fill="#FFF" d="M55.094 66.044l.031-5.787a24.827 24.827 0 0 1-3.532-1.701c-6.279-3.649-7.06-7.552-2.089-10.44 2.074-1.205 4.482-1.838 7.057-1.876l-.108 20.049c1.279.205 2.57.34 3.863.4.543.025 1.08.032 1.614.03v.002l.21-.003c.157-.002.316 0 .472-.003v-.005c4.841-.107 9.3-1.27 13.003-3.422 4.279-2.486 6.295-5.556 5.83-8.878-.436-3.123-3.11-6.258-7.53-8.825-2.936-1.707-6.304-2.962-9.809-3.69l-.031 5.819c1.12.447 2.238.994 3.351 1.641 2.89 1.68 4.635 3.381 5.186 5.058.647 1.967-.409 3.82-3.053 5.356-2.059 1.196-4.417 1.817-6.92 1.877l.108-20.008a34.4 34.4 0 0 0-4.02-.43c-.27-.012-.536-.018-.803-.024h-.008c-.308-.008-.615-.01-.92-.009h-.408v.007c-4.891.08-9.4 1.242-13.139 3.415-4.282 2.488-6.306 5.562-5.853 8.89.426 3.134 3.093 6.273 7.508 8.839 2.982 1.733 6.415 3 9.99 3.718"/>
        <path fill="#111D28" d="M16.291 74.54C6.541 68.916 1.666 61.541 1.657 54.15 1.65 46.683 6.604 39.2 16.514 33.485c19.721-11.372 51.596-11.43 71.195-.128 9.75 5.622 14.625 12.997 14.634 20.39.008 7.465-4.947 14.95-14.857 20.664-19.722 11.372-51.597 11.43-71.195.128" opacity=".2"/>
        <path fill="#1A82FF" d="M102.343 40.014v8.87c.008 7.522-4.947 15.061-14.857 20.818-19.722 11.457-51.597 11.515-71.195.13C6.541 64.168 1.666 56.738 1.657 49.29v-9.277h100.686z"/>
        <path fill="#40A0FF" d="M16.291 60.605c-9.75-5.623-14.625-12.997-14.634-20.39-.008-7.466 4.947-14.95 14.857-20.664C36.235 8.179 68.11 8.12 87.709 19.422c9.75 5.623 14.625 12.998 14.634 20.39.008 7.466-4.947 14.95-14.857 20.664-19.722 11.373-51.597 11.43-71.195.129"/>
        <path fill="#1A82FF" d="M51.108 64.399c-12.25 0-23.66-2.735-32.128-7.7-7.432-4.357-11.53-9.8-11.536-15.328-.006-5.524 4.28-11.207 11.757-15.591 8.612-5.049 20.166-7.83 32.535-7.83 12.248 0 23.659 2.735 32.128 7.7 7.432 4.358 11.529 9.802 11.535 15.328.007 5.525-4.279 11.207-11.757 15.592-8.611 5.048-20.166 7.829-32.534 7.829"/>
        <path fill="#0F7CE8" d="M19.201 27.127C27.813 22 39.367 19.18 51.736 19.18c12.248 0 23.66 2.775 32.128 7.815 7.16 4.262 11.214 9.547 11.506 14.945.011-.205.029-.41.029-.615-.006-5.61-4.103-11.135-11.535-15.56-8.469-5.039-19.88-7.814-32.128-7.814-12.369 0-23.923 2.822-32.535 7.947-7.477 4.45-11.763 10.218-11.757 15.825 0 .205.017.409.028.613.296-5.411 4.525-10.922 11.73-15.21"/>
        <path fill="#FFF" d="M45.836 52.11l.03-5.787a24.827 24.827 0 0 1-3.531-1.702c-6.28-3.648-7.06-7.551-2.09-10.44 2.074-1.204 4.482-1.838 7.057-1.875l-.107 20.049c1.279.204 2.57.34 3.862.4.543.025 1.08.031 1.614.03v.002c.07 0 .14-.003.21-.004.158-.001.316.001.472-.002v-.005c4.842-.107 9.3-1.27 13.003-3.422 4.28-2.487 6.296-5.557 5.831-8.878-.437-3.123-3.111-6.258-7.53-8.826-2.937-1.706-6.304-2.961-9.81-3.688l-.03 5.817c1.119.448 2.238.995 3.35 1.642 2.89 1.679 4.635 3.38 5.187 5.058.647 1.967-.41 3.82-3.053 5.356-2.06 1.196-4.418 1.817-6.92 1.877l.108-20.008a34.4 34.4 0 0 0-4.02-.43 34.032 34.032 0 0 0-.804-.025h-.007c-.308-.007-.615-.01-.92-.008h-.408v.006c-4.892.08-9.4 1.243-13.14 3.416-4.281 2.488-6.305 5.562-5.853 8.89.427 3.134 3.093 6.273 7.509 8.839 2.982 1.733 6.414 3 9.99 3.717"/>
        <g transform="translate(91.927 101.557)">
            <mask id="d" fill="#fff">
                <use xlink:href="#c"/>
            </mask>
            <path fill="#111D28" d="M14.685 49.517C4.948 43.919.081 36.577.072 29.217c-.009-7.433 4.94-14.884 14.836-20.573C34.6-2.678 66.43-2.735 86.002 8.516c9.737 5.598 14.604 12.94 14.613 20.3.008 7.433-4.94 14.884-14.836 20.573-19.693 11.322-51.523 11.38-71.094.128" mask="url(#d)" opacity=".2"/>
        </g>
        <g transform="translate(91.927 116.652)">
            <mask id="f" fill="#fff">
                <use xlink:href="#e"/>
            </mask>
            <path fill="#1A82FF" d="M100.615.037v8.851c.009 7.506-4.94 15.029-14.836 20.773-19.693 11.432-51.523 11.49-71.094.13C4.948 24.137.08 16.724.072 9.293V.037h100.543z" mask="url(#f)"/>
        </g>
        <g transform="translate(91.927 87.623)">
            <mask id="h" fill="#fff">
                <use xlink:href="#g"/>
            </mask>
            <path fill="#40A0FF" d="M14.685 49.605C4.948 43.994.081 36.634.072 29.256c-.009-7.451 4.94-14.92 14.836-20.623C34.6-2.717 66.43-2.774 86.002 8.505c9.737 5.611 14.604 12.971 14.613 20.349.008 7.451-4.94 14.92-14.836 20.623-19.693 11.35-51.523 11.407-71.094.128" mask="url(#h)"/>
        </g>
        <path fill="#1A82FF" d="M142.535 139.876c-12.25 0-23.66-2.734-32.128-7.699-7.432-4.357-11.53-9.801-11.536-15.329-.006-5.524 4.28-11.207 11.757-15.59 8.612-5.05 20.166-7.83 32.534-7.83 12.25 0 23.66 2.735 32.129 7.7 7.432 4.358 11.529 9.801 11.535 15.328.007 5.524-4.279 11.207-11.757 15.591-8.611 5.049-20.166 7.83-32.534 7.83"/>
        <path fill="#0F7CE8" d="M110.628 102.604c8.612-5.125 20.166-7.947 32.535-7.947 12.248 0 23.659 2.776 32.128 7.815 7.16 4.263 11.214 9.548 11.506 14.946.011-.206.029-.41.029-.615-.006-5.61-4.103-11.136-11.535-15.56-8.47-5.039-19.88-7.814-32.128-7.814-12.37 0-23.923 2.821-32.535 7.947-7.478 4.45-11.763 10.217-11.757 15.825 0 .205.017.409.028.613.295-5.412 4.525-10.923 11.73-15.21"/>
        <path fill="#FFF" d="M137.262 127.587l.031-5.786a24.828 24.828 0 0 1-3.532-1.702c-6.278-3.649-7.06-7.551-2.088-10.44 2.073-1.205 4.481-1.838 7.056-1.875l-.108 20.048c1.28.205 2.571.341 3.863.4.543.025 1.08.032 1.614.03v.002l.21-.003c.158-.001.316 0 .472-.003v-.005c4.842-.106 9.3-1.27 13.003-3.422 4.28-2.486 6.296-5.556 5.831-8.877-.437-3.124-3.111-6.258-7.53-8.826-2.937-1.706-6.304-2.962-9.81-3.689l-.031 5.818c1.12.448 2.239.995 3.352 1.641 2.89 1.68 4.634 3.381 5.186 5.059.647 1.967-.41 3.819-3.054 5.356-2.058 1.196-4.417 1.817-6.92 1.877l.108-20.008a34.37 34.37 0 0 0-4.02-.43c-.269-.013-.536-.019-.803-.025h-.007c-.308-.008-.615-.01-.92-.008h-.116c-.097 0-.196-.002-.292 0v.006c-4.892.08-9.4 1.243-13.14 3.415-4.281 2.488-6.305 5.563-5.853 8.89.426 3.134 3.093 6.273 7.509 8.84 2.982 1.732 6.414 3 9.99 3.717"/>
    </g>
</svg>
