<svg xmlns="http://www.w3.org/2000/svg" xmlns:xlink="http://www.w3.org/1999/xlink" width="825" height="260" viewBox="0 0 825 260">
    <defs>
        <path id="prefix__a" d="M0 0L825 0 825 260 0 260z"/>
        <path id="prefix__c" d="M0.504 0.319L73.757 0.319 73.757 920.16 0.504 920.16z"/>
        <path id="prefix__e" d="M0 20.527L35.128 0.233 47.928 16.625 12.8 36.89z"/>
        <linearGradient id="prefix__g" x1="49.993%" x2="49.993%" y1="78.566%" y2="27.608%">
            <stop offset="0%" stop-color="#40A0FF" stop-opacity=".4"/>
            <stop offset="100%" stop-color="#40A0FF" stop-opacity="0"/>
        </linearGradient>
        <linearGradient id="prefix__h" x1="50.015%" x2="50.015%" y1="78.568%" y2="27.611%">
            <stop offset="0%" stop-color="#40A0FF" stop-opacity=".4"/>
            <stop offset="100%" stop-color="#40A0FF" stop-opacity="0"/>
        </linearGradient>
    </defs>
    <g fill="none" fill-rule="evenodd">
        <mask id="prefix__b" fill="#fff">
            <use xlink:href="#prefix__a"/>
        </mask>
        <use fill="#1A82FF" xlink:href="#prefix__a"/>
        <g mask="url(#prefix__b)" opacity=".1">
            <g>
                <g>
                    <path fill="#FFF" d="M909.841 910.16L1805.568 698.735 1819.544 770.644zM909.841 910.16L14.114 1121.585.136 1049.676zM909.841 910.16L1121.265 1805.887 1049.357 1819.864zM909.841 910.16L698.415 14.433 770.324.456zM909.841 910.16L1692.715 1394.034 1651.751 1454.765zM909.841 910.16L126.966 426.286 167.929 365.554zM909.841 910.16L425.966 1693.034 365.235 1652.07zM909.841 910.16L1393.715 127.286 1454.447 168.25zM909.841 910.16L1661.142 378.585 1701.04 440.022zM909.841 910.16L158.538 1441.735 118.641 1380.298zM909.841 910.16L1441.415 1661.462 1379.978 1701.36zM909.841 910.16L378.265 158.858 439.702 118.96zM909.841 910.16L1816.972 1065.53 1801.741 1137.185zM909.841 910.16L2.709 754.789 17.941 683.135zM909.841 910.16L754.47 1817.291 682.816 1802.06zM909.841 910.16L1065.21 3.029 1136.866 18.26z" transform="translate(-275 -815) translate(10 10.68)"/>
                </g>
                <g>
                    <path fill="#FFF" d="M919.841 920.16L1839.68 889.824 1839.179 963.078zM919.841 920.16L.001 950.496.501 877.242zM919.841 920.16L950.177 1840 876.923 1839.499z" transform="translate(-275 -815) translate(0 .68)"/>
                    <g transform="translate(-275 -815) translate(0 .68) translate(889)">
                        <mask id="prefix__d" fill="#fff">
                            <use xlink:href="#prefix__c"/>
                        </mask>
                        <path fill="#FFF" d="M30.84 920.16L0.504 0.319 73.757 0.821z" mask="url(#prefix__d)"/>
                    </g>
                    <path fill="#FFF" d="M919.841 920.16L1591.716 1549.135 1539.564 1600.578zM919.841 920.16L247.964 291.185 300.116 239.742zM919.841 920.16L290.865 1592.036 239.423 1539.884zM919.841 920.16L1548.815 248.284 1600.258 300.436zM919.841 920.16L1761.338 547.455 1788.314 615.562zM919.841 920.16L78.344 1292.865 51.367 1224.758zM919.841 920.16L1292.545 1761.657 1224.438 1788.634zM919.841 920.16L547.135 78.663 615.242 51.686zM919.841 920.16L1778.41 1251.645 1749.326 1318.881zM919.841 920.16L61.27 588.675 90.353 521.439zM919.841 920.16L588.355 1778.73 521.12 1749.647zM919.841 920.16L1251.325 61.59 1318.561 90.673z" transform="translate(-275 -815) translate(0 .68)"/>
                </g>
            </g>
        </g>
        <g mask="url(#prefix__b)">
            <g>
                <g fill-rule="nonzero">
                    <path fill="#000" d="M156.519 170.81c-9.204 5.46-18.522 11.005-28.783 13.977-16.15 4.688-34.642 2.344-47.933-7.946-2.458-1.886-4.773-4.116-5.945-6.974-1.372-3.344-1-7.117-.515-10.69.858-6.288 2.087-12.662 5.03-18.293 2.573-4.945 6.375-9.175 10.72-12.662 5.602-4.545 12.061-7.889 18.435-11.233 15.75-8.203 19.494-10.976 35.271-19.179 9.804-5.116 69.142-8.546 69.142-8.546 13.434 6.488 23.095 17.521 16.292 34.013-2.372 5.745-5.774 8.66-11.062 11.662-9.003 5.088-17.864 10.404-26.753 15.692-11.319 6.745-22.609 13.462-33.899 20.18z" opacity=".1" transform="translate(522 -80) translate(0 122.62)"/>
                    <g>
                        <path fill="#F4B8EB" d="M32.098 68.055c-4.687-4.115-9.518-8.431-12.033-14.148-1.057-2.43-1.686-5.03-2.744-7.46-1.258-2.858-3.144-5.43-5.488-7.46-1.4-1.23-3.144-2.658-2.83-4.488 3.402-.314 6.775 1.144 9.604 3.059 2.83 1.915 5.288 4.344 8.09 6.345 4.115 2.944 8.888 4.945 13.89 5.774 0 0 4.46 7.088.858 12.605-3.601 5.516-9.347 5.773-9.347 5.773z" transform="translate(522 -80) translate(0 122.62)"/>
                        <path fill="#111D28" d="M175.555 98.239c.686.972 1.43 2.086 1.2 3.23-.057.343-.2.657-.371.943-1.572 3.087-4.659 5.688-8.118 5.574-.314 0-.628-.058-.857-.258-.629-.514-.086-1.572-.343-2.344-.429.258-.686.715-1.029 1.115-.314.4-.829.743-1.315.6-.6-.171-.772-.943-.772-1.572-.028-1.572.2-3.144.686-4.659 0 0 1-3 5.06-3.944 4.03-.915 5.03.4 5.86 1.315zM88.978 152.46c.343 1.144-.514 2.258-1.43 3.03-2.8 2.4-6.516 3.744-10.232 3.687 0-.686.029-1.343.029-2.03-.343.287-.686.572-1.115.715-.429.115-.943 0-1.172-.4-.171-.314-.114-.686-.028-1.029.343-1.658.686-3.344 1.029-5.002 0 0 3.258-5.516 8.489-3.172 3.515 1.543 4.43 4.201 4.43 4.201zM123.735 170.382c.457.914.314 2.029-.143 2.944-.458.914-1.23 1.629-2.058 2.23-2.344 1.743-5.23 2.743-8.146 2.857-.372 0-.772 0-1.086-.2-.372-.286-.486-.8-.4-1.257.085-.458.37-.858.628-1.23-.629.2-1.257.4-1.886.63-.486.17-1.144.285-1.458-.115-.229-.257-.2-.657-.143-1 .286-1.973.886-3.888 1.8-5.631 0 0 2.716-4.345 6.89-3.916 4.172.429 6.002 4.688 6.002 4.688z" transform="translate(522 -80) translate(0 122.62)"/>
                        <path fill="#F4B8EB" d="M89.921 119.647c.515 2.859-.114 7.518.086 8.86.086.515.657 16.407-.114 20.352-.2 1-.4 2.058-1.058 2.858-1.315 1.6-3.744 1.486-5.802 1.172-1.315-.2-2.63-.457-3.916-.743-1.058-.229-2.287-.629-2.572-1.687-.172-.6.057-1.229.257-1.829 2.143-6.46 2.2-13.548 1-20.236-.314-1.687-1.429-6.317-2.23-7.86 0 0-2.2-4.917 7.146-5.774 9.347-.858 7.203 4.887 7.203 4.887z" transform="translate(522 -80) translate(0 122.62)"/>
                        <path fill="#111D28" d="M215.942 114.988c.23 1.487.372 3.144-.457 4.402-.8 1.258-2.344 1.772-3.801 2.115-1.2.257-2.401.457-3.63.543-.43.029-.972 0-1.144-.4-.2-.457.258-1 .029-1.43-.457.63-1.4 1.087-2 .573-.515-.43-.43-1.23-.258-1.858.371-1.544.943-3.03 1.63-4.43 0 0 1.543-2.573 5.287-3.002 3.744-.457 4.344 3.487 4.344 3.487z" transform="translate(522 -80) translate(0 122.62)"/>
                        <path fill="#F4B8EB" d="M203.766 12.348c2.172-2.201 5.974-1.801 8.575-.115 2.601 1.687 4.373 4.345 6.403 6.66 1.343 1.544 2.8 2.973 4.516 4.088 3.515 2.258 7.917 3.03 11.033 5.802.543.486 1.057 1.372.514 1.886-.2.172-.486.229-.743.286-4.202.6-8.49-1.029-11.805-3.659-3.315-2.63-5.773-6.202-7.889-9.86-.686-1.172-1.343-2.401-2.372-3.259-1.686-1.43-4.259-1.658-6.174-.572 0 0-1.029.686-1.715-.057-.714-.772-.343-1.2-.343-1.2z" transform="translate(522 -80) translate(0 122.62)"/>
                        <path fill="#E8A0E2" d="M165.15 93.866c-.2 1.4-.37 2.83-.57 4.23-.058.371-.086.8.142 1.115.172.228.486.343.772.428 2.887.858 6.117.6 8.832-.714 1.143-.543 2.23-1.372 2.687-2.544.257-.657.257-1.4.228-2.115-.057-1.972-.314-3.945-.771-5.86 0 0-1.458-3.801-8.146-2.772-6.717 1-3.173 8.232-3.173 8.232z" transform="translate(522 -80) translate(0 122.62)"/>
                        <path fill="#FFD7F7" d="M136.311 103.898c18.607-3.716 41.302-14.891 58.109-26.382 3.63 4.345 9.003 9.204 12.347 13.777 3.345 4.602 5.345 10.747 3.087 15.95-1.029 2.372-3.944 5.001-2.458 7.202.943 1.43 5.945 1.8 7.546 1.144 2.658-1.087 1.715-3.745 2.715-6.232 2.001-4.973 4.002-10.175 3.688-15.52-.2-3.258-1.258-6.402-2.001-9.575-4.23-18.293 2.03-38.13-4.059-55.88-5.26-15.32-20.122-26.867-36.271-28.182-5.545-.457-11.148.2-16.664 1-5.602.83-11.233 1.801-16.578 3.66-12.148 4.23-22.237 12.776-33.27 19.407C92.15 36.529 68.684 42.36 45.532 47.619c-1.715.4-3.487.8-4.945 1.83-1.514 1.085-2.515 2.714-3.458 4.315-1.372 2.315-6.117 13.348-7.003 14.72-1.629 2.544-5.145 4.316-6.317 7.117-.543 1.344-.314 2.887-.171 4.316 1.229 12.234-7.06 23.81-18.236 28.926-2.43 1.115-5.345 2.23-5.145 5.545.057.829.315 1.6.63 2.372 2.314 5.517 7.288 9.776 13.09 11.233 3.859.972 7.889.744 11.833.315 19.408-1.972 46.304-7.775 66.284-9.318 7.888 4.001 14.234 11.261 17.606 19.436 3.373 8.175 4.002 17.35 2.259 26.01-.43 2.058-.83 4.516.714 5.917.886.8 2.115.972 3.287 1.086 3.23.372 7.26.315 8.746-2.544.572-1.114.6-2.4.715-3.63.543-5.745 3.201-11.09 4.202-16.778 1.086-6.145.2-12.462.428-18.693.372-8.803 2.916-17.607 6.26-25.896z" transform="translate(522 -80) translate(0 122.62)"/>
                        <path fill="#FFF" d="M119.276 129.251c.629-2.858-.229-5.83-1.458-8.489-3.316-7.146-10.719-14.72-18.75-16.092 8.803 7.46 16.835 12.462 20.208 24.581zM55.565 100.04c4.201-1.087 7.946-3.86 10.175-7.603.543 1.572-.085 3.4-1.2 4.63-1.115 1.229-2.658 2.03-4.173 2.772-2.716 1.287-5.545 2.487-8.547 2.659-2.229.143-5.745-.029-5.545-2.687 3.116.686 6.146 1.029 9.29.229z" transform="translate(522 -80) translate(0 122.62)"/>
                        <path fill="#F4B8EB" d="M25.81 128.336c10.204-1.286 21.494-4.487 31.47-6.974 1.315-.314 2.63-.657 3.973-.571 1.086.085 2.115.457 3.201.628 2.344.372 4.745-.285 7.031-.943l26.925-7.631c-4.459 2.715-6.26 6.173-6.26 6.173-20.007 1.544-46.904 7.346-66.34 9.318zM136.568 103.984c18.608-3.716 41.302-14.892 58.109-26.382l3.201-3.001c-.743-.4-1.486-.772-2.23-1.172-11.49 6.717-23.18 13.548-36.07 16.778-6.175 1.544-12.606 2.287-18.465 4.745l-4.545 9.032zM13.977 127.993C8.203 126.536 3.2 122.248.887 116.76c-.315-.743-.573-1.543-.63-2.372-.2-3.316 2.716-4.43 5.145-5.545.915-.429 3.573.657 6.403 4.43 3.487 4.63 4.43 15.292 2.172 14.72zM69.856 74.315c-.257-1.743-.486-3.487-.743-5.202-.171-1.258-.372-2.572-.171-3.83.6-3.63 2.057-5.002 5.487-6.345 1.315-.515 2.773-1.03 3.373-2.287-.6 1.286 2.001 1.83 2.801 3.001.8 1.172 1.887 2.201 2.516 3.487.4.83.6 1.772.8 2.687.514 2.372 1.029 4.802.657 7.203-.371 2.4-1.8 4.773-4.087 5.573-.343.115-2.858 1.315-2.887 1.687" transform="translate(522 -80) translate(0 122.62)"/>
                        <path fill="#F7CBF1" d="M67.798 75.344c-.257-1.743-.486-3.487-.743-5.202-.171-1.258-.372-2.572-.171-3.83.6-3.63 4.115-6.031 7.545-7.374 1.315-.515 2.773-1.03 3.373-2.287-.6 1.286-.057 2.858.743 4.03.8 1.172 1.887 2.201 2.516 3.487.4.83.6 1.772.8 2.687.514 2.372 1.029 4.802.657 7.203-.371 2.4-1.8 4.773-4.087 5.573-.343.115-.772.286-.829.658" transform="translate(522 -80) translate(0 122.62)"/>
                        <path fill="#FFF" d="M130.166 21.123c16.978-13.32 33.67-17.807 47.447-17.15 18.807.857 30.67 20.094 33.099 27.697-2.887-6.403-9.833-15.378-16.235-18.265-6.403-2.887-13.491-4.001-20.494-4.544-15.435-1.23-30.44 4.459-43.817 12.262z" transform="translate(522 -80) translate(0 122.62)"/>
                        <path fill="#111D28" d="M47.933 90.321c-.571-.571-.228-1.657.486-2.086.715-.429 1.6-.372 2.43-.315 1.429.115 3.2.515 3.515 1.915-1.314 1.458-4.859 1.687-6.43.486z" transform="translate(522 -80) translate(0 122.62)"/>
                        <path fill="#F4B8EB" d="M194.42 77.516c3.63 4.345 9.003 9.204 12.347 13.777 3.345 4.602 5.345 10.747 3.087 15.95-.343.771-.886 1.571-1.4 2.372 3.63-2.458 5.888-7.089 5.059-11.405-.829-4.316-3.487-8.032-6.431-11.29-2.373-2.601-4.974-4.973-7.775-7.06-.028 0-4.116-.8-4.887-2.344z" transform="translate(522 -80) translate(0 122.62)"/>
                        <path fill="#3D3D3D" d="M9.118 118.218c-.858 0-1.486 1.63-1.315 2.63.2 1 1.372 1.772 2.258 1.315.715-.372.943-1.315.686-2.087-.229-.772-.772-1.858-1.63-1.858zM5.345 116.017c-.657-.257-1.6.83-1.744 1.658-.142.829.543 1.744 1.372 1.63.658-.086 1.087-.772 1.115-1.401.029-.63-.057-1.658-.743-1.887z" transform="translate(522 -80) translate(0 122.62)"/>
                        <path fill="#F4B8EB" d="M112.73 150.774c.886-7.146-.457-14.577-3.887-20.923-1.63-3-3.744-5.802-6.488-7.831-2.744-2.058-6.146-3.287-9.547-3.087l-.686.085c7.889 4.002 14.234 11.262 17.607 19.437 1.6 3.858 2.573 7.946 3.001 12.09v.229z" transform="translate(522 -80) translate(0 122.62)"/>
                        <path fill="#FFF" d="M27.954 83.061c1.172-1.543 3.773-3.601 4.402-5.43 1.515-4.288 5.316-7.375 7.374-11.433 1.372-2.744 1.972-7.146 4.03-9.433 1.086-1.229 2.515-2.086 3.945-2.944 4.401-2.63 6.402-4.058 10.804-6.688-4.516 3.458-10.776 2.086-15.263 5.545-4.602 3.544-6.489 11.29-9.718 16.15-2.716 4.058-6.717 8.26-5.66 13.033l.086 1.2zM23.638 95.152c-.543 5.86-4.402 11.29-9.747 13.72-.829.371-1.943.628-2.515-.086.8-1.172 2.115-1.83 3.287-2.63 3.744-2.486 6.202-6.46 8.518-10.29l.457-.714z" transform="translate(522 -80) translate(0 122.62)"/>
                    </g>
                </g>
                <g fill-rule="nonzero">
                    <g>
                        <path fill="#111D28" d="M5.173 22.295C1.886 20.379.23 17.893.23 15.378c0-2.544 1.686-5.06 5.03-7.003 6.689-3.859 17.464-3.888 24.095-.057 3.287 1.915 4.945 4.401 4.945 6.917 0 2.543-1.686 5.059-5.03 7.002-6.689 3.859-17.464 3.888-24.096.058z" opacity=".2" transform="translate(522 -80) translate(201.794 261.532)"/>
                        <path fill="#005EBC" d="M34.3 9.804v2.972c0 2.544-1.687 5.06-5.031 7.003-6.689 3.859-17.464 3.887-24.096.057C1.886 17.921.23 15.435.23 12.92V9.804h34.07z" transform="translate(522 -80) translate(201.794 261.532)"/>
                        <path fill="#40A0FF" d="M5.173 16.864C1.886 14.949.23 12.462.23 9.947c0-2.544 1.686-5.06 5.03-7.003 6.689-3.859 17.464-3.887 24.095-.057C32.641 4.802 34.3 7.289 34.3 9.804c0 2.544-1.686 5.059-5.03 7.003-6.689 3.858-17.464 3.887-24.096.057z" transform="translate(522 -80) translate(201.794 261.532)"/>
                        <path fill="#1A82FF" d="M17.15 17.693c-4.173 0-8.06-.915-10.976-2.601-2.544-1.458-3.945-3.287-3.945-5.145 0-1.858 1.458-3.773 4.002-5.23 2.944-1.687 6.888-2.63 11.09-2.63 4.173 0 8.06.914 10.976 2.6 2.544 1.458 3.944 3.288 3.944 5.145 0 1.858-1.457 3.773-4.001 5.231-2.916 1.686-6.86 2.63-11.09 2.63z" transform="translate(522 -80) translate(201.794 261.532)"/>
                        <path fill="#0F7CE8" d="M6.26 5.116c2.944-1.686 6.888-2.63 11.09-2.63 4.173 0 8.06.915 10.975 2.602 2.459 1.4 3.83 3.172 3.916 4.945v-.2c0-1.858-1.4-3.688-3.944-5.145C25.41 3.03 21.523 2.087 17.32 2.087c-4.23 0-8.175.943-11.09 2.63-2.544 1.485-4.002 3.372-4.002 5.23v.2c.143-1.8 1.573-3.63 4.03-5.03z" transform="translate(522 -80) translate(201.794 261.532)"/>
                    </g>
                    <path fill="#FFF" d="M15.406 13.777v-1.972c-.4-.143-.8-.343-1.2-.572-2.144-1.229-2.401-2.572-.715-3.544.715-.4 1.544-.63 2.401-.63l-.029 6.804c.43.057.886.114 1.315.143H17.98c1.657-.03 3.172-.43 4.43-1.172 1.458-.858 2.144-1.887 2-3.002-.142-1.057-1.057-2.115-2.572-3-1-.572-2.144-1.001-3.344-1.258v1.972c.372.143.772.343 1.143.543 1 .572 1.572 1.143 1.772 1.715.23.657-.142 1.286-1.057 1.83-.715.4-1.515.628-2.372.628l.028-6.803c-.457-.085-.915-.114-1.372-.143h-.6-.114c-1.658.029-3.202.43-4.488 1.172-1.458.858-2.144 1.887-2 3.03.142 1.058 1.057 2.144 2.572 3.001 1 .572 2.172 1.03 3.401 1.258z" transform="translate(522 -80) translate(201.794 261.532)"/>
                </g>
                <g fill-rule="nonzero">
                    <g>
                        <path fill="#111D28" d="M5.03 22.437C1.745 20.522.087 18.036.087 15.52c0-2.543 1.686-5.059 5.03-7.002C11.805 4.659 22.58 4.63 29.212 8.46c3.287 1.916 4.944 4.402 4.944 6.918 0 2.543-1.686 5.059-5.03 7.002-6.66 3.859-17.464 3.888-24.095.057z" opacity=".2" transform="translate(522 -80) translate(162.921 266.963)"/>
                        <path fill="#005EBC" d="M34.156 9.947v2.972c0 2.544-1.686 5.06-5.03 7.003-6.689 3.859-17.464 3.887-24.095.057C1.744 18.064.086 15.578.086 13.062V9.947h34.07z" transform="translate(522 -80) translate(162.921 266.963)"/>
                        <path fill="#40A0FF" d="M5.03 17.007C1.745 15.092.087 12.605.087 10.09c0-2.544 1.686-5.06 5.03-7.003C11.805-.772 22.58-.8 29.212 3.03c3.287 1.915 4.944 4.402 4.944 6.917 0 2.544-1.686 5.059-5.03 7.003-6.66 3.858-17.464 3.887-24.095.057z" transform="translate(522 -80) translate(162.921 266.963)"/>
                        <path fill="#1A82FF" d="M17.007 17.836c-4.173 0-8.06-.915-10.976-2.601-2.544-1.458-3.944-3.287-3.944-5.145 0-1.858 1.457-3.773 4.001-5.23 2.944-1.687 6.889-2.63 11.09-2.63 4.173 0 8.06.914 10.976 2.6 2.544 1.458 3.944 3.287 3.944 5.145 0 1.858-1.457 3.773-4.001 5.231-2.916 1.686-6.86 2.63-11.09 2.63z" transform="translate(522 -80) translate(162.921 266.963)"/>
                        <path fill="#0F7CE8" d="M6.117 5.26c2.944-1.687 6.888-2.63 11.09-2.63 4.173 0 8.06.914 10.976 2.6 2.458 1.401 3.83 3.173 3.915 4.945v-.2c0-1.858-1.4-3.687-3.944-5.145-2.887-1.657-6.774-2.6-10.976-2.6-4.23 0-8.174.943-11.09 2.63-2.544 1.485-4.001 3.372-4.001 5.23v.2c.142-1.8 1.572-3.63 4.03-5.03z" transform="translate(522 -80) translate(162.921 266.963)"/>
                    </g>
                    <path fill="#FFF" d="M15.263 13.92v-1.972c-.4-.143-.8-.343-1.2-.572-2.144-1.23-2.401-2.573-.715-3.544.715-.4 1.544-.63 2.401-.63l-.029 6.804c.43.057.887.114 1.315.142H17.836c1.657-.028 3.172-.428 4.43-1.171 1.458-.858 2.144-1.887 2-3.002-.142-1.057-1.057-2.115-2.572-3-1-.572-2.143-1.001-3.344-1.258v1.972c.372.143.772.343 1.143.543 1 .571 1.572 1.143 1.773 1.715.228.657-.143 1.286-1.058 1.83-.715.4-1.515.628-2.372.628l.028-6.803c-.457-.086-.914-.114-1.372-.143h-.6-.114c-1.658.029-3.202.429-4.488 1.172-1.458.858-2.144 1.887-2 3.03.142 1.058 1.057 2.144 2.572 3.001 1 .572 2.172 1.03 3.401 1.258z" transform="translate(522 -80) translate(162.921 266.963)"/>
                </g>
                <g fill-rule="nonzero">
                    <g>
                        <path fill="#111D28" d="M5.03 22.38C1.745 20.465.087 17.98.087 15.463c0-2.544 1.686-5.059 5.03-7.003 6.689-3.858 17.464-3.887 24.096-.057 3.287 1.915 4.944 4.402 4.944 6.917 0 2.544-1.686 5.06-5.03 7.003-6.66 3.859-17.464 3.887-24.095.057z" opacity=".2" transform="translate(522 -80) translate(123.192 314.982)"/>
                        <path fill="#005EBC" d="M34.156 9.89v2.972c0 2.544-1.686 5.06-5.03 7.003-6.689 3.859-17.464 3.887-24.095.057C1.744 18.007.086 15.52.086 13.005V9.89h34.07z" transform="translate(522 -80) translate(123.192 314.982)"/>
                        <path fill="#40A0FF" d="M5.03 16.921C1.745 15.006.087 12.519.087 10.004c0-2.544 1.686-5.06 5.03-7.003C11.805-.857 22.58-.886 29.212 2.944c3.287 1.915 4.944 4.402 4.944 6.917 0 2.544-1.686 5.06-5.03 7.003-6.66 3.887-17.464 3.887-24.095.057z" transform="translate(522 -80) translate(123.192 314.982)"/>
                        <path fill="#1A82FF" d="M17.007 17.75c-4.173 0-8.06-.915-10.976-2.601-2.544-1.458-3.944-3.287-3.944-5.145 0-1.858 1.457-3.773 4.001-5.23 2.944-1.687 6.889-2.63 11.09-2.63 4.173 0 8.06.914 10.976 2.6 2.544 1.458 3.944 3.288 3.944 5.146 0 1.857-1.457 3.773-4.001 5.23-2.916 1.687-6.86 2.63-11.09 2.63z" transform="translate(522 -80) translate(123.192 314.982)"/>
                        <path fill="#0F7CE8" d="M6.145 5.173c2.944-1.686 6.889-2.63 11.09-2.63 4.173 0 8.06.916 10.976 2.602 2.458 1.4 3.83 3.173 3.916 4.945v-.2c0-1.858-1.4-3.688-3.944-5.145-2.887-1.658-6.775-2.601-10.976-2.601-4.23 0-8.175.943-11.09 2.63-2.544 1.486-4.002 3.372-4.002 5.23v.2c.114-1.772 1.572-3.601 4.03-5.03z" transform="translate(522 -80) translate(123.192 314.982)"/>
                    </g>
                    <path fill="#FFF" d="M15.263 13.863V11.89c-.4-.143-.8-.343-1.2-.571-2.144-1.23-2.401-2.573-.715-3.545.715-.4 1.544-.628 2.401-.628l-.029 6.802c.43.058.887.115 1.315.143H17.836c1.657-.028 3.172-.428 4.43-1.172 1.458-.857 2.144-1.886 2-3-.142-1.058-1.057-2.116-2.572-3.002-1-.572-2.143-1-3.344-1.258v1.973c.372.142.772.343 1.143.543 1 .571 1.572 1.143 1.773 1.715.228.657-.143 1.286-1.058 1.829-.715.4-1.515.629-2.372.629l.028-6.803c-.457-.086-.914-.114-1.372-.143h-.6-.114c-1.658.029-3.202.429-4.488 1.172-1.458.858-2.144 1.886-2 3.03.142 1.057 1.057 2.143 2.572 3.001 1.029.572 2.2 1 3.401 1.258z" transform="translate(522 -80) translate(123.192 314.982)"/>
                </g>
                <g fill-rule="nonzero">
                    <g>
                        <path fill="#111D28" d="M5.202 22.323C1.915 20.408.257 17.921.257 15.406c0-2.544 1.687-5.06 5.03-7.003 6.69-3.858 17.465-3.887 24.096-.057 3.287 1.915 4.945 4.402 4.945 6.917 0 2.544-1.687 5.06-5.03 7.003-6.66 3.859-17.436 3.887-24.096.057z" opacity=".2" transform="translate(522 -80) translate(2.858 287.828)"/>
                        <path fill="#005EBC" d="M34.356 9.832v2.973c0 2.544-1.686 5.06-5.03 7.003-6.688 3.858-17.464 3.887-24.095.057C1.944 17.95.286 15.463.286 12.948V9.832h34.07z" transform="translate(522 -80) translate(2.858 287.828)"/>
                        <path fill="#40A0FF" d="M5.202 16.892C1.915 14.977.257 12.491.257 9.975c0-2.543 1.687-5.059 5.03-7.002 6.69-3.86 17.465-3.888 24.096-.058 3.287 1.915 4.945 4.402 4.945 6.917 0 2.544-1.687 5.06-5.03 7.003-6.66 3.859-17.436 3.887-24.096.057z" transform="translate(522 -80) translate(2.858 287.828)"/>
                        <path fill="#1A82FF" d="M17.207 17.721c-4.173 0-8.06-.914-10.976-2.6-2.544-1.458-3.944-3.288-3.944-5.146s1.457-3.773 4.001-5.23c2.944-1.687 6.889-2.63 11.09-2.63 4.173 0 8.06.915 10.976 2.601 2.544 1.458 3.944 3.287 3.944 5.145 0 1.858-1.457 3.773-4.001 5.23-2.944 1.687-6.889 2.63-11.09 2.63z" transform="translate(522 -80) translate(2.858 287.828)"/>
                        <path fill="#0F7CE8" d="M6.317 5.145c2.944-1.686 6.888-2.63 11.09-2.63 4.173 0 8.06.915 10.976 2.601 2.458 1.4 3.83 3.173 3.915 4.945v-.2c0-1.858-1.4-3.687-3.944-5.145-2.887-1.658-6.774-2.6-10.976-2.6-4.23 0-8.174.942-11.09 2.629-2.544 1.486-4.001 3.372-4.001 5.23v.2c.114-1.8 1.572-3.63 4.03-5.03z" transform="translate(522 -80) translate(2.858 287.828)"/>
                    </g>
                    <path fill="#FFF" d="M15.463 13.805v-1.972c-.4-.143-.8-.343-1.2-.571-2.144-1.23-2.401-2.573-.715-3.545.715-.4 1.544-.628 2.401-.628l-.028 6.802c.428.057.886.115 1.314.143H18.036c1.657-.028 3.172-.429 4.43-1.172 1.458-.857 2.144-1.886 2-3.001-.142-1.058-1.057-2.115-2.572-3.001-1-.572-2.143-1-3.344-1.258v1.972c.372.143.772.343 1.143.543 1 .572 1.573 1.144 1.773 1.715.228.658-.143 1.287-1.058 1.83-.715.4-1.515.629-2.372.629l.028-6.803c-.457-.086-.914-.114-1.372-.143h-.6-.114c-1.658.029-3.202.429-4.488 1.172-1.457.857-2.143 1.886-2 3.03.142 1.057 1.057 2.143 2.572 3 1 .572 2.172 1.001 3.401 1.258z" transform="translate(522 -80) translate(2.858 287.828)"/>
                </g>
                <path fill="#111D28" fill-rule="nonzero" d="M102.183 158.205L137.311 137.912 146.401 143.171 111.273 163.436z" transform="translate(522 -80)"/>
                <g transform="translate(522 -80) translate(98.472 126.546)">
                    <mask id="prefix__f" fill="#fff">
                        <use xlink:href="#prefix__e"/>
                    </mask>
                    <g fill-rule="nonzero" mask="url(#prefix__f)">
                        <g>
                            <path fill="#005EBC" d="M3.687 31.04c-2.23-1.285-3.63-4.03-3.63-7.945 0-7.832 5.545-17.378 12.348-21.323C15.835-.2 18.95-.4 21.208.915l3.487 2c-2.229-1.314-5.344-1.114-8.803.858C9.061 7.717 3.544 17.264 3.544 25.096c0 3.915 1.372 6.66 3.63 7.946L3.687 31.04z" transform="translate(11.285 7.793)"/>
                            <path fill="#40A0FF" d="M3.544 25.124c0-7.831 5.545-17.378 12.348-21.322 3.43-1.973 6.545-2.173 8.803-.858 2.201 1.286 3.573 4.03 3.573 7.917 0 7.832-5.545 17.379-12.347 21.323-3.402 1.972-6.517 2.172-8.747.886-2.23-1.286-3.63-4.03-3.63-7.946z" transform="translate(11.285 7.793)"/>
                            <path fill="#1A82FF" d="M5.86 23.78c0-6.373 4.516-14.148 10.06-17.349 5.546-3.201 10.062-.629 10.062 5.745 0 6.374-4.516 14.149-10.061 17.35-5.545 3.201-10.062.629-10.062-5.745z" transform="translate(11.285 7.793)"/>
                            <path fill="#0F7CE8" d="M6.145 23.952c0-6.374 4.516-14.148 10.061-17.35 2.716-1.571 5.145-1.743 6.975-.8-1.83-1.143-4.402-1-7.26.63-5.545 3.2-10.062 10.975-10.062 17.349 0 3.258 1.172 5.545 3.087 6.545-1.715-1.086-2.8-3.287-2.8-6.374z" transform="translate(11.285 7.793)"/>
                            <path fill="#FFF" d="M20.35 12.205l-1.743 3.001c.058.343.115.772.115 1.23 0 2.514-1.03 4.63-2.773 5.63-.714.429-1.343.514-1.8.257l6.03-10.404c-.171-.229-.343-.429-.543-.6-.085-.057-.171-.115-.285-.172 0 0-.03 0-.03-.028-.028-.029-.056-.029-.085-.057-.886-.43-2-.286-3.287.457-1.486.857-2.772 2.258-3.687 4.03-.857 1.658-1.343 3.573-1.343 5.345 0 1.172.2 2.172.6 2.915l1.743-3.03c-.057-.342-.085-.743-.085-1.2 0-1.172.2-2.23.6-3.144.486-1.086 1.229-1.944 2.144-2.487.714-.428 1.314-.486 1.772-.285l-6.031 10.375c.171.257.343.457.571.629.058.028.086.057.143.086l.172.085h.028c.029 0 .029.029.058.029.886.457 2 .314 3.315-.457 1.486-.858 2.773-2.258 3.687-4.03.858-1.658 1.344-3.573 1.344-5.345 0-1.115-.229-2.116-.63-2.83z" transform="translate(11.285 7.793)"/>
                        </g>
                    </g>
                </g>
                <g fill-rule="nonzero">
                    <path fill="url(#prefix__g)" d="M24.867.143L.229 22.809v60.024s1.029 2.972 2.2 4.373c1.172 1.4 4.917 3.087 4.917 3.087l17.521-30.126V.143z" transform="translate(522 -80) translate(96.038 46.59)"/>
                    <path fill="#005EBC" d="M3.83 88.263C1.6 86.977.2 84.233.2 80.317c0-7.831 5.545-17.378 12.348-21.322 3.43-1.972 6.545-2.173 8.803-.858l3.487 2.001c-2.23-1.315-5.345-1.115-8.803.858-6.774 3.973-12.32 13.52-12.32 21.35 0 3.917 1.373 6.66 3.63 7.947l-3.515-2.03z" transform="translate(522 -80) translate(96.038 46.59)"/>
                    <path fill="#40A0FF" d="M3.716 82.347c0-7.832 5.545-17.378 12.347-21.323 3.43-1.972 6.546-2.172 8.804-.857 2.2 1.286 3.573 4.03 3.573 7.917 0 7.832-5.545 17.378-12.348 21.323-3.401 1.972-6.517 2.172-8.746.886-2.258-1.286-3.63-4.03-3.63-7.946z" transform="translate(522 -80) translate(96.038 46.59)"/>
                    <path fill="#1A82FF" d="M6.031 81.032c0-6.374 4.516-14.148 10.061-17.35 5.545-3.201 10.061-.629 10.061 5.745 0 6.374-4.516 14.149-10.06 17.35-5.575 3.173-10.062.629-10.062-5.745z" transform="translate(522 -80) translate(96.038 46.59)"/>
                    <path fill="#0F7CE8" d="M6.317 81.175c0-6.374 4.516-14.149 10.06-17.35 2.716-1.572 5.146-1.743 6.975-.8-1.83-1.143-4.402-1-7.26.629-5.545 3.201-10.061 10.975-10.061 17.35 0 3.258 1.172 5.544 3.087 6.545-1.744-1.058-2.801-3.259-2.801-6.374z" transform="translate(522 -80) translate(96.038 46.59)"/>
                    <path fill="#FFF" d="M20.494 69.427L18.75 72.43c.057.343.115.771.115 1.229 0 2.515-1.03 4.63-2.773 5.63-.714.43-1.343.515-1.8.258l6.03-10.376c-.171-.228-.343-.429-.543-.6-.086-.057-.171-.114-.286-.172 0 0-.028 0-.028-.028-.029-.029-.057-.029-.086-.057-.886-.429-2-.286-3.287.457-1.486.858-2.772 2.258-3.687 4.03-.858 1.658-1.343 3.573-1.343 5.345 0 1.172.2 2.172.6 2.916l1.743-3.03c-.057-.343-.085-.743-.085-1.2 0-1.173.2-2.23.6-3.145.486-1.086 1.229-1.943 2.143-2.486.715-.43 1.315-.486 1.773-.286l-6.031 10.375c.171.257.343.458.571.63.057.028.086.056.143.085l.172.086h.028c.029 0 .029.028.057.028.887.457 2.001.315 3.316-.457 1.486-.858 2.773-2.258 3.687-4.03.858-1.658 1.344-3.573 1.344-5.345 0-1.115-.229-2.115-.63-2.859z" transform="translate(522 -80) translate(96.038 46.59)"/>
                </g>
                <g fill-rule="nonzero">
                    <path fill="url(#prefix__h)" d="M24.753.229L.114 22.895v60.023s1.03 2.973 2.201 4.374c1.172 1.4 4.916 3.087 4.916 3.087l17.522-30.127V.23z" transform="translate(522 -80) translate(111.473)"/>
                    <path fill="#005EBC" d="M3.744 88.378c-2.23-1.286-3.63-4.03-3.63-7.946 0-7.832 5.545-17.379 12.348-21.323 3.43-1.972 6.546-2.172 8.804-.857l3.487 2c-2.23-1.314-5.345-1.114-8.804.858C9.118 65.054 3.601 74.6 3.601 82.433c0 3.915 1.372 6.66 3.63 7.946l-3.487-2.001z" transform="translate(522 -80) translate(111.473)"/>
                    <path fill="#40A0FF" d="M3.601 82.433c0-7.832 5.545-17.379 12.348-21.323 3.43-1.972 6.546-2.172 8.804-.858 2.2 1.287 3.572 4.03 3.572 7.918 0 7.831-5.545 17.378-12.347 21.322-3.402 1.973-6.517 2.173-8.747.887-2.258-1.287-3.63-4.03-3.63-7.946z" transform="translate(522 -80) translate(111.473)"/>
                    <path fill="#1A82FF" d="M5.917 81.118c0-6.374 4.516-14.149 10.06-17.35 5.546-3.201 10.062-.629 10.062 5.745 0 6.374-4.516 14.149-10.061 17.35-5.545 3.201-10.061.629-10.061-5.745z" transform="translate(522 -80) translate(111.473)"/>
                    <path fill="#0F7CE8" d="M6.202 81.26c0-6.373 4.517-14.148 10.062-17.349 2.715-1.572 5.144-1.744 6.974-.8-1.83-1.144-4.402-1-7.26.628-5.545 3.202-10.061 10.976-10.061 17.35 0 3.259 1.172 5.545 3.087 6.546-1.744-1.058-2.802-3.259-2.802-6.374z" transform="translate(522 -80) translate(111.473)"/>
                    <path fill="#FFF" d="M20.38 69.513l-1.744 3.001c.057.343.114.772.114 1.23 0 2.515-1.029 4.63-2.772 5.63-.715.429-1.344.515-1.801.257l6.031-10.404c-.172-.228-.343-.428-.543-.6-.086-.057-.172-.114-.286-.171 0 0-.028 0-.028-.029-.03-.029-.058-.029-.086-.057-.886-.429-2.001-.286-3.287.457-1.487.858-2.773 2.258-3.687 4.03-.858 1.658-1.344 3.573-1.344 5.345 0 1.172.2 2.173.6 2.916l1.744-3.03c-.057-.343-.086-.743-.086-1.2 0-1.172.2-2.23.6-3.145.486-1.086 1.23-1.943 2.144-2.486.715-.429 1.315-.486 1.772-.286L11.72 81.432c.171.257.343.457.572.629.057.029.085.057.142.086l.172.085h.029c.028 0 .028.03.057.03.886.456 2 .313 3.315-.458 1.487-.858 2.773-2.258 3.687-4.03.858-1.658 1.344-3.573 1.344-5.345-.029-1.172-.229-2.173-.658-2.916z" transform="translate(522 -80) translate(111.473)"/>
                </g>
            </g>
        </g>
        <g fill="#FFF" mask="url(#prefix__b)">
            <g>
                <path d="M12.12 4.284L9.88 6.526c.09.444.136.932.136 1.458 0 2.835-1.332 4.528-3.562 4.528-.93 0-1.716-.299-2.308-.866l7.765-7.764c-.208-.368-.445-.712-.712-1.027-.112-.132-.23-.256-.35-.376v-.001l-.048-.046c-.036-.035-.071-.072-.107-.106l-.002.002C9.564 1.277 8.115.722 6.454.722c-1.92 0-3.558.738-4.736 2.133C.61 4.167 0 5.989 0 7.984c0 1.325.27 2.574.776 3.647L3.03 9.378c-.078-.427-.118-.892-.118-1.394 0-1.305.265-2.36.789-3.137.614-.909 1.566-1.39 2.753-1.39.923 0 1.693.29 2.277.832L.982 12.038c.213.386.459.747.736 1.075.056.065.113.127.17.19l.002.002c.066.073.134.143.204.211l.025.026c.022.022.043.045.066.066l.002-.002c1.129 1.074 2.589 1.64 4.267 1.64 1.92 0 3.562-.739 4.745-2.133 1.114-1.314 1.728-3.136 1.728-5.129 0-1.346-.281-2.614-.806-3.7zm50.767-3.212v13.839h-2.589l-3.934-5.338c-1.246-1.7-2.768-3.875-2.788-3.875h-.02c-.02 0 .02 1.997.02 4.744v4.469h-2.748V1.072h2.59l4.013 5.397c.949 1.246 2.689 3.716 2.708 3.716h.02c.02 0-.02-2.253-.02-4.586V1.072h2.748zM45.961 14.911h2.748V1.072h-2.748v13.839zm-4.304-1.444c-.751.85-2.392 1.72-4.191 1.72-3.974 0-7.176-3.025-7.176-7.196 0-4.171 3.202-7.196 7.176-7.196 2.748.02 5.041 1.443 6.287 3.657l-2.807.732c-.752-1.028-2.116-1.68-3.48-1.68-2.59 0-4.31 1.858-4.31 4.487 0 2.748 1.898 4.508 4.468 4.508 2.373 0 3.618-1.305 4.053-2.373v-.593h-3.836V7.3h6.188v7.612h-2.372c0-1.147.02-1.424.02-1.444h-.02zm-15.474 1.444h2.748V1.072h-2.748v13.839zm-9.345-7.177h2.452c1.521 0 2.234-.989 2.234-2.036 0-1.087-.732-2.056-2.234-2.056h-2.452v4.092zm5.002 7.177l-2.748-4.726h-2.254v4.726H14.09V1.072h4.844c3.4 0 5.436 1.838 5.436 4.626 0 1.898-.929 3.282-2.61 3.974l3.164 5.239H21.84zM4.763 20.66c-.25-.661-.433-1.162-.445-1.174h-.034c-.011.012-.193.501-.444 1.162l-.57 1.595h2.063l-.57-1.583zm-2.12 3.327l-.478 1.322H.148l3.077-7.976H5.4l3.088 7.976H6.44l-.48-1.322H2.644zM11.191 19.11L11.191 20.637 14.142 20.637 14.142 22.414 11.191 22.414 11.191 25.309 9.276 25.309 9.276 17.333 14.986 17.333 14.986 19.11zM17.949 19.11L17.949 20.637 20.9 20.637 20.9 22.414 17.949 22.414 17.949 25.309 16.034 25.309 16.034 17.333 21.744 17.333 21.744 19.11zM22.793 25.309L24.706 25.309 24.706 17.332 22.793 17.332zM25.983 17.333L27.898 17.333 27.898 23.532 31.476 23.532 31.476 25.309 25.983 25.309zM32.468 25.309L34.383 25.309 34.383 17.332 32.468 17.332zM39.784 20.66c-.25-.661-.433-1.162-.445-1.174h-.033c-.012.012-.194.501-.445 1.162l-.57 1.595h2.063l-.57-1.583zm-2.12 3.327l-.478 1.322h-2.017l3.077-7.976h2.176l3.088 7.976h-2.05l-.48-1.322h-3.315zM47.112 19.11L47.112 25.309 45.198 25.309 45.198 19.11 42.759 19.11 42.759 17.333 49.55 17.333 49.55 19.11zM50.543 17.333L56.354 17.333 56.354 19.11 52.457 19.11 52.457 20.477 55.329 20.477 55.329 22.073 52.457 22.073 52.457 23.532 56.411 23.532 56.411 25.309 50.543 25.309zM59.022 22.825c.16.604.718.957 1.583.957.73 0 1.174-.25 1.174-.763 0-.764-.957-.719-1.937-.958-1.083-.262-2.427-.763-2.427-2.45 0-1.629 1.23-2.438 3.02-2.438 1.63 0 2.791.661 3.236 2.085l-1.823.49c-.194-.58-.65-.9-1.448-.9-.73 0-1.036.285-1.036.707 0 .671.763.775 1.88 1.002 1.174.228 2.472.73 2.472 2.45 0 1.64-1.15 2.461-3.099 2.461-1.39 0-2.963-.422-3.418-2.153l1.823-.49z" transform="translate(743 220)"/>
            </g>
        </g>
        <g fill-rule="nonzero" mask="url(#prefix__b)">
            <g>
                <path fill="#000" d="M5.679 80.743c1.073 0 1.98-.196 2.72-.587.739-.392 1.29-.91 1.653-1.556.362-.645.544-1.345.544-2.1 0-.971-.214-1.755-.642-2.35-.428-.594-.95-1.047-1.567-1.359-.616-.312-1.41-.62-2.382-.925-.769-.26-1.374-.49-1.817-.685-.442-.196-.808-.464-1.099-.805-.29-.34-.435-.772-.435-1.295 0-.667.21-1.178.631-1.533.42-.356.98-.533 1.676-.533.768 0 1.374.206 1.816.62.443.413.715.91.816 1.49h2.676c-.13-1.218-.656-2.205-1.577-2.959-.921-.754-2.165-1.131-3.731-1.131-.987 0-1.857.17-2.611.511-.755.34-1.335.823-1.74 1.447-.407.624-.61 1.349-.61 2.176 0 .942.21 1.704.63 2.284.422.58.933 1.023 1.535 1.327.602.305 1.381.61 2.339.914.783.261 1.4.493 1.849.696.45.203.827.482 1.131.838.305.355.457.808.457 1.36 0 .638-.206 1.16-.62 1.566-.413.406-.997.61-1.751.61-.842 0-1.512-.24-2.013-.719-.5-.478-.787-1.051-.86-1.719H.045c.072.87.355 1.64.848 2.307s1.153 1.185 1.98 1.555c.827.37 1.762.555 2.807.555zm13.423-.152v-2.154h-1.196c-.638 0-1.084-.13-1.338-.392-.254-.26-.381-.732-.381-1.414v-5.918h2.894v-2.11h-2.894v-2.98h-2.502v2.98h-1.719v2.11h1.719v5.875c0 1.436.33 2.462.99 3.078.66.617 1.628.925 2.904.925h1.523zm11.46-9.44c-.327-.776-.84-1.408-1.538-1.895-.77-.537-1.698-.805-2.785-.805-1.045 0-1.977.246-2.796.74-.82.492-1.461 1.203-1.926 2.131-.464.929-.696 2.017-.696 3.264 0 1.262.232 2.357.696 3.285.465.929 1.106 1.64 1.926 2.132.82.494 1.751.74 2.796.74 1.087 0 2.016-.268 2.785-.805.768-.537 1.312-1.247 1.631-2.132v2.785h2.48V68.603h-2.48v2.784l-.092-.236zM27 78.546c-1.102 0-1.983-.352-2.643-1.056-.66-.703-.99-1.671-.99-2.904 0-1.233.33-2.201.99-2.905.66-.703 1.54-1.055 2.643-1.055.696 0 1.32.163 1.871.49.551.326.987.79 1.306 1.392.319.602.478 1.295.478 2.078 0 .798-.16 1.494-.478 2.089-.32.594-.755 1.055-1.306 1.381-.551.326-1.175.49-1.87.49zm11.596 2.045v-6.07c0-1.219.33-2.093.99-2.622.66-.53 1.534-.794 2.622-.794h.74v-2.698c-.986 0-1.857.228-2.611.685-.754.457-1.334 1.077-1.74 1.86v-2.35h-2.48v11.989h2.48zm12.228 0v-2.154h-1.197c-.638 0-1.084-.13-1.338-.392-.254-.26-.38-.732-.38-1.414v-5.918h2.893v-2.11h-2.894v-2.98h-2.502v2.98h-1.718v2.11h1.718v5.875c0 1.436.33 2.462.99 3.078.66.617 1.628.925 2.905.925h1.523zm9.9 0v-6.07c0-1.219.33-2.093.989-2.622.66-.53 1.534-.794 2.622-.794h.74v-2.698c-.987 0-1.857.228-2.611.685-.755.457-1.335 1.077-1.74 1.86v-2.35h-2.481v11.989h2.48zm11.53.152c1.001 0 1.908-.185 2.72-.555.812-.37 1.472-.88 1.98-1.534.507-.652.84-1.4 1-2.24H75.3c-.13.696-.482 1.254-1.055 1.675-.573.42-1.273.63-2.1.63-.942 0-1.733-.297-2.371-.891-.638-.595-.98-1.509-1.023-2.742h9.225c.058-.304.087-.66.087-1.066 0-1.044-.235-1.99-.707-2.839-.471-.849-1.146-1.516-2.023-2.002-.878-.486-1.904-.728-3.079-.728-1.16 0-2.186.246-3.078.74-.892.492-1.592 1.203-2.1 2.131-.508.929-.761 2.017-.761 3.264 0 1.262.253 2.357.761 3.285.508.929 1.208 1.64 2.1 2.132.892.494 1.918.74 3.078.74zm3.307-6.788h-6.81c.058-1.16.414-2.038 1.066-2.633.653-.594 1.465-.892 2.437-.892.61 0 1.171.127 1.686.381.515.254.921.646 1.219 1.175.297.53.431 1.186.402 1.969zm7.854 6.636v-9.856h2.633v-2.132h-2.633v-.196c0-.856.196-1.461.588-1.817.391-.355 1.073-.51 2.045-.467v-2.176c-1.712-.087-2.995.236-3.851.968-.856.733-1.284 1.831-1.284 3.296v.392h-1.631v2.132h1.631v9.856h2.502zm9.965.152c1 0 1.907-.185 2.72-.555.812-.37 1.472-.88 1.98-1.534.507-.652.84-1.4 1-2.24h-2.654c-.13.696-.482 1.254-1.055 1.675-.573.42-1.273.63-2.1.63-.943 0-1.733-.297-2.371-.891-.638-.595-.98-1.509-1.023-2.742h9.225c.058-.304.087-.66.087-1.066 0-1.044-.236-1.99-.707-2.839s-1.146-1.516-2.023-2.002c-.878-.486-1.904-.728-3.079-.728-1.16 0-2.187.246-3.079.74-.892.492-1.591 1.203-2.1 2.131-.507.929-.76 2.017-.76 3.264 0 1.262.253 2.357.76 3.285.509.929 1.208 1.64 2.1 2.132.892.494 1.919.74 3.079.74zm3.307-6.788h-6.81c.058-1.16.414-2.038 1.066-2.633.653-.594 1.465-.892 2.437-.892.61 0 1.171.127 1.686.381.515.254.921.646 1.219 1.175.297.53.431 1.186.402 1.969zm7.376 6.636v-6.07c0-1.219.33-2.093.99-2.622.66-.53 1.533-.794 2.621-.794h.74v-2.698c-.986 0-1.857.228-2.61.685-.755.457-1.335 1.077-1.741 1.86v-2.35h-2.48v11.989h2.48zm8.68 0v-6.07c0-1.219.33-2.093.99-2.622.66-.53 1.534-.794 2.622-.794h.74v-2.698c-.986 0-1.857.228-2.61.685-.755.457-1.335 1.077-1.741 1.86v-2.35h-2.48v11.989h2.48zm7.441-14.055c.479 0 .867-.13 1.164-.392.298-.26.446-.602.446-1.022 0-.42-.148-.769-.446-1.045-.297-.275-.685-.413-1.164-.413-.478 0-.863.138-1.153.413-.29.276-.435.624-.435 1.045 0 .42.145.761.435 1.022.29.261.675.392 1.153.392zm1.24 14.055V68.603h-2.48V80.59h2.48zm5.483 0v-6.375c0-1.218.298-2.143.892-2.774.595-.63 1.385-.946 2.372-.946.957 0 1.711.293 2.262.88.552.588.827 1.419.827 2.492v6.723h2.48v-6.984c0-1.668-.42-2.952-1.261-3.851-.842-.9-1.959-1.349-3.351-1.349-.986 0-1.857.247-2.61.74-.755.493-1.292 1.19-1.61 2.088v-2.632h-2.481V80.59h2.48zm20.86-9.44c-.328-.776-.841-1.408-1.54-1.895-.769-.537-1.697-.805-2.785-.805-1.044 0-1.976.246-2.795.74-.82.492-1.462 1.203-1.926 2.131-.464.929-.696 2.017-.696 3.264 0 1.262.232 2.357.696 3.285.464.929 1.106 1.64 1.926 2.132.82.494 1.751.74 2.795.74 1.088 0 2.016-.268 2.785-.805.769-.537 1.313-1.247 1.632-2.132v2.915c0 1.16-.32 2.045-.957 2.655-.639.609-1.45.913-2.437.913-.9 0-1.64-.199-2.22-.598-.58-.399-.971-.954-1.174-1.664h-2.459c.261 1.363.91 2.444 1.948 3.242 1.037.797 2.396 1.196 4.079 1.196 1.175 0 2.19-.246 3.046-.74.856-.493 1.512-1.17 1.969-2.034.457-.863.685-1.853.685-2.97V68.603h-2.48v2.784l-.093-.236zm-3.563 7.395c-1.103 0-1.984-.352-2.644-1.056-.66-.703-.99-1.671-.99-2.904 0-1.233.33-2.201.99-2.905.66-.703 1.541-1.055 2.644-1.055.696 0 1.32.163 1.87.49.552.326.987.79 1.306 1.392.32.602.479 1.295.479 2.078 0 .798-.16 1.494-.479 2.089-.319.594-.754 1.055-1.305 1.381-.551.326-1.175.49-1.871.49zm19.537 2.197c1.552 0 2.836-.413 3.851-1.24 1.016-.827 1.647-1.944 1.893-3.35h-2.632c-.145.754-.497 1.348-1.056 1.783-.558.436-1.258.653-2.1.653-.956 0-1.754-.34-2.392-1.022-.639-.682-.958-1.676-.958-2.981s.32-2.295.958-2.97c.638-.674 1.436-1.012 2.393-1.012.841 0 1.54.214 2.1.642.558.428.91 1.02 1.055 1.773h2.632c-.246-1.406-.877-2.52-1.893-3.34-1.015-.819-2.299-1.228-3.85-1.228-1.161 0-2.187.246-3.08.74-.891.492-1.591 1.203-2.099 2.131-.507.929-.761 2.017-.761 3.264 0 1.262.254 2.357.761 3.285.508.929 1.208 1.64 2.1 2.132.892.494 1.918.74 3.078.74zm12.467.022c1 0 1.878-.243 2.633-.729.754-.486 1.283-1.171 1.588-2.056v2.61h2.502V68.604h-2.502v6.353c0 1.218-.298 2.146-.892 2.785-.595.638-1.385.957-2.372.957-.957 0-1.711-.294-2.262-.881-.552-.588-.827-1.425-.827-2.513v-6.701h-2.48v6.962c0 1.668.42 2.952 1.261 3.85.842.9 1.959 1.35 3.351 1.35zm14.49-.022c1.29 0 2.317-.312 3.079-.935.761-.624 1.142-1.436 1.142-2.437 0-.812-.2-1.454-.599-1.926-.398-.471-.877-.816-1.435-1.033-.559-.218-1.288-.428-2.187-.631-.682-.16-1.208-.305-1.577-.435-.37-.13-.678-.312-.925-.544-.247-.232-.37-.537-.37-.914 0-.508.17-.91.511-1.207.341-.298.823-.446 1.447-.446.754 0 1.36.199 1.817.598.457.399.736.925.838 1.577h2.35c-.19-1.204-.708-2.165-1.556-2.882-.849-.718-1.977-1.077-3.384-1.077-1.348 0-2.404.315-3.165.946-.762.63-1.142 1.454-1.142 2.47 0 .783.192 1.403.576 1.86.385.456.849.786 1.393.99.544.203 1.25.406 2.12.609.683.145 1.22.286 1.61.424.393.138.719.33.98.576.261.247.392.58.392 1.001 0 .479-.17.874-.512 1.186-.34.312-.808.468-1.403.468-.827 0-1.494-.203-2.002-.61-.507-.406-.797-.935-.87-1.588h-2.415c.189 1.248.743 2.22 1.664 2.916.922.696 2.129 1.044 3.623 1.044zm12.728-.152v-2.154h-1.197c-.638 0-1.084-.13-1.338-.392-.254-.26-.38-.732-.38-1.414v-5.918h2.893v-2.11h-2.894v-2.98h-2.502v2.98h-1.719v2.11h1.72v5.875c0 1.436.33 2.462.99 3.078.66.617 1.627.925 2.904.925h1.523zm7.81.152c1.16 0 2.205-.246 3.133-.74.929-.493 1.654-1.203 2.176-2.132.522-.928.783-2.023.783-3.285 0-1.247-.26-2.335-.783-3.264-.522-.928-1.247-1.639-2.176-2.132-.928-.493-1.972-.74-3.133-.74-1.16 0-2.2.247-3.122.74-.92.493-1.646 1.204-2.175 2.132-.53.929-.795 2.017-.795 3.264 0 1.247.265 2.339.795 3.274.529.936 1.254 1.65 2.175 2.143.921.494 1.962.74 3.122.74zm0-2.176c-.638 0-1.225-.145-1.762-.435-.537-.29-.968-.732-1.294-1.327-.327-.595-.49-1.334-.49-2.22 0-.87.163-1.605.49-2.207.326-.602.757-1.048 1.294-1.338.537-.29 1.124-.436 1.762-.436.639 0 1.226.146 1.763.436.536.29.968.736 1.294 1.338.327.602.49 1.338.49 2.208 0 .885-.163 1.624-.49 2.22-.326.594-.758 1.036-1.294 1.326-.537.29-1.124.435-1.763.435zm10.966 2.024v-6.375c0-1.19.286-2.092.86-2.709.572-.616 1.344-.924 2.316-.924.914 0 1.632.286 2.154.86.522.572.783 1.38.783 2.425v6.723h2.48v-6.375c0-1.19.287-2.092.86-2.709.573-.616 1.345-.924 2.317-.924.914 0 1.632.286 2.154.86.522.572.783 1.38.783 2.425v6.723h2.48v-6.984c0-1.668-.424-2.952-1.272-3.851-.849-.9-1.984-1.349-3.405-1.349-.972 0-1.842.254-2.61.762-.77.507-1.328 1.21-1.676 2.11-.334-.928-.867-1.64-1.6-2.132-.732-.493-1.598-.74-2.6-.74-.957 0-1.79.232-2.501.696-.711.464-1.219 1.132-1.523 2.002v-2.502h-2.48V80.59h2.48zm25.412.152c1 0 1.907-.185 2.72-.555.811-.37 1.471-.88 1.98-1.534.507-.652.84-1.4 1-2.24h-2.654c-.13.696-.483 1.254-1.056 1.675-.573.42-1.272.63-2.1.63-.942 0-1.732-.297-2.37-.891-.639-.595-.98-1.509-1.023-2.742h9.225c.058-.304.087-.66.087-1.066 0-1.044-.236-1.99-.707-2.839-.472-.849-1.146-1.516-2.024-2.002-.877-.486-1.903-.728-3.078-.728-1.16 0-2.187.246-3.079.74-.892.492-1.592 1.203-2.1 2.131-.507.929-.76 2.017-.76 3.264 0 1.262.253 2.357.76 3.285.508.929 1.208 1.64 2.1 2.132.892.494 1.918.74 3.079.74zm3.307-6.788h-6.81c.058-1.16.413-2.038 1.066-2.633.653-.594 1.465-.892 2.437-.892.609 0 1.17.127 1.686.381.515.254.92.646 1.218 1.175.298.53.432 1.186.403 1.969zm7.375 6.636v-6.07c0-1.219.33-2.093.99-2.622.66-.53 1.534-.794 2.622-.794h.74v-2.698c-.987 0-1.857.228-2.611.685-.754.457-1.335 1.077-1.74 1.86v-2.35h-2.481v11.989h2.48zm10.987.152c1.291 0 2.317-.312 3.079-.935.761-.624 1.142-1.436 1.142-2.437 0-.812-.2-1.454-.598-1.926-.399-.471-.878-.816-1.436-1.033-.558-.218-1.287-.428-2.187-.631-.681-.16-1.207-.305-1.577-.435-.37-.13-.678-.312-.925-.544-.246-.232-.37-.537-.37-.914 0-.508.17-.91.512-1.207.34-.298.823-.446 1.447-.446.754 0 1.36.199 1.816.598.457.399.736.925.838 1.577h2.35c-.189-1.204-.707-2.165-1.556-2.882-.848-.718-1.976-1.077-3.383-1.077-1.35 0-2.404.315-3.166.946-.761.63-1.142 1.454-1.142 2.47 0 .783.192 1.403.577 1.86.384.456.848.786 1.392.99.544.203 1.251.406 2.121.609.682.145 1.219.286 1.61.424.392.138.718.33.98.576.26.247.391.58.391 1.001 0 .479-.17.874-.511 1.186-.341.312-.809.468-1.404.468-.826 0-1.494-.203-2.001-.61-.508-.406-.798-.935-.87-1.588h-2.416c.189 1.248.744 2.22 1.665 2.916.92.696 2.128 1.044 3.622 1.044zm17.82-.152v-2.154h-1.197c-.639 0-1.085-.13-1.339-.392-.253-.26-.38-.732-.38-1.414v-5.918h2.893v-2.11h-2.893v-2.98h-2.502v2.98h-1.72v2.11h1.72v5.875c0 1.436.33 2.462.99 3.078.66.617 1.628.925 2.904.925h1.523zm7.81.152c1.16 0 2.205-.246 3.133-.74.928-.493 1.653-1.203 2.175-2.132.523-.928.784-2.023.784-3.285 0-1.247-.261-2.335-.784-3.264-.522-.928-1.247-1.639-2.175-2.132-.928-.493-1.973-.74-3.133-.74s-2.201.247-3.122.74c-.921.493-1.647 1.204-2.176 2.132-.53.929-.794 2.017-.794 3.264 0 1.247.265 2.339.794 3.274.53.936 1.255 1.65 2.176 2.143.92.494 1.961.74 3.122.74zm0-2.176c-.638 0-1.226-.145-1.762-.435-.537-.29-.969-.732-1.295-1.327-.326-.595-.49-1.334-.49-2.22 0-.87.164-1.605.49-2.207.326-.602.758-1.048 1.295-1.338.536-.29 1.124-.436 1.762-.436.638 0 1.225.146 1.762.436.537.29.968.736 1.295 1.338.326.602.49 1.338.49 2.208 0 .885-.164 1.624-.49 2.22-.327.594-.758 1.036-1.295 1.326-.537.29-1.124.435-1.762.435zm17.6-7.416c-.316-.776-.823-1.408-1.522-1.895-.769-.537-1.697-.805-2.785-.805-1.044 0-1.976.246-2.796.74-.819.492-1.46 1.203-1.925 2.131-.464.929-.696 2.017-.696 3.264 0 1.262.232 2.357.696 3.285.464.929 1.106 1.64 1.925 2.132.82.494 1.752.74 2.796.74 1.088 0 2.016-.268 2.785-.805.769-.537 1.305-1.247 1.61-2.132v2.785h2.502v-16.1h-2.502v6.896l-.089-.236zm-3.545 7.395c-1.103 0-1.984-.352-2.644-1.056-.66-.703-.99-1.671-.99-2.904 0-1.233.33-2.201.99-2.905.66-.703 1.541-1.055 2.644-1.055.696 0 1.32.163 1.87.49.552.326.987.79 1.306 1.392.32.602.479 1.295.479 2.078 0 .798-.16 1.494-.479 2.089-.319.594-.754 1.055-1.305 1.381-.551.326-1.175.49-1.871.49zm18.248-7.395c-.327-.776-.84-1.408-1.54-1.895-.768-.537-1.696-.805-2.784-.805-1.044 0-1.976.246-2.796.74-.82.492-1.461 1.203-1.925 2.131-.464.929-.696 2.017-.696 3.264 0 1.262.232 2.357.696 3.285.464.929 1.106 1.64 1.925 2.132.82.494 1.752.74 2.796.74 1.088 0 2.016-.268 2.785-.805.769-.537 1.313-1.247 1.632-2.132v2.785h2.48V68.603h-2.48v2.784l-.093-.236zm-3.562 7.395c-1.103 0-1.984-.352-2.644-1.056-.66-.703-.99-1.671-.99-2.904 0-1.233.33-2.201.99-2.905.66-.703 1.541-1.055 2.644-1.055.696 0 1.32.163 1.87.49.552.326.987.79 1.306 1.392.32.602.479 1.295.479 2.078 0 .798-.16 1.494-.479 2.089-.32.594-.754 1.055-1.305 1.381-.552.326-1.175.49-1.871.49zm12.967 7.745l7.245-17.688h-2.764l-3.328 8.811-3.59-8.811h-2.785l5.047 11.705-2.589 5.983h2.764zm12.031-10.508l.326-11.031h-2.741l.326 11.03h2.089zm.392 4.808v-2.742h-2.829v2.742h2.829z" transform="translate(77 87)"/>
                <path fill="#FFF" d="M30.721 49.838v-9.51H12.05V29.432h16.59v-8.954h-16.59V10.204h18.672V.764H.18v49.074H30.72zm15.688 0l3.054-8.954h18.394l3.054 8.954h12.634L65.567 1.111H51.892L33.914 49.838H46.41zm18.394-17.977H52.517l6.178-18.048 6.108 18.048zm35.192 17.977V31.305h2.708l10.62 18.533h13.119L114.78 30.542c3.749-.926 6.606-2.638 8.573-5.137 1.967-2.499 2.95-5.53 2.95-9.093 0-3.008-.671-5.68-2.013-8.017-1.342-2.337-3.355-4.177-6.039-5.518-2.684-1.342-5.97-2.013-9.857-2.013H88.126v49.074h11.87zm7.358-26.654h-7.358V10.759h7.358c2.314 0 4.038.555 5.171 1.666 1.134 1.11 1.701 2.638 1.701 4.581 0 2.036-.555 3.575-1.666 4.616-1.11 1.041-2.846 1.562-5.206 1.562zm36.789 26.654V19.713l19.852 30.125h11.87V.764h-11.87v30.402L144.142.764h-11.87v49.074h11.87zm77.118.486c4.58 0 8.757-1.076 12.529-3.227 3.771-2.152 6.756-5.148 8.954-8.99 2.198-3.84 3.297-8.167 3.297-12.98 0-4.812-1.087-9.127-3.262-12.945-2.175-3.818-5.148-6.803-8.92-8.954C230.087 1.076 225.888 0 221.26 0c-4.582 0-8.758 1.076-12.53 3.228-3.77 2.151-6.756 5.136-8.954 8.954-2.198 3.818-3.297 8.133-3.297 12.945 0 4.813 1.1 9.14 3.297 12.98 2.198 3.842 5.183 6.838 8.955 8.99 3.771 2.151 7.947 3.227 12.529 3.227zm0-11.106c-3.887 0-6.976-1.272-9.267-3.817-2.29-2.546-3.436-5.97-3.436-10.274 0-4.35 1.145-7.785 3.436-10.307 2.29-2.522 5.38-3.783 9.267-3.783 3.887 0 6.976 1.272 9.266 3.817s3.436 5.97 3.436 10.273c0 4.304-1.157 7.728-3.47 10.274-2.314 2.545-5.391 3.817-9.232 3.817zm54.558 11.037c4.072 0 7.693-.764 10.863-2.29 3.17-1.528 5.773-3.518 7.81-5.97 2.035-2.453 3.516-5.114 4.442-7.983v-11.73h-24.92v8.537h14.994c-.88 2.87-2.384 5.079-4.512 6.63-2.129 1.55-4.605 2.325-7.427 2.325-4.397 0-7.786-1.25-10.17-3.749-2.383-2.499-3.574-6.085-3.574-10.759 0-4.303 1.134-7.716 3.401-10.238 2.268-2.522 5.275-3.783 9.024-3.783 2.406 0 4.465.52 6.178 1.562 1.712 1.04 2.984 2.44 3.817 4.2h12.564c-.972-5.137-3.448-9.21-7.427-12.218-3.98-3.007-9.047-4.511-15.202-4.511-4.905 0-9.197 1.052-12.876 3.158-3.679 2.105-6.525 5.056-8.537 8.85-2.013 3.795-3.02 8.121-3.02 12.98 0 4.86 1.007 9.186 3.02 12.98 2.012 3.795 4.87 6.745 8.572 8.85 3.702 2.106 8.029 3.159 12.98 3.159zm41.648-.417V19.713l19.852 30.125h11.87V.764h-11.87v30.402L317.466.764h-11.87v49.074h11.87z" transform="translate(77 87)"/>
            </g>
        </g>
    </g>
</svg>
