<svg xmlns="http://www.w3.org/2000/svg" width="18" height="18" viewBox="0 0 18 18">
    <path fill="#FFF" fill-rule="evenodd" d="M9.768 1.412L7.57 3.608c.958-.072 1.93.072 2.834.431l.995-.995c.98-.98 2.574-.98 3.555 0 .98.98.98 2.575 0 3.555l-3.23 3.23c-.982.983-2.58.974-3.554 0-.228-.228-.423-.51-.545-.789L5.94 10.724c.177.268.36.5.597.736.609.61 1.385 1.063 2.277 1.28 1.156.277 2.396.124 3.46-.464.388-.215.754-.486 1.082-.816l3.23-3.228c1.883-1.884 1.883-4.937 0-6.82s-4.936-1.883-6.82 0zM4.64 6.539c.33-.33.694-.601 1.082-.816 2.166-1.193 4.942-.558 6.335 1.552L10.373 8.96C9.89 7.857 8.69 7.23 7.498 7.497c-.45.1-.876.325-1.226.674L3.045 11.4c-.98.98-.98 2.574 0 3.555.98.98 2.575.98 3.554 0l.996-.996c.905.36 1.876.503 2.834.432l-2.196 2.196c-1.884 1.883-4.937 1.883-6.82 0-1.883-1.882-1.883-4.936 0-6.819l3.228-3.23z"/>
</svg>
