<svg xmlns="http://www.w3.org/2000/svg" width="94" height="94" viewBox="0 0 94 94">
    <path fill-rule="evenodd" d="M70.5 45.63v7.413c0 16.086-23.5 9.624-23.5 9.624s5.946 23.5-10.332 23.5H7.833V7.833h49.464L65.373 0H0v94h39.907c12.388 0 38.426-28.29 38.426-37.655V37.988L70.5 45.629zm-50.917 9.203H35.25v-3.916H19.583v3.916zM81.651 3.451L61.53 22.963l10.128 10.462L91.783 13.92C93.26 12.486 94 10.587 94 8.683c0-6.36-7.708-9.737-12.35-5.232zM58.87 26.786l-7.81 7.571c-4.198 4.07-6.34 8.013-8.318 13.516l3.45 3.56c5.558-1.805 9.565-3.822 13.763-7.895l7.81-7.575-8.895-9.177zM39.586 52.448c-.274.27-.42.635-.42 1.003 0 .756.62 1.382 1.387 1.382.349 0 .697-.129.968-.391l2.283-2.221-1.93-1.994-2.288 2.221zM61.93 18.874c-1.292-1.335-1.222-3.435.11-4.727L75.627.967C76.293.325 77.143 0 77.989 0c.857 0 1.715.333 2.365 1.007L61.93 18.874z"/>
</svg>
