<svg xmlns="http://www.w3.org/2000/svg" xmlns:xlink="http://www.w3.org/1999/xlink" width="825" height="260" viewBox="0 0 825 260">
    <defs>
        <path id="prefix__a" d="M0 0L825 0 825 260 0 260z"/>
        <path id="prefix__c" d="M0.504 0.319L73.757 0.319 73.757 920.16 0.504 920.16z"/>
        <path id="prefix__e" d="M0 0.242L97.873 0.242 97.873 56.749 0 56.749z"/>
        <path id="prefix__g" d="M0.146 0.067L98.019 0.067 98.019 56.573 0.146 56.573z"/>
    </defs>
    <g fill="none" fill-rule="evenodd">
        <mask id="prefix__b" fill="#fff">
            <use xlink:href="#prefix__a"/>
        </mask>
        <use fill="#1A82FF" xlink:href="#prefix__a"/>
        <g mask="url(#prefix__b)" opacity=".1">
            <g>
                <g>
                    <path fill="#FFF" d="M909.841 910.16L1805.568 698.735 1819.544 770.644zM909.841 910.16L14.114 1121.585.136 1049.676zM909.841 910.16L1121.265 1805.887 1049.357 1819.864zM909.841 910.16L698.415 14.433 770.324.456zM909.841 910.16L1692.715 1394.034 1651.751 1454.765zM909.841 910.16L126.966 426.286 167.929 365.554zM909.841 910.16L425.966 1693.034 365.235 1652.07zM909.841 910.16L1393.715 127.286 1454.447 168.25zM909.841 910.16L1661.142 378.585 1701.04 440.022zM909.841 910.16L158.538 1441.735 118.641 1380.298zM909.841 910.16L1441.415 1661.462 1379.978 1701.36zM909.841 910.16L378.265 158.858 439.702 118.96zM909.841 910.16L1816.972 1065.53 1801.741 1137.185zM909.841 910.16L2.709 754.789 17.941 683.135zM909.841 910.16L754.47 1817.291 682.816 1802.06zM909.841 910.16L1065.21 3.029 1136.866 18.26z" transform="translate(-475 -695) translate(10 10.68)"/>
                </g>
                <g>
                    <path fill="#FFF" d="M919.841 920.16L1839.68 889.824 1839.179 963.078zM919.841 920.16L.001 950.496.501 877.242zM919.841 920.16L950.177 1840 876.923 1839.499z" transform="translate(-475 -695) translate(0 .68)"/>
                    <g transform="translate(-475 -695) translate(0 .68) translate(889)">
                        <mask id="prefix__d" fill="#fff">
                            <use xlink:href="#prefix__c"/>
                        </mask>
                        <path fill="#FFF" d="M30.84 920.16L0.504 0.319 73.757 0.821z" mask="url(#prefix__d)"/>
                    </g>
                    <path fill="#FFF" d="M919.841 920.16L1591.716 1549.135 1539.564 1600.578zM919.841 920.16L247.964 291.185 300.116 239.742zM919.841 920.16L290.865 1592.036 239.423 1539.884zM919.841 920.16L1548.815 248.284 1600.258 300.436zM919.841 920.16L1761.338 547.455 1788.314 615.562zM919.841 920.16L78.344 1292.865 51.367 1224.758zM919.841 920.16L1292.545 1761.657 1224.438 1788.634zM919.841 920.16L547.135 78.663 615.242 51.686zM919.841 920.16L1778.41 1251.645 1749.326 1318.881zM919.841 920.16L61.27 588.675 90.353 521.439zM919.841 920.16L588.355 1778.73 521.12 1749.647zM919.841 920.16L1251.325 61.59 1318.561 90.673z" transform="translate(-475 -695) translate(0 .68)"/>
                </g>
            </g>
        </g>
        <g mask="url(#prefix__b)">
            <g>
                <path fill="#111D28" d="M123.34 142.87c-9.479-5.472-14.217-12.65-14.226-19.844-.008-7.267 4.809-14.55 14.442-20.112 19.17-11.068 50.155-11.124 69.206-.126 9.478 5.473 14.217 12.65 14.225 19.845.008 7.267-4.809 14.55-14.442 20.112-19.17 11.068-50.155 11.124-69.206.125" opacity=".1" transform="translate(306 155)"/>
                <path fill="#40A0FF" d="M123.34 129.272c-9.479-5.473-14.217-12.65-14.226-19.845-.008-7.266 4.809-14.55 14.442-20.111 19.17-11.069 50.155-11.125 69.206-.126 9.478 5.473 14.217 12.65 14.225 19.845.008 7.266-4.809 14.55-14.442 20.112-19.17 11.068-50.155 11.124-69.206.125" transform="translate(306 155)"/>
                <path fill="#1A82FF" d="M157.744 131.643c-12.005 0-23.185-2.639-31.484-7.43-7.283-4.205-11.298-9.458-11.305-14.793-.006-5.33 4.194-10.815 11.522-15.046 8.439-4.872 19.76-7.555 31.881-7.555 12.003 0 23.185 2.638 31.484 7.43 7.283 4.206 11.298 9.459 11.304 14.792.007 5.332-4.193 10.816-11.521 15.047-8.44 4.872-19.762 7.555-31.881 7.555" transform="translate(306 155)"/>
                <path fill="#0F7CE8" d="M126.477 95.543c8.44-4.873 19.76-7.556 31.882-7.556 12.003 0 23.184 2.639 31.483 7.43 7.017 4.052 10.989 9.077 11.275 14.209.012-.195.029-.39.029-.585-.006-5.333-4.021-10.586-11.304-14.792-8.299-4.791-19.48-7.43-31.483-7.43-12.121 0-23.443 2.683-31.882 7.555-7.328 4.23-11.528 9.715-11.522 15.046 0 .195.017.388.028.583.29-5.145 4.434-10.385 11.494-14.46" transform="translate(306 155)"/>
                <path fill="#FFF" d="M152.737 120.434l.03-5.64c-1.16-.446-2.32-.999-3.465-1.66-6.162-3.557-6.928-7.362-2.05-10.178 2.034-1.175 4.398-1.792 6.924-1.828l-.106 19.546c1.255.2 2.523.332 3.79.39.534.024 1.06.03 1.584.03l.207-.002c.154-.002.31 0 .463-.003v-.005c4.75-.104 9.126-1.239 12.758-3.336 4.2-2.424 6.178-5.417 5.722-8.655-.429-3.045-3.053-6.101-7.39-8.605-2.88-1.663-6.185-2.887-9.624-3.595l-.031 5.671c1.098.437 2.196.97 3.288 1.6 2.836 1.638 4.548 3.296 5.089 4.932.635 1.918-.401 3.723-2.996 5.221-2.02 1.166-4.334 1.772-6.79 1.83l.106-19.506c-1.306-.216-2.626-.357-3.945-.419-.264-.012-.525-.018-.787-.025h-.008c-.302-.006-.604-.009-.903-.007h-.113c-.096 0-.192-.002-.287 0v.005c-4.8.079-9.224 1.212-12.893 3.33-4.201 2.426-6.187 5.423-5.743 8.668.418 3.055 3.035 6.116 7.368 8.617 2.925 1.69 6.294 2.925 9.802 3.624" transform="translate(306 155)"/>
                <path fill="#111D28" d="M137.328 109.296c-9.478-5.472-14.216-12.65-14.225-19.844-.008-7.266 4.809-14.55 14.442-20.112 19.17-11.068 50.155-11.124 69.206-.125 9.478 5.472-5.665 19.339-5.657 26.533.009 7.167 5.83 3.778 5.837 13.191-.13.078-.263.155-.396.232-19.171 11.068-50.156 11.125-69.207.125" opacity=".1" transform="translate(306 155)"/>
                <path fill="#1A82FF" d="M220.976 75.461v8.57c.009 7.266-4.809 14.55-14.442 20.112-19.17 11.068-50.155 11.124-69.206.125-9.478-5.472-14.216-12.65-14.225-19.844V75.46h97.873z" transform="translate(306 155)"/>
                <path fill="#40A0FF" d="M137.328 95.698c-9.478-5.472-14.216-12.65-14.225-19.844-.008-7.267 4.809-14.55 14.442-20.112 19.17-11.068 50.155-11.124 69.206-.125 9.478 5.472 14.217 12.65 14.225 19.844.008 7.266-4.808 14.55-14.441 20.112-19.171 11.068-50.156 11.124-69.207.125" transform="translate(306 155)"/>
                <path fill="#1A82FF" d="M171.733 98.07c-12.005 0-23.185-2.64-31.484-7.43-7.283-4.206-11.298-9.459-11.305-14.794-.006-5.33 4.194-10.815 11.522-15.045 8.439-4.872 19.76-7.556 31.882-7.556 12.002 0 23.184 2.639 31.483 7.43 7.283 4.206 11.298 9.46 11.303 14.792.008 5.332-4.192 10.816-11.52 15.047-8.439 4.873-19.762 7.555-31.881 7.555" transform="translate(306 155)"/>
                <path fill="#0F7CE8" d="M140.466 61.97c8.439-4.874 19.761-7.557 31.881-7.557 12.003 0 23.185 2.64 31.484 7.43 7.017 4.053 10.99 9.078 11.276 14.21.01-.196.027-.39.027-.585-.005-5.334-4.02-10.587-11.303-14.793-8.299-4.79-19.48-7.43-31.484-7.43-12.12 0-23.442 2.683-31.881 7.556-7.328 4.23-11.528 9.715-11.522 15.046 0 .194.017.388.028.582.29-5.145 4.434-10.384 11.494-14.46" transform="translate(306 155)"/>
                <path fill="#FFF" d="M166.726 86.86l.03-5.64c-1.16-.445-2.32-.998-3.466-1.66-6.16-3.557-6.927-7.362-2.05-10.177 2.035-1.175 4.398-1.793 6.925-1.829L168.06 87.1c1.255.2 2.523.332 3.79.39.533.025 1.06.031 1.585.03v.001l.206-.003c.154-.001.31 0 .463-.002v-.005c4.75-.105 9.125-1.24 12.759-3.337 4.198-2.424 6.177-5.417 5.721-8.655-.43-3.045-3.053-6.1-7.39-8.604-2.88-1.664-6.185-2.888-9.625-3.596l-.03 5.671c1.099.437 2.196.97 3.289 1.6 2.835 1.638 4.547 3.297 5.088 4.932.635 1.918-.401 3.724-2.996 5.222-2.02 1.166-4.334 1.772-6.79 1.83l.106-19.506c-1.306-.216-2.626-.357-3.944-.42-.265-.012-.527-.018-.789-.024h-.007c-.303-.007-.603-.01-.903-.008H168.192v.006c-4.8.078-9.223 1.212-12.893 3.33-4.2 2.426-6.187 5.423-5.743 8.667.418 3.056 3.035 6.116 7.367 8.618 2.926 1.69 6.295 2.924 9.803 3.624" transform="translate(306 155)"/>
                <path fill="#111D28" fill-opacity=".1" d="M126.137 89.712c-9.478-5.472-14.217-12.65-14.225-19.845-.008-7.266 4.809-14.55 14.442-20.111 19.17-11.068 50.155-11.125 69.206-.126 9.478 5.473 14.216 12.65 14.225 19.845.008 7.266-4.809 14.55-14.442 20.112-19.17 11.068-50.155 11.124-69.206.125" transform="translate(306 155)"/>
                <path fill="#1A82FF" d="M209.785 55.876v8.57c.008 7.267-4.808 14.55-14.442 20.112-19.17 11.068-50.155 11.124-69.206.125-9.478-5.472-14.217-12.65-14.225-19.844v-8.963h97.873z" transform="translate(306 155)"/>
                <path fill="#40A0FF" d="M126.137 76.113c-9.478-5.472-14.217-12.65-14.225-19.844-.008-7.266 4.809-14.55 14.442-20.112 19.17-11.068 50.155-11.124 69.206-.125 9.478 5.472 14.216 12.65 14.225 19.844.008 7.267-4.809 14.55-14.442 20.112-19.17 11.068-50.155 11.124-69.206.125" transform="translate(306 155)"/>
                <path fill="#1A82FF" d="M160.541 78.485c-12.004 0-23.185-2.639-31.483-7.43-7.284-4.205-11.298-9.459-11.305-14.793-.006-5.33 4.194-10.815 11.521-15.046 8.44-4.872 19.761-7.555 31.882-7.555 12.003 0 23.185 2.638 31.484 7.43 7.283 4.205 11.298 9.459 11.304 14.792.006 5.331-4.193 10.815-11.521 15.047-8.44 4.872-19.762 7.555-31.882 7.555" transform="translate(306 155)"/>
                <path fill="#0F7CE8" d="M129.275 42.384c8.439-4.872 19.76-7.555 31.881-7.555 12.003 0 23.185 2.639 31.484 7.43 7.017 4.052 10.989 9.077 11.275 14.209.011-.195.029-.39.029-.585-.006-5.334-4.021-10.586-11.304-14.793-8.3-4.79-19.48-7.43-31.484-7.43-12.12 0-23.442 2.683-31.881 7.556-7.328 4.23-11.528 9.715-11.522 15.046 0 .195.017.388.028.582.29-5.144 4.434-10.384 11.494-14.46" transform="translate(306 155)"/>
                <path fill="#FFF" d="M155.534 67.277l.03-5.642c-1.16-.445-2.32-.998-3.465-1.66-6.16-3.556-6.927-7.361-2.05-10.177 2.035-1.175 4.398-1.792 6.925-1.829l-.106 19.547c1.255.2 2.522.332 3.79.39.533.024 1.06.03 1.584.029v.002c.07 0 .137-.003.206-.003.155-.002.31 0 .464-.003v-.005c4.75-.104 9.126-1.239 12.758-3.336 4.2-2.424 6.177-5.417 5.722-8.655-.429-3.045-3.053-6.101-7.39-8.605-2.88-1.663-6.185-2.887-9.624-3.596l-.031 5.672c1.098.436 2.196.97 3.288 1.6 2.835 1.638 4.548 3.296 5.089 4.931.635 1.919-.401 3.724-2.996 5.222-2.02 1.166-4.334 1.772-6.79 1.83l.106-19.506c-1.306-.216-2.626-.357-3.945-.419-.264-.012-.526-.018-.788-.024h-.007c-.303-.008-.604-.01-.903-.008h-.113c-.096 0-.192-.002-.287 0v.006c-4.8.077-9.224 1.211-12.893 3.33-4.201 2.425-6.187 5.422-5.743 8.667.418 3.055 3.035 6.116 7.368 8.617 2.925 1.69 6.293 2.925 9.801 3.625" transform="translate(306 155)"/>
                <path fill="#111D28" d="M25.416 149.025c-9.478-5.472-14.216-12.65-14.225-19.844-.008-7.267 4.809-14.55 14.442-20.112 19.17-11.068 50.155-11.124 69.206-.125 9.478 5.472 14.217 12.65 14.225 19.844.009 7.267-4.809 14.55-14.441 20.112-19.17 11.068-50.156 11.124-69.207.125" opacity=".1" transform="translate(306 155)"/>
                <path fill="#40A0FF" d="M25.416 135.427c-9.478-5.472-14.216-12.65-14.225-19.844-.008-7.267 4.809-14.55 14.442-20.112 19.17-11.069 50.155-11.124 69.206-.125 9.478 5.472 14.217 12.65 14.225 19.844.009 7.266-4.809 14.55-14.441 20.112-19.17 11.068-50.156 11.124-69.207.125" transform="translate(306 155)"/>
                <path fill="#1A82FF" d="M59.82 137.798c-12.004 0-23.184-2.638-31.483-7.43-7.283-4.205-11.298-9.458-11.305-14.793-.005-5.33 4.194-10.815 11.522-15.046 8.439-4.872 19.76-7.555 31.881-7.555 12.003 0 23.185 2.639 31.484 7.43 7.283 4.206 11.298 9.459 11.304 14.792.006 5.332-4.193 10.816-11.52 15.047-8.44 4.873-19.763 7.555-31.883 7.555" transform="translate(306 155)"/>
                <path fill="#0F7CE8" d="M28.554 101.698c8.439-4.873 19.76-7.556 31.881-7.556 12.003 0 23.185 2.64 31.484 7.43 7.017 4.053 10.99 9.078 11.276 14.21.01-.196.028-.39.028-.586-.006-5.333-4.02-10.586-11.304-14.792-8.299-4.791-19.48-7.43-31.484-7.43-12.12 0-23.442 2.683-31.881 7.555-7.328 4.231-11.528 9.715-11.522 15.046 0 .195.017.389.028.583.29-5.145 4.434-10.384 11.494-14.46" transform="translate(306 155)"/>
                <path fill="#FFF" d="M54.814 126.59l.03-5.641c-1.16-.446-2.32-.999-3.466-1.66-6.16-3.557-6.927-7.362-2.05-10.178 2.035-1.175 4.398-1.792 6.925-1.828l-.106 19.546c1.255.2 2.523.332 3.79.39.533.024 1.06.03 1.584.03v.001c.07 0 .138-.002.207-.003.154-.001.31 0 .462-.003v-.004c4.751-.105 9.126-1.24 12.76-3.337 4.198-2.424 6.177-5.417 5.721-8.655-.429-3.045-3.053-6.1-7.39-8.604-2.88-1.664-6.185-2.888-9.625-3.596l-.03 5.671c1.099.437 2.196.97 3.289 1.6 2.835 1.638 4.547 3.296 5.088 4.932.635 1.918-.401 3.724-2.996 5.221-2.02 1.167-4.334 1.772-6.79 1.83l.106-19.506c-1.306-.215-2.626-.357-3.945-.419-.264-.012-.526-.018-.788-.024h-.007c-.302-.007-.603-.01-.903-.008h-.113c-.096 0-.192-.002-.287 0v.006c-4.8.078-9.223 1.212-12.893 3.33-4.201 2.426-6.187 5.422-5.743 8.667.418 3.055 3.034 6.116 7.367 8.617 2.926 1.69 6.294 2.925 9.803 3.625" transform="translate(306 155)"/>
                <path fill="#111D28" d="M14.225 126.643c-1.06-.612-2.06-1.245-3.001-1.897 0 0-.14-9.131-.147-15.522-.008-7.266-6.268-16.976 3.365-22.537 19.17-11.069 50.155-11.124 69.206-.125 9.478 5.472 14.217 12.65 14.225 19.844.008 7.266-4.809 14.55-14.442 20.112-19.17 11.068-50.155 11.124-69.206.125" opacity=".1" transform="translate(306 155)"/>
                <path fill="#1A82FF" d="M97.873 92.808v8.57c.008 7.265-4.809 14.55-14.442 20.111-19.17 11.068-50.155 11.124-69.206.125C4.747 116.142.008 108.964 0 101.77v-8.962h97.873z" transform="translate(306 155)"/>
                <g transform="translate(306 155) translate(0 64.509)">
                    <mask id="prefix__f" fill="#fff">
                        <use xlink:href="#prefix__e"/>
                    </mask>
                    <path fill="#40A0FF" d="M14.225 48.536C4.747 43.063.008 35.886 0 28.69-.01 21.425 4.809 14.141 14.442 8.58 33.612-2.49 64.597-2.545 83.648 8.454c9.478 5.473 14.217 12.65 14.225 19.845.008 7.266-4.809 14.55-14.442 20.112-19.17 11.068-50.155 11.124-69.206.125" mask="url(#prefix__f)"/>
                </g>
                <path fill="#1A82FF" d="M48.63 115.416c-12.005 0-23.186-2.639-31.484-7.43-7.284-4.205-11.298-9.458-11.305-14.793-.006-5.331 4.194-10.816 11.521-15.046 8.44-4.872 19.762-7.556 31.882-7.556 12.003 0 23.185 2.64 31.484 7.43 7.283 4.206 11.297 9.46 11.303 14.793.007 5.331-4.192 10.815-11.52 15.047-8.44 4.872-19.762 7.555-31.882 7.555" transform="translate(306 155)"/>
                <path fill="#0F7CE8" d="M17.363 79.315c8.439-4.872 19.76-7.555 31.881-7.555 12.003 0 23.185 2.639 31.483 7.43 7.018 4.052 10.99 9.077 11.277 14.208.01-.194.027-.39.027-.584-.005-5.334-4.02-10.587-11.304-14.792-8.298-4.791-19.48-7.43-31.483-7.43-12.12 0-23.442 2.682-31.881 7.555-7.328 4.23-11.528 9.715-11.522 15.046 0 .194.017.388.028.583.29-5.145 4.434-10.385 11.494-14.46" transform="translate(306 155)"/>
                <path fill="#FFF" d="M43.622 104.207l.031-5.64c-1.161-.446-2.32-.999-3.466-1.66-6.16-3.557-6.927-7.362-2.05-10.178 2.035-1.175 4.398-1.792 6.925-1.829l-.106 19.547c1.255.2 2.522.332 3.79.39.533.024 1.06.03 1.584.029v.001l.207-.002c.154-.002.309 0 .463-.003v-.005c4.75-.104 9.126-1.239 12.758-3.336 4.199-2.424 6.177-5.417 5.722-8.655-.43-3.045-3.053-6.101-7.39-8.605-2.881-1.663-6.185-2.887-9.625-3.596l-.03 5.672c1.098.437 2.196.97 3.288 1.6 2.836 1.637 4.548 3.296 5.089 4.931.635 1.918-.401 3.724-2.996 5.222-2.02 1.166-4.334 1.772-6.79 1.83l.106-19.506c-1.306-.216-2.626-.357-3.945-.419-.264-.012-.526-.018-.788-.025h-.007c-.303-.007-.604-.009-.903-.007h-.114c-.095 0-.191-.002-.286 0v.005c-4.8.078-9.224 1.212-12.893 3.33-4.201 2.426-6.187 5.423-5.744 8.668.419 3.055 3.036 6.115 7.368 8.617 2.926 1.69 6.294 2.924 9.802 3.624" transform="translate(306 155)"/>
                <path fill="#111D28" fill-opacity=".1" d="M31.012 107.058c-9.478-5.472-14.217-12.65-14.225-19.844-.009-7.267 4.808-14.55 14.442-20.112 19.17-11.068 50.155-11.124 69.206-.125 9.478 5.472 14.217 12.65 14.225 19.844.008 7.267-4.809 14.55-14.442 20.112-19.17 11.068-50.155 11.124-69.206.125" transform="translate(306 155)"/>
                <path fill="#1A82FF" d="M114.66 73.223v8.57c.008 7.266-4.809 14.55-14.442 20.112-19.17 11.068-50.155 11.124-69.206.124-9.478-5.471-14.217-12.65-14.225-19.844v-8.962h97.873z" transform="translate(306 155)"/>
                <path fill="#40A0FF" d="M31.012 93.46c-9.478-5.472-14.217-12.65-14.225-19.845-.009-7.266 4.808-14.55 14.442-20.111 19.17-11.068 50.155-11.125 69.206-.125 9.478 5.472 14.217 12.65 14.225 19.844.008 7.266-4.809 14.55-14.442 20.112-19.17 11.068-50.155 11.124-69.206.125" transform="translate(306 155)"/>
                <path fill="#1A82FF" d="M65.416 95.831c-12.004 0-23.185-2.638-31.483-7.43-7.284-4.205-11.299-9.458-11.305-14.793-.006-5.33 4.194-10.815 11.521-15.046 8.44-4.872 19.761-7.555 31.882-7.555 12.003 0 23.185 2.639 31.483 7.43 7.284 4.205 11.298 9.459 11.304 14.792.007 5.332-4.193 10.816-11.52 15.047-8.44 4.872-19.763 7.555-31.882 7.555" transform="translate(306 155)"/>
                <path fill="#0F7CE8" d="M34.15 59.73c8.439-4.872 19.76-7.555 31.881-7.555 12.003 0 23.185 2.64 31.483 7.43 7.018 4.053 10.99 9.078 11.276 14.21.011-.196.028-.39.028-.586-.006-5.333-4.02-10.586-11.304-14.792-8.298-4.791-19.48-7.43-31.483-7.43-12.12 0-23.442 2.682-31.882 7.556-7.328 4.23-11.527 9.714-11.521 15.045 0 .195.017.389.028.583.289-5.145 4.434-10.384 11.493-14.46" transform="translate(306 155)"/>
                <path fill="#FFF" d="M60.41 84.623l.03-5.641c-1.161-.446-2.32-.999-3.466-1.66-6.16-3.557-6.927-7.362-2.05-10.178 2.035-1.174 4.398-1.792 6.925-1.828l-.106 19.546c1.255.2 2.522.332 3.79.39.533.024 1.06.03 1.584.029v.002c.069 0 .137-.002.206-.003.155-.001.31 0 .463-.003v-.004c4.75-.105 9.126-1.24 12.759-3.337 4.199-2.424 6.177-5.417 5.722-8.655-.43-3.045-3.054-6.1-7.39-8.604-2.881-1.664-6.185-2.888-9.625-3.596l-.03 5.671c1.098.437 2.196.97 3.288 1.6 2.836 1.638 4.548 3.297 5.089 4.932.635 1.918-.401 3.724-2.996 5.221-2.02 1.167-4.334 1.772-6.79 1.83l.106-19.506c-1.306-.215-2.626-.357-3.945-.418-.264-.013-.526-.02-.788-.025h-.007c-.303-.007-.604-.01-.904-.008H61.876v.006c-4.8.078-9.224 1.212-12.893 3.33-4.202 2.425-6.187 5.422-5.743 8.667.418 3.055 3.034 6.116 7.367 8.617 2.926 1.69 6.294 2.925 9.802 3.625" transform="translate(306 155)"/>
                <path fill="#111D28" fill-opacity=".1" d="M19.82 87.474c-5.201-3.003-8.975-6.52-11.324-10.272 3.234-3.253 9.463-3.364 9.46-6.61-.01-7.267-7.552-17.513 2.081-23.075 19.17-11.068 50.156-11.124 69.206-.125 9.479 5.472 14.217 12.65 14.226 19.845.008 7.266-4.81 14.55-14.442 20.111-19.17 11.068-50.155 11.125-69.206.126" transform="translate(306 155)"/>
                <path fill="#1A82FF" d="M103.469 53.638v8.57c.008 7.266-4.81 14.55-14.442 20.112-19.17 11.068-50.155 11.124-69.206.125C10.343 76.973 5.604 69.795 5.596 62.6v-8.963h97.873z" transform="translate(306 155)"/>
                <path fill="#40A0FF" d="M19.82 73.875c-9.478-5.472-14.216-12.65-14.224-19.844-.009-7.267 4.808-14.55 14.441-20.112 19.17-11.068 50.156-11.124 69.206-.125 9.479 5.472 14.217 12.65 14.226 19.844.008 7.267-4.81 14.55-14.442 20.112-19.17 11.068-50.155 11.124-69.206.125" transform="translate(306 155)"/>
                <path fill="#1A82FF" d="M54.225 76.247c-12.004 0-23.185-2.64-31.484-7.43-7.283-4.206-11.298-9.459-11.305-14.794-.005-5.33 4.194-10.815 11.522-15.045 8.439-4.872 19.76-7.556 31.882-7.556 12.003 0 23.184 2.639 31.483 7.43 7.284 4.206 11.298 9.46 11.304 14.792.007 5.332-4.193 10.816-11.52 15.048-8.44 4.872-19.763 7.555-31.882 7.555" transform="translate(306 155)"/>
                <path fill="#0F7CE8" d="M22.958 40.146c8.44-4.872 19.761-7.555 31.882-7.555 12.003 0 23.185 2.638 31.483 7.43 7.018 4.052 10.99 9.077 11.276 14.209.011-.196.028-.39.028-.585-.006-5.334-4.02-10.587-11.304-14.793-8.298-4.79-19.48-7.43-31.483-7.43-12.12 0-23.443 2.683-31.882 7.556-7.328 4.23-11.527 9.715-11.521 15.046 0 .194.016.388.028.582.289-5.144 4.433-10.384 11.493-14.46" transform="translate(306 155)"/>
                <path fill="#FFF" d="M49.218 65.038l.03-5.64c-1.16-.446-2.32-1-3.465-1.66-6.161-3.557-6.927-7.362-2.05-10.178 2.035-1.175 4.398-1.792 6.924-1.829l-.105 19.546c1.255.2 2.522.333 3.79.39.533.025 1.06.031 1.583.03v.001c.07 0 .138-.002.207-.003.154-.001.31.001.463-.002v-.005c4.75-.105 9.126-1.239 12.759-3.336 4.198-2.424 6.177-5.418 5.721-8.655-.428-3.046-3.053-6.102-7.39-8.605-2.88-1.663-6.184-2.888-9.624-3.596l-.03 5.671c1.098.437 2.196.97 3.288 1.601 2.836 1.637 4.547 3.296 5.088 4.931.635 1.918-.4 3.724-2.995 5.222-2.02 1.166-4.335 1.772-6.79 1.83l.106-19.506c-1.306-.216-2.626-.357-3.946-.42-.263-.012-.525-.018-.787-.024h-.007c-.303-.007-.604-.01-.904-.008H50.684v.006c-4.8.078-9.223 1.212-12.892 3.33-4.202 2.426-6.188 5.423-5.744 8.667.419 3.056 3.035 6.116 7.368 8.618 2.926 1.69 6.294 2.924 9.802 3.624" transform="translate(306 155)"/>
                <path fill="#111D28" fill-opacity=".1" d="M92.563 81.878c-9.478-5.472-14.216-12.65-14.225-19.844-.008-7.267 4.809-14.55 14.442-20.112 19.17-11.068 50.155-11.124 69.206-.125 9.478 5.472 14.217 12.65 14.225 19.844.009 7.266-4.808 14.55-14.441 20.112-19.17 11.068-50.156 11.124-69.207.125" transform="translate(306 155)"/>
                <path fill="#1A82FF" d="M176.211 48.043v8.57c.009 7.266-4.808 14.55-14.441 20.112-19.17 11.068-50.156 11.123-69.207.124-9.478-5.472-14.216-12.65-14.225-19.844v-8.962h97.873z" transform="translate(306 155)"/>
                <path fill="#40A0FF" d="M92.563 68.28c-9.478-5.473-14.216-12.65-14.225-19.845-.008-7.266 4.809-14.55 14.442-20.111 19.17-11.069 50.155-11.125 69.206-.126 9.478 5.472 14.217 12.65 14.225 19.845.009 7.266-4.808 14.55-14.441 20.112-19.17 11.068-50.156 11.124-69.207.125" transform="translate(306 155)"/>
                <path fill="#1A82FF" d="M126.968 70.651c-12.004 0-23.185-2.638-31.484-7.43-7.283-4.205-11.298-9.458-11.305-14.793-.005-5.33 4.194-10.815 11.522-15.046 8.439-4.872 19.761-7.555 31.882-7.555 12.003 0 23.185 2.639 31.483 7.43 7.283 4.205 11.298 9.459 11.304 14.792.007 5.331-4.193 10.815-11.52 15.047-8.44 4.872-19.763 7.555-31.882 7.555" transform="translate(306 155)"/>
                <path fill="#0F7CE8" d="M95.701 34.55c8.439-4.872 19.761-7.555 31.882-7.555 12.003 0 23.184 2.639 31.483 7.43 7.018 4.052 10.99 9.077 11.276 14.209.01-.195.028-.39.028-.585-.006-5.333-4.02-10.586-11.304-14.792-8.299-4.791-19.48-7.43-31.483-7.43-12.12 0-23.443 2.682-31.882 7.555-7.328 4.23-11.527 9.715-11.522 15.046 0 .195.018.388.028.583.29-5.145 4.434-10.385 11.494-14.46" transform="translate(306 155)"/>
                <path fill="#FFF" d="M121.96 59.442l.031-5.64c-1.16-.446-2.32-.999-3.466-1.66-6.16-3.557-6.926-7.362-2.049-10.178 2.035-1.175 4.398-1.792 6.924-1.828l-.106 19.546c1.255.2 2.523.332 3.79.39.533.024 1.06.03 1.585.029v.002c.069 0 .137-.003.206-.003.154-.001.31 0 .463-.003v-.005c4.75-.104 9.126-1.238 12.759-3.336 4.198-2.424 6.177-5.417 5.721-8.655-.429-3.045-3.053-6.1-7.39-8.604-2.88-1.664-6.185-2.888-9.624-3.597l-.03 5.672c1.098.437 2.195.97 3.288 1.6 2.835 1.637 4.548 3.296 5.088 4.932.635 1.918-.4 3.723-2.995 5.221-2.02 1.167-4.335 1.772-6.79 1.83l.105-19.506c-1.306-.215-2.626-.357-3.944-.419-.265-.012-.526-.018-.788-.025h-.008c-.302-.006-.603-.008-.903-.007h-.113c-.096 0-.192-.002-.287 0v.006c-4.8.078-9.223 1.211-12.892 3.33-4.202 2.425-6.188 5.422-5.744 8.667.418 3.055 3.035 6.116 7.368 8.617 2.926 1.69 6.293 2.925 9.802 3.624" transform="translate(306 155)"/>
                <path fill="#111D28" fill-opacity=".1" d="M86.968 62.293C77.49 56.821 72.75 49.643 72.743 42.45c-.009-7.266 4.808-14.55 14.442-20.112 19.17-11.068 50.155-11.124 69.206-.125 9.478 5.472 14.216 12.65 14.225 19.845.008 7.266-4.809 14.55-14.442 20.111-19.17 11.068-50.155 11.125-69.206.125" transform="translate(306 155)"/>
                <path fill="#1A82FF" d="M170.616 28.458v8.57c.008 7.266-4.809 14.55-14.442 20.112-19.17 11.068-50.155 11.124-69.206.125-9.479-5.472-14.217-12.65-14.225-19.844v-8.963h97.873z" transform="translate(306 155)"/>
                <g transform="translate(306 155) translate(72.597 .335)">
                    <mask id="prefix__h" fill="#fff">
                        <use xlink:href="#prefix__g"/>
                    </mask>
                    <path fill="#40A0FF" d="M14.37 48.36C4.894 42.889.155 35.71.147 28.517c-.009-7.267 4.808-14.55 14.442-20.112C33.758-2.664 64.743-2.72 83.794 8.28c9.478 5.473 14.216 12.65 14.225 19.844.008 7.267-4.81 14.55-14.442 20.113-19.17 11.068-50.155 11.124-69.206.125" mask="url(#prefix__h)"/>
                </g>
                <path fill="#1A82FF" d="M121.372 51.066c-12.004 0-23.185-2.638-31.483-7.43-7.284-4.205-11.299-9.458-11.305-14.793-.006-5.33 4.194-10.815 11.521-15.046 8.44-4.872 19.761-7.555 31.882-7.555 12.003 0 23.185 2.639 31.483 7.43 7.284 4.206 11.298 9.46 11.304 14.792.007 5.332-4.192 10.816-11.52 15.047-8.44 4.873-19.763 7.555-31.882 7.555" transform="translate(306 155)"/>
                <path fill="#0F7CE8" d="M90.105 14.966c8.44-4.873 19.762-7.556 31.882-7.556 12.003 0 23.185 2.64 31.484 7.43 7.017 4.053 10.989 9.078 11.275 14.21.011-.196.028-.39.028-.586-.006-5.333-4.02-10.586-11.303-14.792-8.3-4.79-19.48-7.43-31.484-7.43-12.12 0-23.442 2.683-31.882 7.556-7.328 4.23-11.527 9.714-11.521 15.045 0 .195.017.389.028.583.289-5.145 4.434-10.384 11.493-14.46" transform="translate(306 155)"/>
                <path fill="#FFF" d="M116.365 39.858l.031-5.641c-1.161-.446-2.32-.999-3.466-1.66-6.16-3.557-6.927-7.362-2.05-10.177 2.035-1.175 4.398-1.793 6.925-1.83l-.106 19.547c1.255.2 2.522.332 3.79.39.533.024 1.06.03 1.584.03v.001c.069 0 .137-.002.206-.003.155-.001.31 0 .463-.002v-.005c4.75-.105 9.126-1.24 12.759-3.337 4.199-2.424 6.177-5.417 5.722-8.655-.43-3.045-3.054-6.1-7.39-8.604-2.881-1.664-6.185-2.888-9.625-3.596l-.03 5.671c1.098.437 2.196.97 3.288 1.6 2.836 1.638 4.548 3.297 5.089 4.932.635 1.918-.401 3.724-2.996 5.222-2.02 1.166-4.334 1.771-6.79 1.83l.106-19.506c-1.306-.216-2.626-.357-3.945-.42-.264-.012-.526-.018-.788-.024h-.007c-.303-.007-.604-.01-.904-.008H117.832v.006c-4.8.078-9.224 1.212-12.893 3.33-4.202 2.426-6.187 5.423-5.743 8.667.418 3.056 3.034 6.116 7.367 8.617 2.926 1.69 6.294 2.925 9.802 3.625" transform="translate(306 155)"/>
                <path fill="#111D28" fill-opacity=".1" d="M62.094 112.49c0-26.42 21.419-47.84 47.84-47.84 26.422 0 47.84 21.42 47.84 47.84 0 26.422-21.418 47.84-47.84 47.84-26.421 0-47.84-21.418-47.84-47.84" transform="translate(306 155)"/>
                <path fill="#40A0FF" d="M60.695 111.372c0-26.422 21.419-47.84 47.84-47.84 26.422 0 47.84 21.418 47.84 47.84 0 26.421-21.418 47.84-47.84 47.84-26.421 0-47.84-21.419-47.84-47.84" transform="translate(306 155)"/>
                <path fill="#1A82FF" d="M69.616 111.372c0-21.495 17.425-38.92 38.92-38.92 21.494 0 38.918 17.425 38.918 38.92 0 21.494-17.424 38.919-38.918 38.919-21.495 0-38.92-17.425-38.92-38.92" transform="translate(306 155)"/>
                <path fill="#0F7CE8" d="M70.736 112.49c0-21.494 17.424-38.918 38.919-38.918 10.462 0 19.96 4.129 26.953 10.846-7.082-7.375-17.04-11.966-28.073-11.966-21.494 0-38.919 17.425-38.919 38.92 0 11.032 4.591 20.99 11.966 28.072-6.717-6.993-10.846-16.49-10.846-26.953" transform="translate(306 155)"/>
                <path fill="#FFF" d="M125.665 100.478l-6.742 6.742c.269 1.338.408 2.803.408 4.388 0 8.529-4.007 13.62-10.716 13.62-2.799 0-5.16-.895-6.941-2.6l23.359-23.36c-.626-1.107-1.34-2.144-2.142-3.09-.338-.398-.693-.77-1.055-1.131l.002-.003c-.048-.048-.098-.091-.146-.14-.107-.104-.212-.214-.321-.316l-.006.006c-3.391-3.164-7.753-4.832-12.75-4.832-5.776 0-10.703 2.219-14.247 6.416-3.333 3.947-5.168 9.427-5.168 15.43 0 3.988.814 7.742 2.336 10.973l6.778-6.778c-.236-1.284-.355-2.683-.355-4.195 0-3.925.799-7.1 2.374-9.434 1.849-2.739 4.712-4.186 8.282-4.186 2.778 0 5.092.876 6.85 2.506l-23.311 23.31c.64 1.164 1.38 2.247 2.214 3.234.167.197.34.386.513.574 0 .002.003.004.004.005.2.218.405.429.612.635l.078.078c.067.066.13.135.198.199l.007-.007c3.394 3.228 7.787 4.931 12.835 4.931 5.779 0 10.716-2.218 14.276-6.415 3.352-3.952 5.198-9.432 5.198-15.43 0-4.05-.845-7.862-2.424-11.13M184.605 21.461c-13.883 0-19.026 4.524-19.026 19.025 0-14.5-5.142-19.025-19.024-19.025 13.882 0 19.024-4.525 19.024-19.025 0 14.5 5.143 19.025 19.026 19.025" transform="translate(306 155)"/>
            </g>
        </g>
        <g fill="#FFF" mask="url(#prefix__b)">
            <g>
                <path d="M31.868 11.264l-5.892 5.894c.236 1.168.357 2.45.357 3.834 0 7.453-3.501 11.904-9.365 11.904-2.446 0-4.51-.784-6.067-2.275l20.415-20.415c-.547-.966-1.17-1.872-1.872-2.7-.295-.348-.606-.672-.921-.99l.002-.001-.128-.12c-.095-.093-.186-.19-.28-.28l-.006.007c-2.965-2.765-6.776-4.224-11.143-4.224-5.047 0-9.354 1.941-12.451 5.608C1.604 10.956 0 15.746 0 20.992c0 3.484.712 6.767 2.04 9.589l5.925-5.924c-.205-1.123-.31-2.346-.31-3.665 0-3.432.698-6.206 2.074-8.247 1.616-2.39 4.12-3.657 7.239-3.657 2.429 0 4.45.765 5.987 2.189L2.582 31.65c.56 1.016 1.206 1.964 1.935 2.826.146.17.296.336.448.5l.004.007c.175.19.353.374.535.554l.067.068c.059.057.114.118.173.173l.007-.005c2.966 2.823 6.806 4.31 11.217 4.31 5.051 0 9.365-1.94 12.476-5.605 2.93-3.456 4.544-8.245 4.544-13.486 0-3.54-.74-6.872-2.12-9.728zm133.476-8.445v36.385h-6.807l-10.345-14.035c-3.274-4.47-7.277-10.187-7.33-10.187h-.051c-.051 0 .051 5.25.051 12.473v11.749h-7.223V2.819h6.81l10.55 14.189c2.494 3.275 7.069 9.771 7.12 9.771h.053c.051 0-.053-5.924-.053-12.057V2.819h7.225zm-44.502 36.385h7.225V2.819h-7.225v36.385zm-11.317-3.796c-1.975 2.237-6.29 4.523-11.02 4.523-10.447 0-18.867-7.954-18.867-18.92 0-10.968 8.42-18.92 18.868-18.92 7.225.05 13.254 3.793 16.53 9.615l-7.381 1.924c-1.975-2.704-5.562-4.419-9.15-4.419-6.809 0-11.33 4.886-11.33 11.8 0 7.225 4.988 11.85 11.747 11.85 6.237 0 9.511-3.43 10.656-6.237v-1.56H99.493v-5.872h16.27v20.012h-6.238c0-3.016.053-3.745.053-3.796h-.053zM68.84 39.204h7.225V2.819H68.84v36.385zm-24.57-18.87h6.447c4 0 5.873-2.599 5.873-5.352 0-2.86-1.924-5.406-5.873-5.406H44.27v10.759zm13.152 18.87l-7.226-12.425H44.27v12.425h-7.223V2.819H49.78c8.94 0 14.292 4.833 14.292 12.163 0 4.99-2.442 8.628-6.86 10.447l8.317 13.775h-8.108zM12.524 54.318c-.66-1.737-1.14-3.055-1.17-3.085h-.09c-.03.03-.508 1.318-1.167 3.055l-1.498 4.195h5.423l-1.498-4.165zM6.95 63.067l-1.258 3.475H.39l8.09-20.97h5.72l8.12 20.97h-5.393l-1.259-3.475H6.95zM29.423 50.244L29.423 54.259 37.182 54.259 37.182 58.932 29.423 58.932 29.423 66.543 24.39 66.543 24.39 45.571 39.4 45.571 39.4 50.244zM47.192 50.244L47.192 54.259 54.951 54.259 54.951 58.932 47.192 58.932 47.192 66.543 42.158 66.543 42.158 45.571 57.169 45.571 57.169 50.244zM59.927 66.542L64.959 66.542 64.959 45.571 59.927 45.571zM68.316 45.572L73.35 45.572 73.35 61.87 82.757 61.87 82.757 66.543 68.316 66.543zM85.366 66.542L90.4 66.542 90.4 45.571 85.366 45.571zM104.602 54.318c-.66-1.737-1.14-3.055-1.17-3.085h-.09c-.03.03-.508 1.318-1.167 3.055l-1.498 4.195h5.423l-1.498-4.165zm-5.574 8.749l-1.259 3.475h-5.301l8.089-20.97h5.721l8.12 20.97h-5.393l-1.259-3.475h-8.718zM123.868 50.244L123.868 66.543 118.835 66.543 118.835 50.244 112.423 50.244 112.423 45.571 130.278 45.571 130.278 50.244zM132.889 45.572L148.167 45.572 148.167 50.245 137.921 50.245 137.921 53.839 145.471 53.839 145.471 58.034 137.921 58.034 137.921 61.87 148.317 61.87 148.317 66.543 132.889 66.543zM155.18 60.011c.42 1.588 1.888 2.516 4.165 2.516 1.918 0 3.085-.657 3.085-2.005 0-2.009-2.516-1.89-5.092-2.52-2.847-.687-6.382-2.005-6.382-6.439 0-4.284 3.235-6.412 7.94-6.412 4.285 0 7.34 1.74 8.508 5.484l-4.793 1.287c-.509-1.527-1.707-2.368-3.805-2.368-1.918 0-2.725.75-2.725 1.86 0 1.765 2.007 2.037 4.942 2.635 3.086.6 6.5 1.918 6.5 6.44 0 4.315-3.025 6.472-8.148 6.472-3.655 0-7.789-1.109-8.987-5.66l4.793-1.29z" transform="translate(328 47)"/>
            </g>
        </g>
    </g>
</svg>
