<svg xmlns="http://www.w3.org/2000/svg" xmlns:xlink="http://www.w3.org/1999/xlink" width="825" height="90" viewBox="0 0 825 90">
    <defs>
        <path id="prefix__a" d="M0 0L825 0 825 90 0 90z"/>
        <path id="prefix__c" d="M0.504 0.319L73.757 0.319 73.757 920.16 0.504 920.16z"/>
        <path id="prefix__e" d="M0 0.154L62.444 0.154 62.444 36.206 0 36.206z"/>
        <path id="prefix__g" d="M0.093 0.042L62.537 0.042 62.537 36.094 0.093 36.094z"/>
    </defs>
    <g fill="none" fill-rule="evenodd">
        <mask id="prefix__b" fill="#fff">
            <use xlink:href="#prefix__a"/>
        </mask>
        <use fill="#1A82FF" xlink:href="#prefix__a"/>
        <g mask="url(#prefix__b)" opacity=".1">
            <g>
                <g>
                    <path fill="#FFF" d="M909.841 910.16L1805.568 698.735 1819.544 770.644zM909.841 910.16L14.114 1121.585.136 1049.676zM909.841 910.16L1121.265 1805.887 1049.357 1819.864zM909.841 910.16L698.415 14.433 770.324.456zM909.841 910.16L1692.715 1394.034 1651.751 1454.765zM909.841 910.16L126.966 426.286 167.929 365.554zM909.841 910.16L425.966 1693.034 365.235 1652.07zM909.841 910.16L1393.715 127.286 1454.447 168.25zM909.841 910.16L1661.142 378.585 1701.04 440.022zM909.841 910.16L158.538 1441.735 118.641 1380.298zM909.841 910.16L1441.415 1661.462 1379.978 1701.36zM909.841 910.16L378.265 158.858 439.702 118.96zM909.841 910.16L1816.972 1065.53 1801.741 1137.185zM909.841 910.16L2.709 754.789 17.941 683.135zM909.841 910.16L754.47 1817.291 682.816 1802.06zM909.841 910.16L1065.21 3.029 1136.866 18.26z" transform="translate(-95 -835) translate(10 10.68)"/>
                </g>
                <g>
                    <path fill="#FFF" d="M919.841 920.16L1839.68 889.824 1839.179 963.078zM919.841 920.16L.001 950.496.501 877.242zM919.841 920.16L950.177 1840 876.923 1839.499z" transform="translate(-95 -835) translate(0 .68)"/>
                    <g transform="translate(-95 -835) translate(0 .68) translate(889)">
                        <mask id="prefix__d" fill="#fff">
                            <use xlink:href="#prefix__c"/>
                        </mask>
                        <path fill="#FFF" d="M30.84 920.16L0.504 0.319 73.757 0.821z" mask="url(#prefix__d)"/>
                    </g>
                    <path fill="#FFF" d="M919.841 920.16L1591.716 1549.135 1539.564 1600.578zM919.841 920.16L247.964 291.185 300.116 239.742zM919.841 920.16L290.865 1592.036 239.423 1539.884zM919.841 920.16L1548.815 248.284 1600.258 300.436zM919.841 920.16L1761.338 547.455 1788.314 615.562zM919.841 920.16L78.344 1292.865 51.367 1224.758zM919.841 920.16L1292.545 1761.657 1224.438 1788.634zM919.841 920.16L547.135 78.663 615.242 51.686zM919.841 920.16L1778.41 1251.645 1749.326 1318.881zM919.841 920.16L61.27 588.675 90.353 521.439zM919.841 920.16L588.355 1778.73 521.12 1749.647zM919.841 920.16L1251.325 61.59 1318.561 90.673z" transform="translate(-95 -835) translate(0 .68)"/>
                </g>
            </g>
        </g>
        <g mask="url(#prefix__b)">
            <g>
                <path fill="#111D28" d="M78.691 91.152c-6.047-3.491-9.07-8.07-9.075-12.66-.005-4.637 3.068-9.284 9.214-12.832 12.23-7.062 32-7.097 44.154-.08 6.047 3.491 9.07 8.07 9.076 12.661.005 4.636-3.068 9.283-9.214 12.832-12.231 7.061-32 7.097-44.155.08" transform="translate(709 15)"/>
                <path fill="#1A82FF" d="M132.06 69.565v5.468c.005 4.636-3.068 9.283-9.214 12.831-12.231 7.062-32 7.098-44.155.08-6.047-3.491-9.07-8.07-9.075-12.66v-5.719h62.444z" transform="translate(709 15)"/>
                <path fill="#40A0FF" d="M78.691 82.477c-6.047-3.492-9.07-8.071-9.075-12.662-.005-4.635 3.068-9.282 9.214-12.83 12.23-7.063 32-7.098 44.154-.08 6.047 3.49 9.07 8.07 9.076 12.66.005 4.636-3.068 9.283-9.214 12.832-12.231 7.061-32 7.097-44.155.08" transform="translate(709 15)"/>
                <path fill="#1A82FF" d="M100.642 83.99c-7.659 0-14.792-1.684-20.087-4.74-4.647-2.684-7.208-6.035-7.212-9.44-.004-3.4 2.675-6.9 7.35-9.598 5.385-3.109 12.608-4.821 20.341-4.821 7.658 0 14.792 1.684 20.087 4.74 4.647 2.684 7.208 6.036 7.212 9.438.004 3.402-2.675 6.9-7.35 9.6-5.385 3.109-12.609 4.82-20.341 4.82" transform="translate(709 15)"/>
                <path fill="#0F7CE8" d="M80.693 60.957c5.385-3.109 12.608-4.82 20.341-4.82 7.658 0 14.792 1.683 20.087 4.74 4.477 2.585 7.011 5.791 7.194 9.065.007-.124.018-.249.018-.373-.004-3.403-2.565-6.754-7.212-9.437-5.295-3.057-12.429-4.74-20.087-4.74-7.733 0-14.956 1.71-20.34 4.82-4.676 2.699-7.355 6.198-7.352 9.6 0 .123.011.247.018.37.185-3.282 2.83-6.625 7.333-9.225" transform="translate(709 15)"/>
                <path fill="#FFF" d="M97.447 76.838l.02-3.599c-.74-.284-1.48-.637-2.211-1.058-3.931-2.27-4.42-4.697-1.308-6.494 1.298-.75 2.806-1.143 4.418-1.167l-.068 12.471c.8.127 1.61.212 2.418.249.34.015.676.02 1.01.018v.002l.132-.002c.099-.001.198 0 .296-.002v-.003c3.03-.067 5.822-.79 8.14-2.129 2.68-1.546 3.941-3.456 3.65-5.522-.273-1.943-1.947-3.892-4.714-5.49-1.838-1.06-3.946-1.842-6.14-2.294l-.02 3.619c.7.278 1.4.619 2.098 1.021 1.809 1.044 2.901 2.103 3.246 3.146.405 1.224-.256 2.376-1.911 3.332-1.289.743-2.765 1.13-4.332 1.167l.067-12.445c-.833-.138-1.675-.228-2.516-.267-.169-.008-.336-.012-.503-.016h-.005c-.193-.004-.385-.006-.576-.005h-.255v.004c-3.062.05-5.885.773-8.226 2.124-2.68 1.548-3.947 3.46-3.664 5.53.267 1.95 1.936 3.902 4.7 5.498 1.867 1.078 4.016 1.866 6.254 2.312" transform="translate(709 15)"/>
                <path fill="#111D28" d="M87.617 69.732c-6.047-3.491-9.07-8.07-9.076-12.66-.005-4.637 3.068-9.284 9.214-12.832 12.231-7.062 32-7.098 44.154-.08 6.047 3.491-3.614 12.338-3.61 16.928.006 4.573 3.72 2.41 3.725 8.416-.084.05-.168.1-.253.148-12.231 7.062-32 7.098-44.154.08" opacity=".1" transform="translate(709 15)"/>
                <path fill="#1A82FF" d="M140.985 48.145v5.467c.005 4.636-3.068 9.284-9.214 12.832-12.231 7.062-32 7.097-44.154.08-6.048-3.491-9.07-8.071-9.076-12.661v-5.718h62.444z" transform="translate(709 15)"/>
                <path fill="#40A0FF" d="M87.617 61.056c-6.047-3.491-9.07-8.07-9.076-12.66-.005-4.637 3.068-9.284 9.214-12.832 12.231-7.062 32-7.098 44.154-.08 6.047 3.491 9.07 8.07 9.076 12.661.005 4.636-3.068 9.283-9.214 12.831-12.231 7.062-32 7.098-44.154.08" transform="translate(709 15)"/>
                <path fill="#1A82FF" d="M109.567 62.57c-7.66 0-14.792-1.684-20.087-4.741-4.647-2.683-7.208-6.035-7.213-9.438-.003-3.401 2.676-6.9 7.351-9.6 5.385-3.108 12.608-4.82 20.341-4.82 7.658 0 14.792 1.683 20.087 4.74 4.647 2.684 7.208 6.035 7.212 9.438.004 3.401-2.675 6.9-7.35 9.6-5.385 3.109-12.609 4.82-20.341 4.82" transform="translate(709 15)"/>
                <path fill="#0F7CE8" d="M89.618 39.537c5.384-3.109 12.608-4.82 20.341-4.82 7.658 0 14.792 1.683 20.087 4.74 4.477 2.585 7.011 5.791 7.194 9.065.007-.124.018-.249.018-.373-.004-3.403-2.565-6.754-7.212-9.438-5.295-3.056-12.429-4.74-20.087-4.74-7.733 0-14.957 1.712-20.34 4.82-4.676 2.7-7.355 6.199-7.352 9.6 0 .124.011.247.018.372.185-3.283 2.83-6.626 7.333-9.226" transform="translate(709 15)"/>
                <path fill="#FFF" d="M106.372 55.418l.02-3.6c-.74-.283-1.48-.636-2.211-1.058-3.931-2.27-4.42-4.697-1.308-6.493 1.298-.75 2.806-1.144 4.418-1.167l-.068 12.47c.801.128 1.61.213 2.418.25.34.015.676.02 1.011.018v.001l.132-.002.295-.001v-.003c3.03-.067 5.822-.79 8.14-2.129 2.68-1.547 3.941-3.456 3.65-5.522-.273-1.943-1.947-3.892-4.714-5.49-1.838-1.061-3.946-1.842-6.14-2.294l-.02 3.619c.7.278 1.401.618 2.098 1.02 1.809 1.045 2.901 2.104 3.247 3.147.405 1.224-.257 2.376-1.912 3.331-1.288.744-2.765 1.13-4.332 1.168l.068-12.445c-.834-.138-1.676-.228-2.517-.267-.169-.008-.336-.012-.503-.016h-.005c-.193-.005-.385-.006-.576-.005h-.255v.003c-3.063.05-5.885.773-8.226 2.125-2.68 1.548-3.947 3.46-3.664 5.53.267 1.95 1.936 3.902 4.7 5.498 1.867 1.078 4.016 1.866 6.254 2.312" transform="translate(709 15)"/>
                <path fill="#111D28" fill-opacity=".1" d="M80.477 57.237c-6.048-3.491-9.07-8.07-9.076-12.661-.006-4.636 3.068-9.283 9.214-12.832 12.23-7.061 32-7.097 44.154-.08 6.047 3.492 9.07 8.071 9.076 12.661.005 4.637-3.068 9.284-9.214 12.832-12.231 7.062-32 7.098-44.154.08" transform="translate(709 15)"/>
                <path fill="#1A82FF" d="M133.845 35.65v5.467c.005 4.636-3.068 9.284-9.214 12.832-12.231 7.061-32 7.097-44.155.08-6.047-3.492-9.07-8.071-9.075-12.661V35.65h62.444z" transform="translate(709 15)"/>
                <path fill="#40A0FF" d="M80.477 48.561c-6.048-3.491-9.07-8.07-9.076-12.66-.006-4.637 3.068-9.284 9.214-12.832 12.23-7.062 32-7.098 44.154-.08 6.047 3.491 9.07 8.07 9.076 12.66.005 4.637-3.068 9.284-9.214 12.832-12.231 7.062-32 7.098-44.154.08" transform="translate(709 15)"/>
                <path fill="#1A82FF" d="M102.427 50.074c-7.659 0-14.792-1.683-20.087-4.74-4.647-2.683-7.208-6.035-7.213-9.438-.003-3.402 2.676-6.9 7.351-9.6 5.385-3.108 12.608-4.82 20.341-4.82 7.658 0 14.792 1.683 20.087 4.74 4.647 2.683 7.208 6.035 7.212 9.438.004 3.401-2.675 6.9-7.35 9.6-5.385 3.108-12.609 4.82-20.341 4.82" transform="translate(709 15)"/>
                <path fill="#0F7CE8" d="M82.478 27.042c5.385-3.11 12.608-4.82 20.341-4.82 7.658 0 14.792 1.683 20.087 4.74 4.477 2.585 7.011 5.791 7.194 9.065.007-.124.018-.249.018-.373-.004-3.403-2.565-6.754-7.212-9.438-5.295-3.057-12.429-4.74-20.087-4.74-7.733 0-14.956 1.711-20.34 4.82-4.676 2.7-7.355 6.198-7.352 9.6 0 .124.011.247.018.371.185-3.282 2.83-6.625 7.333-9.225" transform="translate(709 15)"/>
                <path fill="#FFF" d="M99.232 42.923l.02-3.6c-.74-.283-1.48-.636-2.211-1.058-3.931-2.27-4.42-4.697-1.308-6.494 1.298-.749 2.806-1.143 4.418-1.166l-.068 12.47c.8.128 1.61.212 2.418.25.34.015.676.019 1.011.018v.001l.131-.002c.099 0 .198 0 .296-.002v-.002c3.03-.067 5.823-.79 8.14-2.129 2.68-1.547 3.941-3.456 3.65-5.522-.273-1.943-1.947-3.892-4.714-5.49-1.838-1.061-3.946-1.842-6.14-2.294l-.02 3.618c.7.279 1.401.619 2.098 1.022 1.809 1.044 2.901 2.102 3.246 3.146.405 1.223-.256 2.376-1.91 3.331-1.29.744-2.766 1.13-4.333 1.168l.068-12.445c-.834-.138-1.676-.228-2.517-.268-.169-.007-.336-.012-.503-.015H101c-.193-.005-.385-.006-.576-.006h-.255v.004c-3.063.05-5.885.773-8.226 2.125-2.68 1.547-3.947 3.46-3.664 5.53.267 1.949 1.936 3.902 4.7 5.497 1.867 1.078 4.016 1.866 6.254 2.313" transform="translate(709 15)"/>
                <path fill="#111D28" d="M16.216 95.08c-6.047-3.492-9.07-8.071-9.076-12.662-.005-4.636 3.068-9.283 9.214-12.831 12.23-7.062 32-7.097 44.154-.08 6.047 3.492 9.07 8.07 9.076 12.66.005 4.637-3.068 9.284-9.214 12.833-12.23 7.061-32 7.097-44.154.08" transform="translate(709 15)"/>
                <path fill="#1A82FF" d="M69.584 73.492v5.468c.005 4.636-3.068 9.283-9.214 12.831-12.23 7.062-32 7.098-44.154.08-6.047-3.49-9.07-8.07-9.076-12.66v-5.719h62.444z" transform="translate(709 15)"/>
                <path fill="#40A0FF" d="M16.216 86.404c-6.047-3.492-9.07-8.071-9.076-12.661-.005-4.636 3.068-9.284 9.214-12.832 12.23-7.062 32-7.097 44.154-.08 6.047 3.492 9.07 8.07 9.076 12.661.005 4.636-3.068 9.283-9.214 12.832-12.23 7.061-32 7.097-44.154.08" transform="translate(709 15)"/>
                <path fill="#1A82FF" d="M38.166 87.917c-7.659 0-14.792-1.684-20.087-4.74-4.647-2.684-7.208-6.035-7.212-9.439-.004-3.401 2.675-6.9 7.35-9.6 5.385-3.108 12.608-4.82 20.341-4.82 7.658 0 14.792 1.684 20.087 4.741 4.647 2.683 7.208 6.035 7.212 9.437.004 3.402-2.675 6.9-7.35 9.6-5.385 3.109-12.609 4.82-20.341 4.82" transform="translate(709 15)"/>
                <path fill="#0F7CE8" d="M18.218 64.884c5.384-3.109 12.607-4.82 20.34-4.82 7.658 0 14.792 1.683 20.087 4.74 4.477 2.586 7.011 5.791 7.194 9.065.007-.124.018-.248.018-.373-.004-3.403-2.565-6.754-7.212-9.437-5.295-3.057-12.429-4.74-20.087-4.74-7.733 0-14.956 1.71-20.34 4.82-4.676 2.699-7.355 6.198-7.351 9.6 0 .123.01.247.017.37.185-3.282 2.83-6.625 7.334-9.225" transform="translate(709 15)"/>
                <path fill="#FFF" d="M34.972 80.765l.02-3.599c-.742-.284-1.482-.637-2.212-1.058-3.93-2.27-4.42-4.697-1.308-6.494 1.298-.75 2.806-1.143 4.418-1.167l-.068 12.471c.801.127 1.61.212 2.418.249.34.015.677.02 1.011.018v.002l.132-.002c.098-.001.197 0 .295-.002v-.003c3.031-.066 5.823-.79 8.14-2.129 2.68-1.546 3.942-3.456 3.65-5.522-.273-1.942-1.947-3.892-4.714-5.49-1.838-1.06-3.946-1.842-6.14-2.294l-.02 3.619c.7.278 1.401.618 2.098 1.021 1.809 1.045 2.901 2.103 3.247 3.146.405 1.224-.256 2.376-1.912 3.332-1.289.744-2.765 1.13-4.332 1.167l.068-12.445c-.833-.138-1.676-.228-2.517-.267-.169-.008-.336-.012-.503-.016h-.004c-.193-.005-.386-.006-.577-.005h-.255v.004c-3.062.05-5.884.773-8.225 2.124-2.681 1.548-3.948 3.46-3.665 5.53.267 1.95 1.936 3.902 4.7 5.498 1.867 1.078 4.016 1.866 6.255 2.312" transform="translate(709 15)"/>
                <path fill="#111D28" d="M9.076 80.8c-.676-.391-1.315-.795-1.915-1.211 0 0-.089-5.826-.094-9.903-.005-4.636-4-10.83 2.147-14.38 12.231-7.06 32-7.096 44.154-.079 6.047 3.491 9.07 8.07 9.076 12.66.005 4.637-3.068 9.284-9.214 12.832-12.231 7.062-32 7.098-44.154.08" transform="translate(709 15)"/>
                <path fill="#1A82FF" d="M62.444 59.212v5.468c.005 4.635-3.068 9.283-9.214 12.831-12.231 7.062-32 7.097-44.154.08C3.029 74.1.006 69.52 0 64.93v-5.719h62.444z" transform="translate(709 15)"/>
                <g transform="translate(709 15) translate(0 41.157)">
                    <mask id="prefix__f" fill="#fff">
                        <use xlink:href="#prefix__e"/>
                    </mask>
                    <path fill="#40A0FF" d="M9.076 30.966C3.029 27.475.006 22.896 0 18.306c-.005-4.637 3.068-9.284 9.214-12.832 12.231-7.062 32-7.098 44.154-.08 6.047 3.491 9.07 8.07 9.076 12.66.005 4.637-3.068 9.284-9.214 12.832-12.231 7.062-32 7.098-44.154.08" mask="url(#prefix__f)"/>
                </g>
                <path fill="#1A82FF" d="M31.026 73.637c-7.659 0-14.792-1.684-20.087-4.74-4.647-2.684-7.208-6.036-7.213-9.44-.003-3.4 2.676-6.9 7.351-9.599 5.385-3.108 12.608-4.82 20.341-4.82 7.658 0 14.792 1.683 20.087 4.74 4.647 2.684 7.208 6.036 7.212 9.438.004 3.402-2.675 6.9-7.35 9.6-5.385 3.109-12.609 4.82-20.341 4.82" transform="translate(709 15)"/>
                <path fill="#0F7CE8" d="M11.077 50.604c5.385-3.109 12.608-4.82 20.341-4.82 7.658 0 14.792 1.683 20.087 4.74 4.477 2.585 7.011 5.791 7.194 9.065.007-.124.018-.249.018-.373-.004-3.403-2.565-6.754-7.212-9.438-5.295-3.056-12.429-4.74-20.087-4.74-7.733 0-14.956 1.712-20.34 4.82-4.676 2.7-7.355 6.199-7.351 9.6 0 .124.01.248.017.372.185-3.283 2.83-6.626 7.333-9.226" transform="translate(709 15)"/>
                <path fill="#FFF" d="M27.831 66.485l.02-3.599c-.74-.284-1.48-.637-2.211-1.058-3.93-2.27-4.42-4.697-1.308-6.494 1.298-.75 2.806-1.143 4.418-1.167l-.068 12.471c.801.127 1.61.212 2.419.249.34.015.676.02 1.01.018v.001l.132-.001c.098-.001.197 0 .295-.002V66.9c3.031-.067 5.823-.79 8.14-2.129 2.679-1.546 3.941-3.456 3.65-5.522-.273-1.943-1.947-3.892-4.714-5.49-1.838-1.06-3.946-1.842-6.14-2.294l-.02 3.619c.7.278 1.401.618 2.098 1.02 1.81 1.045 2.901 2.104 3.246 3.147.406 1.224-.255 2.376-1.91 3.331-1.29.744-2.766 1.13-4.333 1.168l.068-12.445c-.834-.138-1.676-.228-2.517-.267-.169-.008-.336-.012-.503-.016h-.005c-.193-.005-.385-.006-.576-.005h-.255v.003c-3.062.05-5.885.774-8.226 2.125-2.68 1.548-3.947 3.46-3.664 5.53.267 1.95 1.936 3.902 4.7 5.498 1.867 1.078 4.016 1.866 6.254 2.312" transform="translate(709 15)"/>
                <path fill="#111D28" fill-opacity=".1" d="M19.786 68.304c-6.047-3.491-9.07-8.07-9.076-12.66-.005-4.637 3.068-9.284 9.214-12.832 12.231-7.062 32-7.098 44.154-.08 6.047 3.491 9.07 8.07 9.076 12.66.005 4.637-3.068 9.284-9.214 12.832-12.23 7.062-32 7.098-44.154.08" transform="translate(709 15)"/>
                <path fill="#1A82FF" d="M73.154 46.717v5.467c.005 4.636-3.068 9.284-9.214 12.832-12.231 7.062-32 7.097-44.154.08-6.047-3.491-9.07-8.07-9.076-12.66v-5.72h62.444z" transform="translate(709 15)"/>
                <path fill="#40A0FF" d="M19.786 59.628c-6.047-3.491-9.07-8.07-9.076-12.66-.005-4.637 3.068-9.284 9.214-12.832 12.231-7.062 32-7.098 44.154-.08 6.047 3.491 9.07 8.07 9.076 12.66.005 4.637-3.068 9.284-9.214 12.832-12.23 7.062-32 7.098-44.154.08" transform="translate(709 15)"/>
                <path fill="#1A82FF" d="M41.736 61.141c-7.659 0-14.792-1.683-20.087-4.74-4.647-2.683-7.208-6.035-7.212-9.438-.004-3.401 2.675-6.9 7.35-9.6 5.385-3.108 12.608-4.82 20.341-4.82 7.658 0 14.793 1.683 20.087 4.74 4.647 2.683 7.208 6.035 7.212 9.438.004 3.402-2.675 6.9-7.35 9.6-5.384 3.109-12.609 4.82-20.34 4.82" transform="translate(709 15)"/>
                <path fill="#0F7CE8" d="M21.788 38.109c5.384-3.109 12.607-4.82 20.34-4.82 7.658 0 14.792 1.683 20.087 4.74 4.477 2.585 7.012 5.791 7.194 9.065.007-.124.018-.249.018-.373-.004-3.403-2.565-6.754-7.212-9.438-5.295-3.057-12.429-4.74-20.087-4.74-7.733 0-14.956 1.711-20.34 4.82-4.676 2.7-7.355 6.198-7.351 9.6 0 .124.01.247.018.371.184-3.282 2.829-6.625 7.333-9.225" transform="translate(709 15)"/>
                <path fill="#FFF" d="M38.542 53.99l.02-3.6c-.742-.283-1.481-.636-2.212-1.058-3.93-2.269-4.42-4.697-1.308-6.493 1.298-.75 2.806-1.144 4.418-1.167l-.068 12.47c.801.128 1.61.213 2.419.25.34.015.676.02 1.01.018v.001l.132-.002.295-.001v-.003c3.031-.067 5.823-.79 8.14-2.129 2.68-1.547 3.942-3.456 3.65-5.522-.273-1.943-1.947-3.892-4.714-5.49-1.838-1.061-3.946-1.842-6.14-2.294l-.02 3.619c.7.278 1.401.618 2.098 1.02 1.81 1.045 2.902 2.104 3.247 3.147.405 1.224-.256 2.376-1.912 3.331-1.288.744-2.765 1.13-4.332 1.168l.068-12.445c-.833-.138-1.676-.228-2.517-.267-.169-.008-.335-.012-.503-.016h-.004c-.193-.005-.386-.006-.577-.005h-.255v.003c-3.062.05-5.885.773-8.225 2.125-2.681 1.548-3.948 3.46-3.665 5.53.267 1.949 1.936 3.902 4.7 5.498 1.867 1.077 4.016 1.866 6.255 2.312" transform="translate(709 15)"/>
                <path fill="#111D28" fill-opacity=".1" d="M12.646 55.809c-3.319-1.916-5.727-4.16-7.225-6.553 2.063-2.076 6.037-2.147 6.035-4.218-.006-4.636-4.818-11.173 1.328-14.721 12.23-7.062 32-7.098 44.154-.08 6.047 3.49 9.07 8.07 9.076 12.66.005 4.637-3.068 9.284-9.214 12.832-12.23 7.062-32 7.097-44.154.08" transform="translate(709 15)"/>
                <path fill="#1A82FF" d="M66.014 34.222v5.467c.005 4.636-3.068 9.283-9.214 12.832-12.231 7.062-32 7.097-44.154.08-6.047-3.492-9.07-8.071-9.076-12.661v-5.718h62.444z" transform="translate(709 15)"/>
                <path fill="#40A0FF" d="M12.646 47.133c-6.047-3.491-9.07-8.07-9.076-12.661-.005-4.636 3.068-9.283 9.214-12.831 12.23-7.062 32-7.098 44.154-.08 6.047 3.491 9.07 8.07 9.076 12.66.005 4.637-3.068 9.284-9.214 12.832-12.23 7.062-32 7.098-44.154.08" transform="translate(709 15)"/>
                <path fill="#1A82FF" d="M34.596 48.646c-7.659 0-14.792-1.684-20.087-4.74-4.647-2.683-7.208-6.035-7.212-9.439-.004-3.4 2.675-6.9 7.35-9.599 5.385-3.108 12.608-4.82 20.341-4.82 7.658 0 14.792 1.683 20.087 4.74 4.647 2.683 7.208 6.035 7.212 9.438.004 3.401-2.675 6.9-7.35 9.6-5.385 3.108-12.609 4.82-20.341 4.82" transform="translate(709 15)"/>
                <path fill="#0F7CE8" d="M14.648 25.614c5.384-3.109 12.607-4.821 20.34-4.821 7.658 0 14.792 1.684 20.087 4.74 4.477 2.586 7.011 5.792 7.194 9.066.007-.125.018-.249.018-.373-.004-3.403-2.565-6.755-7.212-9.438-5.295-3.057-12.429-4.74-20.087-4.74-7.733 0-14.956 1.711-20.34 4.82-4.676 2.7-7.355 6.198-7.351 9.6 0 .124.01.247.018.371.184-3.282 2.828-6.625 7.333-9.225" transform="translate(709 15)"/>
                <path fill="#FFF" d="M31.402 41.495l.019-3.6c-.74-.283-1.48-.636-2.211-1.058-3.93-2.27-4.42-4.697-1.308-6.493 1.298-.75 2.806-1.144 4.418-1.167l-.068 12.47c.801.128 1.61.212 2.418.25.34.015.677.02 1.01.018l.001.001.132-.002c.098 0 .197 0 .295-.002v-.003c3.031-.066 5.822-.79 8.14-2.128 2.68-1.547 3.941-3.456 3.65-5.522-.273-1.943-1.947-3.893-4.714-5.49-1.838-1.061-3.946-1.842-6.14-2.294l-.02 3.618c.7.279 1.401.62 2.098 1.022 1.81 1.044 2.901 2.102 3.247 3.146.405 1.223-.256 2.375-1.912 3.331-1.289.744-2.765 1.13-4.332 1.168l.068-12.445c-.834-.138-1.676-.228-2.517-.268-.169-.008-.336-.011-.503-.016h-.005c-.192-.004-.385-.005-.576-.004h-.255v.003c-3.062.05-5.885.773-8.226 2.125-2.68 1.548-3.947 3.46-3.664 5.53.267 1.949 1.936 3.902 4.7 5.498 1.867 1.077 4.016 1.865 6.255 2.312" transform="translate(709 15)"/>
                <path fill="#111D28" fill-opacity=".1" d="M59.056 52.239c-6.047-3.491-9.07-8.07-9.075-12.661-.006-4.636 3.068-9.283 9.213-12.832 12.231-7.061 32-7.097 44.155-.08 6.047 3.492 9.07 8.071 9.075 12.661.006 4.637-3.068 9.284-9.213 12.832-12.231 7.062-32 7.098-44.155.08" transform="translate(709 15)"/>
                <path fill="#1A82FF" d="M112.424 30.652v5.467c.006 4.636-3.067 9.284-9.214 12.832-12.23 7.061-32 7.097-44.154.08-6.047-3.492-9.07-8.071-9.075-12.661v-5.718h62.443z" transform="translate(709 15)"/>
                <path fill="#40A0FF" d="M59.056 43.563c-6.047-3.491-9.07-8.07-9.075-12.66-.006-4.637 3.068-9.284 9.213-12.832 12.231-7.062 32-7.098 44.155-.08 6.047 3.491 9.07 8.07 9.075 12.66.006 4.637-3.068 9.284-9.213 12.832-12.231 7.062-32 7.098-44.155.08" transform="translate(709 15)"/>
                <path fill="#1A82FF" d="M81.007 45.076c-7.66 0-14.793-1.683-20.087-4.74-4.647-2.683-7.209-6.035-7.213-9.438-.004-3.402 2.676-6.9 7.351-9.6 5.384-3.108 12.608-4.82 20.34-4.82 7.659 0 14.793 1.683 20.088 4.74 4.646 2.683 7.208 6.035 7.212 9.438.004 3.401-2.676 6.9-7.35 9.6-5.385 3.108-12.61 4.82-20.341 4.82" transform="translate(709 15)"/>
                <path fill="#0F7CE8" d="M61.058 22.044c5.384-3.11 12.608-4.82 20.341-4.82 7.658 0 14.792 1.683 20.087 4.74 4.477 2.585 7.01 5.79 7.194 9.065.007-.124.018-.249.018-.373-.004-3.403-2.566-6.754-7.212-9.438-5.295-3.057-12.429-4.74-20.087-4.74-7.733 0-14.957 1.711-20.34 4.82-4.676 2.7-7.355 6.198-7.352 9.6 0 .124.011.247.018.371.185-3.282 2.829-6.625 7.333-9.225" transform="translate(709 15)"/>
                <path fill="#FFF" d="M77.812 37.925l.02-3.6c-.741-.283-1.481-.636-2.212-1.058-3.93-2.27-4.419-4.697-1.307-6.494 1.298-.75 2.806-1.143 4.418-1.166l-.068 12.47c.8.128 1.61.212 2.418.25.34.015.676.019 1.01.018v.001l.133-.002c.098 0 .197 0 .295-.002v-.003c3.03-.066 5.822-.79 8.14-2.128 2.679-1.547 3.941-3.456 3.65-5.522-.273-1.943-1.948-3.893-4.714-5.49-1.838-1.061-3.947-1.842-6.141-2.294l-.02 3.618c.701.279 1.402.619 2.099 1.021 1.808 1.045 2.901 2.103 3.246 3.147.405 1.223-.256 2.375-1.911 3.331-1.289.744-2.766 1.13-4.332 1.168l.067-12.445c-.833-.138-1.675-.228-2.516-.268-.17-.007-.336-.012-.503-.016h-.005c-.193-.004-.385-.005-.576-.005h-.255v.004c-3.063.05-5.885.773-8.226 2.125-2.68 1.547-3.947 3.46-3.664 5.53.266 1.949 1.936 3.901 4.7 5.497 1.867 1.078 4.016 1.866 6.254 2.313" transform="translate(709 15)"/>
                <path fill="#111D28" fill-opacity=".1" d="M55.486 39.744c-6.047-3.492-9.07-8.071-9.075-12.661-.006-4.636 3.067-9.283 9.214-12.832 12.23-7.061 31.999-7.097 44.154-.08 6.047 3.492 9.07 8.071 9.075 12.661.006 4.637-3.068 9.283-9.214 12.832-12.23 7.061-32 7.097-44.154.08" transform="translate(709 15)"/>
                <path fill="#1A82FF" d="M108.854 18.156v5.468c.006 4.636-3.067 9.283-9.214 12.832-12.23 7.061-32 7.097-44.154.08-6.047-3.492-9.07-8.071-9.076-12.661v-5.719h62.444z" transform="translate(709 15)"/>
                <g transform="translate(709 15) translate(46.318 .213)">
                    <mask id="prefix__h" fill="#fff">
                        <use xlink:href="#prefix__g"/>
                    </mask>
                    <path fill="#40A0FF" d="M9.169 30.855C3.12 27.363.099 22.784.093 18.193.088 13.557 3.16 8.91 9.307 5.362c12.231-7.062 32-7.097 44.154-.08 6.047 3.492 9.07 8.07 9.076 12.661.005 4.636-3.068 9.283-9.214 12.832-12.231 7.061-32 7.097-44.154.08" mask="url(#prefix__h)"/>
                </g>
                <path fill="#1A82FF" d="M77.436 32.58c-7.658 0-14.792-1.683-20.086-4.74-4.647-2.682-7.209-6.034-7.213-9.438-.004-3.4 2.676-6.9 7.35-9.6 5.385-3.108 12.609-4.82 20.342-4.82 7.658 0 14.792 1.684 20.087 4.741 4.646 2.683 7.208 6.035 7.212 9.437.004 3.402-2.675 6.901-7.35 9.6-5.385 3.11-12.61 4.82-20.342 4.82" transform="translate(709 15)"/>
                <path fill="#0F7CE8" d="M57.488 9.548c5.384-3.108 12.608-4.82 20.34-4.82 7.659 0 14.793 1.683 20.088 4.74 4.477 2.586 7.01 5.792 7.193 9.066.008-.125.019-.25.019-.373-.004-3.403-2.566-6.755-7.212-9.438-5.295-3.057-12.43-4.74-20.087-4.74-7.733 0-14.957 1.711-20.341 4.82-4.675 2.7-7.354 6.198-7.35 9.6 0 .123.01.247.017.37.185-3.281 2.829-6.624 7.333-9.225" transform="translate(709 15)"/>
                <path fill="#FFF" d="M74.242 25.43l.02-3.6c-.741-.284-1.48-.636-2.212-1.058-3.93-2.27-4.42-4.697-1.307-6.494 1.298-.75 2.806-1.143 4.417-1.166l-.067 12.47c.8.128 1.61.212 2.418.249.34.016.676.02 1.01.019h.132c.099-.002.198 0 .296-.003v-.003c3.03-.066 5.822-.79 8.14-2.128 2.679-1.547 3.941-3.456 3.65-5.522-.273-1.943-1.948-3.893-4.714-5.49-1.839-1.062-3.946-1.842-6.141-2.294l-.02 3.618c.701.279 1.402.619 2.098 1.021 1.81 1.045 2.902 2.103 3.247 3.146.405 1.224-.256 2.376-1.911 3.332-1.289.744-2.766 1.13-4.332 1.168l.067-12.445c-.833-.138-1.675-.228-2.517-.268-.168-.008-.335-.012-.502-.016h-.005c-.193-.004-.385-.006-.576-.005h-.255v.004c-3.063.05-5.885.773-8.226 2.125-2.68 1.547-3.948 3.46-3.664 5.53.266 1.949 1.936 3.901 4.7 5.497 1.867 1.078 4.016 1.866 6.254 2.313" transform="translate(709 15)"/>
                <path fill="#111D28" fill-opacity=".1" d="M39.617 71.77c0-16.857 13.665-30.522 30.522-30.522s30.523 13.665 30.523 30.522-13.666 30.522-30.523 30.522S39.617 88.627 39.617 71.77" transform="translate(709 15)"/>
                <path fill="#40A0FF" d="M38.724 71.056c0-16.857 13.665-30.522 30.523-30.522 16.857 0 30.522 13.665 30.522 30.522s-13.665 30.522-30.522 30.522c-16.858 0-30.523-13.665-30.523-30.522" transform="translate(709 15)"/>
                <path fill="#1A82FF" d="M44.416 71.056c0-13.713 11.117-24.83 24.83-24.83 13.714 0 24.831 11.117 24.831 24.83 0 13.714-11.117 24.83-24.83 24.83-13.714 0-24.831-11.116-24.831-24.83" transform="translate(709 15)"/>
                <path fill="#0F7CE8" d="M45.13 71.77c0-13.714 11.117-24.83 24.83-24.83 6.676 0 12.735 2.634 17.197 6.92-4.518-4.706-10.872-7.635-17.91-7.635-13.714 0-24.831 11.118-24.831 24.831 0 7.039 2.929 13.392 7.634 17.91-4.286-4.461-6.92-10.52-6.92-17.196" transform="translate(709 15)"/>
                <path fill="#FFF" d="M80.175 64.106l-4.301 4.302c.171.853.26 1.788.26 2.799 0 5.441-2.556 8.69-6.837 8.69-1.785 0-3.292-.571-4.428-1.66l14.903-14.903c-.4-.706-.855-1.368-1.367-1.972-.215-.253-.442-.49-.673-.721l.002-.002c-.03-.03-.063-.058-.093-.089-.069-.067-.136-.137-.206-.202l-.003.004c-2.164-2.019-4.946-3.083-8.135-3.083-3.685 0-6.828 1.416-9.09 4.093-2.126 2.519-3.297 6.015-3.297 9.845 0 2.544.52 4.94 1.49 7l4.325-4.324c-.15-.819-.227-1.711-.227-2.676 0-2.504.51-4.53 1.516-6.019 1.179-1.747 3.006-2.67 5.283-2.67 1.773 0 3.249.558 4.37 1.598L58.796 78.988c.409.743.881 1.433 1.413 2.063.106.126.216.246.327.367l.003.003c.127.14.258.274.39.405l.05.05c.042.042.083.086.126.127l.004-.005c2.166 2.06 4.969 3.146 8.19 3.146 3.686 0 6.836-1.415 9.107-4.093 2.14-2.521 3.317-6.018 3.317-9.844 0-2.585-.539-5.016-1.547-7.1M117.78 13.692c-8.858 0-12.139 2.887-12.139 12.138 0-9.251-3.28-12.138-12.138-12.138 8.858 0 12.138-2.886 12.138-12.138 0 9.252 3.281 12.138 12.138 12.138" transform="translate(709 15)"/>
            </g>
        </g>
    </g>
</svg>
