<svg xmlns="http://www.w3.org/2000/svg" width="68" height="18" viewBox="0 0 68 18">
    <g fill="#999" fill-rule="evenodd">
        <path d="M9.455 5.553c.085.425.13.892.13 1.396 0 2.713-1.275 4.332-3.41 4.332-.89 0-1.64-.284-2.207-.827l7.43-7.43c-.199-.352-.426-.682-.681-.983-.108-.127-.22-.245-.336-.36l.001-.001-.046-.044c-.035-.033-.068-.069-.103-.1h-.002C9.153.532 7.765 0 6.176 0 4.338 0 2.77.706 1.644 2.04.584 3.297 0 5.04 0 6.95c0 1.269.26 2.463.743 3.49L2.9 8.283c-.075-.408-.113-.853-.113-1.334 0-1.249.254-2.258.756-3.001.587-.871 1.498-1.332 2.634-1.332.884 0 1.62.28 2.179.798L.94 10.828c.203.37.439.715.704 1.029.053.063.108.123.163.183l.002.001c.063.07.128.137.194.202l.025.025c.021.02.041.043.063.063l.002-.002c1.08 1.027 2.477 1.569 4.083 1.569 1.838 0 3.408-.706 4.54-2.041 1.067-1.257 1.654-3 1.654-4.908 0-1.289-.269-2.501-.77-3.54L9.454 5.553zM50.15 10.717c.258-.221.593-.355.959-.355h.16v-1.06c0-2.63-.037-4.54-.018-4.54h.019c.018 0 1.475 2.08 2.667 3.707l1.395 1.893h.442c.508 0 .956.257 1.221.648.746-.509 1.623-.774 2.577-.774.208 0 .41.014.608.038V.334h-2.63v4.333c0 2.232.038 4.389.02 4.389h-.02c-.018 0-1.683-2.365-2.591-3.557L51.119.335H48.64v9.924c.548.054 1.058.21 1.51.458M45.58 11.29c.063-.064.13-.127.2-.187l.011-.01c.25-.213.526-.387.822-.522V.335h-2.63v10.16c.585.147 1.123.414 1.597.796M39.016 11.836c0-.814.66-1.474 1.473-1.474h1.645V6.294h-5.922v2.138h3.67v.567c-.416 1.022-1.607 2.27-3.878 2.27-2.459 0-4.275-1.683-4.275-4.313 0-2.516 1.646-4.294 4.124-4.294 1.306 0 2.61.624 3.33 1.608l2.686-.7C40.677 1.45 38.483.089 35.853.07c-3.803 0-6.867 2.894-6.867 6.886s3.064 6.886 6.867 6.886c1.21 0 2.345-.412 3.163-.939v-1.067zM25.055 13.577L27.685 13.577 27.685.335 25.055.335zM18.459 6.71h-2.346V2.794h2.346c1.438 0 2.138.927 2.138 1.968 0 1.002-.681 1.948-2.138 1.948m4.862-1.948c0-2.668-1.949-4.427-5.203-4.427h-4.635v13.242h2.63V9.056h2.157l2.63 4.521h2.95l-3.026-5.013c1.608-.662 2.497-1.986 2.497-3.802M65.652 14.53c.337 0 .598-.26.598-.63 0-.371-.26-.624-.598-.624h-.783v1.255h.783zm0-2.694c.598 0 1.095.194 1.5.581.404.388.606.884.606 1.482s-.202 1.095-.607 1.483c-.404.387-.9.58-1.499.58h-.783v1.77h-1.507v-5.896h2.29zm-6.08 4.548c.455 0 .834-.152 1.137-.447.303-.303.455-.69.455-1.154 0-.463-.152-.85-.455-1.145-.303-.303-.682-.455-1.137-.455-.454 0-.834.152-1.137.455-.303.295-.455.682-.455 1.145 0 .464.152.851.455 1.154.303.295.683.447 1.137.447zm0 1.473c-.867 0-1.6-.294-2.198-.884-.598-.598-.892-1.322-.892-2.19 0-.867.294-1.591.892-2.18.598-.599 1.33-.893 2.198-.893.868 0 1.592.294 2.19.892.598.59.901 1.314.901 2.181 0 .868-.303 1.592-.901 2.19-.598.59-1.322.884-2.19.884zm-5.297-6.02h1.5v5.894h-1.5v-2.265h-1.659v2.265H51.11v-5.895h1.507v2.181h1.66v-2.18zm-8.362 4.555l1.288-.75c.22.523.607.784 1.163.784.463 0 .69-.135.69-.396 0-.177-.135-.312-.396-.421-.11-.042-.362-.118-.741-.227-1.078-.312-1.752-.834-1.752-1.845 0-.547.194-.985.581-1.322.396-.337.885-.505 1.466-.505.985 0 1.785.471 2.19 1.347l-1.264.741c-.185-.438-.488-.657-.918-.657-.362 0-.547.16-.547.388 0 .26.21.404 1.01.64.287.084.514.16.691.236.177.075.362.176.573.32.412.27.615.707.615 1.288 0 .581-.203 1.028-.615 1.356-.413.328-.952.488-1.626.488-1.246 0-2.08-.564-2.408-1.465zm-3.024-.118c.413 0 .742-.135 1.003-.404.26-.278.387-.64.387-1.087 0-.446-.126-.808-.387-1.077-.261-.278-.59-.413-1.003-.413h-.85v2.981h.85zm0-4.438c.817 0 1.491.286 2.039.85.547.565.825 1.264.825 2.097 0 .834-.278 1.542-.825 2.106-.548.564-1.222.842-2.039.842h-2.4v-5.895h2.4z"/>
    </g>
</svg>
