<svg xmlns="http://www.w3.org/2000/svg" width="89" height="35" viewBox="0 0 89 35">
    <g fill="#FFF" fill-rule="evenodd">
        <path d="M16.783 5.932L13.68 9.036c.124.615.188 1.29.188 2.019 0 3.925-1.844 6.269-4.932 6.269-1.288 0-2.375-.413-3.195-1.198L16.49 5.375c-.287-.51-.615-.986-.985-1.422-.155-.183-.32-.354-.485-.521V3.43l-.066-.063c-.05-.05-.098-.1-.148-.147l-.003.003C13.243 1.768 11.236 1 8.936 1 6.278 1 4.01 2.022 2.379 3.953.845 5.77-.001 8.292-.001 11.055c0 1.835.376 3.564 1.076 5.05l3.12-3.12c-.108-.591-.163-1.235-.163-1.93 0-1.807.367-3.268 1.092-4.343.85-1.26 2.169-1.926 3.812-1.926 1.279 0 2.344.403 3.153 1.153L1.359 16.668c.296.535.636 1.034 1.02 1.488.077.09.156.177.236.264l.002.003c.092.1.186.197.282.292l.035.036c.03.03.06.062.09.09l.005-.002c1.562 1.487 3.584 2.27 5.907 2.27 2.66 0 4.932-1.022 6.57-2.952 1.543-1.82 2.393-4.342 2.393-7.102 0-1.864-.39-3.62-1.116-5.123zm70.292-4.447v19.16H83.49l-5.448-7.39C76.318 10.9 74.21 7.89 74.182 7.89h-.027c-.027 0 .027 2.765.027 6.569v6.187h-3.804V1.485h3.586l5.556 7.472c1.314 1.725 3.723 5.146 3.75 5.146h.028c.027 0-.028-3.12-.028-6.35V1.485h3.805zm-23.436 19.16h3.805V1.486h-3.805v19.16zm-5.96-1.998c-1.04 1.178-3.312 2.382-5.803 2.382-5.502 0-9.936-4.19-9.936-9.964 0-5.776 4.434-9.964 9.936-9.964 3.805.027 6.98 1.998 8.705 5.064l-3.887 1.013c-1.04-1.424-2.93-2.327-4.818-2.327-3.586 0-5.967 2.573-5.967 6.214 0 3.805 2.627 6.24 6.186 6.24 3.285 0 5.009-1.806 5.612-3.284V13.2h-5.311v-3.093h8.568v10.539h-3.285c0-1.588.028-1.972.028-2h-.028zm-21.426 1.999h3.805V1.485h-3.805v19.16zm-12.94-9.937h3.396c2.107 0 3.093-1.37 3.093-2.82 0-1.505-1.013-2.846-3.093-2.846h-3.395v5.666zm6.927 9.937l-3.805-6.543h-3.121v6.543H19.51V1.485h6.706c4.708 0 7.527 2.545 7.527 6.405 0 2.628-1.286 4.544-3.613 5.502l4.38 7.254h-4.27zM6.595 28.606c-.347-.915-.6-1.61-.616-1.625h-.047c-.016.016-.268.694-.615 1.609l-.789 2.209h2.856l-.789-2.193zM3.66 33.213l-.663 1.83H.205L4.465 24h3.013l4.276 11.043h-2.84l-.663-1.83h-4.59zM15.495 26.46L15.495 28.574 19.581 28.574 19.581 31.035 15.495 31.035 15.495 35.043 12.844 35.043 12.844 23.999 20.749 23.999 20.749 26.46zM24.853 26.46L24.853 28.574 28.939 28.574 28.939 31.035 24.853 31.035 24.853 35.043 22.202 35.043 22.202 23.999 30.107 23.999 30.107 26.46zM31.559 35.043L34.209 35.043 34.209 23.999 31.559 23.999zM35.977 23.999L38.628 23.999 38.628 32.582 43.582 32.582 43.582 35.043 35.977 35.043zM44.956 35.043L47.607 35.043 47.607 23.999 44.956 23.999zM55.086 28.606c-.347-.915-.6-1.61-.616-1.625h-.047c-.016.016-.268.694-.615 1.609l-.789 2.209h2.856l-.789-2.193zm-2.935 4.607l-.663 1.83h-2.792L52.956 24h3.013l4.276 11.043h-2.84l-.663-1.83h-4.591zM65.232 26.46L65.232 35.043 62.582 35.043 62.582 26.46 59.205 26.46 59.205 23.999 68.608 23.999 68.608 26.46zM69.983 23.999L78.029 23.999 78.029 26.46 72.633 26.46 72.633 28.353 76.609 28.353 76.609 30.562 72.633 30.562 72.633 32.582 78.108 32.582 78.108 35.043 69.983 35.043zM81.722 31.604c.221.836.994 1.325 2.193 1.325 1.01 0 1.625-.346 1.625-1.056 0-1.058-1.325-.995-2.682-1.327-1.499-.362-3.36-1.056-3.36-3.391 0-2.256 1.703-3.377 4.181-3.377 2.256 0 3.865.916 4.48 2.888l-2.524.678c-.268-.804-.899-1.247-2.004-1.247-1.01 0-1.435.395-1.435.979 0 .93 1.057 1.073 2.603 1.388 1.625.316 3.423 1.01 3.423 3.392 0 2.272-1.593 3.408-4.29 3.408-1.926 0-4.103-.584-4.734-2.981l2.524-.68z" transform="translate(0 -1)"/>
    </g>
</svg>
