<svg height="40" viewBox="0 0 199 40" width="199" xmlns="http://www.w3.org/2000/svg"><g fill="none" fill-rule="evenodd"><rect fill="#fff" height="39" rx="19.5" stroke="#e4eaf2" width="198" x=".5" y=".5"/><path d="m61.254 24h-1.162v-9.338h3.752c1.876 0 2.926 1.288 2.926 2.814s-1.064 2.814-2.926 2.814h-2.59zm2.45-4.746c1.106 0 1.862-.728 1.862-1.778s-.756-1.778-1.862-1.778h-2.45v3.556zm7.336 4.914c-2.058 0-3.346-1.596-3.346-3.556s1.288-3.542 3.346-3.542 3.346 1.582 3.346 3.542-1.288 3.556-3.346 3.556zm0-.938c1.442 0 2.24-1.232 2.24-2.618 0-1.372-.798-2.604-2.24-2.604s-2.24 1.232-2.24 2.604c0 1.386.798 2.618 2.24 2.618zm11.97.77h-1.064l-1.764-5.432-1.764 5.432h-1.05l-2.156-6.762h1.092l1.652 5.39 1.778-5.39h.91l1.764 5.39 1.652-5.39h1.106zm6.426.168c-2.016 0-3.458-1.442-3.458-3.556 0-1.96 1.4-3.542 3.332-3.542 2.044 0 3.248 1.596 3.248 3.626v.266h-5.46c.084 1.274.966 2.338 2.422 2.338.784 0 1.554-.308 2.1-.868l.504.686c-.686.672-1.596 1.05-2.688 1.05zm2.086-3.99c-.014-.994-.686-2.24-2.226-2.24-1.442 0-2.156 1.218-2.212 2.24zm3.78 3.822h-1.05v-6.762h1.05v1.078c.546-.7 1.33-1.232 2.254-1.232v1.078c-.126-.014-.252-.028-.406-.028-.658 0-1.54.532-1.848 1.078zm6.636.168c-2.016 0-3.458-1.442-3.458-3.556 0-1.96 1.4-3.542 3.332-3.542 2.044 0 3.248 1.596 3.248 3.626v.266h-5.46c.084 1.274.966 2.338 2.422 2.338.784 0 1.554-.308 2.1-.868l.504.686c-.686.672-1.596 1.05-2.688 1.05zm2.086-3.99c-.014-.994-.686-2.24-2.226-2.24-1.442 0-2.156 1.218-2.212 2.24zm8.68 3.822h-1.05v-1.008c-.504.686-1.33 1.176-2.282 1.176-1.764 0-3.01-1.344-3.01-3.542 0-2.17 1.246-3.556 3.01-3.556.91 0 1.736.448 2.282 1.19v-3.598h1.05zm-3.066-.77c.826 0 1.652-.49 2.016-1.078v-3.052c-.364-.588-1.19-1.092-2.016-1.092-1.372 0-2.184 1.12-2.184 2.618s.812 2.604 2.184 2.604zm9.842-1.064c.364.588 1.19 1.064 2.03 1.064 1.358 0 2.17-1.106 2.17-2.604s-.812-2.618-2.17-2.618c-.84 0-1.666.504-2.03 1.092zm0 1.834h-1.05v-9.338h1.05v3.598c.546-.742 1.372-1.19 2.282-1.19 1.778 0 3.01 1.386 3.01 3.556 0 2.198-1.246 3.542-3.01 3.542-.952 0-1.778-.49-2.282-1.176zm6.636 2.646.154-.952c.154.07.406.112.574.112.462 0 .77-.154 1.008-.714l.448-1.022-2.828-6.832h1.148l2.24 5.544 2.254-5.544h1.134l-3.388 8.134c-.406.98-1.092 1.358-1.988 1.372-.224 0-.574-.042-.756-.098zm14.938-2.478c-2.842 0-4.214-1.596-4.214-3.906v-5.6h2.016v5.544c0 1.302.756 2.198 2.198 2.198s2.184-.896 2.184-2.198v-5.544h2.03v5.6c0 2.31-1.372 3.906-4.214 3.906zm9.884 0c-.798 0-1.526-.336-2.086-1.036v3.444h-1.778v-9.338h1.778v.854c.518-.658 1.26-1.022 2.086-1.022 1.736 0 2.996 1.288 2.996 3.542s-1.26 3.556-2.996 3.556zm-.56-1.582c1.022 0 1.722-.798 1.722-1.974 0-1.162-.7-1.96-1.722-1.96-.574 0-1.218.322-1.526.77v2.38c.294.434.952.784 1.526.784zm11.214 1.414h-1.778v-4.116c0-.938-.49-1.232-1.246-1.232-.7 0-1.246.392-1.54.784v4.564h-1.792v-9.338h1.792v3.444c.434-.504 1.26-1.036 2.366-1.036 1.484 0 2.198.812 2.198 2.128zm4.9.168c-2.226 0-3.57-1.638-3.57-3.556s1.344-3.542 3.57-3.542c2.24 0 3.584 1.624 3.584 3.542s-1.344 3.556-3.584 3.556zm0-1.582c1.12 0 1.736-.91 1.736-1.974 0-1.05-.616-1.96-1.736-1.96-1.106 0-1.722.91-1.722 1.96 0 1.064.616 1.974 1.722 1.974zm6.692 1.414h-1.778v-9.338h1.778zm8.204 0h-1.792v-.868c-.532.672-1.26 1.036-2.086 1.036-1.694 0-2.996-1.288-2.996-3.556 0-2.198 1.274-3.542 2.996-3.542.798 0 1.554.336 2.086 1.036v-3.444h1.792zm-3.318-1.414c.588 0 1.232-.322 1.526-.77v-2.394c-.294-.448-.938-.77-1.526-.77-1.022 0-1.722.798-1.722 1.96 0 1.176.7 1.974 1.722 1.974z" fill="#3c4a5b" fill-rule="nonzero"/><path d="m46 4h1v32h-1z" fill="#e4eaf2"/><path d="m31.4956938 21.3147826c-.5501307 1.1853913-1.2597993 2.2486957-2.0470364 3.1241739.5688352-2.1177391.29432-4.8526956-.9368725-7.5088695-.643653-1.3878261-1.4969057-2.6363479-2.487141-3.6542609 1.5497182-1.1874783 3.1632516-1.5746087 4.4103979-1.0283478.7987898.3500869 1.4154863 1.0674782 1.7824235 2.0733913.6948151 1.905913.425251 4.5208695-.7217715 6.993913m-12.9913366 0c-1.1475727-2.4730435-1.4171367-5.088-.7217715-6.993913.3669372-1.0059131.9830836-1.7233044 1.7824235-2.0733913 1.2465962-.5467826 2.8606797-.1591305 4.4103979 1.0283478-.9907854 1.017913-1.8440382 2.2664348-2.487141 3.6542609-1.2317426 2.6561739-1.5057077 5.3911304-.9374227 7.5088695-.787237-.8754782-1.4969056-1.9387826-2.0464862-3.1241739m7.6578194 5.3587826c-.3575849.1570435-.7487279.2389565-1.1624262.2441739-.4136983-.0052174-.8048412-.0871304-1.1624262-.2441739-2.4013205-1.0518261-2.8865358-5.268-1.060652-9.2066087.5792877-1.2490435 1.3406686-2.3702608 2.2214278-3.2780869.8818596.9083478 1.645441 2.028 2.2247286 3.2786087 1.826434 3.9380869 1.3406685 8.1542608-1.060652 9.2060869m3.2606247-15.9975652c-1.422638-.0563478-2.9734565.5206957-4.4225007 1.6716522-1.4490443-1.1509565-2.9998628-1.7285218-4.4230509-1.6726957 1.2553983-.8509565 2.7880624-1.33982607 4.4219506-1.33982607 1.6344383 0 3.1682027.48939131 4.423601 1.34086957m4.1309315 3.2264348c-.0005502-.0010435-.0005502-.0026087-.0011003-.0041739-.0011003-.0026087-.0022005-.0046957-.0027506-.0073044-.0011003-.0020869-.0016504-.0041739-.0022006-.0067826-.0016504-.0041739-.0038509-.0083478-.0055013-.0130435-1.2014854-3.5128695-4.6304501-5.8711304-8.5429797-5.8711304-3.9229821 0-7.3607488 2.3702609-8.5534322 5.8982609-.0022005.0057391-.0022005.012-.0038509.0177391-.7943888 2.2121739-.5066704 5.1756522.7734837 7.9366957 1.7516162 3.7768695 4.9297213 6.4012173 7.74419 6.4012173.0137533 0 .0269564-.0005217.0401595-.0005217.0137533 0 .0269564.0005217.0401596.0005217 2.8144687-.0005217 5.9931239-2.6243478 7.7441899-6.4012173 1.2829048-2.7662609 1.5695229-5.736.7696329-7.9502609m-6.1466104 16.4285217c-.7905378.2217392-1.5788751.3339131-2.3430067.3339131h-.1116765c-.7690827 0-1.5629213-.1137392-2.3584103-.338087-.3729887-.1048696-.7646817.0965217-.875258.4497391-.1111264.3532174.1012241.7246957.4742127.830087.9253198.2608696 1.8539404.3933913 2.7594556.3933913h.1116765c.8989136 0 1.8220329-.1309565 2.7418515-.3886957.3729886-.1043478.5858892-.475826.475863-.8295652-.1100261-.3532174-.5017192-.5556521-.8747078-.4507826" fill="#49cc68"/></g></svg>