<svg xmlns="http://www.w3.org/2000/svg" width="109" height="99" viewBox="0 0 109 99">
    <path fill-rule="evenodd" d="M92.788 56.605c2.654 0 4.806 2.152 4.806 4.806 0 2.655-2.152 4.807-4.806 4.807-2.655 0-4.806-2.152-4.806-4.807 0-2.654 2.151-4.806 4.806-4.806zM14.259 10.501h79.648v6.728H14.259c-1.858 0-3.364-1.506-3.364-3.364 0-1.858 1.506-3.364 3.364-3.364zm52.574 65.335c-7.949 6.53-19.646 6.074-27.04-1.026-7.532-7.234-8.534-18.774-2.295-27.083 6.442-8.58 17.47-10.185 25.561-6.052-1.037.949-1.736 2.072-2.137 3.424-5.232-2.255-10.359-2.124-15.314.723-3.155 1.814-5.441 4.452-6.844 7.814-2.856 6.843-.865 14.518 4.949 19.2 5.605 4.513 13.615 4.753 19.59.58 5.85-4.086 8.77-11.855 5.886-19.453 1.35-.314 2.547-.928 3.552-1.9 2.982 6.543 2.361 16.98-5.908 23.773zM47.925 64.024c0 1.151.713 2.018 1.754 2.156 1.266.169 2.334-.755 2.338-2.045.008-2.641.003-5.283.003-7.924v-.55h3.724v8.384c0 1.24.883 2.173 2.05 2.17 1.154-.004 2.05-.949 2.052-2.18.004-3.62.001-7.241.001-10.862v-.53h4.024v.448c0 3.715.002 7.43-.001 11.143-.003 2.967-2.346 5.528-5.29 5.807-1.705.162-3.203-.308-4.51-1.407-.04-.035-.082-.069-.126-.1-.02-.014-.049-.018-.09-.033-1.016.9-2.197 1.43-3.569 1.56-2.9.275-5.725-1.82-6.269-4.69-.074-.392-.117-.797-.118-1.197-.009-3.7-.005-7.402-.004-11.102 0-.131.012-.262.02-.421h4.01v.471c0 3.634-.003 7.268 0 10.902zm21.244-16.516c-.21-.204-.535-.324-.83-.4-.25-.065-.53-.013-.833-.013v-1.357c.275 0 .552.014.826-.003.67-.042.982-.342.985-.92.003-.696-.375-1.196-.944-1.25-.635-.061-1.104.29-1.212.909l-.051.289-1.682-.222c-.091-1.048.36-1.852 1.275-2.28.862-.404 1.755-.458 2.657-.157 1.892.631 2.498 2.785 1.203 4.326.636.594.748 1.35.633 2.17-.158 1.133-.827 1.832-1.894 2.157-.833.254-1.666.221-2.475-.123-.998-.424-1.458-1.172-1.41-2.332l1.664-.224c.03.106.063.19.079.278.093.517.349.797.843.893.426.082.803-.005 1.068-.38.27-.38.365-1.1.098-1.36zm23.619 23.273c-5.175 0-9.37-4.195-9.37-9.37 0-5.174 4.195-9.37 9.37-9.37h15.692l-.008-.708v-21.24c0-5.175-4.195-9.37-9.37-9.37H13.48c-3.787 0-6.858-3.07-6.858-6.858 0-3.787 3.07-6.858 6.858-6.858h79.838c2.654 0 4.806 2.152 4.806 4.807v5.296h6.433l-.126-7.74c0-5.175-4.195-9.37-9.37-9.37H16.763C7.505 0 0 7.505 0 16.763v64.912c0 9.258 7.505 16.763 16.763 16.763h82.34c5.174 0 9.37-4.195 9.37-9.37V71.665l-.005-.884h-15.68z"/>
</svg>
