<?xml version="1.0" standalone="no"?>
<svg xmlns="http://www.w3.org/2000/svg" version="1.1" width="232" height="232">
	<!-- Created with https://api.qrserver.com (QR Code API, see goQR.me/api for information) -->
	<title>QR Code</title>
	<desc>https://www.originprotocol.com/mobile</desc>
	<rect style="fill:rgb(255, 255, 255);fill-opacity:1" x="0" y="0" width="232" height="232" />
	<g id="elements">
		<path style="fill:rgb(17, 29, 40)" d="M 0,0 l 8,0 0,8 -8,0 z M 8,0 l 8,0 0,8 -8,0 z M 16,0 l 8,0 0,8 -8,0 z M 24,0 l 8,0 0,8 -8,0 z M 32,0 l 8,0 0,8 -8,0 z M 40,0 l 8,0 0,8 -8,0 z M 48,0 l 8,0 0,8 -8,0 z M 72,0 l 8,0 0,8 -8,0 z M 128,0 l 8,0 0,8 -8,0 z M 136,0 l 8,0 0,8 -8,0 z M 144,0 l 8,0 0,8 -8,0 z M 152,0 l 8,0 0,8 -8,0 z M 160,0 l 8,0 0,8 -8,0 z M 176,0 l 8,0 0,8 -8,0 z M 184,0 l 8,0 0,8 -8,0 z M 192,0 l 8,0 0,8 -8,0 z M 200,0 l 8,0 0,8 -8,0 z M 208,0 l 8,0 0,8 -8,0 z M 216,0 l 8,0 0,8 -8,0 z M 224,0 l 8,0 0,8 -8,0 z M 0,8 l 8,0 0,8 -8,0 z M 48,8 l 8,0 0,8 -8,0 z M 64,8 l 8,0 0,8 -8,0 z M 72,8 l 8,0 0,8 -8,0 z M 88,8 l 8,0 0,8 -8,0 z M 96,8 l 8,0 0,8 -8,0 z M 112,8 l 8,0 0,8 -8,0 z M 120,8 l 8,0 0,8 -8,0 z M 136,8 l 8,0 0,8 -8,0 z M 176,8 l 8,0 0,8 -8,0 z M 224,8 l 8,0 0,8 -8,0 z M 0,16 l 8,0 0,8 -8,0 z M 16,16 l 8,0 0,8 -8,0 z M 24,16 l 8,0 0,8 -8,0 z M 32,16 l 8,0 0,8 -8,0 z M 48,16 l 8,0 0,8 -8,0 z M 72,16 l 8,0 0,8 -8,0 z M 80,16 l 8,0 0,8 -8,0 z M 88,16 l 8,0 0,8 -8,0 z M 112,16 l 8,0 0,8 -8,0 z M 120,16 l 8,0 0,8 -8,0 z M 128,16 l 8,0 0,8 -8,0 z M 160,16 l 8,0 0,8 -8,0 z M 176,16 l 8,0 0,8 -8,0 z M 192,16 l 8,0 0,8 -8,0 z M 200,16 l 8,0 0,8 -8,0 z M 208,16 l 8,0 0,8 -8,0 z M 224,16 l 8,0 0,8 -8,0 z M 0,24 l 8,0 0,8 -8,0 z M 16,24 l 8,0 0,8 -8,0 z M 24,24 l 8,0 0,8 -8,0 z M 32,24 l 8,0 0,8 -8,0 z M 48,24 l 8,0 0,8 -8,0 z M 64,24 l 8,0 0,8 -8,0 z M 72,24 l 8,0 0,8 -8,0 z M 88,24 l 8,0 0,8 -8,0 z M 136,24 l 8,0 0,8 -8,0 z M 160,24 l 8,0 0,8 -8,0 z M 176,24 l 8,0 0,8 -8,0 z M 192,24 l 8,0 0,8 -8,0 z M 200,24 l 8,0 0,8 -8,0 z M 208,24 l 8,0 0,8 -8,0 z M 224,24 l 8,0 0,8 -8,0 z M 0,32 l 8,0 0,8 -8,0 z M 16,32 l 8,0 0,8 -8,0 z M 24,32 l 8,0 0,8 -8,0 z M 32,32 l 8,0 0,8 -8,0 z M 48,32 l 8,0 0,8 -8,0 z M 80,32 l 8,0 0,8 -8,0 z M 96,32 l 8,0 0,8 -8,0 z M 104,32 l 8,0 0,8 -8,0 z M 128,32 l 8,0 0,8 -8,0 z M 144,32 l 8,0 0,8 -8,0 z M 152,32 l 8,0 0,8 -8,0 z M 160,32 l 8,0 0,8 -8,0 z M 176,32 l 8,0 0,8 -8,0 z M 192,32 l 8,0 0,8 -8,0 z M 200,32 l 8,0 0,8 -8,0 z M 208,32 l 8,0 0,8 -8,0 z M 224,32 l 8,0 0,8 -8,0 z M 0,40 l 8,0 0,8 -8,0 z M 48,40 l 8,0 0,8 -8,0 z M 64,40 l 8,0 0,8 -8,0 z M 80,40 l 8,0 0,8 -8,0 z M 104,40 l 8,0 0,8 -8,0 z M 112,40 l 8,0 0,8 -8,0 z M 120,40 l 8,0 0,8 -8,0 z M 128,40 l 8,0 0,8 -8,0 z M 136,40 l 8,0 0,8 -8,0 z M 144,40 l 8,0 0,8 -8,0 z M 160,40 l 8,0 0,8 -8,0 z M 176,40 l 8,0 0,8 -8,0 z M 224,40 l 8,0 0,8 -8,0 z M 0,48 l 8,0 0,8 -8,0 z M 8,48 l 8,0 0,8 -8,0 z M 16,48 l 8,0 0,8 -8,0 z M 24,48 l 8,0 0,8 -8,0 z M 32,48 l 8,0 0,8 -8,0 z M 40,48 l 8,0 0,8 -8,0 z M 48,48 l 8,0 0,8 -8,0 z M 64,48 l 8,0 0,8 -8,0 z M 80,48 l 8,0 0,8 -8,0 z M 96,48 l 8,0 0,8 -8,0 z M 112,48 l 8,0 0,8 -8,0 z M 128,48 l 8,0 0,8 -8,0 z M 144,48 l 8,0 0,8 -8,0 z M 160,48 l 8,0 0,8 -8,0 z M 176,48 l 8,0 0,8 -8,0 z M 184,48 l 8,0 0,8 -8,0 z M 192,48 l 8,0 0,8 -8,0 z M 200,48 l 8,0 0,8 -8,0 z M 208,48 l 8,0 0,8 -8,0 z M 216,48 l 8,0 0,8 -8,0 z M 224,48 l 8,0 0,8 -8,0 z M 96,56 l 8,0 0,8 -8,0 z M 104,56 l 8,0 0,8 -8,0 z M 120,56 l 8,0 0,8 -8,0 z M 152,56 l 8,0 0,8 -8,0 z M 160,56 l 8,0 0,8 -8,0 z M 0,64 l 8,0 0,8 -8,0 z M 8,64 l 8,0 0,8 -8,0 z M 16,64 l 8,0 0,8 -8,0 z M 24,64 l 8,0 0,8 -8,0 z M 32,64 l 8,0 0,8 -8,0 z M 48,64 l 8,0 0,8 -8,0 z M 56,64 l 8,0 0,8 -8,0 z M 64,64 l 8,0 0,8 -8,0 z M 72,64 l 8,0 0,8 -8,0 z M 80,64 l 8,0 0,8 -8,0 z M 96,64 l 8,0 0,8 -8,0 z M 112,64 l 8,0 0,8 -8,0 z M 136,64 l 8,0 0,8 -8,0 z M 152,64 l 8,0 0,8 -8,0 z M 168,64 l 8,0 0,8 -8,0 z M 184,64 l 8,0 0,8 -8,0 z M 200,64 l 8,0 0,8 -8,0 z M 216,64 l 8,0 0,8 -8,0 z M 0,72 l 8,0 0,8 -8,0 z M 24,72 l 8,0 0,8 -8,0 z M 32,72 l 8,0 0,8 -8,0 z M 40,72 l 8,0 0,8 -8,0 z M 72,72 l 8,0 0,8 -8,0 z M 128,72 l 8,0 0,8 -8,0 z M 136,72 l 8,0 0,8 -8,0 z M 144,72 l 8,0 0,8 -8,0 z M 152,72 l 8,0 0,8 -8,0 z M 160,72 l 8,0 0,8 -8,0 z M 168,72 l 8,0 0,8 -8,0 z M 176,72 l 8,0 0,8 -8,0 z M 184,72 l 8,0 0,8 -8,0 z M 192,72 l 8,0 0,8 -8,0 z M 224,72 l 8,0 0,8 -8,0 z M 0,80 l 8,0 0,8 -8,0 z M 32,80 l 8,0 0,8 -8,0 z M 48,80 l 8,0 0,8 -8,0 z M 56,80 l 8,0 0,8 -8,0 z M 64,80 l 8,0 0,8 -8,0 z M 72,80 l 8,0 0,8 -8,0 z M 88,80 l 8,0 0,8 -8,0 z M 96,80 l 8,0 0,8 -8,0 z M 120,80 l 8,0 0,8 -8,0 z M 136,80 l 8,0 0,8 -8,0 z M 176,80 l 8,0 0,8 -8,0 z M 0,88 l 8,0 0,8 -8,0 z M 16,88 l 8,0 0,8 -8,0 z M 40,88 l 8,0 0,8 -8,0 z M 56,88 l 8,0 0,8 -8,0 z M 72,88 l 8,0 0,8 -8,0 z M 80,88 l 8,0 0,8 -8,0 z M 88,88 l 8,0 0,8 -8,0 z M 112,88 l 8,0 0,8 -8,0 z M 152,88 l 8,0 0,8 -8,0 z M 176,88 l 8,0 0,8 -8,0 z M 184,88 l 8,0 0,8 -8,0 z M 200,88 l 8,0 0,8 -8,0 z M 216,88 l 8,0 0,8 -8,0 z M 32,96 l 8,0 0,8 -8,0 z M 40,96 l 8,0 0,8 -8,0 z M 48,96 l 8,0 0,8 -8,0 z M 72,96 l 8,0 0,8 -8,0 z M 88,96 l 8,0 0,8 -8,0 z M 120,96 l 8,0 0,8 -8,0 z M 136,96 l 8,0 0,8 -8,0 z M 160,96 l 8,0 0,8 -8,0 z M 200,96 l 8,0 0,8 -8,0 z M 208,96 l 8,0 0,8 -8,0 z M 0,104 l 8,0 0,8 -8,0 z M 8,104 l 8,0 0,8 -8,0 z M 16,104 l 8,0 0,8 -8,0 z M 24,104 l 8,0 0,8 -8,0 z M 56,104 l 8,0 0,8 -8,0 z M 64,104 l 8,0 0,8 -8,0 z M 72,104 l 8,0 0,8 -8,0 z M 80,104 l 8,0 0,8 -8,0 z M 96,104 l 8,0 0,8 -8,0 z M 104,104 l 8,0 0,8 -8,0 z M 112,104 l 8,0 0,8 -8,0 z M 128,104 l 8,0 0,8 -8,0 z M 136,104 l 8,0 0,8 -8,0 z M 144,104 l 8,0 0,8 -8,0 z M 152,104 l 8,0 0,8 -8,0 z M 160,104 l 8,0 0,8 -8,0 z M 176,104 l 8,0 0,8 -8,0 z M 192,104 l 8,0 0,8 -8,0 z M 224,104 l 8,0 0,8 -8,0 z M 0,112 l 8,0 0,8 -8,0 z M 24,112 l 8,0 0,8 -8,0 z M 32,112 l 8,0 0,8 -8,0 z M 48,112 l 8,0 0,8 -8,0 z M 56,112 l 8,0 0,8 -8,0 z M 64,112 l 8,0 0,8 -8,0 z M 72,112 l 8,0 0,8 -8,0 z M 80,112 l 8,0 0,8 -8,0 z M 104,112 l 8,0 0,8 -8,0 z M 112,112 l 8,0 0,8 -8,0 z M 120,112 l 8,0 0,8 -8,0 z M 128,112 l 8,0 0,8 -8,0 z M 168,112 l 8,0 0,8 -8,0 z M 184,112 l 8,0 0,8 -8,0 z M 200,112 l 8,0 0,8 -8,0 z M 208,112 l 8,0 0,8 -8,0 z M 0,120 l 8,0 0,8 -8,0 z M 8,120 l 8,0 0,8 -8,0 z M 16,120 l 8,0 0,8 -8,0 z M 32,120 l 8,0 0,8 -8,0 z M 40,120 l 8,0 0,8 -8,0 z M 72,120 l 8,0 0,8 -8,0 z M 96,120 l 8,0 0,8 -8,0 z M 104,120 l 8,0 0,8 -8,0 z M 128,120 l 8,0 0,8 -8,0 z M 144,120 l 8,0 0,8 -8,0 z M 168,120 l 8,0 0,8 -8,0 z M 176,120 l 8,0 0,8 -8,0 z M 184,120 l 8,0 0,8 -8,0 z M 192,120 l 8,0 0,8 -8,0 z M 216,120 l 8,0 0,8 -8,0 z M 8,128 l 8,0 0,8 -8,0 z M 24,128 l 8,0 0,8 -8,0 z M 32,128 l 8,0 0,8 -8,0 z M 40,128 l 8,0 0,8 -8,0 z M 48,128 l 8,0 0,8 -8,0 z M 56,128 l 8,0 0,8 -8,0 z M 96,128 l 8,0 0,8 -8,0 z M 112,128 l 8,0 0,8 -8,0 z M 136,128 l 8,0 0,8 -8,0 z M 144,128 l 8,0 0,8 -8,0 z M 160,128 l 8,0 0,8 -8,0 z M 184,128 l 8,0 0,8 -8,0 z M 200,128 l 8,0 0,8 -8,0 z M 208,128 l 8,0 0,8 -8,0 z M 0,136 l 8,0 0,8 -8,0 z M 16,136 l 8,0 0,8 -8,0 z M 24,136 l 8,0 0,8 -8,0 z M 56,136 l 8,0 0,8 -8,0 z M 64,136 l 8,0 0,8 -8,0 z M 128,136 l 8,0 0,8 -8,0 z M 136,136 l 8,0 0,8 -8,0 z M 144,136 l 8,0 0,8 -8,0 z M 152,136 l 8,0 0,8 -8,0 z M 160,136 l 8,0 0,8 -8,0 z M 168,136 l 8,0 0,8 -8,0 z M 176,136 l 8,0 0,8 -8,0 z M 184,136 l 8,0 0,8 -8,0 z M 192,136 l 8,0 0,8 -8,0 z M 208,136 l 8,0 0,8 -8,0 z M 224,136 l 8,0 0,8 -8,0 z M 0,144 l 8,0 0,8 -8,0 z M 48,144 l 8,0 0,8 -8,0 z M 56,144 l 8,0 0,8 -8,0 z M 64,144 l 8,0 0,8 -8,0 z M 88,144 l 8,0 0,8 -8,0 z M 96,144 l 8,0 0,8 -8,0 z M 120,144 l 8,0 0,8 -8,0 z M 128,144 l 8,0 0,8 -8,0 z M 136,144 l 8,0 0,8 -8,0 z M 168,144 l 8,0 0,8 -8,0 z M 176,144 l 8,0 0,8 -8,0 z M 184,144 l 8,0 0,8 -8,0 z M 208,144 l 8,0 0,8 -8,0 z M 0,152 l 8,0 0,8 -8,0 z M 32,152 l 8,0 0,8 -8,0 z M 40,152 l 8,0 0,8 -8,0 z M 64,152 l 8,0 0,8 -8,0 z M 88,152 l 8,0 0,8 -8,0 z M 112,152 l 8,0 0,8 -8,0 z M 120,152 l 8,0 0,8 -8,0 z M 128,152 l 8,0 0,8 -8,0 z M 144,152 l 8,0 0,8 -8,0 z M 152,152 l 8,0 0,8 -8,0 z M 160,152 l 8,0 0,8 -8,0 z M 184,152 l 8,0 0,8 -8,0 z M 192,152 l 8,0 0,8 -8,0 z M 216,152 l 8,0 0,8 -8,0 z M 0,160 l 8,0 0,8 -8,0 z M 40,160 l 8,0 0,8 -8,0 z M 48,160 l 8,0 0,8 -8,0 z M 72,160 l 8,0 0,8 -8,0 z M 80,160 l 8,0 0,8 -8,0 z M 88,160 l 8,0 0,8 -8,0 z M 136,160 l 8,0 0,8 -8,0 z M 152,160 l 8,0 0,8 -8,0 z M 160,160 l 8,0 0,8 -8,0 z M 168,160 l 8,0 0,8 -8,0 z M 176,160 l 8,0 0,8 -8,0 z M 184,160 l 8,0 0,8 -8,0 z M 192,160 l 8,0 0,8 -8,0 z M 208,160 l 8,0 0,8 -8,0 z M 216,160 l 8,0 0,8 -8,0 z M 224,160 l 8,0 0,8 -8,0 z M 64,168 l 8,0 0,8 -8,0 z M 72,168 l 8,0 0,8 -8,0 z M 80,168 l 8,0 0,8 -8,0 z M 96,168 l 8,0 0,8 -8,0 z M 104,168 l 8,0 0,8 -8,0 z M 112,168 l 8,0 0,8 -8,0 z M 128,168 l 8,0 0,8 -8,0 z M 144,168 l 8,0 0,8 -8,0 z M 160,168 l 8,0 0,8 -8,0 z M 192,168 l 8,0 0,8 -8,0 z M 200,168 l 8,0 0,8 -8,0 z M 208,168 l 8,0 0,8 -8,0 z M 216,168 l 8,0 0,8 -8,0 z M 224,168 l 8,0 0,8 -8,0 z M 0,176 l 8,0 0,8 -8,0 z M 8,176 l 8,0 0,8 -8,0 z M 16,176 l 8,0 0,8 -8,0 z M 24,176 l 8,0 0,8 -8,0 z M 32,176 l 8,0 0,8 -8,0 z M 40,176 l 8,0 0,8 -8,0 z M 48,176 l 8,0 0,8 -8,0 z M 64,176 l 8,0 0,8 -8,0 z M 72,176 l 8,0 0,8 -8,0 z M 104,176 l 8,0 0,8 -8,0 z M 112,176 l 8,0 0,8 -8,0 z M 120,176 l 8,0 0,8 -8,0 z M 128,176 l 8,0 0,8 -8,0 z M 136,176 l 8,0 0,8 -8,0 z M 144,176 l 8,0 0,8 -8,0 z M 152,176 l 8,0 0,8 -8,0 z M 160,176 l 8,0 0,8 -8,0 z M 176,176 l 8,0 0,8 -8,0 z M 192,176 l 8,0 0,8 -8,0 z M 200,176 l 8,0 0,8 -8,0 z M 208,176 l 8,0 0,8 -8,0 z M 0,184 l 8,0 0,8 -8,0 z M 48,184 l 8,0 0,8 -8,0 z M 80,184 l 8,0 0,8 -8,0 z M 96,184 l 8,0 0,8 -8,0 z M 104,184 l 8,0 0,8 -8,0 z M 128,184 l 8,0 0,8 -8,0 z M 152,184 l 8,0 0,8 -8,0 z M 160,184 l 8,0 0,8 -8,0 z M 192,184 l 8,0 0,8 -8,0 z M 0,192 l 8,0 0,8 -8,0 z M 16,192 l 8,0 0,8 -8,0 z M 24,192 l 8,0 0,8 -8,0 z M 32,192 l 8,0 0,8 -8,0 z M 48,192 l 8,0 0,8 -8,0 z M 64,192 l 8,0 0,8 -8,0 z M 80,192 l 8,0 0,8 -8,0 z M 96,192 l 8,0 0,8 -8,0 z M 112,192 l 8,0 0,8 -8,0 z M 136,192 l 8,0 0,8 -8,0 z M 160,192 l 8,0 0,8 -8,0 z M 168,192 l 8,0 0,8 -8,0 z M 176,192 l 8,0 0,8 -8,0 z M 184,192 l 8,0 0,8 -8,0 z M 192,192 l 8,0 0,8 -8,0 z M 208,192 l 8,0 0,8 -8,0 z M 0,200 l 8,0 0,8 -8,0 z M 16,200 l 8,0 0,8 -8,0 z M 24,200 l 8,0 0,8 -8,0 z M 32,200 l 8,0 0,8 -8,0 z M 48,200 l 8,0 0,8 -8,0 z M 64,200 l 8,0 0,8 -8,0 z M 72,200 l 8,0 0,8 -8,0 z M 80,200 l 8,0 0,8 -8,0 z M 136,200 l 8,0 0,8 -8,0 z M 144,200 l 8,0 0,8 -8,0 z M 152,200 l 8,0 0,8 -8,0 z M 184,200 l 8,0 0,8 -8,0 z M 200,200 l 8,0 0,8 -8,0 z M 208,200 l 8,0 0,8 -8,0 z M 216,200 l 8,0 0,8 -8,0 z M 224,200 l 8,0 0,8 -8,0 z M 0,208 l 8,0 0,8 -8,0 z M 16,208 l 8,0 0,8 -8,0 z M 24,208 l 8,0 0,8 -8,0 z M 32,208 l 8,0 0,8 -8,0 z M 48,208 l 8,0 0,8 -8,0 z M 64,208 l 8,0 0,8 -8,0 z M 80,208 l 8,0 0,8 -8,0 z M 88,208 l 8,0 0,8 -8,0 z M 96,208 l 8,0 0,8 -8,0 z M 120,208 l 8,0 0,8 -8,0 z M 128,208 l 8,0 0,8 -8,0 z M 136,208 l 8,0 0,8 -8,0 z M 160,208 l 8,0 0,8 -8,0 z M 168,208 l 8,0 0,8 -8,0 z M 176,208 l 8,0 0,8 -8,0 z M 184,208 l 8,0 0,8 -8,0 z M 192,208 l 8,0 0,8 -8,0 z M 200,208 l 8,0 0,8 -8,0 z M 208,208 l 8,0 0,8 -8,0 z M 216,208 l 8,0 0,8 -8,0 z M 0,216 l 8,0 0,8 -8,0 z M 48,216 l 8,0 0,8 -8,0 z M 64,216 l 8,0 0,8 -8,0 z M 80,216 l 8,0 0,8 -8,0 z M 88,216 l 8,0 0,8 -8,0 z M 112,216 l 8,0 0,8 -8,0 z M 120,216 l 8,0 0,8 -8,0 z M 128,216 l 8,0 0,8 -8,0 z M 160,216 l 8,0 0,8 -8,0 z M 184,216 l 8,0 0,8 -8,0 z M 200,216 l 8,0 0,8 -8,0 z M 216,216 l 8,0 0,8 -8,0 z M 0,224 l 8,0 0,8 -8,0 z M 8,224 l 8,0 0,8 -8,0 z M 16,224 l 8,0 0,8 -8,0 z M 24,224 l 8,0 0,8 -8,0 z M 32,224 l 8,0 0,8 -8,0 z M 40,224 l 8,0 0,8 -8,0 z M 48,224 l 8,0 0,8 -8,0 z M 64,224 l 8,0 0,8 -8,0 z M 72,224 l 8,0 0,8 -8,0 z M 80,224 l 8,0 0,8 -8,0 z M 88,224 l 8,0 0,8 -8,0 z M 136,224 l 8,0 0,8 -8,0 z M 152,224 l 8,0 0,8 -8,0 z M 176,224 l 8,0 0,8 -8,0 z M 184,224 l 8,0 0,8 -8,0 z M 192,224 l 8,0 0,8 -8,0 z M 200,224 l 8,0 0,8 -8,0 z M 208,224 l 8,0 0,8 -8,0 z " />
	</g>
</svg>
