<svg xmlns="http://www.w3.org/2000/svg" width="14" height="12" viewBox="0 0 14 12">
    <path fill="#98A7B4" fill-rule="evenodd" d="M0 8.167h4.083V7H0v1.167zm0 3.5h4.083V10.5H0v1.167zm0-1.75h4.083V8.75H0v1.167zm7.424 1.75H4.667V10.5h1.798c.255.44.58.833.96 1.167zM0 6.417h4.083V5.25H0v1.167zm0-1.75h4.083V3.5H0v1.167zm6.177 5.25h-1.51V8.75h1.207c.05.407.154.799.303 1.167zm-1.51-7H8.75V1.75H4.667v1.167zm0-1.75H8.75V0H4.667v1.167zm2.757 3.5H4.667V3.5H8.75v.344c-.49.199-.936.48-1.326.823zm-1.59 3.5H4.666V7h1.32a4.643 4.643 0 0 0-.154 1.167zm.343-1.75h-1.51V5.25h2.196a4.66 4.66 0 0 0-.686 1.167zm4.323-1.75a3.5 3.5 0 1 0 .001 7 3.5 3.5 0 0 0-.001-7z"/>
</svg>
