<svg xmlns="http://www.w3.org/2000/svg" width="20" height="20" viewBox="0 0 20 20">
    <path fill="#6F8294" fill-rule="evenodd" d="M.833 20h18.334V8.333H.833V20zM2.5 15.833h15V10h-15v5.833zM13.337 0l2.495 4.168v.915c0 .89-.777 1.584-1.665 1.584-.889 0-1.667-.778-1.667-1.667v-.915L11.718 0h1.619zm-1.67 4.083v.915c0 .889-.779 1.669-1.667 1.669-.89 0-1.667-.778-1.667-1.667v-.915L9.206 0h1.587l.874 4.083zM20 5.057c0 .889-.778 1.61-1.667 1.61-.888 0-1.666-.778-1.666-1.667v-.915L14.26 0h1.678L20 4.143v.914zM5.74 0L3.332 4.143v.915c0 .888-.777 1.609-1.666 1.609C.777 6.667 0 5.946 0 5.057v-.915L4.062 0h1.677zm2.542 0L7.5 4.143v.915c0 .888-.778 1.609-1.667 1.609s-1.666-.721-1.666-1.61v-.915L6.663 0h1.62z"/>
</svg>
