<svg xmlns="http://www.w3.org/2000/svg" xmlns:xlink="http://www.w3.org/1999/xlink" width="141" height="151" viewBox="0 0 141 151">
    <defs>
        <path id="a" d="M.229.231h15.737v19.773H.23z"/>
        <path id="c" d="M0 .037h32.318v35.614H0z"/>
    </defs>
    <g fill="none" fill-rule="evenodd">
        <path fill="#6F8294" d="M64.973 56.74l50.061-28.892.336-.204c4.137-2.389 7.49-.477 7.49 4.27v43.102c0 4.731-3.342 10.497-7.465 12.878l-.805.458-49.617 28.637V56.74z"/>
        <path fill="#C2CBD3" d="M134.277 35.331c-1.133-.137-2.465.176-3.888.998L80.967 64.873c-4.163 2.403-10.975 2.403-15.138 0-4.163-2.404-4.163-6.337 0-8.74l49.422-28.544c2.684-1.55 5.039-1.289 6.361.383l-.09-.052a1.438 1.438 0 0 0-.723-.169c-.586 0-1.33.24-2.127.7L67.06 58.265c-1.184.684-1.891 1.52-1.891 2.238 0 .717.707 1.554 1.891 2.237 1.621.936 3.931 1.473 6.338 1.473s4.717-.537 6.338-1.473l46.65-26.954c1.556-.899 3.136-1.352 4.607-1.352 1.14 0 2.217.272 3.168.821l.116.076z"/>
        <path fill="#1AB57D" d="M86.4 59.109c0-5.676-4.01-7.963-8.957-5.107-4.946 2.856-8.956 9.772-8.956 15.448s4.01 7.962 8.956 5.107c4.946-2.856 8.956-9.772 8.956-15.448"/>
        <path fill="#26D198" d="M87.361 59.59c0-5.676-4.01-7.962-8.956-5.106-4.946 2.855-8.956 9.772-8.956 15.448s4.01 7.961 8.956 5.106c4.947-2.856 8.956-9.772 8.956-15.448"/>
        <path fill="#0F7CE8" d="M95.988 50.33c0-5.675-4.01-7.962-8.956-5.106s-8.956 9.772-8.956 15.448 4.01 7.962 8.956 5.107c4.947-2.856 8.956-9.772 8.956-15.448"/>
        <path fill="#1A82FF" d="M96.95 50.812c0-5.676-4.01-7.962-8.956-5.107-4.946 2.856-8.956 9.772-8.956 15.448s4.01 7.962 8.956 5.107c4.947-2.856 8.957-9.772 8.957-15.448"/>
        <path fill="#5028CE" d="M91.439 38.963c0-5.676-4.01-7.962-8.956-5.106-4.947 2.856-8.956 9.772-8.956 15.448s4.01 7.962 8.956 5.106 8.956-9.772 8.956-15.448"/>
        <path fill="#6E3BEA" d="M92.401 39.444c0-5.676-4.01-7.962-8.956-5.106s-8.956 9.772-8.956 15.448 4.01 7.962 8.956 5.106C88.39 52.037 92.4 45.12 92.4 39.444"/>
        <path fill="#FFF" d="M84.032 37.957l-.079.353v8.917l.079.045 3.607-4.53z"/>
        <path fill="#FFF" d="M84.032 37.957l-3.608 8.95 3.608.365v-4.328zM84.032 48.056l-.045.087v3.177l.045.123 3.61-7.917z"/>
        <path fill="#FFF" d="M84.032 51.443v-3.387l-3.608-.363zM84.032 47.272l3.607-4.53-3.607.202z"/>
        <path fill="#FFF" d="M80.424 46.908l3.608.364v-4.328z"/>
        <path fill="#5028CE" d="M101.547 16.982c0-5.676-4.01-7.962-8.956-5.106-4.946 2.855-8.956 9.772-8.956 15.448s4.01 7.962 8.956 5.106 8.956-9.772 8.956-15.448"/>
        <path fill="#6E3BEA" d="M102.51 17.463c0-5.676-4.01-7.962-8.957-5.106-4.946 2.856-8.956 9.772-8.956 15.448s4.01 7.962 8.956 5.106c4.947-2.856 8.956-9.772 8.956-15.448"/>
        <path fill="#FFF" d="M94.14 15.976l-.079.353v8.917l.079.045 3.607-4.53z"/>
        <path fill="#FFF" d="M94.14 15.976l-3.607 8.95 3.607.365v-4.329zM94.14 26.074l-.044.088v3.177l.044.123 3.61-7.917z"/>
        <path fill="#FFF" d="M94.14 29.462v-3.388l-3.607-.363zM94.14 25.29l3.607-4.529-3.607.201zM90.533 24.927l3.607.364v-4.329z"/>
        <path fill="#5028CE" d="M115.798 41.778c0-5.676-4.01-7.962-8.956-5.106s-8.956 9.772-8.956 15.448 4.01 7.962 8.956 5.106c4.946-2.855 8.956-9.772 8.956-15.448"/>
        <path fill="#6E3BEA" d="M116.76 42.26c0-5.676-4.01-7.963-8.956-5.107s-8.956 9.772-8.956 15.448 4.01 7.962 8.956 5.106c4.947-2.855 8.956-9.772 8.956-15.448"/>
        <path fill="#0F7CE8" d="M112.03 25.459c0-5.676-4.01-7.962-8.956-5.106-4.946 2.855-8.956 9.772-8.956 15.448s4.01 7.962 8.956 5.106c4.947-2.856 8.956-9.772 8.956-15.448"/>
        <path fill="#1A82FF" d="M112.993 25.94c0-5.676-4.01-7.962-8.957-5.106-4.946 2.856-8.956 9.772-8.956 15.448s4.01 7.962 8.956 5.106c4.947-2.856 8.957-9.772 8.957-15.448"/>
        <path fill="#FFF" d="M107.983 26.338l-1.44 2.482c.058.295.088.637.088 1.025 0 2.09-.855 3.83-2.288 4.658-.597.344-1.101.416-1.482.218l4.987-8.602a2.175 2.175 0 0 0-.457-.493 1.824 1.824 0 0 0-.225-.147c-.01-.007-.02-.011-.03-.017-.024-.013-.046-.027-.07-.038v.002c-.725-.357-1.656-.228-2.723.388-1.233.712-2.285 1.863-3.042 3.328-.711 1.378-1.103 2.946-1.103 4.417 0 .977.174 1.796.499 2.4l1.447-2.496a5.718 5.718 0 0 1-.076-.984c0-.961.17-1.837.507-2.604.394-.898 1.006-1.606 1.768-2.046.593-.342 1.087-.413 1.463-.23l-4.977 8.584c.136.206.294.38.472.519a1.818 1.818 0 0 0 .241.158l.017.01.042.024.002-.002c.725.372 1.662.248 2.74-.374 1.234-.713 2.288-1.865 3.048-3.332.715-1.381 1.11-2.951 1.11-4.42 0-.993-.18-1.823-.518-2.428"/>
        <path fill="#0F7CE8" d="M92.505 6.336c0-5.676-4.01-7.962-8.956-5.106s-8.956 9.772-8.956 15.448 4.01 7.962 8.956 5.106c4.947-2.855 8.956-9.772 8.956-15.448"/>
        <path fill="#1A82FF" d="M93.468 6.817c0-5.675-4.01-7.962-8.957-5.106-4.946 2.856-8.956 9.772-8.956 15.448s4.01 7.962 8.956 5.106c4.947-2.855 8.957-9.772 8.957-15.448"/>
        <path fill="#FFF" d="M88.458 7.215l-1.44 2.483c.058.294.088.636.088 1.024 0 2.09-.855 3.83-2.288 4.658-.598.345-1.102.417-1.482.218l4.987-8.601a2.175 2.175 0 0 0-.457-.494 1.824 1.824 0 0 0-.226-.147h.001c-.01-.007-.02-.011-.031-.017-.023-.012-.045-.026-.069-.038v.002c-.725-.356-1.656-.228-2.723.388-1.233.712-2.285 1.863-3.042 3.328-.711 1.378-1.103 2.947-1.103 4.417 0 .977.174 1.797.499 2.4l1.447-2.495a5.718 5.718 0 0 1-.076-.984c0-.962.17-1.838.507-2.604.394-.899 1.006-1.606 1.768-2.046.593-.343 1.087-.414 1.462-.231l-4.976 8.584c.136.206.294.38.472.52a1.818 1.818 0 0 0 .241.158l.017.01.042.023.002-.002c.724.373 1.662.248 2.74-.374 1.234-.712 2.288-1.864 3.048-3.331.715-1.382 1.11-2.952 1.11-4.421 0-.992-.18-1.822-.518-2.428"/>
        <path fill="#0F7CE8" d="M81.952 30.614c0-5.676-4.01-7.962-8.956-5.107-4.946 2.856-8.956 9.772-8.956 15.448s4.01 7.962 8.956 5.106c4.947-2.855 8.956-9.772 8.956-15.447"/>
        <path fill="#1A82FF" d="M82.915 31.095c0-5.676-4.01-7.963-8.957-5.107-4.946 2.856-8.956 9.772-8.956 15.448s4.01 7.962 8.956 5.107c4.947-2.856 8.957-9.772 8.957-15.448"/>
        <path fill="#FFF" d="M77.905 31.492l-1.44 2.483c.058.294.088.636.088 1.024 0 2.09-.855 3.83-2.288 4.658-.597.345-1.102.417-1.482.219l4.987-8.602a2.175 2.175 0 0 0-.457-.493 1.824 1.824 0 0 0-.225-.148l-.031-.017c-.023-.012-.045-.026-.069-.038v.003c-.725-.357-1.656-.229-2.723.388-1.233.711-2.285 1.862-3.042 3.327-.711 1.378-1.103 2.947-1.103 4.417 0 .978.174 1.797.499 2.4l1.447-2.495a5.718 5.718 0 0 1-.076-.984c0-.962.17-1.838.507-2.604.394-.899 1.006-1.606 1.768-2.046.593-.343 1.087-.413 1.463-.23l-4.977 8.583c.136.206.294.38.472.52a1.818 1.818 0 0 0 .241.158l.017.01.042.024.002-.003c.724.373 1.662.248 2.74-.374 1.234-.712 2.288-1.864 3.048-3.331.715-1.382 1.11-2.952 1.11-4.421 0-.992-.18-1.822-.518-2.428"/>
        <path fill="#1AB57D" d="M108.119 51.989c0-5.676-4.01-7.963-8.957-5.107-4.946 2.856-8.956 9.772-8.956 15.448s4.01 7.962 8.956 5.107c4.947-2.856 8.957-9.772 8.957-15.448"/>
        <path fill="#26D198" d="M109.08 52.47c0-5.676-4.009-7.962-8.955-5.106-4.947 2.855-8.956 9.772-8.956 15.448s4.01 7.961 8.956 5.106c4.946-2.856 8.956-9.772 8.956-15.448"/>
        <path fill="#000" d="M140.12 98.442l-59.153 34.173c-4.163 2.403-10.975 2.403-15.138 0-4.163-2.404-4.163-6.337 0-8.74l59.153-34.172 15.138 8.74z" opacity=".5"/>
        <path fill="#98A7B4" d="M137.879 83.701V40.6c0-4.747-3.354-6.659-7.49-4.27l-.337.204-49.085 28.34c-2.082 1.202-4.827 1.803-7.571 1.803v60.247c2.744 0 5.489-.6 7.57-1.802l48.642-28.083.805-.46c4.123-2.38 7.466-8.145 7.466-12.877"/>
        <path fill="#2E3F53" d="M137.715 67.748l-11.98 8.202s-1.386-.763-1.686-1.031c-.265-.237-.427-.66-.427-1.227v-7.806c0-1.21.736-2.617 1.644-3.141l12.45-7.188c.4-.231.767-.252 1.052-.1.362.194 1.479.897 1.479.897l-.887 8.252c0 1.21-.737 2.617-1.645 3.142"/>
        <g transform="translate(124.841 55.997)">
            <mask id="b" fill="#fff">
                <use xlink:href="#a"/>
            </mask>
            <path fill="#929292" d="M14.322 12.619L1.873 19.806c-.908.525-1.644-.032-1.644-1.243v-7.806c0-1.21.736-2.617 1.644-3.141L14.322.428c.908-.524 1.644.033 1.644 1.243v7.806c0 1.211-.736 2.617-1.644 3.142" mask="url(#b)"/>
        </g>
        <path fill="#98A7B4" d="M73.396 66.675c-2.743 0-5.486-.6-7.567-1.802-2.029-1.171-3.06-2.706-3.112-4.25v60.248c.051 1.544 1.083 3.079 3.112 4.25 2.081 1.201 4.824 1.802 7.567 1.803V66.675z"/>
        <path fill="#2E3F53" d="M127.66 69.329c0-1.668 1.179-3.701 2.633-4.54 1.454-.84 2.632-.168 2.632 1.5s-1.178 3.701-2.632 4.54c-1.454.84-2.633.168-2.633-1.5"/>
        <path fill="#C2CBD3" d="M134.277 35.331c-1.133-.137-2.465.176-3.888.998L80.967 64.873c-4.163 2.403-10.975 2.403-15.138 0-4.163-2.404-4.163-6.337 0-8.74l1.231 2.132c-1.184.684-1.891 1.52-1.891 2.238 0 .717.707 1.554 1.891 2.237 1.621.936 3.931 1.473 6.338 1.473s4.717-.537 6.338-1.473l46.65-26.954c1.556-.899 3.136-1.352 4.607-1.352 1.14 0 2.217.272 3.168.821l.116.076z"/>
        <path fill="#000" d="M99.612 130.06c2.126-.85 2.55-3.402.425-7.655-2.126-4.252-15.734-11.48-18.285-12.544-2.552-1.063-13.82-9.78-16.585-12.97-2.764-3.189-8.292-8.717-14.67-11.268-4.87-1.948-12.96-5.383-16.516-6.899l.144-.224s-.329-2.166-1.862-3.094l.055-.095-18.073-7.548S5.54 71.997 2.02 79.457C-1.524 86.969.673 96.608.673 96.608l15.486 6.768.01-.018c1.61.66 2.628-1.037 2.825-1.402 4.771 3.225 1.144 14.04 1.736 16.41.638 2.551 9.993 15.946 13.395 17.647 3.402 1.701 19.561 7.23 19.561 7.23 1.7-.213 1.7-1.702 1.7-1.702s14.884 6.166 19.774 7.867c4.89 1.701 8.505 1.914 11.482.638 2.977-1.276 1.488-5.74 1.488-5.74s7.442 4.89 11.056 3.401c3.615-1.488 3.402-4.465 3.402-4.465s1.134 1.276 2.977-2.339c3.86-7.571-5.953-10.843-5.953-10.843" opacity=".5"/>
        <g transform="translate(0 59.907)">
            <mask id="d" fill="#fff">
                <use xlink:href="#c"/>
            </mask>
            <path fill="#26D198" d="M32.318 7.585L14.245.037S5.54 4.272 2.02 11.731C-1.524 19.244.673 28.882.673 28.882l15.486 6.769" mask="url(#d)"/>
        </g>
        <path fill="#13A06A" d="M34.125 70.681s-.531-3.508-3.402-3.508c-2.87 0-9.638 3.293-13.395 9.355-4.677 7.548-3.827 17.222-1.7 18.71 2.126 1.489 3.401-1.169 3.401-1.169"/>
        <path fill="#C2CBD3" d="M17.754 93.538c6.59 2.126 2.338 14.458 2.976 17.009.638 2.552 9.993 15.946 13.395 17.647 3.402 1.701 19.56 7.23 19.56 7.23 1.702-.213 1.702-1.702 1.702-1.702s14.883 6.166 19.773 7.867c4.89 1.701 8.505 1.914 11.482.638 2.976-1.276 1.488-5.74 1.488-5.74s7.442 4.89 11.056 3.401c3.615-1.488 3.402-4.465 3.402-4.465s1.134 1.276 2.977-2.338c3.86-7.572-5.954-10.844-5.954-10.844 2.127-.85 2.552-3.402.426-7.654-2.126-4.253-15.734-11.481-18.285-12.545-2.552-1.063-13.82-9.78-16.585-12.97-2.764-3.189-8.292-8.717-14.67-11.268-6.379-2.552-18.285-7.654-18.285-7.654s-7.017-1.701-12.545 7.654-1.913 15.734-1.913 15.734"/>
        <path stroke="#B2B2B2" stroke-linecap="round" stroke-linejoin="round" stroke-width="2.447" d="M55.387 133.722s2.977-8.93-6.804-13.82c-9.78-4.89-9.993-7.441-10.63-9.568M88.13 136.486s-.85-4.677-6.59-6.59c-5.742-1.914-18.711-8.505-19.987-9.569M102.588 135.423s1.914-3.827-4.04-7.441c-5.953-3.615-27.215-12.545-27.215-12.545M99.611 122.241l-24.238-12.757"/>
        <path fill="#B2B2B2" d="M39.44 82.056s12.758 21.05 7.017 28.278l-3.402 3.615s8.505-6.379 11.056-9.355c2.552-2.977 8.718-10.844 8.718-10.844l-11.27 11.056s-1.275-13.82-12.118-22.75"/>
        <path fill="#111D28" d="M55.149 123.573c-3.529-2.037-5.292-4.709-5.296-7.387-.003-2.705 1.79-5.417 5.376-7.487 7.137-4.12 18.672-4.141 25.764-.047 3.528 2.037 5.292 4.71 5.295 7.388.003 2.705-1.79 5.416-5.376 7.486-7.137 4.12-18.671 4.142-25.763.047"/>
        <path fill="#1A82FF" d="M86.288 110.977v3.19c.003 2.706-1.79 5.417-5.376 7.487-7.137 4.12-18.671 4.142-25.763.047-3.529-2.037-5.292-4.709-5.296-7.387v-3.337h36.435z"/>
        <path fill="#40A0FF" d="M55.149 118.51c-3.529-2.036-5.292-4.708-5.296-7.386-.003-2.706 1.79-5.417 5.376-7.487 7.137-4.12 18.672-4.142 25.764-.047 3.528 2.037 5.292 4.709 5.295 7.387.003 2.705-1.79 5.417-5.376 7.487-7.137 4.12-18.671 4.141-25.763.047"/>
        <path fill="#1A82FF" d="M67.956 119.394c-4.468 0-8.63-.983-11.72-2.766-2.711-1.566-4.206-3.521-4.208-5.507-.002-1.985 1.561-4.026 4.289-5.601 3.141-1.814 7.356-2.813 11.868-2.813 4.469 0 8.631.983 11.72 2.766 2.712 1.566 4.207 3.521 4.209 5.507.002 1.985-1.561 4.026-4.29 5.601-3.14 1.814-7.356 2.813-11.868 2.813"/>
        <path fill="#0F7CE8" d="M56.317 105.955c3.142-1.814 7.356-2.813 11.868-2.813 4.469 0 8.631.982 11.72 2.766 2.613 1.509 4.092 3.379 4.198 5.29.004-.073.01-.146.01-.218-.002-1.986-1.496-3.941-4.207-5.507-3.09-1.783-7.252-2.766-11.72-2.766-4.513 0-8.727.999-11.87 2.813-2.727 1.575-4.29 3.616-4.288 5.6 0 .073.006.145.01.218.108-1.916 1.65-3.866 4.279-5.383"/>
        <path fill="#FFF" d="M66.093 115.221l.011-2.1a9.078 9.078 0 0 1-1.29-.617c-2.294-1.325-2.579-2.741-.763-3.79.757-.437 1.637-.667 2.577-.68l-.039 7.276a12.103 12.103 0 0 0 2 .156h.078l.172-.001v-.002c1.768-.039 3.397-.461 4.75-1.242 1.562-.902 2.299-2.017 2.13-3.222-.16-1.134-1.137-2.271-2.752-3.203a12.09 12.09 0 0 0-3.582-1.339l-.012 2.112c.409.162.818.36 1.224.595 1.056.61 1.693 1.227 1.895 1.836.236.714-.15 1.386-1.116 1.944-.752.434-1.613.66-2.527.681l.04-7.261a12.646 12.646 0 0 0-1.763-.166h-.002a12.086 12.086 0 0 0-.337-.002h-.149v.002c-1.786.029-3.433.45-4.8 1.24-1.563.903-2.302 2.018-2.137 3.226.156 1.137 1.13 2.277 2.743 3.208a12.074 12.074 0 0 0 3.649 1.35"/>
    </g>
</svg>
