<svg xmlns="http://www.w3.org/2000/svg" width="27" height="25" viewBox="0 0 27 25">
    <path fill="none" fill-rule="evenodd" stroke="#007FFF" d="M18.708 13.023a1.565 1.565 0 0 1-1.562-1.568c0-.867.7-1.569 1.562-1.569.864 0 1.563.702 1.563 1.569 0 .866-.7 1.568-1.563 1.568m-5.208 0a1.565 1.565 0 0 1-1.563-1.568c0-.867.7-1.569 1.563-1.569.864 0 1.563.702 1.563 1.569 0 .866-.7 1.568-1.563 1.568m-5.208 0a1.565 1.565 0 0 1-1.563-1.568c0-.867.7-1.569 1.563-1.569s1.562.702 1.562 1.569c0 .866-.699 1.568-1.562 1.568M13.5 1C6.898 1 1 5.418 1 11.462c0 2.143.77 4.248 2.132 5.88.058 1.914-1.065 4.66-2.076 6.658 2.71-.491 6.564-1.577 8.31-2.651C18.988 23.698 26 17.789 26 11.462 26 5.386 20.061 1 13.5 1"/>
</svg>
