<svg xmlns="http://www.w3.org/2000/svg" width="23" height="23" viewBox="0 0 23 23">
    <path fill="#455D75" fill-rule="evenodd" d="M11.5 23C5.149 23 0 17.851 0 11.5S5.149 0 11.5 0 23 5.149 23 11.5 17.851 23 11.5 23zm5.855-15.095l-2.32 2.319c.093.46.141.964.141 1.51 0 2.933-1.378 4.684-3.686 4.684-.963 0-1.775-.308-2.388-.894l8.035-8.035a6.833 6.833 0 0 0-.736-1.064 6.341 6.341 0 0 0-.363-.389c-.016-.017-.033-.032-.05-.048l-.11-.11-.002.002c-1.167-1.088-2.667-1.662-4.386-1.662-1.987 0-3.682.764-4.9 2.207C5.442 7.783 4.81 9.668 4.81 11.733c0 1.372.28 2.664.804 3.775l2.331-2.332a8.002 8.002 0 0 1-.122-1.443c0-1.35.275-2.442.817-3.245.636-.942 1.62-1.44 2.849-1.44.956 0 1.751.301 2.356.862l-8.019 8.019c.22.4.475.772.762 1.112.057.068.117.133.176.198l.002.001c.069.075.14.148.21.219l.027.027.068.068.003-.003c1.167 1.111 2.678 1.697 4.415 1.697 1.988 0 3.686-.763 4.91-2.207 1.154-1.36 1.789-3.245 1.789-5.308 0-1.393-.29-2.704-.834-3.828z"/>
</svg>
