<svg xmlns="http://www.w3.org/2000/svg" width="25" height="25" viewBox="0 0 25 25">
    <g fill="none" fill-rule="evenodd">
        <path fill="#007FFF" d="M15.777 8.992c.69.575.999 1.562.999 1.562l5.467-2.812s-.485-1.97-1.75-3.235c-1.131-1.13-3.22-1.743-3.22-1.743L14.455 8.23s.633.189 1.322.764M10.544 8.229L7.726 2.765s-2.088.613-3.219 1.742c-1.265 1.265-1.75 3.235-1.75 3.235l5.467 2.812s.308-.987.998-1.562c.69-.575 1.322-.763 1.322-.763M14.456 16.771l2.818 5.464s2.088-.613 3.219-1.742c1.265-1.265 1.75-3.235 1.75-3.235l-5.468-2.812s-.307.987-.997 1.562c-.69.575-1.322.763-1.322.763M9.223 16.008c-.69-.575-.999-1.562-.999-1.562l-5.467 2.812s.485 1.97 1.75 3.235c1.131 1.13 3.22 1.743 3.22 1.743l2.818-5.465s-.633-.189-1.323-.764"/>
        <path stroke="#007FFF" d="M14.456 16.771l2.818 5.464-2.818-5.464zm-6.729 5.464l2.817-5.464-2.817 5.464zm9.547-19.47l-2.818 5.464 2.818-5.465zm-6.73 5.464L7.727 2.764l2.817 5.465zM7.9 12.499c0-2.535 2.064-4.6 4.6-4.6 2.536 0 4.6 2.065 4.6 4.6 0 2.537-2.064 4.6-4.6 4.6a4.605 4.605 0 0 1-4.6-4.6zM2.757 7.743l5.467 2.812-5.467-2.812zm5.467 6.704l-5.467 2.811 5.467-2.81zm8.551-3.891l5.469-2.812-5.469 2.812zm5.469 6.703l-5.469-2.812 5.469 2.812zM12.5 1.46C6.403 1.46 1.46 6.403 1.46 12.5c0 6.096 4.943 11.04 11.04 11.04 6.097 0 11.04-4.944 11.04-11.04 0-6.097-4.943-11.04-11.04-11.04z"/>
    </g>
</svg>
