<svg xmlns="http://www.w3.org/2000/svg" width="30" height="30" viewBox="0 0 30 30">
    <g fill="none" fill-rule="evenodd">
        <path fill="#EAF0F3" d="M15 0C6.716 0 0 6.716 0 15c0 8.284 6.716 15 15 15 8.284 0 15-6.716 15-15 0-8.284-6.716-15-15-15z"/>
        <path fill="#007FFF" d="M5 13.781v2.324h7.742v3.884l5.767-5.045-5.767-5.046v3.883H5zm9.72 11.105c-4.005 0-7.455-2.384-9.03-5.804h2.236c1.4 2.29 3.918 3.828 6.793 3.828 4.393 0 7.967-3.575 7.967-7.966 0-4.393-3.574-7.967-7.967-7.967-2.875 0-5.393 1.537-6.793 3.827H5.69C7.265 7.384 10.715 5 14.72 5c5.482 0 9.943 4.46 9.943 9.944 0 5.482-4.46 9.942-9.944 9.942z"/>
    </g>
</svg>
