<svg xmlns="http://www.w3.org/2000/svg" width="21" height="24" viewBox="0 0 21 24">
    <path fill="none" fill-rule="evenodd" stroke="#007FFF" d="M18.98 6.558l-3.358 3.36c.133.665.203 1.396.203 2.186 0 4.25-1.996 6.786-5.34 6.786-1.394 0-2.57-.446-3.458-1.296L18.666 5.955a9.898 9.898 0 0 0-1.068-1.54 9.185 9.185 0 0 0-.525-.563l.001-.002-.073-.069c-.053-.052-.105-.107-.16-.158l-.003.003c-1.69-1.576-3.863-2.408-6.353-2.408-2.878 0-5.333 1.106-7.099 3.197C1.726 6.382.811 9.113.811 12.104c0 1.987.406 3.858 1.164 5.467l3.378-3.377a11.59 11.59 0 0 1-.177-2.09c0-1.956.398-3.538 1.183-4.701.92-1.365 2.348-2.086 4.126-2.086 1.385 0 2.537.437 3.414 1.249L2.283 18.18c.32.58.688 1.119 1.103 1.61.084.1.17.193.256.287l.002.003c.1.108.202.213.305.316l.039.039.098.099.004-.004c1.691 1.61 3.88 2.457 6.395 2.457 2.88 0 5.34-1.105 7.113-3.196 1.67-1.97 2.59-4.7 2.59-7.688 0-2.019-.42-3.918-1.207-5.546"/>
</svg>
