<svg xmlns="http://www.w3.org/2000/svg" width="20" height="26" viewBox="0 0 20 26">
    <path fill="none" fill-rule="evenodd" stroke="#007FFF" d="M8.77.504c.38.02.744.123 1.092.3l.227-.444-.186-.464c-.397.159-.776.363-1.132.608zm-.115.081a6.072 6.072 0 0 0-.159.119l.306.395.046-.497-.175-.017h-.018zm3.222.998c1.59 0 2.792 1.289 2.79 3.065l-.002 1.895a.04.04 0 0 1-.034.039.042.042 0 0 1-.047-.04V4.647c0-.875-.3-1.667-.855-2.224a2.568 2.568 0 0 0-1.852-.757c-1.964 0-3.706 1.921-3.71 4.039v1.822c0 .02-.015.038-.036.04a.042.042 0 0 1-.047-.04V5.705c.004-2.182 1.806-4.122 3.793-4.122zm-5.96 8.465v15.371L19 23.453V8.16L5.917 10.048zM2.75 24.74V9.82L.5 8.8v14.35l2.25 1.591z"/>
</svg>
