<?xml version="1.0" encoding="utf-8"?>
<!-- Generator: Adobe Illustrator 16.0.0, SVG Export Plug-In . SVG Version: 6.00 Build 0)  -->
<!DOCTYPE svg PUBLIC "-//W3C//DTD SVG 1.1//EN" "http://www.w3.org/Graphics/SVG/1.1/DTD/svg11.dtd">
<svg version="1.1" id="Layer_1" xmlns="http://www.w3.org/2000/svg" xmlns:xlink="http://www.w3.org/1999/xlink" x="0px" y="0px"
	 width="28px" height="23px" viewBox="0 0 28 23" enable-background="new 0 0 28 23" xml:space="preserve">
<path fill-rule="evenodd" clip-rule="evenodd" fill="#F7F8F9" d="M23.974,16.289c-0.115-0.276-0.231-0.576-0.346-0.829
	c-0.185-0.416-0.369-0.808-0.53-1.176l-0.023-0.022C21.483,10.804,19.778,7.3,17.98,3.842l-0.069-0.138
	c-0.184-0.346-0.368-0.715-0.554-1.084c-0.231-0.414-0.461-0.853-0.829-1.267c-0.737-0.922-1.798-1.429-2.927-1.429
	c-1.153,0-2.19,0.507-2.951,1.383c-0.346,0.415-0.599,0.853-0.83,1.268C9.636,2.943,9.452,3.312,9.268,3.657L9.198,3.796
	c-1.775,3.458-3.503,6.961-5.094,10.418l-0.023,0.048c-0.161,0.368-0.346,0.76-0.53,1.176c-0.115,0.253-0.231,0.53-0.346,0.828
	c-0.299,0.854-0.392,1.66-0.276,2.49c0.253,1.729,1.406,3.181,2.997,3.826c0.599,0.253,1.221,0.369,1.867,0.369
	c0.185,0,0.416-0.023,0.6-0.048c0.761-0.09,1.544-0.343,2.305-0.782c0.945-0.53,1.844-1.292,2.858-2.397
	c1.015,1.105,1.938,1.867,2.859,2.397c0.76,0.439,1.544,0.692,2.305,0.782c0.185,0.024,0.415,0.048,0.6,0.048
	c0.646,0,1.291-0.116,1.866-0.369c1.615-0.646,2.744-2.121,2.997-3.826C24.366,17.948,24.272,17.143,23.974,16.289z M13.578,17.488
	c-1.245-1.568-2.051-3.043-2.328-4.288c-0.116-0.53-0.138-0.99-0.07-1.406c0.047-0.369,0.185-0.692,0.369-0.969
	c0.438-0.622,1.176-1.014,2.028-1.014c0.853,0,1.614,0.37,2.028,1.014c0.186,0.277,0.323,0.6,0.369,0.969
	c0.069,0.416,0.047,0.899-0.069,1.406C15.629,14.423,14.823,15.897,13.578,17.488z M22.775,18.57
	c-0.162,1.2-0.969,2.236-2.099,2.698c-0.554,0.229-1.152,0.3-1.751,0.229c-0.576-0.068-1.152-0.253-1.753-0.599
	c-0.828-0.461-1.659-1.176-2.627-2.235c1.521-1.867,2.443-3.573,2.79-5.095c0.16-0.716,0.185-1.359,0.113-1.959
	c-0.092-0.576-0.3-1.107-0.621-1.567c-0.716-1.038-1.913-1.637-3.25-1.637c-1.336,0-2.536,0.622-3.25,1.637
	c-0.323,0.46-0.53,0.991-0.622,1.567c-0.092,0.6-0.069,1.268,0.115,1.959c0.346,1.521,1.291,3.25,2.789,5.118
	c-0.945,1.06-1.798,1.773-2.627,2.235c-0.6,0.346-1.176,0.53-1.752,0.599c-0.623,0.069-1.222-0.023-1.752-0.23
	c-1.129-0.462-1.936-1.498-2.097-2.697c-0.069-0.574-0.023-1.152,0.207-1.797c0.069-0.231,0.184-0.462,0.3-0.739
	c0.161-0.367,0.345-0.759,0.53-1.152l0.022-0.046c1.59-3.434,3.296-6.938,5.071-10.349l0.069-0.138
	c0.184-0.346,0.369-0.715,0.553-1.061c0.185-0.369,0.392-0.714,0.646-1.014c0.484-0.554,1.129-0.853,1.845-0.853
	c0.713,0,1.36,0.299,1.844,0.853c0.253,0.3,0.46,0.645,0.645,1.014c0.185,0.346,0.368,0.715,0.553,1.061l0.069,0.138
	c1.752,3.435,3.458,6.938,5.049,10.373v0.022c0.184,0.37,0.346,0.785,0.53,1.152c0.114,0.277,0.229,0.508,0.299,0.739
	C22.799,17.396,22.867,17.972,22.775,18.57z"/>
</svg>
