<?xml version="1.0" encoding="utf-8"?>
<!-- Generator: Adobe Illustrator 16.0.0, SVG Export Plug-In . SVG Version: 6.00 Build 0)  -->
<!DOCTYPE svg PUBLIC "-//W3C//DTD SVG 1.1//EN" "http://www.w3.org/Graphics/SVG/1.1/DTD/svg11.dtd">
<svg version="1.1" id="Layer_1" xmlns="http://www.w3.org/2000/svg" xmlns:xlink="http://www.w3.org/1999/xlink" x="0px" y="0px"
	 width="22px" height="23px" viewBox="0 0 22 23" enable-background="new 0 0 22 23" xml:space="preserve">
<g>
	<path fill="#26D198" d="M9.605,0.448c0.818-0.598,1.928-0.598,2.747,0c1.961,1.434,1.537,1.297,3.967,1.29
		c1.012-0.002,1.91,0.65,2.221,1.614c0.743,2.31,0.482,1.953,2.449,3.373c0.822,0.593,1.167,1.65,0.851,2.613
		c-0.755,2.301-0.759,1.86,0,4.17c0.317,0.963-0.026,2.02-0.851,2.612c-1.967,1.42-1.705,1.063-2.449,3.374
		c-0.309,0.965-1.208,1.618-2.221,1.615c-2.43-0.008-2.008-0.146-3.967,1.289c-0.818,0.598-1.928,0.598-2.747,0
		c-1.96-1.434-1.539-1.299-3.966-1.291c-1.013,0.004-1.912-0.648-2.222-1.613c-0.742-2.312-0.486-1.956-2.451-3.374
		c-0.822-0.593-1.166-1.649-0.85-2.612c0.758-2.301,0.76-1.86,0-4.17c-0.317-0.963,0.026-2.021,0.849-2.614
		c1.963-1.417,1.709-1.057,2.451-3.373c0.309-0.965,1.208-1.619,2.222-1.615C8.061,1.744,7.633,1.89,9.605,0.448"/>
</g>
<path fill-rule="evenodd" clip-rule="evenodd" fill="#111D28" d="M15.539,13.619c-0.051-0.121-0.102-0.252-0.151-0.362
	c-0.081-0.181-0.161-0.353-0.231-0.514l-0.011-0.01c-0.693-1.51-1.438-3.04-2.224-4.55l-0.03-0.06
	c-0.08-0.151-0.161-0.312-0.241-0.474c-0.101-0.181-0.201-0.372-0.363-0.554c-0.321-0.402-0.784-0.624-1.278-0.624
	c-0.503,0-0.956,0.222-1.288,0.604C9.571,7.258,9.46,7.449,9.359,7.63C9.279,7.791,9.198,7.952,9.118,8.104l-0.03,0.06
	c-0.775,1.51-1.53,3.04-2.224,4.55l-0.011,0.021c-0.069,0.161-0.15,0.332-0.231,0.514c-0.049,0.11-0.1,0.23-0.151,0.361
	c-0.131,0.373-0.171,0.725-0.121,1.087c0.11,0.755,0.614,1.389,1.308,1.672c0.262,0.11,0.534,0.16,0.815,0.16
	c0.081,0,0.181-0.01,0.262-0.02c0.332-0.041,0.674-0.15,1.006-0.343c0.413-0.231,0.806-0.563,1.248-1.047
	c0.443,0.483,0.847,0.815,1.248,1.047c0.332,0.192,0.675,0.302,1.007,0.343c0.081,0.01,0.182,0.02,0.261,0.02
	c0.283,0,0.564-0.05,0.815-0.16c0.705-0.283,1.198-0.927,1.31-1.672C15.709,14.343,15.67,13.991,15.539,13.619z M11,14.143
	c-0.544-0.685-0.895-1.329-1.017-1.872c-0.05-0.231-0.06-0.433-0.03-0.614c0.02-0.16,0.081-0.302,0.161-0.423
	c0.191-0.271,0.513-0.443,0.885-0.443s0.705,0.162,0.886,0.443c0.08,0.121,0.14,0.263,0.161,0.423
	c0.029,0.182,0.02,0.393-0.031,0.614C11.896,12.804,11.543,13.448,11,14.143z M15.016,14.615c-0.071,0.523-0.424,0.977-0.916,1.178
	c-0.242,0.101-0.503,0.131-0.765,0.101c-0.252-0.03-0.504-0.111-0.766-0.261c-0.361-0.202-0.724-0.515-1.146-0.978
	c0.664-0.815,1.066-1.56,1.217-2.224c0.071-0.312,0.081-0.594,0.051-0.856c-0.04-0.251-0.131-0.482-0.271-0.684
	c-0.312-0.453-0.835-0.715-1.419-0.715c-0.583,0-1.107,0.271-1.419,0.715c-0.141,0.201-0.232,0.433-0.272,0.684
	c-0.04,0.263-0.03,0.555,0.051,0.856c0.15,0.664,0.563,1.419,1.218,2.234c-0.413,0.463-0.786,0.774-1.148,0.977
	c-0.261,0.15-0.513,0.23-0.765,0.261c-0.271,0.03-0.534-0.01-0.765-0.101c-0.494-0.201-0.845-0.654-0.916-1.178
	c-0.03-0.251-0.01-0.503,0.09-0.785c0.03-0.1,0.081-0.2,0.13-0.322c0.071-0.16,0.151-0.331,0.232-0.503l0.01-0.02
	c0.694-1.499,1.438-3.03,2.214-4.52l0.03-0.061c0.081-0.15,0.162-0.312,0.242-0.463c0.081-0.161,0.171-0.312,0.282-0.442
	c0.211-0.242,0.493-0.373,0.805-0.373c0.312,0,0.593,0.131,0.805,0.373c0.111,0.131,0.2,0.281,0.281,0.442
	c0.081,0.151,0.161,0.312,0.242,0.463l0.029,0.061c0.766,1.499,1.511,3.03,2.204,4.529v0.01c0.081,0.161,0.151,0.343,0.232,0.503
	c0.05,0.122,0.101,0.223,0.13,0.322C15.025,14.103,15.056,14.354,15.016,14.615z"/>
</svg>
