<svg xmlns="http://www.w3.org/2000/svg" width="22" height="23" viewBox="0 0 22 23">
    <g fill="none" fill-rule="evenodd">
        <path fill="#26D198" d="M9.605.448a2.328 2.328 0 0 1 2.747 0c1.96 1.434 1.537 1.297 3.966 1.29a2.326 2.326 0 0 1 2.221 1.614c.743 2.31.483 1.953 2.45 3.373a2.327 2.327 0 0 1 .85 2.613c-.755 2.301-.759 1.86 0 4.17a2.323 2.323 0 0 1-.85 2.612c-1.967 1.42-1.706 1.063-2.45 3.374a2.324 2.324 0 0 1-2.221 1.615c-2.43-.008-2.007-.145-3.966 1.289a2.328 2.328 0 0 1-2.747 0c-1.96-1.433-1.539-1.298-3.966-1.29a2.326 2.326 0 0 1-2.222-1.614c-.742-2.313-.486-1.956-2.451-3.374a2.326 2.326 0 0 1-.85-2.612c.758-2.301.76-1.86 0-4.17a2.327 2.327 0 0 1 .849-2.614c1.963-1.417 1.709-1.057 2.451-3.373a2.324 2.324 0 0 1 2.222-1.615c2.423.008 1.995.154 3.967-1.288"/>
        <path fill="#111D28" d="M11.295 10.539v1.815h3.003c-.121.778-.908 2.284-3.003 2.284-1.808 0-3.283-1.497-3.283-3.343 0-1.846 1.475-3.343 3.283-3.343 1.029 0 1.717.438 2.11.817l1.438-1.385C13.92 6.522 12.725 6 11.295 6A5.291 5.291 0 0 0 6 11.295a5.291 5.291 0 0 0 5.295 5.295c3.056 0 5.084-2.148 5.084-5.174 0-.348-.039-.613-.084-.877h-5z"/>
    </g>
</svg>
