<svg xmlns="http://www.w3.org/2000/svg" width="22" height="23" viewBox="0 0 22 23">
    <g fill="none" fill-rule="evenodd">
        <path fill="#26D198" d="M9.605.448a2.328 2.328 0 0 1 2.747 0c1.96 1.434 1.537 1.297 3.966 1.29a2.326 2.326 0 0 1 2.221 1.614c.743 2.31.483 1.953 2.45 3.373a2.327 2.327 0 0 1 .85 2.613c-.755 2.301-.759 1.86 0 4.17a2.323 2.323 0 0 1-.85 2.612c-1.967 1.42-1.706 1.063-2.45 3.374a2.324 2.324 0 0 1-2.221 1.615c-2.43-.008-2.007-.145-3.966 1.289a2.328 2.328 0 0 1-2.747 0c-1.96-1.433-1.539-1.298-3.966-1.29a2.326 2.326 0 0 1-2.222-1.614c-.742-2.313-.486-1.956-2.451-3.374a2.326 2.326 0 0 1-.85-2.612c.758-2.301.76-1.86 0-4.17a2.327 2.327 0 0 1 .849-2.614c1.963-1.417 1.709-1.057 2.451-3.373a2.324 2.324 0 0 1 2.222-1.615c2.423.008 1.995.154 3.967-1.288"/>
        <path fill="#111D28" d="M16.068 9.497c.161 3.558-2.493 7.525-7.192 7.525A7.155 7.155 0 0 1 5 15.885a5.09 5.09 0 0 0 3.745-1.047 2.538 2.538 0 0 1-2.365-1.757c.398.076.788.054 1.144-.043-1.217-.245-2.057-1.34-2.029-2.513.342.19.731.303 1.145.316a2.534 2.534 0 0 1-.782-3.378 7.18 7.18 0 0 0 5.214 2.644 2.532 2.532 0 0 1 4.311-2.308 5.054 5.054 0 0 0 1.607-.614 2.538 2.538 0 0 1-1.113 1.4c.511-.062 1-.198 1.453-.4-.338.51-.767.955-1.262 1.312"/>
    </g>
</svg>
