<svg xmlns="http://www.w3.org/2000/svg" width="52" height="54" viewBox="0 0 52 54">
    <path fill="#1a82ff" fill-rule="evenodd" d="M22.702 1.06a5.503 5.503 0 0 1 6.493 0c4.633 3.388 3.634 3.064 9.374 3.046a5.497 5.497 0 0 1 5.251 3.816c1.755 5.461 1.14 4.617 5.792 7.974a5.5 5.5 0 0 1 2.009 6.177c-1.787 5.438-1.796 4.394 0 9.854a5.49 5.49 0 0 1-2.01 6.175c-4.65 3.357-4.034 2.513-5.79 7.976a5.494 5.494 0 0 1-5.252 3.816c-5.742-.018-4.743-.342-9.374 3.046a5.503 5.503 0 0 1-6.493 0c-4.633-3.386-3.636-3.066-9.374-3.046a5.497 5.497 0 0 1-5.251-3.816c-1.755-5.468-1.15-4.624-5.794-7.977a5.497 5.497 0 0 1-2.007-6.174c1.789-5.438 1.795-4.394 0-9.854a5.5 5.5 0 0 1 2.005-6.179c4.64-3.35 4.038-2.5 5.793-7.974a5.494 5.494 0 0 1 5.252-3.816c5.726.018 4.716.362 9.376-3.044"/>
</svg>
