<svg xmlns="http://www.w3.org/2000/svg" width="46" height="48" viewBox="0 0 46 48">
    <g fill="none" fill-rule="evenodd">
        <path fill="#E4761B" d="M42.747 32.77l-2.672 9.037-5.247-1.435z"/>
        <path stroke="#E4761B" d="M42.747 32.77l-2.672 9.037-5.247-1.435z"/>
        <path fill="#E4761B" d="M34.828 40.372l5.06-6.933 2.86-.668z"/>
        <path stroke="#E4761B" d="M34.828 40.372l5.06-6.933 2.86-.668z"/>
        <path fill="#F6851B" d="M38.815 25.958l2.53-1.753 1.402 8.566-3.932-6.813zm0 0l3.932 6.813-2.858.668-1.074-7.481z"/>
        <path stroke="#F6851B" d="M38.815 25.958l2.53-1.753 1.402 8.566-3.932-6.813zm0 0l3.932 6.813-2.858.668-1.074-7.481z"/>
        <path fill="#763D16" d="M42.276 21.423l-6.681-.613 6.911-1.347-.23 1.96zm-6.681-.613l7.273-2.98-.362 1.633-6.911 1.347z"/>
        <path stroke="#763D16" d="M42.276 21.423l-6.681-.613 6.911-1.347-.23 1.96zm-6.681-.613l7.273-2.98-.362 1.633-6.911 1.347z"/>
        <path fill="#763D16" d="M42.276 21.423l.23-1.96.975.81-1.205 1.15zm1.457-2.902l-1.227.942.362-1.632.865.69zm-1.457 2.902l-.93 2.782-5.751-3.395 6.681.613z"/>
        <path stroke="#763D16" d="M42.276 21.423l.23-1.96.975.81-1.205 1.15zm1.457-2.902l-1.227.942.362-1.632.865.69zm-1.457 2.902l-.93 2.782-5.751-3.395 6.681.613z"/>
        <path fill="#E2761B" d="M29.187 38.17l1.819.581 3.822 1.621z"/>
        <path stroke="#E2761B" d="M29.187 38.17l1.819.581 3.822 1.621z"/>
        <path fill="#763D16" d="M41.345 24.205L33.8 21.72l1.796-.91 5.75 3.396zm0 0l.931-2.782.8.614-1.73 2.168z"/>
        <path stroke="#763D16" d="M41.345 24.205L33.8 21.72l1.796-.91 5.75 3.396zm0 0l.931-2.782.8.614-1.73 2.168z"/>
        <path fill="#763D16" d="M37.391 12.277l-1.796 8.533-1.796.91z"/>
        <path stroke="#763D16" d="M37.391 12.277l-1.796 8.533-1.796.91z"/>
        <path fill="#763D16" d="M42.868 17.83l-7.273 2.98 1.796-8.533z"/>
        <path stroke="#763D16" d="M42.868 17.83l-7.273 2.98 1.796-8.533z"/>
        <path fill="#763D16" d="M37.391 12.277l5.477 5.554 2.114-6.43z"/>
        <path stroke="#763D16" d="M37.391 12.277l7.59-.876-2.113 6.43z"/>
        <path fill="#F6851B" d="M41.345 24.205l-2.53 1.753-5.016-4.239z"/>
        <path stroke="#F6851B" d="M41.345 24.205l-2.53 1.753-5.016-4.239z"/>
        <path fill="#763D16" d="M37.391 12.277l7.59-.876-.328-6.144z"/>
        <path stroke="#763D16" d="M44.653 5.256l.329 6.145-7.59.876z"/>
        <path fill="#E2761B" d="M44.653 5.256l-15.17 11.03-.197-7.48z"/>
        <path stroke="#E2761B" d="M44.653 5.256l-15.17 11.03-.197-7.48z"/>
        <path fill="#F6851B" d="M18.004 7.907l11.282.898.197 7.481z"/>
        <path stroke="#F6851B" d="M18.004 7.907l11.282.898.197 7.481z"/>
        <path fill="#763D16" d="M33.799 21.72l-4.316-5.434 7.908-4.009z"/>
        <path stroke="#763D16" d="M33.799 21.72l-4.316-5.434 7.908-4.009z"/>
        <path fill="#E4761B" d="M33.799 21.72l5.016 4.238-7.043.778z"/>
        <path stroke="#E4761B" d="M33.799 21.72l5.016 4.238-7.043.778z"/>
        <path fill="#E4761B" d="M31.772 26.736l-2.289-10.45L33.8 21.72z"/>
        <path stroke="#E4761B" d="M31.772 26.736l-2.289-10.45L33.8 21.72z"/>
        <path fill="#763D16" d="M37.391 12.277l-7.908 4.01 15.17-11.03z"/>
        <path stroke="#763D16" d="M37.391 12.277l-7.908 4.01 15.17-11.03z"/>
        <path fill="#C0AD9E" d="M18.103 40.197l3.581 3.735-4.874-4.436z"/>
        <path stroke="#C0AD9E" d="M18.103 40.197l3.581 3.735-4.874-4.436z"/>
        <path fill="#CD6116" d="M34.828 40.372l1.698-6.451 3.363-.482z"/>
        <path stroke="#CD6116" d="M34.828 40.372l1.698-6.451 3.363-.482z"/>
        <path fill="#E2761B" d="M3.579 22.223l6.2-6.517-5.4 5.74z"/>
        <path stroke="#E2761B" d="M3.579 22.223l6.2-6.517-5.4 5.74z"/>
        <path fill="#F6851B" d="M29.483 16.286l-6.035-.197-5.444-8.182 11.48 8.38zM39.89 33.44l-3.363.482 2.29-7.963 1.073 7.48z"/>
        <path stroke="#F6851B" d="M29.483 16.286l-6.035-.197-5.444-8.182 11.48 8.38zM39.89 33.44l-3.363.482 2.29-7.963 1.073 7.48z"/>
        <path fill="#E4751F" d="M38.815 25.958l-2.29 7.963-.185-3.889z"/>
        <path stroke="#E4751F" d="M38.815 25.958l-2.29 7.963-.185-3.889z"/>
        <path fill="#CD6116" d="M31.772 26.736l7.043-.778-2.475 4.074z"/>
        <path stroke="#CD6116" d="M31.772 26.736l7.043-.778-2.475 4.074z"/>
        <path fill="#F6851B" d="M23.448 16.09l6.035.196 2.29 10.45z"/>
        <path stroke="#F6851B" d="M23.448 16.09l6.035.196 2.29 10.45z"/>
        <path fill="#E4761B" d="M23.448 16.09l-5.444-8.183-10.843-6.89L23.448 16.09zM3.842 46.866l14.151-4.38-16.977-6.408 2.826 10.788z"/>
        <path stroke="#E4761B" d="M17.993 42.486L3.842 46.867 1.016 36.08l16.977 6.407zm5.455-26.397L7.16 1.018l10.843 6.89 5.444 8.181z"/>
        <path fill="#763D16" d="M5.682 24.917l5.345-4.195 4.48 1.04z"/>
        <path stroke="#763D16" d="M5.682 24.917l5.345-4.195 4.48 1.04z"/>
        <path fill="#763D16" d="M15.507 21.763l-4.48-1.04 2.399-9.902z"/>
        <path stroke="#763D16" d="M15.507 21.763l-4.48-1.04 2.399-9.902z"/>
        <path fill="#763D16" d="M4.378 21.445l6.649-.723-5.345 4.195z"/>
        <path stroke="#763D16" d="M4.378 21.445l6.649-.723-5.345 4.195z"/>
        <path fill="#CD6116" d="M36.34 30.032l-2.76-1.39-1.808-1.906z"/>
        <path stroke="#CD6116" d="M36.34 30.032l-2.76-1.39-1.808-1.906z"/>
        <path fill="#763D16" d="M4.378 21.445l-.47-2.486 7.119 1.763z"/>
        <path stroke="#763D16" d="M4.378 21.445l-.47-2.486 7.119 1.763z"/>
        <path fill="#233447" d="M33.01 31.774l.57-3.133 2.76 1.391z"/>
        <path stroke="#233447" d="M33.01 31.774l.57-3.133 2.76 1.391z"/>
        <path fill="#F6851B" d="M36.526 33.92l-3.516-2.146 3.33-1.742z"/>
        <path stroke="#F6851B" d="M36.526 33.92l-3.516-2.146 3.33-1.742z"/>
        <path fill="#763D16" d="M13.426 10.82l10.022 5.27-7.941 5.673-2.081-10.942zm0 0l-2.399 9.902-7.7-3.855 10.099-6.046zm-2.399 9.902l-7.12-1.763-.58-2.092 7.7 3.855z"/>
        <path stroke="#763D16" d="M13.426 10.82l10.022 5.27-7.941 5.673-2.081-10.942zm0 0l-2.399 9.902-7.7-3.855 10.099-6.046zm-2.399 9.902l-7.12-1.763-.58-2.092 7.7 3.855z"/>
        <path fill="#E4761B" d="M26.986 26.9l-10.975-.23-.504-4.907L26.986 26.9zm-11.48-5.137l7.942-5.674 3.538 10.81-11.48-5.136z"/>
        <path stroke="#E4761B" d="M26.986 26.9l-10.975-.23-.504-4.907L26.986 26.9zm-11.48-5.137l7.942-5.674 3.538 10.81-11.48-5.136z"/>
        <path fill="#F6851B" d="M31.772 26.736l-4.786.164-3.538-10.81 8.324 10.646zm-26.09-1.819l9.825-3.154.504 4.907-10.33-1.753z"/>
        <path stroke="#F6851B" d="M31.772 26.736l-4.786.164-3.538-10.81 8.324 10.646zm-26.09-1.819l9.825-3.154.504 4.907-10.33-1.753z"/>
        <path fill="#CD6116" d="M33.58 28.641l-.57 3.133-1.238-5.038z"/>
        <path stroke="#CD6116" d="M33.58 28.641l-.57 3.133-1.238-5.038z"/>
        <path fill="#763D16" d="M7.16 1.018l16.288 15.071-10.022-5.268z"/>
        <path stroke="#763D16" d="M7.16 1.018l16.288 15.071-10.022-5.268z"/>
        <path fill="#E4761B" d="M1.016 36.079l13.735-.57 3.242 6.977z"/>
        <path stroke="#E4761B" d="M1.016 36.079l13.735-.57 3.242 6.977z"/>
        <path fill="#CD6116" d="M17.993 42.486l-3.242-6.977 6.747-.329z"/>
        <path stroke="#CD6116" d="M17.993 42.486l-3.242-6.977 6.747-.329z"/>
        <path fill="#F6851B" d="M28.333 30.252L26.986 26.9l4.786-.164-3.439 3.516zm3.44-3.516L32.67 30l-4.337.252 3.44-3.516zM14.75 35.509l-13.735.57 14.995-9.41-1.26 8.84zm1.26-8.84L1.016 36.08l4.666-11.162L16.01 26.67zm16.999 5.105l3.516 2.147 1.939 4.567-5.455-6.714z"/>
        <path stroke="#F6851B" d="M28.333 30.252L26.986 26.9l4.786-.164-3.439 3.516zm3.44-3.516L32.67 30l-4.337.252 3.44-3.516zM14.75 35.509l-13.735.57 14.995-9.41-1.26 8.84zm1.26-8.84L1.016 36.08l4.666-11.162L16.01 26.67zm16.999 5.105l3.516 2.147 1.939 4.567-5.455-6.714z"/>
        <path fill="#C0AD9E" d="M21.684 43.932l-3.69-1.446 12.836 2.158z"/>
        <path stroke="#C0AD9E" d="M21.684 43.932l-3.69-1.446 12.836 2.158z"/>
        <path fill="#763D16" d="M5.682 24.917l-2.103-2.694.8-.778z"/>
        <path stroke="#763D16" d="M5.682 24.917l-2.103-2.694.8-.778z"/>
        <path fill="#D7C1B3" d="M32.287 43.045l-1.457 1.599-12.837-2.158z"/>
        <path stroke="#D7C1B3" d="M32.287 43.045l-1.457 1.599-12.837-2.158z"/>
        <path fill="#E4761B" d="M32.977 39.124l-14.984 3.362 3.505-7.306z"/>
        <path stroke="#E4761B" d="M32.977 39.124l-14.984 3.362 3.505-7.306z"/>
        <path fill="#D7C1B3" d="M17.993 42.486l14.984-3.362-.69 3.92z"/>
        <path stroke="#D7C1B3" d="M17.993 42.486l14.984-3.362-.69 3.92z"/>
        <path fill="#763D16" d="M4.378 21.445l-1.456-1.478.985-1.008.471 2.486zm-1.051-4.578l-.493-8.423 10.592 2.377-10.099 6.046z"/>
        <path stroke="#763D16" d="M4.378 21.445l-1.456-1.478.985-1.008.471 2.486zm-1.051-4.578l-.493-8.423 10.592 2.377-10.099 6.046z"/>
        <path fill="#CD6116" d="M24.532 29.069l2.454-2.17-.35 5.302z"/>
        <path stroke="#CD6116" d="M24.532 29.069l2.454-2.17-.35 5.302z"/>
        <path fill="#CD6116" d="M26.986 26.9l-2.454 2.169-3.57 1.85z"/>
        <path stroke="#CD6116" d="M26.986 26.9l-2.454 2.169-3.57 1.85z"/>
        <path fill="#F6851B" d="M38.465 38.488l-.668-.493-4.787-6.22z"/>
        <path stroke="#F6851B" d="M38.465 38.488l-.668-.493-4.787-6.22z"/>
        <path fill="#CD6116" d="M20.962 30.92l-4.951-4.25 10.975.23z"/>
        <path stroke="#CD6116" d="M20.962 30.92l-4.951-4.25 10.975.23z"/>
        <path fill="#E4751F" d="M26.635 32.201l.35-5.301 1.348 3.352z"/>
        <path stroke="#E4751F" d="M26.635 32.201l.35-5.301 1.348 3.352z"/>
        <path fill="#763D16" d="M2.44 17.7l.887-.833.58 2.092z"/>
        <path stroke="#763D16" d="M2.44 17.7l.887-.833.58 2.092z"/>
        <path fill="#233447" d="M26.635 32.201l-5.673-1.281 3.57-1.851z"/>
        <path stroke="#233447" d="M26.635 32.201l-5.673-1.281 3.57-1.851z"/>
        <path fill="#763D16" d="M13.426 10.82L2.834 8.445l4.327-7.426z"/>
        <path stroke="#763D16" d="M13.426 10.82L2.834 8.445l4.327-7.426z"/>
        <path fill="#C0AD9E" d="M30.83 44.644l.603 1.643-9.749-2.355z"/>
        <path stroke="#C0AD9E" d="M30.83 44.644l.603 1.643-9.749-2.355z"/>
        <path fill="#F6851B" d="M21.498 35.18l-.536-4.26 5.673 1.281z"/>
        <path stroke="#F6851B" d="M21.498 35.18l-.536-4.26 5.673 1.281z"/>
        <path fill="#E4751F" d="M16.01 26.67l4.952 4.25.536 4.26z"/>
        <path stroke="#E4751F" d="M16.01 26.67l4.952 4.25.536 4.26z"/>
        <path fill="#F6851B" d="M16.01 26.67l5.488 8.51-6.747.33 1.26-8.84zm12.323 3.582L32.67 30l5.127 7.995-9.464-7.743z"/>
        <path stroke="#F6851B" d="M16.01 26.67l5.488 8.51-6.747.33 1.26-8.84zm12.323 3.582L32.67 30l5.127 7.995-9.464-7.743z"/>
        <path fill="#E4751F" d="M28.333 30.252l5.389 8.203-7.087-6.254z"/>
        <path stroke="#E4751F" d="M28.333 30.252l5.389 8.203-7.087-6.254z"/>
        <path fill="#F6851B" d="M26.635 32.201l7.087 6.254-.745.669z"/>
        <path stroke="#F6851B" d="M26.635 32.201l7.087 6.254-.745.669z"/>
        <path fill="#F6851B" d="M37.797 37.995l-4.075.46-5.389-8.203 9.464 7.743zm-4.82 1.129L21.498 35.18l5.137-2.979 6.342 6.923z"/>
        <path stroke="#F6851B" d="M37.797 37.995l-4.075.46-5.389-8.203 9.464 7.743zm-4.82 1.129L21.498 35.18l5.137-2.979 6.342 6.923z"/>
        <path fill="#C0AD9E" d="M31.433 46.287l-.603-1.643 1.457-1.6-.854 3.243zm7.437-4.436l-1.753 3.516-5.684.92 7.437-4.436z"/>
        <path stroke="#C0AD9E" d="M31.433 46.287l-.603-1.643 1.457-1.6-.854 3.243zm7.437-4.436l-1.753 3.516-5.684.92 7.437-4.436z"/>
        <path fill="#C0AD9E" d="M31.433 46.287l1.927-3.67 5.51-.766-7.437 4.436zm.854-3.242l1.073-.427-1.927 3.669.854-3.242z"/>
        <path stroke="#C0AD9E" d="M31.433 46.287l1.927-3.67 5.51-.766-7.437 4.436zm.854-3.242l1.073-.427-1.927 3.669.854-3.242z"/>
        <path fill="#161616" d="M37.797 37.995l1.347.822-4.097.493z"/>
        <path stroke="#161616" d="M37.797 37.995l1.347.822-4.097.493z"/>
        <path fill="#161616" d="M34.576 39.956l4.984-.602-.69 2.497-4.294-1.895zm.471-.646l-1.325-.855 4.075-.46-2.75 1.315z"/>
        <path stroke="#161616" d="M34.576 39.956l4.984-.602-.69 2.497-4.294-1.895zm.471-.646l-1.325-.855 4.075-.46-2.75 1.315z"/>
        <path fill="#161616" d="M39.144 38.817l.416.537-4.984.602 4.568-1.14zm-6.167.307l.745-.669 1.325.855-2.07-.186zm.383 3.494l-1.073.427.69-3.921.383 3.494zm5.51-.767l-5.51.767 1.216-2.662 4.294 1.895z"/>
        <path stroke="#161616" d="M39.144 38.817l.416.537-4.984.602 4.568-1.14zm-6.167.307l.745-.669 1.325.855-2.07-.186zm.383 3.494l-1.073.427.69-3.921.383 3.494zm5.51-.767l-5.51.767 1.216-2.662 4.294 1.895z"/>
        <path fill="#161616" d="M32.977 39.124l1.6.832-1.217 2.662-.383-3.494zm1.6.832l.47-.646 4.097-.493-4.568 1.139z"/>
        <path stroke="#161616" d="M32.977 39.124l1.6.832-1.217 2.662-.383-3.494zm1.6.832l.47-.646 4.097-.493-4.568 1.139z"/>
        <path fill="#161616" d="M35.047 39.31l-.47.646-1.6-.832z"/>
        <path stroke="#161616" d="M35.047 39.31l-.47.646-1.6-.832z"/>
    </g>
</svg>
