<svg xmlns="http://www.w3.org/2000/svg" width="168" height="39" viewBox="0 0 168 39">
    <path fill="#111D28" fill-rule="evenodd" d="M32.38 9.516l-5.987 5.987c.24 1.186.362 2.489.362 3.896 0 7.573-3.556 12.094-9.515 12.094-2.485 0-4.582-.795-6.163-2.308L31.819 8.442a17.62 17.62 0 0 0-1.903-2.745c-.3-.353-.615-.684-.936-1.005l.002-.001c-.043-.043-.087-.082-.129-.124-.096-.093-.189-.191-.286-.282l-.005.005C25.55 1.482 21.678 0 17.24 0 12.111 0 7.737 1.97 4.59 5.697 1.63 9.202 0 14.07 0 19.4c0 3.541.723 6.875 2.074 9.744l6.02-6.02a20.643 20.643 0 0 1-.316-3.724c0-3.485.708-6.304 2.108-8.377 1.641-2.432 4.184-3.718 7.354-3.718 2.468 0 4.522.779 6.083 2.225l-20.7 20.7A17.632 17.632 0 0 0 4.59 33.1c.148.176.301.344.456.512h-.001l.004.004c.178.193.36.38.544.563.023.024.046.048.07.07.058.058.114.12.174.176l.006-.006c3.014 2.867 6.916 4.379 11.398 4.379 5.132 0 9.515-1.97 12.676-5.696 2.978-3.51 4.617-8.376 4.617-13.702 0-3.597-.75-6.982-2.153-9.883zM168 .934v36.97h-6.918l-10.51-14.26c-3.327-4.542-7.394-10.352-7.446-10.352h-.054c-.053 0 .054 5.334.054 12.675v11.937h-7.341V.934h6.918l10.721 14.418c2.535 3.327 7.182 9.929 7.235 9.929h.053c.053 0-.053-6.02-.053-12.253V.934H168zm-45.216 36.97h7.34V.934h-7.34v36.97zm-11.5-3.856c-2.007 2.27-6.39 4.595-11.196 4.595-10.615 0-19.171-8.08-19.171-19.224S89.473.195 100.088.195c7.341.053 13.467 3.856 16.795 9.77l-7.5 1.954c-2.007-2.746-5.65-4.489-9.295-4.489-6.918 0-11.514 4.964-11.514 11.989 0 7.34 5.07 12.041 11.937 12.041 6.337 0 9.665-3.485 10.826-6.338v-1.584h-10.246V17.57h16.53v20.334h-6.337c0-3.064.053-3.803.053-3.856h-.053zm-41.34 3.856h7.341V.934h-7.34v36.97zM44.982 18.733h6.548c4.067 0 5.968-2.642 5.968-5.44 0-2.905-1.954-5.493-5.968-5.493h-6.548v10.933zm13.361 19.17l-7.34-12.622h-6.021v12.623H37.64V.934H50.58c9.083 0 14.523 4.912 14.523 12.358 0 5.07-2.483 8.767-6.971 10.616l8.45 13.996h-8.239z"/>
</svg>
