<svg xmlns="http://www.w3.org/2000/svg" xmlns:xlink="http://www.w3.org/1999/xlink" width="631" height="529" viewBox="0 0 631 529">
    <defs>
        <path id="a" d="M.765 149.977L250.5 0l447.672 267.758-230.797 157.875z"/>
        <linearGradient id="c" x1="94.428%" x2="40.753%" y1="23.723%" y2="85.042%">
            <stop offset="0%" stop-color="#F7F9FA" stop-opacity="0"/>
            <stop offset="100%" stop-color="#DADFE3"/>
        </linearGradient>
        <linearGradient id="d" x1="85.609%" x2="40.753%" y1="33.798%" y2="85.042%">
            <stop offset="0%" stop-color="#F7F9FA" stop-opacity="0"/>
            <stop offset="100%" stop-color="#DADFE3"/>
        </linearGradient>
        <linearGradient id="e" x1="92.028%" x2="41.586%" y1="26.465%" y2="84.09%">
            <stop offset="0%" stop-color="#F7F9FA" stop-opacity="0"/>
            <stop offset="100%" stop-color="#DADFE3"/>
        </linearGradient>
        <linearGradient id="f" x1="50%" x2="50%" y1="4.274%" y2="94.642%">
            <stop offset="0%" stop-color="#40A0FF"/>
            <stop offset="100%" stop-color="#1A82FF"/>
        </linearGradient>
        <linearGradient id="g" x1="108.89%" x2="57.536%" y1="9.781%" y2="60.638%">
            <stop offset="0%" stop-color="#F7F9FA" stop-opacity="0"/>
            <stop offset="100%" stop-color="#DADFE3"/>
        </linearGradient>
        <linearGradient id="h" x1="108.276%" x2="67.269%" y1="8.782%" y2="50%">
            <stop offset="0%" stop-color="#F7F9FA" stop-opacity="0"/>
            <stop offset="100%" stop-color="#DADFE3"/>
        </linearGradient>
        <path id="i" d="M0 .228h106.492v61.335H0z"/>
        <linearGradient id="k" x1="102.623%" x2="56.219%" y1="14.361%" y2="59.553%">
            <stop offset="0%" stop-color="#F7F9FA" stop-opacity="0"/>
            <stop offset="100%" stop-color="#DADFE3"/>
        </linearGradient>
        <path id="l" d="M0 .17h78.625v45.506H0z"/>
    </defs>
    <g fill="none" fill-rule="evenodd">
        <g transform="translate(-7 63)">
            <mask id="b" fill="#fff">
                <use xlink:href="#a"/>
            </mask>
            <g mask="url(#b)">
                <path fill="url(#c)" d="M52.527 24.262L.808 53.407l76.348 45.366L46.408 116.1l54.641 32.47 30.753-17.33 17.56 10.438 53.672-30.246-17.56-10.437 116.851-65.849v-.001L244.026.505 52.527 24.262zm56.352 31.221l72.472-10.339-46.126 25.994-26.346-15.655z" transform="translate(24 22)"/>
                <path fill="url(#d)" d="M230.542 131.055s-2.609 5.898 1.319 8.519c3.47 2.313 23.005 14.754 33.979 20.2 14.617 7.253 42.044-8.902 42.044-8.902L479.9 53.938l-58.3-34.642-191.058 111.759z" transform="translate(24 22)"/>
                <path fill="url(#e)" d="M432.527 159.795l-51.719 29.02 76.348 45.173-30.748 17.253 54.641 32.33 30.753-17.255 17.56 10.393 53.672-30.116-17.56-10.393 116.851-65.567v-.001l-58.299-34.492-191.499 23.655zm56.352 31.088l72.472-10.295-46.126 25.883-26.346-15.588z" transform="translate(24 22)"/>
            </g>
        </g>
        <path fill="#086BBC" d="M148.63 184.792l-30.208 17.439v27.836l30.207-17.44z"/>
        <path fill="#086BBC" d="M164.507 145.373L134.3 162.812v48.586l30.207-17.44zM148.63 30.43l-30.208 17.44v105.775l30.207-17.44zM103.2 68.223l-30.206 17.44-23.816 28.003 30.206-17.439z"/>
        <path fill="#40A0FF" d="M164.507 145.373L134.3 162.812l-15.877-9.167 30.206-17.44zM95.922 0L65.717 17.44l52.706 30.43 30.205-17.44L95.925 0zM103.2 109.978l-30.206 17.44-23.816-13.752 30.206-17.439z"/>
        <path fill="#1A82FF" d="M0 87.046v46.813l69.025 39.852v27.837l49.398 28.52V202.23l15.878 9.168V162.81l-15.878-9.166V47.87L65.717 17.442 0 87.046zm49.178 26.62l23.817-28.002v41.754l-23.817-13.752z"/>
        <g>
            <path fill="url(#f)" d="M98.302.001c-8.917.017-19.63 3.638-32.144 10.863-22.345 12.9-38.957 30.717-49.838 53.447C5.441 87.04 0 112.157 0 139.653c0 27.668 5.441 46.583 16.32 56.75l35.637 21.291 65.404-55.481 1.971-50.958 20.561-91.451-30.206-17.441C106.327.797 102.578.01 98.442.001h-.14zM51.824 137.567c-2.35-5.222-3.528-13.818-3.528-25.798 0-11.976 1.178-21.894 3.528-29.746 2.353-7.852 7.132-13.862 14.334-18.019 7.353-4.245 12.205-3.797 14.555 1.339 2.353 5.137 3.528 13.696 3.528 25.673 0 11.981-1.175 21.934-3.528 29.873-2.35 7.936-7.202 14.026-14.555 18.271-3.193 1.844-5.91 2.766-8.151 2.766-2.812 0-4.873-1.453-6.183-4.359z" transform="translate(228 21)"/>
            <path fill="#086BBC" d="M310.03 176.008c2.354 5.22 7.133 5.75 14.334 1.593 7.353-4.246 12.205-10.337 14.555-18.273 2.354-7.938 3.528-17.892 3.528-29.873 0-11.976-1.174-20.535-3.528-25.672-2.35-5.135-7.202-5.585-14.555-1.34-7.2 4.159-11.98 10.168-14.334 18.019-2.35 7.853-3.528 17.77-3.528 29.747 0 11.98 1.178 20.575 3.528 25.799m64.173 1.287c-10.878 22.729-27.49 40.543-49.839 53.446-22.345 12.902-38.957 14.269-49.838 4.103-10.879-10.168-16.32-29.083-16.32-56.752 0-27.496 5.441-52.612 16.32-75.342 10.881-22.73 27.493-40.546 49.838-53.447 22.35-12.903 38.961-14.31 49.84-4.23 10.881 10.084 16.318 28.96 16.318 56.626 0 27.669-5.437 52.865-16.319 75.596"/>
        </g>
        <g>
            <path fill="#086BBC" d="M528.63 320.002l-30.208 17.364v27.717l30.207-17.364z"/>
            <path fill="#086BBC" d="M544.507 280.751L514.3 298.116v48.378l30.207-17.364zM528.63 166.3l-30.208 17.365v105.324l30.207-17.366zM483.2 203.932l-30.206 17.364-23.816 27.885 30.206-17.365z"/>
            <path fill="#40A0FF" d="M544.507 280.751L514.3 298.116l-15.877-9.128 30.206-17.364zM475.922 136l-30.205 17.366 52.706 30.299 30.205-17.366L475.925 136zM483.2 245.508l-30.206 17.365-23.816-13.693 30.206-17.364z"/>
            <path fill="#1A82FF" d="M380 222.674v46.613l69.025 39.682v27.717l49.398 28.398v-27.717l15.878 9.128v-48.38l-15.878-9.126V183.665l-52.706-30.299L380 222.674zm49.178 26.507l23.817-27.884v41.576l-23.817-13.692z"/>
        </g>
        <g>
            <path fill="url(#g)" d="M109.861 21.48c2.658 1.528 2.658 4.028 0 5.555L46.272 64.617c-2.657 1.528-7.005 1.528-9.662 0L1.993 44.718c-2.657-1.527-2.657-4.026 0-5.554l63.59-37.583c2.656-1.527 7.004-1.527 9.661 0l34.617 19.9z" transform="translate(215 243)"/>
            <path fill="#C2CBD3" d="M257 253.869c-1.774 0-3.55-.384-4.896-1.152l-35.09-20.002c-1.313-.748-1.98-1.73-2.014-2.715v49.132c.033.986.7 1.966 2.014 2.714l35.09 20.003c1.347.767 3.122 1.151 4.896 1.151v-49.131z"/>
            <path fill="#98A7B4" d="M257 253.869c1.787 0 3.575-.384 4.93-1.152l35.042-19.842c1.393-.79 2.065-1.835 2.026-2.875v49.132c.039 1.04-.633 2.085-2.026 2.874l-35.041 19.843c-1.356.768-3.144 1.151-4.931 1.151v-49.131z"/>
            <path fill="#F4F7F9" d="M296.973 227.577c2.703 1.553 2.703 4.095 0 5.648l-34.92 20.073c-2.702 1.553-7.123 1.553-9.825 0l-35.201-20.235c-2.702-1.554-2.702-4.095 0-5.648l34.92-20.073c2.702-1.554 7.123-1.554 9.825 0l35.201 20.235z"/>
        </g>
        <g>
            <path fill="url(#h)" d="M130.488 27.833c3.426 1.973 3.426 5.202 0 7.175L59.652 75.88c-3.425 1.973-9.03 1.973-12.456 0L2.569 50.178c-3.425-1.973-3.425-5.201 0-7.174L73.405 2.13c3.425-1.973 9.03-1.973 12.456 0l44.627 25.703z" transform="translate(455 412)"/>
            <path fill="#C2CBD3" d="M508 398.735c-2.24 0-4.479-.494-6.178-1.482l-44.28-25.757c-1.658-.963-2.5-2.227-2.542-3.496v63.265c.042 1.27.884 2.532 2.541 3.496l44.28 25.757c1.7.988 3.94 1.482 6.179 1.482v-63.265z"/>
            <path fill="#98A7B4" d="M508 398.735c2.255 0 4.511-.494 6.222-1.482l44.219-25.552c1.757-1.015 2.606-2.362 2.557-3.701v63.265c.049 1.339-.8 2.685-2.557 3.701l-44.219 25.552c-1.71.989-3.967 1.483-6.222 1.482v-63.265z"/>
            <g transform="translate(455 337)">
                <mask id="j" fill="#fff">
                    <use xlink:href="#i"/>
                </mask>
                <path fill="#F4F7F9" d="M103.923 27.411c3.426 1.973 3.426 5.202 0 7.175l-44.27 25.497c-3.426 1.973-9.031 1.973-12.457 0L2.569 34.38c-3.425-1.973-3.425-5.201 0-7.174L46.84 1.708c3.426-1.973 9.032-1.973 12.457 0l44.627 25.703z" mask="url(#j)"/>
            </g>
        </g>
        <g>
            <path fill="url(#k)" d="M103.293 20.812c2.53 1.464 2.53 3.859 0 5.323l-59.25 34.293c-2.53 1.464-6.668 1.464-9.197 0L1.897 41.358c-2.529-1.464-2.529-3.86 0-5.323L61.147 1.74c2.53-1.463 6.668-1.463 9.197 0l32.949 19.07z" transform="translate(502 467)"/>
            <path fill="#C2CBD3" d="M541 473.561c-1.648 0-3.296-.363-4.546-1.088l-32.584-18.907c-1.22-.707-1.84-1.634-1.87-2.566v46.44c.03.932.65 1.858 1.87 2.565l32.584 18.907c1.25.726 2.898 1.088 4.546 1.088v-46.439z"/>
            <path fill="#98A7B4" d="M541 473.561c1.66 0 3.32-.362 4.579-1.088l32.538-18.756c1.293-.746 1.917-1.734 1.882-2.717v46.44c.035.982-.59 1.97-1.882 2.716l-32.538 18.756c-1.26.726-2.92 1.088-4.579 1.088v-46.439z"/>
            <g transform="translate(502 428)">
                <mask id="m" fill="#fff">
                    <use xlink:href="#l"/>
                </mask>
                <path fill="#F4F7F9" d="M76.728 20.337c2.53 1.464 2.53 3.86 0 5.323L44.042 44.578c-2.529 1.464-6.667 1.464-9.196 0L1.897 25.508c-2.529-1.464-2.529-3.86 0-5.323L34.583 1.267c2.529-1.464 6.667-1.464 9.196 0l32.949 19.07z" mask="url(#m)"/>
            </g>
        </g>
    </g>
</svg>
