<svg xmlns="http://www.w3.org/2000/svg" width="38" height="54" viewBox="0 0 38 54">
    <g fill="none" fill-rule="evenodd">
        <path fill="#C2CBD3" d="M36.435 38.565v30.41c0 2.723-2.132 4.93-4.762 4.93h-2.036V38.261l6.798.304z"/>
        <path fill="#6E3BEA" d="M6.194 57.468c-2.716.064-5.551-.657-5.551-2.164 0 0-.644-9.362.804-16.948C2.896 30.77 13.84 27.3 13.84 27.3l.398-.04a5.048 5.048 0 0 0 4.993 4.344c2.785 0 5.043-2.264 5.043-5.057l-.034-.903 4.486-1.088s10.38-1.29 8.852 12.993c0 1.283-2.056 1.997-4.343 2.141l-.11 26.132c0 6.583-13.434 9.447-25.118 8.589a2.408 2.408 0 0 1-1.851-2.344v-14.16l.039-.439z"/>
        <path fill="#FFF" d="M27.736 43.17l-1.683 2.941c.067.349.101.754.101 1.214 0 2.475-1 4.537-2.676 5.517-.699.408-1.288.493-1.733.258l5.833-10.188a2.574 2.574 0 0 0-.535-.584 2.153 2.153 0 0 0-.263-.175c-.011-.008-.024-.013-.036-.02-.027-.015-.053-.031-.08-.045l-.002.003c-.847-.423-1.936-.27-3.184.46-1.442.843-2.673 2.206-3.558 3.941-.832 1.632-1.29 3.49-1.29 5.232 0 1.157.203 2.128.583 2.843l1.693-2.956a6.848 6.848 0 0 1-.09-1.166c0-1.139.2-2.176.594-3.084.461-1.065 1.177-1.903 2.068-2.424.694-.406 1.272-.49 1.711-.273l-5.822 10.168c.16.244.345.45.553.615.042.033.085.062.128.092h.001c.05.035.101.066.153.095l.02.012c.016.009.032.02.049.028l.002-.003c.847.442 1.945.294 3.205-.443 1.443-.843 2.676-2.208 3.565-3.945.838-1.637 1.299-3.496 1.299-5.237 0-1.175-.211-2.158-.606-2.875"/>
        <path fill="#C2CBD3" d="M14.42 14.062v12.895c0 2.812 2.32 5.09 5.18 5.09 2.861 0 5.18-2.278 5.18-5.09v-9.931"/>
        <path fill="#B2B2B2" d="M14.42 21.402v-6.686l10.36 2.85v9.566c-.073.002-.145.01-.22.01-3.395 0-8.782-5.329-8.782-5.329-.507 0-.97-.158-1.357-.411"/>
        <path fill="#C2CBD3" d="M23.742 25.834c3.613 0 6.542-3.034 6.542-6.776V10.06C30.284 4.504 25.936 0 20.572 0S10.86 4.504 10.86 10.06l.011.416c0 3.429.915 6.636 2.506 9.374a2.3 2.3 0 0 0 1.818.902s5.242 5.082 8.547 5.082"/>
        <path fill="#4015A8" d="M32.227 36.953v2.943h.087c.418-.04.827-.114 1.208-.224l-1.295-2.72zM10.849 46.763v8.661c0 1.37-2.331 2.086-4.772 2.15l-.073 1.015v13.493c0 1.133.776 2.082 1.82 2.33 1.957.145 3.965.183 5.95.113v-7.258l-2.925-20.504z"/>
    </g>
</svg>
