<svg xmlns="http://www.w3.org/2000/svg" width="38" height="55" viewBox="0 0 38 55">
    <g fill="none" fill-rule="evenodd">
        <path fill="#C2CBD3" d="M36.557 39.568v30.49c0 2.73-2.159 4.942-4.822 4.942h-2.063V39.262l6.885.306z"/>
        <path fill="#26D198" d="M5.93 58.52c-2.75.064-5.622-.66-5.622-2.17 0 0-.652-9.386.815-16.992 1.467-7.606 12.55-11.085 12.55-11.085l.404-.04c.35 2.462 2.48 4.356 5.056 4.356 2.82 0 5.107-2.27 5.107-5.071l-.034-.905 4.543-1.09s10.512-1.295 8.964 13.026c0 1.286-2.082 2.002-4.398 2.147l-.111 26.2c0 6.6-13.605 9.47-25.439 8.611a2.419 2.419 0 0 1-1.874-2.35V58.96l.04-.44z"/>
        <path fill="#FFF" d="M27.747 44.185l-1.705 2.948c.068.35.103.756.103 1.217 0 2.481-1.013 4.55-2.71 5.531-.708.41-1.305.495-1.755.26l5.908-10.216a2.59 2.59 0 0 0-.542-.585 2.182 2.182 0 0 0-.267-.175c-.011-.008-.024-.013-.036-.02-.028-.015-.054-.031-.082-.045l-.001.002c-.858-.424-1.96-.27-3.225.461-1.46.846-2.707 2.212-3.603 3.952-.843 1.637-1.307 3.5-1.307 5.246 0 1.16.206 2.133.59 2.85l1.715-2.964a6.8 6.8 0 0 1-.09-1.168c0-1.142.202-2.183.6-3.093.468-1.067 1.192-1.907 2.095-2.43.703-.407 1.288-.49 1.733-.274l-5.896 10.195a2.6 2.6 0 0 0 .56.616c.042.033.086.063.13.092v.001c.051.034.103.066.155.095l.02.012c.017.009.033.02.05.028l.002-.003c.858.443 1.97.295 3.246-.444 1.462-.846 2.71-2.214 3.61-3.956.849-1.64 1.316-3.505 1.316-5.25 0-1.178-.214-2.164-.614-2.883"/>
        <path fill="#C2CBD3" d="M14.262 15v12.93c0 2.818 2.349 5.103 5.246 5.103 2.897 0 5.246-2.285 5.246-5.104v-9.957"/>
        <path fill="#B2B2B2" d="M14.262 22.36v-6.704l10.492 2.858v9.59c-.075.003-.148.01-.223.01-3.439 0-8.895-5.342-8.895-5.342-.513 0-.982-.158-1.374-.413"/>
        <path fill="#C2CBD3" d="M23.702 26.803c3.66 0 6.626-3.042 6.626-6.794v-9.022c0-5.57-4.404-10.085-9.836-10.085-5.433 0-9.836 4.515-9.836 10.085l.012.418c0 3.438.926 6.653 2.537 9.398a2.337 2.337 0 0 0 1.841.905s5.31 5.095 8.656 5.095"/>
        <path fill="#0F7CE8" d="M32.295 37.95v2.952h.089c.423-.04.837-.114 1.223-.224l-1.312-2.727zM10.645 47.787v8.684c0 1.372-2.361 2.09-4.833 2.155l-.074 1.018v13.528c0 1.136.786 2.087 1.843 2.336 1.983.146 4.016.184 6.026.114v-7.278l-2.962-20.557z"/>
    </g>
</svg>
