<svg xmlns="http://www.w3.org/2000/svg" width="54" height="45" viewBox="0 0 54 45">
    <path fill="#98A7B4" fill-rule="evenodd" d="M26.019 23.749c-1.422 1.13-3.287 1.125-4.167-.014-.877-1.138-.437-2.979.985-4.11 1.423-1.13 3.288-1.123 4.165.015.88 1.137.439 2.977-.983 4.109zM27 15.75c-5.047 0-9 3.893-9 8.863 0 5.037 4.037 9.137 9 9.137s9-4.1 9-9.137c0-4.97-3.953-8.863-9-8.863zm22.5 6.75h-9.178C41.63 30.947 35.12 38.25 27 38.25c-8.127 0-14.627-7.308-13.322-15.75H4.5V11.25h11.408l4.5-6.75H33.59l4.5 6.75H49.5V22.5zm-9-15.75L36 0H18l-4.5 6.75H0V45h54V6.75H40.5z"/>
</svg>
