<svg xmlns="http://www.w3.org/2000/svg" width="25" height="23" viewBox="0 0 25 23">
    <path fill="#455D75" fill-rule="evenodd" d="M17.708 12.023a1.565 1.565 0 0 1-1.562-1.568c0-.867.7-1.569 1.562-1.569.864 0 1.563.702 1.563 1.569 0 .866-.7 1.568-1.563 1.568m-5.208 0a1.565 1.565 0 0 1-1.563-1.568c0-.867.7-1.569 1.563-1.569.864 0 1.563.702 1.563 1.569 0 .866-.7 1.568-1.563 1.568m-5.208 0a1.565 1.565 0 0 1-1.563-1.568c0-.867.7-1.569 1.563-1.569s1.562.702 1.562 1.569c0 .866-.699 1.568-1.562 1.568M12.5 0C5.898 0 0 4.418 0 10.462c0 2.143.77 4.248 2.132 5.88C2.19 18.257 1.067 21.003.056 23c2.71-.491 6.564-1.577 8.31-2.651C17.988 22.698 25 16.789 25 10.462 25 4.386 19.061 0 12.5 0"/>
</svg>
