<svg xmlns="http://www.w3.org/2000/svg" width="122" height="254" viewBox="0 0 122 254">
    <g fill="none" fill-rule="evenodd">
        <path fill="#DFE6EA" d="M52.135 223.96c-11.874-6.843-31.186-6.81-43.134.076-11.948 6.885-12.01 18.014-.135 24.857 11.875 6.84 31.184 6.805 43.132-.079 11.948-6.885 12.011-18.014.137-24.854"/>
        <path fill="#C2CBD3" d="M49.651 119.43v40.786c0 3.652-3.113 6.611-6.956 6.611H39.72v-47.804l9.93.408z"/>
        <path fill="#B2B2B2" d="M46.814 158.391c0 1.554-1.27 2.812-2.837 2.812"/>
        <path fill="#1A82FF" d="M7.811 145.179c-3.725.085-7.616-.888-7.616-2.92 0 0-.882-12.63 1.104-22.861 1.989-10.232 16.999-14.914 16.999-14.914l.545-.053c.477 3.312 3.36 5.86 6.851 5.86 3.82 0 6.917-3.054 6.917-6.823l-.048-1.217 6.155-1.466s14.237-1.742 12.141 17.524c0 1.732-2.82 2.695-5.956 2.889h-.153v35.248c0 8.882-18.426 12.744-34.453 11.587-1.458-.337-2.54-1.627-2.54-3.163v-19.1l.054-.591z"/>
        <path fill="#0C2033" d="M41.602 226.235a30.339 30.339 0 0 0 5.085 5.132 3.997 3.997 0 0 1 1.546 3.167c0 2.206-1.772 3.995-3.958 3.995-.175 0-.39.015-.559-.008-6.5-.466-12.306-3.474-16.443-8.043l-3.157-5.545 14.413-1.865 3.073 3.167z"/>
        <path fill="#000" d="M27.641 224.474l2.07 3.6a24.85 24.85 0 0 0 16.609 8.047c.172.023.39.008.562.008.478 0 .924-.097 1.35-.249a3.991 3.991 0 0 1-3.75 2.649c-.178 0-.396.015-.565-.008a24.843 24.843 0 0 1-16.612-8.045l-3.189-5.549 3.525-.453z"/>
        <path fill="#0C2033" d="M26.501 232.035a30.543 30.543 0 0 0 5.983 6.312 4.029 4.029 0 0 1 1.563 3.192c0 2.219-1.791 4.02-3.998 4.02-.177 0-.395.015-.562-.008-7.42-.529-13.936-4.325-18.138-9.968v-4.08"/>
        <path fill="#000" d="M13.777 231.586v1.58a25.164 25.164 0 0 0 18.34 9.97c.173.02.394.008.57.008.48 0 .931-.101 1.36-.25a4.03 4.03 0 0 1-3.788 2.665c-.179 0-.4.015-.568-.008a25.166 25.166 0 0 1-18.342-9.968v-4.08l2.428.083z"/>
        <path fill="#C2CBD3" d="M18.442 86.278v17.138c0 3.737 3.176 6.764 7.093 6.764 3.916 0 7.093-3.027 7.093-6.764V90.218"/>
        <path fill="#B2B2B2" d="M18.442 94.355v-9.077l14.186 3.871v12.987c-.102.002-.201.014-.3.014-4.652 0-12.03-7.234-12.03-7.234a3.383 3.383 0 0 1-1.856-.561"/>
        <path fill="#C2CBD3" d="M32.062 100.744c5.012 0 9.078-3.964 9.078-8.85V80.139C41.14 72.882 35.107 67 27.664 67c-7.443 0-13.478 5.882-13.478 13.14l.018.545c0 4.477 1.268 8.667 3.478 12.244.59.717 1.5 1.174 2.519 1.174 0 0 7.277 6.641 11.861 6.641"/>
        <path fill="#0F7CE8" d="M45.395 117.617v2.812h.17c.8-.038 1.58-.11 2.31-.215l-2.48-2.597z"/>
        <path fill="#455D75" d="M28.576 227.655c5.351 1.765 15.393.758 15.393-3.02V167.71l.008-7.913c-4.419 6.212-19.561 8.826-33.002 7.842a3.227 3.227 0 0 1-1.027-.438l-.018 7.916v55.335c0 5.152 18.668 5.152 18.668 0v-52.25"/>
        <path fill="#2E3F53" d="M9.93 166.827v62.685c0 1.694 1.82 2.825 4.256 3.398v-64.95l-4.256-1.133zM28.372 179.823v48.065c1.22.442 2.71.71 4.256.804v-52.023l-4.256 3.154z"/>
        <path fill="#0F7CE8" d="M14.17 130.27v11.83c0 1.87-3.403 2.85-6.968 2.936l-.109 1.386v18.429c0 1.545 1.132 2.843 2.659 3.182 2.86.198 5.793.248 8.69.155v-9.915L14.17 130.27z"/>
        <path fill="#C2CBD3" d="M12.56 182.625s1.626-.547 1.626-3.382c0-2.838-3.199-4.892-3.199-14.237v-20.113l-8.15-.562v36.202c0 4.078 3.18 7.384 7.098 7.384 1.796 0 3.255-1.514 3.255-3.382 0 0-.107-1.363-.63-1.91-.526-.547-2.152-3.763-2.203-4.801"/>
        <g>
            <path fill="#FFF" stroke="#C2CBD3" d="M85 1C65.119 1 49 14.092 49 30.247c0 9.393 5.451 17.75 13.92 23.1 2.604 6.5-3.249 12.024-9.426 13.509 6.813.585 18.933-.363 28.122-7.494C102.901 60.976 121 47.37 121 30.247 121 14.092 104.881 1 85 1"/>
            <path fill="#111D28" d="M76.32 17.018a15.947 15.947 0 0 1 1.835-1.315 14.402 14.402 0 0 1 2.132-1.078c.76-.31 1.578-.552 2.452-.726.874-.174 1.82-.26 2.839-.26 1.43 0 2.718.188 3.865.566 1.148.378 2.125.92 2.93 1.622a7.112 7.112 0 0 1 1.86 2.54c.433.991.65 2.091.65 3.301 0 1.165-.16 2.163-.48 2.995a8.153 8.153 0 0 1-1.22 2.177 9.223 9.223 0 0 1-1.619 1.6c-.585.445-1.14.865-1.665 1.258-.524.393-.98.78-1.368 1.157-.387.378-.627.802-.718 1.27l-.639 3.176H82.34l-.502-3.652a3.328 3.328 0 0 1-.046-.544c0-.666.16-1.248.48-1.747.319-.499.721-.956 1.208-1.372a18.633 18.633 0 0 1 1.573-1.203 14.222 14.222 0 0 0 1.574-1.247c.486-.446.89-.945 1.209-1.497.319-.552.479-1.206.479-1.962 0-.908-.3-1.63-.901-2.167-.6-.537-1.426-.805-2.475-.805-.805 0-1.478.083-2.018.25a8.158 8.158 0 0 0-1.39.555c-.389.204-.727.39-1.016.556-.289.166-.577.25-.866.25-.654 0-1.14-.28-1.46-.84l-1.87-2.858zm4.195 26.472c0-.545.103-1.051.308-1.52a3.84 3.84 0 0 1 .844-1.225c.357-.348.78-.624 1.266-.828a4.084 4.084 0 0 1 1.596-.306c.562 0 1.087.102 1.573.306.487.204.913.48 1.278.828a3.747 3.747 0 0 1 1.163 2.745c0 .544-.103 1.055-.308 1.531-.206.476-.49.888-.855 1.236s-.791.62-1.278.817a4.16 4.16 0 0 1-1.573.295c-.578 0-1.11-.099-1.596-.295a3.873 3.873 0 0 1-1.266-.817 3.808 3.808 0 0 1-.844-1.236 3.828 3.828 0 0 1-.308-1.531z"/>
        </g>
    </g>
</svg>
