<svg xmlns="http://www.w3.org/2000/svg" xmlns:xlink="http://www.w3.org/1999/xlink" width="108" height="111" viewBox="0 0 108 111">
    <defs>
        <path id="a" d="M0 .63h99.658V58H0z"/>
        <path id="c" d="M0 .318h99.658v37.145H0z"/>
        <path id="e" d="M0 .51h99.658v57.37H0z"/>
        <path id="g" d="M0 .51h99.658v57.37H0z"/>
    </defs>
    <g fill="none" fill-rule="evenodd">
        <path fill="#111D28" d="M20.389 102.715C10.8 97.195 6.009 89.955 6 82.698c-.008-7.33 4.864-14.677 14.608-20.287C40 51.246 71.341 51.19 90.611 62.284c9.588 5.52 14.381 12.76 14.389 20.018.01 7.33-4.864 14.677-14.608 20.287-19.391 11.165-50.733 11.222-70.003.126" opacity=".1"/>
        <path fill="#6E3BEA" d="M105 68v8.565c.01 7.263-4.864 14.543-14.607 20.101-19.392 11.063-50.734 11.12-70.004.125C10.802 91.322 6.01 84.148 6 76.957V68h99z"/>
        <path fill="#7A54EF" d="M20.389 88.716C10.8 83.196 6.009 75.955 6 68.698c-.008-7.33 4.864-14.677 14.608-20.287C40 37.246 71.341 37.189 90.611 48.285c9.588 5.52 14.381 12.76 14.389 20.017.01 7.33-4.864 14.678-14.608 20.287-19.391 11.165-50.733 11.221-70.003.127"/>
        <path fill="#6E3BEA" d="M56.19 90c-12.116 0-23.402-2.65-31.779-7.46C17.06 78.32 13.007 73.045 13 67.69c-.006-5.352 4.234-10.858 11.63-15.105C33.148 47.694 44.576 45 56.811 45c12.116 0 23.403 2.65 31.78 7.46C95.941 56.68 99.993 61.955 100 67.31c.007 5.352-4.232 10.857-11.628 15.105C79.852 87.306 68.424 90 56.19 90"/>
        <path fill="#5028CE" d="M24.63 54.031c8.518-5.044 19.946-7.822 32.181-7.822 12.116 0 23.403 2.732 31.78 7.692 7.082 4.195 11.092 9.397 11.381 14.709.011-.201.028-.403.028-.605-.006-5.521-4.058-10.96-11.41-15.314C80.214 47.732 68.927 45 56.811 45c-12.235 0-23.663 2.778-32.18 7.822C17.233 57.202 12.993 62.878 13 68.397c0 .202.017.402.029.603.291-5.326 4.475-10.75 11.601-14.969"/>
        <path fill="#FFF" d="M77 57l-1.154.353L50 71.901l.002.296L69.167 75zM76 57l-32 4.353L48.984 72l12.553-6.97zM46.823 75l-.329.016-9.211 4.689L37 80l29-2.458z"/>
        <path fill="#FFF" d="M37 80l10-5.76L41.923 63zM50 73.158L69 76l-6.562-10zM44 62l4.832 11L61 65.8z"/>
        <g transform="translate(0 40)">
            <mask id="b" fill="#fff">
                <use xlink:href="#a"/>
            </mask>
            <path fill="#111D28" d="M14.484 49.662C4.834 44.106.008 36.819 0 29.514c-.008-7.377 4.896-14.772 14.705-20.418 19.52-11.237 51.07-11.294 70.468-.127 9.652 5.556 14.477 12.842 14.485 20.147.009 7.377-4.897 14.772-14.705 20.419-19.52 11.237-51.07 11.294-70.469.127" mask="url(#b)" opacity=".1"/>
        </g>
        <g transform="translate(0 56)">
            <mask id="d" fill="#fff">
                <use xlink:href="#c"/>
            </mask>
            <path fill="#6E3BEA" d="M99.658.318v8.599c.009 7.29-4.896 14.6-14.705 20.18-19.52 11.105-51.07 11.162-70.468.125C4.834 23.732.008 16.53 0 9.31V.318h99.658z" mask="url(#d)"/>
        </g>
        <g transform="translate(0 26)">
            <mask id="f" fill="#fff">
                <use xlink:href="#e"/>
            </mask>
            <path fill="#7A54EF" d="M14.484 49.541C4.834 43.986.008 36.698 0 29.394c-.008-7.377 4.896-14.772 14.705-20.419 19.52-11.237 51.07-11.294 70.468-.127 9.652 5.556 14.477 12.843 14.485 20.148.009 7.377-4.897 14.772-14.705 20.418-19.52 11.237-51.07 11.294-70.469.127" mask="url(#f)"/>
        </g>
        <path fill="#6E3BEA" d="M49.19 78c-12.116 0-23.402-2.65-31.779-7.46C10.06 66.32 6.007 61.045 6 55.69c-.006-5.352 4.234-10.858 11.63-15.105C26.148 35.694 37.576 33 49.811 33c12.116 0 23.403 2.65 31.78 7.46C88.941 44.68 92.993 49.955 93 55.31c.007 5.352-4.232 10.857-11.628 15.105C72.852 75.306 61.424 78 49.19 78"/>
        <path fill="#5028CE" d="M17.63 42.031c8.518-5.044 19.946-7.822 32.181-7.822 12.116 0 23.403 2.732 31.78 7.692 7.082 4.195 11.092 9.397 11.381 14.709.011-.201.028-.403.028-.605-.006-5.521-4.058-10.96-11.41-15.314C73.214 35.732 61.927 33 49.811 33c-12.235 0-23.663 2.778-32.18 7.822C10.233 45.202 5.993 50.878 6 56.397c0 .202.017.402.029.603.291-5.326 4.475-10.75 11.601-14.969"/>
        <path fill="#FFF" d="M71 44l-1.154.353L44 58.901l.002.296L63.167 62zM70 44l-32 4.353L42.984 59l12.553-6.97zM40.823 61l-.329.016-9.211 4.689L31 66l29-2.458z"/>
        <path fill="#FFF" d="M31 67l10-5.76L35.923 50zM44 60.158L63 63l-6.562-10zM38 49l4.832 11L55 52.8z"/>
        <path fill="#111D28" d="M20.389 75.715C10.8 70.195 6.009 62.955 6 55.698c-.008-7.33 4.864-14.677 14.608-20.287C40 24.246 71.341 24.19 90.611 35.284c9.588 5.52 14.381 12.76 14.389 20.018.01 7.33-4.864 14.677-14.608 20.287-19.391 11.165-50.733 11.222-70.003.126" opacity=".1"/>
        <path fill="#6E3BEA" d="M105 43v8.565c.01 7.263-4.864 14.543-14.607 20.101C71 82.73 39.659 82.786 20.389 71.791 10.802 66.322 6.01 59.148 6 51.957V43h99z"/>
        <path fill="#7A54EF" d="M20.389 62.716C10.8 57.196 6.009 49.955 6 42.698c-.008-7.33 4.864-14.677 14.608-20.287C40 11.246 71.341 11.189 90.611 22.285c9.588 5.52 14.381 12.76 14.389 20.017.01 7.33-4.864 14.678-14.608 20.287-19.391 11.165-50.733 11.221-70.003.127"/>
        <path fill="#6E3BEA" d="M56.19 65c-12.116 0-23.402-2.65-31.779-7.46C17.06 53.32 13.007 48.045 13 42.69c-.006-5.352 4.234-10.858 11.63-15.105C33.148 22.694 44.576 20 56.811 20c12.116 0 23.403 2.65 31.78 7.46C95.941 31.68 99.993 36.955 100 42.31c.007 5.352-4.232 10.857-11.628 15.105C79.852 62.306 68.424 65 56.19 65"/>
        <path fill="#5028CE" d="M24.63 29.031c8.518-5.044 19.946-7.822 32.181-7.822 12.116 0 23.403 2.732 31.78 7.692 7.082 4.195 11.092 9.397 11.381 14.709.011-.201.028-.403.028-.605-.006-5.521-4.058-10.96-11.41-15.314C80.214 22.732 68.927 20 56.811 20c-12.235 0-23.663 2.778-32.18 7.822C17.233 32.202 12.993 37.878 13 43.397c0 .202.017.402.029.603.291-5.326 4.475-10.75 11.601-14.969"/>
        <path fill="#FFF" d="M77 31l-1.154.353L50 45.901l.002.296L69.167 49zM76 31l-32 4.353L48.984 46l12.553-6.97zM46.823 48l-.329.016-9.211 4.689L37 53l29-2.458z"/>
        <path fill="#FFF" d="M37 54l10-5.76L41.923 37zM50 46.158L69 49l-6.562-10zM44 35l4.832 11L61 38.8z"/>
        <path fill="#111D28" d="M22.389 63.715C12.8 58.195 8.009 50.955 8 43.698c-.008-7.33 4.864-14.677 14.608-20.287C42 12.246 73.341 12.19 92.611 23.284c9.588 5.52 14.381 12.76 14.389 20.018.01 7.33-4.864 14.677-14.608 20.287-19.391 11.165-50.733 11.222-70.003.126" opacity=".1"/>
        <path fill="#6E3BEA" d="M107 29v8.565c.01 7.263-4.864 14.543-14.607 20.101C73 68.73 41.659 68.786 22.389 57.791 12.802 52.322 8.01 45.148 8 37.957V29h99z"/>
        <g transform="translate(8)">
            <mask id="h" fill="#fff">
                <use xlink:href="#g"/>
            </mask>
            <path fill="#7A54EF" d="M14.484 49.541C4.834 43.986.008 36.698 0 29.394c-.008-7.377 4.896-14.772 14.705-20.419 19.52-11.237 51.07-11.294 70.468-.127 9.652 5.556 14.477 12.843 14.485 20.148.009 7.377-4.897 14.772-14.705 20.418-19.52 11.237-51.07 11.294-70.469.127" mask="url(#h)"/>
        </g>
        <path fill="#6E3BEA" d="M58.19 51c-12.116 0-23.402-2.65-31.779-7.46C19.06 39.32 15.007 34.045 15 28.69c-.006-5.352 4.234-10.858 11.63-15.105C35.148 8.694 46.576 6 58.811 6c12.116 0 23.403 2.65 31.78 7.46 7.351 4.221 11.403 9.495 11.409 14.85.007 5.352-4.232 10.857-11.628 15.105C81.852 48.306 70.424 51 58.19 51"/>
        <path fill="#5028CE" d="M26.63 15.031C35.148 9.987 46.576 7.21 58.811 7.21c12.116 0 23.403 2.732 31.78 7.692 7.082 4.195 11.092 9.397 11.381 14.709.011-.201.028-.403.028-.605-.006-5.521-4.058-10.96-11.41-15.314C82.214 8.732 70.927 6 58.811 6c-12.235 0-23.663 2.778-32.18 7.822C19.233 18.202 14.993 23.878 15 29.397c0 .202.017.402.029.603.291-5.326 4.475-10.75 11.601-14.969"/>
        <path fill="#FFF" d="M79 18l-1.154.353L52 32.901l.002.296L71.167 36zM78 18l-32 4.353L50.984 33l12.553-6.97zM49.823 35l-.329.016-9.211 4.689L40 40l29-2.458z"/>
        <path fill="#FFF" d="M40 41l10-5.76L44.923 24zM52 33.158L71 36l-6.562-10z"/>
        <path fill="#FFF" d="M46 23l4.832 11L63 26.8z"/>
    </g>
</svg>
