<svg xmlns="http://www.w3.org/2000/svg" width="14" height="12" viewBox="0 0 14 12">
    <path fill="#FFF" fill-rule="evenodd" d="M14.033 5.778s-2.484 4.343-7.001 4.343a6.38 6.38 0 0 1-2.25-.43l.943-.923a5 5 0 0 0 1.307.187c2.799 0 4.734-2.056 5.552-3.127a8.939 8.939 0 0 0-2.096-1.721l.87-.851c1.742 1.107 2.675 2.522 2.675 2.522zM6.267 8.24L9.24 5.328c.594 1.814-1.17 3.537-2.973 2.912zM7.95 3.907C6.03 3.06 4.048 5.019 4.875 6.942l-1.008.995c-1.06-.676-1.884-1.545-2.372-2.134.872-.96 2.814-2.678 5.537-2.678.541 0 1.05.07 1.525.184l-.606.598zM11.465.538L9.511 2.367a7.733 7.733 0 0 0-2.479-.408C2.61 1.96.013 5.78.013 5.78S1.14 7.498 3.02 8.773l-1.7 1.696.826.824 10.147-9.931-.827-.825z"/>
</svg>
