<svg xmlns="http://www.w3.org/2000/svg" xmlns:xlink="http://www.w3.org/1999/xlink" width="128" height="197" viewBox="0 0 128 197">
    <defs>
        <path id="a" d="M25.826 29.003h25.826V0H0v29.003z"/>
    </defs>
    <g fill="none" fill-rule="evenodd">
        <path fill="#000" fill-opacity=".1" d="M96.612 104.922c3.184 1.795 3.184 4.733 0 6.528l-41.156 23.203c-3.185 1.796-8.396 1.796-11.58 0l-41.488-23.39c-3.184-1.795-3.184-4.733 0-6.528L43.545 81.53c3.184-1.795 8.395-1.795 11.58 0l41.487 23.39z"/>
        <path fill="#3E9FFF" d="M96.481 31.647l.022-.035-.022.035m.256-.439l.004-.009a.128.128 0 0 0-.004.01m-.588.862c.019-.02.032-.042.05-.063-.018.021-.031.043-.05.063m-94.607.414c-.071-.056-.148-.11-.214-.167.067.057.143.111.214.167M.934 31.935c.034.038.075.073.112.11-.036-.037-.078-.072-.112-.11m-.279-.34L.61 31.54c.014.02.03.037.045.056m-.29-.448l-.01-.016.01.016m95.004 1.623c-.038.028-.072.06-.112.087.04-.028.074-.059.112-.087m.457-.378c-.03.028-.054.057-.086.083.032-.026.056-.056.086-.083m-1.125-5.704L54.03 3.31c-3.121-1.794-8.23-1.794-11.351 0L2.335 26.501c-1.6.92-2.375 2.141-2.333 3.353v57.418c.038 1.153.812 2.3 2.333 3.173l40.67 23.377c1.56.897 3.617 1.346 5.674 1.346 2.058 0 4.116-.449 5.677-1.346L94.7 90.632c1.604-.922 2.377-2.145 2.333-3.36V30.048c.044-1.215-.73-2.438-2.333-3.36"/>
        <path fill="#0975CE" d="M49.5 56.968c-2.092 0-4.183-.455-5.77-1.364L2.373 31.909C.826 31.024.04 29.862 0 28.694v58.2c.04 1.167.826 2.33 2.373 3.215l41.357 23.695c1.587.909 3.678 1.364 5.77 1.364v-58.2z"/>
        <path fill="#1A82FF" d="M49.5 56.968c2.107 0 4.213-.454 5.811-1.364L96.61 32.098c1.641-.934 2.433-2.173 2.388-3.404v58.2c.045 1.23-.747 2.47-2.388 3.404L55.31 113.804c-1.598.91-3.704 1.364-5.811 1.364v-58.2z"/>
        <path fill="#3E9FFF" d="M96.014 25.913c3.164 1.856 3.164 4.892 0 6.748L55.113 56.647c-3.166 1.856-8.344 1.856-11.509 0L2.374 32.468c-3.165-1.856-3.165-4.892 0-6.748L43.274 1.734c3.165-1.856 8.343-1.856 11.508 0l41.23 24.179z"/>
        <path fill="#FFF" d="M72.183 29.47l-.005-1.024-5.514.03-.073-1.422-1.792-.002.078 2.444 7.306-.026zm1.651 2.236c-3.187 1.82-8.372 1.812-11.58-.02-3.207-1.834-3.223-4.796-.036-6.617 3.188-1.821 8.373-1.811 11.58.02 3.208 1.833 3.223 4.795.036 6.617zM60.367 33.5l-3.294 1.882c-5.267 3.01-10.895-2.624-10.895-2.624s-5.737 5.516-11.101 2.451l-9.502-5.428 25.653-14.656 12.26 7.005a19.672 19.672 0 0 1 4.265-.495L51.21 12.185 20.429 29.773l13.15 7.513c4.083 2.332 21.928 1.942 24.994.19l4.984-2.848a15.2 15.2 0 0 1-3.19-1.127zm-11.68-12.499l8.389 4.793c.237-.333.535-.655.87-.968l-7.977-4.558-1.283.733zm7.522 7.229L46.12 22.467l-1.283.733 11.677 6.671a4.07 4.07 0 0 1-.306-1.64zm-13.936-3.565L55.18 32.04l-1.283.733-12.906-7.374 1.282-.733z"/>
        <g>
            <path fill="#000" fill-opacity=".1" d="M125.612 166.011c3.184 1.79 3.184 4.72 0 6.51l-41.156 23.136c-3.185 1.79-8.396 1.79-11.58 0l-41.488-23.322c-3.184-1.79-3.184-4.72 0-6.51l41.157-23.137c3.184-1.79 8.395-1.79 11.58 0l41.487 23.323z"/>
            <path fill="#3E9FFF" d="M125.1 93.154c.008-.012.014-.025.022-.036-.008.011-.014.024-.022.036m.255-.441l.004-.01a.129.129 0 0 0-.004.01m-.587.866c.02-.02.033-.042.051-.063-.018.021-.032.043-.05.063m-94.233.416c-.07-.056-.147-.11-.213-.168.066.057.142.112.213.168m-.606-.552c.034.038.075.073.111.11-.035-.037-.077-.072-.111-.11m-.278-.342l-.045-.056.045.056m-.289-.45c-.002-.005-.006-.01-.01-.015.004.005.008.01.01.015m94.63 1.63c-.04.028-.072.06-.112.087.04-.028.073-.059.111-.087m.455-.38c-.03.028-.054.057-.085.084.031-.027.055-.056.085-.084m-1.12-5.727l-40.51-23.471c-3.108-1.802-8.196-1.802-11.306 0L31.326 87.987c-1.595.923-2.366 2.15-2.324 3.366v57.65c.038 1.158.809 2.308 2.324 3.186l40.509 23.472c1.554.9 3.602 1.35 5.652 1.35 2.05 0 4.1-.45 5.654-1.35l40.185-23.284c1.598-.926 2.368-2.154 2.324-3.374V91.548c.044-1.22-.726-2.448-2.324-3.374"/>
            <path fill="#1B2835" d="M78.304 118.324c-2.083 0-4.166-.456-5.747-1.367L31.364 93.224c-1.54-.887-2.325-2.051-2.364-3.221v58.296c.04 1.17.823 2.333 2.364 3.22l41.193 23.735c1.58.91 3.664 1.366 5.747 1.366v-58.296z"/>
            <path fill="#233342" d="M78.304 118.324c2.099 0 4.197-.455 5.789-1.367l41.135-23.544c1.635-.935 2.424-2.177 2.379-3.41v58.296c.045 1.233-.744 2.474-2.379 3.41l-41.135 23.545c-1.592.91-3.69 1.366-5.789 1.366v-58.296z"/>
            <path fill="#455D75" d="M125.07 86.913c3.167 1.855 3.167 4.892 0 6.748l-40.925 23.986c-3.167 1.855-8.348 1.855-11.515 0L31.375 93.468c-3.167-1.856-3.167-4.893 0-6.748L72.3 62.734c3.166-1.856 8.348-1.856 11.515 0l41.255 24.179z"/>
            <g transform="translate(56 73.15)">
                <mask id="b" fill="#fff">
                    <use xlink:href="#a"/>
                </mask>
                <path fill="#FFF" d="M13.619 6.77L9.201 4.287l2.374-1.332 4.412 2.477c-.422.202-.846.407-1.256.637-.403.227-.761.463-1.112.7zM9.311 11.49l-5.935-1.273 1.186-1.764 5.893 1.264c-.448.59-.816 1.184-1.144 1.773zm24.814 11.69l2.448 3.227-3.094.732-2.522-3.324c1.052-.18 2.115-.39 3.168-.635zM21.031 3.739L20 .302 23.322 0l.97 3.251a27.147 27.147 0 0 0-3.26.488zm23.722 6.36l5.153-.864.982 1.81-5.17.868a7.732 7.732 0 0 0-.965-1.814zm1.107 5.263l5.792.544-.538 1.864-6.123-.577a6.31 6.31 0 0 0 .87-1.83zM30.435 3.33L31.98.43l3.224.55-1.538 2.892a31.409 31.409 0 0 0-3.231-.542zm8.754 2.401l3.385-1.9 2.387 1.34-3.398 1.907a17.461 17.461 0 0 0-2.374-1.347zm7.2 16.773l-2.374 1.333-4.418-2.481c.42-.197.84-.398 1.244-.625.41-.23.773-.467 1.133-.704l4.412 2.478.002-.001zm-8.159-3.238c-6.174 3.466-15.944 2.67-20.815 5.404l-9.7-5.446c4.872-2.735 3.453-8.221 9.627-11.687 6.44-3.616 15.203-2.676 20.423.255 5.224 2.933 6.902 7.86.465 11.474zM7.833 29.003L0 24.605l.715 1.92c.03.285.284.584.694.813l1.557.875c.407.229.941.373 1.448.39l3.419.4zm3.024-2.187l-6.963-3.91c-.48-.27-1.257-.27-1.735-.003-.477.268-.475.705.006.975l6.963 3.91c.48.269 1.257.27 1.735.002.477-.267.474-.704-.006-.974zm3.46-1.943l-6.963-3.909c-.48-.27-1.258-.271-1.735-.003-.478.268-.475.704.005.974l6.963 3.91c.48.27 1.258.27 1.735.003.478-.269.476-.705-.005-.975z" mask="url(#b)"/>
            </g>
        </g>
    </g>
</svg>
