<svg xmlns="http://www.w3.org/2000/svg" width="27" height="29" viewBox="0 0 27 29">
    <path fill="#F7F8F9" fill-rule="evenodd" d="M9.686 28.394c0-.447-.017-1.926-.027-3.493-5.216 1.134-6.318-2.211-6.318-2.211-.854-2.167-2.083-2.744-2.083-2.744-1.705-1.163.13-1.14.13-1.14 1.883.13 2.874 1.932 2.874 1.932 1.674 2.867 4.392 2.038 5.46 1.558.17-1.21.655-2.038 1.19-2.506-4.164-.473-8.545-2.083-8.545-9.271 0-2.05.732-3.721 1.93-5.035-.192-.476-.837-2.385.185-4.966 0 0 1.573-.504 5.159 1.923 1.495-.418 3.1-.624 4.694-.63 1.594.006 3.2.215 4.697.632C22.611.014 24.186.52 24.186.52c1.026 2.584.38 4.49.188 4.964 1.202 1.314 1.928 2.985 1.928 5.035 0 7.206-4.387 8.793-8.566 9.258.675.581 1.273 1.722 1.273 3.471 0 2.508-.025 4.53-.025 5.148 0 .499-9.298.492-9.298-.002z"/>
</svg>
