<?xml version="1.0" encoding="utf-8"?>
<!-- Generator: Adobe Illustrator 15.0.0, SVG Export Plug-In . SVG Version: 6.00 Build 0)  -->
<!DOCTYPE svg PUBLIC "-//W3C//DTD SVG 1.1//EN" "http://www.w3.org/Graphics/SVG/1.1/DTD/svg11.dtd">
<svg version="1.1" id="Layer_1" xmlns="http://www.w3.org/2000/svg" xmlns:xlink="http://www.w3.org/1999/xlink"
	 width="360" height="249" viewBox="0 0 360 249"  xml:space="preserve">
<rect x="0" y="0" fill="#C2CBD3" width="360" height="249"/>
<path fill="#98A7B4" d="M185.77,132.249c-1.422,1.13-3.287,1.125-4.168-0.015c-0.877-1.137-0.437-2.979,0.985-4.109
	c1.423-1.13,3.288-1.123,4.165,0.016C187.632,129.277,187.191,131.117,185.77,132.249z M186.75,124.25c-5.047,0-9,3.893-9,8.863
	c0,5.037,4.037,9.137,9,9.137s9-4.1,9-9.137C195.75,128.143,191.797,124.25,186.75,124.25z M209.25,131h-9.178
	c1.308,8.447-5.202,15.75-13.322,15.75c-8.127,0-14.627-7.309-13.322-15.75h-9.178v-11.25h11.408l4.5-6.75h13.182l4.5,6.75h11.41
	V131z M200.25,115.25l-4.5-6.75h-18l-4.5,6.75h-13.5v38.25h54v-38.25H200.25z"/>
</svg>
