<svg xmlns="http://www.w3.org/2000/svg" xmlns:xlink="http://www.w3.org/1999/xlink" width="219" height="198" viewBox="0 0 219 198">
    <defs>
        <path id="a" d="M0 .72h172.641v99.675H.001z"/>
    </defs>
    <g fill="none" fill-rule="evenodd">
        <g transform="translate(0 97.11)">
            <mask id="b" fill="#fff">
                <use xlink:href="#a"/>
            </mask>
            <path fill="#000" d="M74.065 1.246l97.666 56.388c.601.347.905.8.91 1.253.006.457-.292.916-.895 1.264l-68.81 39.727c-1.2.693-3.152.689-4.36-.009L.91 43.482c-.601-.348-.906-.803-.909-1.258-.003-.456.295-.912.897-1.26L69.705 1.239c1.2-.693 3.152-.69 4.36.008" mask="url(#b)"/>
        </g>
        <path fill="#A5B3C4" d="M174.964 143.028l1.61-.93c.381-.231.617-.712.617-1.39V61.252c0-1.386-.979-3.074-2.187-3.772L77.337 1.094c-.6-.348-1.145-.384-1.54-.16l-1.61.928 100.777 141.166z"/>
        <path fill="#0C2033" d="M73.541 82.724c0 1.386.98 3.074 2.187 3.771l97.666 56.388c.616.356 1.172.385 1.57.144.382-.23.617-.711.617-1.39V62.181c0-1.386-.979-3.074-2.187-3.771L75.728 2.023c-.602-.347-1.146-.383-1.542-.16-.398.224-.645.711-.645 1.407v79.454z"/>
        <path fill="#1A82FF" d="M168.84 63.308L80.282 12.18v69.418l88.556 51.128z"/>
        <path fill="#6F8294" d="M0 122.502v4.209c.004.454.307.91.91 1.257l97.666 56.388c1.208.697 3.16.7 4.36.008l68.81-39.728c.602-.347.901-.805.895-1.263v-4.208L.001 122.502z"/>
        <path fill="#C2CBD3" d="M74.065 81.524l11.905 6.873-2.087 1.205c-.87.501-.865 1.317.01 1.821l70.692 40.814c.874.505 2.286.508 3.155.006l2.087-1.204 11.904 6.873c.601.347.905.8.91 1.253.006.457-.292.915-.895 1.264l-68.81 39.726c-1.2.693-3.152.69-4.36-.007L.91 123.76c-.601-.348-.906-.803-.909-1.258-.003-.456.295-.912.897-1.26l68.808-39.727c1.2-.692 3.152-.689 4.36.009"/>
        <path fill="#98A7B4" d="M34.281 137.401c-.423.245-.42.643.005.89l39.123 22.586c.426.247 1.116.248 1.539.003l20.677-11.938c.425-.244.422-.642-.004-.888l-39.123-22.588c-.426-.246-1.115-.248-1.54-.003l-20.677 11.938z"/>
        <path fill="#0C2033" d="M141.245 141.004c-.272.157-.271.416.003.574l3.74 2.158c.273.16.72.16.993.003l3.716-2.145c.273-.158.271-.416-.004-.574l-3.739-2.16c-.274-.157-.721-.158-.994 0l-3.715 2.144zM135.013 137.406c-.272.158-.27.416.003.574l3.739 2.159c.274.158.722.16.994.002l3.716-2.145c.273-.157.272-.416-.003-.574l-3.739-2.16c-.274-.157-.721-.158-.994 0l-3.716 2.144zM128.782 133.809c-.273.157-.271.415.003.574l3.738 2.158c.275.158.722.159.995.002l3.715-2.145c.274-.158.272-.416-.003-.574l-3.739-2.159c-.274-.158-.722-.159-.994-.001l-3.715 2.145zM122.55 130.21c-.272.158-.27.417.003.575l3.739 2.158c.274.158.721.159.993.002l3.717-2.145c.272-.158.27-.416-.003-.574l-3.74-2.159c-.273-.158-.721-.159-.993-.001l-3.716 2.145zM116.318 126.613c-.272.157-.27.416.003.574l3.74 2.158c.273.158.72.159.993.002l3.716-2.145c.273-.158.271-.416-.004-.573l-3.738-2.16c-.275-.158-.722-.159-.994-.001l-3.716 2.145zM110.087 123.015c-.272.157-.272.416.003.574l3.739 2.158c.273.158.721.16.993.003l3.716-2.145c.273-.158.272-.416-.003-.574l-3.739-2.16c-.274-.158-.721-.158-.994-.001l-3.715 2.145zM103.855 119.417c-.273.157-.271.416.003.574l3.739 2.158c.274.16.721.16.994.003l3.715-2.145c.274-.158.272-.416-.003-.574l-3.738-2.16c-.275-.158-.722-.158-.995-.001l-3.715 2.145zM97.623 115.819c-.272.157-.27.416.004.574l3.738 2.158c.274.16.722.16.994.003l3.716-2.145c.272-.158.272-.416-.003-.574l-3.74-2.16c-.273-.158-.721-.158-.993-.001l-3.716 2.145zM91.391 112.221c-.272.158-.27.416.004.574l3.739 2.159c.274.158.721.159.993.001l3.716-2.145c.273-.157.271-.415-.003-.574l-3.74-2.158c-.273-.158-.72-.159-.993-.002l-3.716 2.145zM85.16 108.624c-.272.157-.27.415.003.573l3.74 2.159c.273.158.72.159.993.001l3.716-2.145c.272-.157.27-.415-.004-.573l-3.739-2.159c-.274-.158-.721-.159-.994-.001l-3.715 2.145zM78.928 105.026c-.272.157-.27.415.003.574l3.739 2.158c.274.158.722.159.994.001l3.715-2.145c.274-.157.272-.415-.003-.573l-3.738-2.159c-.274-.158-.722-.159-.994-.001l-3.716 2.145zM72.697 101.428c-.273.157-.271.416.003.574l3.738 2.158c.275.158.722.16.995.002l3.715-2.145c.273-.157.272-.415-.003-.574l-3.739-2.159c-.274-.158-.722-.159-.994-.001l-3.715 2.145zM63.972 96.39c-.272.158-.27.416.003.575l6.232 3.597c.275.16.721.16.993.003l3.716-2.145c.273-.158.271-.416-.002-.575l-6.233-3.598c-.273-.158-.721-.159-.993-.001l-3.716 2.145zM147.438 137.429c-.272.157-.27.416.003.574l3.739 2.158c.273.158.722.16.993.002l1.24-.715c.272-.157.27-.415-.003-.574l-3.74-2.158c-.274-.16-.721-.16-.994-.003l-1.238.716zM141.009 133.717c-.272.158-.27.416.003.574l3.739 2.159c.273.158.721.158.993.001l1.24-.715c.272-.157.27-.415-.003-.574l-3.74-2.158c-.274-.159-.721-.16-.994-.002l-1.238.715zM134.58 130.005c-.272.157-.27.416.003.574l3.739 2.159c.274.158.721.16.993.002l1.24-.716c.272-.157.27-.415-.003-.574l-3.74-2.158c-.274-.158-.721-.159-.994-.002l-1.238.715zM128.15 126.293c-.272.158-.27.416.004.574l3.739 2.159c.274.158.721.16.993.002l1.24-.715c.272-.158.27-.415-.004-.574l-3.739-2.159c-.274-.158-.72-.16-.994-.002l-1.239.715zM121.721 122.582c-.272.157-.27.416.004.574l3.739 2.158c.274.158.721.159.993.002l1.24-.715c.272-.157.27-.415-.004-.574l-3.739-2.158c-.274-.16-.72-.16-.994-.003l-1.239.716zM115.292 118.87c-.272.157-.27.415.004.574l3.739 2.158c.274.159.721.16.994.002l1.238-.715c.273-.157.272-.416-.003-.574l-3.739-2.158c-.274-.159-.72-.16-.994-.002l-1.239.715zM108.863 115.158c-.272.157-.27.416.004.574l3.739 2.158c.274.16.721.16.994.003l1.238-.716c.273-.157.271-.415-.003-.574l-3.74-2.158c-.273-.158-.72-.16-.993-.002l-1.239.715zM102.435 111.446c-.273.158-.271.416.003.574l3.739 2.159c.274.158.721.159.994.001l1.238-.715c.273-.157.271-.415-.003-.573l-3.74-2.159c-.273-.159-.72-.16-.993-.002l-1.238.715zM96.006 107.735c-.273.157-.271.415.003.574l3.738 2.158c.275.158.722.159.995.002l1.239-.715c.272-.158.27-.415-.004-.574l-3.74-2.159c-.273-.158-.72-.16-.993-.002l-1.238.716zM89.577 104.023c-.273.157-.271.415.003.573l3.738 2.159c.275.159.722.16.995.002l1.239-.715c.272-.158.27-.415-.004-.573l-3.74-2.16c-.273-.158-.72-.159-.993-.001l-1.238.715zM83.148 100.31c-.273.158-.271.417.003.575l3.738 2.158c.275.158.722.16.995.003l1.239-.716c.272-.157.27-.415-.004-.574l-3.74-2.158c-.274-.158-.72-.16-.993-.003l-1.238.716zM76.719 96.6c-.273.157-.272.415.003.573l3.738 2.159c.274.158.722.158.994.001l1.24-.715c.272-.157.27-.415-.004-.574l-3.74-2.158c-.274-.159-.72-.16-.993-.002l-1.238.715zM70.165 92.815c-.272.158-.271.416.003.574l3.988 2.303c.275.158.722.16.994.002l1.239-.716c.273-.157.271-.415-.003-.574l-3.989-2.302c-.274-.159-.72-.16-.994-.002l-1.238.715zM132.56 143.14c-.273.158-.271.416.002.574l6.232 3.598c.275.158.722.159.994.002l3.715-2.145c.274-.158.272-.416-.002-.574l-6.232-3.598c-.274-.158-.721-.159-.994-.001l-3.716 2.145zM126.328 139.543c-.273.157-.271.415.003.573l3.738 2.159c.275.158.723.16.995.001l3.715-2.145c.274-.157.272-.415-.003-.573l-3.739-2.159c-.274-.158-.721-.159-.994-.001l-3.715 2.145zM120.096 135.945c-.272.157-.27.416.003.574l3.739 2.158c.274.158.721.16.994.002l3.716-2.145c.273-.157.272-.415-.003-.574l-3.739-2.159c-.274-.158-.722-.159-.994-.001l-3.716 2.145zM113.864 132.347c-.272.157-.27.416.004.574l3.738 2.158c.275.159.722.16.994.002l3.716-2.145c.273-.157.271-.415-.003-.574l-3.74-2.159c-.273-.158-.72-.159-.993-.001l-3.716 2.145zM107.633 128.749c-.272.157-.27.416.003.574l3.739 2.158c.274.16.721.16.993.003l3.717-2.146c.272-.157.27-.415-.004-.573l-3.739-2.16c-.274-.158-.721-.158-.993-.001l-3.716 2.145zM101.401 125.151c-.272.158-.271.416.003.574l3.74 2.159c.273.158.72.159.993.001l3.716-2.145c.273-.157.271-.416-.004-.574l-3.738-2.158c-.275-.158-.722-.16-.995-.002l-3.715 2.145zM95.17 121.553c-.273.158-.272.416.003.574l3.738 2.159c.274.158.722.159.994.001l3.716-2.145c.273-.157.272-.416-.003-.573l-3.739-2.16c-.274-.157-.721-.158-.994 0l-3.715 2.144zM88.938 117.956c-.273.157-.271.415.003.573l3.739 2.159c.274.158.721.16.994.001l3.715-2.145c.273-.157.272-.415-.003-.573l-3.74-2.159c-.273-.158-.72-.159-.993-.002l-3.715 2.146zM82.706 114.358c-.272.157-.27.415.004.573l3.738 2.159c.274.158.722.16.994.002l3.716-2.145c.272-.157.271-.416-.003-.574l-3.74-2.159c-.273-.158-.721-.159-.993-.001l-3.716 2.145zM76.474 110.76c-.272.157-.27.415.003.574l3.74 2.158c.273.159.721.16.993.002l3.716-2.145c.273-.157.271-.416-.004-.574l-3.738-2.159c-.274-.158-.722-.159-.994-.001l-3.716 2.145zM70.243 107.162c-.273.157-.271.416.003.574l3.738 2.158c.275.159.723.16.995.002l3.715-2.145c.273-.157.272-.415-.003-.574l-3.739-2.159c-.274-.158-.721-.159-.994-.001l-3.715 2.145zM64.011 103.564c-.272.158-.271.416.003.574l3.739 2.159c.274.158.721.158.994.001l3.715-2.145c.274-.157.272-.416-.003-.574l-3.738-2.158c-.274-.158-.722-.16-.994-.002l-3.716 2.145zM57.779 99.966c-.272.158-.27.416.004.574l3.738 2.159c.275.158.722.158.995.001l3.715-2.145c.273-.157.271-.416-.003-.573l-3.74-2.16c-.273-.157-.721-.158-.993 0l-3.716 2.144zM125.12 145.996c-.272.158-.27.416.004.574l7.477 4.318c.275.158.722.159.995.001l3.715-2.145c.273-.157.271-.415-.003-.574l-7.478-4.317c-.274-.158-.722-.16-.994-.002l-3.715 2.145zM118.888 142.398c-.272.158-.27.416.004.574l3.739 2.159c.274.159.721.16.993.002l3.716-2.145c.273-.157.272-.416-.003-.574l-3.739-2.16c-.273-.157-.722-.158-.993 0l-3.717 2.144zM112.657 138.8c-.272.158-.27.417.003.575l3.74 2.158c.273.158.72.159.993.002l3.716-2.145c.273-.158.271-.416-.004-.574l-3.739-2.159c-.274-.158-.721-.159-.993-.001l-3.716 2.145zM106.425 135.203c-.272.157-.27.416.003.574l3.739 2.158c.274.158.722.16.994.002l3.716-2.145c.273-.158.271-.416-.003-.573l-3.74-2.16c-.273-.158-.72-.159-.993-.001l-3.716 2.145zM100.194 131.605c-.273.157-.271.416.003.574l3.738 2.158c.275.158.722.16.995.002l3.715-2.145c.274-.158.272-.416-.003-.573l-3.739-2.16c-.274-.158-.721-.158-.994-.001l-3.715 2.145zM93.962 128.007c-.272.157-.27.416.003.574l3.739 2.158c.274.158.721.16.994.003l3.716-2.145c.272-.158.271-.416-.003-.574l-3.74-2.16c-.273-.158-.721-.158-.993-.001l-3.716 2.145zM87.73 124.409c-.272.157-.27.416.004.574l3.738 2.158c.275.16.722.16.994.003l3.716-2.145c.273-.158.271-.416-.003-.574l-3.74-2.16c-.274-.158-.72-.158-.993-.001l-3.716 2.145zM81.499 120.811c-.272.157-.27.416.003.574l3.739 2.159c.273.158.721.16.993.002l3.716-2.145c.273-.158.272-.416-.003-.574l-3.739-2.16c-.274-.157-.721-.158-.994 0l-3.715 2.144zM75.267 117.214c-.273.157-.271.415.003.573l3.739 2.159c.274.158.722.159.994.001l3.715-2.145c.274-.157.272-.415-.003-.573l-3.738-2.159c-.275-.158-.722-.159-.995-.001l-3.715 2.145zM69.036 113.616c-.273.157-.272.415.003.574l3.738 2.158c.274.158.722.159.994.002l3.716-2.145c.273-.158.272-.416-.003-.574l-3.739-2.159c-.274-.158-.722-.159-.994-.001l-3.715 2.145zM62.803 110.018c-.272.157-.27.416.004.574l3.739 2.158c.274.158.721.159.993.002l3.716-2.145c.273-.158.271-.416-.003-.574l-3.74-2.159c-.273-.158-.72-.159-.993-.001l-3.716 2.145zM51.586 103.541c-.272.158-.27.416.004.574l8.724 5.037c.275.158.721.16.994.003l3.716-2.146c.272-.157.27-.415-.004-.574l-8.724-5.037c-.274-.158-.722-.159-.994-.002l-3.716 2.145zM115.687 147.701c-.272.157-.27.416.003.574l10.719 6.188c.274.158.721.16.994.002l3.715-2.145c.273-.157.271-.416-.003-.575l-10.719-6.188c-.273-.158-.721-.158-.993-.001l-3.716 2.145zM109.455 144.103c-.272.157-.27.416.004.574l3.739 2.158c.274.159.721.16.993.002l3.716-2.145c.273-.157.271-.416-.003-.573l-3.74-2.16c-.273-.158-.72-.158-.993 0l-3.716 2.144zM103.224 140.505c-.272.157-.27.416.003.574l3.739 2.159c.273.158.721.158.993.001l3.717-2.145c.272-.157.27-.416-.004-.573l-3.739-2.16c-.274-.157-.721-.158-.993 0l-3.716 2.144zM96.992 136.907c-.273.158-.271.416.003.574l3.739 2.159c.274.158.722.16.994.002l3.715-2.145c.274-.157.272-.416-.003-.574l-3.738-2.16c-.275-.157-.722-.158-.995 0l-3.715 2.144zM90.76 133.31c-.272.157-.27.415.004.573l3.738 2.159c.274.158.722.16.994.002l3.716-2.145c.273-.157.272-.416-.003-.574l-3.739-2.16c-.274-.157-.721-.158-.994 0l-3.715 2.144zM84.528 129.711c-.272.158-.27.416.004.574l3.739 2.159c.274.159.721.16.994.002l3.715-2.145c.273-.157.272-.416-.003-.574l-3.739-2.16c-.274-.157-.722-.158-.994 0l-3.716 2.144zM78.297 126.114c-.272.157-.27.416.004.574l3.738 2.158c.274.158.722.159.994.002l3.716-2.145c.272-.158.271-.416-.003-.574l-3.74-2.159c-.274-.158-.721-.159-.993-.001l-3.716 2.145zM72.065 122.516c-.272.157-.27.416.003.574l3.74 2.158c.273.158.721.16.993.002l3.716-2.145c.273-.158.271-.416-.004-.573l-3.738-2.16c-.274-.158-.722-.158-.994-.001l-3.716 2.145zM65.834 118.918c-.273.157-.271.416.003.574l3.738 2.158c.275.158.722.16.995.002l3.715-2.145c.273-.158.272-.416-.003-.573l-3.739-2.16c-.274-.158-.721-.158-.994-.001l-3.715 2.145zM59.602 115.32c-.272.157-.271.416.003.574l3.739 2.158c.274.159.721.16.994.003l3.715-2.145c.274-.158.272-.416-.003-.574l-3.738-2.16c-.274-.158-.722-.158-.994 0l-3.716 2.144zM45.394 107.117c-.272.157-.27.416.003.574l11.716 6.764c.274.158.72.159.993.001l3.716-2.145c.272-.157.27-.415-.003-.574l-11.716-6.763c-.273-.159-.721-.16-.993-.002l-3.716 2.145zM116.474 155.306c-.273.157-.271.416.003.574l3.739 2.158c.274.158.721.16.994.002l3.715-2.145c.274-.158.272-.415-.003-.573l-3.739-2.16c-.274-.158-.721-.159-.994-.001l-3.715 2.145zM104.01 148.11c-.272.157-.27.416.004.574l3.739 2.158c.274.16.721.16.993.003l3.716-2.145c.273-.158.271-.416-.003-.574l-3.74-2.16c-.273-.158-.72-.158-.993-.001l-3.716 2.145zM110.242 151.708c-.272.157-.27.416.003.574l3.739 2.158c.274.16.722.16.994.002l3.716-2.145c.273-.157.272-.415-.003-.573l-3.739-2.16c-.274-.158-.722-.158-.994-.001l-3.716 2.145zM97.03 144.08c-.271.158-.27.416.004.574l4.487 2.591c.273.158.721.159.993.002l3.717-2.145c.272-.158.27-.416-.004-.574l-4.486-2.591c-.275-.158-.722-.159-.994-.002l-3.716 2.145zM65.873 126.091c-.272.157-.272.416.003.574l28.665 16.55c.275.158.723.159.995.002l3.715-2.145c.273-.158.271-.416-.003-.574l-28.666-16.55c-.274-.158-.721-.16-.994-.002l-3.715 2.145zM59.641 122.493c-.273.158-.271.416.003.574l3.739 2.159c.274.158.721.16.994.002l3.715-2.145c.274-.157.272-.416-.003-.574l-3.738-2.16c-.275-.157-.722-.158-.995 0l-3.715 2.144zM53.41 118.896c-.273.157-.272.415.003.574l3.738 2.158c.274.158.722.159.994.002l3.716-2.145c.272-.158.272-.416-.003-.574l-3.74-2.159c-.273-.158-.721-.16-.993-.001l-3.715 2.145zM39.2 110.692c-.271.158-.27.416.005.574l2.243 1.296c.274.158.721.158.993.001l.743-.43c.273-.157.272-.414-.003-.572l-2.244-1.296c-.273-.158-.721-.16-.993-.002l-.743.43zM43.688 113.283c-.273.157-.271.416.003.574l2.243 1.295c.274.158.722.159.994.002l.743-.429c.273-.157.272-.416-.003-.574l-2.243-1.295c-.275-.158-.722-.16-.995-.003l-.742.43zM46.413 111.71c-.273.157-.272.415.003.574l2.243 1.295c.274.158.721.159.994.001l.743-.429c.273-.157.271-.415-.003-.573l-2.244-1.295c-.274-.16-.721-.16-.993-.003l-.743.43zM48.175 115.873c-.272.158-.27.416.003.574l2.243 1.296c.274.158.722.158.994.001l.743-.429c.273-.157.271-.415-.004-.573l-2.243-1.296c-.273-.158-.721-.16-.993-.001l-.743.428z"/>
        <path fill="#FFF" d="M158.1 123.652V70.835c0-2.634-1.861-5.844-4.157-7.17L93.315 28.66c-2.296-1.326-4.158-.264-4.158 2.37v52.817l68.943 39.804z"/>
        <path fill="#A5B3C4" d="M158.1 75.606v-4.77c0-2.635-1.861-5.846-4.157-7.17L93.315 28.66c-2.296-1.325-4.158-.264-4.158 2.37v4.77L158.1 75.607z"/>
        <path fill="#FFF" d="M154.116 68.138c0-1.208-.853-2.68-1.906-3.287-1.052-.608-1.905-.12-1.905 1.086 0 1.208.853 2.68 1.905 3.287 1.053.608 1.906.121 1.906-1.086M148.053 64.637c0-1.207-.853-2.679-1.905-3.286-1.052-.608-1.906-.121-1.906 1.086 0 1.208.854 2.68 1.906 3.287 1.052.607 1.905.121 1.905-1.087M141.99 61.137c0-1.207-.853-2.68-1.906-3.287-1.051-.607-1.905-.12-1.905 1.086 0 1.208.854 2.68 1.905 3.287 1.053.608 1.906.122 1.906-1.086"/>
        <path fill="#0C2033" d="M93.108 43.42l38.948 22.568v1.71l-38.948-22.57zM114.96 68.744l38.948 22.569v1.709L114.96 70.453zM137.061 85.84l16.603 9.619v1.71l-16.603-9.621zM93.108 48.153l30.286 17.55v1.709l-30.286-17.55zM93.108 73.388l38.948 22.57v1.708L93.108 75.097zM93.108 78.122l30.286 17.55v1.708L93.108 79.83z"/>
        <path fill="#FFF" d="M183.854 10c-19.243 0-34.846 12.672-34.846 28.31 0 9.09 5.277 17.18 13.474 22.358 2.52 6.293-3.145 11.639-9.124 13.077 6.594.565 18.326-.352 27.22-7.255 20.603 1.563 38.122-11.606 38.122-28.18 0-15.638-15.603-28.31-34.846-28.31"/>
        <path fill="#000" d="M180.942 53.274h7.12v-6.84h-7.12v6.84zm7.28-29.683l-.84 19.562h-5.8l-.84-19.562h7.48z"/>
    </g>
</svg>
