<svg xmlns="http://www.w3.org/2000/svg" width="26" height="29" viewBox="0 0 26 29">
    <path fill="#111D28" fill-rule="evenodd" d="M23.967 7.044l-4.431 4.43c.176.88.268 1.843.268 2.885 0 5.605-2.633 8.951-7.043 8.951-1.84 0-3.392-.588-4.562-1.708L23.55 6.248c-.41-.728-.88-1.409-1.408-2.031a12.407 12.407 0 0 0-.693-.743l.002-.002c-.032-.032-.064-.06-.096-.091-.071-.07-.14-.142-.212-.209l-.003.004C18.91 1.096 16.045 0 12.76 0 8.964 0 5.727 1.458 3.397 4.217 1.207 6.811 0 10.413 0 14.36c0 2.621.535 5.088 1.535 7.211l4.455-4.454a15.321 15.321 0 0 1-.234-2.757c0-2.58.526-4.667 1.562-6.2 1.214-1.8 3.096-2.753 5.443-2.753 1.826 0 3.346.576 4.502 1.647L1.942 22.375c.421.764.907 1.476 1.455 2.125.11.13.223.253.337.377 0 .002.002.003.003.004.13.143.266.281.402.417l.051.051c.044.043.086.089.13.13l.005-.004c2.23 2.122 5.118 3.241 8.436 3.241 3.798 0 7.043-1.457 9.382-4.216 2.204-2.598 3.417-6.2 3.417-10.141 0-2.663-.555-5.168-1.593-7.315" opacity=".3"/>
</svg>
