<svg xmlns="http://www.w3.org/2000/svg" width="12" height="14" viewBox="0 0 12 14">
    <path fill="#98A7B4" fill-rule="evenodd" d="M5.75 9.2c2.175 0 4.432-.557 5.75-1.612v.75c0 1.428-2.677 2.587-5.75 2.587S0 9.766 0 8.337v-.75C1.318 8.644 3.575 9.2 5.75 9.2m0-2.875c2.175 0 4.432-.557 5.75-1.612v.75c0 1.428-2.677 2.587-5.75 2.587S0 6.891 0 5.462v-.749c1.318 1.055 3.575 1.612 5.75 1.612m0 5.75c2.175 0 4.432-.557 5.75-1.612v.75c0 1.428-2.677 2.587-5.75 2.587S0 12.641 0 11.212v-.75c1.318 1.056 3.575 1.613 5.75 1.613m0-6.9c3.073 0 5.75-1.159 5.75-2.588C11.5 1.16 8.823 0 5.75 0S0 1.159 0 2.587c0 1.43 2.677 2.588 5.75 2.588"/>
</svg>
