<svg xmlns="http://www.w3.org/2000/svg" width="68" height="63" viewBox="0 0 68 63">
    <g fill="none" fill-rule="evenodd" transform="translate(.15)">
        <path fill="#1A82FF" d="M24.683 1.15a5.995 5.995 0 0 1 7.06 0c5.037 3.675 3.951 3.324 10.192 3.304a5.976 5.976 0 0 1 5.71 4.14c1.908 5.924 1.24 5.009 6.296 8.65a5.958 5.958 0 0 1 2.185 6.7c-1.942 5.9-1.952 4.767 0 10.691a5.948 5.948 0 0 1-2.185 6.698c-5.056 3.641-4.386 2.726-6.297 8.652a5.972 5.972 0 0 1-5.71 4.14c-6.242-.02-5.156-.371-10.19 3.305a5.995 5.995 0 0 1-7.061 0c-5.037-3.674-3.953-3.327-10.192-3.305a5.976 5.976 0 0 1-5.71-4.14c-1.908-5.931-1.25-5.016-6.299-8.652A5.956 5.956 0 0 1 .3 34.635c1.945-5.9 1.952-4.767 0-10.69a5.958 5.958 0 0 1 2.18-6.703c5.044-3.635 4.39-2.712 6.3-8.65a5.972 5.972 0 0 1 5.709-4.14c6.226.02 5.127.393 10.194-3.302"/>
        <path fill="#FFF" d="M41.293 24.351c.414 9.124-6.406 19.296-18.482 19.296a18.417 18.417 0 0 1-9.961-2.916c3.45.407 6.892-.551 9.624-2.685a6.52 6.52 0 0 1-6.077-4.506 6.545 6.545 0 0 0 2.94-.11c-3.128-.628-5.288-3.438-5.215-6.443a6.496 6.496 0 0 0 2.942.81 6.489 6.489 0 0 1-2.01-8.66 18.464 18.464 0 0 0 13.4 6.777c-.948-4.056 2.135-7.965 6.336-7.965 1.865 0 3.556.788 4.744 2.048 1.48-.29 2.873-.831 4.129-1.574a6.51 6.51 0 0 1-2.861 3.588 13.008 13.008 0 0 0 3.735-1.023 13.07 13.07 0 0 1-3.244 3.363"/>
        <ellipse cx="52.374" cy="47.605" fill="#FFF" stroke="#2E3F53" rx="14.591" ry="14.561"/>
        <path fill="#000" d="M60.885 47.9s-3.016 5.274-8.5 5.274c-.979 0-1.889-.206-2.732-.522l1.145-1.12a6.07 6.07 0 0 0 1.586.226c3.399 0 5.749-2.497 6.742-3.797a10.853 10.853 0 0 0-2.545-2.09l1.056-1.033c2.116 1.345 3.248 3.063 3.248 3.063zm-9.43 2.99l3.61-3.536c.722 2.202-1.42 4.295-3.61 3.535zm2.045-5.261c-2.332-1.029-4.739 1.35-3.734 3.685l-1.225 1.208c-1.286-.821-2.287-1.876-2.88-2.59 1.06-1.167 3.417-3.253 6.723-3.253a7.89 7.89 0 0 1 1.852.223l-.736.727zm4.267-4.091l-2.373 2.22a9.39 9.39 0 0 0-3.01-.494c-5.368 0-8.522 4.637-8.522 4.637s1.368 2.089 3.65 3.637l-2.064 2.059 1.002 1L58.77 42.54l-1.003-1.002z"/>
    </g>
</svg>
