<svg xmlns="http://www.w3.org/2000/svg" width="20" height="26" viewBox="0 0 20 26">
    <path fill="#455D75" fill-rule="evenodd" d="M4.954 7.578a.543.543 0 0 0 .463-.536V4.624c.002-1.853 1.534-3.54 3.21-3.54l.175.015A5.391 5.391 0 0 1 10.09.36 3.19 3.19 0 0 0 8.627 0c-2.27 0-4.288 2.173-4.292 4.622v2.422c0 .331.294.582.62.535zm6.923-6.495c-2.272 0-4.288 2.172-4.292 4.622l-.001 1.823a.542.542 0 0 0 1.083 0V5.707c.003-1.853 1.534-3.54 3.21-3.54.582 0 1.1.21 1.498.61.457.459.71 1.122.709 1.871v1.893a.54.54 0 1 0 1.081.002l.002-1.895c.002-2.062-1.431-3.565-3.29-3.565zm-6.46 8.531V26L19.5 23.883v-16.3L5.417 9.614zM3.25 25.707L0 23.41V8.025l3.25 1.472v16.21z"/>
</svg>
