<svg xmlns="http://www.w3.org/2000/svg" width="54" height="54" viewBox="0 0 54 54">
    <path fill="#2E3F53" fill-rule="evenodd" d="M44.449 24.07l3.138.376c2.417.29 2.485 3.431.113 3.564-6.185.347-11.385 2.28-13.77 3.501.968 3.933 2.07 7.792 2.07 12.452 0 5.636-1.757 8.248-3.778 1.291C27.738 29.822 20.844 26.435 13.5 24.75v-13.5c5.672-.162 10.62-2.342 15.658-4.511 3.897-1.676 10.91-3.364 14.436-1.382 2.914 1.881 2.506 3.902.657 3.737l-1.733-.072c-1.836-.211-2.072 2.403-.247 2.568 0 0 2.974.14 3.926.259 2.196.276 2.313 3.615-.09 3.49-1.028-.055-2.572-.093-2.572-.093-1.793-.07-1.968 2.425-.317 2.637 0 0 1.606.011 3.962.223 2.356.211 2.426 3.62-.009 3.517-1.953-.084-2.403-.061-2.403-.061-1.687.011-1.969 2.313-.32 2.508zM4.5 27H9V9H4.5v18zm49.5-.144c0-2.25-2.218-14.34-3.343-18.563C49.05 2.243 45.097 0 39.387 0 34.25 0 30.207 1.388 27.38 2.606c-4.612 1.986-8.53 3.417-13.88 3.928V4.5H0v27h13.5v-1.645c5.521 1.319 10.917 4.651 14.4 16.657C28.987 50.247 30.087 54 34.277 54c7.755 0 6.758-12.445 4.938-19.834 2.489-1.048 6.226-1.555 8.948-1.671C51.373 32.36 54 30.564 54 26.856z"/>
</svg>
