<svg xmlns="http://www.w3.org/2000/svg" width="43" height="89" viewBox="0 0 43 89">
    <g fill="none" fill-rule="evenodd">
        <path fill="#1E1D23" fill-opacity=".1" d="M3.883 69.125c4.82-2.783 12.661-2.77 17.512.031 4.85 2.801 4.875 7.328.055 10.111-4.82 2.783-12.661 2.77-17.512-.031-4.851-2.801-4.876-7.328-.055-10.111"/>
        <path fill="#DCE1E5" d="M4.922 27.321v16.501a2.674 2.674 0 0 0 2.675 2.675H8.74V27.156l-3.82.165z"/>
        <path fill="#B2B2B2" d="M6.266 43.136c0 .605.491 1.096 1.097 1.096"/>
        <path fill="#2E3F53" d="M3.65 45.024c.295-.196.622-.339.947-.48.617-.27 1.235-.542 1.81-.892.307-.186.6-.393.888-.605 1.547-1.14 3.013-2.467 4.823-3.112.126-.045.291-.076.372.03.04.051.045.12.049.185l.072 1.275c.007.136.015.275-.019.407-.072.28-.318.485-.58.612-.26.127-.546.196-.807.323-.283.136-.529.337-.797.5-.41.247-.865.404-1.311.577a18.667 18.667 0 0 0-4.746 2.69c-.104.082-.21.166-.335.211-.13.047-.27.049-.407.067a1.74 1.74 0 0 0-.71.258c-.098.063-.202.139-.318.126-.483-.053-.417-.949-.159-1.204.146-.145.345-.237.505-.365.246-.197.46-.427.724-.603"/>
        <path fill="#6F8294" d="M2.52 45.145a.965.965 0 1 0-1.928 0 .965.965 0 0 0 1.929 0"/>
        <path fill="#455D75" d="M2.712 49.369v1.486c0 .17-.112.34-.336.469-.446.257-1.167.259-1.61.002-.22-.127-.331-.294-.331-.462V49.37h2.277z"/>
        <path fill="#6F8294" d="M.766 49.84c-.221-.128-.331-.295-.331-.462 0-.17.111-.34.336-.469.446-.257 1.167-.259 1.61-.002.22.127.331.294.331.462 0 .169-.112.338-.336.468-.446.258-1.167.259-1.61.003"/>
        <path fill="#6F8294" d="M2.484 48.279v.381s.282.252.282.513c0 .262-.433.704-1.187.704s-1.156-.362-1.156-.653c0-.292.252-.483.252-.483v-.492l1.81.03z"/>
        <path fill="#455D75" d="M.666 46.077c-.05.252-.096.531.04.748a.166.166 0 0 0 .066.066c.033.015.072.01.108.002.347-.073.604-.355.835-.623.044-.05.087-.102.137-.146a1.11 1.11 0 0 1 .385-.202c.102-.034.226-.057.305.015.04.035.06.087.076.138.181.566.134 1.182.004 1.763-.056.248-.143.516-.358.65-.166.105-.374.108-.57.107-.155 0-.312-.001-.463-.038a1.302 1.302 0 0 1-.252-.096 1.096 1.096 0 0 1-.348-.246c-.227-.254-.255-.63-.207-.968.046-.325.139-.859.242-1.17"/>
        <path fill="#6F8294" d="M.76 45.417c.062.119-.038.254-.093.376-.063.143-.064.305-.065.461L.6 46.59c-.001.192.01.41.156.533.101.085.243.101.374.09.222-.02.437-.111.606-.258.273-.238.41-.6.67-.853.023-.023.048-.046.056-.077a.17.17 0 0 0-.005-.077l-.095-.417c-.008-.034-.018-.07-.046-.091a.146.146 0 0 0-.076-.022 4.995 4.995 0 0 0-1.095.02c-.161.02-.348.068-.41.22"/>
        <path fill="#2E3F53" d="M.126 47.31l.344-.2c.08-.045.19-.039.31.032a.96.96 0 0 1 .437.752c0 .138-.049.236-.128.28l-.344.2-.619-1.064z"/>
        <path fill="#455D75" d="M0 47.589c0-.137.048-.234.126-.28.08-.045.189-.039.31.031a.96.96 0 0 1 .437.753c0 .138-.05.235-.128.28-.079.045-.188.038-.309-.031A.962.962 0 0 1 0 47.589"/>
        <path fill="#2E3F53" d="M.22 47.716c0-.068.024-.115.063-.138.04-.023.094-.02.154.015.119.069.215.236.215.373 0 .068-.024.116-.063.138-.039.023-.093.019-.152-.015a.476.476 0 0 1-.216-.373"/>
        <path fill="#DCE1E5" d="M7.301 44.48c.076.066.216.085.263-.004.024-.046.013-.102.004-.154a1.965 1.965 0 0 1 .03-.849c.047-.186.122-.367.14-.56.021-.248-.117-.634-.419-.508-.206.086-.543.48-.644.678-.145.283-.022.476.171.693.182.205.257.531.455.704"/>
        <path fill="#1A82FF" d="M21.614 37.427c1.48.035 3.025-.356 3.025-1.176 0 0 .35-5.086-.439-9.207-.79-4.122-6.752-6.008-6.752-6.008l-.217-.022a2.748 2.748 0 0 1-5.47-.387l.019-.49-2.444-.591s-5.657-.702-4.823 7.059c0 .697 1.12 1.085 2.366 1.163h.06v14.198c0 3.578 7.32 5.133 13.688 4.667a1.31 1.31 0 0 0 1.008-1.274v-7.693l-.021-.239z"/>
        <path fill="#0C2033" d="M7.937 70.193a12.05 12.05 0 0 1-2.026 2.029 1.579 1.579 0 0 0 .962 2.83c.068 0 .154.005.22-.003a9.796 9.796 0 0 0 6.554-3.178l1.258-2.193-5.743-.737-1.225 1.252z"/>
        <path fill="#000" d="M13.515 69.5l-.816 1.422a9.797 9.797 0 0 1-6.554 3.179c-.066.008-.152.003-.221.003-.188 0-.365-.039-.532-.099a1.574 1.574 0 0 0 1.48 1.047c.07 0 .155.006.222-.003a9.8 9.8 0 0 0 6.553-3.178l1.259-2.193-1.39-.178z"/>
        <path fill="#0C2033" d="M14.463 72.766a12.04 12.04 0 0 1-2.362 2.478 1.578 1.578 0 0 0 .962 2.83c.069 0 .155.006.222-.002a9.808 9.808 0 0 0 7.16-3.913v-1.602"/>
        <path fill="#000" d="M19.497 72.59v.62a9.812 9.812 0 0 1-7.161 3.914c-.066.008-.152.002-.221.002-.188 0-.366-.038-.532-.098.219.609.795 1.047 1.48 1.047.07 0 .155.005.222-.003a9.808 9.808 0 0 0 7.16-3.913v-1.602l-.948.033z"/>
        <path fill="#DCE1E5" d="M17.258 13.666v6.961a2.748 2.748 0 0 1-5.496 0v-5.362"/>
        <path fill="#B2B2B2" d="M17.258 17.418v-3.753l-5.496 1.6v5.37c.04 0 .078.005.117.005 1.801 0 4.66-2.99 4.66-2.99.268 0 .514-.09.719-.232"/>
        <path fill="#DCE1E5" d="M11.879 19.692a3.566 3.566 0 0 1-3.566-3.567V11.39a5.294 5.294 0 1 1 10.588 0l-.006.22a9.54 9.54 0 0 1-1.366 4.932 1.27 1.27 0 0 1-.99.475s-2.859 2.675-4.66 2.675"/>
        <path fill="#000" d="M17.022 15.735c.307.016.594-.15.833-.342.926-.742 1.402-1.896 1.84-2.999.222-.56.445-1.121.581-1.708a6.017 6.017 0 0 0-.154-3.24c-.203-.61-.513-1.195-.976-1.64-.556-.532-1.292-.827-2.009-1.11-.682-.27-1.379-.543-2.111-.596-.63-.047-1.26.072-1.88.19-.744.142-1.495.289-2.187.597-.646.288-1.223.712-1.753 1.18-.514.453-.996.963-1.29 1.582-.293.62-.378 1.365-.095 1.989.444.98 1.626 1.388 2.7 1.457a7.416 7.416 0 0 0 3.52-.646c.248-.112.507-.241.776-.205.467.061.731.601.714 1.073-.016.472-.223.914-.312 1.378-.09.463-.023 1.018.367 1.283.043.03.092.055.144.053.12-.006.177-.15.205-.268l.25-1.048c.085-.36.182-.743.45-1 .267-.258.764-.312.981-.011.155.213.114.507.052.764a8.12 8.12 0 0 1-.722 1.918c-.22.416-.91 1.3.076 1.35"/>
        <path fill="#0F7CE8" d="M6.939 26.415v1.353h-.06a6.581 6.581 0 0 1-.825-.102l.885-1.251z"/>
        <path fill="#455D75" d="M13.598 70.608c-2.138.704-6.147.302-6.147-1.208V46.662L7.448 43.5c1.764 2.48 7.81 3.525 13.178 3.132a1.3 1.3 0 0 0 .41-.174l.007 3.161v22.104c0 2.058-7.454 2.058-7.454 0V50.852"/>
        <path fill="#2E3F53" d="M21.043 46.459v25.265c0 .682-.818 1.139-1.914 1.368V46.916l1.914-.457zM13.598 51.341v19.267c-.535.176-1.186.283-1.863.32V50.078l1.863 1.264z"/>
        <path fill="#0F7CE8" d="M18.95 31.516v4.736c0 .748 1.292 1.14 2.644 1.175l.04.555v7.377c0 .62-.43 1.139-1.007 1.274-1.086.08-2.198.1-3.297.062v-3.968l1.62-11.211z"/>
        <path fill="#DCE1E5" d="M19.684 52.453s-.68-.219-.68-1.36c0-1.139 1.338-1.965 1.338-5.721v-8.083l3.405-.226v14.55a2.967 2.967 0 0 1-2.967 2.967 1.36 1.36 0 0 1-1.36-1.36s.045-.548.264-.767c.219-.219.899-1.513.92-1.93"/>
        <path fill="#000" d="M11.462 13.368l.557.114s-.148.398.184.393c.331-.004.525-.345.525-.345s.825.124 1.018.249c.193.125-.57-.644-1.106-.663-.537-.018-1.178.252-1.178.252M8.072 12.296s.347.225.47.332c.123.106.138.336.343.36.205.022.559-.187.559-.187s-.704-.648-1.372-.505M9.505 17.447s1.343.212 1.69.437c0 0-.713.086-1.034-.012-.32-.098-.656-.425-.656-.425"/>
        <path stroke="#000" stroke-width=".503" d="M9.646 13.59s-.199.94-.374 1.211c-.175.27-.623 1.132.177 1.293M9.638 11.994s-1.26-1.228-1.69-1.369M11.058 12.722s1.696-.628 2.596-.62"/>
        <path fill="#1E1D23" fill-opacity=".1" d="M22.858 77.902c4.565-2.477 11.988-2.464 16.582.028 4.593 2.493 4.616 6.521.052 8.999-4.565 2.477-11.989 2.464-16.582-.029-4.593-2.492-4.616-6.521-.052-8.998"/>
        <path fill="#0C2033" d="M26.847 81.016a6.765 6.765 0 0 0-.732 1.99c-.062.321-.045.743.28.86.141.052.3.023.446-.02.583-.169 1.079-.53 1.557-.888.844-.63 1.712-1.3 2.153-2.225 0 0 .888-1.136 1.205-1.434.318-.298 1.97-2.47 1.97-2.47s-.769-2.767-2.015-2.533c-1.246.234-4.864 6.72-4.864 6.72"/>
        <path fill="#C2CBD3" d="M23.38 41.178a20.251 20.251 0 0 0-1.628 2.054c-.117.175-.225.418-.074.568.156.155.43.054.626-.054-.39.35-.67.805-.8 1.296-.055.21-.082.436.009.633.184.402.736.492 1.2.527.273.02.568.036.801-.1.112-.063.2-.158.28-.255.374-.447.626-.983.726-1.543.132-.002.99-3.069 1.121-3.07l-2.26-.056zM27.419 61.061c.126.738.261 1.375.572 2.062.185.407.37.818.48 1.248.118.462.147.94.174 1.415.146 2.506.29 5.011.43 7.517.03.548.061 1.097.014 1.643-.047.544-.17 1.078-.293 1.61-.263 1.138-.528 2.283-1.03 3.347-.158.335-.31.794.004 1.013.292.204.696-.017.98-.232 1.155-.875 2.35-1.797 2.962-3.068 1.215-2.523-.226-5.555.6-8.214.182-.586.335-1.042.36-1.778.025-.736.32-1.865.32-1.865l1.2-5.194-5.89-1.683s-1.133.718-.883 2.18"/>
        <path fill="#48636F" d="M24.867 42.175c-.473-.376-1.232-.466-1.486-.997-.205-.43.038-.92.264-1.34.8-1.483 1.45-3.038 1.94-4.635l.554-1.677 1.585 2.3-.679 5.365-2.178.984z"/>
        <path fill="#1E1D23" d="M25.585 35.203c-.047.155-.103.308-.154.463l.095 4.411c.013.575.03 1.164.2 1.71l1.32-.596.678-5.365-1.585-2.3-.554 1.677z"/>
        <path fill="#48636F" d="M27.06 21.877c-.736.617-1.173 1.502-1.375 2.409-.203.908-.188 1.844-.144 2.77.024.495.056.997-.062 1.48-.144.596-.504 1.122-.783 1.674-.573 1.132-.743 2.642.219 3.512.376.34.906.563 1.117 1.013.107.229.114.487.12.737l.099 4.605c.016.733.038 1.491.374 2.152.645 1.265 2.225 1.812 3.675 2.14 1.16.262 2.346.463 3.538.416 1.192-.048 2.396-.359 3.346-1.036.275-.197.855-.438.952-.75.21-.669-.195-7.185.18-8.085.225-1.06 1.66-2.293 2.25-3.74a6.087 6.087 0 0 0 .301-3.652c-.087-.377-.213-.754-.448-1.07-.47-.633-1.29-.929-1.98-1.346-.699-.423-1.286-.988-1.866-1.548l-1.178-1.017-7.791-1.334-.543.67z"/>
        <path fill="#1A82FF" d="M28.991 29.369c-.637-1.033-.872-2.25-.872-3.443 0-1.194.22-2.377.44-3.552l.072-.912 7.066.795-.016 1.354a10.167 10.167 0 0 1-1.939 3.93s-2.273 2.267-3.33 2.21c-1.057-.057-1.421-.382-1.421-.382"/>
        <path fill="#000" d="M35.03 23.323c.939.45 2.205.163 2.821-.64.532-.692.566-1.606.579-2.46l.059-3.804c.02-1.306.022-2.683-.667-3.816a3.805 3.805 0 0 0-1.684-1.475c-.308-.139-.635-.238-.938-.387-.52-.256-.953-.653-1.484-.889-.537-.24-1.147-.3-1.74-.282-1.642.05-3.262.707-4.394 1.826-1.131 1.119-1.75 2.691-1.62 4.23.054.653.236 1.29.306 1.942.126 1.188-.126 2.386-.05 3.577.016.232.048.476.193.664.337.437 1.044.349 1.6.214l1.062-.128 4.029-.091 1.929 1.519z"/>
        <path fill="#C2CBD3" d="M30.684 22.961c-.515.14-1.079-.049-1.494-.367-.415-.318-.709-.75-.994-1.177-.439-.654-.886-1.34-.977-2.11-.074-.615.088-1.24.015-1.855-.07-.597-.36-1.161-.38-1.76-.026-.732.345-1.417.706-2.065.494 1.403 1.954 1.945 3.396 2.535 1.176.48 2.575.785 3.706.218 0 0 .227 3.255-.326 4.293-.552 1.039-3.652 2.288-3.652 2.288"/>
        <path fill="#231F20" d="M34.46 20.667c.355-.46 1.983-2.242 2.264-2.746-.332-.461-.966-1.143-1.504-1.464-.33.276-.952.945-1.256 1.247l-2.194 2.423-.765.81c-.084.089-.175.212-.116.318.04.072.131.1.212.129.317.111.596.316.787.579l.76.55 1.811-1.846z"/>
        <path fill="#C2CBD3" d="M31.637 23.179c-.091-.982.482-1.796.397-2.75-.05-.554-.328-1.122-.12-1.643.135-.339.452-.58.755-.804.189-.139.383-.28.61-.354.227-.073.497-.066.685.076.178.134.245.358.293.569a7.216 7.216 0 0 1-.094 3.555c-.135.477-.293 1.416-.368 1.905l-2.158-.554z"/>
        <path fill="#1E1D23" d="M39.636 28.631c-.496-.27-.792-.486-1.35-.451-.56.036-1.084.265-1.563.536a8.244 8.244 0 0 0-2.006 1.582c-.587.634-1.194 1.425-2.088 1.457.206-1.91.68-3.796 1.41-5.59.09-.222.185-.46.122-.69-.081-.295-.393-.474-.688-.601-.949-.41-2.138-.57-2.987.002 0 0-.423 1.149-.497 1.468l-2.184 9.448c-.067.288-.134.583-.098.876.035.293.193.59.472.724.22.106.481.098.73.087.589-.024 1.18-.05 1.758-.162.737-.142 1.434-.421 2.125-.7l1.305-.523c1.165-.468 2.332-.937 3.439-1.517 1.19-.625 2.375-1.467 2.774-2.692.194-.595.183-1.232.105-1.85a2.072 2.072 0 0 0-.78-1.404"/>
        <path fill="#48636F" d="M39.998 27.269c-.496-.271-.792-.487-1.35-.451-.559.035-1.083.265-1.563.536a8.244 8.244 0 0 0-2.006 1.582c-.587.634-1.194 1.425-2.087 1.457.205-1.911.68-3.797 1.409-5.59.09-.222.185-.46.122-.69-.08-.296-.393-.475-.687-.602-.95-.409-2.139-.57-2.987.002 0 0-.423 1.15-.497 1.469l-2.185 9.447c-.067.289-.134.583-.098.876.036.293.193.59.473.724.22.107.48.098.728.088.59-.025 1.182-.05 1.76-.162.737-.143 1.433-.422 2.124-.7l1.305-.523c1.166-.469 2.333-.938 3.439-1.518 1.19-.625 2.376-1.466 2.775-2.691.193-.595.182-1.233.104-1.85a2.07 2.07 0 0 0-.779-1.404"/>
        <path fill="#1E1D23" d="M32.163 61.246l.25 5.194s-.295 1.129-.32 1.865c-.025.736-.178 1.193-.36 1.778-.826 2.659.615 5.691-.6 8.214-.257.533-.619 1.001-1.034 1.433.718-.613 1.361-1.29 1.759-2.114 1.215-2.523-.226-5.556.6-8.214.181-.585.335-1.042.36-1.778.025-.737.319-1.865.319-1.865l1.2-5.195-2.174.682z"/>
        <path fill="#0C2033" d="M30.404 82.597l1.42-2.382 4.283-3.957c.483.628 1.057.968.703 1.667-.06.12-.133.236-.161.366-.035.158-.001.322.025.483.106.637.096 1.285.086 1.93-.001.079-.004.161-.049.228-.048.072-.139.11-.229.126a.632.632 0 0 1-.629-.276c-.637.684-1.346 2.519-2.016 3.175-.248.242-.57.403-.886.56l-1.372.685c-.31.154-.632.312-.982.336-.35.024-.739-.122-.876-.425-.115-.255-.031-.546.053-.811l.436-1.36c.04-.126.086-.26.194-.345"/>
        <path fill="#C2CBD3" d="M36.778 63.683c.274.94.52 1.887.737 2.84.17.743.323 1.498.278 2.256-.062 1.034-.487 2.013-.836 2.996a21.31 21.31 0 0 0-.863 3.208c-.08.424-.144.87.013 1.275.082.21.221.4.291.614.081.248.065.514.025.77-.2 1.248-.957 2.353-1.806 3.33-.688.792-1.513 1.564-2.575 1.79-.087.019-.186.032-.262-.012-.113-.064-.123-.211-.117-.334.04-.913.202-1.821.484-2.696.266-.825.637-1.62.84-2.46.249-1.024.24-2.084.233-3.134l-.05-6.014c-.004-.426-.007-.854-.093-1.272-.097-.47-.295-.915-.399-1.383-.167-.752-.085-1.53-.002-2.295l.293-1.235 3.578.554.23 1.202z"/>
        <path fill="#1E1D23" d="M32.469 36.181c.192.147.442.204.683.257.39.086.789.173 1.188.141.535-.043 1.023-.293 1.492-.538"/>
        <path fill="#231F20" d="M26.625 42.23c.645 1.264 2.225 1.81 3.675 2.139 1.16.263 2.347.463 3.538.415 1.191-.047 2.396-.358 3.346-1.035.275-.197.538-.438.636-.75 1.596 1.98 2.548 5.068 1.756 7.438-.567 1.693-1.756 3.272-1.662 5.044.03.579.2 1.14.325 1.708.179.807.271 1.632.274 2.456.003.838-.103 1.723-.637 2.394-.645.81-1.803 1.14-2.877 1.083-1.075-.056-2.096-.44-3.094-.82l-1.904-.724c-1.2-.457-2.44-.939-3.323-1.829-1.196-1.207-.386-18.409-.386-18.409l.333.89z"/>
        <path fill="#000" d="M29.807 17.616l.465.096s-.123.332.154.329c.277-.004.439-.289.439-.289s.69.103.85.208c.162.104-.476-.539-.924-.554-.449-.016-.984.21-.984.21M26.973 16.72s.29.188.393.277c.102.09.115.282.286.3.171.02.468-.155.468-.155s-.589-.542-1.147-.422M28.17 21.025s.318-.448.658-.373c.3.066.62.651.756.74 0 0-.597.57-.865.488-.268-.082-.548-.855-.548-.855M28.102 20.002l.043-.214c-.145-.029-.234-.088-.273-.18-.087-.207.082-.56.196-.735.153-.236.31-.966.327-1.05l-.213-.044c-.045.213-.186.804-.297.976-.086.133-.357.595-.214.936.068.162.213.267.431.31M28.116 16.535l.07-.206c-.146-.05-1.429-.479-1.817-.429l.027.216c.287-.037 1.339.29 1.72.419M29.762 17.082c.015 0 1.497.051 2.167.326l.084-.201-.013-.005c-.71-.288-2.17-.336-2.232-.338l-.006.218z"/>
        <path fill="#0F7CE8" d="M8.228 6.404c.062.02-.72 1.152-1.275 1.625-.556.473-2.345 2.016.309 3.64 2.653 1.626 4.607 1.44 6.52.392 1.913-1.05 5.633-1.867 6.624-3.353.74-1.111.082-2.387.082-2.387l-12.26.083z"/>
        <path fill="#43A1FF" d="M8.228 6.157c.062.02-.72 1.152-1.275 1.625-.556.473-2.345 2.016.309 3.64 2.653 1.626 4.607 1.44 6.52.392 1.913-1.05 5.633-1.867 6.624-3.353.74-1.111.082-2.386.082-2.386l-12.26.082z"/>
        <path fill="#1A82FF" d="M8.29 6.445a6.11 6.11 0 0 1 12.219 0s.473 3.723-6.13 3.723c-6.604 0-6.09-3.723-6.09-3.723"/>
        <path fill="#43A1FF" d="M19.665 3.75s-.946-.246-2.263.288c-1.316.535-4.113 3.004-4.113 3.004s2.18-3.18 3.66-3.826c1.605-.7 2.675-.453 2.716.534M18.143 1.611s-1.893-.823-3.99.823c-2.099 1.645-3.991 3.044-3.991 3.044s1.708-3.031 3.415-4.155c1.686-1.11 3.29-1.316 4.566.288"/>
        <path fill="#43A1FF" d="M15.243.83s-1.379-.474-2.654.37c-1.275.843-3.023 2.283-3.785 3.106 0 0 1.597-2.817 3.333-3.785 1.768-.987 2.818-.391 3.106.308"/>
    </g>
</svg>
