<svg xmlns="http://www.w3.org/2000/svg" width="15" height="14" viewBox="0 0 15 14">
    <path fill="#98A7B4" fill-rule="evenodd" d="M0 12.233h3.572v1.618l3.37-3.37-3.37-3.37v1.618H0v3.504zM12.548 1v.5a1.001 1.001 0 0 1-2 0V1h-5v.5a1.001 1.001 0 0 1-2 0V1h-1.5v7.229h1V4h10v7H7.131l-1 1h7.917V1h-1.5zm-8.5 5.88l.12.12h1.88V5h-2v1.88zm6 3.12h2V8h-2v2zm0-3h2V5h-2v2zm-5.5-5a.5.5 0 0 0 .5-.5v-1a.5.5 0 0 0-1 0v1a.5.5 0 0 0 .5.5zm.62 6l.88.88V8h-.88zm6.38-6a.5.5 0 0 0 .5-.5v-1a.5.5 0 0 0-1 0v1a.5.5 0 0 0 .5.5zm-4.5 7.88l.12.12h1.88V8h-2v1.88zm0-2.88h2V5h-2v2z"/>
</svg>
