<svg xmlns="http://www.w3.org/2000/svg" width="31" height="30" viewBox="0 0 31 30">
    <path fill="#624FCF" fill-rule="evenodd" d="M15.216 9.86c-2.665.005-4.828 2.174-4.816 4.829a4.815 4.815 0 0 0 4.836 4.804 4.812 4.812 0 0 0 4.81-4.824 4.82 4.82 0 0 0-4.83-4.809m4.925 8.363c.263.083.536.14.784.252.79.358 1.624.658 2.343 1.13.822.541.743 1.124-.101 1.694-1.21-1.177-2.785-1.395-4.351-1.616-.19-.027-.42.053-.597.149-1.984 1.071-3.962 1.084-5.952.015-.197-.105-.454-.19-.665-.16-1.563.22-3.132.447-4.329 1.625-.843-.643-.89-1.16-.065-1.733.573-.398 1.238-.67 1.88-.959.396-.177.826-.278 1.335-.444-.41-.378-.315-1.215-1.014-.972-1.014.353-2.055.757-2.924 1.366C4.97 19.631 5 21.225 6.497 22.33a7.662 7.662 0 0 0 2.126 1.094c3.792 1.244 7.66 1.334 11.529.458 1.2-.271 2.416-.713 3.473-1.335 1.965-1.156 1.92-3.037-.016-4.262-.592-.374-1.259-.646-1.92-.89-1.106-.408-1.115-.383-1.548.83M15.205.005c.614-.053.912.334 1.194.766 2.22 3.406 4.444 6.81 6.666 10.214 2.326 3.563 4.654 7.125 6.977 10.69.737 1.132.537 1.748-.715 2.222-4.417 1.672-8.837 3.332-13.248 5.02-.59.226-1.104.23-1.698.002-4.41-1.689-8.833-3.347-13.25-5.017-1.226-.463-1.44-1.116-.714-2.23C4.962 14.703 9.513 7.737 14.057.767c.284-.433.58-.82 1.148-.761" opacity=".3"/>
</svg>
