<svg xmlns="http://www.w3.org/2000/svg" xmlns:xlink="http://www.w3.org/1999/xlink" width="24" height="24" viewBox="0 0 24 24">
    <defs>
        <path id="a" d="M0 0h23.065v24H0z"/>
    </defs>
    <g fill="none" fill-rule="evenodd">
        <g>
            <mask id="b" fill="#fff">
                <use xlink:href="#a"/>
            </mask>
            <path fill="#26D198" d="M10.09.471a2.446 2.446 0 0 1 2.886 0c2.059 1.506 1.615 1.362 4.166 1.354a2.443 2.443 0 0 1 2.334 1.696c.78 2.427.507 2.052 2.574 3.544a2.444 2.444 0 0 1 .893 2.745c-.794 2.417-.798 1.953 0 4.38a2.44 2.44 0 0 1-.893 2.744c-2.067 1.492-1.793 1.117-2.574 3.545a2.442 2.442 0 0 1-2.334 1.696c-2.552-.008-2.108-.152-4.166 1.354a2.446 2.446 0 0 1-2.886 0c-2.06-1.505-1.616-1.363-4.166-1.354A2.443 2.443 0 0 1 3.59 20.48c-.78-2.43-.511-2.055-2.575-3.545a2.443 2.443 0 0 1-.892-2.744c.795-2.417.798-1.953 0-4.38a2.444 2.444 0 0 1 .89-2.746C3.077 5.575 2.81 5.954 3.59 3.52a2.442 2.442 0 0 1 2.334-1.696c2.545.008 2.096.161 4.167-1.353" mask="url(#b)"/>
        </g>
        <path fill="#FFF" d="M10.307 16.655l-4.072-4.072 1.549-1.549 2.523 2.523 5.809-5.809 1.549 1.55z"/>
    </g>
</svg>
